<svg width="159" height="52" viewBox="0 0 159 52" fill="none" xmlns="http://www.w3.org/2000/svg">
<path opacity="0.6" d="M28.1809 13.36C27.361 10.812 26.0114 8.80017 24.1319 7.32438C22.2651 5.84858 19.9316 5.11068 17.1314 5.11068C14.8357 5.11068 12.7481 5.70352 10.8687 6.8892C8.98926 8.07489 7.49455 9.82188 6.38455 12.1302C5.27455 14.4385 4.71955 17.2702 4.71955 20.6255C4.71955 23.9807 5.28085 26.8124 6.40347 29.1207C7.52608 31.429 9.04602 33.176 10.9633 34.3617C12.8806 35.5474 15.0375 36.1402 17.4341 36.1402C19.6163 36.1402 21.5461 35.6798 23.2237 34.759C24.914 33.8256 26.2384 32.5138 27.197 30.8236C28.1557 29.1207 28.6602 27.1089 28.7107 24.788H18.4936V20.6255H33.2516V24.788C33.2516 27.9792 32.5705 30.7542 31.2082 33.113C29.8585 35.4717 27.9917 37.3007 25.6077 38.5999C23.2364 39.8865 20.5118 40.5298 17.4341 40.5298C14.0032 40.5298 10.9885 39.7225 8.39011 38.108C5.80432 36.4934 3.78614 34.1977 2.33557 31.2209C0.897614 28.2441 0.178636 24.7123 0.178636 20.6255C0.178636 16.5386 0.897614 13.0068 2.33557 10.03C3.78614 7.05318 5.7854 4.7575 8.33335 3.14295C10.8939 1.52841 13.8266 0.721136 17.1314 0.721136C19.8559 0.721136 22.3282 1.25722 24.5482 2.32938C26.7682 3.38892 28.6161 4.87102 30.0919 6.77568C31.5677 8.66773 32.5452 10.8625 33.0245 13.36H28.1809ZM49.529 40.6055C46.9053 40.6055 44.6033 39.9811 42.623 38.7323C40.6553 37.4836 39.1164 35.7366 38.0064 33.4914C36.909 31.2461 36.3603 28.6225 36.3603 25.6205C36.3603 22.5932 36.909 19.9506 38.0064 17.6928C39.1164 15.4349 40.6553 13.6816 42.623 12.4329C44.6033 11.1841 46.9053 10.5598 49.529 10.5598C52.1526 10.5598 54.4483 11.1841 56.416 12.4329C58.3963 13.6816 59.9352 15.4349 61.0326 17.6928C62.1426 19.9506 62.6976 22.5932 62.6976 25.6205C62.6976 28.6225 62.1426 31.2461 61.0326 33.4914C59.9352 35.7366 58.3963 37.4836 56.416 38.7323C54.4483 39.9811 52.1526 40.6055 49.529 40.6055ZM49.529 36.5943C51.5219 36.5943 53.1617 36.0835 54.4483 35.0618C55.7349 34.0401 56.6872 32.6967 57.3053 31.0317C57.9233 29.3667 58.2324 27.563 58.2324 25.6205C58.2324 23.678 57.9233 21.8679 57.3053 20.1903C56.6872 18.5127 55.7349 17.1567 54.4483 16.1224C53.1617 15.0881 51.5219 14.5709 49.529 14.5709C47.536 14.5709 45.8962 15.0881 44.6096 16.1224C43.3231 17.1567 42.3707 18.5127 41.7527 20.1903C41.1346 21.8679 40.8256 23.678 40.8256 25.6205C40.8256 27.563 41.1346 29.3667 41.7527 31.0317C42.3707 32.6967 43.3231 34.0401 44.6096 35.0618C45.8962 36.0835 47.536 36.5943 49.529 36.5943ZM78.3601 40.6055C75.7364 40.6055 73.4344 39.9811 71.4541 38.7323C69.4864 37.4836 67.9475 35.7366 66.8375 33.4914C65.7401 31.2461 65.1914 28.6225 65.1914 25.6205C65.1914 22.5932 65.7401 19.9506 66.8375 17.6928C67.9475 15.4349 69.4864 13.6816 71.4541 12.4329C73.4344 11.1841 75.7364 10.5598 78.3601 10.5598C80.9837 10.5598 83.2794 11.1841 85.2471 12.4329C87.2274 13.6816 88.7663 15.4349 89.8637 17.6928C90.9737 19.9506 91.5287 22.5932 91.5287 25.6205C91.5287 28.6225 90.9737 31.2461 89.8637 33.4914C88.7663 35.7366 87.2274 37.4836 85.2471 38.7323C83.2794 39.9811 80.9837 40.6055 78.3601 40.6055ZM78.3601 36.5943C80.353 36.5943 81.9928 36.0835 83.2794 35.0618C84.566 34.0401 85.5183 32.6967 86.1364 31.0317C86.7544 29.3667 87.0635 27.563 87.0635 25.6205C87.0635 23.678 86.7544 21.8679 86.1364 20.1903C85.5183 18.5127 84.566 17.1567 83.2794 16.1224C81.9928 15.0881 80.353 14.5709 78.3601 14.5709C76.3671 14.5709 74.7273 15.0881 73.4407 16.1224C72.1541 17.1567 71.2018 18.5127 70.5837 20.1903C69.9657 21.8679 69.6566 23.678 69.6566 25.6205C69.6566 27.563 69.9657 29.3667 70.5837 31.0317C71.2018 32.6967 72.1541 34.0401 73.4407 35.0618C74.7273 36.0835 76.3671 36.5943 78.3601 36.5943ZM107.115 51.5036C103.874 51.5036 101.307 50.9108 99.4148 49.7251C97.5354 48.552 96.1416 47.2024 95.2334 45.6761L98.7905 43.1786C99.1941 43.7084 99.705 44.3139 100.323 44.995C100.941 45.6887 101.786 46.2879 102.858 46.7924C103.943 47.3096 105.362 47.5682 107.115 47.5682C109.462 47.5682 111.398 47.0006 112.924 45.8653C114.45 44.7301 115.213 42.9516 115.213 40.5298V34.6266H114.835C114.507 35.1564 114.04 35.8123 113.435 36.5943C112.842 37.3638 111.984 38.0512 110.862 38.6566C109.752 39.2495 108.251 39.5459 106.359 39.5459C104.013 39.5459 101.906 38.9909 100.039 37.8809C98.185 36.7709 96.7155 35.1564 95.6308 33.0373C94.5586 30.9182 94.0225 28.345 94.0225 25.3177C94.0225 22.3409 94.546 19.7488 95.5929 17.5414C96.6398 15.3214 98.0967 13.606 99.9635 12.3951C101.83 11.1715 103.987 10.5598 106.434 10.5598C108.326 10.5598 109.827 10.8751 110.937 11.5058C112.06 12.1239 112.918 12.8302 113.511 13.6249C114.116 14.4069 114.583 15.0502 114.911 15.5548H115.365V10.9382H119.679V40.8325C119.679 43.33 119.111 45.3608 117.976 46.9249C116.853 48.5016 115.34 49.6557 113.435 50.3873C111.543 51.1315 109.436 51.5036 107.115 51.5036ZM106.964 35.5348C109.651 35.5348 111.707 34.6266 113.132 32.8102C114.57 30.9812 115.289 28.4585 115.289 25.242C115.289 22.1012 114.583 19.5407 113.17 17.5603C111.757 15.5674 109.689 14.5709 106.964 14.5709C105.072 14.5709 103.495 15.0502 102.234 16.0089C100.985 16.9675 100.046 18.2541 99.4148 19.8686C98.7968 21.4832 98.4877 23.2743 98.4877 25.242C98.4877 28.2693 99.2004 30.7416 100.626 32.6589C102.051 34.5761 104.164 35.5348 106.964 35.5348ZM129.358 1.25091V40H124.892V1.25091H129.358ZM146.761 40.6055C143.96 40.6055 141.545 39.9874 139.514 38.7513C137.496 37.5025 135.938 35.7618 134.841 33.5292C133.756 31.284 133.214 28.673 133.214 25.6961C133.214 22.7193 133.756 20.0957 134.841 17.8252C135.938 15.5422 137.464 13.7636 139.42 12.4897C141.387 11.2031 143.683 10.5598 146.307 10.5598C147.82 10.5598 149.315 10.812 150.791 11.3166C152.267 11.8211 153.61 12.641 154.821 13.7763C156.032 14.8989 156.997 16.3873 157.716 18.2415C158.435 20.0957 158.794 22.3787 158.794 25.0907V26.9827H137.698C137.799 30.0857 138.675 32.4634 140.328 34.1157C141.993 35.7681 144.137 36.5943 146.761 36.5943C148.514 36.5943 150.021 36.2159 151.283 35.4591C152.544 34.7023 153.458 33.567 154.026 32.0534L158.34 33.2643C157.659 35.4591 156.297 37.2313 154.253 38.581C152.21 39.9306 149.712 40.6055 146.761 40.6055ZM137.698 23.123H154.253C154.253 20.6633 153.534 18.6262 152.096 17.0116C150.658 15.3845 148.728 14.5709 146.307 14.5709C144.604 14.5709 143.128 14.9682 141.879 15.7629C140.63 16.5576 139.647 17.6108 138.928 18.9226C138.209 20.2218 137.799 21.6219 137.698 23.123Z" fill="#414141"/>
</svg>
