<svg width="21" height="18" fill="none" xmlns="http://www.w3.org/2000/svg"><path d="M16.161 8.775c1.09.245 2.153.681 2.998 1.526 1.854 1.826 1.608 4.578-.572 6.132a7.363 7.363 0 01-4.279 1.335c-4.687.055-9.402.028-14.09.028-.054 0-.109-.028-.218-.028V.326C.164.299.327.271.49.271h12.892c1.498 0 2.943.3 4.251 1.036 1.172.627 2.044 1.554 2.235 2.916.218 1.5-.382 2.698-1.635 3.543-.654.41-1.39.682-2.072 1.009zM5.178 14.498c2.562 0 5.097.027 7.604-.027.545-.028 1.145-.3 1.608-.627.763-.518.872-1.526.327-2.235-.49-.654-1.2-1.008-1.962-1.008-2.48-.055-4.988-.055-7.495-.082-.027 0-.055.054-.11.082.028 1.253.028 2.534.028 3.897zM5.151 7.22c.136.027.218.027.3.027h6.268c.382 0 .763-.054 1.117-.136 1.009-.245 1.69-.954 1.69-1.717 0-.79-.6-1.417-1.608-1.717-.19-.054-.381-.109-.545-.109L7.44 3.487H5.205c-.027.246-.027.436-.027.627-.027 1.036-.027 2.044-.027 3.107z" fill="#1F1F1F"/></svg>