<svg width="157" height="25" fill="none" xmlns="http://www.w3.org/2000/svg"><path d="M62.274 8.623V23.79h-6.98V1.35c-.293.293-.475.44-.658.622C51.09 5.92 47.509 9.83 43.964 13.776a1.923 1.923 0 00-.438 1.17c-.037 2.923-.037 5.847-.037 8.807h-6.98v-8.661c0-.621-.146-1.06-.584-1.498-3.692-4.02-7.456-8.15-11.183-12.243-.256-.256-.476-.548-.805-.914.366-.036.622-.073.914-.073 2.083 0 4.203.037 6.286 0 .548 0 .95.183 1.316.585 2.302 2.704 4.677 5.409 7.016 8.113.183.22.366.438.622.694 1.864-2.192 3.69-4.312 5.555-6.468.694-.804 1.388-1.681 2.12-2.449.218-.256.657-.438.986-.438 4.385-.037 8.807-.037 13.193 0 .402 0 .84.255 1.133.511 4.714 4.495 9.392 9.027 14.106 13.559.147.146.33.292.585.548V.437h7.017V17.03c0 .548-.146.877-.548 1.242a831.528 831.528 0 00-6.36 5.446C72.69 18.71 67.537 13.74 62.275 8.623zm66.039-.803v15.97h-6.944V.4c.256 0 .475-.036.731-.036 2.778 0 5.555.037 8.332-.036.585 0 .841.219 1.097.694 2.339 4.166 4.678 8.332 7.053 12.498.146.293.329.585.548.914 1.791-3.18 3.582-6.322 5.336-9.465a149.55 149.55 0 012.339-4.13c.146-.22.438-.475.658-.511 3.143.036 6.249.036 9.428.036V23.79h-6.907V7.82c-.073-.037-.109-.037-.182-.074-.147.22-.293.475-.439.695-2.741 4.897-5.518 9.757-8.259 14.654-.293.549-.622.695-1.243.768-1.754.256-2.668-.439-3.508-2.01-2.522-4.751-5.226-9.392-7.894-14.07 0 .036-.073.036-.146.036z" fill="#fff"/><path d="M21.672 11.766c1.461.33 2.887.914 4.02 2.047 2.485 2.448 2.156 6.14-.768 8.223-1.718 1.206-3.691 1.79-5.738 1.79-6.285.073-12.608.037-18.894.037-.073 0-.146-.037-.292-.037V.437C.22.401.439.364.658.364h17.286c2.01 0 3.947.402 5.701 1.389 1.572.84 2.74 2.083 2.997 3.91.292 2.01-.512 3.618-2.193 4.751-.877.548-1.864.914-2.777 1.352zM6.944 19.441c3.435 0 6.834.036 10.196-.037.73-.036 1.535-.402 2.156-.84 1.023-.695 1.17-2.047.439-2.997-.658-.877-1.608-1.352-2.632-1.352-3.325-.073-6.688-.073-10.05-.11-.036 0-.073.073-.146.11.037 1.681.037 3.399.037 5.226zm-.037-9.758c.183.037.292.037.402.037h8.406c.511 0 1.023-.073 1.498-.183 1.352-.329 2.266-1.28 2.266-2.302 0-1.06-.804-1.9-2.156-2.303-.256-.073-.512-.146-.731-.146l-6.615-.11H6.98c-.036.33-.036.585-.036.841-.037 1.389-.037 2.74-.037 4.166zm96.079 14.582c-3.874-.073-7.565-.73-10.964-2.631-2.923-1.645-5.189-3.91-5.92-7.31-.913-4.165.548-7.6 3.764-10.269C92.607 1.79 95.823.73 99.258.255c4.313-.549 8.516-.256 12.572 1.315 2.339.914 4.422 2.193 6.03 4.166 3.947 4.788 2.851 11.293-2.485 15.02-2.741 1.901-5.811 2.851-9.1 3.253-1.06.146-2.192.183-3.289.256zm.256-19.808c-2.997 0-5.555.731-7.382 2.157-3.691 2.814-3.728 8.076-.073 10.927 1.79 1.425 3.91 2.01 6.139 2.156 2.741.183 5.373-.22 7.748-1.754 4.459-2.924 4.422-8.844-.036-11.731-2.011-1.28-4.24-1.682-6.396-1.755z" fill="#fff"/></svg>