<svg width="92" height="102" fill="none" xmlns="http://www.w3.org/2000/svg"><path d="M89.693 102a2.057 2.057 0 002.057-2.056v-6.145a2.057 2.057 0 00-4.113 0v4.088H64.014V84.525H78.36c2.635 0 2.64-4.113 0-4.113H64.014v-5.936H78.36c2.635 0 2.64-4.113 0-4.113H64.014v-5.937H78.36c2.635 0 2.64-4.113 0-4.113H64.014v-5.937H78.36c2.635 0 2.64-4.113 0-4.113H64.014v-5.936H78.36c2.635 0 2.64-4.113 0-4.113H64.014v-6.62h23.623v43.85c0 2.64 4.113 2.644 4.113 0V31.537a2.057 2.057 0 00-2.057-2.056h-25.68V2.056A2.055 2.055 0 0061.958 0H2.307C1.172 0 .251.92.251 2.056v97.888c0 1.135.92 2.056 2.056 2.056h87.386zM4.363 4.113h55.538v93.774H4.364V4.113z" fill="#2386FE"/><path d="M11.43 19.202h16.28c2.641 0 2.645-4.113 0-4.113H11.43c-2.64 0-2.644 4.113 0 4.113zm41.204 5.938H11.43c-2.64 0-2.644 4.112 0 4.112h41.204c2.64 0 2.644-4.113 0-4.113zm0 10.048H11.43c-2.64 0-2.644 4.113 0 4.113h41.204c2.64 0 2.644-4.113 0-4.113zm0 10.05H11.43c-2.64 0-2.644 4.113 0 4.113h41.204c2.64 0 2.644-4.113 0-4.113zm0 10.05H11.43c-2.64 0-2.644 4.113 0 4.113h41.204c2.64 0 2.644-4.113 0-4.113zm0 10.05H11.43c-2.64 0-2.644 4.113 0 4.113h41.204c2.64 0 2.644-4.113 0-4.113zm0 10.05H11.43c-2.64 0-2.644 4.113 0 4.113h41.204c2.64 0 2.644-4.113 0-4.113zm0 10.05H11.43c-2.64 0-2.644 4.112 0 4.112h41.204c2.64 0 2.644-4.112 0-4.112zM34.312 17.931a2.072 2.072 0 002.15 1.254 2.07 2.07 0 001.773-1.688c.304-1.742-1.694-3.044-3.166-2.062a2.073 2.073 0 00-.757 2.496z" fill="#FFB339"/><path d="M91.591 84.798c-.697-1.671-3.153-1.651-3.813.042a2.07 2.07 0 00.61 2.334 2.08 2.08 0 002.332.191 2.075 2.075 0 00.871-2.567z" fill="#2386FE"/></svg>