<svg width="102" height="102" fill="none" xmlns="http://www.w3.org/2000/svg"><g clip-path="url(#clip0)"><path d="M50.98 57.973a1.995 1.995 0 001.996-1.992c0-1.1-.895-1.993-1.996-1.993a1.995 1.995 0 00-1.997 1.992c0 1.1.895 1.993 1.997 1.993z" fill="#2386FE"/><path d="M49.84 101.43a1.998 1.998 0 002.32 0c20.338-14.499 40.758-20.86 40.758-50.693V13.804a1.994 1.994 0 00-1.83-1.985l-5.189-.433c-11.894-.99-23.596-4.89-33.841-11.282a2 2 0 00-2.116 0C39.696 6.495 27.994 10.397 16.099 11.387l-5.187.432a1.994 1.994 0 00-1.83 1.985v36.933c0 30.674 23.288 38.239 40.758 50.693zM13.074 15.637l3.358-.28C28.549 14.35 40.472 10.473 51 4.131c10.526 6.342 22.45 10.218 34.567 11.226l3.359.28v35.1c0 26.9-17.96 32.672-37.93 46.634-17.525-12.142-37.922-19.032-37.922-46.634v-35.1z" fill="#2386FE"/><path d="M49.837 86.95a1.985 1.985 0 002.326-.053c18.07-12.483 28.778-16.59 28.778-36.158V24.61c0-.985-.723-1.823-1.7-1.97a88.075 88.075 0 01-27.326-8.819 2.034 2.034 0 00-1.919.044 88.02 88.02 0 01-27.238 8.776c-.977.146-1.7.983-1.7 1.97v26.13c0 19.751 11.728 24.598 28.779 36.21zM25.05 26.308a91.96 91.96 0 0023.933-7.506v29.209c0 1.1.893 1.992 1.996 1.992a1.994 1.994 0 001.996-1.992V18.784a92.033 92.033 0 0023.973 7.525v24.43c0 16.195-7.6 19.726-23.973 30.777V63.949c0-1.1-.894-1.992-1.996-1.992a1.994 1.994 0 00-1.996 1.992v17.624C33.685 71.41 25.05 67.067 25.05 50.74V26.308z" fill="#FFB339"/></g><defs><clipPath id="clip0"><path fill="#fff" d="M0 0h102v102H0z"/></clipPath></defs></svg>