<svg width="38" height="38" fill="none" xmlns="http://www.w3.org/2000/svg"><g clip-path="url(#clip0)"><path d="M31.666 9.5c.444 0 .792.348.792.792a.784.784 0 01-.791.791h-6.334a.784.784 0 01-.791-.791c0-.444.348-.792.791-.792h6.334zm0 15.834c.444 0 .792.348.792.791a.784.784 0 01-.791.792h-6.334a.784.784 0 01-.791-.792c0-.443.348-.791.791-.791h6.334zm0 4.75c.444 0 .792.348.792.791a.784.784 0 01-.791.792h-6.334a.784.784 0 01-.791-.792c0-.443.348-.791.791-.791h6.334z" fill="#2386FE"/><path fill-rule="evenodd" clip-rule="evenodd" d="M10.291 7.125V9.5h2.375c.444 0 .792.348.792.792a.784.784 0 01-.792.792h-2.375v2.375a.784.784 0 01-.791.791.784.784 0 01-.792-.791V7.125c0-.443.348-.792.792-.792.443 0 .791.349.791.792zm-3.958 3.959h2.375V9.5H6.333a.784.784 0 00-.792.792c0 .443.349.792.792.792z" fill="#F7AF37"/><path fill-rule="evenodd" clip-rule="evenodd" d="M9.5 27.392l-.001.002 1.105 1.105-1.107 1.106.003.003-1.82 1.821a.742.742 0 01-.555.238.742.742 0 01-.554-.238.765.765 0 010-1.108l1.82-1.82-.004-.002.002-.002-1.818-1.818a.765.765 0 010-1.108.765.765 0 011.108 0l1.821 1.82zm1.108 1.108L9.5 27.392l1.821-1.821a.765.765 0 011.108 0c.317.3.317.807 0 1.108L10.61 28.5zm0 0L9.5 29.608l1.821 1.821a.742.742 0 00.554.238c.206 0 .412-.08.554-.238a.765.765 0 000-1.108l-1.82-1.82z" fill="#2386FE"/><path fill-rule="evenodd" clip-rule="evenodd" d="M0 4.178A4.18 4.18 0 014.178 0h29.644A4.18 4.18 0 0138 4.178v29.644A4.18 4.18 0 0133.822 38H4.178A4.18 4.18 0 010 33.822V4.178zm1.671 15.878v13.766a2.504 2.504 0 002.507 2.507h13.766V20.056H1.671zM4.178 1.67h13.766v16.273H1.671V4.178a2.504 2.504 0 012.507-2.507zm15.878 0h13.766a2.504 2.504 0 012.507 2.507v13.766H20.056V1.671zm16.273 18.385H20.056v16.273h13.766a2.504 2.504 0 002.507-2.507V20.056z" fill="#2386FE"/></g><defs><clipPath id="clip0"><path fill="#fff" d="M0 0h38v38H0z"/></clipPath></defs></svg>