<svg width="60" height="100" fill="none" xmlns="http://www.w3.org/2000/svg"><path d="M55 0H5a5 5 0 00-5 5v90a5 5 0 005 5h50a5 5 0 005-5V5a5 5 0 00-5-5zm1.667 13.333H18.333a1.667 1.667 0 100 3.334h38.334v65h-5a1.667 1.667 0 100 3.333h5v10c0 .92-.746 1.666-1.667 1.666H5c-.92 0-1.667-.746-1.667-1.666V85h38.334a1.667 1.667 0 100-3.333H3.333v-65h5a1.667 1.667 0 100-3.334h-5V5c0-.92.746-1.667 1.667-1.667h50c.92 0 1.667.746 1.667 1.667v8.333z" fill="#0D6DE5"/><path d="M31.666 90h-3.333a1.667 1.667 0 100 3.333h3.333a1.667 1.667 0 100-3.333z" fill="#0D6DE5"/><path d="M13.806 27.175l-3.797 2.275a6.268 6.268 0 00-2.855 3.716c-1.43 5.216-.413 14.154 12.559 27.124 10.27 10.268 18.011 13.043 23.38 13.043a14.145 14.145 0 003.743-.488 6.268 6.268 0 003.713-2.855l2.284-3.795a3.552 3.552 0 00-1.077-4.792l-9.09-6.052a3.579 3.579 0 00-4.783.779l-2.642 3.396a.217.217 0 01-.277.066l-.5-.279a29.594 29.594 0 01-7.711-6.065 29.598 29.598 0 01-6.066-7.712l-.278-.51a.213.213 0 01.065-.275l3.398-2.643a3.573 3.573 0 00.775-4.782l-6.05-9.076a3.556 3.556 0 00-4.791-1.075zm2.017 2.925l3.29 4.937 2.76 4.13a.23.23 0 01-.049.305l-3.398 2.641a3.529 3.529 0 00-.93 4.529l.263.483a32.483 32.483 0 006.635 8.473 32.487 32.487 0 008.474 6.635l.481.264a3.532 3.532 0 004.53-.93l2.642-3.397a.228.228 0 01.303-.05l9.073 6.048a.225.225 0 01.069.305l-2.275 3.793a2.95 2.95 0 01-1.737 1.357c-3.577.983-11.423.77-23.885-11.693C9.606 45.468 9.39 37.617 10.37 34.045a2.952 2.952 0 011.357-1.737l3.793-2.275a.216.216 0 01.117-.033c.075 0 .145.038.187.1z" fill="#F7AF37"/></svg>