<svg width="100" height="100" fill="none" xmlns="http://www.w3.org/2000/svg"><path d="M99.98 38.23a1.574 1.574 0 00-.069-.339 1.665 1.665 0 00-.094-.286 1.495 1.495 0 00-.167-.255 1.575 1.575 0 00-.222-.259c-.026-.023-.038-.055-.066-.078l-16.03-12.45v-12.9a5 5 0 00-5-5H60.27l-7.233-5.616a4.942 4.942 0 00-6.078 0l-7.234 5.615H21.662a5 5 0 00-5 5v12.903L.638 37.013c-.028.023-.04.055-.066.078a1.565 1.565 0 00-.222.259c-.064.079-.12.164-.167.255-.04.092-.072.188-.095.287a1.58 1.58 0 00-.068.333c0 .035-.02.065-.02.1v56.674a4.944 4.944 0 00.978 2.942c.01.015.012.033.024.046.011.014.036.029.053.047A4.976 4.976 0 004.995 100H95a4.977 4.977 0 003.953-1.973c.014-.017.034-.022.045-.038.012-.017.013-.032.024-.047.633-.85.976-1.882.978-2.942V38.33c0-.034-.018-.065-.02-.1zM48.997 3.676a1.598 1.598 0 011.989 0l3.845 2.985h-9.667l3.833-2.985zM5.415 96.666l43.582-33.853a1.6 1.6 0 011.989 0L94.58 96.666H5.415zm91.251-2.599L53.038 60.182a4.945 4.945 0 00-6.08 0L3.329 94.067V40.868l27.313 21.21a1.667 1.667 0 002.044-2.636L4.937 37.896l11.725-9.112v12.879a1.667 1.667 0 003.334 0V11.661c0-.92.746-1.666 1.666-1.666h56.67c.92 0 1.667.746 1.667 1.666v30.002a1.667 1.667 0 103.333 0V28.784l11.726 9.112L67.26 59.481a1.667 1.667 0 102.044 2.633l27.361-21.246v53.2z" fill="#0D6DE5"/><path d="M70 39.997V33.33c0-11.047-8.956-20.001-20.002-20.001s-20 8.954-20 20c0 11.047 8.954 20.002 20 20.002a1.667 1.667 0 100-3.334c-9.205 0-16.667-7.462-16.667-16.667 0-9.205 7.462-16.668 16.667-16.668 9.205 0 16.667 7.463 16.667 16.668v6.667a3.333 3.333 0 11-6.667 0V33.33a1.667 1.667 0 10-3.333 0 6.667 6.667 0 11-6.667-6.667 1.667 1.667 0 100-3.334 10 10 0 106.739 17.37 6.649 6.649 0 0013.262-.702z" fill="#F7AF37"/></svg>