<svg width="100" height="100" fill="none" xmlns="http://www.w3.org/2000/svg"><g clip-path="url(#clip0)"><path d="M32.807 68.452c4.119 5.807 8.23 11 10.956 14.345.396.487.768.938 1.128 1.373h-8.223a1.667 1.667 0 100 3.333h26.666a1.667 1.667 0 100-3.333h-8.223c.36-.435.732-.887 1.13-1.373 2.723-3.334 6.834-8.538 10.953-14.345a146.436 146.436 0 0011.01-17.745c3.404-6.684 5.13-12.232 5.13-16.492a33.31 33.31 0 00-9.761-23.602 1.667 1.667 0 10-2.359 2.355 29.99 29.99 0 018.787 21.247c0 3.73-1.603 8.77-4.767 14.978a143.144 143.144 0 01-10.76 17.334c-4.063 5.732-8.125 10.867-10.816 14.167-.895 1.096-1.7 2.066-2.387 2.886a1.688 1.688 0 01-2.54 0c-.687-.82-1.491-1.79-2.387-2.886-2.691-3.299-6.753-8.434-10.816-14.167a143.12 143.12 0 01-10.76-17.334C21.6 42.985 20 37.945 20 34.215A30.067 30.067 0 0138.335 6.53a30.191 30.191 0 0123.35 0 1.667 1.667 0 101.301-3.07c-16.972-7.159-36.534.793-43.698 17.763a33.21 33.21 0 00-2.62 12.992c0 4.26 1.727 9.808 5.13 16.5a146.341 146.341 0 0011.01 17.737z" fill="#0D6DE5"/><path d="M50 19.17a1.667 1.667 0 100-3.333 16.667 16.667 0 1011.785 4.882 1.667 1.667 0 10-2.357 2.356A13.333 13.333 0 1150 19.17z" fill="#F7AF37"/><path d="M99.373 91.788l-10.25-18.333a5.18 5.18 0 00-4.535-2.618H72.709a1.667 1.667 0 100 3.333h11.879a1.849 1.849 0 011.628.91l10.247 18.333a1.5 1.5 0 01-.015 1.54c-.34.563-.956.9-1.614.884H5.167a1.833 1.833 0 01-1.611-.884 1.5 1.5 0 01-.015-1.54L13.787 75.08c.338-.575.96-.923 1.627-.91h11.878a1.667 1.667 0 100-3.334H15.414a5.183 5.183 0 00-4.538 2.619L.627 91.788A4.833 4.833 0 00.68 96.64a5.133 5.133 0 004.488 2.53h89.667a5.133 5.133 0 004.487-2.53 4.833 4.833 0 00.052-4.852z" fill="#0D6DE5"/><path d="M81.667 79.17H75c-.329.001-.65.098-.925.28l-5 3.334a1.667 1.667 0 001.85 2.773l4.575-3.053h6.167a1.667 1.667 0 000-3.334zm-10 11.667c0 .92.746 1.667 1.667 1.667h13.333a1.667 1.667 0 100-3.334H73.334c-.92 0-1.667.746-1.667 1.667zm-41.666-5a1.667 1.667 0 00.927-3.054l-5-3.333a1.677 1.677 0 00-.927-.28h-6.666a1.667 1.667 0 000 3.333H24.5l4.58 3.053c.273.183.593.28.92.28zM13.335 89.17a1.667 1.667 0 100 3.334h13.333a1.667 1.667 0 100-3.334H13.335z" fill="#F7AF37"/></g><defs><clipPath id="clip0"><path fill="#fff" d="M0 0h100v100H0z"/></clipPath></defs></svg>