<svg width="54" height="54" fill="none" xmlns="http://www.w3.org/2000/svg"><g clip-path="url(#clip0)"><path d="M27.012 12.604a2.699 2.699 0 100 5.398 2.699 2.699 0 000-5.398zm0 3.598a.9.9 0 110-1.8.9.9 0 010 1.8z" fill="#F7AF37"/><path d="M52.562 15.804a.9.9 0 00-1.436-.312 3.329 3.329 0 01-5.578-2.124.9.9 0 00-1.285-.725 3.329 3.329 0 01-3.286-5.782.9.9 0 00-.245-1.613C31.177 2.454 21.13 7.751 18.039 17.214 9.154 16.196 1.125 22.574.107 31.459c-1.019 8.886 5.36 16.914 14.245 17.932a16.194 16.194 0 0016.246-8.684c9.81 2.739 19.984-2.994 22.723-12.805a18.443 18.443 0 00-.759-12.098zM16.216 47.691c-7.95 0-14.395-6.445-14.395-14.395 0-7.95 6.445-14.394 14.395-14.394 7.95 0 14.394 6.444 14.394 14.394-.01 7.947-6.448 14.386-14.394 14.395zm24.717-8.99a16.68 16.68 0 01-5.374.893 16.67 16.67 0 01-4.222-.551c3.195-8.317-.958-17.648-9.274-20.843a16.128 16.128 0 00-2.229-.676A16.628 16.628 0 0138.68 6.602a5.134 5.134 0 005.308 8.038 5.128 5.128 0 007.325 2.918c2.972 8.704-1.675 18.17-10.38 21.143z" fill="#2386FE"/><path d="M43.422 26.89a3.925 3.925 0 103.922 3.928v-.004a3.929 3.929 0 00-3.922-3.924zm2.122 3.924a2.128 2.128 0 01-2.122 2.122v.004a2.126 2.126 0 112.122-2.13v.004z" fill="#F7AF37"/><path d="M39.732 19.283a3.126 3.126 0 00-4.477 0l-1.984 1.984a3.126 3.126 0 104.42 4.42l1.985-1.983a3.126 3.126 0 00.056-4.421zm-1.288 3.109a1.238 1.238 0 01-.04.04v-.001l-1.984 1.985a1.36 1.36 0 01-1.877 0 1.33 1.33 0 010-1.877l1.985-1.983a1.327 1.327 0 011.916 1.836z" fill="#2386FE"/><path d="M10.779 32.885l-1.8-1.8a3.126 3.126 0 00-4.42 4.422l1.799 1.8a3.126 3.126 0 104.42-4.422zM9.51 36.028l-.004.005a1.328 1.328 0 01-1.877 0l-1.8-1.799a1.327 1.327 0 011.877-1.876l1.8 1.8c.518.515.52 1.352.004 1.87z" fill="#F7AF37"/><path d="M13.516 40.493a2.699 2.699 0 100 5.398 2.699 2.699 0 000-5.398zm0 3.599a.9.9 0 110-1.8.9.9 0 010 1.8z" fill="#2386FE"/><path d="M22.514 24.3a2.699 2.699 0 100 5.398 2.699 2.699 0 000-5.398zm0 3.598a.9.9 0 110-1.799.9.9 0 010 1.8z" fill="#F7AF37"/><path d="M49.24 23.663l-1.8-1.8a.9.9 0 00-1.271 1.273l1.799 1.8a.9.9 0 001.272-1.273z" fill="#2386FE"/><path d="M36.623 34.46a.9.9 0 00-1.25 0l-1.8 1.799a.9.9 0 101.273 1.272l1.799-1.8a.9.9 0 00-.022-1.271z" fill="#F7AF37"/><path d="M17.73 30.86a.9.9 0 00-1.25 0l-1.8 1.8a.9.9 0 101.272 1.272l1.8-1.799a.9.9 0 00-.023-1.272zm10.818 2.7l-1.8-1.8a.9.9 0 00-1.272 1.273l1.8 1.799a.9.9 0 001.272-1.272zm7.309-19.656l-1.8-2.699a.9.9 0 00-1.497.999l1.8 2.699a.9.9 0 001.497-.999z" fill="#2386FE"/><path d="M24.95 40.757l-4.5-4.498a.9.9 0 00-1.535.636v4.498a.9.9 0 00.9.9h4.498a.9.9 0 00.636-1.536zm-4.236-.264v-1.427l1.427 1.427h-1.427z" fill="#F7AF37"/><path d="M15.052 22.763a.9.9 0 00-.635-.263H9.918a.9.9 0 00-.9.9v4.498a.9.9 0 001.536.636l4.499-4.498a.9.9 0 000-1.273zm-4.234 2.963V24.3h1.427l-1.427 1.427z" fill="#2386FE"/></g><defs><clipPath id="clip0"><path fill="#fff" d="M0 0h54v54H0z"/></clipPath></defs></svg>