<svg width="48" height="46" fill="none" xmlns="http://www.w3.org/2000/svg"><path d="M31.237 9.784A16.417 16.417 0 0016.501.594C7.403.593 0 7.952 0 16.998c0 2.459.528 4.815 1.57 7.012L.028 31.723c-.196.982.67 1.85 1.652 1.655l7.807-1.543c1.052.498 2.139.878 3.256 1.139C10.24 21.11 19.231 9.976 31.237 9.784z" fill="#fff"/><path d="M46.43 36.01c.27-.567.504-1.146.705-1.735h-.052c3.511-10.304-3.872-21.134-14.771-21.662v-.002c-9.379-.432-17.17 7.077-17.17 16.388 0 9.039 7.346 16.393 16.381 16.406 2.451-.004 4.8-.531 6.991-1.57 8.55 1.69 7.884 1.57 8.08 1.57.889 0 1.553-.814 1.379-1.682L46.43 36.01z" fill="#fff"/></svg>