<svg width="100" height="100" fill="none" xmlns="http://www.w3.org/2000/svg"><path d="M78.373 89.316c-.81 0-1.465.656-1.465 1.464v1.973a4.323 4.323 0 01-4.318 4.317H7.793a4.323 4.323 0 01-4.318-4.317V22.349c0-.317.037-.628.104-.93h13.336a5.055 5.055 0 005.05-5.05V3.033c.302-.066.613-.104.93-.104H72.59a4.323 4.323 0 014.318 4.318v19.5a1.465 1.465 0 102.93 0v-19.5C79.837 3.251 76.585 0 72.59 0H22.895a7.2 7.2 0 00-5.125 2.123L2.668 17.225a7.2 7.2 0 00-2.122 5.124v70.404c0 3.996 3.25 7.247 7.247 7.247H72.59c3.996 0 7.248-3.251 7.248-7.247V90.78c0-.81-.656-1.465-1.465-1.465zM19.035 5v11.368c0 1.17-.95 2.12-2.12 2.12H5.547L19.035 5.002z" fill="#0D6DE5"/><path d="M45.274 41.22H13.95a1.56 1.56 0 000 3.12h31.323a1.56 1.56 0 000-3.12zM46.642 50a1.56 1.56 0 00-1.56-1.559H13.759a1.56 1.56 0 100 3.12h31.323a1.56 1.56 0 001.56-1.56z" fill="#0D6DE5"/><path d="M52.56 50A1.56 1.56 0 0051 48.442H19.678a1.56 1.56 0 100 3.12h31.324A1.56 1.56 0 0052.56 50zm-5.918 7.22a1.56 1.56 0 00-1.56-1.559H13.759a1.56 1.56 0 000 3.12h31.323a1.56 1.56 0 001.56-1.56z" fill="#0D6DE5"/><path d="M54.56 57.22A1.56 1.56 0 0053 55.662H21.678a1.56 1.56 0 000 3.12h31.324a1.56 1.56 0 001.56-1.56zm-7.918-21.66a1.56 1.56 0 00-1.56-1.56H13.759a1.56 1.56 0 100 3.119h31.323a1.56 1.56 0 001.56-1.56z" fill="#0D6DE5"/><path d="M59.443 35.56a1.56 1.56 0 00-1.56-1.56H26.56a1.56 1.56 0 100 3.119h31.323a1.56 1.56 0 001.56-1.56zM29.578 64.444c0-.863-.385-1.562-.86-1.562H12.86c-.475 0-.86.7-.86 1.562 0 .863.385 1.563.86 1.563h15.858c.475 0 .86-.7.86-1.563zM40.71 71.67c0-.862-.691-1.562-1.545-1.562H13.546c-.854 0-1.546.7-1.546 1.563s.692 1.562 1.546 1.562h25.618c.855 0 1.547-.7 1.547-1.562z" fill="#0D6DE5"/><path d="M98.434 52.343a5.818 5.818 0 00.73-5.107 5.817 5.817 0 00-3.593-3.703 2.91 2.91 0 01-1.937-2.667 5.818 5.818 0 00-2.412-4.56 5.818 5.818 0 00-5.083-.885 2.91 2.91 0 01-3.135-1.018 5.817 5.817 0 00-4.631-2.273 5.818 5.818 0 00-4.633 2.273 2.91 2.91 0 01-3.134 1.018 5.817 5.817 0 00-5.083.884 5.818 5.818 0 00-2.412 4.561 2.91 2.91 0 01-1.937 2.667 5.816 5.816 0 00-3.593 3.703 5.818 5.818 0 00.73 5.107 2.91 2.91 0 010 3.296 5.817 5.817 0 00-.73 5.108 5.817 5.817 0 003.593 3.703 2.91 2.91 0 011.937 2.666 5.856 5.856 0 005.057 5.625v13.336a3.111 3.111 0 004.738 2.647l5.373-3.307c.088-.054.14-.03.188 0l5.372 3.307c.958.59 2.164.615 3.146.067a3.111 3.111 0 001.592-2.714V72.74a5.855 5.855 0 005.057-5.625 2.91 2.91 0 011.938-2.667 5.816 5.816 0 003.592-3.703 5.817 5.817 0 00-.73-5.107 2.909 2.909 0 010-3.296zM85.374 86.23l-5.372-3.307a3.108 3.108 0 00-3.26 0l-5.371 3.306a.178.178 0 01-.273-.152V72.463a2.906 2.906 0 012.642 1.117 5.819 5.819 0 004.633 2.273 5.817 5.817 0 004.631-2.273 2.906 2.906 0 012.643-1.117v13.614a.178.178 0 01-.273.153zm10.639-28.94c.514.753.647 1.684.365 2.552a2.908 2.908 0 01-1.796 1.85 5.823 5.823 0 00-3.876 5.336c-.026.852-.4 1.62-1.054 2.162-.735.61-1.73.84-2.692.56a5.825 5.825 0 00-6.273 2.037 2.907 2.907 0 01-2.315 1.136 2.908 2.908 0 01-2.315-1.136 5.819 5.819 0 00-6.272-2.038 2.915 2.915 0 01-2.692-.56 2.885 2.885 0 01-1.054-2.161 5.824 5.824 0 00-3.877-5.336 2.908 2.908 0 01-1.795-1.85 2.907 2.907 0 01.365-2.553 5.824 5.824 0 000-6.595 2.908 2.908 0 01-.365-2.553 2.907 2.907 0 011.795-1.85 5.824 5.824 0 003.877-5.336 2.906 2.906 0 011.205-2.28 2.908 2.908 0 012.54-.442 5.824 5.824 0 006.273-2.038 2.908 2.908 0 012.315-1.136c.913 0 1.757.414 2.315 1.136a5.824 5.824 0 006.273 2.038 2.906 2.906 0 012.54.442 2.906 2.906 0 011.206 2.28 5.824 5.824 0 003.876 5.335c.86.308 1.514.983 1.796 1.85.282.869.149 1.8-.365 2.553a5.823 5.823 0 000 6.596z" fill="#F7AF37"/><path d="M78.373 41.716c-6.77 0-12.276 5.507-12.276 12.276 0 6.77 5.507 12.276 12.276 12.276s12.276-5.507 12.276-12.276c0-6.77-5.507-12.276-12.276-12.276zm0 21.623c-5.154 0-9.347-4.193-9.347-9.347 0-5.153 4.193-9.347 9.347-9.347s9.346 4.193 9.346 9.347-4.192 9.347-9.346 9.347z" fill="#F7AF37"/></svg>