<svg width="100" height="100" fill="none" xmlns="http://www.w3.org/2000/svg"><path d="M72.292 9.803a1.465 1.465 0 100-2.93 1.465 1.465 0 000 2.93zm6.055 0a1.465 1.465 0 100-2.93 1.465 1.465 0 000 2.93zm6.054 0a1.465 1.465 0 100-2.93 1.465 1.465 0 000 2.93z" fill="#0D6DE5"/><path d="M93.401.136H6.6A6.606 6.606 0 000 6.735V72.81a6.606 6.606 0 006.599 6.599h3.166a1.465 1.465 0 100-2.93H6.6a3.673 3.673 0 01-3.67-3.669V17.077h94.14V72.81a3.673 3.673 0 01-3.669 3.67H58.313a1.465 1.465 0 100 2.929H93.4a6.606 6.606 0 006.6-6.599V6.735a6.606 6.606 0 00-6.6-6.6zM2.93 14.146v-7.41a3.673 3.673 0 013.669-3.67H93.4a3.673 3.673 0 013.67 3.67v7.412H2.93z" fill="#0D6DE5"/><path d="M80.913 62.9c3.66 0 6.64-2.978 6.64-6.64v-7.302a1.465 1.465 0 10-2.93 0v7.303a3.714 3.714 0 01-3.71 3.71H47.009v-4.947C47 55 47 53 47 53c0-3 .01.815.01-4.5 0-5.315-.51-7.483-.34-9.351-.17-.649-.984-1.794-1.885-2.414a5.008 5.008 0 00-2.673-.883 5.078 5.078 0 00-5.265 5.078v12.916c-2.92-1.367-6.449.313-7.125 3.623a5.065 5.065 0 00-6.809 2.327 5.073 5.073 0 00-5.205-.09 3.691 3.691 0 01-2.33-3.445V34.813a3.714 3.714 0 013.71-3.71h61.825a3.714 3.714 0 013.71 3.71v7.3a1.465 1.465 0 102.93 0v-7.3a6.647 6.647 0 00-6.64-6.64H19.088a6.647 6.647 0 00-6.64 6.64v21.448a6.606 6.606 0 003.204 5.686 5.257 5.257 0 00-.502 2.253v11.722c0 4.884 1.974 7.35 4.131 13.002a3.724 3.724 0 00-1.703 3.126v4.088a3.73 3.73 0 003.726 3.727h23.61a3.73 3.73 0 003.727-3.727V92.05a3.715 3.715 0 00-1.223-2.753c1.225-2.508 5.512-5.779 5.512-12.921V65.829c0-1.084-.33-2.094-.893-2.928h28.876zM45.5 45c0 3.7-.5 4-1 7-.588 0 3.053.17 2.51.027v-11.01c0-.66-.121-1.289-.34-1.868-1.67-2.149-3.303 0-2.59 0C44.5 40.5 45.5 41.3 45.5 45zm.211 51.138c0 .44-.357.797-.797.797h-23.61a.798.798 0 01-.797-.797V92.05c0-.44.357-.797.796-.797h23.611c.44 0 .797.357.797.797v4.088zm4.29-19.762c0 6.318-3.639 8.197-5.363 11.947h-22.43c-2.427-6.246-4.128-8.279-4.128-12.4V64.2c0-1.942 2.259-2.973 3.645-1.635.424.41.657.96.657 1.549a1.465 1.465 0 102.93 0V62.11c0-1.947 2.261-2.97 3.645-1.634.424.409.658.959.658 1.548a1.465 1.465 0 102.93 0v-3.485c0-1.946 2.26-2.97 3.644-1.635.424.41.658.96.658 1.548a1.465 1.465 0 102.93 0V40.93a2.15 2.15 0 012.23-2.15c1.143.04 2.072 1.044 2.072 2.237v21.935c0 1.24 1.449 1.916 2.4 1.127.42-.347.954-.521 1.5-.49 1.134.066 2.021 1.05 2.021 2.24v10.547z" fill="#F7AF37"/><rect x="25" y="40" width="14" height="3" rx="1.5" fill="#F7AF37"/><rect x="25" y="49" width="14" height="3" rx="1.5" fill="#F7AF37"/><rect x="45" y="40" width="17" height="3" rx="1.5" fill="#F7AF37"/><rect x="45" y="49" width="24" height="3" rx="1.5" fill="#F7AF37"/></svg>