<svg width="100" height="100" fill="none" xmlns="http://www.w3.org/2000/svg"><g clip-path="url(#clip0)"><path d="M58.648 26.735h30.636a1.467 1.467 0 000-2.934H58.648a1.467 1.467 0 100 2.934zM90.75 34.61c0-.81-.656-1.466-1.466-1.466H58.648a1.467 1.467 0 100 2.934h30.636c.81 0 1.467-.657 1.467-1.467zm-18.525 7.875H58.648a1.467 1.467 0 100 2.935h13.577a1.467 1.467 0 100-2.935z" fill="#0D6DE5"/><path d="M92.48 9.383H40.328C30.152 2.77 16.503 3.926 7.633 12.797c-10.177 10.177-10.177 26.736 0 36.913.258.258.524.509.792.756v15.162c0 4.147 3.373 7.52 7.52 7.52h28.298l-2.017 8.71h-2.399c-5.327 0-9.66 4.333-9.66 9.66a3.329 3.329 0 003.324 3.325h41.443a3.329 3.329 0 003.325-3.325c0-5.327-4.335-9.66-9.662-9.66h-2.399l-2.016-8.71H92.48c4.146 0 7.52-3.373 7.52-7.52V16.904c0-4.147-3.374-7.52-7.52-7.52zM26.062 8.09c19.333 0 30.211 22.367 18.211 37.523-8.65 10.925-24.806 11.783-34.565 2.023C-4.88 33.047 5.602 8.089 26.062 8.089zM46.58 55.81l4.065-4.066.018-.019a.313.313 0 01.226-.093c.06 0 .148.016.225.093l12.171 12.172a3.223 3.223 0 010 4.553 3.218 3.218 0 01-4.553 0L46.561 56.277a.319.319 0 010-.45l.018-.018zm-1.038-3.113l-2.017-2.018a26.674 26.674 0 001.99-1.99l2.017 2.018-1.99 1.99zm-19.48 4.655a26.172 26.172 0 0015.158-4.827l2.488 2.488a3.255 3.255 0 00.778 3.34l1.834 1.835H11.36V52.8a25.945 25.945 0 0014.702 4.55zm-14.703 8.277v-2.507h37.895l7.093 7.093H15.946a4.591 4.591 0 01-4.586-4.586zm63.965 25.89a.39.39 0 01-.39.39H33.491a.39.39 0 01-.39-.39 6.734 6.734 0 016.726-6.726h28.77a6.735 6.735 0 016.727 6.726zm-12.138-9.66H45.238l2.018-8.71h13.913l2.017 8.71zM92.48 70.213H65.647a6.166 6.166 0 00.705-7.093h9.585a1.467 1.467 0 100-2.934H63.726L53.189 49.65a3.233 3.233 0 00-3.343-.78l-2.484-2.485c7.359-10.31 6.244-24.528-2.816-33.588a24.811 24.811 0 00-.495-.479H92.48a4.591 4.591 0 014.587 4.586v43.283h-14.81a1.467 1.467 0 100 2.934h14.808v2.507a4.591 4.591 0 01-4.586 4.586z" fill="#0D6DE5"/><path d="M26.09 52.016c11.475 0 20.762-9.286 20.762-20.763 0-11.475-9.286-20.763-20.763-20.763-10.455 0-19.004 7.675-20.523 17.608a1.467 1.467 0 002.9.444c1.297-8.474 8.598-15.117 17.623-15.117 9.854 0 17.829 7.974 17.829 17.828 0 4.3-1.516 8.364-4.288 11.592-.61-1.143-1.6-2.07-2.872-2.63-1.507-.664-3.974-1.1-5.926-1.36l-.006-1.513a7.983 7.983 0 003.097-5.065c.276-.124.529-.3.748-.52a2.48 2.48 0 00.726-1.777 859.92 859.92 0 01-.01-4.238v-2.189a3.416 3.416 0 00-2.747-3.345 3.416 3.416 0 00-3.328-2.664H22.85a6.177 6.177 0 00-6.17 6.17v6.291c0 1.005.597 1.873 1.456 2.266a8.004 8.004 0 002.955 4.956l.007 1.67c-1.949.276-4.413.733-5.914 1.409a5.777 5.777 0 00-2.693 2.477 17.685 17.685 0 01-3.965-8.456 1.466 1.466 0 10-2.891.503 20.633 20.633 0 005.772 11.105 20.637 20.637 0 0014.682 6.081zM22.85 20.48h6.463c.262 0 .475.213.475.475 0 1.17.953 2.123 2.123 2.123h.066c.262 0 .475.214.475.476v.577l-1.477-.139a7.586 7.586 0 00-4.644 1.078 4.606 4.606 0 01-2.406.678h-4.31v-2.033a3.24 3.24 0 013.235-3.235zm-3.236 9.138v-.935h4.31a7.538 7.538 0 003.94-1.11 4.637 4.637 0 012.837-.659l1.752.165c.001.773.003 1.746.007 2.532a1.79 1.79 0 00-1.37 1.634 5.065 5.065 0 01-5.057 4.76 5.08 5.08 0 01-5.065-4.756 1.803 1.803 0 00-1.354-1.631zm6.42 9.322c.64 0 1.265-.077 1.864-.22l.002.581c.001.327.07.64.19.926a3.963 3.963 0 01-2.121.618h-.012a3.963 3.963 0 01-2.104-.6c.117-.288.183-.6.182-.927l-.003-.634a7.981 7.981 0 002.001.256zm-9.644 4.04c.877-.395 2.632-.807 4.777-1.128a6.876 6.876 0 004.79 1.927h.02a6.875 6.875 0 004.81-1.968c2.149.303 3.907.7 4.789 1.089.958.422 1.587 1.216 1.762 2.187a17.693 17.693 0 01-11.249 3.995 17.69 17.69 0 01-11.334-4.066 2.9 2.9 0 011.635-2.035z" fill="#F7AF37"/></g><defs><clipPath id="clip0"><path fill="#fff" d="M0 0h100v100H0z"/></clipPath></defs></svg>