<svg width="100" height="100" fill="none" xmlns="http://www.w3.org/2000/svg"><g clip-path="url(#clip0)"><path d="M52.024 38.275H20.7a1.56 1.56 0 000 3.12h31.323a1.56 1.56 0 000-3.12zm1.366 8.781a1.56 1.56 0 00-1.559-1.56H20.508a1.56 1.56 0 100 3.119H51.83a1.56 1.56 0 001.56-1.56z" fill="#F7AF37"/><path d="M70.41 47.056a1.56 1.56 0 00-1.56-1.56H37.527a1.56 1.56 0 100 3.119H68.85a1.56 1.56 0 001.56-1.56zm-17.02 7.219a1.56 1.56 0 00-1.559-1.56H20.508a1.56 1.56 0 000 3.12H51.83a1.56 1.56 0 001.56-1.56z" fill="#F7AF37"/><path d="M70.41 54.275a1.56 1.56 0 00-1.56-1.56H37.527a1.56 1.56 0 100 3.12H68.85a1.56 1.56 0 001.56-1.56zM53.39 32.614a1.56 1.56 0 00-1.559-1.56H20.508a1.56 1.56 0 100 3.12H51.83a1.56 1.56 0 001.56-1.56z" fill="#F7AF37"/><path d="M70.41 32.614a1.56 1.56 0 00-1.56-1.56H37.527a1.56 1.56 0 100 3.12H68.85a1.56 1.56 0 001.56-1.56zM36.328 61.499c0-.863-.385-1.563-.86-1.563H19.61c-.475 0-.86.7-.86 1.563s.385 1.563.86 1.563h15.858c.475 0 .86-.7.86-1.563zm11.132 7.226c0-.862-.691-1.562-1.545-1.562H20.296c-.854 0-1.546.7-1.546 1.563 0 .862.692 1.562 1.546 1.562h25.618c.855 0 1.547-.7 1.547-1.563z" fill="#F7AF37"/><path d="M89.953 34.374a6.223 6.223 0 00-8.29 2.921l-23.496 49.07a5.61 5.61 0 00-.546 2.145l-.453 8.734a2.612 2.612 0 001.484 2.498 2.61 2.61 0 002.877-.41l5.404-4.83h7.587a7.011 7.011 0 007.003-7.004V66.37l11.352-23.705a6.223 6.223 0 00-2.922-8.29zm-2.679 2.51c.448 0 .902.098 1.332.304a3.075 3.075 0 011.583 1.763c.275.78.23 1.62-.128 2.365l-1.243 2.597-5.584-2.674 1.243-2.596a3.1 3.1 0 012.797-1.759zm-.745 11.81l-5.585-2.674.943-1.968 5.584 2.674-.942 1.968zM67.237 88.98l-5.584-2.674 17.944-37.473 5.585 2.674L67.237 88.98zm-6.892 7.227l.358-6.898 4.791 2.294-5.15 4.604zm18.059-8.709a3.889 3.889 0 01-3.884 3.884h-4.975l8.859-18.5v14.616zm-26.192 3.884H13.52a3.888 3.888 0 01-3.884-3.884V21.22c0-.235.02-.468.061-.695h12.41a4.94 4.94 0 004.934-4.934V3.18c.228-.041.46-.062.696-.062h46.782a3.889 3.889 0 013.885 3.884v28.682a1.56 1.56 0 003.118 0V7.003A7.01 7.01 0 0074.52 0H27.737a6.96 6.96 0 00-4.952 2.051L8.568 16.268a6.957 6.957 0 00-2.051 4.952v66.278a7.011 7.011 0 007.003 7.003h38.692a1.56 1.56 0 000-3.119zM23.922 5.324v10.267a1.817 1.817 0 01-1.815 1.815H11.841L23.923 5.324z" fill="#0D6DE5"/></g><defs><clipPath id="clip0"><path fill="#fff" d="M0 0h100v100H0z"/></clipPath></defs></svg>