<svg width="54" height="42" fill="none" xmlns="http://www.w3.org/2000/svg"><path d="M52.9 41.41v.11h.102a.106.106 0 00.055-.014.048.048 0 00.02-.041.046.046 0 00-.02-.04.096.096 0 00-.055-.014H52.9zm.103-.076c.052 0 .092.012.12.035a.116.116 0 01.043.096.11.11 0 01-.034.084.166.166 0 01-.096.04l.133.154h-.104l-.124-.153h-.04v.153h-.087v-.409h.189zm-.027.55a.35.35 0 00.314-.21.349.349 0 00-.073-.377.34.34 0 00-.24-.099.344.344 0 00-.245.099.333.333 0 00-.073.11.33.33 0 00-.027.133.33.33 0 00.027.134.323.323 0 00.182.182.337.337 0 00.135.028zm0-.784a.44.44 0 01.317.13.432.432 0 01.096.481.456.456 0 01-.238.235.448.448 0 01-.626-.405.432.432 0 01.274-.405.446.446 0 01.177-.036zM11.64 39.527c0-.779.51-1.419 1.344-1.419.797 0 1.335.613 1.335 1.419s-.538 1.418-1.335 1.418c-.834 0-1.344-.64-1.344-1.418zm3.587 0v-2.215h-.964v.538c-.305-.4-.769-.65-1.399-.65-1.242 0-2.216.974-2.216 2.327s.974 2.326 2.216 2.326c.63 0 1.094-.25 1.4-.65v.539h.963v-2.215zm32.556 0c0-.779.51-1.419 1.344-1.419.798 0 1.335.613 1.335 1.419s-.537 1.418-1.335 1.418c-.834 0-1.344-.64-1.344-1.418zm3.588 0v-3.994h-.965v2.317c-.305-.4-.769-.65-1.4-.65-1.242 0-2.216.974-2.216 2.327s.974 2.326 2.217 2.326c.63 0 1.094-.25 1.4-.65v.539h.964v-2.215zm-24.186-1.464c.621 0 1.02.39 1.122 1.074h-2.3c.104-.64.492-1.074 1.178-1.074zm.02-.863c-1.3 0-2.207.946-2.207 2.327 0 1.408.945 2.326 2.271 2.326.668 0 1.279-.166 1.817-.62l-.473-.714a2.119 2.119 0 01-1.289.463c-.62 0-1.186-.287-1.325-1.085h3.29c.01-.12.02-.24.02-.37-.01-1.381-.863-2.327-2.105-2.327zm11.632 2.327c0-.779.51-1.419 1.345-1.419.796 0 1.334.613 1.334 1.419s-.538 1.418-1.334 1.418c-.834 0-1.345-.64-1.345-1.418zm3.587 0v-2.215h-.963v.538c-.307-.4-.77-.65-1.4-.65-1.242 0-2.216.974-2.216 2.327s.974 2.326 2.217 2.326c.63 0 1.092-.25 1.4-.65v.539h.962v-2.215zm-9.028 0c0 1.344.936 2.326 2.364 2.326.668 0 1.112-.148 1.594-.528l-.463-.779c-.361.26-.741.4-1.16.4-.768-.01-1.334-.566-1.334-1.42 0-.852.566-1.408 1.335-1.418.418 0 .798.14 1.16.4l.462-.78c-.482-.38-.926-.528-1.594-.528-1.428 0-2.364.983-2.364 2.327zm12.42-2.327c-.555 0-.917.26-1.168.65v-.538h-.955v4.43h.965v-2.484c0-.733.315-1.14.945-1.14.195 0 .4.028.603.111l.297-.908a2.052 2.052 0 00-.687-.12zm-25.825.464c-.464-.306-1.103-.464-1.807-.464-1.123 0-1.845.538-1.845 1.419 0 .722.538 1.168 1.529 1.307l.455.064c.528.075.778.214.778.464 0 .343-.353.538-1.01.538-.668 0-1.15-.213-1.474-.464l-.454.75c.528.39 1.195.575 1.918.575 1.28 0 2.021-.602 2.021-1.446 0-.778-.583-1.186-1.548-1.325l-.454-.066c-.417-.055-.751-.137-.751-.434 0-.325.315-.52.843-.52.566 0 1.113.214 1.382.38l.417-.778zm12.43-.464c-.555 0-.917.26-1.167.65v-.538H30.3v4.43h.964v-2.484c0-.733.315-1.14.945-1.14.195 0 .4.028.603.111l.297-.908a2.052 2.052 0 00-.687-.12zm-8.221.112h-1.576v-1.344h-.974v1.344h-.898v.88h.898v2.021c0 1.028.4 1.64 1.539 1.64.418 0 .9-.13 1.205-.343l-.278-.825a1.78 1.78 0 01-.853.25c-.482 0-.639-.297-.639-.741v-2.002H24.2v-.88zm-14.405 4.43v-2.78c0-1.048-.668-1.752-1.744-1.762-.565-.01-1.149.167-1.557.789-.306-.492-.787-.789-1.464-.789-.474 0-.936.14-1.298.658v-.546h-.964v4.43h.973v-2.456c0-.77.426-1.178 1.085-1.178.64 0 .963.417.963 1.168v2.466h.974v-2.456c0-.77.445-1.178 1.085-1.178.657 0 .973.417.973 1.168v2.466h.974z" fill="#fff"/><path d="M34.312 29.792H19.711V3.556h14.601v26.236z" fill="#FF5F00"/><path d="M20.646 16.673A16.657 16.657 0 0127.02 3.554 16.617 16.617 0 0016.707-.013C7.49-.013.02 7.457.02 16.673c0 9.215 7.47 16.685 16.686 16.685 3.893 0 7.475-1.333 10.313-3.567a16.657 16.657 0 01-6.374-13.118z" fill="#EB001B"/><path d="M54.004 16.673c0 9.215-7.47 16.685-16.687 16.685a16.622 16.622 0 01-10.314-3.567 16.654 16.654 0 006.375-13.118 16.655 16.655 0 00-6.375-13.119A16.622 16.622 0 0137.317-.013c9.216 0 16.687 7.47 16.687 16.686z" fill="#F79E1B"/></svg>