<svg width="70" height="70" fill="none" xmlns="http://www.w3.org/2000/svg"><g clip-path="url(#clip0)"><path d="M55.955 62.98c-.566 0-1.025.46-1.025 1.026v2.922c0 .563-.459 1.022-1.022 1.022H10.15a1.023 1.023 0 01-1.022-1.022V13.394a1.025 1.025 0 00-2.05 0v53.534A3.076 3.076 0 0010.15 70h43.757a3.076 3.076 0 003.072-3.072v-2.922c0-.567-.459-1.026-1.025-1.026zM8.104 9.645c.566 0 1.025-.459 1.025-1.025V3.073c0-.564.458-1.022 1.022-1.022h33.704v10.047c0 .566.46 1.025 1.026 1.025l10.049.002V34.04a1.025 1.025 0 002.05 0V12.1c0-.272-.107-.533-.3-.725L45.606.3a1.025 1.025 0 00-.725-.3H10.15a3.076 3.076 0 00-3.073 3.073V8.62c0 .566.46 1.025 1.026 1.025zm37.802-6.144l7.573 7.573-7.573-.001V3.5z" fill="#2386FE"/><path d="M61.896 37.041H19.79c-.566 0-1.025.46-1.025 1.025v21.875c0 .567.459 1.026 1.025 1.026h8.014a1.025 1.025 0 000-2.051h-6.989V39.092h40.056v19.824H32.554a1.025 1.025 0 000 2.05h29.342c.566 0 1.025-.458 1.025-1.025V38.066c0-.566-.459-1.025-1.025-1.025z" fill="#2386FE"/><path d="M44.32 17.974H19.79a1.025 1.025 0 000 2.05h24.53a1.025 1.025 0 000-2.05zm0 6.047H19.79a1.025 1.025 0 000 2.051h24.53a1.025 1.025 0 000-2.05zm0 6.169h-4.845a1.025 1.025 0 100 2.05h4.846a1.025 1.025 0 000-2.05zm-24.53 0a1.025 1.025 0 100 2.05h14.858a1.025 1.025 0 000-2.05H19.79zm14.434 16.57v-1.874a3.274 3.274 0 00-3.27-3.27h-4.342c-.566 0-1.025.459-1.025 1.025V55.37a1.025 1.025 0 002.05 0v-5.34h3.317a3.274 3.274 0 003.27-3.27zm-2.05 0a1.22 1.22 0 01-1.22 1.22h-3.316v-4.314h3.316c.673 0 1.22.547 1.22 1.22v1.874zm23.178-3.094a1.025 1.025 0 000-2.05h-6.586c-.567 0-1.026.458-1.026 1.025v12.727a1.025 1.025 0 002.051 0V50.03h5.561a1.025 1.025 0 000-2.05h-5.561v-4.314h5.561zm-13.46 12.728a3.274 3.274 0 003.27-3.27v-8.238a3.274 3.274 0 00-3.27-3.27H37.55c-.566 0-1.026.459-1.026 1.025V55.37c0 .566.46 1.025 1.026 1.025h4.342zm-3.317-12.728h3.317a1.22 1.22 0 011.219 1.22v8.238a1.22 1.22 0 01-1.22 1.219h-3.316V43.666z" fill="#F7AF37"/></g><defs><clipPath id="clip0"><path fill="#fff" d="M0 0h70v70H0z"/></clipPath></defs></svg>