<svg width="78" height="24" fill="none" xmlns="http://www.w3.org/2000/svg"><path d="M33.8 23.654h-6.319L31.433.42h6.319L33.8 23.654zM56.705.99C55.459.518 53.482 0 51.038 0c-6.24 0-10.634 3.163-10.661 7.686-.052 3.337 3.146 5.19 5.538 6.303 2.444 1.137 3.275 1.88 3.275 2.892-.025 1.557-1.975 2.274-3.794 2.274-2.523 0-3.875-.37-5.929-1.236l-.832-.37-.884 5.215c1.482.641 4.212 1.211 7.047 1.236 6.63 0 10.946-3.114 10.997-7.934.025-2.645-1.663-4.671-5.304-6.327-2.21-1.063-3.563-1.78-3.563-2.868.026-.989 1.145-2.001 3.64-2.001 2.053-.05 3.563.42 4.706.89l.572.246.859-5.017zm8.398 14.433c.52-1.335 2.523-6.5 2.523-6.5-.026.05.52-1.36.831-2.225L68.9 8.7s1.197 5.562 1.456 6.723h-5.252zm7.8-15.002h-4.888c-1.507 0-2.652.42-3.302 1.928l-9.385 21.304h6.63l1.326-3.485h8.112c.181.816.754 3.485.754 3.485H78L72.903.421zM22.203.42l-6.188 15.843-.676-3.213c-1.144-3.707-4.732-7.735-8.735-9.738l5.667 20.317h6.682L28.885.42h-6.682z" fill="#fff"/><path d="M10.27.42H.104L0 .89c7.93 1.928 13.182 6.576 15.34 12.161L13.13 2.374C12.766.89 11.648.47 10.27.42z" fill="#fff"/></svg>