<svg width="36" height="33" fill="none" xmlns="http://www.w3.org/2000/svg"><path d="M25.875.25C22.83.25 19.907 1.667 18 3.908 16.093 1.667 13.17.25 10.125.25 4.735.25.5 4.485.5 9.875.5 16.49 6.45 21.88 15.463 30.07L18 32.362l2.538-2.31C29.55 21.88 35.5 16.49 35.5 9.875c0-5.39-4.235-9.625-9.625-9.625zm-7.7 27.212l-.175.175-.175-.175C9.495 19.92 4 14.932 4 9.875c0-3.5 2.625-6.125 6.125-6.125 2.695 0 5.32 1.732 6.247 4.13h3.273c.91-2.397 3.535-4.13 6.23-4.13 3.5 0 6.125 2.625 6.125 6.125 0 5.057-5.495 10.045-13.825 17.587z" fill="#2E4BE1"/></svg>