<svg width="17" height="31" fill="none" xmlns="http://www.w3.org/2000/svg"><path d="M9.175 13.713c-3.689-.96-4.875-1.95-4.875-3.494 0-1.771 1.641-3.006 4.388-3.006 2.892 0 3.964 1.38 4.062 3.412h3.591c-.114-2.795-1.82-5.362-5.216-6.191V.875H6.25v3.51C3.098 5.068.563 7.115.563 10.251c0 3.754 3.103 5.623 7.637 6.711 4.063.976 4.875 2.405 4.875 3.917 0 1.121-.796 2.909-4.387 2.909-3.348 0-4.664-1.495-4.843-3.413H.27c.195 3.559 2.86 5.558 5.98 6.224v3.526h4.875v-3.494c3.169-.601 5.688-2.437 5.688-5.768 0-4.616-3.95-6.192-7.638-7.15z" fill="#2E4BE1"/></svg>