<svg width="33" height="33" fill="none" xmlns="http://www.w3.org/2000/svg"><path d="M14.875 26.25h3.25V23h-3.25v3.25zM16.5.25C7.53.25.25 7.53.25 16.5c0 8.97 7.28 16.25 16.25 16.25 8.97 0 16.25-7.28 16.25-16.25C32.75 7.53 25.47.25 16.5.25zm0 29.25c-7.166 0-13-5.834-13-13s5.834-13 13-13 13 5.834 13 13-5.834 13-13 13zm0-22.75a6.498 6.498 0 00-6.5 6.5h3.25A3.26 3.26 0 0116.5 10a3.26 3.26 0 013.25 3.25c0 3.25-4.875 2.844-4.875 8.125h3.25c0-3.656 4.875-4.063 4.875-8.125 0-3.591-2.909-6.5-6.5-6.5z" fill="#2E4BE1"/></svg>