<svg width="35" height="36" fill="none" xmlns="http://www.w3.org/2000/svg"><path d="M35 7.01L26.95.255l-2.258 2.678 8.05 6.755L35 7.01zM10.29 2.933L8.05.255 0 6.993 2.257 9.67l8.033-6.737zM18.375 11H15.75v10.5l8.313 4.988 1.312-2.153-7-4.147V11zM17.5 4C8.803 4 1.75 11.053 1.75 19.75c0 8.698 7.035 15.75 15.75 15.75 8.698 0 15.75-7.052 15.75-15.75C33.25 11.053 26.198 4 17.5 4zm0 28A12.241 12.241 0 015.25 19.75c0-6.772 5.477-12.25 12.25-12.25s12.25 5.478 12.25 12.25A12.24 12.24 0 0117.5 32z" fill="#2E4BE1"/></svg>