<svg width="122" height="20" viewBox="0 0 122 20" fill="none" xmlns="http://www.w3.org/2000/svg">
<path d="M48.4261 7.31903C48.4261 11.326 48.4261 15.2193 48.4261 19.1126C46.6073 19.1126 44.8454 19.1126 42.9982 19.1126C42.9982 13.3437 42.9982 7.5748 42.9982 1.66378C42.7708 1.89113 42.6287 2.0048 42.4866 2.14689C39.7301 5.21607 36.9451 8.25684 34.1885 11.326C33.9896 11.5534 33.8475 11.9228 33.8475 12.2354C33.8191 14.5089 33.8191 16.7823 33.8191 19.0842C32.0287 19.0842 30.2383 19.0842 28.3911 19.0842C28.3911 18.8569 28.3911 18.6295 28.3911 18.3738C28.3911 16.3561 28.3911 14.3668 28.3911 12.3491C28.3911 11.866 28.2775 11.5249 27.9365 11.1839C25.0662 8.05791 22.1391 4.84664 19.2404 1.66378C19.0415 1.46485 18.871 1.2375 18.6152 0.953321C18.8994 0.924903 19.0983 0.896484 19.3257 0.896484C20.9455 0.896484 22.5938 0.924903 24.2136 0.896484C24.6399 0.896484 24.9525 1.03858 25.2367 1.35118C27.0271 3.45414 28.8743 5.55709 30.693 7.66005C30.8351 7.83056 30.9772 8.00107 31.1761 8.2C32.6255 6.4949 34.0464 4.84664 35.4957 3.16995C36.0357 2.54475 36.5756 1.86271 37.144 1.26592C37.3145 1.06699 37.6555 0.924903 37.9113 0.924903C41.3215 0.896484 44.7601 0.896484 48.1703 0.924903C48.4829 0.924903 48.8239 1.12383 49.0513 1.32276C52.7173 4.81822 56.3548 8.34209 60.0208 11.866C60.1344 11.9796 60.2765 12.0933 60.4755 12.2922C60.4755 8.45577 60.4755 4.70454 60.4755 0.953321C62.3227 0.953321 64.0846 0.953321 65.9318 0.953321C65.9318 1.15225 65.9318 1.35118 65.9318 1.55011C65.9318 5.64235 65.9318 9.76301 65.9318 13.8553C65.9318 14.2815 65.8181 14.5373 65.5055 14.8215C63.8572 16.214 62.209 17.6349 60.5607 19.0558C56.5253 15.1625 52.5183 11.2976 48.4261 7.31903Z" fill="#1F1F1F"/>
<path d="M99.7764 6.69393C99.7764 10.8146 99.7764 14.9637 99.7764 19.1127C97.9577 19.1127 96.1673 19.1127 94.377 19.1127C94.377 13.0596 94.377 7.00653 94.377 0.925001C94.5759 0.925001 94.7464 0.896582 94.9453 0.896582C97.1051 0.896582 99.2649 0.925001 101.425 0.868164C101.879 0.868164 102.078 1.03867 102.277 1.40811C104.096 4.6478 105.915 7.8875 107.762 11.1272C107.876 11.3545 108.018 11.5819 108.188 11.8376C109.581 9.36525 110.973 6.92127 112.337 4.47729C112.934 3.3974 113.531 2.3175 114.156 1.26602C114.27 1.09551 114.497 0.896582 114.668 0.868164C117.112 0.896582 119.527 0.896582 122 0.896582C122 6.97811 122 13.0312 122 19.1127C120.209 19.1127 118.447 19.1127 116.629 19.1127C116.629 14.9637 116.629 10.843 116.629 6.69393C116.572 6.66551 116.543 6.66551 116.486 6.63709C116.373 6.8076 116.259 7.00653 116.145 7.17704C114.014 10.9851 111.854 14.7647 109.723 18.5728C109.496 18.9991 109.24 19.1127 108.757 19.1696C107.393 19.3685 106.682 18.8286 106.028 17.6066C104.068 13.9122 101.965 10.3031 99.8901 6.66551C99.8901 6.69393 99.8333 6.69393 99.7764 6.69393Z" fill="#1F1F1F"/>
<path d="M16.8521 9.76301C17.9888 10.0188 19.0971 10.4735 19.9781 11.3544C21.9105 13.2585 21.6548 16.1287 19.3813 17.7486C18.0457 18.6864 16.5111 19.1411 14.9196 19.1411C10.0317 19.1979 5.1153 19.1695 0.227347 19.1695C0.17051 19.1695 0.113673 19.1411 0 19.1411C0 13.088 0 7.03485 0 0.953321C0.17051 0.924903 0.34102 0.896484 0.51153 0.896484C5.00163 0.896484 9.46331 0.896484 13.9534 0.896484C15.5164 0.896484 17.0226 1.20909 18.3867 1.97638C19.6087 2.63 20.518 3.59623 20.717 5.01714C20.9443 6.58015 20.3191 7.83056 19.0119 8.71153C18.3298 9.1378 17.5625 9.42199 16.8521 9.76301ZM5.39949 15.7309C8.07081 15.7309 10.7137 15.7593 13.3282 15.7024C13.8966 15.674 14.5218 15.3898 15.0049 15.0488C15.8006 14.5089 15.9143 13.4574 15.3459 12.7185C14.8344 12.0365 14.0955 11.667 13.2998 11.667C10.7137 11.6102 8.09923 11.6102 5.48474 11.5818C5.45632 11.5818 5.4279 11.6386 5.37107 11.667C5.39949 12.9743 5.39949 14.3099 5.39949 15.7309ZM5.37107 8.14316C5.51316 8.17158 5.59841 8.17158 5.68367 8.17158C7.87188 8.17158 10.0601 8.17158 12.2199 8.17158C12.6177 8.17158 13.0156 8.11474 13.385 8.02949C14.4365 7.77372 15.147 7.03485 15.147 6.23913C15.147 5.415 14.5218 4.76138 13.4703 4.44878C13.2714 4.39194 13.0724 4.3351 12.9019 4.3351C11.1968 4.30669 9.46331 4.27827 7.75821 4.24985C6.99091 4.24985 6.22362 4.24985 5.4279 4.24985C5.39949 4.50561 5.39949 4.70454 5.39949 4.90347C5.37107 5.98337 5.37107 7.03485 5.37107 8.14316Z" fill="#1F1F1F"/>
<path d="M80.0839 19.4821C77.0715 19.4253 74.2013 18.9137 71.5584 17.436C69.2849 16.1572 67.523 14.3952 66.9546 11.7523C66.2441 8.51263 67.3809 5.8413 69.8817 3.76676C72.0131 2.00483 74.5139 1.18069 77.1852 0.811255C80.5386 0.38498 83.8067 0.612327 86.9611 1.83432C88.7799 2.54477 90.3997 3.53942 91.6501 5.07401C94.7193 8.79681 93.8668 13.8553 89.7177 16.7539C87.5863 18.2317 85.1992 18.9706 82.6415 19.2832C81.8174 19.3969 80.9364 19.4253 80.0839 19.4821ZM80.2828 4.07936C77.9525 4.07936 75.9632 4.64773 74.5423 5.75605C71.672 7.94426 71.6436 12.0365 74.4855 14.2531C75.878 15.3614 77.5262 15.8161 79.2597 15.9298C81.3911 16.0719 83.4372 15.7593 85.2844 14.5657C88.7515 12.2923 88.7231 7.6885 85.256 5.44345C83.693 4.4488 81.9595 4.1362 80.2828 4.07936Z" fill="#1F1F1F"/>
</svg>
