<svg width="72" height="66" fill="none" xmlns="http://www.w3.org/2000/svg"><path d="M31.587 59.392H5.027a2.921 2.921 0 01-2.918-2.918V18.058h3.44a1.055 1.055 0 100-2.109H2.11v-5.815a2.921 2.921 0 012.918-2.918h3.49v1.297c0 2.101 1.71 3.81 3.81 3.81a3.814 3.814 0 003.81-3.81V7.216h33.785v1.297a3.814 3.814 0 003.81 3.81c2.1 0 3.81-1.709 3.81-3.81V7.216h3.49a2.921 2.921 0 012.918 2.918v5.815H10.48a1.055 1.055 0 100 2.11h53.47V36.11a1.055 1.055 0 102.109 0V10.134a5.033 5.033 0 00-5.027-5.027h-3.49V3.81c0-2.1-1.71-3.81-3.81-3.81a3.814 3.814 0 00-3.81 3.81v1.297H16.137V3.81c0-2.1-1.709-3.81-3.81-3.81-2.1 0-3.81 1.71-3.81 3.81v1.297h-3.49A5.033 5.033 0 000 10.134v46.34a5.033 5.033 0 005.027 5.028h26.56a1.055 1.055 0 100-2.11zM52.03 3.81c0-.938.763-1.7 1.7-1.7.938 0 1.701.762 1.701 1.7v4.703c0 .938-.763 1.701-1.7 1.701a1.703 1.703 0 01-1.701-1.7V3.81zm-41.404 0c0-.938.763-1.7 1.7-1.7.938 0 1.701.762 1.701 1.7v4.703c0 .938-.763 1.701-1.7 1.701a1.703 1.703 0 01-1.701-1.7V3.81z" fill="#474654"/><path d="M69.67 39.987H37.793a2.336 2.336 0 00-2.33 2.33v21.34a2.337 2.337 0 002.33 2.33H69.67a2.337 2.337 0 002.33-2.33v-21.34a2.336 2.336 0 00-2.33-2.33zm-1.07 2.109L54.696 52.778a1.586 1.586 0 01-1.93 0L38.864 42.096H68.6zM37.572 62.238V43.763l10.295 7.91-10.295 10.565zm1.348 1.64l10.631-10.91 1.93 1.483a3.698 3.698 0 004.5 0l1.93-1.483 10.632 10.91H38.92zm30.97-1.64L59.597 51.674l10.295-7.91v18.474zM18.165 25.475a2.56 2.56 0 00-2.557-2.558h-6.09a2.56 2.56 0 00-2.558 2.558v6.09a2.56 2.56 0 002.558 2.557h6.09a2.56 2.56 0 002.557-2.558v-6.09zm-2.11 6.09a.449.449 0 01-.447.448h-6.09a.449.449 0 01-.448-.449v-6.09c0-.247.2-.448.448-.448h6.09a.45.45 0 01.448.449v6.09zm-.448 7.297h-6.09a2.56 2.56 0 00-2.557 2.557v6.09a2.56 2.56 0 002.558 2.558h6.09a2.56 2.56 0 002.557-2.558v-6.09a2.56 2.56 0 00-2.557-2.557zm.449 8.647a.449.449 0 01-.449.448h-6.09a.449.449 0 01-.447-.448v-6.09c0-.247.2-.448.448-.448h6.09c.247 0 .448.201.448.448v6.09zm15.798-22.034a2.56 2.56 0 00-2.557-2.558h-6.09a2.56 2.56 0 00-2.558 2.558v6.09a2.56 2.56 0 002.558 2.557h6.09a2.56 2.56 0 002.557-2.558v-6.09zm-2.11 6.09a.449.449 0 01-.447.448h-6.09a.449.449 0 01-.448-.449v-6.09c0-.247.2-.448.448-.448h6.09a.45.45 0 01.448.449v6.09zm-.447 7.297h-6.09a2.56 2.56 0 00-2.558 2.557v6.09a2.56 2.56 0 002.558 2.558h6.09a2.56 2.56 0 002.557-2.558v-6.09a2.56 2.56 0 00-2.557-2.557zm.448 8.647a.449.449 0 01-.448.448h-6.09a.449.449 0 01-.448-.448v-6.09c0-.247.2-.448.448-.448h6.09c.247 0 .448.201.448.448v6.09zm13.24-13.387a2.56 2.56 0 002.558-2.558v-6.09a2.56 2.56 0 00-2.558-2.557h-6.09a2.56 2.56 0 00-2.557 2.558v6.09a2.56 2.56 0 002.558 2.557h6.09zm-6.538-2.558v-6.09c0-.247.201-.448.449-.448h6.09a.45.45 0 01.448.449v6.09a.449.449 0 01-.449.448h-6.09a.449.449 0 01-.448-.449zm14.137-8.647a2.56 2.56 0 00-2.557 2.558v6.09a2.56 2.56 0 002.557 2.557h6.09a2.56 2.56 0 002.558-2.558v-6.09a2.56 2.56 0 00-2.558-2.557h-6.09zm6.538 2.558v6.09a.449.449 0 01-.448.448h-6.09a.449.449 0 01-.448-.449v-6.09c0-.247.201-.448.448-.448h6.09c.247 0 .448.201.448.449z" fill="#474654"/></svg>