<svg width="72" height="72" fill="none" xmlns="http://www.w3.org/2000/svg"><path d="M24.895 5.625A19.17 19.17 0 0136.002 2.11c10.639 0 19.294 8.656 19.294 19.294 0 4.424-1.456 8.584-4.21 12.032a1.055 1.055 0 101.648 1.317c3.056-3.826 4.671-8.442 4.671-13.349C57.405 9.602 47.804 0 36.002 0c-4.443 0-8.704 1.35-12.323 3.901a1.055 1.055 0 001.216 1.724zm11.107 37.182a21.21 21.21 0 0012.995-4.395 1.055 1.055 0 00-1.282-1.676 19.115 19.115 0 01-11.713 3.961c-10.639 0-19.294-8.655-19.294-19.294 0-4.636 1.668-9.117 4.698-12.619a1.055 1.055 0 10-1.595-1.38 21.396 21.396 0 00-5.213 14c0 11.801 9.602 21.403 21.404 21.403z" fill="#474654"/><path d="M25.172 26.71l4.257 4.257a1.573 1.573 0 002.222 0l8.11-8.11 2.111 2.112c.958.959 2.607.33 2.68-1.026l.608-11.31a1.573 1.573 0 00-1.653-1.654l-11.31.608c-1.354.073-1.987 1.72-1.027 2.68l2.112 2.112-8.11 8.11a1.57 1.57 0 000 2.221zm9.982-9.22a1.56 1.56 0 00.46-1.111c0-.42-.163-.814-.46-1.11l-1.639-1.64 9.507-.512-.512 9.507-1.64-1.64a1.573 1.573 0 00-2.22 0l-8.11 8.11-3.495-3.495 8.11-8.11zm36.048 33.414c-1.376-2.023-3.713-2.516-6.252-1.32L46.653 57.64l.011-1.583c.018-2.409-2.188-5.663-5.823-6.177a.843.843 0 00-.027-.003L28.77 48.49c-2.568-.366-3.819-1.216-6.2-2.608a22.688 22.688 0 00-11.322-3.1v-.692a3.129 3.129 0 00-3.125-3.125H3.125A3.129 3.129 0 000 42.09v25.355a3.129 3.129 0 003.125 3.125h4.998a3.129 3.129 0 003.125-3.125v-.36l10.948 4.075c1.46.544 2.992.82 4.551.82h16.244c2.477 0 4.892-.7 6.984-2.027l20.339-12.887c.048-.03.093-.065.136-.102a4.635 4.635 0 00.752-6.06zm-2.096 4.43l-20.26 12.838a10.922 10.922 0 01-5.855 1.699H26.747c-1.307 0-2.59-.231-3.816-.687l-11.683-4.35v-11.74a1.055 1.055 0 00-2.11 0v14.35c0 .561-.455 1.017-1.015 1.017H3.125c-.56 0-1.015-.456-1.015-1.016V42.09c0-.56.455-1.016 1.015-1.016h4.998c.56 0 1.016.456 1.016 1.016v6.073a1.055 1.055 0 002.11 0V44.89c3.602.022 7.146.992 10.257 2.811 2.494 1.46 4.003 2.457 6.981 2.879l.027.003 12.044 1.387a4.684 4.684 0 013.996 4.13l-.015 2.106H33.274a1.055 1.055 0 000 2.11h12.312c.134 0 .286-.03.421-.089l.004-.001 19.802-8.719a.859.859 0 00.026-.012c1.11-.524 2.638-.847 3.62.595.693 1.02.539 2.4-.353 3.243z" fill="#474654"/></svg>