<svg width="72" height="72" fill="none" xmlns="http://www.w3.org/2000/svg"><path d="M68.276 51.098h-5.731v-1.752a1.055 1.055 0 00-2.11 0v1.752H50.68c.708-1.081 1.132-2.06 1.286-2.958.214-1.243-.197-2.543-1.16-3.692 1.965-1.43 2.961-2.747 2.961-3.914 0-.598-.127-1.225-.379-1.869l2.34.741a6.73 6.73 0 014.591 5.18 1.055 1.055 0 002.073-.389 8.837 8.837 0 00-6.027-6.802l-5.279-1.671c-1.796-1.279-3.464-1.203-4.163-1.358l-1.49-1.298a3.236 3.236 0 00-2.517-.777v-2.797a11.564 11.564 0 004.598-8.101 2.704 2.704 0 002.22-2.657V8.358a4.184 4.184 0 00-4.18-4.178l-.105-.001A4.184 4.184 0 0041.27 0H30.504a8.262 8.262 0 00-7.77 5.482 1.055 1.055 0 101.987.706 6.149 6.149 0 015.783-4.079H41.27c1.141 0 2.07.929 2.07 2.07 0 1.163.946 2.11 2.11 2.11h.105c1.141 0 2.07.928 2.07 2.07v5.767H46.52a1.12 1.12 0 01-1.12-1.12v-1.19a3.347 3.347 0 00-4.4-3.18 16.048 16.048 0 01-10.018-.003 3.348 3.348 0 00-4.391 3.184v1.19a1.12 1.12 0 01-1.12 1.12h-1.104v-3.361a1.055 1.055 0 10-2.11 0v7.97c0 1.325.96 2.43 2.221 2.657a11.564 11.564 0 004.597 8.101v2.796a3.235 3.235 0 00-2.512.778l-1.509 1.315c-.296.074-1.31.145-2.547.835l-6.876 2.177a8.819 8.819 0 00-6.18 8.439v5.264h-5.73A3.725 3.725 0 000 54.818V68.28C0 70.331 1.67 72 3.72 72h64.556a3.725 3.725 0 003.721-3.72V54.818c0-2.052-1.67-3.72-3.72-3.72zM47.53 36.581c.18.046 1.215.045 2.453.95a4.401 4.401 0 011.364 1.716c.207.469.312.901.312 1.287 0 .192-.43 1.044-2.337 2.383a1.8 1.8 0 00-.747 1.286c-.056.528.114 1.05.467 1.432.468.505.994 1.288.846 2.148-.106.617-.512 1.68-1.815 3.315h-5.19c2.947-5.94 4.506-10.81 4.647-14.517zM40.535 51.07l-1.716-6.484.953-1.125a2.814 2.814 0 002.754-1.08l2.626-3.502c-.595 3.263-2.14 7.344-4.617 12.191zm3.512-16.41l.987.86-4.196 5.596a.703.703 0 01-1.024.11l-2.235-1.933c6.767-6.297 4.565-4.235 5.012-4.662a1.132 1.132 0 011.456.028zm-6.124 7.72l-.753.889h-2.35l-.764-.875 1.941-1.68 1.925 1.666zm-6.738-8.98v-2.652c1.47.675 3.1 1.05 4.811 1.05 1.711 0 3.342-.375 4.811-1.05v2.656l-4.809 4.478-4.813-4.482zm4.004 11.977h1.658l1.514 5.721h-4.444l1.272-5.72zm-8.64-24.552a1.6 1.6 0 00-1.59-1.499.59.59 0 01-.59-.59v-2.5h1.103a3.232 3.232 0 003.229-3.23v-1.19a1.24 1.24 0 011.641-1.173 18.174 18.174 0 0011.32-.004 1.24 1.24 0 011.63 1.178v1.19a3.232 3.232 0 003.228 3.229h1.105v2.5a.59.59 0 01-.59.59 1.6 1.6 0 00-1.591 1.5c-.314 4.97-4.464 8.863-9.448 8.863s-9.134-3.894-9.447-8.864zm1.4 13.833a1.132 1.132 0 011.452-.032c.13.123 4.994 4.646 5.016 4.666l-2.234 1.933a.696.696 0 01-.536.167.697.697 0 01-.488-.277l-4.197-5.596.988-.86zm1.522 7.722a2.815 2.815 0 002.722 1.085l1.004 1.15-1.353 6.085c-2.628-4.738-4.26-8.616-4.927-11.727l2.554 3.407zm-7.733-3.501a4.585 4.585 0 012.74-2.216c.193 3.658 1.898 8.409 5.179 14.435h-4.825c-1.303-1.634-1.709-2.698-1.815-3.316-.148-.859.378-1.642.846-2.147a1.82 1.82 0 00.467-1.432 1.8 1.8 0 00-.747-1.286c-1.907-1.34-2.336-2.19-2.336-2.383 0-.487.165-1.044.49-1.655zm-10.176 6.955a6.717 6.717 0 014.707-6.428l3.387-1.072c-.345.761-.519 1.5-.519 2.2 0 1.167.996 2.483 2.961 3.914-.962 1.149-1.373 2.449-1.16 3.692.155.899.579 1.877 1.286 2.958H11.562v-5.264zm58.326 22.445c0 .889-.723 1.612-1.612 1.612H3.721a1.613 1.613 0 01-1.612-1.612V54.82c0-.889.723-1.611 1.612-1.611h64.555c.889 0 1.612.722 1.612 1.61V68.28z" fill="#474654"/><path d="M13.6 59.157l-1.237-.045-.424-1.162a1.72 1.72 0 00-1.63-1.14 1.72 1.72 0 00-1.632 1.14l-.424 1.162-1.236.044a1.72 1.72 0 00-1.589 1.2 1.72 1.72 0 00.581 1.903l.974.762-.34 1.19a1.72 1.72 0 00.65 1.88 1.72 1.72 0 001.99.037l1.025-.691 1.026.69c.297.2.634.3.97.3.357 0 .713-.112 1.02-.335a1.72 1.72 0 00.65-1.882l-.34-1.189.973-.762a1.72 1.72 0 00.581-1.904 1.72 1.72 0 00-1.589-1.198zm-1.464 2.358a1.73 1.73 0 00-.6 1.844l.128.448-.386-.26a1.73 1.73 0 00-1.94 0l-.386.26.128-.448a1.73 1.73 0 00-.6-1.844l-.366-.287.465-.017a1.73 1.73 0 001.57-1.14l.16-.438.159.438a1.73 1.73 0 001.569 1.14l.465.017-.367.287zm14.308-2.358l-1.236-.045-.424-1.162a1.72 1.72 0 00-1.63-1.14 1.72 1.72 0 00-1.632 1.14l-.424 1.162-1.236.044a1.72 1.72 0 00-1.589 1.2 1.72 1.72 0 00.581 1.903l.974.762-.34 1.19a1.72 1.72 0 00.65 1.88 1.72 1.72 0 001.99.037l1.025-.691 1.026.69a1.72 1.72 0 001.99-.035 1.72 1.72 0 00.65-1.882l-.34-1.189.973-.762a1.72 1.72 0 00.581-1.904 1.72 1.72 0 00-1.589-1.198zm-1.463 2.358a1.73 1.73 0 00-.6 1.844l.128.448-.386-.26a1.73 1.73 0 00-1.94 0l-.386.26.128-.448a1.73 1.73 0 00-.599-1.844l-.367-.287.466-.017a1.73 1.73 0 001.569-1.14l.16-.438.159.438a1.73 1.73 0 001.569 1.14l.465.017-.366.287zm14.309-2.358l-1.236-.045-.425-1.162A1.72 1.72 0 0036 56.81a1.72 1.72 0 00-1.632 1.14l-.424 1.162-1.235.044a1.72 1.72 0 00-1.59 1.2 1.72 1.72 0 00.582 1.903l.973.762-.34 1.19a1.72 1.72 0 00.65 1.88 1.72 1.72 0 001.99.037L36 65.437l1.025.69a1.72 1.72 0 001.99-.035 1.72 1.72 0 00.65-1.882l-.34-1.189.973-.762a1.72 1.72 0 00.582-1.904 1.72 1.72 0 00-1.59-1.198zm-1.464 2.358a1.73 1.73 0 00-.6 1.844l.128.448-.386-.26a1.733 1.733 0 00-1.939 0l-.386.26.128-.448a1.73 1.73 0 00-.6-1.844l-.366-.287.465-.017a1.73 1.73 0 001.569-1.14l.16-.438.16.438a1.73 1.73 0 001.568 1.14l.466.017-.367.287zm14.309-2.358l-1.236-.045-.425-1.162a1.72 1.72 0 00-1.63-1.14 1.72 1.72 0 00-1.631 1.14l-.425 1.162-1.235.044a1.72 1.72 0 00-1.59 1.2 1.72 1.72 0 00.582 1.903l.974.762-.34 1.19a1.72 1.72 0 00.649 1.88 1.72 1.72 0 001.99.037l1.026-.691 1.026.69a1.72 1.72 0 001.99-.035 1.72 1.72 0 00.649-1.882l-.34-1.189.974-.762a1.72 1.72 0 00.58-1.904 1.72 1.72 0 00-1.588-1.198zm-1.464 2.358a1.73 1.73 0 00-.6 1.844l.129.448-.387-.26a1.732 1.732 0 00-1.939 0l-.387.26.129-.448a1.73 1.73 0 00-.6-1.844l-.366-.287.465-.017a1.729 1.729 0 001.569-1.14l.16-.437.16.438a1.73 1.73 0 001.568 1.14l.466.016-.367.287zm14.309-2.358l-1.236-.045-.424-1.162a1.72 1.72 0 00-1.631-1.14 1.72 1.72 0 00-1.631 1.14l-.424 1.162-1.236.044a1.72 1.72 0 00-1.59 1.2 1.72 1.72 0 00.582 1.903l.974.762-.34 1.19a1.72 1.72 0 00.649 1.88 1.72 1.72 0 001.99.037l1.026-.691 1.026.69a1.72 1.72 0 001.99-.035 1.72 1.72 0 00.649-1.882l-.34-1.189.974-.762a1.72 1.72 0 00.58-1.904 1.72 1.72 0 00-1.588-1.198zm-1.464 2.358a1.73 1.73 0 00-.6 1.844l.129.448-.387-.26a1.733 1.733 0 00-1.939 0l-.386.26.128-.448a1.73 1.73 0 00-.6-1.844l-.366-.287.465-.017a1.729 1.729 0 001.569-1.14l.16-.437.16.438a1.73 1.73 0 001.568 1.14l.466.016-.367.287z" fill="#474654"/></svg>