<svg width="72" height="72" fill="none" xmlns="http://www.w3.org/2000/svg"><path d="M49.045 15.943v3.546c0 .65.388 1.23.988 1.478a1.595 1.595 0 001.743-.346l4.453-4.453H67.47a4.152 4.152 0 004.147-4.147V4.147A4.152 4.152 0 0067.47 0H50.392a4.152 4.152 0 00-4.146 4.147v7.874a4.168 4.168 0 002.8 3.922zm-.691-11.796a2.04 2.04 0 012.038-2.039h17.079a2.04 2.04 0 012.038 2.039v7.874a2.04 2.04 0 01-2.038 2.038H55.979c-.402 0-.78.157-1.064.441l-3.761 3.761v-2.776c0-.707-.499-1.325-1.186-1.47a2.046 2.046 0 01-1.614-1.994V4.147z" fill="#474654"/><path d="M69.17 61.877h-2.006v-33.16a3.968 3.968 0 00-3.963-3.962H43.477a1.054 1.054 0 100 2.108H63.2c1.023 0 1.855.832 1.855 1.855v33.16h-3.514V33.363a2.989 2.989 0 00-2.986-2.986H37.022c.31-.804.523-1.657.62-2.546a2.503 2.503 0 001.961-2.441v-9.113a3.802 3.802 0 00-3.765-3.798 3.803 3.803 0 00-3.796-3.67h-9.455c-4.063 0-7.368 3.305-7.368 7.368v9.213c0 1.193.84 2.194 1.96 2.44.098.89.311 1.743.62 2.547h-4.386a2.989 2.989 0 00-2.985 2.986v8.611a8.647 8.647 0 00-3.514 2.463v-15.72c0-1.022.832-1.854 1.855-1.854h2.628a1.054 1.054 0 100-2.108H8.768a3.967 3.967 0 00-3.963 3.963v33.16H2.799A2.803 2.803 0 000 64.676C0 68.715 3.285 72 7.323 72h57.323c4.038 0 7.323-3.285 7.323-7.323 0-1.544-1.256-2.8-2.8-2.8zM58.555 32.486c.484 0 .877.393.877.877v28.515H50.02v-3.863a1.054 1.054 0 10-2.108 0v3.863H42.85v-3.346a1.054 1.054 0 10-2.108 0v3.346h-8.576L29.892 49.06l.873-1.563c.168.037.339.058.51.058a2.41 2.41 0 001.673-.678l3.914-3.812c.28-.273.475-.605.587-.96l5.76 1.691a6.582 6.582 0 014.702 6.282v3.007a1.054 1.054 0 102.108 0v-3.008c0-3.814-2.556-7.23-6.216-8.304l-6.958-2.042a2.314 2.314 0 00-.656-.442l-1.44-.642a2.806 2.806 0 00-1.325-.237v-3.37a10.38 10.38 0 002.49-2.555h22.642zm-39.02 8.717l1.413-.634a.7.7 0 01.706.078l4.161 3.109-2.043 1.707a.295.295 0 01-.394-.012l-3.904-3.91a.21.21 0 01.062-.338zm11.779-4.988v3.22l-3.81 2.95-4-2.988v-3.181a10.24 10.24 0 007.81 0zm4.015 5.001a.21.21 0 01.06.34l-3.908 3.806a.295.295 0 01-.398.011l-1.898-1.623 3.99-3.09a.699.699 0 01.714-.086l1.44.642zm-8.69 6.605l-.785-1.35 1.653-1.38 1.48 1.264-.818 1.466h-1.53zm.278 2.108h.987l2.12 11.948H24.8l2.117-11.948zm18.459 14.057a2.955 2.955 0 01-2.755 1.899H29.347c-1.256 0-2.33-.79-2.755-1.899h18.785zm-28.05-47.809c0-2.9 2.36-5.26 5.26-5.26h9.456a1.69 1.69 0 011.689 1.689c0 1.092.889 1.98 1.981 1.98h.092c.932 0 1.69.759 1.69 1.69v4.938h-.842a.856.856 0 01-.855-.855v-1.045a3.068 3.068 0 00-4.033-2.915 13.967 13.967 0 01-8.717-.003 3.068 3.068 0 00-4.024 2.918v1.045a.856.856 0 01-.855.855h-.842v-5.037zm0 9.213v-2.068h.842a2.967 2.967 0 002.963-2.963v-1.046a.96.96 0 011.263-.912l.01.003a16.089 16.089 0 0010.022-.003.96.96 0 011.263.913v1.045a2.967 2.967 0 002.963 2.963h.842v2.068a.39.39 0 01-.39.39c-.804 0-1.474.631-1.525 1.436-.27 4.298-3.86 7.665-8.169 7.665-4.31 0-7.898-3.367-8.17-7.664a1.533 1.533 0 00-1.524-1.437.39.39 0 01-.39-.39zm-3.914 7.096h5.494a10.38 10.38 0 002.49 2.555v3.364a2.805 2.805 0 00-1.31.24l-1.413.634a2.32 2.32 0 00-.652.441l-5.486 1.61v-7.967c0-.484.394-.877.877-.877zM6.913 50.079a6.582 6.582 0 014.703-6.282l.171-.05.012-.003 5.615-1.648c.109.342.298.664.569.935l3.911 3.917.01.01a2.4 2.4 0 002.163.633l.862 1.48-2.27 12.807h-8.58v-3.346a1.054 1.054 0 10-2.108 0v3.346H6.913v-11.8zM64.646 69.89H7.323a5.22 5.22 0 01-5.215-5.214c0-.381.31-.691.691-.691h21.598a5.07 5.07 0 004.95 4.007h13.275a5.07 5.07 0 004.95-4.007h21.597c.381 0 .691.31.691.691a5.22 5.22 0 01-5.214 5.214z" fill="#474654"/></svg>