<svg width="36" height="33" fill="none" xmlns="http://www.w3.org/2000/svg"><path d="M15.793 29.696H2.514a1.46 1.46 0 01-1.458-1.459V9.03h1.72a.527.527 0 100-1.055h-1.72V5.067a1.46 1.46 0 011.459-1.459H4.26v.649c0 1.05.854 1.905 1.905 1.905 1.05 0 1.905-.855 1.905-1.905v-.649h16.89v.649c0 1.05.854 1.905 1.905 1.905 1.05 0 1.905-.855 1.905-1.905v-.649h1.745a1.46 1.46 0 011.459 1.46v2.906H5.24a.527.527 0 100 1.055h26.735v9.026a.527.527 0 101.054 0V5.067a2.516 2.516 0 00-2.513-2.513H28.77v-.649C28.77.855 27.916 0 26.866 0S24.96.855 24.96 1.905v.649H8.069v-.649C8.069.855 7.214 0 6.164 0S4.259.855 4.259 1.905v.649H2.514A2.516 2.516 0 000 5.067v23.17a2.516 2.516 0 002.514 2.514h13.28a.527.527 0 100-1.055zm10.222-27.79a.851.851 0 011.701 0v2.35a.851.851 0 01-1.7 0v-2.35zm-20.702 0a.851.851 0 011.701 0v2.35a.851.851 0 01-1.7 0v-2.35z" fill="#fff"/><path d="M34.836 19.993H18.897c-.654 0-1.165.537-1.165 1.165v10.67c0 .64.523 1.166 1.165 1.166h15.94c.636 0 1.164-.521 1.164-1.165V21.158c0-.63-.512-1.165-1.165-1.165zm-.536 1.055l-6.95 5.341a.793.793 0 01-.966 0l-6.95-5.341H34.3zM18.787 31.119v-9.238l5.148 3.956-5.148 5.282zm.674.82l5.316-5.455.964.741c.663.51 1.588.51 2.25 0l.966-.741 5.316 5.455H19.46zm15.485-.82L29.8 25.837l5.147-3.955v9.237zM9.083 12.737a1.28 1.28 0 00-1.279-1.278H4.76a1.28 1.28 0 00-1.279 1.278v3.045a1.28 1.28 0 001.28 1.279h3.044a1.28 1.28 0 001.279-1.279v-3.045zm-1.055 3.045c0 .124-.1.224-.224.224H4.76a.224.224 0 01-.224-.224v-3.045c0-.123.1-.224.224-.224h3.045c.124 0 .224.1.224.224v3.045zm-.224 3.648H4.76a1.28 1.28 0 00-1.279 1.28v3.044a1.28 1.28 0 001.28 1.28h3.044a1.28 1.28 0 001.279-1.28V20.71a1.28 1.28 0 00-1.279-1.278zm.224 4.324c0 .124-.1.224-.224.224H4.76a.224.224 0 01-.224-.224V20.71c0-.123.1-.224.224-.224h3.045c.124 0 .224.101.224.224v3.045zm7.899-11.017a1.28 1.28 0 00-1.28-1.278h-3.044a1.28 1.28 0 00-1.279 1.278v3.045a1.28 1.28 0 001.28 1.279h3.044a1.28 1.28 0 001.279-1.279v-3.045zm-1.055 3.045c0 .124-.1.224-.224.224h-3.045a.224.224 0 01-.224-.224v-3.045c0-.123.1-.224.224-.224h3.045c.123 0 .224.1.224.224v3.045zm-.224 3.648h-3.045a1.28 1.28 0 00-1.279 1.28v3.044a1.28 1.28 0 001.28 1.28h3.044a1.28 1.28 0 001.279-1.28V20.71a1.28 1.28 0 00-1.28-1.278zm.224 4.324c0 .124-.1.224-.224.224h-3.045a.224.224 0 01-.224-.224V20.71c0-.123.1-.224.224-.224h3.045c.123 0 .224.101.224.224v3.045zm6.622-6.694a1.28 1.28 0 001.279-1.278v-3.045a1.28 1.28 0 00-1.28-1.278H18.45a1.28 1.28 0 00-1.28 1.278v3.045a1.28 1.28 0 001.28 1.279h3.045zm-3.27-1.278v-3.045c0-.123.101-.224.225-.224h3.045c.123 0 .224.1.224.224v3.045c0 .124-.1.224-.224.224h-3.045a.224.224 0 01-.224-.224zm7.069-4.323a1.28 1.28 0 00-1.28 1.278v3.045a1.28 1.28 0 001.28 1.279h3.044a1.28 1.28 0 001.28-1.279v-3.045a1.28 1.28 0 00-1.28-1.278h-3.044zm3.268 1.278v3.045c0 .124-.1.224-.224.224h-3.044a.224.224 0 01-.225-.224v-3.045c0-.123.101-.224.224-.224h3.045c.124 0 .224.1.224.224z" fill="#fff"/></svg>