<svg width="110" height="23" viewBox="0 0 110 23" fill="none" xmlns="http://www.w3.org/2000/svg">
<path d="M6.9685 21.7806H2.82359V11.484H0V8.13164H2.82348V5.74619C2.82348 2.91943 4.07231 0.89209 8.206 0.89209C9.08028 0.89209 10.4529 1.06769 10.4529 1.06769V4.18055H9.0112C7.54226 4.18055 6.96872 4.62581 6.96872 5.85679V8.13164H10.3979L10.0925 11.484H6.96861L6.9685 21.7806ZM16.4791 7.86374C16.4187 7.86374 16.3566 7.86593 16.2951 7.86747C12.4517 7.86747 10.6932 10.7484 10.6932 14.8379C10.6932 19.9896 12.9742 22.0515 16.3251 22.0515C18.2423 22.0515 19.5019 21.2473 20.2675 19.7467V21.782H24.2099V8.13306H20.2675V10.2321C19.6424 8.88163 18.3476 7.87974 16.4791 7.86374ZM17.4815 11.089C19.0958 11.089 20.0647 12.211 20.0647 14.1195L20.0684 16.0688C20.0684 17.3551 19.2682 18.86 17.4815 18.86C14.7348 18.86 14.8082 15.9046 14.8082 14.9202C14.8082 11.6091 16.2716 11.089 17.4815 11.089ZM25.802 14.9583C25.802 13.2997 25.7224 7.87262 32.8178 7.87262C35.6661 7.87262 36.8554 8.77508 36.8554 8.77508L35.8995 11.7295C35.8995 11.7295 34.7117 11.0778 33.164 11.0778C31.1817 11.0778 29.9168 12.2229 29.9168 14.2378L29.919 15.6825C29.919 17.6185 31.1395 18.9109 33.1681 18.9109C34.5781 18.9109 35.8776 18.253 35.8776 18.253L36.8311 21.1457C36.8311 21.1457 35.7436 22.0539 32.8377 22.0539C26.0818 22.0539 25.8022 17.1848 25.8022 14.9583H25.802ZM59.9711 7.86747C63.8146 7.86747 65.6008 10.7484 65.6008 14.8379C65.6008 19.9896 63.3197 22.0515 59.9688 22.0515C58.0516 22.0515 56.6344 21.2474 55.8688 19.7467V21.782L51.976 21.7805V1.30709L56.1091 0.947884V10.0472C56.7057 8.45522 58.6661 7.86747 59.9712 7.86747H59.9711ZM58.8124 11.089C57.1981 11.089 56.1091 12.211 56.1091 14.1195L56.1053 16.0688C56.1029 17.3551 56.8594 18.86 58.8124 18.86C61.5591 18.86 61.4857 15.9046 61.4857 14.9202C61.4857 11.6091 60.0224 11.089 58.8124 11.089ZM44.0267 7.87876C39.6674 7.87876 37.366 10.2472 37.366 14.4562V15.2382C37.366 20.7011 40.5979 22.1076 44.451 22.1076C48.1962 22.1076 49.8914 21.0637 49.8914 21.0637L49.118 18.2839C49.118 18.2839 47.1239 19.1294 44.9466 19.1294C42.6894 19.1294 41.7186 18.5561 41.4698 16.3944H50.2218V14.1643C50.2218 9.59862 47.6389 7.87865 44.0266 7.87865L44.0267 7.87876ZM44.1318 10.6623C45.6408 10.6623 46.6185 11.5844 46.5649 13.7229H41.4774C41.5656 11.4722 42.62 10.6624 44.1318 10.6624V10.6623ZM73.8421 7.86001C69.3654 7.86001 67.0087 10.3739 67.0087 14.879C67.0087 21.0602 71.0712 22.0552 73.8496 22.0552C77.917 22.0552 80.623 19.8731 80.623 14.9351C80.623 9.7956 77.5804 7.86001 73.8421 7.86001ZM73.7858 11.1001C75.7542 11.1001 76.5343 12.5682 76.5343 14.2393V15.676C76.5343 17.7004 75.4428 18.8713 73.7783 18.8713C72.2216 18.8713 71.1275 17.776 71.1275 15.676V14.2393C71.1275 11.9996 72.4294 11.1001 73.7858 11.1001ZM88.8569 7.86001C84.3802 7.86001 82.0235 10.3739 82.0235 14.879C82.0235 21.0602 86.086 22.0552 88.8644 22.0552C92.9316 22.0552 95.6377 19.8731 95.6377 14.9351C95.6377 9.7956 92.595 7.86001 88.8569 7.86001ZM88.8006 11.1001C90.769 11.1001 91.5489 12.5682 91.5489 14.2393V15.676C91.5489 17.7004 90.4575 18.8713 88.7931 18.8713C87.2364 18.8713 86.1423 17.776 86.1423 15.676V14.2393C86.1423 11.9996 87.4442 11.1001 88.8006 11.1001ZM97.1996 21.7806V1.30709L101.345 0.947994V14.6706L105.457 8.13175H109.835L105.545 14.9041L110 21.7806H105.61L101.345 15.1035V21.7806H97.1996Z" fill="#474654"/>
</svg>
