<svg width="96" height="37" fill="none" xmlns="http://www.w3.org/2000/svg"><g opacity=".25" clip-path="url(#clip0)"><path d="M64.047 24.308v3.118H53.266v-20.9h10.781v3.105H56.68v5.259h7.368v2.91H56.68v6.508h7.368zm7.203 3.118h-3.967l5.01-5.601.597-.667-.597-.667-5.01-5.601h4.183l2.924 3.205.753.825.737-.84 2.803-3.19h3.933l-4.982 5.571-.597.669.6.666 5.061 5.63h-4.2l-2.893-3.227-.748-.835-.744.838-2.863 3.224z" stroke="#474654" stroke-width="2"/><path fill-rule="evenodd" clip-rule="evenodd" d="M48.472 5.526v9.372h-.064c-1.241-1.365-2.791-1.839-4.59-1.839-3.717 0-6.479 2.448-7.43 5.656-1.095-3.537-3.955-5.722-8.238-5.722-3.477 0-6.186 1.525-7.6 3.972V13.89h-7.135v-3.26h7.787V5.527H7.052v22.9h6.363V18.8h6.376c-.192.712-.326 1.457-.326 2.264 0 4.777 3.814 8.13 8.685 8.13 4.096 0 6.795-1.84 8.223-5.192h-5.451c-.737 1.009-1.298 1.306-2.773 1.306-1.708 0-3.182-1.425-3.182-3.117h11.13c.485 3.791 3.543 7.067 7.782 7.067 1.83 0 3.506-.86 4.53-2.314h.063v1.482h5.606v-22.9h-5.606zM25.145 18.868c.352-1.454 1.532-2.404 3.005-2.404 1.622 0 2.741.922 3.035 2.404h-6.04zm19.923 6.072c-2.067 0-3.351-1.843-3.351-3.764 0-2.056 1.116-4.032 3.35-4.032 2.318 0 3.24 1.976 3.24 4.032 0 1.949-.978 3.764-3.24 3.764z" fill="#474654"/></g><defs><clipPath id="clip0"><path fill="#fff" d="M0 0h96v37H0z"/></clipPath></defs></svg>