<svg width="103" height="35" fill="none" xmlns="http://www.w3.org/2000/svg"><path d="M43.832 17.949c0 4.858-3.783 8.438-8.426 8.438-4.642 0-8.425-3.58-8.425-8.438 0-4.893 3.783-8.438 8.425-8.438 4.643 0 8.426 3.545 8.426 8.438zm-3.688 0c0-3.036-2.193-5.113-4.738-5.113-2.544 0-4.737 2.077-4.737 5.113 0 3.005 2.193 5.113 4.737 5.113 2.545 0 4.738-2.112 4.738-5.113zm21.864 0c0 4.858-3.783 8.438-8.425 8.438-4.643 0-8.426-3.58-8.426-8.438 0-4.889 3.783-8.438 8.426-8.438 4.642 0 8.425 3.545 8.425 8.438zm-3.688 0c0-3.036-2.193-5.113-4.737-5.113-2.545 0-4.737 2.077-4.737 5.113 0 3.005 2.192 5.113 4.737 5.113 2.544 0 4.737-2.112 4.737-5.113zm21.107-7.929v15.15c0 6.231-3.658 8.776-7.982 8.776-4.071 0-6.521-2.735-7.445-4.972l3.211-1.343c.572 1.373 1.973 2.994 4.23 2.994 2.768 0 4.483-1.716 4.483-4.946v-1.213h-.128c-.826 1.023-2.416 1.917-4.423 1.917-4.2 0-8.047-3.675-8.047-8.404 0-4.763 3.847-8.468 8.047-8.468 2.003 0 3.593.894 4.423 1.887h.128v-1.374h3.503v-.003zm-3.241 7.96c0-2.972-1.973-5.144-4.484-5.144-2.544 0-4.676 2.172-4.676 5.143 0 2.941 2.132 5.083 4.676 5.083 2.51 0 4.484-2.142 4.484-5.083zm9.016-16.839V25.87h-3.597V1.141h3.597zM99.22 20.726l2.864 1.918c-.924 1.373-3.151 3.74-6.998 3.74-4.772 0-8.335-3.706-8.335-8.439 0-5.018 3.594-8.438 7.922-8.438 4.358 0 6.49 3.485 7.187 5.368l.383.959-11.228 4.672c.86 1.693 2.196 2.556 4.07 2.556 1.879 0 3.181-.928 4.136-2.336zm-8.811-3.035l7.505-3.131c-.412-1.054-1.654-1.789-3.116-1.789-1.875 0-4.484 1.663-4.389 4.92zm-77.046-1.937v-3.58h12.008c.118.624.178 1.362.178 2.16 0 2.687-.73 6.008-3.086 8.374-2.291 2.397-5.218 3.675-9.096 3.675-7.187 0-13.23-5.881-13.23-13.102C.136 6.06 6.18.179 13.366.179c3.976 0 6.809 1.567 8.937 3.61L19.79 6.315c-1.526-1.438-3.594-2.556-6.427-2.556-5.248 0-9.353 4.25-9.353 9.522 0 5.273 4.105 9.522 9.353 9.522 3.405 0 5.343-1.373 6.586-2.621 1.007-1.012 1.67-2.458 1.93-4.432l-8.516.004z" opacity=".25" fill="#474654"/></svg>