<svg width="46" height="46" fill="none" xmlns="http://www.w3.org/2000/svg"><path d="M32.232 9.229a13.71 13.71 0 00-9.234 3.56 13.718 13.718 0 00-9.23-3.557h-.088C6.12 9.282 0 15.43 0 23c0 7.6 6.168 13.767 13.767 13.767a13.71 13.71 0 009.23-3.557c-.51-.46-.973-.97-1.409-1.505h2.843a13.749 13.749 0 01-1.398 1.476h-.002c-.011.012-.023.02-.035.03a13.716 13.716 0 009.24 3.561C39.84 36.77 46.002 30.602 46 23v-.007c0-7.602-6.165-13.766-13.768-13.764zM21.746 14.21h2.617c.386.467.744.96 1.069 1.474h-4.669c.301-.492.632-.998.983-1.474zm-1.796 2.92h6.276c.223.477.42.97.593 1.475h-7.613c.076-.143.342-.716.744-1.475zM5.62 26.507l.835-5.264-1.883 5.264h-1.01l-.131-5.264-.892 5.264H1.125l1.172-6.982h2.139l.075 4.284 1.445-4.284h2.32L7.12 26.507h-1.5zm5.001-.012l.049-.557c-.023.003-.47.673-1.504.673-.541 0-1.415-.295-1.415-1.58 0-1.632 1.332-2.173 2.6-2.173.2 0 .63.036.63.036s.048-.1.048-.37c0-.444-.4-.504-.945-.504-.962 0-1.598.257-1.598.257l.213-1.263s.771-.323 1.775-.323c.52 0 2.014.055 2.014 1.768l-.576 4.037h-1.29zm5.455-1.778c0 1.949-1.887 1.865-2.216 1.865-1.23 0-1.61-.17-1.646-.18l.196-1.282c.002-.011.617.223 1.302.223.395 0 .908-.039.908-.51 0-.707-1.835-.538-1.835-2.217 0-1.48 1.1-1.914 2.185-1.914.838 0 1.353.115 1.353.115l-.186 1.294s-.795-.066-1-.066c-.522 0-.806.114-.806.48-.001.732 1.745.373 1.745 2.192zm2.267.511c.13 0 .277-.044.378-.044l-.183 1.245c-.148.04-.565.189-1.1.193-.682.006-1.168-.376-1.168-1.243 0-.58.833-5.371.866-5.402H18.6l-.149.856h.731l-.187 1.38h-.776l-.412 2.543c-.031.203.025.472.535.472zm3.224-4.556c1.609 0 2.09 1.178 2.09 2.144 0 .386-.194 1.336-.194 1.336h-2.978s-.276 1.173 1.298 1.173c.738 0 1.557-.36 1.557-.36l-.258 1.412s-.473.241-1.549.241c-1.165 0-2.532-.493-2.532-2.564.001-1.794 1.091-3.382 2.566-3.382zm3.882 9.615h-4.885a13.627 13.627 0 01-.813-1.474h6.5c-.239.51-.507 1.001-.802 1.474zm-.328-3.77h-1.505l.915-5.682h1.365l-.13.824s.485-.896 1.142-.896c.19 0 .283.02.283.02-.195.396-.367.76-.545 1.7-1.019-.362-1.097 1.607-1.525 4.034zm5.733-.088s-.789.201-1.283.201c-1.75 0-2.638-1.207-2.638-3.035 0-2.758 1.646-4.226 3.338-4.226.765 0 1.651.359 1.651.359l-.24 1.553s-.599-.42-1.344-.42c-.998 0-1.892.953-1.892 2.682 0 .852.417 1.646 1.458 1.646.494 0 1.212-.36 1.212-.36l-.262 1.6zm3.528.07l.05-.562c-.024.003-.47.673-1.504.673-.541 0-1.415-.295-1.415-1.58 0-1.632 1.331-2.173 2.598-2.173.2 0 .631.036.631.036s.05-.1.05-.369c0-.444-.4-.504-.947-.504-.962 0-1.596.257-1.596.257l.213-1.263s.77-.323 1.776-.323c.519 0 2.014.055 2.013 1.768l-.576 4.037c-.001.002-1.293.002-1.293.002zm3.046.018h-1.504l.915-5.682h1.366l-.132.824s.488-.896 1.144-.896c.19 0 .282.02.282.02-.194.396-.367.76-.545 1.7-1.02-.362-1.097 1.607-1.526 4.034zm4.492-.015l.064-.523s-.486.613-1.366.613c-1.219 0-1.816-1.176-1.816-2.379 0-1.86 1.119-3.481 2.462-3.481.864.002 1.416.764 1.416.764l.318-1.961 1.469-.003-1.12 6.97H41.92zm2.9-.197a.438.438 0 01-.386.226.447.447 0 01-.384-.226.44.44 0 010-.442.451.451 0 01.384-.224.44.44 0 01.218.059.437.437 0 01.167.608zm-.119 4.202c-.009-.007-.018-.017-.033-.023a.232.232 0 00-.076-.009h-.09v.143h.096c.045 0 .074-.004.091-.02a.062.062 0 00.024-.052.072.072 0 00-.012-.04z" fill="#fff"/><path d="M45.008 30.421a.408.408 0 00-.168-.165.45.45 0 00-.217-.059.444.444 0 00-.219.059.413.413 0 00-.167.165.448.448 0 00.388.666.446.446 0 00.383-.666zm-.273.468l-.042-.075a.396.396 0 00-.082-.113.105.105 0 00-.06-.018h-.045v.205h-.078v-.48h.165a.36.36 0 01.12.014.11.11 0 01.062.047.12.12 0 01.022.07.137.137 0 01-.037.092.154.154 0 01-.1.044c.017.006.03.015.04.026.02.019.043.05.072.094l.059.094h-.096zM10.47 23.947c-1.075 0-1.293.483-1.293.884 0 .207.12.553.574.553.883 0 1.066-1.157 1.038-1.403-.042-.008-.069-.033-.32-.034zm11.102-1.963c-.799 0-.952.909-.952 1.005h1.627c0-.073.153-1.005-.675-1.005zm19.946.158c-.645 0-1.155.749-1.154 1.886 0 .693.247 1.138.775 1.138.794 0 1.176-1.037 1.176-1.809 0-.852-.27-1.215-.797-1.215zm3.235 3.758a.358.358 0 00-.139-.137.363.363 0 00-.501.138.383.383 0 00-.05.185c0 .064.016.126.048.184a.387.387 0 00.322.19.373.373 0 00.183-.051.37.37 0 00.137-.508zm-.206.43l-.043-.074a.385.385 0 00-.08-.112.097.097 0 00-.063-.018h-.043v.203h-.08v-.479h.166a.34.34 0 01.122.016.137.137 0 01.06.045.11.11 0 01.022.07.13.13 0 01-.038.092.146.146 0 01-.098.043.131.131 0 01.04.025c.02.02.043.049.07.094l.06.095h-.095zm-10.315-2.383c-1.074 0-1.292.483-1.292.884 0 .207.118.553.574.553.883 0 1.065-1.157 1.037-1.403-.042-.008-.069-.033-.319-.034z" fill="#fff"/><path d="M44.514 25.948a.086.086 0 00-.032-.023.268.268 0 00-.078-.01v.001h-.086v.145h.094c.044 0 .074-.006.092-.02a.074.074 0 00.023-.054.064.064 0 00-.013-.039z" fill="#fff"/></svg>