<svg width="58" height="58" fill="none" xmlns="http://www.w3.org/2000/svg"><g clip-path="url(#clip0)" fill="#fff"><path d="M10.396 23.707a2.35 2.35 0 00-.863-.931 4.043 4.043 0 00-1.373-.504c-.534-.097-1.15-.14-1.865-.147l-3.299.002a.827.827 0 00-.76.603L.018 32.397c-.08.327.135.6.478.6h1.58a.809.809 0 00.758-.6l.542-2.347a.81.81 0 01.757-.6h.452c1.932-.002 3.428-.396 4.502-1.187 1.08-.792 1.614-1.838 1.614-3.133-.002-.567-.095-1.044-.304-1.423zm-3.407 3.158c-.478.35-1.142.525-1.998.525h-.386c-.344 0-.555-.272-.48-.603l.475-2.053c.067-.329.413-.602.753-.6l.517-.003c.604 0 1.066.105 1.374.308.305.2.458.518.456.94.01.643-.236 1.136-.711 1.486zm48.441-3.983l-.1.03-.132.018-.162-.025-.083-.08-.038-.127-.002-.19v-.703h.528v-.218h-.528v-.438h-.261v.438h-.177v.218h.177v.818l.122.405.359.129.15-.013.16-.031v-.231h-.013zm2.45-1.183l-.378-.155-.279.056-.283.191-.164-.183-.267-.063-.257.056-.242.157v-.17h-.257v1.535h.255v-1.147l.215-.133.215-.053.174.03.087.09.038.147.012.19v.878h.257v-.983L57 22.06l-.004-.075.218-.139.217-.054.169.031.092.089.032.148.017.188v.878H58v-.998l-.12-.43zm-39.866 3.39c-.596-.336-1.538-.504-2.824-.504-.636 0-1.27.05-1.911.148-.473.073-.519.086-.81.15-.6.13-.695.73-.695.73l-.193.795c-.11.508.183.488.305.446.262-.079.408-.16.944-.279.512-.116 1.052-.203 1.48-.198.631 0 1.115.067 1.437.203.317.138.476.375.476.718l-.027.223-.228.14a26.48 26.48 0 00-2.33.253c-.769.107-1.443.295-2.003.552-.602.264-1.049.62-1.36 1.072-.302.454-.452 1.006-.452 1.652 0 .609.218 1.112.643 1.5.427.383.99.569 1.665.569.426-.002.757-.036.991-.092l.765-.264.648-.358.596-.394.008.011-.06.254-.003.01v.002c-.064.309.122.562.422.592l.006.007h1.467l.02-.01c.316-.036.612-.29.68-.591l1.153-4.986.06-.406.027-.38c.005-.707-.3-1.23-.898-1.565zm-2.548 5.605l-.246.325-.621.32c-.293.12-.57.18-.826.18-.39 0-.694-.057-.9-.172l-.305-.593c0-.32.074-.575.231-.77l.67-.456a5.798 5.798 0 011.041-.235 34.729 34.729 0 011.168-.129l.11.192a67.7 67.7 0 01-.322 1.338zm31.241-5.598c-.6-.336-1.54-.506-2.822-.506-.637 0-1.272.05-1.91.152-.474.07-.522.084-.814.146-.6.13-.693.732-.693.732l-.193.794c-.108.508.177.484.31.445.264-.078.406-.155.937-.28.51-.114 1.054-.2 1.483-.197.63 0 1.113.068 1.434.204.32.138.476.377.476.716l-.024.223-.225.143c-.906.054-1.555.137-2.332.251-.767.107-1.443.293-2.005.551-.6.266-1.051.622-1.36 1.075-.305.454-.453 1.004-.453 1.645 0 .613.216 1.116.647 1.503.429.38.987.572 1.661.572.425-.005.755-.032.99-.093l.763-.26.654-.36.591-.398.01.013-.053.255-.006.005.002.005c-.071.308.116.563.42.591l.002.006h1.466l.025-.008c.311-.038.606-.291.671-.596l1.156-4.979.06-.408.034-.382c.001-.704-.3-1.226-.902-1.56zM44.165 30.7l-.256.328-.616.319a2.24 2.24 0 01-.823.178c-.401 0-.698-.057-.898-.172l-.309-.59c0-.323.075-.575.226-.774.153-.187.387-.342.677-.454a5.868 5.868 0 011.04-.234 31.91 31.91 0 011.162-.13l.111.192c-.016.11-.22.953-.314 1.337zm-5.081-6.958a2.444 2.444 0 00-.87-.934 3.88 3.88 0 00-1.372-.504 10.856 10.856 0 00-1.858-.145l-3.304.002a.82.82 0 00-.753.601l-2.222 9.672c-.08.328.14.6.476.6l1.582-.003a.82.82 0 00.76-.598l.535-2.349a.821.821 0 01.759-.6h.452c1.934 0 3.434-.397 4.513-1.185 1.066-.798 1.606-1.841 1.606-3.138-.006-.565-.103-1.043-.304-1.419zm-3.407 3.163c-.476.343-1.141.518-1.992.518h-.394a.473.473 0 01-.483-.602l.478-2.049a.803.803 0 01.755-.6l.512-.003c.608.004 1.063.104 1.374.306.31.203.456.52.46.941.003.642-.236 1.137-.71 1.49zM52.63 22.84c.073-.331-.134-.6-.474-.595h-1.415c-.29 0-.551.216-.679.48l-.078.122-.072.313-1.977 8.99-.065.277.003.007c-.066.296.116.519.397.561l.024.034h1.469c.288 0 .558-.219.681-.488l.076-.115 2.115-9.586h-.005zm-23.881 1.865c-.374.005-1.894 0-1.894 0-.34 0-.778.275-.994.603 0 0-2.262 3.882-2.482 4.272l-.263-.003-.704-4.242c-.078-.334-.427-.62-.86-.62l-1.416.003c-.34 0-.55.271-.473.603 0 0 1.075 6.115 1.29 7.555.1.794-.012.935-.012.935l-1.4 2.437c-.207.331-.095.602.244.602l1.637-.003c.34 0 .788-.268.99-.6l6.294-10.645s.605-.91.043-.897z"/></g><defs><clipPath id="clip0"><path fill="#fff" d="M0 0h58v58H0z"/></clipPath></defs></svg>