<svg width="72" height="72" fill="none" xmlns="http://www.w3.org/2000/svg"><path d="M63.395 27.38H45.21a1.055 1.055 0 100 2.11h18.186a1.055 1.055 0 000-2.11zm0 6.36H45.21a1.055 1.055 0 100 2.108h18.186a1.055 1.055 0 000-2.109zm1.055 7.412c0-.583-.472-1.055-1.054-1.055H45.21a1.055 1.055 0 100 2.11h18.186c.582 0 1.054-.473 1.054-1.055zm-19.24 5.303a1.055 1.055 0 100 2.11h9.093a1.055 1.055 0 100-2.11H45.21z" fill="#474654"/><path d="M69.765 12.402L58.892 1.529A5.218 5.218 0 0055.202 0h-35.78a5.224 5.224 0 00-5.219 5.218v10.797a1.055 1.055 0 002.11 0V5.218a3.112 3.112 0 013.108-3.109h35.78c.228 0 .452.025.67.073v9.604a3.64 3.64 0 003.636 3.636h9.603c.05.22.074.445.074.67v50.69a3.112 3.112 0 01-3.109 3.109H51.907a4.754 4.754 0 00-.59-5.994l-9.588-9.588a2.463 2.463 0 00-2.587-.568l-2.064-2.065c5.824-8.087 4.965-19.277-2.158-26.4-7.905-7.905-20.874-8.063-28.937 0-7.977 7.978-7.977 20.959 0 28.937 7.117 7.116 18.318 7.962 26.4 2.156l2.065 2.066a2.462 2.462 0 00.568 2.586l8.87 8.87H19.42a3.112 3.112 0 01-3.108-3.109v-3.38a1.055 1.055 0 10-2.11 0v3.38A5.224 5.224 0 0019.421 72h46.654a5.224 5.224 0 005.218-5.218v-50.69a5.227 5.227 0 00-1.528-3.69zm-62.29 40.32c-7.155-7.156-7.155-18.8 0-25.955 7.247-7.247 18.878-7.076 25.954 0 6.59 6.59 7.203 17.058 1.428 24.352a18.621 18.621 0 01-3.03 3.03c-7.248 5.738-17.742 5.182-24.352-1.428zm26.57 2.317a20.749 20.749 0 001.706-1.707l1.737 1.737-1.711 1.711-1.737-1.737.004-.004zm12.051 14.08l-9.588-9.59a.352.352 0 010-.497l.014-.014v-.001L39.74 55.8a.353.353 0 01.498 0l9.588 9.588a2.64 2.64 0 010 3.73 2.636 2.636 0 01-3.73 0zm11.885-57.333V3.6l9.712 9.711h-8.185a1.528 1.528 0 01-1.527-1.526z" fill="#474654"/><path d="M43.996 6.843H23.073a2.27 2.27 0 00-2.269 2.269v4.041a2.27 2.27 0 002.269 2.269h20.923a2.27 2.27 0 002.268-2.269V9.112a2.271 2.271 0 00-2.268-2.269zm.159 6.31a.16.16 0 01-.16.16H23.074a.16.16 0 01-.16-.16V9.112a.16.16 0 01.16-.16h20.923a.16.16 0 01.159.16v4.041zM31.947 51.239c6.338-6.338 6.338-16.651 0-22.99-6.338-6.337-16.651-6.337-22.99 0a16.131 16.131 0 00-4.573 9.025 1.054 1.054 0 102.085.319 14.037 14.037 0 013.98-7.852c5.516-5.516 14.49-5.516 20.006 0 5.293 5.292 5.506 13.769.643 19.319a4.562 4.562 0 00-2.282-2.164c-1.25-.55-3.403-.9-4.728-1.074l-.006-1.332a6.188 6.188 0 002.45-4.01 1.87 1.87 0 001.151-1.738c-.009-1.398-.008-3.715-.008-5.064a2.59 2.59 0 00-2.147-2.548 2.59 2.59 0 00-2.537-2.084h-5.09a4.765 4.765 0 00-4.76 4.76v4.955c0 .77.47 1.431 1.137 1.714a6.203 6.203 0 002.338 3.925l.006 1.453c-1.323.186-3.474.554-4.719 1.114a4.448 4.448 0 00-2.142 2.04 14.034 14.034 0 01-3.245-6.825 1.055 1.055 0 00-2.078.362 16.155 16.155 0 004.52 8.695c6.366 6.366 16.679 6.31 22.989 0zM17.9 31.155h5.091c.263 0 .476.213.476.476 0 .866.705 1.571 1.572 1.571h.051c.263 0 .476.214.476.476v.566l-1.274-.12a5.88 5.88 0 00-3.596.835c-.587.36-1.261.55-1.949.55H15.25v-1.703a2.653 2.653 0 012.65-2.651zm-2.65 7.381v-.919h3.497a5.839 5.839 0 003.05-.86 3.754 3.754 0 012.297-.533l1.473.138c0 .65.002 1.507.006 2.17a1.31 1.31 0 00-1.08 1.211 4.091 4.091 0 01-4.085 3.846 4.104 4.104 0 01-4.091-3.843 1.32 1.32 0 00-1.067-1.21zm5.158 7.162c.542 0 1.067-.071 1.57-.203l.002.589c.001.272.064.533.174.767a3.221 3.221 0 01-1.796.55h-.01c-.645 0-1.262-.19-1.784-.536.109-.235.17-.495.169-.768l-.003-.63c.535.15 1.098.23 1.678.23zm-8.995 4.928a2.389 2.389 0 011.356-1.735c.718-.323 2.1-.648 3.84-.905a5.317 5.317 0 003.739 1.525h.016a5.316 5.316 0 003.755-1.556c1.742.242 3.127.555 3.847.872.807.355 1.329 1.032 1.457 1.856-5.22 4.287-12.812 4.267-18.01-.057z" fill="#474654"/></svg>