<svg width="68" height="68" fill="none" xmlns="http://www.w3.org/2000/svg"><path d="M66.935 12.35c.588 0 1.065-.476 1.065-1.064V5.607A5.614 5.614 0 0062.392 0H5.608A5.614 5.614 0 000 5.607v56.785A5.614 5.614 0 005.607 68h56.785A5.614 5.614 0 0068 62.392V15.83a1.065 1.065 0 10-2.13 0v46.563a3.482 3.482 0 01-3.478 3.479H5.607a3.482 3.482 0 01-3.478-3.478V5.606A3.482 3.482 0 015.607 2.13h56.785a3.482 3.482 0 013.479 3.478v5.679c0 .588.476 1.065 1.064 1.065z" fill="#474654"/><path d="M20.372 31.729c.587 0 1.064-.477 1.064-1.065V26.05c0-.588-.476-1.065-1.064-1.065h-9.086c-.588 0-1.065.477-1.065 1.065v30.664c0 .588.477 1.065 1.065 1.065h9.086c.587 0 1.064-.477 1.064-1.065V35.349a1.065 1.065 0 00-2.13 0v20.3h-6.955V27.115h6.956v3.549c0 .588.477 1.065 1.065 1.065zm33.822-3.827c-2.167-1.854-4.974-2.917-7.701-2.917-4.501 0-7.353 1.497-9.157 3.34V26.05c0-.588-.476-1.065-1.065-1.065h-9.085c-.588 0-1.065.477-1.065 1.065v30.664c0 .588.477 1.065 1.065 1.065h9.085c.588 0 1.065-.477 1.065-1.065V41.95c0-2.85 2.395-4.614 4.614-4.614 2.673 0 4.614 1.94 4.614 4.614v14.764c0 .588.476 1.065 1.065 1.065h9.085c.588 0 1.065-.477 1.065-1.065V35.136c0-2.688-1.273-5.257-3.585-7.234zm1.455 27.747h-6.956v-13.7c0-3.844-2.899-6.742-6.743-6.742-3.243 0-6.743 2.578-6.743 6.743v13.7H28.25V27.114h6.956v4.614c0 .485.341.92.813 1.034a1.075 1.075 0 001.215-.582c1.577-3.362 4.692-5.066 9.258-5.066 4.322 0 9.157 3.43 9.157 8.02V55.65zm-39.82-45.428a5.614 5.614 0 00-5.608 5.608 5.614 5.614 0 005.608 5.607 5.614 5.614 0 005.607-5.607 5.614 5.614 0 00-5.607-5.608zm0 9.086a3.482 3.482 0 01-3.478-3.478 3.482 3.482 0 013.478-3.478 3.482 3.482 0 013.478 3.478 3.482 3.482 0 01-3.478 3.478z" fill="#474654"/></svg>