<svg width="72" height="72" fill="none" xmlns="http://www.w3.org/2000/svg"><path d="M35.997 25.524H9a1.055 1.055 0 000 2.11h26.998a1.055 1.055 0 100-2.11zm0 7.411H9a1.055 1.055 0 100 2.109h26.998a1.055 1.055 0 000-2.11zm0 7.41H9a1.055 1.055 0 000 2.109h26.998a1.055 1.055 0 100-2.11zm1.055 8.465c0-.583-.472-1.055-1.055-1.055H9a1.055 1.055 0 100 2.11h26.998c.583 0 1.055-.473 1.055-1.055zM9 58.615a1.055 1.055 0 000 2.11h13.533a1.055 1.055 0 100-2.11H8.999zm39.15-45.557V9.636a2.367 2.367 0 00-2.364-2.365H24.134a2.367 2.367 0 00-2.364 2.365v3.422a2.367 2.367 0 002.364 2.364h1.829a1.055 1.055 0 100-2.11h-1.829a.255.255 0 01-.255-.254V9.636c0-.14.115-.255.255-.255h21.652c.14 0 .255.114.255.255v3.422c0 .14-.114.255-.255.255H30.893a1.055 1.055 0 000 2.108h14.893a2.366 2.366 0 002.364-2.363z" fill="#fff"/><path d="M56.035 64.307c-.582 0-1.054.472-1.054 1.055v1.42a3.112 3.112 0 01-3.11 3.109H5.219a3.112 3.112 0 01-3.109-3.109v-50.69c0-.229.027-.453.074-.67h9.603a3.64 3.64 0 003.636-3.636V2.184c.217-.048.441-.075.67-.075h35.78a3.112 3.112 0 013.109 3.109v14.04a1.055 1.055 0 102.109 0V5.218A5.224 5.224 0 0051.872 0h-35.78a5.184 5.184 0 00-3.69 1.528L1.528 12.402A5.184 5.184 0 000 16.092v50.69A5.224 5.224 0 005.218 72h46.654a5.224 5.224 0 005.218-5.218v-1.42c0-.582-.472-1.055-1.055-1.055zM13.312 3.601v8.185c0 .842-.684 1.526-1.526 1.526H3.6l9.711-9.711z" fill="#fff"/><path d="M70.48 37.687a4.19 4.19 0 00.525-3.677 4.189 4.189 0 00-2.587-2.666 2.095 2.095 0 01-1.394-1.92 4.189 4.189 0 00-1.737-3.284 4.189 4.189 0 00-3.66-.637 2.095 2.095 0 01-2.257-.733 4.188 4.188 0 00-3.335-1.636A4.19 4.19 0 0052.7 24.77c-.534.69-1.42.978-2.257.733a4.188 4.188 0 00-3.66.637 4.19 4.19 0 00-1.736 3.284 2.095 2.095 0 01-1.395 1.92 4.188 4.188 0 00-2.586 2.666 4.189 4.189 0 00.525 3.677 2.096 2.096 0 010 2.373 4.19 4.19 0 00-.525 3.678 4.188 4.188 0 002.586 2.666 2.095 2.095 0 011.395 1.92 4.217 4.217 0 003.642 4.05v9.602a2.24 2.24 0 003.411 1.906l3.868-2.381c.063-.04.1-.022.135 0l3.868 2.38a2.24 2.24 0 003.412-1.906v-9.601a4.216 4.216 0 003.641-4.05 2.095 2.095 0 011.395-1.92 4.188 4.188 0 002.587-2.666 4.189 4.189 0 00-.526-3.678 2.094 2.094 0 010-2.373zm-9.404 24.399l-3.867-2.381a2.238 2.238 0 00-2.347 0l-3.868 2.38a.128.128 0 01-.197-.11v-9.801a2.092 2.092 0 011.903.804 4.19 4.19 0 003.335 1.636c1.315 0 2.53-.596 3.335-1.636a2.093 2.093 0 011.903-.804v9.801c0 .103-.11.164-.197.11zm7.66-20.838c.37.544.466 1.213.263 1.838a2.094 2.094 0 01-1.293 1.333 4.192 4.192 0 00-2.79 3.841 2.08 2.08 0 01-.76 1.557 2.1 2.1 0 01-1.938.403 4.194 4.194 0 00-4.516 1.467c-.402.52-1.01.818-1.667.818a2.094 2.094 0 01-1.667-.818 4.19 4.19 0 00-4.516-1.467 2.099 2.099 0 01-1.938-.403c-.47-.39-.74-.944-.759-1.557a4.193 4.193 0 00-2.79-3.841 2.094 2.094 0 01-1.294-1.333 2.093 2.093 0 01.263-1.838 4.193 4.193 0 000-4.748 2.094 2.094 0 01-.263-1.838 2.093 2.093 0 011.293-1.333 4.193 4.193 0 002.791-3.841c.02-.657.336-1.256.868-1.642a2.094 2.094 0 011.83-.318 4.193 4.193 0 004.515-1.467 2.093 2.093 0 011.667-.818c.657 0 1.265.298 1.667.818a4.193 4.193 0 004.516 1.467 2.093 2.093 0 011.83.318c.531.386.847.985.867 1.641a4.193 4.193 0 002.791 3.842c.619.222 1.09.708 1.293 1.332a2.093 2.093 0 01-.262 1.838 4.193 4.193 0 000 4.75z" fill="#fff"/><path d="M56.035 30.035c-4.873 0-8.838 3.965-8.838 8.839 0 4.874 3.965 8.839 8.838 8.839 4.874 0 8.84-3.965 8.84-8.839 0-4.874-3.966-8.839-8.84-8.839zm0 15.569a6.737 6.737 0 01-6.73-6.73c0-3.71 3.02-6.73 6.73-6.73 3.711 0 6.73 3.02 6.73 6.73a6.738 6.738 0 01-6.73 6.73z" fill="#fff"/></svg>