<svg width="24" height="20" fill="none" xmlns="http://www.w3.org/2000/svg"><path d="M12.131 3.73c4.044.04 6.577-.212 6.92 4.27h4.93c0-6.944-6.055-7.88-11.978-7.88C6.079.12.023 1.056.023 8h4.894c.378-4.568 3.204-4.31 7.214-4.27zM2.47 10.232c1.201 0 2.2.072 2.423-1.11.03-.16.047-.342.047-.553H0c0 1.758 1.106 1.663 2.47 1.663zM19.083 8.57h-.046c0 .211.018.394.052.553.235 1.089 1.233 1.021 2.43 1.021 1.37 0 2.481.09 2.481-1.575h-4.917z" fill="#E93F4A"/><path d="M16.674 7.373v-.699c0-.312-.36-.332-.804-.332h-.726c-.444 0-.804.02-.804.332v1.069H9.205V6.674c0-.312-.36-.332-.804-.332h-.726c-.444 0-.804.02-.804.332v1.309c-1.17 1.215-4.998 6.39-5.137 7.016l.002 4.18a.7.7 0 00.7.7H21.11a.7.7 0 00.7-.7v-4.201c-.138-.608-3.965-5.78-5.135-6.996v-.61zM8.952 15.56a.68.68 0 110-1.36.68.68 0 010 1.36zm0-2.334a.68.68 0 110-1.36.68.68 0 010 1.36zm0-2.333a.68.68 0 110-1.361.68.68 0 010 1.36zm2.801 4.667a.68.68 0 110-1.36.68.68 0 010 1.36zm0-2.334a.68.68 0 110-1.36.68.68 0 010 1.36zm0-2.333a.68.68 0 110-1.361.68.68 0 010 1.36zm2.8 4.667a.68.68 0 110-1.36.68.68 0 010 1.36zm0-2.334a.68.68 0 110-1.36.68.68 0 010 1.36zm0-2.333a.68.68 0 110-1.36.68.68 0 010 1.36z" fill="#E93F4A"/></svg>