<svg width="18" height="18" fill="none" xmlns="http://www.w3.org/2000/svg"><g clip-path="url(#clip0)"><path d="M6.355 1.914a.527.527 0 00-.717-.206A8.39 8.39 0 002.686 4.46a.527.527 0 00.884.575 7.332 7.332 0 012.58-2.404.527.527 0 00.205-.717z" fill="#F64F63"/><path d="M6.355 1.914a.527.527 0 00-.717-.206A8.39 8.39 0 002.686 4.46a.527.527 0 00.884.575 7.332 7.332 0 012.58-2.404.527.527 0 00.205-.717z" fill="url(#paint0_linear)"/><path d="M9.671.668a.527.527 0 000 1.055c4.011 0 7.274 3.264 7.274 7.277s-3.263 7.277-7.274 7.277c-3.532 0-6.484-2.532-7.138-5.877l.694.693a.527.527 0 00.745-.747l-1.723-1.72a.532.532 0 00-.855.147L.088 10.734a.527.527 0 10.878.585l.518-.778a8.327 8.327 0 008.187 6.791A8.326 8.326 0 0018 9 8.326 8.326 0 009.671.668z" fill="#F64F63"/><path d="M9.671.668a.527.527 0 000 1.055c4.011 0 7.274 3.264 7.274 7.277s-3.263 7.277-7.274 7.277c-3.532 0-6.484-2.532-7.138-5.877l.694.693a.527.527 0 00.745-.747l-1.723-1.72a.532.532 0 00-.855.147L.088 10.734a.527.527 0 10.878.585l.518-.778a8.327 8.327 0 008.187 6.791A8.326 8.326 0 0018 9 8.326 8.326 0 009.671.668z" fill="url(#paint1_linear)"/><path d="M9.28 10.04H7.754v-.052c0-.531 1.802-.946 1.802-2.213 0-.782-.683-1.208-1.359-1.208-.665 0-1.318.408-1.318 1.12 0 .369.175.474.408.474.298 0 .479-.164.479-.333 0-.321.204-.438.437-.438.326 0 .443.228.443.415 0 .741-1.837 1.267-1.837 2.183v.567c0 .169.233.28.397.28H9.28c.145 0 .274-.193.274-.403 0-.21-.129-.391-.274-.391z" fill="#F64F63"/><path d="M9.28 10.04H7.754v-.052c0-.531 1.802-.946 1.802-2.213 0-.782-.683-1.208-1.359-1.208-.665 0-1.318.408-1.318 1.12 0 .369.175.474.408.474.298 0 .479-.164.479-.333 0-.321.204-.438.437-.438.326 0 .443.228.443.415 0 .741-1.837 1.267-1.837 2.183v.567c0 .169.233.28.397.28H9.28c.145 0 .274-.193.274-.403 0-.21-.129-.391-.274-.391z" fill="url(#paint2_linear)"/><path d="M12.388 9.095h-.25v-.409c0-.193-.228-.274-.455-.274s-.455.081-.455.274v.409h-.501l1.032-2.073a.285.285 0 00.029-.11c0-.211-.297-.345-.455-.345a.41.41 0 00-.379.233L9.607 9.445a.375.375 0 00-.047.175c0 .205.134.316.304.316h1.364v.619c0 .186.228.28.455.28s.455-.094.455-.28v-.62h.25c.14 0 .28-.21.28-.42s-.093-.42-.28-.42z" fill="#F64F63"/><path d="M12.388 9.095h-.25v-.409c0-.193-.228-.274-.455-.274s-.455.081-.455.274v.409h-.501l1.032-2.073a.285.285 0 00.029-.11c0-.211-.297-.345-.455-.345a.41.41 0 00-.379.233L9.607 9.445a.375.375 0 00-.047.175c0 .205.134.316.304.316h1.364v.619c0 .186.228.28.455.28s.455-.094.455-.28v-.62h.25c.14 0 .28-.21.28-.42s-.093-.42-.28-.42z" fill="url(#paint3_linear)"/></g><defs><linearGradient id="paint0_linear" x1="4.511" y1="1.642" x2="4.511" y2="5.275" gradientUnits="userSpaceOnUse"><stop stop-color="#2768CC"/><stop offset="1" stop-color="#fff" stop-opacity="0"/></linearGradient><linearGradient id="paint1_linear" x1="9" y1=".668" x2="9" y2="17.332" gradientUnits="userSpaceOnUse"><stop stop-color="#2768CC"/><stop offset="1" stop-color="#fff" stop-opacity="0"/></linearGradient><linearGradient id="paint2_linear" x1="8.181" y1="6.567" x2="8.181" y2="10.835" gradientUnits="userSpaceOnUse"><stop stop-color="#2768CC"/><stop offset="1" stop-color="#fff" stop-opacity="0"/></linearGradient><linearGradient id="paint3_linear" x1="11.114" y1="6.567" x2="11.114" y2="10.835" gradientUnits="userSpaceOnUse"><stop stop-color="#2768CC"/><stop offset="1" stop-color="#fff" stop-opacity="0"/></linearGradient><clipPath id="clip0"><path fill="#fff" d="M0 0h18v18H0z"/></clipPath></defs></svg>