<svg width="18" height="18" fill="none" xmlns="http://www.w3.org/2000/svg"><g clip-path="url(#clip0)"><path d="M16.543 4.635a68 68 0 01-.018-1.39.63.63 0 00-.63-.63c-2.695 0-4.746-.774-6.456-2.437a.63.63 0 00-.879 0C6.85 1.841 4.8 2.615 2.105 2.615a.63.63 0 00-.63.63c0 .445-.009.904-.018 1.39-.086 4.523-.205 10.716 7.336 13.33a.63.63 0 00.413 0c7.541-2.614 7.423-8.808 7.337-13.33zM9 16.7C2.532 14.352 2.63 9.205 2.717 4.66l.014-.796C5.254 3.756 7.272 2.99 9 1.486c1.727 1.505 3.746 2.27 6.27 2.377.003.259.008.523.013.796.087 4.546.185 9.693-6.283 12.042z" fill="#F64F63"/><path d="M16.543 4.635a68 68 0 01-.018-1.39.63.63 0 00-.63-.63c-2.695 0-4.746-.774-6.456-2.437a.63.63 0 00-.879 0C6.85 1.841 4.8 2.615 2.105 2.615a.63.63 0 00-.63.63c0 .445-.009.904-.018 1.39-.086 4.523-.205 10.716 7.336 13.33a.63.63 0 00.413 0c7.541-2.614 7.423-8.808 7.337-13.33zM9 16.7C2.532 14.352 2.63 9.205 2.717 4.66l.014-.796C5.254 3.756 7.272 2.99 9 1.486c1.727 1.505 3.746 2.27 6.27 2.377.003.259.008.523.013.796.087 4.546.185 9.693-6.283 12.042z" fill="url(#paint0_linear)"/><path d="M11.17 6.811L8.127 9.852 6.831 8.555a.63.63 0 00-.891.89l1.743 1.744a.628.628 0 00.89 0l3.487-3.487a.63.63 0 10-.89-.89z" fill="#F64F63"/><path d="M11.17 6.811L8.127 9.852 6.831 8.555a.63.63 0 00-.891.89l1.743 1.744a.628.628 0 00.89 0l3.487-3.487a.63.63 0 10-.89-.89z" fill="url(#paint1_linear)"/></g><defs><linearGradient id="paint0_linear" x1="9" y1="0" x2="9" y2="18" gradientUnits="userSpaceOnUse"><stop stop-color="#2768CC"/><stop offset="1" stop-color="#fff" stop-opacity="0"/></linearGradient><linearGradient id="paint1_linear" x1="9" y1="6.627" x2="9" y2="11.373" gradientUnits="userSpaceOnUse"><stop stop-color="#2768CC"/><stop offset="1" stop-color="#fff" stop-opacity="0"/></linearGradient><clipPath id="clip0"><path fill="#fff" d="M0 0h18v18H0z"/></clipPath></defs></svg>