<svg width="36" height="37" fill="none" xmlns="http://www.w3.org/2000/svg"><path d="M27.806.352a.82.82 0 00-.568.237l-27 26.936a.816.816 0 00-.238.578v7.345a.814.814 0 00.818.817H8.18a.82.82 0 00.58-.239l27-26.935a.815.815 0 000-1.154L28.395.59a.818.818 0 00-.59-.237zm.012 1.97l6.205 6.19-3.752 3.743-6.205-6.19 3.752-3.743zm-4.91 4.898l6.206 6.19L7.842 34.632H1.636v-4.556l3.102 3.095 1.16-1.156-3.923-3.911L22.908 7.22z" fill="#F64F63"/><path d="M27.806.352a.82.82 0 00-.568.237l-27 26.936a.816.816 0 00-.238.578v7.345a.814.814 0 00.818.817H8.18a.82.82 0 00.58-.239l27-26.935a.815.815 0 000-1.154L28.395.59a.818.818 0 00-.59-.237zm.012 1.97l6.205 6.19-3.752 3.743-6.205-6.19 3.752-3.743zm-4.91 4.898l6.206 6.19L7.842 34.632H1.636v-4.556l3.102 3.095 1.16-1.156-3.923-3.911L22.908 7.22z" fill="url(#paint0_linear)"/><path d="M13.092 34.63v1.634h19.635V34.63H13.092z" fill="#F64F63"/><path d="M13.092 34.63v1.634h19.635V34.63H13.092z" fill="url(#paint1_linear)"/><path d="M34.363 34.63v1.634H36V34.63h-1.637z" fill="#F64F63"/><path d="M34.363 34.63v1.634H36V34.63h-1.637z" fill="url(#paint2_linear)"/><defs><linearGradient id="paint0_linear" x1="18" y1=".352" x2="18" y2="36.265" gradientUnits="userSpaceOnUse"><stop stop-color="#2768CC"/><stop offset="1" stop-color="#fff" stop-opacity="0"/></linearGradient><linearGradient id="paint1_linear" x1="22.909" y1="34.631" x2="22.909" y2="36.264" gradientUnits="userSpaceOnUse"><stop stop-color="#2768CC"/><stop offset="1" stop-color="#fff" stop-opacity="0"/></linearGradient><linearGradient id="paint2_linear" x1="35.182" y1="34.631" x2="35.182" y2="36.264" gradientUnits="userSpaceOnUse"><stop stop-color="#2768CC"/><stop offset="1" stop-color="#fff" stop-opacity="0"/></linearGradient></defs></svg>