<svg width="44" height="45" fill="none" xmlns="http://www.w3.org/2000/svg"><path d="M22.279.933A22.004 22.004 0 0012.04 3.325l.638 1.273c7.975-4.03 17.545-2.51 23.855 3.782l1.205 1.202V4.35H36.32v1.91A21.843 21.843 0 0022.28.932zM22 5.375c-9.676 0-17.545 7.848-17.545 17.499 0 9.65 7.869 17.498 17.545 17.498 9.677 0 17.546-7.848 17.546-17.498 0-9.65-7.87-17.498-17.546-17.498zm0 1.415c8.897 0 16.128 7.21 16.128 16.084 0 8.873-7.231 16.084-16.128 16.084S5.874 31.747 5.874 22.874 13.104 6.79 22 6.79zm-20.346.388v1.414h3.687C-.471 15.31-1.677 24.818 2.4 32.807l1.276-.636A20.43 20.43 0 017.47 8.381l1.205-1.203h-7.02zm19.637 1.697v1.131h1.418v-1.13h-1.418zm0 3.217v10.075H19.2v1.414h2.091v2.086h1.418V23.58h6.593v-1.414H22.71V12.092h-1.418zm20.346.919l-1.276.637a20.433 20.433 0 01-3.828 23.72l-1.206 1.201h5.247v-1.413H38.66c5.778-6.682 7.019-16.191 2.978-24.145zM7.965 22.167v1.414h1.134v-1.414H7.965zm26.938 0v1.414h1.134v-1.414h-1.134zm-13.61 13.575v1.13h1.417v-1.13h-1.418zm-15.03.423v5.268h1.418v-1.91c4.076 3.465 9.145 5.303 14.32 5.303 3.403 0 6.841-.813 10.031-2.44l-.638-1.272c-7.975 4.066-17.58 2.581-23.925-3.747l-1.206-1.202z" fill="#F64F63"/><path d="M22.279.933A22.004 22.004 0 0012.04 3.325l.638 1.273c7.975-4.03 17.545-2.51 23.855 3.782l1.205 1.202V4.35H36.32v1.91A21.843 21.843 0 0022.28.932zM22 5.375c-9.676 0-17.545 7.848-17.545 17.499 0 9.65 7.869 17.498 17.545 17.498 9.677 0 17.546-7.848 17.546-17.498 0-9.65-7.87-17.498-17.546-17.498zm0 1.415c8.897 0 16.128 7.21 16.128 16.084 0 8.873-7.231 16.084-16.128 16.084S5.874 31.747 5.874 22.874 13.104 6.79 22 6.79zm-20.346.388v1.414h3.687C-.471 15.31-1.677 24.818 2.4 32.807l1.276-.636A20.43 20.43 0 017.47 8.381l1.205-1.203h-7.02zm19.637 1.697v1.131h1.418v-1.13h-1.418zm0 3.217v10.075H19.2v1.414h2.091v2.086h1.418V23.58h6.593v-1.414H22.71V12.092h-1.418zm20.346.919l-1.276.637a20.433 20.433 0 01-3.828 23.72l-1.206 1.201h5.247v-1.413H38.66c5.778-6.682 7.019-16.191 2.978-24.145zM7.965 22.167v1.414h1.134v-1.414H7.965zm26.938 0v1.414h1.134v-1.414h-1.134zm-13.61 13.575v1.13h1.417v-1.13h-1.418zm-15.03.423v5.268h1.418v-1.91c4.076 3.465 9.145 5.303 14.32 5.303 3.403 0 6.841-.813 10.031-2.44l-.638-1.272c-7.975 4.066-17.58 2.581-23.925-3.747l-1.206-1.202z" fill="url(#paint0_linear)"/><defs><linearGradient id="paint0_linear" x1="22" y1=".932" x2="22" y2="44.826" gradientUnits="userSpaceOnUse"><stop stop-color="#2768CC"/><stop offset="1" stop-color="#fff" stop-opacity="0"/></linearGradient></defs></svg>