<svg width="30" height="40" fill="none" xmlns="http://www.w3.org/2000/svg"><path d="M12.527.41c-.833-.026-1.668.243-2.416.851C8.736 2.38 7.518 4.538 6.058 8.243c-.468.073-.924.15-1.346.235-1.33.267-2.42.582-3.226.964-.404.192-.739.397-1.006.659-.268.262-.48.617-.48 1.026 0 .409.212.765.48 1.027.267.262.602.467 1.006.658.76.361 1.78.66 3.01.917a4.154 4.154 0 00-.178 1.192v.002c.002 1.622.825 3.107 2.15 3.557a12.723 12.723 0 001.331 3.13l-1.429-.378a.626.626 0 00-.785.603v5.59C2.261 29.97.218 33.792.215 37.94c0 .187.007.362.014.527a.623.623 0 00.624.598h28.293a.626.626 0 00.624-.598c.007-.167.015-.342.015-.526v-.001c-.003-4.09-1.986-7.866-5.227-10.413v-5.692a.622.622 0 00-.785-.602l-1.6.421a12.645 12.645 0 001.346-3.122c1.397-.377 2.3-1.916 2.3-3.61v-.002c0-.427-.067-.836-.185-1.22 1.169-.25 2.145-.54 2.878-.888.404-.191.74-.396 1.008-.658.267-.262.48-.618.48-1.027 0-.409-.213-.764-.48-1.026-.268-.262-.604-.467-1.008-.659-.807-.382-1.894-.697-3.225-.964-.115-.023-.242-.043-.36-.066-1.49-3.809-2.724-6.016-4.12-7.15-.855-.696-1.823-.947-2.773-.822-.847.11-1.686.532-2.574 1.022C14.57.972 13.73.55 12.884.44a3.6 3.6 0 00-.357-.03zm-.281 1.243c.152-.007.308 0 .473.022.662.087 1.47.442 2.43.992a.626.626 0 00.62 0c.96-.55 1.768-.905 2.43-.992.66-.086 1.183.036 1.82.553.777.632 1.65 1.935 2.66 4.111-2.207.286-4.841.456-7.68.456-2.48 0-4.787-.133-6.806-.356C9.223 4.2 10.11 2.87 10.9 2.229c.477-.389.89-.554 1.346-.576zm10.956 5.875c.054.126.105.235.16.366-2.336.342-5.225.55-8.363.55-2.761 0-5.323-.162-7.492-.433.055-.132.107-.245.16-.372 2.16.256 4.654.404 7.332.404 3.044 0 5.856-.19 8.203-.515zm.635 1.556c.308.784.624 1.613.956 2.547a.624.624 0 00.8.38.625.625 0 00.38-.799c-.18-.503-.35-.96-.52-1.421 1.073.235 1.95.505 2.524.777.324.153.55.31.666.423.116.113.106.146.106.136 0-.01.01.022-.106.136-.115.113-.342.27-.666.424-.648.307-1.666.613-2.937.868-2.54.51-6.106.833-10.041.833-3.936 0-7.5-.324-10.042-.833-1.27-.255-2.287-.561-2.934-.868-.324-.154-.554-.31-.67-.424-.115-.114-.103-.147-.103-.136 0 .01-.012-.023.104-.136.115-.113.345-.27.669-.423.647-.307 1.664-.613 2.934-.868.18-.036.387-.067.58-.101a97.082 97.082 0 00-.591 1.613.623.623 0 00.62.843.625.625 0 00.558-.424c.315-.884.614-1.675.907-2.424 2.299.305 5.024.484 7.968.484 3.322 0 6.373-.227 8.838-.607zm.55 4.857a2.7 2.7 0 01.183.982c0 .787-.29 1.357-.669 1.777a14.81 14.81 0 00.15-2.088v-.005c-.002-.204-.01-.406-.02-.609l.355-.058zm-18.636.025c.069.011.144.02.214.032-.01.204-.015.408-.016.612v.002c0 .657.045 1.3.128 1.927a2.75 2.75 0 01-.508-1.616v-.002c0-.353.074-.667.182-.955zm1.46.21l.567.07c-.15-.018-.308-.033-.456-.051a3.23 3.23 0 00-.12.559c-.001-.047-.005-.093-.005-.14v-.005c0-.145.006-.29.015-.433zm15.574 0c.009.146.015.292.015.438v.002c0 .042-.003.083-.003.124a3.34 3.34 0 00-.12-.546c-.153.02-.316.035-.472.054.196-.023.39-.047.58-.072zm-1.082.127c-.102.01-.197.023-.299.033.112.26.174.547.174.85v1.48c0 1.187-.947 2.126-2.15 2.126h-1.654c-1.204 0-2.15-.939-2.15-2.126v-1.48c0-.193.027-.377.074-.554-.233.002-.463.007-.7.007-.235 0-.465-.005-.698-.007.046.177.073.361.073.554v1.48c0 1.187-.944 2.126-2.147 2.126h-1.654c-1.204 0-2.15-.939-2.15-2.126v-1.48c0-.303.062-.59.174-.85-.1-.009-.192-.022-.29-.032 2.009.211 4.279.33 6.693.33 2.417 0 4.691-.12 6.704-.331zm-6.704 4.303a3.406 3.406 0 002.775 1.431h1.654a3.406 3.406 0 002.743-1.389c-.405 1.252-.988 2.376-1.707 3.31-.051.065-.107.125-.16.189l-3.146.83a.625.625 0 00-.418.366l-.6 1.457a5.974 5.974 0 01-1.142.115c-.334 0-.663-.031-.986-.086l-.61-1.486a.624.624 0 00-.418-.366l-3.332-.88c-.038-.047-.08-.09-.117-.14-.72-.933-1.303-2.058-1.708-3.31.62.84 1.618 1.39 2.744 1.39h1.654a3.403 3.403 0 002.773-1.43zm-8.164 4.04l5.53 1.457 2.053 4.995a.624.624 0 00-.044.239v8.481H1.472c.045-3.792 1.957-7.296 5.108-9.597a.624.624 0 00.255-.503v-5.073zm16.473 0v5.17a.622.622 0 00.25.499c3.07 2.303 4.926 5.763 4.969 9.503H15.698v-8.652l2.08-5.063 5.53-1.458zm-7.716 3.49l-.52 1.268-.518-1.26c.147.01.295.02.444.02.2 0 .398-.011.594-.028z" fill="#F64F63"/><path d="M12.527.41c-.833-.026-1.668.243-2.416.851C8.736 2.38 7.518 4.538 6.058 8.243c-.468.073-.924.15-1.346.235-1.33.267-2.42.582-3.226.964-.404.192-.739.397-1.006.659-.268.262-.48.617-.48 1.026 0 .409.212.765.48 1.027.267.262.602.467 1.006.658.76.361 1.78.66 3.01.917a4.154 4.154 0 00-.178 1.192v.002c.002 1.622.825 3.107 2.15 3.557a12.723 12.723 0 001.331 3.13l-1.429-.378a.626.626 0 00-.785.603v5.59C2.261 29.97.218 33.792.215 37.94c0 .187.007.362.014.527a.623.623 0 00.624.598h28.293a.626.626 0 00.624-.598c.007-.167.015-.342.015-.526v-.001c-.003-4.09-1.986-7.866-5.227-10.413v-5.692a.622.622 0 00-.785-.602l-1.6.421a12.645 12.645 0 001.346-3.122c1.397-.377 2.3-1.916 2.3-3.61v-.002c0-.427-.067-.836-.185-1.22 1.169-.25 2.145-.54 2.878-.888.404-.191.74-.396 1.008-.658.267-.262.48-.618.48-1.027 0-.409-.213-.764-.48-1.026-.268-.262-.604-.467-1.008-.659-.807-.382-1.894-.697-3.225-.964-.115-.023-.242-.043-.36-.066-1.49-3.809-2.724-6.016-4.12-7.15-.855-.696-1.823-.947-2.773-.822-.847.11-1.686.532-2.574 1.022C14.57.972 13.73.55 12.884.44a3.6 3.6 0 00-.357-.03zm-.281 1.243c.152-.007.308 0 .473.022.662.087 1.47.442 2.43.992a.626.626 0 00.62 0c.96-.55 1.768-.905 2.43-.992.66-.086 1.183.036 1.82.553.777.632 1.65 1.935 2.66 4.111-2.207.286-4.841.456-7.68.456-2.48 0-4.787-.133-6.806-.356C9.223 4.2 10.11 2.87 10.9 2.229c.477-.389.89-.554 1.346-.576zm10.956 5.875c.054.126.105.235.16.366-2.336.342-5.225.55-8.363.55-2.761 0-5.323-.162-7.492-.433.055-.132.107-.245.16-.372 2.16.256 4.654.404 7.332.404 3.044 0 5.856-.19 8.203-.515zm.635 1.556c.308.784.624 1.613.956 2.547a.624.624 0 00.8.38.625.625 0 00.38-.799c-.18-.503-.35-.96-.52-1.421 1.073.235 1.95.505 2.524.777.324.153.55.31.666.423.116.113.106.146.106.136 0-.01.01.022-.106.136-.115.113-.342.27-.666.424-.648.307-1.666.613-2.937.868-2.54.51-6.106.833-10.041.833-3.936 0-7.5-.324-10.042-.833-1.27-.255-2.287-.561-2.934-.868-.324-.154-.554-.31-.67-.424-.115-.114-.103-.147-.103-.136 0 .01-.012-.023.104-.136.115-.113.345-.27.669-.423.647-.307 1.664-.613 2.934-.868.18-.036.387-.067.58-.101a97.082 97.082 0 00-.591 1.613.623.623 0 00.62.843.625.625 0 00.558-.424c.315-.884.614-1.675.907-2.424 2.299.305 5.024.484 7.968.484 3.322 0 6.373-.227 8.838-.607zm.55 4.857a2.7 2.7 0 01.183.982c0 .787-.29 1.357-.669 1.777a14.81 14.81 0 00.15-2.088v-.005c-.002-.204-.01-.406-.02-.609l.355-.058zm-18.636.025c.069.011.144.02.214.032-.01.204-.015.408-.016.612v.002c0 .657.045 1.3.128 1.927a2.75 2.75 0 01-.508-1.616v-.002c0-.353.074-.667.182-.955zm1.46.21l.567.07c-.15-.018-.308-.033-.456-.051a3.23 3.23 0 00-.12.559c-.001-.047-.005-.093-.005-.14v-.005c0-.145.006-.29.015-.433zm15.574 0c.009.146.015.292.015.438v.002c0 .042-.003.083-.003.124a3.34 3.34 0 00-.12-.546c-.153.02-.316.035-.472.054.196-.023.39-.047.58-.072zm-1.082.127c-.102.01-.197.023-.299.033.112.26.174.547.174.85v1.48c0 1.187-.947 2.126-2.15 2.126h-1.654c-1.204 0-2.15-.939-2.15-2.126v-1.48c0-.193.027-.377.074-.554-.233.002-.463.007-.7.007-.235 0-.465-.005-.698-.007.046.177.073.361.073.554v1.48c0 1.187-.944 2.126-2.147 2.126h-1.654c-1.204 0-2.15-.939-2.15-2.126v-1.48c0-.303.062-.59.174-.85-.1-.009-.192-.022-.29-.032 2.009.211 4.279.33 6.693.33 2.417 0 4.691-.12 6.704-.331zm-6.704 4.303a3.406 3.406 0 002.775 1.431h1.654a3.406 3.406 0 002.743-1.389c-.405 1.252-.988 2.376-1.707 3.31-.051.065-.107.125-.16.189l-3.146.83a.625.625 0 00-.418.366l-.6 1.457a5.974 5.974 0 01-1.142.115c-.334 0-.663-.031-.986-.086l-.61-1.486a.624.624 0 00-.418-.366l-3.332-.88c-.038-.047-.08-.09-.117-.14-.72-.933-1.303-2.058-1.708-3.31.62.84 1.618 1.39 2.744 1.39h1.654a3.403 3.403 0 002.773-1.43zm-8.164 4.04l5.53 1.457 2.053 4.995a.624.624 0 00-.044.239v8.481H1.472c.045-3.792 1.957-7.296 5.108-9.597a.624.624 0 00.255-.503v-5.073zm16.473 0v5.17a.622.622 0 00.25.499c3.07 2.303 4.926 5.763 4.969 9.503H15.698v-8.652l2.08-5.063 5.53-1.458zm-7.716 3.49l-.52 1.268-.518-1.26c.147.01.295.02.444.02.2 0 .398-.011.594-.028z" fill="url(#paint0_linear)"/><defs><linearGradient id="paint0_linear" x1="15" y1=".409" x2="15" y2="39.065" gradientUnits="userSpaceOnUse"><stop stop-color="#2768CC"/><stop offset="1" stop-color="#fff" stop-opacity="0"/></linearGradient></defs></svg>