<svg width="40" height="49" fill="none" xmlns="http://www.w3.org/2000/svg"><path d="M27.545 20.287c0 .211-.005.418-.02.63l-.033.327a8.106 8.106 0 01-.032.222 9.109 9.109 0 01-.286 1.18c-.064.19-.132.375-.207.56-.047.117.048-.105 0 .006-.02.053-.047.106-.074.159a8.394 8.394 0 01-.933 1.545c.095-.128-.085.1-.111.137-.133.158-.27.312-.42.46a7.694 7.694 0 01-.63.587c-.037.032-.07.058-.106.09-.01.01-.191.148-.059.048a8.583 8.583 0 01-1.548.93c-.042.022-.276.117-.133.059l-.328.127a7.907 7.907 0 01-1.485.386 2.15 2.15 0 01-.18.026c.032-.005.154-.016-.005 0a8.56 8.56 0 01-.658.048 9.983 9.983 0 01-1.257-.048c-.233-.02.101.016-.042-.005-.048-.005-.095-.016-.143-.021a8.27 8.27 0 01-1.485-.386c-.09-.032-.175-.07-.265-.1-.212-.08.09.041-.037-.017-.053-.02-.106-.047-.16-.074a8.532 8.532 0 01-1.097-.608 5.35 5.35 0 01-.45-.323c.122.09-.075-.058-.112-.09a5.316 5.316 0 01-.26-.227 8.09 8.09 0 01-.837-.868c-.027-.037-.207-.264-.112-.137a8.926 8.926 0 01-.509-.746c-.1-.17-.196-.344-.286-.518-.042-.085-.085-.17-.122-.249-.026-.053-.048-.106-.074-.159-.064-.137.016.048-.016-.037a8.467 8.467 0 01-.498-1.777c-.006-.048-.016-.095-.022-.143-.02-.127.016.122 0-.005-.016-.122-.026-.244-.037-.365a8.073 8.073 0 01.005-1.29c.006-.096.016-.197.027-.292.016-.159.005-.037 0-.005.005-.048.016-.095.021-.143.037-.222.08-.45.133-.666.1-.402.228-.794.382-1.175-.059.143.037-.084.058-.132.037-.085.08-.17.122-.254.095-.185.196-.37.302-.55a6.96 6.96 0 01.345-.524c.053-.074.106-.148.164-.222-.095.127.1-.121.133-.164.254-.301.525-.582.816-.84.08-.07.154-.138.233-.202.038-.032.07-.058.106-.09.016-.016.133-.106.059-.042l.085-.064.111-.079a7.94 7.94 0 011.326-.767c.042-.021.084-.037.127-.058.207-.095-.09.037.037-.016a8.899 8.899 0 01.87-.296c.196-.053.392-.1.588-.143.096-.021.191-.037.281-.053.048-.01.096-.016.143-.021.191-.032-.1.01.08-.01.43-.043.859-.064 1.294-.048a12.329 12.329 0 01.625.047c.048.006.096.016.143.022l.356.063a8.582 8.582 0 011.495.455c-.154-.064.1.042.133.058.19.09.376.18.561.286.165.09.324.185.478.285.09.059.175.117.26.175l.11.08c.022.015.187.137.112.084-.074-.058.037.032.058.042.038.032.075.058.107.09.08.069.159.132.233.201a9.31 9.31 0 01.816.846c.038.043.075.09.112.133.016.016.106.132.042.058-.058-.074.032.042.043.058.031.048.069.095.1.143a8.138 8.138 0 01.769 1.328c.016.031.122.28.059.132.08.196.153.391.217.598.133.407.233.825.302 1.248.006.048.016.095.021.143-.005-.032-.015-.154 0 .005.011.095.022.196.027.291.037.206.042.428.042.65 0 .413.366.815.796.794.43-.021.795-.349.795-.793-.01-1.868-.578-3.74-1.675-5.258a9.333 9.333 0 00-4.348-3.312c-3.548-1.312-7.736-.18-10.133 2.74a9.277 9.277 0 00-2.095 5.168A9.072 9.072 0 0012.175 25c.939 1.544 2.349 2.825 3.998 3.565a9.341 9.341 0 005.673.65c3.632-.719 6.596-3.782 7.164-7.437.074-.492.122-.989.127-1.491 0-.413-.366-.815-.795-.794-.43.021-.79.35-.796.794z" fill="#F64F63"/><path d="M27.545 20.287c0 .211-.005.418-.02.63l-.033.327a8.106 8.106 0 01-.032.222 9.109 9.109 0 01-.286 1.18c-.064.19-.132.375-.207.56-.047.117.048-.105 0 .006-.02.053-.047.106-.074.159a8.394 8.394 0 01-.933 1.545c.095-.128-.085.1-.111.137-.133.158-.27.312-.42.46a7.694 7.694 0 01-.63.587c-.037.032-.07.058-.106.09-.01.01-.191.148-.059.048a8.583 8.583 0 01-1.548.93c-.042.022-.276.117-.133.059l-.328.127a7.907 7.907 0 01-1.485.386 2.15 2.15 0 01-.18.026c.032-.005.154-.016-.005 0a8.56 8.56 0 01-.658.048 9.983 9.983 0 01-1.257-.048c-.233-.02.101.016-.042-.005-.048-.005-.095-.016-.143-.021a8.27 8.27 0 01-1.485-.386c-.09-.032-.175-.07-.265-.1-.212-.08.09.041-.037-.017-.053-.02-.106-.047-.16-.074a8.532 8.532 0 01-1.097-.608 5.35 5.35 0 01-.45-.323c.122.09-.075-.058-.112-.09a5.316 5.316 0 01-.26-.227 8.09 8.09 0 01-.837-.868c-.027-.037-.207-.264-.112-.137a8.926 8.926 0 01-.509-.746c-.1-.17-.196-.344-.286-.518-.042-.085-.085-.17-.122-.249-.026-.053-.048-.106-.074-.159-.064-.137.016.048-.016-.037a8.467 8.467 0 01-.498-1.777c-.006-.048-.016-.095-.022-.143-.02-.127.016.122 0-.005-.016-.122-.026-.244-.037-.365a8.073 8.073 0 01.005-1.29c.006-.096.016-.197.027-.292.016-.159.005-.037 0-.005.005-.048.016-.095.021-.143.037-.222.08-.45.133-.666.1-.402.228-.794.382-1.175-.059.143.037-.084.058-.132.037-.085.08-.17.122-.254.095-.185.196-.37.302-.55a6.96 6.96 0 01.345-.524c.053-.074.106-.148.164-.222-.095.127.1-.121.133-.164.254-.301.525-.582.816-.84.08-.07.154-.138.233-.202.038-.032.07-.058.106-.09.016-.016.133-.106.059-.042l.085-.064.111-.079a7.94 7.94 0 011.326-.767c.042-.021.084-.037.127-.058.207-.095-.09.037.037-.016a8.899 8.899 0 01.87-.296c.196-.053.392-.1.588-.143.096-.021.191-.037.281-.053.048-.01.096-.016.143-.021.191-.032-.1.01.08-.01.43-.043.859-.064 1.294-.048a12.329 12.329 0 01.625.047c.048.006.096.016.143.022l.356.063a8.582 8.582 0 011.495.455c-.154-.064.1.042.133.058.19.09.376.18.561.286.165.09.324.185.478.285.09.059.175.117.26.175l.11.08c.022.015.187.137.112.084-.074-.058.037.032.058.042.038.032.075.058.107.09.08.069.159.132.233.201a9.31 9.31 0 01.816.846c.038.043.075.09.112.133.016.016.106.132.042.058-.058-.074.032.042.043.058.031.048.069.095.1.143a8.138 8.138 0 01.769 1.328c.016.031.122.28.059.132.08.196.153.391.217.598.133.407.233.825.302 1.248.006.048.016.095.021.143-.005-.032-.015-.154 0 .005.011.095.022.196.027.291.037.206.042.428.042.65 0 .413.366.815.796.794.43-.021.795-.349.795-.793-.01-1.868-.578-3.74-1.675-5.258a9.333 9.333 0 00-4.348-3.312c-3.548-1.312-7.736-.18-10.133 2.74a9.277 9.277 0 00-2.095 5.168A9.072 9.072 0 0012.175 25c.939 1.544 2.349 2.825 3.998 3.565a9.341 9.341 0 005.673.65c3.632-.719 6.596-3.782 7.164-7.437.074-.492.122-.989.127-1.491 0-.413-.366-.815-.795-.794-.43.021-.79.35-.796.794z" fill="url(#paint0_linear)"/><path d="M36.898 22.471l-1.495 1.492c-.175.175-.355.35-.53.53a4.764 4.764 0 00-1.235 2.168c-.212.862-.144 1.788-.144 2.671v1.159c0 .105 0 .206-.005.312l-.016.216c0 .011-.016.133 0 .038.01-.101-.01.047-.01.074a3.747 3.747 0 01-.186.682c-.005.021-.064.159-.026.069a6.554 6.554 0 01-.25.455c-.042.068-.09.132-.137.2-.053.075.01-.015.02-.02l-.063.079a3.908 3.908 0 01-.355.37c-.053.048-.106.09-.154.137-.01.006-.1.075-.026.022a4.003 4.003 0 01-.472.291c-.064.031-.122.063-.186.09-.111.053.111-.043 0 0-.032.01-.064.026-.095.037-.154.058-.313.1-.472.137l-.244.048a.461.461 0 01.032-.006c-.038.006-.075.006-.106.011-.112.01-.228.01-.34.016H28.85c-.923 0-1.877-.064-2.768.233a4.873 4.873 0 00-1.872 1.153l-.668.666-.954.952c-.212.212-.446.466-.663.635-.6.47-1.32.677-2.052.656a3.254 3.254 0 01-1.045-.222 3.37 3.37 0 01-.88-.55c-1.315-1.19-2.391-2.82-4.178-3.338-.88-.254-1.83-.185-2.736-.185H9.602c-.074 0-.148 0-.222-.005-.037 0-.26-.022-.186-.016.08.01-.111-.021-.143-.027-.095-.016-.186-.042-.276-.063a4.2 4.2 0 01-.435-.148c.138.058-.053-.027-.095-.048a2.71 2.71 0 01-.212-.116l-.207-.127c-.026-.016-.175-.122-.117-.08.059.043-.106-.09-.132-.11a2.246 2.246 0 01-.202-.191c-.047-.048-.095-.1-.143-.148-.026-.027-.159-.19-.111-.132.048.058-.064-.09-.08-.117-.053-.074-.1-.153-.148-.233a1.814 1.814 0 01-.1-.185c-.022-.042-.107-.232-.049-.095a2.99 2.99 0 01-.153-.465 3.266 3.266 0 01-.059-.244c-.005-.031-.037-.222-.026-.143.01.09 0-.026 0-.037a1.355 1.355 0 01-.01-.142c-.006-.074-.006-.148-.006-.223V29.2c0-.894.069-1.836-.186-2.703a4.85 4.85 0 00-1.193-2.015c-.201-.207-.408-.408-.61-.609-.514-.513-1.055-1.01-1.542-1.55-.027-.026-.17-.2-.096-.105a2.228 2.228 0 01-.132-.186 3.483 3.483 0 01-.26-.454l-.064-.133a3.236 3.236 0 01-.064-.185 4.625 4.625 0 01-.132-.534c-.026-.153 0 .08-.01-.08l-.017-.253a4.068 4.068 0 01.032-.582c.016-.085.032-.17.053-.249.043-.17.096-.328.16-.492-.048.127.037-.08.058-.116.032-.069.069-.132.106-.196.042-.074.09-.153.138-.222.02-.032.042-.063.063-.095.006-.01.096-.127.053-.074.043-.053.202-.222.308-.328l.747-.746c.589-.587 1.236-1.153 1.729-1.825.509-.698.785-1.54.848-2.396.022-.296.011-.592.011-.889 0-.75-.005-1.502 0-2.253 0-.08 0-.159.005-.238a2.175 2.175 0 01.021-.222c.011-.048.016-.096.027-.143.032-.148.069-.296.122-.444.026-.08.053-.154.085-.228-.059.148.047-.09.063-.127.07-.132.144-.26.228-.386.016-.026.122-.175.08-.116l.021-.027c.037-.042.074-.09.111-.132a3.532 3.532 0 01.478-.444c-.122.095.08-.053.116-.08.128-.084.255-.158.387-.227.043-.021.239-.106.096-.048.074-.032.154-.058.228-.084.143-.048.291-.09.445-.122a1.92 1.92 0 00.175-.032c-.09.01.027 0 .037 0a2.06 2.06 0 01.18-.01c.266-.011.536-.006.801-.006.748 0 1.495.006 2.238 0 1.341-.01 2.524-.571 3.462-1.507l1.723-1.72.165-.163c.047-.048.095-.09.143-.138.026-.026.159-.137.127-.11a5.03 5.03 0 01.424-.276c.064-.037.133-.069.197-.106.031-.016.069-.032.1-.047.117-.053-.106.037.016-.006a4.87 4.87 0 01.493-.153c.07-.016.143-.032.218-.042.02-.006.175-.027.074-.016-.09.01.032 0 .037-.006.17-.01.34-.02.51-.015l.254.015a4.873 4.873 0 01.074.01c.17.033.334.07.498.123.08.026.165.053.244.084-.127-.047.08.037.117.059.159.079.307.169.456.264.032.021.17.122.132.095-.026-.021.122.106.154.138.048.042.09.084.133.132l.244.243L24.13 5.37a4.845 4.845 0 003.436 1.434h2.804a3.129 3.129 0 01.372.016 3.5 3.5 0 01.456.095c.068.021.137.037.201.063.032.01.069.021.1.037 0 0 .192.08.102.037-.07-.031.095.048.127.064.074.037.143.074.212.116.058.037.116.069.175.111.032.021.239.175.117.08a3.505 3.505 0 01.498.47c.032.032.185.233.09.106.09.122.17.244.244.376.037.058.069.121.1.185l.048.095c.101.196-.026-.085.016.032.053.143.106.285.144.434.015.068.037.137.047.206.01.042.043.307.027.143.016.169.026.338.026.507v2.38c0 .398.01.778.07 1.175.126.852.524 1.64 1.075 2.29.483.572 1.061 1.08 1.591 1.608l.652.651c.053.053.101.1.149.154.026.026.138.158.111.127a2.926 2.926 0 01.138.201c.09.137.17.274.239.423.016.037.085.2.037.079.037.09.069.185.095.28.048.154.085.307.112.46.005.022.026.175.016.075-.011-.09 0 .031.005.037l.016.216a4.1 4.1 0 01-.016.508c-.01.154.016-.074-.01.08-.017.084-.033.169-.054.248-.037.154-.09.307-.138.455-.047.138.032-.047-.032.085a2.95 2.95 0 01-.116.232c-.08.143-.17.28-.26.413-.08.111.026-.021-.064.08a.995.995 0 01-.19.237.802.802 0 000 1.122.806.806 0 001.124 0 4.738 4.738 0 001.261-4.316c-.227-1.1-.89-1.931-1.664-2.703-.541-.54-1.082-1.069-1.618-1.614a3.05 3.05 0 01-.912-2.232V9.962c-.005-1.312-.535-2.608-1.521-3.497-.939-.84-2.1-1.227-3.346-1.227h-2.466c-.498 0-.78-.016-1.262-.18-.424-.143-.858-.439-1.22-.793l-1.733-1.73a6.648 6.648 0 00-.949-.815c-.652-.444-1.41-.682-2.19-.761-1.39-.143-2.773.412-3.754 1.386l-1.686 1.682-.27.27c-.18.174-.313.29-.462.39-.36.239-.578.34-.96.44a3.497 3.497 0 01-.249.058l-.17.032c.022-.005.096-.01 0 0-.132.01-.264.016-.397.021-.758.005-1.522 0-2.285 0-1.071 0-2.095.111-3.028.693-1.278.793-2.078 2.132-2.216 3.623-.07.762-.016 1.545-.016 2.307v.904c0 .106-.005.206-.01.312-.006.043-.006.085-.011.127a.461.461 0 00-.006.042 4.256 4.256 0 01-.207.735 4.08 4.08 0 01-.307.556c-.095.143-.122.18-.27.339a1.281 1.281 0 01-.117.116c-.085.09-.175.175-.265.264-.324.318-.642.64-.965.958-.695.693-1.39 1.349-1.782 2.28-.588 1.401-.456 3.084.393 4.358.477.72 1.166 1.307 1.776 1.915l.79.788c.117.117.228.233.334.36.09.106-.048-.074.032.042l.074.106c.053.085.106.164.154.254.042.074.08.148.116.222.064.132.032.058.08.201.175.497.19.783.19 1.286v1.248c0 .867-.063 1.767.16 2.613.382 1.45 1.469 2.608 2.853 3.158.88.349 1.797.312 2.725.312h1.824c.1 0 .201.005.302.01.043.006.085.006.127.011-.11-.01.064.01.085.016a3.093 3.093 0 011.686.873c.207.2.409.407.61.608.557.555 1.087 1.164 1.692 1.661a4.767 4.767 0 005.275.55c.838-.444 1.485-1.211 2.148-1.872l.848-.847c.35-.349.684-.608 1.119-.788.44-.18.832-.227 1.326-.227h1.187c.864 0 1.766.068 2.614-.122 1.379-.312 2.604-1.307 3.182-2.592.28-.63.429-1.285.434-1.978v-.926c0-.772-.063-1.576.021-2.343-.01.11.006-.027.006-.042.01-.043.016-.085.026-.128.022-.095.043-.19.075-.285.02-.08.053-.159.08-.238.047-.148.03-.08.015-.048.021-.053.048-.1.069-.153a4.4 4.4 0 01.302-.508c.064-.1.005-.021.085-.111.074-.085.154-.17.233-.254.18-.185.366-.365.547-.545l1.479-1.476a.807.807 0 000-1.12.828.828 0 00-1.145-.012z" fill="#F64F63"/><path d="M36.898 22.471l-1.495 1.492c-.175.175-.355.35-.53.53a4.764 4.764 0 00-1.235 2.168c-.212.862-.144 1.788-.144 2.671v1.159c0 .105 0 .206-.005.312l-.016.216c0 .011-.016.133 0 .038.01-.101-.01.047-.01.074a3.747 3.747 0 01-.186.682c-.005.021-.064.159-.026.069a6.554 6.554 0 01-.25.455c-.042.068-.09.132-.137.2-.053.075.01-.015.02-.02l-.063.079a3.908 3.908 0 01-.355.37c-.053.048-.106.09-.154.137-.01.006-.1.075-.026.022a4.003 4.003 0 01-.472.291c-.064.031-.122.063-.186.09-.111.053.111-.043 0 0-.032.01-.064.026-.095.037-.154.058-.313.1-.472.137l-.244.048a.461.461 0 01.032-.006c-.038.006-.075.006-.106.011-.112.01-.228.01-.34.016H28.85c-.923 0-1.877-.064-2.768.233a4.873 4.873 0 00-1.872 1.153l-.668.666-.954.952c-.212.212-.446.466-.663.635-.6.47-1.32.677-2.052.656a3.254 3.254 0 01-1.045-.222 3.37 3.37 0 01-.88-.55c-1.315-1.19-2.391-2.82-4.178-3.338-.88-.254-1.83-.185-2.736-.185H9.602c-.074 0-.148 0-.222-.005-.037 0-.26-.022-.186-.016.08.01-.111-.021-.143-.027-.095-.016-.186-.042-.276-.063a4.2 4.2 0 01-.435-.148c.138.058-.053-.027-.095-.048a2.71 2.71 0 01-.212-.116l-.207-.127c-.026-.016-.175-.122-.117-.08.059.043-.106-.09-.132-.11a2.246 2.246 0 01-.202-.191c-.047-.048-.095-.1-.143-.148-.026-.027-.159-.19-.111-.132.048.058-.064-.09-.08-.117-.053-.074-.1-.153-.148-.233a1.814 1.814 0 01-.1-.185c-.022-.042-.107-.232-.049-.095a2.99 2.99 0 01-.153-.465 3.266 3.266 0 01-.059-.244c-.005-.031-.037-.222-.026-.143.01.09 0-.026 0-.037a1.355 1.355 0 01-.01-.142c-.006-.074-.006-.148-.006-.223V29.2c0-.894.069-1.836-.186-2.703a4.85 4.85 0 00-1.193-2.015c-.201-.207-.408-.408-.61-.609-.514-.513-1.055-1.01-1.542-1.55-.027-.026-.17-.2-.096-.105a2.228 2.228 0 01-.132-.186 3.483 3.483 0 01-.26-.454l-.064-.133a3.236 3.236 0 01-.064-.185 4.625 4.625 0 01-.132-.534c-.026-.153 0 .08-.01-.08l-.017-.253a4.068 4.068 0 01.032-.582c.016-.085.032-.17.053-.249.043-.17.096-.328.16-.492-.048.127.037-.08.058-.116.032-.069.069-.132.106-.196.042-.074.09-.153.138-.222.02-.032.042-.063.063-.095.006-.01.096-.127.053-.074.043-.053.202-.222.308-.328l.747-.746c.589-.587 1.236-1.153 1.729-1.825.509-.698.785-1.54.848-2.396.022-.296.011-.592.011-.889 0-.75-.005-1.502 0-2.253 0-.08 0-.159.005-.238a2.175 2.175 0 01.021-.222c.011-.048.016-.096.027-.143.032-.148.069-.296.122-.444.026-.08.053-.154.085-.228-.059.148.047-.09.063-.127.07-.132.144-.26.228-.386.016-.026.122-.175.08-.116l.021-.027c.037-.042.074-.09.111-.132a3.532 3.532 0 01.478-.444c-.122.095.08-.053.116-.08.128-.084.255-.158.387-.227.043-.021.239-.106.096-.048.074-.032.154-.058.228-.084.143-.048.291-.09.445-.122a1.92 1.92 0 00.175-.032c-.09.01.027 0 .037 0a2.06 2.06 0 01.18-.01c.266-.011.536-.006.801-.006.748 0 1.495.006 2.238 0 1.341-.01 2.524-.571 3.462-1.507l1.723-1.72.165-.163c.047-.048.095-.09.143-.138.026-.026.159-.137.127-.11a5.03 5.03 0 01.424-.276c.064-.037.133-.069.197-.106.031-.016.069-.032.1-.047.117-.053-.106.037.016-.006a4.87 4.87 0 01.493-.153c.07-.016.143-.032.218-.042.02-.006.175-.027.074-.016-.09.01.032 0 .037-.006.17-.01.34-.02.51-.015l.254.015a4.873 4.873 0 01.074.01c.17.033.334.07.498.123.08.026.165.053.244.084-.127-.047.08.037.117.059.159.079.307.169.456.264.032.021.17.122.132.095-.026-.021.122.106.154.138.048.042.09.084.133.132l.244.243L24.13 5.37a4.845 4.845 0 003.436 1.434h2.804a3.129 3.129 0 01.372.016 3.5 3.5 0 01.456.095c.068.021.137.037.201.063.032.01.069.021.1.037 0 0 .192.08.102.037-.07-.031.095.048.127.064.074.037.143.074.212.116.058.037.116.069.175.111.032.021.239.175.117.08a3.505 3.505 0 01.498.47c.032.032.185.233.09.106.09.122.17.244.244.376.037.058.069.121.1.185l.048.095c.101.196-.026-.085.016.032.053.143.106.285.144.434.015.068.037.137.047.206.01.042.043.307.027.143.016.169.026.338.026.507v2.38c0 .398.01.778.07 1.175.126.852.524 1.64 1.075 2.29.483.572 1.061 1.08 1.591 1.608l.652.651c.053.053.101.1.149.154.026.026.138.158.111.127a2.926 2.926 0 01.138.201c.09.137.17.274.239.423.016.037.085.2.037.079.037.09.069.185.095.28.048.154.085.307.112.46.005.022.026.175.016.075-.011-.09 0 .031.005.037l.016.216a4.1 4.1 0 01-.016.508c-.01.154.016-.074-.01.08-.017.084-.033.169-.054.248-.037.154-.09.307-.138.455-.047.138.032-.047-.032.085a2.95 2.95 0 01-.116.232c-.08.143-.17.28-.26.413-.08.111.026-.021-.064.08a.995.995 0 01-.19.237.802.802 0 000 1.122.806.806 0 001.124 0 4.738 4.738 0 001.261-4.316c-.227-1.1-.89-1.931-1.664-2.703-.541-.54-1.082-1.069-1.618-1.614a3.05 3.05 0 01-.912-2.232V9.962c-.005-1.312-.535-2.608-1.521-3.497-.939-.84-2.1-1.227-3.346-1.227h-2.466c-.498 0-.78-.016-1.262-.18-.424-.143-.858-.439-1.22-.793l-1.733-1.73a6.648 6.648 0 00-.949-.815c-.652-.444-1.41-.682-2.19-.761-1.39-.143-2.773.412-3.754 1.386l-1.686 1.682-.27.27c-.18.174-.313.29-.462.39-.36.239-.578.34-.96.44a3.497 3.497 0 01-.249.058l-.17.032c.022-.005.096-.01 0 0-.132.01-.264.016-.397.021-.758.005-1.522 0-2.285 0-1.071 0-2.095.111-3.028.693-1.278.793-2.078 2.132-2.216 3.623-.07.762-.016 1.545-.016 2.307v.904c0 .106-.005.206-.01.312-.006.043-.006.085-.011.127a.461.461 0 00-.006.042 4.256 4.256 0 01-.207.735 4.08 4.08 0 01-.307.556c-.095.143-.122.18-.27.339a1.281 1.281 0 01-.117.116c-.085.09-.175.175-.265.264-.324.318-.642.64-.965.958-.695.693-1.39 1.349-1.782 2.28-.588 1.401-.456 3.084.393 4.358.477.72 1.166 1.307 1.776 1.915l.79.788c.117.117.228.233.334.36.09.106-.048-.074.032.042l.074.106c.053.085.106.164.154.254.042.074.08.148.116.222.064.132.032.058.08.201.175.497.19.783.19 1.286v1.248c0 .867-.063 1.767.16 2.613.382 1.45 1.469 2.608 2.853 3.158.88.349 1.797.312 2.725.312h1.824c.1 0 .201.005.302.01.043.006.085.006.127.011-.11-.01.064.01.085.016a3.093 3.093 0 011.686.873c.207.2.409.407.61.608.557.555 1.087 1.164 1.692 1.661a4.767 4.767 0 005.275.55c.838-.444 1.485-1.211 2.148-1.872l.848-.847c.35-.349.684-.608 1.119-.788.44-.18.832-.227 1.326-.227h1.187c.864 0 1.766.068 2.614-.122 1.379-.312 2.604-1.307 3.182-2.592.28-.63.429-1.285.434-1.978v-.926c0-.772-.063-1.576.021-2.343-.01.11.006-.027.006-.042.01-.043.016-.085.026-.128.022-.095.043-.19.075-.285.02-.08.053-.159.08-.238.047-.148.03-.08.015-.048.021-.053.048-.1.069-.153a4.4 4.4 0 01.302-.508c.064-.1.005-.021.085-.111.074-.085.154-.17.233-.254.18-.185.366-.365.547-.545l1.479-1.476a.807.807 0 000-1.12.828.828 0 00-1.145-.012z" fill="url(#paint1_linear)"/><path d="M17.057 37.97c-.43 1.105-.859 2.216-1.288 3.322l-2.052 5.3c-.16.407-.313.814-.472 1.222l1.33-.35c-.911-1.115-1.823-2.237-2.735-3.353-.111-.137-.217-.296-.345-.423-.307-.318-.72-.212-1.097-.159-.827.127-1.655.249-2.476.376-.674.1-1.347.206-2.026.306l.981.98c.456-1.175.907-2.35 1.363-3.524.726-1.872 1.447-3.745 2.174-5.617.17-.434.334-.862.503-1.296-.254.196-.509.386-.768.582h2.311c.085 0 .175.005.26.01l.17.016c-.128-.016.1.021.122.021.54.106.89.254 1.346.593-.068-.053.149.127.17.148.043.042.085.085.127.122l.112.11 1.188 1.185c.466.466.911.942 1.458 1.318.355.243.885.063 1.087-.286.233-.397.069-.841-.287-1.084-.36-.249-.726-.656-1.066-1l-1.24-1.238c-.6-.598-1.294-1.063-2.11-1.312-.653-.195-1.32-.195-1.994-.195h-1.67c-.377 0-.637.254-.77.581-.455 1.175-.906 2.349-1.362 3.523-.726 1.873-1.447 3.745-2.174 5.618-.17.434-.334.862-.504 1.296-.1.259.022.587.207.772.218.217.483.248.774.206l4.216-.635.615-.095-.774-.206c.896 1.1 1.792 2.2 2.688 3.295.132.159.26.318.392.482.175.211.52.275.774.206.287-.08.451-.291.557-.556.43-1.105.86-2.216 1.289-3.321.684-1.767 1.367-3.534 2.052-5.3.159-.408.312-.815.471-1.222.149-.386-.164-.889-.556-.979-.451-.095-.811.148-.97.56z" fill="#F64F63"/><path d="M17.057 37.97c-.43 1.105-.859 2.216-1.288 3.322l-2.052 5.3c-.16.407-.313.814-.472 1.222l1.33-.35c-.911-1.115-1.823-2.237-2.735-3.353-.111-.137-.217-.296-.345-.423-.307-.318-.72-.212-1.097-.159-.827.127-1.655.249-2.476.376-.674.1-1.347.206-2.026.306l.981.98c.456-1.175.907-2.35 1.363-3.524.726-1.872 1.447-3.745 2.174-5.617.17-.434.334-.862.503-1.296-.254.196-.509.386-.768.582h2.311c.085 0 .175.005.26.01l.17.016c-.128-.016.1.021.122.021.54.106.89.254 1.346.593-.068-.053.149.127.17.148.043.042.085.085.127.122l.112.11 1.188 1.185c.466.466.911.942 1.458 1.318.355.243.885.063 1.087-.286.233-.397.069-.841-.287-1.084-.36-.249-.726-.656-1.066-1l-1.24-1.238c-.6-.598-1.294-1.063-2.11-1.312-.653-.195-1.32-.195-1.994-.195h-1.67c-.377 0-.637.254-.77.581-.455 1.175-.906 2.349-1.362 3.523-.726 1.873-1.447 3.745-2.174 5.618-.17.434-.334.862-.504 1.296-.1.259.022.587.207.772.218.217.483.248.774.206l4.216-.635.615-.095-.774-.206c.896 1.1 1.792 2.2 2.688 3.295.132.159.26.318.392.482.175.211.52.275.774.206.287-.08.451-.291.557-.556.43-1.105.86-2.216 1.289-3.321.684-1.767 1.367-3.534 2.052-5.3.159-.408.312-.815.471-1.222.149-.386-.164-.889-.556-.979-.451-.095-.811.148-.97.56z" fill="url(#paint2_linear)"/><path d="M34.104 44.217c-1.426-.217-2.858-.434-4.284-.645-.18-.027-.36-.059-.54-.08-.51-.074-.717.132-.982.46-.525.646-1.055 1.291-1.58 1.942-.43.529-.859 1.058-1.294 1.581l1.331.35c-.43-1.106-.859-2.217-1.288-3.323l-2.052-5.3c-.16-.407-.313-.814-.472-1.221l-.366.893c.483-.333.875-.735 1.288-1.147l1.252-1.248c.116-.117.228-.233.35-.344.185-.17.244-.212.488-.355.26-.153.381-.206.62-.28a4.478 4.478 0 01.573-.132c-.038.005-.122.01.042 0 .127-.01.26-.016.387-.016h2.275c-.255-.196-.51-.386-.77-.582.457 1.174.908 2.348 1.364 3.523.726 1.872 1.447 3.745 2.174 5.617.17.434.334.862.503 1.296.154.402.536.677.981.555.382-.105.71-.576.557-.978-.456-1.174-.907-2.349-1.363-3.523-.726-1.872-1.447-3.745-2.174-5.617-.17-.434-.334-.862-.503-1.296-.128-.333-.393-.582-.77-.582h-1.42c-.631 0-1.252-.021-1.872.106-.917.185-1.744.671-2.402 1.327-.382.376-.758.757-1.135 1.132-.397.397-.821.889-1.246 1.18-.265.185-.498.555-.365.894.429 1.105.858 2.216 1.288 3.321l2.052 5.3c.16.408.313.815.472 1.222.1.265.265.476.557.556.249.069.599.01.774-.206.896-1.1 1.792-2.2 2.688-3.296.133-.159.26-.317.392-.481l-.774.206 4.215.635.616.095c.408.063.874-.1.98-.555.075-.386-.127-.92-.567-.984z" fill="#F64F63"/><path d="M34.104 44.217c-1.426-.217-2.858-.434-4.284-.645-.18-.027-.36-.059-.54-.08-.51-.074-.717.132-.982.46-.525.646-1.055 1.291-1.58 1.942-.43.529-.859 1.058-1.294 1.581l1.331.35c-.43-1.106-.859-2.217-1.288-3.323l-2.052-5.3c-.16-.407-.313-.814-.472-1.221l-.366.893c.483-.333.875-.735 1.288-1.147l1.252-1.248c.116-.117.228-.233.35-.344.185-.17.244-.212.488-.355.26-.153.381-.206.62-.28a4.478 4.478 0 01.573-.132c-.038.005-.122.01.042 0 .127-.01.26-.016.387-.016h2.275c-.255-.196-.51-.386-.77-.582.457 1.174.908 2.348 1.364 3.523.726 1.872 1.447 3.745 2.174 5.617.17.434.334.862.503 1.296.154.402.536.677.981.555.382-.105.71-.576.557-.978-.456-1.174-.907-2.349-1.363-3.523-.726-1.872-1.447-3.745-2.174-5.617-.17-.434-.334-.862-.503-1.296-.128-.333-.393-.582-.77-.582h-1.42c-.631 0-1.252-.021-1.872.106-.917.185-1.744.671-2.402 1.327-.382.376-.758.757-1.135 1.132-.397.397-.821.889-1.246 1.18-.265.185-.498.555-.365.894.429 1.105.858 2.216 1.288 3.321l2.052 5.3c.16.408.313.815.472 1.222.1.265.265.476.557.556.249.069.599.01.774-.206.896-1.1 1.792-2.2 2.688-3.296.133-.159.26-.317.392-.481l-.774.206 4.215.635.616.095c.408.063.874-.1.98-.555.075-.386-.127-.92-.567-.984z" fill="url(#paint3_linear)"/><defs><linearGradient id="paint0_linear" x1="19.997" y1="11.176" x2="19.997" y2="29.395" gradientUnits="userSpaceOnUse"><stop stop-color="#2768CC"/><stop offset="1" stop-color="#fff" stop-opacity="0"/></linearGradient><linearGradient id="paint1_linear" x1="19.999" y1=".937" x2="19.999" y2="39.639" gradientUnits="userSpaceOnUse"><stop stop-color="#2768CC"/><stop offset="1" stop-color="#fff" stop-opacity="0"/></linearGradient><linearGradient id="paint2_linear" x1="11.955" y1="33.744" x2="11.955" y2="48.813" gradientUnits="userSpaceOnUse"><stop stop-color="#2768CC"/><stop offset="1" stop-color="#fff" stop-opacity="0"/></linearGradient><linearGradient id="paint3_linear" x1="28.036" y1="33.764" x2="28.036" y2="48.83" gradientUnits="userSpaceOnUse"><stop stop-color="#2768CC"/><stop offset="1" stop-color="#fff" stop-opacity="0"/></linearGradient></defs></svg>