<svg width="38" height="44" fill="none" xmlns="http://www.w3.org/2000/svg"><path d="M30.915 28.938l-6.8-1.789v-2.277a10.216 10.216 0 004.873-6.638h.243a2.914 2.914 0 002.663-1.703 2.895 2.895 0 00-.47-3.121v-1.008a12.365 12.365 0 00-2.667-7.632 14.39 14.39 0 002.339-1.24l-.811-1.212a13.4 13.4 0 01-2.558 1.298c-.099-.097-.187-.203-.293-.297a4.982 4.982 0 00-.308-.666A14.557 14.557 0 0029.63 1.34L28.819.128c-.82.533-1.695.975-2.611 1.318A5.102 5.102 0 0022.654.01h-7.308a5.133 5.133 0 00-2.912.91 5.114 5.114 0 00-1.877 2.401 12.408 12.408 0 00-3.98 9.082v1.008a2.899 2.899 0 002.192 4.824h.243a10.216 10.216 0 004.873 6.638v2.277l-6.797 1.79a9.493 9.493 0 00-5.11 3.374A9.454 9.454 0 000 38.1v4.92a.728.728 0 00.73.73h36.54a.732.732 0 00.73-.73V38.1a9.454 9.454 0 00-1.976-5.786 9.492 9.492 0 00-5.109-3.376zm-10.981 6.063h-1.868l-.595-1.783L19 32.837l1.529.381-.595 1.783zm-4.923-5.864l2.558 2.552-3.412.85.854-3.402zm5.418 2.552l2.558-2.552.854 3.404-3.412-.852zm8.802-14.913V13.86a1.463 1.463 0 011.461 1.458 1.456 1.456 0 01-1.461 1.458zm-17.554-12.5a.748.748 0 00.207-.318 3.513 3.513 0 01.883-1.424 3.604 3.604 0 012.58-1.067h7.307a3.65 3.65 0 011.891.536 26.483 26.483 0 01-6.276.922v1.458a27.026 27.026 0 007.464-1.215c.16.247.29.514.385.793a.72.72 0 00.082.17 26.54 26.54 0 01-6.47.98V6.57a26.907 26.907 0 007.593-1.255 10.914 10.914 0 012.639 7.087v.104a2.888 2.888 0 00-.731-.104v-.729a10.12 10.12 0 00-1.772-5.74.73.73 0 00-1.306.21 3.64 3.64 0 01-1.314 1.888 3.654 3.654 0 01-2.185.726h-7.308a3.66 3.66 0 01-2.185-.728 3.645 3.645 0 01-1.314-1.888.729.729 0 00-.992-.467.73.73 0 00-.314.259 10.12 10.12 0 00-1.772 5.74v.729a2.888 2.888 0 00-.73.104v-.104a10.918 10.918 0 013.638-8.126zm-2.908 12.5a1.463 1.463 0 01-1.461-1.458 1.456 1.456 0 011.461-1.458v2.916zm1.462-.729v-4.374a8.68 8.68 0 01.846-3.755 5.131 5.131 0 004.27 2.297h7.307a5.06 5.06 0 003.615-1.497c.246-.244.466-.513.658-.802a8.691 8.691 0 01.842 3.757v4.374a8.74 8.74 0 01-2.568 6.186 8.78 8.78 0 01-12.402 0 8.738 8.738 0 01-2.568-6.186zM19 26.253a10.174 10.174 0 003.654-.684v1.84L19 31.055l-3.654-3.646v-1.84c1.166.45 2.404.682 3.654.684zM1.462 38.1a8 8 0 011.671-4.895 8.032 8.032 0 014.32-2.857l6.154-1.616-1.162 4.636a.728.728 0 00.886.884l2.718-.678.73 2.205-1.301 6.512H9.5v-5.103H8.038v5.103H1.462V38.1zm15.506 4.191l1.17-5.832h1.726l1.169 5.832h-4.065zm19.57 0h-6.576v-5.103H28.5v5.103h-5.978l-1.306-6.513.731-2.206 2.719.678a.734.734 0 00.88-.513.726.726 0 00.005-.37l-1.158-4.635 6.153 1.616a8.033 8.033 0 014.321 2.857 7.999 7.999 0 011.672 4.895v4.191z" fill="#F64F63"/><path d="M30.915 28.938l-6.8-1.789v-2.277a10.216 10.216 0 004.873-6.638h.243a2.914 2.914 0 002.663-1.703 2.895 2.895 0 00-.47-3.121v-1.008a12.365 12.365 0 00-2.667-7.632 14.39 14.39 0 002.339-1.24l-.811-1.212a13.4 13.4 0 01-2.558 1.298c-.099-.097-.187-.203-.293-.297a4.982 4.982 0 00-.308-.666A14.557 14.557 0 0029.63 1.34L28.819.128c-.82.533-1.695.975-2.611 1.318A5.102 5.102 0 0022.654.01h-7.308a5.133 5.133 0 00-2.912.91 5.114 5.114 0 00-1.877 2.401 12.408 12.408 0 00-3.98 9.082v1.008a2.899 2.899 0 002.192 4.824h.243a10.216 10.216 0 004.873 6.638v2.277l-6.797 1.79a9.493 9.493 0 00-5.11 3.374A9.454 9.454 0 000 38.1v4.92a.728.728 0 00.73.73h36.54a.732.732 0 00.73-.73V38.1a9.454 9.454 0 00-1.976-5.786 9.492 9.492 0 00-5.109-3.376zm-10.981 6.063h-1.868l-.595-1.783L19 32.837l1.529.381-.595 1.783zm-4.923-5.864l2.558 2.552-3.412.85.854-3.402zm5.418 2.552l2.558-2.552.854 3.404-3.412-.852zm8.802-14.913V13.86a1.463 1.463 0 011.461 1.458 1.456 1.456 0 01-1.461 1.458zm-17.554-12.5a.748.748 0 00.207-.318 3.513 3.513 0 01.883-1.424 3.604 3.604 0 012.58-1.067h7.307a3.65 3.65 0 011.891.536 26.483 26.483 0 01-6.276.922v1.458a27.026 27.026 0 007.464-1.215c.16.247.29.514.385.793a.72.72 0 00.082.17 26.54 26.54 0 01-6.47.98V6.57a26.907 26.907 0 007.593-1.255 10.914 10.914 0 012.639 7.087v.104a2.888 2.888 0 00-.731-.104v-.729a10.12 10.12 0 00-1.772-5.74.73.73 0 00-1.306.21 3.64 3.64 0 01-1.314 1.888 3.654 3.654 0 01-2.185.726h-7.308a3.66 3.66 0 01-2.185-.728 3.645 3.645 0 01-1.314-1.888.729.729 0 00-.992-.467.73.73 0 00-.314.259 10.12 10.12 0 00-1.772 5.74v.729a2.888 2.888 0 00-.73.104v-.104a10.918 10.918 0 013.638-8.126zm-2.908 12.5a1.463 1.463 0 01-1.461-1.458 1.456 1.456 0 011.461-1.458v2.916zm1.462-.729v-4.374a8.68 8.68 0 01.846-3.755 5.131 5.131 0 004.27 2.297h7.307a5.06 5.06 0 003.615-1.497c.246-.244.466-.513.658-.802a8.691 8.691 0 01.842 3.757v4.374a8.74 8.74 0 01-2.568 6.186 8.78 8.78 0 01-12.402 0 8.738 8.738 0 01-2.568-6.186zM19 26.253a10.174 10.174 0 003.654-.684v1.84L19 31.055l-3.654-3.646v-1.84c1.166.45 2.404.682 3.654.684zM1.462 38.1a8 8 0 011.671-4.895 8.032 8.032 0 014.32-2.857l6.154-1.616-1.162 4.636a.728.728 0 00.886.884l2.718-.678.73 2.205-1.301 6.512H9.5v-5.103H8.038v5.103H1.462V38.1zm15.506 4.191l1.17-5.832h1.726l1.169 5.832h-4.065zm19.57 0h-6.576v-5.103H28.5v5.103h-5.978l-1.306-6.513.731-2.206 2.719.678a.734.734 0 00.88-.513.726.726 0 00.005-.37l-1.158-4.635 6.153 1.616a8.033 8.033 0 014.321 2.857 7.999 7.999 0 011.672 4.895v4.191z" fill="url(#paint0_linear)"/><path d="M19 18.234a2.186 2.186 0 002.192-2.187V13.13h-1.461v2.916a.728.728 0 01-.731.729.732.732 0 01-.73-.73V13.13h-1.462v2.916c0 .58.23 1.136.642 1.546.411.41.969.64 1.55.64z" fill="#F64F63"/><path d="M19 18.234a2.186 2.186 0 002.192-2.187V13.13h-1.461v2.916a.728.728 0 01-.731.729.732.732 0 01-.73-.73V13.13h-1.462v2.916c0 .58.23 1.136.642 1.546.411.41.969.64 1.55.64z" fill="url(#paint1_linear)"/><path d="M22.712 13.408a.55.55 0 00.066.13c.027.04.056.076.088.11.07.066.152.118.241.153a.621.621 0 00.278.059.89.89 0 00.138-.015.445.445 0 00.14-.044.414.414 0 00.124-.065c.043-.03.08-.059.117-.088a.738.738 0 000-1.035c-.037-.029-.074-.058-.117-.087a.416.416 0 00-.125-.066.448.448 0 00-.14-.044.68.68 0 00-.415.044.757.757 0 00-.241.153.733.733 0 00-.197.664c.008.045.022.09.043.13z" fill="#F64F63"/><path d="M22.712 13.408a.55.55 0 00.066.13c.027.04.056.076.088.11.07.066.152.118.241.153a.621.621 0 00.278.059.89.89 0 00.138-.015.445.445 0 00.14-.044.414.414 0 00.124-.065c.043-.03.08-.059.117-.088a.738.738 0 000-1.035c-.037-.029-.074-.058-.117-.087a.416.416 0 00-.125-.066.448.448 0 00-.14-.044.68.68 0 00-.415.044.757.757 0 00-.241.153.733.733 0 00-.197.664c.008.045.022.09.043.13z" fill="url(#paint2_linear)"/><path d="M15.346 13.131a.766.766 0 00-.212-.517.743.743 0 00-.796-.153.754.754 0 00-.241.153.738.738 0 000 1.035.75.75 0 00.24.153.732.732 0 00.278.058.756.756 0 00.52-.211.766.766 0 00.211-.518z" fill="#F64F63"/><path d="M15.346 13.131a.766.766 0 00-.212-.517.743.743 0 00-.796-.153.754.754 0 00-.241.153.738.738 0 000 1.035.75.75 0 00.24.153.732.732 0 00.278.058.756.756 0 00.52-.211.766.766 0 00.211-.518z" fill="url(#paint3_linear)"/><path d="M23.35 20.17l-1.105-.955A4.372 4.372 0 0119 20.42a4.38 4.38 0 01-3.245-1.206l-1.105.955A5.767 5.767 0 0019 21.88a5.777 5.777 0 004.35-1.71z" fill="#F64F63"/><path d="M23.35 20.17l-1.105-.955A4.372 4.372 0 0119 20.42a4.38 4.38 0 01-3.245-1.206l-1.105.955A5.767 5.767 0 0019 21.88a5.777 5.777 0 004.35-1.71z" fill="url(#paint4_linear)"/><defs><linearGradient id="paint0_linear" x1="19" y1=".009" x2="19" y2="43.749" gradientUnits="userSpaceOnUse"><stop stop-color="#2768CC"/><stop offset="1" stop-color="#fff" stop-opacity="0"/></linearGradient><linearGradient id="paint1_linear" x1="19" y1="13.131" x2="19" y2="18.234" gradientUnits="userSpaceOnUse"><stop stop-color="#2768CC"/><stop offset="1" stop-color="#fff" stop-opacity="0"/></linearGradient><linearGradient id="paint2_linear" x1="23.384" y1="12.402" x2="23.384" y2="13.86" gradientUnits="userSpaceOnUse"><stop stop-color="#2768CC"/><stop offset="1" stop-color="#fff" stop-opacity="0"/></linearGradient><linearGradient id="paint3_linear" x1="14.615" y1="12.406" x2="14.615" y2="13.86" gradientUnits="userSpaceOnUse"><stop stop-color="#2768CC"/><stop offset="1" stop-color="#fff" stop-opacity="0"/></linearGradient><linearGradient id="paint4_linear" x1="19" y1="19.215" x2="19" y2="21.884" gradientUnits="userSpaceOnUse"><stop stop-color="#2768CC"/><stop offset="1" stop-color="#fff" stop-opacity="0"/></linearGradient></defs></svg>