<svg width="44" height="44" fill="none" xmlns="http://www.w3.org/2000/svg"><path d="M11.656 11.12a.697.697 0 00-.866-.47l-3.687 1.083a.695.695 0 00-.472.863l1.399 4.74a.694.694 0 00.865.47l3.688-1.084a.699.699 0 00.472-.863l-1.399-4.74zm-2.485 5.156L8.165 12.87l2.351-.69 1.005 3.405-2.35.69z" fill="#F64F63"/><path d="M11.656 11.12a.697.697 0 00-.866-.47l-3.687 1.083a.695.695 0 00-.472.863l1.399 4.74a.694.694 0 00.865.47l3.688-1.084a.699.699 0 00.472-.863l-1.399-4.74zm-2.485 5.156L8.165 12.87l2.351-.69 1.005 3.405-2.35.69z" fill="url(#paint0_linear)"/><path d="M32.574 9.644c-.377 0-.75.02-1.119.057L28.815.689a.697.697 0 00-.876-.47l-6.677 2.058-5.16 1.515-15.2 4.424a.692.692 0 00-.473.864l9.962 33.706a.695.695 0 00.865.47l10.59-3.117a10.991 10.991 0 006.26 1.946c6.09 0 11.026-4.924 11.027-11 0-.517-.039-1.025-.108-1.524 2.776-2.006 4.575-5.257 4.575-8.917-.002-6.062-4.95-10.998-11.026-11zm-2.503.289a11.003 11.003 0 00-5.03 2.684l-2.717-9.212 5.351-1.648 2.396 8.176zM17.161 4.93l3.829-1.125 2.95 10.003a10.935 10.935 0 00-2.368 6.143L17.162 4.93zm-1.06-1.138zm-4.57 37.933L1.962 9.356l13.86-4.034 5.114 17.411a10.961 10.961 0 00-3.858 8.354c0 3.148 1.329 5.985 3.454 7.99l-9.003 2.65zm23.386-3.845a9.612 9.612 0 01-6.811 2.815 9.613 9.613 0 01-6.812-2.815 9.565 9.565 0 01-2.822-6.794 9.565 9.565 0 012.822-6.795 9.67 9.67 0 011.39-1.147.683.683 0 00.216-.136 9.593 9.593 0 015.206-1.532 9.613 9.613 0 016.811 2.815 9.565 9.565 0 012.822 6.794 9.566 9.566 0 01-2.822 6.795zm3.787-9.829a11.025 11.025 0 00-10.598-7.965c-1.854 0-3.599.458-5.132 1.264a9.287 9.287 0 01-.032-.708 9.573 9.573 0 012.817-6.79 9.606 9.606 0 016.815-2.82 9.612 9.612 0 016.805 2.821 9.567 9.567 0 012.827 6.79c0 2.975-1.357 5.636-3.502 7.409z" fill="#F64F63"/><path d="M32.574 9.644c-.377 0-.75.02-1.119.057L28.815.689a.697.697 0 00-.876-.47l-6.677 2.058-5.16 1.515-15.2 4.424a.692.692 0 00-.473.864l9.962 33.706a.695.695 0 00.865.47l10.59-3.117a10.991 10.991 0 006.26 1.946c6.09 0 11.026-4.924 11.027-11 0-.517-.039-1.025-.108-1.524 2.776-2.006 4.575-5.257 4.575-8.917-.002-6.062-4.95-10.998-11.026-11zm-2.503.289a11.003 11.003 0 00-5.03 2.684l-2.717-9.212 5.351-1.648 2.396 8.176zM17.161 4.93l3.829-1.125 2.95 10.003a10.935 10.935 0 00-2.368 6.143L17.162 4.93zm-1.06-1.138zm-4.57 37.933L1.962 9.356l13.86-4.034 5.114 17.411a10.961 10.961 0 00-3.858 8.354c0 3.148 1.329 5.985 3.454 7.99l-9.003 2.65zm23.386-3.845a9.612 9.612 0 01-6.811 2.815 9.613 9.613 0 01-6.812-2.815 9.565 9.565 0 01-2.822-6.794 9.565 9.565 0 012.822-6.795 9.67 9.67 0 011.39-1.147.683.683 0 00.216-.136 9.593 9.593 0 015.206-1.532 9.613 9.613 0 016.811 2.815 9.565 9.565 0 012.822 6.794 9.566 9.566 0 01-2.822 6.795zm3.787-9.829a11.025 11.025 0 00-10.598-7.965c-1.854 0-3.599.458-5.132 1.264a9.287 9.287 0 01-.032-.708 9.573 9.573 0 012.817-6.79 9.606 9.606 0 016.815-2.82 9.612 9.612 0 016.805 2.821 9.567 9.567 0 012.827 6.79c0 2.975-1.357 5.636-3.502 7.409z" fill="url(#paint1_linear)"/><path d="M30.562 34.752a4.59 4.59 0 01-1.138.159c-.919 0-1.73-.311-2.293-.784-.564-.476-.877-1.087-.878-1.75v-.596h2.79a.696.696 0 100-1.39h-2.79v-.596c.002-.68.314-1.286.877-1.759.561-.468 1.372-.775 2.294-.774.417 0 .78.046 1.098.148a.694.694 0 10.424-1.324 4.98 4.98 0 00-1.522-.214c-1.23 0-2.353.404-3.188 1.097-.833.69-1.378 1.697-1.377 2.826v.596h-1.17a.696.696 0 100 1.39h1.17v.597c0 1.119.545 2.122 1.376 2.814.832.697 1.956 1.108 3.189 1.109.545 0 1.042-.09 1.482-.203a.695.695 0 10-.344-1.346z" fill="#F64F63"/><path d="M30.562 34.752a4.59 4.59 0 01-1.138.159c-.919 0-1.73-.311-2.293-.784-.564-.476-.877-1.087-.878-1.75v-.596h2.79a.696.696 0 100-1.39h-2.79v-.596c.002-.68.314-1.286.877-1.759.561-.468 1.372-.775 2.294-.774.417 0 .78.046 1.098.148a.694.694 0 10.424-1.324 4.98 4.98 0 00-1.522-.214c-1.23 0-2.353.404-3.188 1.097-.833.69-1.378 1.697-1.377 2.826v.596h-1.17a.696.696 0 100 1.39h1.17v.597c0 1.119.545 2.122 1.376 2.814.832.697 1.956 1.108 3.189 1.109.545 0 1.042-.09 1.482-.203a.695.695 0 10-.344-1.346z" fill="url(#paint2_linear)"/><defs><linearGradient id="paint0_linear" x1="9.843" y1="10.621" x2="9.843" y2="17.834" gradientUnits="userSpaceOnUse"><stop stop-color="#2768CC"/><stop offset="1" stop-color="#fff" stop-opacity="0"/></linearGradient><linearGradient id="paint1_linear" x1="22" y1=".189" x2="22" y2="43.285" gradientUnits="userSpaceOnUse"><stop stop-color="#2768CC"/><stop offset="1" stop-color="#fff" stop-opacity="0"/></linearGradient><linearGradient id="paint2_linear" x1="27.211" y1="25.872" x2="27.211" y2="36.301" gradientUnits="userSpaceOnUse"><stop stop-color="#2768CC"/><stop offset="1" stop-color="#fff" stop-opacity="0"/></linearGradient></defs></svg>