<svg width="48" height="48" fill="none" xmlns="http://www.w3.org/2000/svg"><path d="M10.164 46.903c-.34.005-.673-.1-.95-.299-.55-.4-.782-1.114-.636-1.963l2.197-12.805c.122-.713-.238-1.82-.756-2.324L.715 20.438c-.617-.601-.849-1.313-.639-1.963.21-.65.82-1.087 1.67-1.21l12.858-1.87c.716-.103 1.658-.788 1.978-1.435l5.75-11.648c.38-.772.988-1.219 1.668-1.219.68 0 1.287.443 1.669 1.219l5.75 11.651c.32.648 1.261 1.332 1.977 1.437l12.858 1.868c.852.124 1.46.562 1.67 1.211.21.649-.023 1.361-.64 1.962l-9.303 9.07c-.517.504-.878 1.612-.756 2.324l2.197 12.806c.145.849-.086 1.564-.636 1.963-.55.4-1.302.399-2.062 0l-11.505-6.048c-.64-.336-1.805-.336-2.444 0l-11.497 6.046a2.412 2.412 0 01-1.114.301zM2.04 19.118l9.287 9.051c.966.938 1.521 2.653 1.294 3.983l-2.193 12.782 11.479-6.035c1.193-.627 2.993-.627 4.186 0l11.48 6.035-2.194-12.782c-.227-1.33.329-3.042 1.294-3.982l9.287-9.051-12.833-1.869c-1.335-.194-2.791-1.251-3.388-2.46L24 3.161l-5.74 11.625c-.596 1.21-2.053 2.267-3.387 2.461L2.04 19.118z" fill="#F64F63"/><path d="M10.164 46.903c-.34.005-.673-.1-.95-.299-.55-.4-.782-1.114-.636-1.963l2.197-12.805c.122-.713-.238-1.82-.756-2.324L.715 20.438c-.617-.601-.849-1.313-.639-1.963.21-.65.82-1.087 1.67-1.21l12.858-1.87c.716-.103 1.658-.788 1.978-1.435l5.75-11.648c.38-.772.988-1.219 1.668-1.219.68 0 1.287.443 1.669 1.219l5.75 11.651c.32.648 1.261 1.332 1.977 1.437l12.858 1.868c.852.124 1.46.562 1.67 1.211.21.649-.023 1.361-.64 1.962l-9.303 9.07c-.517.504-.878 1.612-.756 2.324l2.197 12.806c.145.849-.086 1.564-.636 1.963-.55.4-1.302.399-2.062 0l-11.505-6.048c-.64-.336-1.805-.336-2.444 0l-11.497 6.046a2.412 2.412 0 01-1.114.301zM2.04 19.118l9.287 9.051c.966.938 1.521 2.653 1.294 3.983l-2.193 12.782 11.479-6.035c1.193-.627 2.993-.627 4.186 0l11.48 6.035-2.194-12.782c-.227-1.33.329-3.042 1.294-3.982l9.287-9.051-12.833-1.869c-1.335-.194-2.791-1.251-3.388-2.46L24 3.161l-5.74 11.625c-.596 1.21-2.053 2.267-3.387 2.461L2.04 19.118z" fill="url(#paint0_linear)"/><defs><linearGradient id="paint0_linear" x1="24" y1="1.093" x2="24" y2="46.903" gradientUnits="userSpaceOnUse"><stop stop-color="#2768CC"/><stop offset="1" stop-color="#fff" stop-opacity="0"/></linearGradient></defs></svg>