<svg width="36" height="36" fill="none" xmlns="http://www.w3.org/2000/svg"><path d="M17.438 31.5c0 .93.757 1.688 1.687 1.688h2.25a.563.563 0 010 1.124H4.17l1.187-1.186L9.295 32l4.972-4.973 3.762-3.761L31.665 9.63a3.255 3.255 0 00.86-3.11l3.145-3.145L32.625.33 29.48 3.475a3.255 3.255 0 00-3.11.86l-.828.828A4.37 4.37 0 0022.5 3.937a4.37 4.37 0 00-3.113 1.29l-5.935 5.935c-.176.173-.514.034-.514-.213V9.562H9.562v1.387a3.68 3.68 0 003.676 3.676 3.65 3.65 0 002.6-1.077l5.935-5.935c.35-.35.991-.367 1.378-.06L12.733 17.972 8.97 21.733 4 26.706l-1.125 3.937-1.798 1.798c-.33.33-.514.772-.514 1.24 0 .969.788 1.757 1.756 1.757h19.057a1.69 1.69 0 001.688-1.688 1.69 1.69 0 00-1.688-1.688h-2.25a.563.563 0 010-1.124h14.063v-1.125H19.124a1.69 1.69 0 00-1.688 1.687zm-.02-9.253l-3.665-3.665A2.595 2.595 0 0115.38 18 2.622 2.622 0 0118 20.62a2.59 2.59 0 01-.583 1.627zm-.776.816l-.892.892-3.705-3.705.893-.892 3.704 3.704zm-1.687 1.687l-.893.892-3.704-3.704.892-.893 3.705 3.705zM11.62 27A2.623 2.623 0 019 24.38c0-.6.212-1.165.583-1.627l3.664 3.664A2.593 2.593 0 0111.62 27zm-.039 1.123L9 30.705 5.295 27l2.582-2.581a3.747 3.747 0 003.704 3.704zM32.625 1.92l1.455 1.455-2.053 2.053a3.338 3.338 0 00-.362-.434l-.66-.659a3.341 3.341 0 00-.433-.362l2.053-2.053zm-5.46 3.21c.813-.813 2.232-.813 3.045 0l.66.66c.406.406.63.948.63 1.522a2.14 2.14 0 01-.63 1.523L19.122 20.581a3.747 3.747 0 00-3.704-3.704L27.165 5.13zm-6.188 1.688l-5.935 5.935a2.534 2.534 0 01-1.804.747 2.554 2.554 0 01-2.55-2.551v-.261h1.124v.261a1.427 1.427 0 002.435 1.009l5.935-5.935a3.254 3.254 0 012.318-.96 3.25 3.25 0 012.247.895l-.8.8c-.82-.744-2.182-.728-2.97.06zM4.778 28.074l3.149 3.148-2.7.771-1.22-1.22.771-2.7zm-3.09 5.608c0-.169.065-.327.184-.446l1.503-1.503.892.892-1.503 1.503a.631.631 0 01-1.077-.446z" fill="#F64F63"/><path d="M17.438 31.5c0 .93.757 1.688 1.687 1.688h2.25a.563.563 0 010 1.124H4.17l1.187-1.186L9.295 32l4.972-4.973 3.762-3.761L31.665 9.63a3.255 3.255 0 00.86-3.11l3.145-3.145L32.625.33 29.48 3.475a3.255 3.255 0 00-3.11.86l-.828.828A4.37 4.37 0 0022.5 3.937a4.37 4.37 0 00-3.113 1.29l-5.935 5.935c-.176.173-.514.034-.514-.213V9.562H9.562v1.387a3.68 3.68 0 003.676 3.676 3.65 3.65 0 002.6-1.077l5.935-5.935c.35-.35.991-.367 1.378-.06L12.733 17.972 8.97 21.733 4 26.706l-1.125 3.937-1.798 1.798c-.33.33-.514.772-.514 1.24 0 .969.788 1.757 1.756 1.757h19.057a1.69 1.69 0 001.688-1.688 1.69 1.69 0 00-1.688-1.688h-2.25a.563.563 0 010-1.124h14.063v-1.125H19.124a1.69 1.69 0 00-1.688 1.687zm-.02-9.253l-3.665-3.665A2.595 2.595 0 0115.38 18 2.622 2.622 0 0118 20.62a2.59 2.59 0 01-.583 1.627zm-.776.816l-.892.892-3.705-3.705.893-.892 3.704 3.704zm-1.687 1.687l-.893.892-3.704-3.704.892-.893 3.705 3.705zM11.62 27A2.623 2.623 0 019 24.38c0-.6.212-1.165.583-1.627l3.664 3.664A2.593 2.593 0 0111.62 27zm-.039 1.123L9 30.705 5.295 27l2.582-2.581a3.747 3.747 0 003.704 3.704zM32.625 1.92l1.455 1.455-2.053 2.053a3.338 3.338 0 00-.362-.434l-.66-.659a3.341 3.341 0 00-.433-.362l2.053-2.053zm-5.46 3.21c.813-.813 2.232-.813 3.045 0l.66.66c.406.406.63.948.63 1.522a2.14 2.14 0 01-.63 1.523L19.122 20.581a3.747 3.747 0 00-3.704-3.704L27.165 5.13zm-6.188 1.688l-5.935 5.935a2.534 2.534 0 01-1.804.747 2.554 2.554 0 01-2.55-2.551v-.261h1.124v.261a1.427 1.427 0 002.435 1.009l5.935-5.935a3.254 3.254 0 012.318-.96 3.25 3.25 0 012.247.895l-.8.8c-.82-.744-2.182-.728-2.97.06zM4.778 28.074l3.149 3.148-2.7.771-1.22-1.22.771-2.7zm-3.09 5.608c0-.169.065-.327.184-.446l1.503-1.503.892.892-1.503 1.503a.631.631 0 01-1.077-.446z" fill="url(#paint0_linear)"/><defs><linearGradient id="paint0_linear" x1="18.116" y1=".33" x2="18.116" y2="35.438" gradientUnits="userSpaceOnUse"><stop stop-color="#2768CC"/><stop offset="1" stop-color="#fff" stop-opacity="0"/></linearGradient></defs></svg>