<svg width="36" height="36" fill="none" xmlns="http://www.w3.org/2000/svg"><path d="M15.774.564c-.75-.023-1.5.219-2.174.768-1.238 1.008-2.334 2.956-3.648 6.299-.421.066-.831.135-1.21.211-1.198.24-2.179.525-2.905.87-.363.173-.665.358-.905.594-.24.237-.432.558-.432.926 0 .369.191.69.432.927.24.236.542.42.905.593.685.326 1.603.596 2.71.827a3.756 3.756 0 00-.16 1.078c0 1.464.742 2.803 1.934 3.21.283 1.023.69 1.972 1.198 2.822l-1.286-.34a.563.563 0 00-.706.544v5.042c-2.992 2.297-4.83 5.746-4.834 9.487 0 .169.007.327.013.476a.563.563 0 00.562.54H30.73a.562.562 0 00.563-.54c.006-.15.012-.309.012-.475-.002-3.69-1.787-7.097-4.704-9.395v-5.135a.563.563 0 00-.707-.544l-1.44.38c.513-.847.925-1.794 1.212-2.816 1.257-.34 2.07-1.73 2.07-3.256v-.002c0-.386-.06-.755-.166-1.101 1.052-.226 1.93-.488 2.59-.802.363-.172.666-.357.907-.593.24-.237.432-.558.432-.927 0-.368-.192-.69-.432-.926-.24-.236-.544-.42-.907-.594-.727-.345-1.705-.63-2.903-.87-.103-.02-.218-.039-.324-.059-1.34-3.436-2.451-5.428-3.708-6.451-.77-.627-1.64-.854-2.495-.742-.762.1-1.518.48-2.317.922-.8-.442-1.556-.821-2.319-.922a3.232 3.232 0 00-.321-.026zm-.253 1.12a2.4 2.4 0 01.426.021c.596.078 1.323.399 2.187.895a.562.562 0 00.558 0c.864-.496 1.591-.816 2.187-.895.595-.078 1.065.032 1.638.5.7.57 1.485 1.744 2.394 3.708-1.986.258-4.357.411-6.912.411a56.31 56.31 0 01-6.126-.321c.928-2.02 1.726-3.22 2.437-3.799.43-.35.801-.5 1.211-.52zm9.86 5.301c.05.114.095.213.144.33-2.102.309-4.702.496-7.526.496-2.485 0-4.79-.145-6.742-.39.049-.12.095-.22.144-.336a56.78 56.78 0 006.598.365c2.74 0 5.27-.172 7.383-.465zm.573 1.404c.277.707.56 1.456.86 2.298a.563.563 0 101.061-.378c-.161-.454-.314-.866-.468-1.282.966.212 1.756.455 2.272.7.292.14.496.28.6.383.104.102.096.132.096.122 0-.01.008.02-.096.123-.104.102-.308.243-.6.382-.583.277-1.5.553-2.643.783-2.287.46-5.495.752-9.037.752-3.542 0-6.75-.292-9.038-.752-1.143-.23-2.058-.506-2.64-.783-.292-.139-.499-.28-.603-.382-.104-.103-.093-.132-.093-.123 0 .01-.01-.02.093-.122.104-.103.311-.244.602-.382.583-.277 1.498-.553 2.641-.783.163-.033.348-.06.522-.091-.174.466-.35.94-.532 1.455a.563.563 0 101.06.378c.284-.797.554-1.51.817-2.187 2.069.275 4.522.437 7.17.437 2.99 0 5.737-.205 7.956-.548zm.494 4.382c.101.263.165.558.165.886 0 .71-.262 1.224-.602 1.603.087-.612.134-1.24.134-1.883v-.005c0-.184-.008-.367-.018-.55.108-.017.216-.034.32-.052zm-16.772.022l.192.03a14.42 14.42 0 00-.014.551v.003c0 .592.041 1.172.115 1.738a2.485 2.485 0 01-.457-1.458v-.002c0-.319.066-.602.164-.862zm1.315.19c.167.022.337.042.51.062-.136-.015-.278-.029-.411-.045-.05.162-.086.331-.109.504 0-.042-.004-.084-.004-.126v-.004c0-.13.006-.261.014-.391zm14.016 0c.008.132.013.263.013.395v.002c0 .038-.003.074-.003.112A3.02 3.02 0 0024.91 13c-.138.017-.285.031-.426.047.177-.02.35-.042.523-.064zm-.975.114c-.09.01-.176.022-.268.03.1.235.156.494.156.767v1.335a1.91 1.91 0 01-1.935 1.919h-1.489a1.91 1.91 0 01-1.934-1.919v-1.335c0-.174.024-.34.066-.5-.21.002-.417.007-.63.007-.212 0-.419-.005-.628-.007.042.16.066.326.066.5v1.335c0 1.072-.85 1.919-1.933 1.919h-1.489a1.91 1.91 0 01-1.934-1.919v-1.335c0-.273.056-.532.156-.766-.09-.009-.173-.02-.261-.03 1.808.19 3.851.299 6.024.299 2.175 0 4.222-.109 6.033-.3zM18 16.98a3.063 3.063 0 002.497 1.29h1.489a3.063 3.063 0 002.47-1.252c-.366 1.129-.89 2.143-1.538 2.985-.046.06-.096.113-.143.17l-2.832.75a.562.562 0 00-.376.33l-.54 1.315a5.387 5.387 0 01-1.027.104c-.3 0-.596-.029-.887-.078l-.55-1.34a.564.564 0 00-.376-.331l-2.998-.793c-.035-.043-.072-.083-.106-.127-.647-.842-1.172-1.857-1.537-2.986a3.063 3.063 0 002.47 1.254h1.488A3.06 3.06 0 0018 16.98zm-7.347 3.644l4.976 1.315 1.848 4.506a.561.561 0 00-.04.216v7.651H5.825c.04-3.421 1.76-6.582 4.596-8.658a.563.563 0 00.23-.454v-4.576zm14.825 0v4.665a.564.564 0 00.224.45c2.765 2.078 4.435 5.199 4.473 8.573H18.629v-7.806L20.5 21.94l4.977-1.315zm-6.944 3.15l-.468 1.143-.467-1.137c.133.008.266.017.4.017.18 0 .358-.01.535-.024z" fill="#F64F63"/><path d="M15.774.564c-.75-.023-1.5.219-2.174.768-1.238 1.008-2.334 2.956-3.648 6.299-.421.066-.831.135-1.21.211-1.198.24-2.179.525-2.905.87-.363.173-.665.358-.905.594-.24.237-.432.558-.432.926 0 .369.191.69.432.927.24.236.542.42.905.593.685.326 1.603.596 2.71.827a3.756 3.756 0 00-.16 1.078c0 1.464.742 2.803 1.934 3.21.283 1.023.69 1.972 1.198 2.822l-1.286-.34a.563.563 0 00-.706.544v5.042c-2.992 2.297-4.83 5.746-4.834 9.487 0 .169.007.327.013.476a.563.563 0 00.562.54H30.73a.562.562 0 00.563-.54c.006-.15.012-.309.012-.475-.002-3.69-1.787-7.097-4.704-9.395v-5.135a.563.563 0 00-.707-.544l-1.44.38c.513-.847.925-1.794 1.212-2.816 1.257-.34 2.07-1.73 2.07-3.256v-.002c0-.386-.06-.755-.166-1.101 1.052-.226 1.93-.488 2.59-.802.363-.172.666-.357.907-.593.24-.237.432-.558.432-.927 0-.368-.192-.69-.432-.926-.24-.236-.544-.42-.907-.594-.727-.345-1.705-.63-2.903-.87-.103-.02-.218-.039-.324-.059-1.34-3.436-2.451-5.428-3.708-6.451-.77-.627-1.64-.854-2.495-.742-.762.1-1.518.48-2.317.922-.8-.442-1.556-.821-2.319-.922a3.232 3.232 0 00-.321-.026zm-.253 1.12a2.4 2.4 0 01.426.021c.596.078 1.323.399 2.187.895a.562.562 0 00.558 0c.864-.496 1.591-.816 2.187-.895.595-.078 1.065.032 1.638.5.7.57 1.485 1.744 2.394 3.708-1.986.258-4.357.411-6.912.411a56.31 56.31 0 01-6.126-.321c.928-2.02 1.726-3.22 2.437-3.799.43-.35.801-.5 1.211-.52zm9.86 5.301c.05.114.095.213.144.33-2.102.309-4.702.496-7.526.496-2.485 0-4.79-.145-6.742-.39.049-.12.095-.22.144-.336a56.78 56.78 0 006.598.365c2.74 0 5.27-.172 7.383-.465zm.573 1.404c.277.707.56 1.456.86 2.298a.563.563 0 101.061-.378c-.161-.454-.314-.866-.468-1.282.966.212 1.756.455 2.272.7.292.14.496.28.6.383.104.102.096.132.096.122 0-.01.008.02-.096.123-.104.102-.308.243-.6.382-.583.277-1.5.553-2.643.783-2.287.46-5.495.752-9.037.752-3.542 0-6.75-.292-9.038-.752-1.143-.23-2.058-.506-2.64-.783-.292-.139-.499-.28-.603-.382-.104-.103-.093-.132-.093-.123 0 .01-.01-.02.093-.122.104-.103.311-.244.602-.382.583-.277 1.498-.553 2.641-.783.163-.033.348-.06.522-.091-.174.466-.35.94-.532 1.455a.563.563 0 101.06.378c.284-.797.554-1.51.817-2.187 2.069.275 4.522.437 7.17.437 2.99 0 5.737-.205 7.956-.548zm.494 4.382c.101.263.165.558.165.886 0 .71-.262 1.224-.602 1.603.087-.612.134-1.24.134-1.883v-.005c0-.184-.008-.367-.018-.55.108-.017.216-.034.32-.052zm-16.772.022l.192.03a14.42 14.42 0 00-.014.551v.003c0 .592.041 1.172.115 1.738a2.485 2.485 0 01-.457-1.458v-.002c0-.319.066-.602.164-.862zm1.315.19c.167.022.337.042.51.062-.136-.015-.278-.029-.411-.045-.05.162-.086.331-.109.504 0-.042-.004-.084-.004-.126v-.004c0-.13.006-.261.014-.391zm14.016 0c.008.132.013.263.013.395v.002c0 .038-.003.074-.003.112A3.02 3.02 0 0024.91 13c-.138.017-.285.031-.426.047.177-.02.35-.042.523-.064zm-.975.114c-.09.01-.176.022-.268.03.1.235.156.494.156.767v1.335a1.91 1.91 0 01-1.935 1.919h-1.489a1.91 1.91 0 01-1.934-1.919v-1.335c0-.174.024-.34.066-.5-.21.002-.417.007-.63.007-.212 0-.419-.005-.628-.007.042.16.066.326.066.5v1.335c0 1.072-.85 1.919-1.933 1.919h-1.489a1.91 1.91 0 01-1.934-1.919v-1.335c0-.273.056-.532.156-.766-.09-.009-.173-.02-.261-.03 1.808.19 3.851.299 6.024.299 2.175 0 4.222-.109 6.033-.3zM18 16.98a3.063 3.063 0 002.497 1.29h1.489a3.063 3.063 0 002.47-1.252c-.366 1.129-.89 2.143-1.538 2.985-.046.06-.096.113-.143.17l-2.832.75a.562.562 0 00-.376.33l-.54 1.315a5.387 5.387 0 01-1.027.104c-.3 0-.596-.029-.887-.078l-.55-1.34a.564.564 0 00-.376-.331l-2.998-.793c-.035-.043-.072-.083-.106-.127-.647-.842-1.172-1.857-1.537-2.986a3.063 3.063 0 002.47 1.254h1.488A3.06 3.06 0 0018 16.98zm-7.347 3.644l4.976 1.315 1.848 4.506a.561.561 0 00-.04.216v7.651H5.825c.04-3.421 1.76-6.582 4.596-8.658a.563.563 0 00.23-.454v-4.576zm14.825 0v4.665a.564.564 0 00.224.45c2.765 2.078 4.435 5.199 4.473 8.573H18.629v-7.806L20.5 21.94l4.977-1.315zm-6.944 3.15l-.468 1.143-.467-1.137c.133.008.266.017.4.017.18 0 .358-.01.535-.024z" fill="url(#paint0_linear)"/><defs><linearGradient id="paint0_linear" x1="18" y1=".563" x2="18" y2="35.438" gradientUnits="userSpaceOnUse"><stop stop-color="#2768CC"/><stop offset="1" stop-color="#fff" stop-opacity="0"/></linearGradient></defs></svg>