<svg width="12" height="12" fill="none" xmlns="http://www.w3.org/2000/svg"><g clip-path="url(#clip0)"><path d="M.75.816c-.943.98-.75 2.02-.75 5.181 0 2.625-.458 5.257 1.939 5.876.749.193 7.38.193 8.128 0 .998-.258 1.81-1.068 1.921-2.48.016-.196.016-6.592 0-6.793C11.87 1.097 10.944.23 9.725.055 9.445.015 9.389.002 7.955 0 2.869.002 1.754-.224.75.816z" fill="url(#paint0_linear)"/><path d="M5.999 1.569c-1.815 0-3.54-.162-4.198 1.528-.272.698-.232 1.605-.232 2.903 0 1.139-.037 2.21.232 2.902.657 1.69 2.395 1.529 4.197 1.529 1.739 0 3.531.18 4.197-1.53.273-.704.233-1.597.233-2.901 0-1.731.095-2.849-.744-3.688-.85-.85-2-.743-3.687-.743h.002zm-.397.798c3.787-.006 4.269-.427 4.003 5.422-.094 2.068-1.67 1.841-3.606 1.841-3.53 0-3.631-.1-3.631-3.632 0-3.573.28-3.629 3.234-3.632v.001zm2.762.736a.532.532 0 100 1.063.532.532 0 000-1.063zm-2.365.621a2.275 2.275 0 100 4.55 2.275 2.275 0 000-4.55zm0 .799c1.953 0 1.955 2.954 0 2.954-1.952 0-1.955-2.954 0-2.954z" fill="#fff"/></g><defs><linearGradient id="paint0_linear" x1=".773" y1="11.233" x2="11.926" y2="1.581" gradientUnits="userSpaceOnUse"><stop stop-color="#FD5"/><stop offset=".5" stop-color="#FF543E"/><stop offset="1" stop-color="#C837AB"/></linearGradient><clipPath id="clip0"><path fill="#fff" d="M0 0h12v12H0z"/></clipPath></defs></svg>