<svg width="12" height="12" fill="none" xmlns="http://www.w3.org/2000/svg"><path d="M12 0H0v12h12V0z" fill="#0084B1"/><path d="M2.824 1.822c.55 0 1.003.455 1.002 1.007a1 1 0 01-1.009 1.002 1.002 1.002 0 01-1.004-1.006 1.01 1.01 0 011.011-1.003zm.584 8.354H2.231a.277.277 0 01-.277-.277V4.875c0-.152.124-.276.277-.276h1.177c.153 0 .277.124.277.276V9.9a.277.277 0 01-.277.277zm6.779-3.812A1.907 1.907 0 008.28 4.457h-.302a1.693 1.693 0 00-1.484.876.128.128 0 00-.016-.002v-.617a.115.115 0 00-.115-.115H4.894a.115.115 0 00-.115.115v5.348c0 .063.052.115.115.115h1.501a.115.115 0 00.115-.115v-3.09a.98.98 0 01.96-.983.968.968 0 01.982.971v3.102c0 .064.052.115.115.115h1.505a.115.115 0 00.115-.114v-3.7z" fill="#fff"/></svg>