<svg width="52" height="39" fill="none" xmlns="http://www.w3.org/2000/svg"><path d="M11.28 5.82h2.8v14.26h-1.46l-8.46-9V20h-2.8V5.74h1.42l8.5 9V5.82zM17.79 20V5.82h10.3v2.56h-7.56v3.42h6.36v2.42h-6.36v3.24h7.88V20H17.79zM48.225 5.82h3.1l-5.24 14.26h-1.44l-3.9-9.16-3.84 9.16h-1.44l-5.28-14.26h3.14l3.08 8.9 3.64-8.94h1.48l3.6 8.98 3.1-8.94z" fill="#F64F63"/><path d="M8.928 28.52H9.96L7.752 35h-.828l-1.836-4.416L3.264 35h-.828L.24 28.52h1.068l1.608 4.776 1.992-4.68h.372l1.992 4.716 1.656-4.812zm8.854 3.264c0 .088-.008.212-.024.372h-5.532c.08.6.328 1.084.744 1.452.416.36.928.54 1.536.54.448 0 .844-.096 1.188-.288.352-.2.632-.48.84-.84h1.068c-.272.672-.68 1.196-1.224 1.572-.544.368-1.168.552-1.872.552-.936 0-1.72-.324-2.352-.972-.632-.648-.948-1.452-.948-2.412 0-.968.316-1.772.948-2.412.632-.648 1.416-.972 2.352-.972.968 0 1.756.328 2.364.984.608.656.912 1.464.912 2.424zm-3.276-2.436a2.43 2.43 0 00-1.056.228 2.067 2.067 0 00-.78.66c-.208.28-.348.604-.42.972h4.5a2.373 2.373 0 00-.42-.984 1.967 1.967 0 00-.78-.648 2.352 2.352 0 00-1.044-.228zm8.818-.972c.968 0 1.764.32 2.388.96.632.64.948 1.448.948 2.424 0 .968-.316 1.776-.948 2.424-.624.64-1.42.96-2.388.96-1.016 0-1.848-.356-2.496-1.068l-.132.924h-.792v-8.796h1.02v3.132c.632-.64 1.432-.96 2.4-.96zm-.084 5.784c.456 0 .864-.104 1.224-.312.36-.208.64-.492.84-.852.208-.368.312-.78.312-1.236 0-.688-.224-1.26-.672-1.716-.448-.456-1.016-.684-1.704-.684-.68 0-1.248.232-1.704.696-.456.456-.684 1.024-.684 1.704 0 .264.036.52.108.768.08.248.192.472.336.672.144.192.312.36.504.504.2.144.42.256.66.336.248.08.508.12.78.12zm7.625.984c-.512 0-.96-.084-1.345-.252a2.124 2.124 0 01-.9-.744 2.177 2.177 0 01-.348-1.14h.997c.024.376.184.668.48.876.296.208.675.312 1.14.312.456 0 .823-.088 1.104-.264.28-.184.42-.432.42-.744 0-.12-.02-.228-.06-.324a.548.548 0 00-.18-.252 1.718 1.718 0 00-.265-.18 1.644 1.644 0 00-.36-.132 3.09 3.09 0 00-.383-.084 8.544 8.544 0 00-.432-.084 8.934 8.934 0 01-.48-.084c-.113-.024-.265-.06-.456-.108a2.813 2.813 0 01-.457-.168 2.932 2.932 0 01-.372-.228c-.136-.096-.24-.2-.311-.312a1.876 1.876 0 01-.192-.42 2.051 2.051 0 01-.073-.564c0-.272.056-.524.169-.756.12-.232.284-.428.491-.588.216-.168.477-.296.78-.384.305-.096.636-.144.996-.144.736 0 1.325.18 1.765.54.44.36.667.848.683 1.464h-.96a1.03 1.03 0 00-.216-.588 1.044 1.044 0 00-.516-.372 2.03 2.03 0 00-.767-.132c-.297 0-.552.04-.768.12a1.09 1.09 0 00-.505.324.78.78 0 00-.168.492.65.65 0 00.096.348c.064.096.136.176.216.24a1.5 1.5 0 00.373.168c.168.048.308.084.42.108.12.016.287.044.503.084.224.032.388.06.492.084.113.016.268.052.469.108.208.048.367.1.48.156.111.056.24.136.384.24a.963.963 0 01.336.336c.072.12.136.272.191.456.056.176.084.372.084.588 0 .608-.236 1.096-.708 1.464-.464.36-1.08.54-1.848.54zm4.652-7.752v-1.164h1.104v1.164h-1.104zM35.565 35v-6.48h1.02V35h-1.02zm6.346-.948h.708V35h-.84c-.696 0-1.244-.2-1.644-.6-.4-.408-.6-.964-.6-1.668v-3.288h-1.14v-.18l2.004-2.112h.156v1.368h2.028v.924h-2.028v3.252c0 .296.052.544.156.744.104.2.256.352.456.456.208.104.456.156.744.156zm8.66-2.268c0 .088-.008.212-.024.372h-5.532c.08.6.328 1.084.744 1.452.416.36.928.54 1.536.54.448 0 .844-.096 1.188-.288.352-.2.632-.48.84-.84h1.068c-.272.672-.68 1.196-1.224 1.572-.544.368-1.168.552-1.872.552-.936 0-1.72-.324-2.352-.972-.632-.648-.948-1.452-.948-2.412 0-.968.316-1.772.948-2.412.632-.648 1.416-.972 2.352-.972.968 0 1.756.328 2.364.984.608.656.912 1.464.912 2.424zm-3.276-2.436a2.43 2.43 0 00-1.056.228 2.067 2.067 0 00-.78.66c-.208.28-.348.604-.42.972h4.5a2.373 2.373 0 00-.42-.984 1.967 1.967 0 00-.78-.648 2.352 2.352 0 00-1.044-.228z" fill="#333"/></svg>