<svg width="143" height="33" fill="none" xmlns="http://www.w3.org/2000/svg"><path d="M64.602 20.139v-4.502c0-1.698-1.078-2.841-2.812-2.857a2.756 2.756 0 00-2.51 1.279 2.613 2.613 0 00-2.361-1.278 2.355 2.355 0 00-2.091 1.068v-.9h-1.556v7.19h1.57v-3.983c0-1.248.687-1.908 1.75-1.908s1.556.675 1.556 1.893v3.998h1.561v-3.983c0-1.248.716-1.908 1.75-1.908 1.032 0 1.57.675 1.57 1.893v3.998h1.573zm23.236-7.184h-2.54v-2.18h-1.571v2.18h-1.451v1.428h1.451v3.274c0 1.668.642 2.662 2.48 2.662a3.64 3.64 0 001.944-.556l-.447-1.338c-.418.25-.891.39-1.377.405-.776 0-1.033-.48-1.033-1.2v-3.247h2.54l.004-1.428zm13.264-.18a2.102 2.102 0 00-1.883 1.053v-.873h-1.541v7.184h1.555V16.11c0-1.2.508-1.848 1.526-1.848a2.52 2.52 0 01.973.18l.478-1.473a3.31 3.31 0 00-1.108-.196zm-20.053.75a5.322 5.322 0 00-2.917-.75c-1.809 0-2.985.873-2.985 2.298 0 1.173.866 1.894 2.466 2.119l.731.105c.851.12 1.257.345 1.257.75 0 .555-.567.873-1.63.873a3.797 3.797 0 01-2.388-.75l-.708 1.215a5.137 5.137 0 003.096.933c2.063 0 3.26-.978 3.26-2.343 0-1.263-.943-1.924-2.496-2.149l-.731-.105c-.672-.09-1.212-.225-1.212-.705 0-.525.507-.84 1.361-.84a4.589 4.589 0 012.227.615l.669-1.266zm41.653-.75a2.102 2.102 0 00-1.884 1.053v-.873h-1.54v7.184h1.555V16.11c0-1.2.508-1.848 1.526-1.848.333-.005.663.056.973.18l.478-1.473a3.31 3.31 0 00-1.108-.196zm-20.029 3.772c0 2.178 1.51 3.771 3.812 3.771.933.047 1.85-.26 2.571-.858l-.747-1.263a3.131 3.131 0 01-1.869.645c-1.242 0-2.152-.918-2.152-2.298s.913-2.284 2.152-2.3a3.13 3.13 0 011.869.646l.747-1.263a3.735 3.735 0 00-2.571-.859c-2.302 0-3.812 1.594-3.812 3.773v.006zm14.563 0v-3.602h-1.556v.874a2.709 2.709 0 00-2.257-1.054c-2.003 0-3.582 1.579-3.582 3.773 0 2.193 1.57 3.771 3.582 3.771a2.7 2.7 0 002.257-1.053v.87h1.556v-3.58zm-5.786 0c0-1.264.821-2.3 2.167-2.3 1.287 0 2.153.994 2.153 2.3 0 1.305-.866 2.298-2.153 2.298-1.346 0-2.167-1.038-2.167-2.298zm-18.767-3.773c-2.09 0-3.558 1.534-3.558 3.773 0 2.283 1.525 3.771 3.663 3.771a4.33 4.33 0 002.931-1.008l-.76-1.158a3.396 3.396 0 01-2.09.75c-1.004 0-1.914-.465-2.138-1.758h5.308c.015-.195.03-.39.03-.6 0-2.24-1.391-3.773-3.395-3.773l.01.003zm-.03 1.399c1.004 0 1.645.63 1.81 1.743h-3.705c.164-1.038.79-1.743 1.898-1.743h-.003zm39.005 2.374v-6.48h-1.555v3.758a2.702 2.702 0 00-2.257-1.053c-2.003 0-3.583 1.578-3.583 3.772 0 2.193 1.571 3.771 3.583 3.771a2.702 2.702 0 002.257-1.053v.87h1.555v-3.585zm1.818 2.928a.46.46 0 01.461.456.45.45 0 01-.135.322.45.45 0 01-.326.135.458.458 0 01-.429-.28.45.45 0 01.244-.597.47.47 0 01.191-.036h-.006zm0 .81a.336.336 0 00.248-.102.356.356 0 00-.388-.579.353.353 0 00-.209.26.359.359 0 00.096.32.348.348 0 00.259.101h-.006zm.027-.57a.192.192 0 01.126.036.13.13 0 01.034.044.13.13 0 01.011.055.128.128 0 01-.009.048.122.122 0 01-.027.04.168.168 0 01-.099.041l.138.16h-.108l-.128-.16h-.042v.16h-.09v-.42l.194-.004zm-.104.078v.114h.104a.102.102 0 00.057 0 .05.05 0 00.016-.018.05.05 0 00.005-.024.048.048 0 00-.021-.042.102.102 0 00-.057 0l-.104-.03zm-7.52-3.246c0-1.264.821-2.3 2.167-2.3 1.287 0 2.152.994 2.152 2.3 0 1.305-.865 2.298-2.152 2.298-1.346 0-2.167-1.038-2.167-2.298zm-52.514 0v-3.602h-1.556v.874a2.714 2.714 0 00-2.248-1.045c-2.003 0-3.583 1.579-3.583 3.773 0 2.193 1.57 3.771 3.583 3.771a2.699 2.699 0 002.257-1.053v.87h1.555l-.008-3.588zm-5.786 0c0-1.264.82-2.3 2.167-2.3 1.287 0 2.153.994 2.153 2.3 0 1.305-.866 2.298-2.153 2.298-1.346 0-2.167-1.035-2.167-2.298z" fill="#231F20"/><path d="M33.425 8.006h-9.404v16.988h9.404V8.006z" fill="#FF5F00"/><path d="M24.618 16.503a10.83 10.83 0 011.079-4.722 10.774 10.774 0 013.026-3.77 10.7 10.7 0 00-11.339-1.223 10.767 10.767 0 00-4.412 3.985 10.845 10.845 0 000 11.463 10.766 10.766 0 004.412 3.985 10.699 10.699 0 0011.339-1.223 10.776 10.776 0 01-3.027-3.772 10.83 10.83 0 01-1.078-4.723z" fill="#EB001B"/><path d="M46.113 16.505c0 2.027-.567 4.013-1.637 5.731s-2.6 3.1-4.414 3.985a10.699 10.699 0 01-11.34-1.224 10.782 10.782 0 003.026-3.772 10.848 10.848 0 000-9.444 10.792 10.792 0 00-3.025-3.772 10.7 10.7 0 0111.34-1.224 10.767 10.767 0 014.414 3.987 10.844 10.844 0 011.636 5.732zm-1.033 6.688v-.348h.14v-.069h-.349v.072h.14v.348l.07-.003zm.69 0v-.42h-.093l-.125.3-.126-.3h-.11v.42h.063v-.315l.116.273h.08l.117-.273v.318l.078-.003z" fill="#F79E1B"/></svg>