<svg width="143" height="33" fill="none" xmlns="http://www.w3.org/2000/svg"><path d="M64.602 20.138v-4.501c0-1.699-1.078-2.842-2.812-2.857a2.756 2.756 0 00-2.51 1.279 2.614 2.614 0 00-2.361-1.278 2.354 2.354 0 00-2.091 1.067v-.9h-1.556v7.19h1.57v-3.982c0-1.248.687-1.908 1.75-1.908s1.556.675 1.556 1.893v3.997h1.561v-3.982c0-1.248.716-1.908 1.75-1.908 1.032 0 1.57.675 1.57 1.893v3.997h1.573zm23.236-7.184h-2.54v-2.178h-1.571v2.178h-1.451v1.429h1.451v3.274c0 1.668.642 2.661 2.48 2.661a3.64 3.64 0 001.944-.555l-.447-1.338c-.418.25-.891.389-1.377.405-.776 0-1.033-.48-1.033-1.2v-3.247h2.54l.004-1.429zm13.264-.18a2.1 2.1 0 00-1.883 1.053v-.873h-1.541v7.184h1.555v-4.027c0-1.2.508-1.849 1.526-1.849a2.55 2.55 0 01.973.18l.478-1.473a3.31 3.31 0 00-1.108-.195zm-20.053.75a5.322 5.322 0 00-2.917-.75c-1.809 0-2.985.873-2.985 2.299 0 1.173.866 1.893 2.466 2.118l.731.105c.851.12 1.257.345 1.257.75 0 .556-.567.874-1.63.874a3.796 3.796 0 01-2.388-.75l-.708 1.215a5.137 5.137 0 003.096.933c2.063 0 3.26-.978 3.26-2.344 0-1.263-.943-1.923-2.496-2.148l-.731-.105c-.672-.09-1.212-.225-1.212-.705 0-.525.507-.84 1.361-.84a4.588 4.588 0 012.227.615l.669-1.267zm41.653-.75a2.1 2.1 0 00-1.884 1.053v-.873h-1.54v7.184h1.555v-4.027c0-1.2.508-1.849 1.526-1.849.333-.004.663.057.973.18l.478-1.473a3.31 3.31 0 00-1.108-.195zm-20.029 3.772c0 2.179 1.51 3.772 3.812 3.772.933.047 1.85-.26 2.571-.858l-.747-1.263a3.131 3.131 0 01-1.869.645c-1.242 0-2.152-.918-2.152-2.299 0-1.38.913-2.284 2.152-2.298a3.131 3.131 0 011.869.645l.747-1.264a3.734 3.734 0 00-2.571-.858c-2.302 0-3.812 1.594-3.812 3.772v.006zm14.563 0v-3.6h-1.556v.872a2.708 2.708 0 00-2.257-1.053c-2.003 0-3.582 1.579-3.582 3.772 0 2.194 1.57 3.772 3.582 3.772a2.7 2.7 0 002.257-1.053v.87h1.556v-3.58zm-5.786 0c0-1.263.821-2.298 2.167-2.298 1.287 0 2.153.993 2.153 2.298 0 1.306-.866 2.299-2.153 2.299-1.346 0-2.167-1.038-2.167-2.299zm-18.767-3.772c-2.09 0-3.558 1.534-3.558 3.772 0 2.284 1.525 3.772 3.663 3.772a4.33 4.33 0 002.931-1.008l-.76-1.158a3.396 3.396 0 01-2.09.75c-1.004 0-1.914-.465-2.138-1.759h5.308c.015-.195.03-.39.03-.6 0-2.238-1.391-3.772-3.395-3.772l.01.003zm-.03 1.399c1.004 0 1.645.63 1.81 1.743h-3.705c.164-1.038.79-1.744 1.898-1.744h-.003zm39.005 2.373v-6.479h-1.555v3.757a2.716 2.716 0 00-2.257-1.053c-2.003 0-3.583 1.579-3.583 3.772 0 2.194 1.571 3.772 3.583 3.772a2.702 2.702 0 002.257-1.053v.87h1.555v-3.586zm1.818 2.929a.457.457 0 01.326.777.45.45 0 01-.326.135.457.457 0 01-.429-.279.45.45 0 01.244-.597.47.47 0 01.191-.036h-.006zm0 .81a.34.34 0 00.248-.102.355.355 0 00-.388-.579.352.352 0 00-.136.104.35.35 0 00-.073.155.359.359 0 00.096.32.35.35 0 00.259.102h-.006zm.027-.57a.193.193 0 01.126.036.13.13 0 01.034.044.13.13 0 01.011.055.128.128 0 01-.009.047.122.122 0 01-.027.04.17.17 0 01-.099.042l.138.16h-.108l-.128-.16h-.042v.16h-.09v-.421l.194-.003zm-.104.078v.114h.104a.102.102 0 00.057 0 .049.049 0 00.021-.042.049.049 0 00-.021-.042.102.102 0 00-.057 0l-.104-.03zm-7.52-3.247c0-1.263.821-2.298 2.167-2.298 1.287 0 2.152.993 2.152 2.298 0 1.306-.865 2.299-2.152 2.299-1.346 0-2.167-1.038-2.167-2.299zm-52.514 0v-3.6h-1.556v.872a2.715 2.715 0 00-2.248-1.044c-2.003 0-3.583 1.579-3.583 3.772 0 2.194 1.57 3.772 3.583 3.772a2.699 2.699 0 002.257-1.053v.87h1.555l-.008-3.589zm-5.786 0c0-1.263.82-2.298 2.167-2.298 1.287 0 2.153.993 2.153 2.298 0 1.306-.866 2.299-2.153 2.299-1.346 0-2.167-1.035-2.167-2.299z" fill="#fff"/><path d="M33.425 8.007h-9.404v16.987h9.404V8.008z" fill="#FF5F00"/><path d="M24.618 16.504a10.83 10.83 0 011.079-4.722 10.774 10.774 0 013.026-3.77 10.7 10.7 0 00-11.339-1.223 10.767 10.767 0 00-4.412 3.985 10.844 10.844 0 000 11.462 10.767 10.767 0 004.412 3.985A10.7 10.7 0 0028.723 25a10.774 10.774 0 01-3.027-3.772 10.83 10.83 0 01-1.078-4.723z" fill="#EB001B"/><path d="M46.113 16.505c0 2.027-.567 4.013-1.637 5.732a10.77 10.77 0 01-4.414 3.985 10.699 10.699 0 01-11.34-1.225c1.28-1.01 2.315-2.3 3.026-3.772a10.849 10.849 0 000-9.443 10.792 10.792 0 00-3.025-3.772 10.7 10.7 0 0111.34-1.224 10.767 10.767 0 014.414 3.986 10.844 10.844 0 011.636 5.733zm-1.033 6.689v-.348h.14v-.07h-.349v.073h.14v.348l.07-.003zm.69 0v-.42h-.093l-.125.3-.126-.3h-.11v.42h.063v-.316l.116.273h.08l.117-.273v.319l.078-.003z" fill="#F79E1B"/></svg>