<svg width="48" height="48" fill="none" xmlns="http://www.w3.org/2000/svg"><path d="M38.727 34.59a22.297 22.297 0 01-.774 1.099 20.866 20.866 0 01-.227.29 20.519 20.519 0 01-3.27 3.247 19.41 19.41 0 01-.654.487 20.369 20.369 0 01-3.65 2.065c-.026.012-.259.11-.064.03a19.237 19.237 0 01-1.133.434 20.218 20.218 0 01-3.73.918 18.088 18.088 0 01-.773.091 20.686 20.686 0 01-4.683-.081c.237.03 0-.002-.04-.007l-.209-.032a19.93 19.93 0 01-1.3-.248 20.175 20.175 0 01-3.267-1.032c-.037-.015-.25-.106-.037-.015a20.664 20.664 0 01-1.348-.637 20.368 20.368 0 01-2.846-1.786l-.16-.122-.031-.024a21.046 21.046 0 01-.976-.817A20.495 20.495 0 017 35.712c.14.18 0 0-.023-.032l-.12-.161a20.373 20.373 0 01-2.316-4.024c-.092-.212.073.178-.016-.036l-.077-.19a20.206 20.206 0 01-1.25-4.58l-.03-.207-.006-.042a20.64 20.64 0 010-5.119c.005-.04.038-.278.005-.04a20.364 20.364 0 011.06-4.217c.093-.256.194-.509.298-.76.089-.215-.076.176.016-.037a20.08 20.08 0 01.28-.618 20.341 20.341 0 012.156-3.567c.024-.031.163-.213.024-.032.04-.053.082-.106.124-.159a20.825 20.825 0 011.415-1.608 20.49 20.49 0 011.835-1.663l.157-.125.031-.024a20.373 20.373 0 014.354-2.544c-.213.09 0 0 .037-.016a20.006 20.006 0 011.866-.664 20.214 20.214 0 012.91-.648c.04-.006.277-.038.04-.006.093-.013.186-.024.28-.036a20.63 20.63 0 015.158.042 20.266 20.266 0 014.523 1.21l.19.076a20.313 20.313 0 014.454 2.585c-.182-.138 0 .001.03.025l.158.125a21.102 21.102 0 01.968.827 20.482 20.482 0 012.406 2.603c-.14-.18 0 0 .023.032a20.012 20.012 0 01.736 1.041 20.379 20.379 0 011.619 2.957l.082.187c.092.212-.074-.178.016.036a19.956 19.956 0 01.459 1.212 20.24 20.24 0 01.889 3.696c.034.237-.026-.197.006.04l.025.21a20.289 20.289 0 01.143 2.42c0 .487.406.894.894.894a.902.902 0 00.893-.894c-.008-4.8-1.649-9.429-4.603-13.201-2.843-3.63-6.928-6.256-11.39-7.396-4.709-1.204-9.733-.714-14.15 1.29-4.175 1.896-7.68 5.232-9.847 9.266-2.296 4.276-3.018 9.251-2.143 14.015.836 4.55 3.26 8.78 6.703 11.859a21.414 21.414 0 0012.815 5.376c5.265.357 10.485-1.345 14.615-4.6 1.777-1.4 3.305-3.11 4.55-4.998.268-.407.082-.986-.32-1.222-.438-.257-.956-.086-1.224.32z" fill="#F64F63"/><path d="M38.727 34.59a22.297 22.297 0 01-.774 1.099 20.866 20.866 0 01-.227.29 20.519 20.519 0 01-3.27 3.247 19.41 19.41 0 01-.654.487 20.369 20.369 0 01-3.65 2.065c-.026.012-.259.11-.064.03a19.237 19.237 0 01-1.133.434 20.218 20.218 0 01-3.73.918 18.088 18.088 0 01-.773.091 20.686 20.686 0 01-4.683-.081c.237.03 0-.002-.04-.007l-.209-.032a19.93 19.93 0 01-1.3-.248 20.175 20.175 0 01-3.267-1.032c-.037-.015-.25-.106-.037-.015a20.664 20.664 0 01-1.348-.637 20.368 20.368 0 01-2.846-1.786l-.16-.122-.031-.024a21.046 21.046 0 01-.976-.817A20.495 20.495 0 017 35.712c.14.18 0 0-.023-.032l-.12-.161a20.373 20.373 0 01-2.316-4.024c-.092-.212.073.178-.016-.036l-.077-.19a20.206 20.206 0 01-1.25-4.58l-.03-.207-.006-.042a20.64 20.64 0 010-5.119c.005-.04.038-.278.005-.04a20.364 20.364 0 011.06-4.217c.093-.256.194-.509.298-.76.089-.215-.076.176.016-.037a20.08 20.08 0 01.28-.618 20.341 20.341 0 012.156-3.567c.024-.031.163-.213.024-.032.04-.053.082-.106.124-.159a20.825 20.825 0 011.415-1.608 20.49 20.49 0 011.835-1.663l.157-.125.031-.024a20.373 20.373 0 014.354-2.544c-.213.09 0 0 .037-.016a20.006 20.006 0 011.866-.664 20.214 20.214 0 012.91-.648c.04-.006.277-.038.04-.006.093-.013.186-.024.28-.036a20.63 20.63 0 015.158.042 20.266 20.266 0 014.523 1.21l.19.076a20.313 20.313 0 014.454 2.585c-.182-.138 0 .001.03.025l.158.125a21.102 21.102 0 01.968.827 20.482 20.482 0 012.406 2.603c-.14-.18 0 0 .023.032a20.012 20.012 0 01.736 1.041 20.379 20.379 0 011.619 2.957l.082.187c.092.212-.074-.178.016.036a19.956 19.956 0 01.459 1.212 20.24 20.24 0 01.889 3.696c.034.237-.026-.197.006.04l.025.21a20.289 20.289 0 01.143 2.42c0 .487.406.894.894.894a.902.902 0 00.893-.894c-.008-4.8-1.649-9.429-4.603-13.201-2.843-3.63-6.928-6.256-11.39-7.396-4.709-1.204-9.733-.714-14.15 1.29-4.175 1.896-7.68 5.232-9.847 9.266-2.296 4.276-3.018 9.251-2.143 14.015.836 4.55 3.26 8.78 6.703 11.859a21.414 21.414 0 0012.815 5.376c5.265.357 10.485-1.345 14.615-4.6 1.777-1.4 3.305-3.11 4.55-4.998.268-.407.082-.986-.32-1.222-.438-.257-.956-.086-1.224.32z" fill="url(#paint0_linear)"/><path d="M22.603 22.72a5.808 5.808 0 01-.584-.035c.219.025.004-.002-.035-.008a4.734 4.734 0 01-.963-.279c.197.08.003 0-.031-.016a4.786 4.786 0 01-.771-.454 4.813 4.813 0 01-.62-.588 5.141 5.141 0 01-.118-.14c-.133-.16.103.14-.022-.027a4.75 4.75 0 01-.416-.68c-.028-.056-.054-.112-.08-.168-.088-.192.065.164-.014-.032a4.741 4.741 0 01-.23-.781 3.1 3.1 0 01-.035-.188c-.037-.215.02.181-.006-.036a4.852 4.852 0 01.006-1.076 4.74 4.74 0 01.18-.735c.02-.06.041-.118.063-.176.013-.035.095-.23.011-.034a4.735 4.735 0 01.486-.854c.02-.03.148-.195.018-.03a4.793 4.793 0 01.682-.698c.028-.025.192-.152.025-.024a4.787 4.787 0 01.62-.396c.055-.03.11-.057.165-.085.038-.018.291-.128.087-.043a4.746 4.746 0 01.998-.287 4.556 4.556 0 01.453-.033 4.836 4.836 0 01.687.031 4.772 4.772 0 01.853.222c.039.014.296.12.092.033a4.68 4.68 0 01.953.557c-.175-.13.04.037.072.064a4.812 4.812 0 01.635.659c-.132-.163-.003 0 .019.03a4.783 4.783 0 01.46.797c.088.192-.065-.164.014.033a4.727 4.727 0 01.231.78c.01.051.062.388.032.16.025.194.034.39.036.585.003.447.37.82.82.82a.827.827 0 00.82-.82c-.016-2.404-1.554-4.501-3.807-5.3-1.094-.39-2.35-.384-3.453-.04-1.136.353-2.102 1.069-2.82 2.009-1.288 1.689-1.418 4.002-.49 5.883.92 1.863 2.922 3.027 4.977 3.041a.827.827 0 00.82-.82.828.828 0 00-.82-.82z" fill="#F64F63"/><path d="M22.603 22.72a5.808 5.808 0 01-.584-.035c.219.025.004-.002-.035-.008a4.734 4.734 0 01-.963-.279c.197.08.003 0-.031-.016a4.786 4.786 0 01-.771-.454 4.813 4.813 0 01-.62-.588 5.141 5.141 0 01-.118-.14c-.133-.16.103.14-.022-.027a4.75 4.75 0 01-.416-.68c-.028-.056-.054-.112-.08-.168-.088-.192.065.164-.014-.032a4.741 4.741 0 01-.23-.781 3.1 3.1 0 01-.035-.188c-.037-.215.02.181-.006-.036a4.852 4.852 0 01.006-1.076 4.74 4.74 0 01.18-.735c.02-.06.041-.118.063-.176.013-.035.095-.23.011-.034a4.735 4.735 0 01.486-.854c.02-.03.148-.195.018-.03a4.793 4.793 0 01.682-.698c.028-.025.192-.152.025-.024a4.787 4.787 0 01.62-.396c.055-.03.11-.057.165-.085.038-.018.291-.128.087-.043a4.746 4.746 0 01.998-.287 4.556 4.556 0 01.453-.033 4.836 4.836 0 01.687.031 4.772 4.772 0 01.853.222c.039.014.296.12.092.033a4.68 4.68 0 01.953.557c-.175-.13.04.037.072.064a4.812 4.812 0 01.635.659c-.132-.163-.003 0 .019.03a4.783 4.783 0 01.46.797c.088.192-.065-.164.014.033a4.727 4.727 0 01.231.78c.01.051.062.388.032.16.025.194.034.39.036.585.003.447.37.82.82.82a.827.827 0 00.82-.82c-.016-2.404-1.554-4.501-3.807-5.3-1.094-.39-2.35-.384-3.453-.04-1.136.353-2.102 1.069-2.82 2.009-1.288 1.689-1.418 4.002-.49 5.883.92 1.863 2.922 3.027 4.977 3.041a.827.827 0 00.82-.82.828.828 0 00-.82-.82z" fill="url(#paint1_linear)"/><path d="M22.603 24.372c.131 0 .261.006.392.015.064.005.128.013.192.02-.218-.025-.003.002.035.008.27.046.533.12.79.212.058.02.116.044.174.067-.198-.08-.004 0 .03.016a4.786 4.786 0 01.772.454 4.69 4.69 0 01.738.728c.132.16-.104-.14.02.027a4.813 4.813 0 01.417.68c.028.056.054.112.08.168.089.192-.065-.164.014.032a4.754 4.754 0 01.266.97c.036.214-.02-.183.005.035a4.804 4.804 0 01.02.782 4.557 4.557 0 01-.026.294 4.733 4.733 0 01-.243.911c-.013.035-.095.23-.01.034a4.767 4.767 0 01-.486.854c-.021.03-.149.195-.02.03a4.806 4.806 0 01-.68.699c-.028.023-.193.15-.026.023a4.75 4.75 0 01-.62.396c-.054.03-.11.057-.165.084-.037.019-.291.129-.086.044a4.744 4.744 0 01-.999.287 5.062 5.062 0 01-.452.033 4.837 4.837 0 01-.688-.031 4.706 4.706 0 01-.852-.222c-.04-.014-.296-.12-.093-.033a4.71 4.71 0 01-.953-.558c.175.13-.04-.036-.072-.063a4.81 4.81 0 01-.635-.659c.132.163.003 0-.018-.03a4.785 4.785 0 01-.46-.797c-.09-.192.064.164-.015-.033a4.735 4.735 0 01-.23-.78c-.012-.051-.062-.388-.033-.16a4.81 4.81 0 01-.035-.585.828.828 0 00-.82-.82.827.827 0 00-.821.82c.016 2.404 1.555 4.501 3.807 5.3 1.095.39 2.35.384 3.453.04 1.136-.353 2.103-1.069 2.82-2.01 1.288-1.688 1.419-4.001.49-5.882-.92-1.863-2.922-3.027-4.977-3.041a.827.827 0 00-.82.82c0 .45.373.818.82.82z" fill="#F64F63"/><path d="M22.603 24.372c.131 0 .261.006.392.015.064.005.128.013.192.02-.218-.025-.003.002.035.008.27.046.533.12.79.212.058.02.116.044.174.067-.198-.08-.004 0 .03.016a4.786 4.786 0 01.772.454 4.69 4.69 0 01.738.728c.132.16-.104-.14.02.027a4.813 4.813 0 01.417.68c.028.056.054.112.08.168.089.192-.065-.164.014.032a4.754 4.754 0 01.266.97c.036.214-.02-.183.005.035a4.804 4.804 0 01.02.782 4.557 4.557 0 01-.026.294 4.733 4.733 0 01-.243.911c-.013.035-.095.23-.01.034a4.767 4.767 0 01-.486.854c-.021.03-.149.195-.02.03a4.806 4.806 0 01-.68.699c-.028.023-.193.15-.026.023a4.75 4.75 0 01-.62.396c-.054.03-.11.057-.165.084-.037.019-.291.129-.086.044a4.744 4.744 0 01-.999.287 5.062 5.062 0 01-.452.033 4.837 4.837 0 01-.688-.031 4.706 4.706 0 01-.852-.222c-.04-.014-.296-.12-.093-.033a4.71 4.71 0 01-.953-.558c.175.13-.04-.036-.072-.063a4.81 4.81 0 01-.635-.659c.132.163.003 0-.018-.03a4.785 4.785 0 01-.46-.797c-.09-.192.064.164-.015-.033a4.735 4.735 0 01-.23-.78c-.012-.051-.062-.388-.033-.16a4.81 4.81 0 01-.035-.585.828.828 0 00-.82-.82.827.827 0 00-.821.82c.016 2.404 1.555 4.501 3.807 5.3 1.095.39 2.35.384 3.453.04 1.136-.353 2.103-1.069 2.82-2.01 1.288-1.688 1.419-4.001.49-5.882-.92-1.863-2.922-3.027-4.977-3.041a.827.827 0 00-.82.82c0 .45.373.818.82.82z" fill="url(#paint2_linear)"/><path d="M21.77 12.448v22.874c0 .447.374.82.82.82a.828.828 0 00.821-.82V12.448a.828.828 0 00-.82-.82.828.828 0 00-.82.82z" fill="#F64F63"/><path d="M21.77 12.448v22.874c0 .447.374.82.82.82a.828.828 0 00.821-.82V12.448a.828.828 0 00-.82-.82.828.828 0 00-.82.82z" fill="url(#paint3_linear)"/><path d="M45.477 19.979l-3.275 3.276h1.264l-3.276-3.276a.903.903 0 00-1.264 0 .903.903 0 000 1.264l3.276 3.276a.903.903 0 001.264 0l3.276-3.276a.903.903 0 000-1.264.903.903 0 00-1.264 0z" fill="#F64F63"/><path d="M45.477 19.979l-3.275 3.276h1.264l-3.276-3.276a.903.903 0 00-1.264 0 .903.903 0 000 1.264l3.276 3.276a.903.903 0 001.264 0l3.276-3.276a.903.903 0 000-1.264.903.903 0 00-1.264 0z" fill="url(#paint4_linear)"/><defs><linearGradient id="paint0_linear" x1="22.475" y1="2.634" x2="22.475" y2="45.136" gradientUnits="userSpaceOnUse"><stop stop-color="#2768CC"/><stop offset="1" stop-color="#fff" stop-opacity="0"/></linearGradient><linearGradient id="paint1_linear" x1="22.61" y1="13.173" x2="22.61" y2="24.361" gradientUnits="userSpaceOnUse"><stop stop-color="#2768CC"/><stop offset="1" stop-color="#fff" stop-opacity="0"/></linearGradient><linearGradient id="paint2_linear" x1="22.596" y1="22.731" x2="22.596" y2="33.919" gradientUnits="userSpaceOnUse"><stop stop-color="#2768CC"/><stop offset="1" stop-color="#fff" stop-opacity="0"/></linearGradient><linearGradient id="paint3_linear" x1="22.591" y1="11.628" x2="22.591" y2="36.142" gradientUnits="userSpaceOnUse"><stop stop-color="#2768CC"/><stop offset="1" stop-color="#fff" stop-opacity="0"/></linearGradient><linearGradient id="paint4_linear" x1="42.834" y1="19.721" x2="42.834" y2="24.777" gradientUnits="userSpaceOnUse"><stop stop-color="#2768CC"/><stop offset="1" stop-color="#fff" stop-opacity="0"/></linearGradient></defs></svg>