<svg width="71" height="23" fill="none" xmlns="http://www.w3.org/2000/svg"><path d="M14.6 16.42c0 .86-.15 1.66-.45 2.4-.3.74-.75 1.38-1.35 1.92-.6.54-1.35.96-2.25 1.26-.88.3-1.9.45-3.06.45-1.36 0-2.49-.19-3.39-.57-.9-.38-1.62-.86-2.16-1.44s-.93-1.2-1.17-1.86c-.22-.68-.33-1.32-.33-1.92 0-.6.08-1.15.24-1.65.18-.52.42-.99.72-1.41.3-.44.64-.84 1.02-1.2s.78-.68 1.2-.96c-.92-.64-1.61-1.33-2.07-2.07-.44-.76-.66-1.68-.66-2.76 0-.78.15-1.52.45-2.22.32-.72.77-1.35 1.35-1.89.58-.54 1.28-.97 2.1-1.29C5.61.89 6.52.73 7.52.73c1.18 0 2.18.17 3 .51.84.34 1.52.78 2.04 1.32.54.54.93 1.14 1.17 1.8.24.66.36 1.3.36 1.92 0 1.1-.3 2.08-.9 2.94-.6.84-1.29 1.51-2.07 2.01 1.18.64 2.05 1.38 2.61 2.22.58.84.87 1.83.87 2.97zm-10.59.18c0 .3.06.62.18.96.12.34.32.65.6.93.28.28.64.52 1.08.72.44.18.99.27 1.65.27.6 0 1.12-.08 1.56-.24.44-.16.8-.37 1.08-.63.28-.28.49-.59.63-.93.14-.36.21-.72.21-1.08 0-.56-.11-1.05-.33-1.47-.22-.42-.54-.78-.96-1.08-.4-.32-.88-.59-1.44-.81-.56-.24-1.18-.45-1.86-.63-.72.46-1.3 1.02-1.74 1.68-.44.64-.66 1.41-.66 2.31zm6.54-10.26c0-.26-.06-.54-.18-.84-.1-.32-.28-.61-.54-.87-.24-.26-.55-.48-.93-.66-.38-.18-.84-.27-1.38-.27-.54 0-1.01.09-1.41.27-.38.16-.69.38-.93.66-.24.26-.42.55-.54.87-.12.3-.18.6-.18.9 0 .76.28 1.48.84 2.16.58.68 1.54 1.22 2.88 1.62.74-.46 1.32-.98 1.74-1.56.42-.6.63-1.36.63-2.28zm22.75 5.25c0 3.5-.64 6.19-1.92 8.07-1.28 1.86-3.05 2.79-5.31 2.79s-4.03-.93-5.31-2.79c-1.28-1.88-1.92-4.57-1.92-8.07 0-1.74.16-3.28.48-4.62.34-1.36.82-2.5 1.44-3.42.64-.92 1.4-1.62 2.28-2.1.9-.48 1.91-.72 3.03-.72 2.26 0 4.03.94 5.31 2.82 1.28 1.86 1.92 4.54 1.92 8.04zm-3.75 0c0-1.08-.06-2.09-.18-3.03s-.32-1.75-.6-2.43c-.26-.7-.61-1.25-1.05-1.65-.44-.4-.99-.6-1.65-.6-.66 0-1.22.2-1.68.6-.44.4-.8.95-1.08 1.65-.26.68-.45 1.49-.57 2.43-.1.94-.15 1.95-.15 3.03 0 1.08.05 2.09.15 3.03.12.94.31 1.76.57 2.46.28.68.64 1.22 1.08 1.62.46.4 1.02.6 1.68.6.66 0 1.21-.2 1.65-.6.44-.4.79-.94 1.05-1.62.28-.7.48-1.52.6-2.46s.18-1.95.18-3.03zm22.302 0c0 3.5-.64 6.19-1.92 8.07-1.28 1.86-3.05 2.79-5.31 2.79s-4.03-.93-5.31-2.79c-1.28-1.88-1.92-4.57-1.92-8.07 0-1.74.16-3.28.48-4.62.34-1.36.82-2.5 1.44-3.42.64-.92 1.4-1.62 2.28-2.1.9-.48 1.91-.72 3.03-.72 2.26 0 4.03.94 5.31 2.82 1.28 1.86 1.92 4.54 1.92 8.04zm-3.75 0c0-1.08-.06-2.09-.18-3.03s-.32-1.75-.6-2.43c-.26-.7-.61-1.25-1.05-1.65-.44-.4-.99-.6-1.65-.6-.66 0-1.22.2-1.68.6-.44.4-.8.95-1.08 1.65-.26.68-.45 1.49-.57 2.43-.1.94-.15 1.95-.15 3.03 0 1.08.05 2.09.15 3.03.12.94.31 1.76.57 2.46.28.68.64 1.22 1.08 1.62.46.4 1.02.6 1.68.6.66 0 1.21-.2 1.65-.6.44-.4.79-.94 1.05-1.62.28-.7.48-1.52.6-2.46s.18-1.95.18-3.03zm8.11.3h5.34V6.01h3.24v5.88h5.34v3.06h-5.34v5.88h-3.24v-5.88h-5.34v-3.06z" fill="#F64F63"/><path d="M14.6 16.42c0 .86-.15 1.66-.45 2.4-.3.74-.75 1.38-1.35 1.92-.6.54-1.35.96-2.25 1.26-.88.3-1.9.45-3.06.45-1.36 0-2.49-.19-3.39-.57-.9-.38-1.62-.86-2.16-1.44s-.93-1.2-1.17-1.86c-.22-.68-.33-1.32-.33-1.92 0-.6.08-1.15.24-1.65.18-.52.42-.99.72-1.41.3-.44.64-.84 1.02-1.2s.78-.68 1.2-.96c-.92-.64-1.61-1.33-2.07-2.07-.44-.76-.66-1.68-.66-2.76 0-.78.15-1.52.45-2.22.32-.72.77-1.35 1.35-1.89.58-.54 1.28-.97 2.1-1.29C5.61.89 6.52.73 7.52.73c1.18 0 2.18.17 3 .51.84.34 1.52.78 2.04 1.32.54.54.93 1.14 1.17 1.8.24.66.36 1.3.36 1.92 0 1.1-.3 2.08-.9 2.94-.6.84-1.29 1.51-2.07 2.01 1.18.64 2.05 1.38 2.61 2.22.58.84.87 1.83.87 2.97zm-10.59.18c0 .3.06.62.18.96.12.34.32.65.6.93.28.28.64.52 1.08.72.44.18.99.27 1.65.27.6 0 1.12-.08 1.56-.24.44-.16.8-.37 1.08-.63.28-.28.49-.59.63-.93.14-.36.21-.72.21-1.08 0-.56-.11-1.05-.33-1.47-.22-.42-.54-.78-.96-1.08-.4-.32-.88-.59-1.44-.81-.56-.24-1.18-.45-1.86-.63-.72.46-1.3 1.02-1.74 1.68-.44.64-.66 1.41-.66 2.31zm6.54-10.26c0-.26-.06-.54-.18-.84-.1-.32-.28-.61-.54-.87-.24-.26-.55-.48-.93-.66-.38-.18-.84-.27-1.38-.27-.54 0-1.01.09-1.41.27-.38.16-.69.38-.93.66-.24.26-.42.55-.54.87-.12.3-.18.6-.18.9 0 .76.28 1.48.84 2.16.58.68 1.54 1.22 2.88 1.62.74-.46 1.32-.98 1.74-1.56.42-.6.63-1.36.63-2.28zm22.75 5.25c0 3.5-.64 6.19-1.92 8.07-1.28 1.86-3.05 2.79-5.31 2.79s-4.03-.93-5.31-2.79c-1.28-1.88-1.92-4.57-1.92-8.07 0-1.74.16-3.28.48-4.62.34-1.36.82-2.5 1.44-3.42.64-.92 1.4-1.62 2.28-2.1.9-.48 1.91-.72 3.03-.72 2.26 0 4.03.94 5.31 2.82 1.28 1.86 1.92 4.54 1.92 8.04zm-3.75 0c0-1.08-.06-2.09-.18-3.03s-.32-1.75-.6-2.43c-.26-.7-.61-1.25-1.05-1.65-.44-.4-.99-.6-1.65-.6-.66 0-1.22.2-1.68.6-.44.4-.8.95-1.08 1.65-.26.68-.45 1.49-.57 2.43-.1.94-.15 1.95-.15 3.03 0 1.08.05 2.09.15 3.03.12.94.31 1.76.57 2.46.28.68.64 1.22 1.08 1.62.46.4 1.02.6 1.68.6.66 0 1.21-.2 1.65-.6.44-.4.79-.94 1.05-1.62.28-.7.48-1.52.6-2.46s.18-1.95.18-3.03zm22.302 0c0 3.5-.64 6.19-1.92 8.07-1.28 1.86-3.05 2.79-5.31 2.79s-4.03-.93-5.31-2.79c-1.28-1.88-1.92-4.57-1.92-8.07 0-1.74.16-3.28.48-4.62.34-1.36.82-2.5 1.44-3.42.64-.92 1.4-1.62 2.28-2.1.9-.48 1.91-.72 3.03-.72 2.26 0 4.03.94 5.31 2.82 1.28 1.86 1.92 4.54 1.92 8.04zm-3.75 0c0-1.08-.06-2.09-.18-3.03s-.32-1.75-.6-2.43c-.26-.7-.61-1.25-1.05-1.65-.44-.4-.99-.6-1.65-.6-.66 0-1.22.2-1.68.6-.44.4-.8.95-1.08 1.65-.26.68-.45 1.49-.57 2.43-.1.94-.15 1.95-.15 3.03 0 1.08.05 2.09.15 3.03.12.94.31 1.76.57 2.46.28.68.64 1.22 1.08 1.62.46.4 1.02.6 1.68.6.66 0 1.21-.2 1.65-.6.44-.4.79-.94 1.05-1.62.28-.7.48-1.52.6-2.46s.18-1.95.18-3.03zm8.11.3h5.34V6.01h3.24v5.88h5.34v3.06h-5.34v5.88h-3.24v-5.88h-5.34v-3.06z" fill="url(#paint0_linear)"/><defs><linearGradient id="paint0_linear" x1="36.5" y1="-4" x2="36.5" y2="26" gradientUnits="userSpaceOnUse"><stop stop-color="#2768CC"/><stop offset="1" stop-color="#fff" stop-opacity="0"/></linearGradient></defs></svg>