<svg width="62" height="23" fill="none" xmlns="http://www.w3.org/2000/svg"><path d="M7.61 11.23c.58 0 1.15-.05 1.71-.15.56-.12 1.04-.29 1.44-.51.02-.22.03-.41.03-.57v-.42c0-.8-.06-1.55-.18-2.25-.1-.72-.29-1.34-.57-1.86-.26-.54-.63-.96-1.11-1.26-.46-.32-1.04-.48-1.74-.48-.58 0-1.08.12-1.5.36-.4.24-.73.55-.99.93s-.45.79-.57 1.23c-.12.44-.18.87-.18 1.29 0 1.22.29 2.14.87 2.76.6.62 1.53.93 2.79.93zm2.85 2.19c-.48.22-1.01.39-1.59.51-.58.12-1.14.18-1.68.18-1.24 0-2.3-.16-3.18-.48-.86-.34-1.57-.8-2.13-1.38-.54-.6-.94-1.29-1.2-2.07a7.92 7.92 0 01-.39-2.52c0-.78.13-1.57.39-2.37.26-.82.67-1.57 1.23-2.25.56-.68 1.27-1.23 2.13-1.65C4.9.95 5.92.73 7.1.73c2.44 0 4.28.79 5.52 2.37 1.26 1.56 1.89 3.77 1.89 6.63 0 4.04-1.04 7.1-3.12 9.18s-5.27 3.13-9.57 3.15l-.15-3.03c1.2 0 2.28-.1 3.24-.3.98-.2 1.83-.52 2.55-.96a6.08 6.08 0 001.86-1.71c.5-.72.88-1.6 1.14-2.64zm18.58 2.64c0-.66-.13-1.25-.39-1.77s-.72-.96-1.38-1.32c-.64-.36-1.51-.63-2.61-.81-1.08-.18-2.45-.27-4.11-.27.22-1.92.39-3.74.51-5.46.12-1.74.22-3.48.3-5.22h10.62v3.06h-7.53c-.02.34-.05.73-.09 1.17-.02.42-.05.85-.09 1.29a24.89 24.89 0 01-.21 2.28c2.96.16 5.14.84 6.54 2.04 1.42 1.18 2.13 2.8 2.13 4.86 0 .94-.16 1.81-.48 2.61-.32.8-.81 1.49-1.47 2.07-.66.58-1.49 1.04-2.49 1.38-1 .32-2.17.48-3.51.48-.54 0-1.09-.04-1.65-.12-.56-.08-1.1-.18-1.62-.3-.5-.1-.95-.21-1.35-.33-.4-.12-.7-.23-.9-.33l.69-3.06c.42.2 1.02.42 1.8.66.8.22 1.77.33 2.91.33.78 0 1.45-.08 2.01-.24.56-.18 1.01-.42 1.35-.72.36-.3.62-.64.78-1.02.16-.4.24-.82.24-1.26zm18.552-9.63c0 1.82-.47 3.22-1.41 4.2-.92.98-2.13 1.47-3.63 1.47-.74 0-1.42-.12-2.04-.36-.62-.26-1.15-.63-1.59-1.11-.44-.48-.79-1.07-1.05-1.77-.24-.72-.36-1.53-.36-2.43 0-1.84.46-3.24 1.38-4.2.94-.98 2.16-1.47 3.66-1.47s2.71.49 3.63 1.47c.94.96 1.41 2.36 1.41 4.2zm-2.85 0c0-1.06-.2-1.85-.6-2.37-.38-.54-.91-.81-1.59-.81s-1.21.27-1.59.81c-.38.52-.57 1.31-.57 2.37s.19 1.86.57 2.4c.38.52.91.78 1.59.78s1.21-.26 1.59-.78c.4-.54.6-1.34.6-2.4zm8.94-5.22h3.45L45.402 22h-3.45l11.73-20.79zm7.92 15.6c0 1.82-.47 3.22-1.41 4.2-.92.98-2.13 1.47-3.63 1.47-.74 0-1.42-.13-2.04-.39-.62-.24-1.15-.6-1.59-1.08-.44-.48-.79-1.07-1.05-1.77-.24-.72-.36-1.53-.36-2.43 0-1.84.46-3.24 1.38-4.2.94-.98 2.16-1.47 3.66-1.47s2.71.49 3.63 1.47c.94.96 1.41 2.36 1.41 4.2zm-2.85 0c0-1.06-.2-1.85-.6-2.37-.38-.54-.91-.81-1.59-.81s-1.21.27-1.59.81c-.38.52-.57 1.31-.57 2.37s.19 1.86.57 2.4c.38.52.91.78 1.59.78s1.21-.26 1.59-.78c.4-.54.6-1.34.6-2.4z" fill="#F64F63"/><path d="M7.61 11.23c.58 0 1.15-.05 1.71-.15.56-.12 1.04-.29 1.44-.51.02-.22.03-.41.03-.57v-.42c0-.8-.06-1.55-.18-2.25-.1-.72-.29-1.34-.57-1.86-.26-.54-.63-.96-1.11-1.26-.46-.32-1.04-.48-1.74-.48-.58 0-1.08.12-1.5.36-.4.24-.73.55-.99.93s-.45.79-.57 1.23c-.12.44-.18.87-.18 1.29 0 1.22.29 2.14.87 2.76.6.62 1.53.93 2.79.93zm2.85 2.19c-.48.22-1.01.39-1.59.51-.58.12-1.14.18-1.68.18-1.24 0-2.3-.16-3.18-.48-.86-.34-1.57-.8-2.13-1.38-.54-.6-.94-1.29-1.2-2.07a7.92 7.92 0 01-.39-2.52c0-.78.13-1.57.39-2.37.26-.82.67-1.57 1.23-2.25.56-.68 1.27-1.23 2.13-1.65C4.9.95 5.92.73 7.1.73c2.44 0 4.28.79 5.52 2.37 1.26 1.56 1.89 3.77 1.89 6.63 0 4.04-1.04 7.1-3.12 9.18s-5.27 3.13-9.57 3.15l-.15-3.03c1.2 0 2.28-.1 3.24-.3.98-.2 1.83-.52 2.55-.96a6.08 6.08 0 001.86-1.71c.5-.72.88-1.6 1.14-2.64zm18.58 2.64c0-.66-.13-1.25-.39-1.77s-.72-.96-1.38-1.32c-.64-.36-1.51-.63-2.61-.81-1.08-.18-2.45-.27-4.11-.27.22-1.92.39-3.74.51-5.46.12-1.74.22-3.48.3-5.22h10.62v3.06h-7.53c-.02.34-.05.73-.09 1.17-.02.42-.05.85-.09 1.29a24.89 24.89 0 01-.21 2.28c2.96.16 5.14.84 6.54 2.04 1.42 1.18 2.13 2.8 2.13 4.86 0 .94-.16 1.81-.48 2.61-.32.8-.81 1.49-1.47 2.07-.66.58-1.49 1.04-2.49 1.38-1 .32-2.17.48-3.51.48-.54 0-1.09-.04-1.65-.12-.56-.08-1.1-.18-1.62-.3-.5-.1-.95-.21-1.35-.33-.4-.12-.7-.23-.9-.33l.69-3.06c.42.2 1.02.42 1.8.66.8.22 1.77.33 2.91.33.78 0 1.45-.08 2.01-.24.56-.18 1.01-.42 1.35-.72.36-.3.62-.64.78-1.02.16-.4.24-.82.24-1.26zm18.552-9.63c0 1.82-.47 3.22-1.41 4.2-.92.98-2.13 1.47-3.63 1.47-.74 0-1.42-.12-2.04-.36-.62-.26-1.15-.63-1.59-1.11-.44-.48-.79-1.07-1.05-1.77-.24-.72-.36-1.53-.36-2.43 0-1.84.46-3.24 1.38-4.2.94-.98 2.16-1.47 3.66-1.47s2.71.49 3.63 1.47c.94.96 1.41 2.36 1.41 4.2zm-2.85 0c0-1.06-.2-1.85-.6-2.37-.38-.54-.91-.81-1.59-.81s-1.21.27-1.59.81c-.38.52-.57 1.31-.57 2.37s.19 1.86.57 2.4c.38.52.91.78 1.59.78s1.21-.26 1.59-.78c.4-.54.6-1.34.6-2.4zm8.94-5.22h3.45L45.402 22h-3.45l11.73-20.79zm7.92 15.6c0 1.82-.47 3.22-1.41 4.2-.92.98-2.13 1.47-3.63 1.47-.74 0-1.42-.13-2.04-.39-.62-.24-1.15-.6-1.59-1.08-.44-.48-.79-1.07-1.05-1.77-.24-.72-.36-1.53-.36-2.43 0-1.84.46-3.24 1.38-4.2.94-.98 2.16-1.47 3.66-1.47s2.71.49 3.63 1.47c.94.96 1.41 2.36 1.41 4.2zm-2.85 0c0-1.06-.2-1.85-.6-2.37-.38-.54-.91-.81-1.59-.81s-1.21.27-1.59.81c-.38.52-.57 1.31-.57 2.37s.19 1.86.57 2.4c.38.52.91.78 1.59.78s1.21-.26 1.59-.78c.4-.54.6-1.34.6-2.4z" fill="url(#paint0_linear)"/><defs><linearGradient id="paint0_linear" x1="32" y1="-4" x2="32" y2="26" gradientUnits="userSpaceOnUse"><stop stop-color="#2768CC"/><stop offset="1" stop-color="#fff" stop-opacity="0"/></linearGradient></defs></svg>