<svg width="20" height="13" fill="none" xmlns="http://www.w3.org/2000/svg"><path d="M13.223 0a5.67 5.67 0 00-3.556 1.266A5.667 5.667 0 006.11 0C2.864 0 .222 2.797.222 6.234c0 3.438 2.642 6.235 5.888 6.235a5.671 5.671 0 003.557-1.266 5.667 5.667 0 003.556 1.266c3.247 0 5.888-2.797 5.888-6.235C19.111 2.797 16.47 0 13.223 0zM9.667 2.852c.182.216.347.447.492.692h-.985c.145-.245.31-.477.493-.692zM8.66 4.715h2.011c.09.304.153.616.188.933H8.474c.034-.317.097-.629.187-.933zM8.474 6.82h2.386a5.27 5.27 0 01-.188.933h-2.01a5.269 5.269 0 01-.188-.933zm1.193 2.797a5.109 5.109 0 01-.493-.692h.985a5.11 5.11 0 01-.492.692zm3.556 1.68a4.59 4.59 0 01-2.727-.904 6.339 6.339 0 001.08-1.835 6.52 6.52 0 00.422-2.324 6.52 6.52 0 00-.423-2.323 6.34 6.34 0 00-1.079-1.835 4.59 4.59 0 012.727-.904c2.636 0 4.781 2.27 4.781 5.062 0 2.792-2.145 5.063-4.78 5.063z" fill="#333"/></svg>