<svg width="28" height="10" fill="none" xmlns="http://www.w3.org/2000/svg"><path d="M11.402.68l-1.328 8.504h2.123L13.525.681h-2.123zm6.405 3.464c-.742-.376-1.197-.63-1.197-1.016.01-.35.385-.71 1.224-.71a3.608 3.608 0 011.581.315l.193.088.289-1.779a5.229 5.229 0 00-1.906-.35c-2.097 0-3.574 1.121-3.583 2.725-.017 1.184 1.057 1.84 1.861 2.234.822.405 1.101.667 1.101 1.026-.009.551-.664.805-1.275.805-.847 0-1.302-.13-1.993-.438l-.28-.13-.296 1.848c.498.228 1.416.429 2.368.44 2.228 0 3.679-1.105 3.697-2.815.007-.937-.56-1.655-1.784-2.243zM25.341.707h-1.643c-.507 0-.891.15-1.11.684l-3.155 7.793h2.229l.614-1.687h2.493l.318 1.694h1.966L25.34.707zm-2.447 5.087c.043.004.855-2.754.855-2.754l.647 2.754h-1.502zM8.299.681L6.22 6.458l-.227-1.14c-.385-1.314-1.59-2.743-2.936-3.452l1.905 7.31h2.246L10.546.682H8.299V.68z" fill="#333"/><path d="M5.292 1.777C5.13 1.128 4.613.69 3.911.682H.616L.582.839c2.57.652 4.727 2.657 5.427 4.543l-.717-3.605z" fill="#333"/></svg>