<svg width="14" height="15" fill="none" xmlns="http://www.w3.org/2000/svg"><path d="M2.917 9.281a.646.646 0 01.19.576l-.663 3.703a.636.636 0 00.575.742.64.64 0 00.341-.066l3.324-1.776a.648.648 0 01.61 0l3.324 1.776a.64.64 0 00.898-.324.636.636 0 00.034-.352l-.657-3.703a.644.644 0 01.19-.576L13.8 6.676a.64.64 0 00-.36-1.094L9.71 5.07a.648.648 0 01-.492-.354L7.576 1.328a.64.64 0 00-1.152 0L4.781 4.716a.646.646 0 01-.504.354l-3.721.512a.642.642 0 00-.534.788.64.64 0 00.177.306L2.917 9.28z" fill="#E5E5E5"/></svg>