<svg width="12" height="10" fill="none" xmlns="http://www.w3.org/2000/svg"><path d="M11.931 1.272a.26.26 0 00-.313-.055c-.108.049-.22.09-.333.12.178-.227.312-.486.396-.763a.26.26 0 00-.402-.28c-.396.214-.818.38-1.255.49A2.626 2.626 0 006.734.53a2.589 2.589 0 00-1.127 2.393A6.178 6.178 0 011.281.593.27.27 0 001.06.495a.26.26 0 00-.208.127 2.525 2.525 0 00-.288 1.96c.09.342.243.664.453.948a1.385 1.385 0 01-.265-.17.26.26 0 00-.425.203 2.698 2.698 0 001.39 2.317 1.935 1.935 0 01-.336-.072.26.26 0 00-.313.357 2.848 2.848 0 001.976 1.617 4.597 4.597 0 01-2.752.567.26.26 0 00-.158.486 7.818 7.818 0 003.855 1.096 6.622 6.622 0 003.66-1.12c2.068-1.372 3.356-3.835 3.177-6.04a4.872 4.872 0 001.134-1.182.26.26 0 00-.028-.317z" fill="#03A9F4"/></svg>