<svg width="122" height="20" fill="none" xmlns="http://www.w3.org/2000/svg"><path d="M48.426 7.319v11.794h-5.428V1.663c-.227.228-.37.342-.511.484-2.757 3.07-5.542 6.11-8.299 9.179a1.495 1.495 0 00-.34.91c-.029 2.273-.029 4.546-.029 6.848h-5.428v-6.735c0-.483-.113-.824-.454-1.165-2.87-3.126-5.798-6.337-8.697-9.52-.198-.2-.369-.426-.625-.71.284-.03.483-.058.71-.058 1.62 0 3.269.029 4.889 0 .426 0 .739.143 1.023.455 1.79 2.103 3.637 4.206 5.456 6.31.142.17.284.34.483.539 1.45-1.705 2.87-3.353 4.32-5.03.54-.625 1.08-1.307 1.648-1.904.17-.199.512-.341.767-.341 3.41-.029 6.85-.029 10.26 0 .312 0 .653.199.88.398 3.666 3.495 7.304 7.02 10.97 10.543.113.114.255.227.454.426V.953h5.457v12.902c0 .426-.114.682-.427.966-1.648 1.393-3.296 2.814-4.944 4.235-4.036-3.894-8.043-7.758-12.135-11.737zm51.35-.625v12.419h-5.399V.925c.199 0 .37-.028.568-.028 2.16 0 4.32.028 6.48-.029.454 0 .653.17.852.54 1.819 3.24 3.638 6.48 5.485 9.72.114.226.256.454.426.71 1.393-2.473 2.785-4.917 4.149-7.36.597-1.08 1.194-2.16 1.819-3.212.114-.17.341-.37.512-.398 2.444.029 4.859.029 7.332.029v18.216h-5.371V6.693c-.057-.027-.086-.027-.143-.056-.113.17-.227.37-.341.54-2.131 3.808-4.291 7.588-6.422 11.396-.227.426-.483.54-.966.597-1.364.198-2.075-.341-2.729-1.563-1.96-3.695-4.063-7.304-6.138-10.941 0 .028-.057.028-.114.028z" fill="#1F1F1F"/><path d="M16.852 9.763c1.137.256 2.245.71 3.126 1.591 1.932 1.905 1.677 4.775-.597 6.395a7.678 7.678 0 01-4.461 1.392c-4.888.057-9.805.029-14.693.029-.056 0-.113-.029-.227-.029V.953C.17.925.341.896.512.896h13.441c1.563 0 3.07.313 4.434 1.08 1.222.654 2.131 1.62 2.33 3.041.227 1.563-.398 2.814-1.705 3.695-.682.426-1.45.71-2.16 1.051zM5.4 15.731c2.672 0 5.315.028 7.93-.029.568-.028 1.193-.312 1.676-.653.796-.54.91-1.592.34-2.33-.51-.682-1.25-1.052-2.045-1.052-2.586-.057-5.2-.057-7.815-.085-.029 0-.057.057-.114.085.028 1.307.028 2.643.028 4.064zm-.028-7.588c.142.029.227.029.313.029h6.536a5.23 5.23 0 001.165-.143c1.052-.255 1.762-.994 1.762-1.79 0-.824-.625-1.478-1.677-1.79-.199-.057-.398-.114-.568-.114L7.758 4.25h-2.33c-.029.256-.029.455-.029.653-.028 1.08-.028 2.132-.028 3.24zm74.712 11.339c-3.013-.057-5.883-.568-8.526-2.046-2.273-1.279-4.035-3.04-4.603-5.684-.71-3.24.426-5.91 2.927-7.985C72.013 2.005 74.514 1.18 77.185.81c3.354-.426 6.622-.199 9.776 1.023 1.819.71 3.439 1.705 4.69 3.24 3.068 3.723 2.216 8.781-1.933 11.68-2.132 1.478-4.519 2.217-7.077 2.53-.824.113-1.705.141-2.557.198zm.199-15.403c-2.33 0-4.32.569-5.74 1.677-2.871 2.188-2.9 6.28-.058 8.497 1.393 1.108 3.041 1.563 4.775 1.677 2.131.142 4.177-.17 6.024-1.364 3.467-2.274 3.44-6.878-.028-9.123-1.563-.994-3.296-1.307-4.973-1.364z" fill="#1F1F1F"/></svg>