<svg xmlns="http://www.w3.org/2000/svg" width="69" height="68.995" viewBox="0 0 69 68.995"><g transform="translate(-0.001 -0.5)"><path d="M446.509,192.027a2.021,2.021,0,0,1-.758-3.895,6.045,6.045,0,0,0,3.792-5.626,2.021,2.021,0,1,1,4.043,0,10.068,10.068,0,0,1-6.319,9.373,2.016,2.016,0,0,1-.758.148Zm0,0" transform="translate(-384.584 -155.729)" fill="#12a3d7"/><path d="M64.959,144.391A24.725,24.725,0,0,1,52.7,165.682v5.255a2,2,0,0,1-2.022,2.021H42.589a1.9,1.9,0,0,1-1.415-.606L37.7,168.917H31.31l-3.477,3.436a1.9,1.9,0,0,1-1.415.606H18.333a2,2,0,0,1-2.022-2.021v-5.255a25.805,25.805,0,0,1-9.029-9.164H2.027A2,2,0,0,1,.006,154.5V142.369a2,2,0,0,1,2.022-2.021H4.372a23.681,23.681,0,0,1,2.992-8.167L.9,127.9a2.229,2.229,0,0,1-.889-1.5,1.991,1.991,0,0,1,.606-1.617,16.128,16.128,0,0,1,18.772-2.911,26.085,26.085,0,0,1,3.436-1.091H46.188A24.307,24.307,0,0,1,64.959,144.391Zm0,0" transform="translate(0 -103.464)" fill="#12a3d7"/><path d="M165.173.5a14.149,14.149,0,1,0,14.149,14.149A14.165,14.165,0,0,0,165.173.5Zm0,0" transform="translate(-130.67 0)" fill="#f60"/><path d="M270.165,14.649A14.165,14.165,0,0,1,256.016,28.8V.5A14.165,14.165,0,0,1,270.165,14.649Zm0,0" transform="translate(-221.512)" fill="#f60"/><path d="M191.13,30.5A10.107,10.107,0,1,0,201.237,40.6,10.11,10.11,0,0,0,191.13,30.5Zm0,0" transform="translate(-156.627 -25.954)" fill="#faecd8"/><path d="M125.069,272.5a2.021,2.021,0,1,1-2.021-2.021A2.021,2.021,0,0,1,125.069,272.5Zm0,0" transform="translate(-104.715 -233.596)" fill="#fff"/><path d="M249.1,66.56a2,2,0,0,1-2.021,2.021h-4.043a2,2,0,0,1-2.021-2.021V62.517a2.021,2.021,0,0,1,4.042,0v2.022h2.021A2,2,0,0,1,249.1,66.56Zm0,0" transform="translate(-208.537 -51.91)" fill="#7c8388"/><path d="M262.08,66.56a2,2,0,0,1-2.021,2.021h-4.043V60.5a2,2,0,0,1,2.021,2.021v2.022h2.022A2,2,0,0,1,262.08,66.56Zm0,0" transform="translate(-221.512 -51.91)" fill="#575f64"/><path d="M179.323,182.505a2,2,0,0,1-2.021,2.021H153.045a2.021,2.021,0,1,1,0-4.043H177.3A2,2,0,0,1,179.323,182.505Zm0,0" transform="translate(-130.67 -155.728)" fill="#004a64"/><path d="M270.165,182.505a2,2,0,0,1-2.021,2.021H256.016v-4.043h12.129A2,2,0,0,1,270.165,182.505Zm0,0" transform="translate(-221.512 -155.728)" fill="#004a64"/></g></svg>