<svg xmlns="http://www.w3.org/2000/svg" width="70" height="70.146" viewBox="0 0 70 70.146"><g transform="translate(-0.522)"><path d="M70.522,35.073v1.9a36.409,36.409,0,0,1-3.361,13.3,35.25,35.25,0,1,1,3.361-15.2Z" transform="translate(0 0)" fill="#f60"/><ellipse cx="27.87" cy="27.871" rx="27.87" ry="27.871" transform="translate(7.58 7.203)" fill="#fff"/><ellipse cx="20.811" cy="20.812" rx="20.811" ry="20.812" transform="translate(14.639 14.261)" fill="#f60"/><circle cx="13.109" cy="13.109" r="13.109" transform="translate(22.34 21.964)" fill="#fff"/><circle cx="5.906" cy="5.906" r="5.906" transform="translate(29.543 29.167)" fill="#f60"/><path d="M271.428,236.548a35.89,35.89,0,0,1-3.313,13.109l-5.042-1.3-1.441-4.9-25.209-6.77a2.325,2.325,0,1,1,1.3-4.466L262.785,239l3.745-3.6Z" transform="translate(-200.906 -199.482)" fill="#334a5e" opacity="0.2"/><path d="M257.934,95.211a2.441,2.441,0,0,0-3.313,0l-18.87,18.871a2.441,2.441,0,0,0,0,3.313h0a2.441,2.441,0,0,0,3.313,0l18.871-18.871A2.441,2.441,0,0,0,257.934,95.211Z" transform="translate(-201.531 -81.241)" fill="#004a64"/><path d="M374.519,11.959l-8.5,8.355-1.873-7.635,8.5-8.5Z" transform="translate(-312.496 -3.604)" fill="#84dbff"/><path d="M385.51,70.832l8.355-8.355L386.23,60.6l-8.5,8.355Z" transform="translate(-324.207 -52.249)" fill="#12a3d7"/></g></svg>