<svg xmlns="http://www.w3.org/2000/svg" width="69.279" height="69" viewBox="0 0 69.279 69"><g transform="translate(0 -1.029)"><path d="M293.333,64.423a12.889,12.889,0,0,1,11.835-5.052V60.96S300.117,59.8,293.333,64.423Z" transform="translate(-253.642 -50.394)" fill="#ffd15c"/><path d="M280.533,6.812a13.443,13.443,0,0,1,11.546-5.773V2.627C292.224,2.627,287.461,1.472,280.533,6.812Z" transform="translate(-242.574 0)" fill="#12a3d7"/><path d="M143.035,64.423A12.889,12.889,0,0,0,131.2,59.372V60.96S136.252,59.8,143.035,64.423Z" transform="translate(-113.447 -50.394)" fill="#ffd15c"/><g transform="translate(19.34 1.144)"><path d="M154.768,7.257a13.372,13.372,0,0,0-11.835-5.34V3.5S147.7,2.205,154.768,7.257Z" transform="translate(-142.933 -1.877)" fill="#12a3d7"/><path d="M343.963,99.269h-1.588l1.155-1.155a.306.306,0,0,0-.433-.433l-1.155,1.155V97.393a.289.289,0,1,0-.577,0V98.98l-1.155-1.155a.306.306,0,1,0-.433.433l1.155,1.155h-1.443a.31.31,0,0,0-.289.289c0,.144.144.144.289.144h1.588L339.922,101a.271.271,0,0,0,0,.433l.144.144a.141.141,0,0,0,.144-.144l1.155-1.155v1.588a.289.289,0,1,0,.577,0v-1.588l1.155,1.155.144.144a.141.141,0,0,0,.144-.144.271.271,0,0,0,0-.433l-1.01-1.155h1.588a.289.289,0,0,0,0-.577Z" transform="translate(-312.643 -84.219)" fill="#12a3d7"/></g><path d="M154.1,139.8h-1.588l1.155-1.155a.306.306,0,0,0-.433-.433l-1.01,1.3v-1.588a.289.289,0,0,0-.577,0v1.588l-1.155-1.155a.306.306,0,0,0-.433.433l1.155,1.155h-1.588a.289.289,0,1,0,0,.577h1.588l-1.155,1.155a.271.271,0,0,0,0,.433l.144.144a.141.141,0,0,0,.144-.144l1.155-1.155v1.588a.289.289,0,0,0,.577,0v-1.587l1.155,1.155.144.144a.141.141,0,0,0,.144-.144.271.271,0,0,0,0-.433l-1.155-1.155h1.588a.31.31,0,0,0,.289-.289C154.241,140.091,154.241,139.8,154.1,139.8Z" transform="translate(-129.128 -118.123)" fill="#ffd15c"/><g transform="translate(10.392 8.977)"><path d="M397.064,116.3v1.732l1.3.866-1.588.577-.433,1.588-1.01-1.3H393.6l1.01-1.3-.577-1.588,1.588.433Z" transform="translate(-350.734 -108.654)" fill="#f60"/><path d="M80.12,59.77v1.588l1.443,1.01-1.588.577L79.4,64.533l-1.01-1.443-1.588.144,1.01-1.443L77.233,60.2l1.588.577Z" transform="translate(-76.8 -59.77)" fill="#f60"/></g><g transform="translate(20.206 13.452)"><path d="M314.7,151.5v1.155l.866.577-1.01.289-.289,1.155-.722-.866h-1.01l.577-.866-.289-1.01,1.01.289Z" transform="translate(-290.451 -143.566)" fill="#12a3d7"/><path d="M151.5,92.837v1.155l.866.577-1.01.289-.289,1.01L150.488,95h-1.155l.722-.866-.433-1.01,1.01.433Z" transform="translate(-149.333 -92.837)" fill="#12a3d7"/></g><path d="M66.536,475.922H2.742A2.74,2.74,0,0,1,0,473.179H0a2.74,2.74,0,0,1,2.742-2.742H66.536a2.74,2.74,0,0,1,2.742,2.742h0A2.654,2.654,0,0,1,66.536,475.922Z" transform="translate(0 -405.892)" fill="#004a64"/><rect width="60.907" height="8.515" transform="translate(4.186 49.39)" fill="#ffd15c"/><rect width="60.907" height="6.783" transform="translate(4.186 57.905)" fill="#f60"/><path d="M118.293,220.682H67.2V209.858a2.9,2.9,0,0,1,2.887-2.887h45.32a2.9,2.9,0,0,1,2.887,2.887v10.825Z" transform="translate(-58.107 -178.076)" fill="#ffd15c"/><g transform="translate(4.186 28.895)"><path d="M91.84,315.087H30.933v-3.9A2.9,2.9,0,0,1,33.82,308.3H88.954a2.9,2.9,0,0,1,2.887,2.887v3.9Z" transform="translate(-30.933 -294.593)" fill="#f60"/><path d="M115.406,206.97H70.087a2.9,2.9,0,0,0-2.887,2.887v5.917h0a12.52,12.52,0,0,0,9.093-3.608c2.165-2.021,5.484-2.309,7.505-.144a13,13,0,0,0,14.866,2.454,12.04,12.04,0,0,0,3.031-2.309,5.344,5.344,0,0,1,8.8,1.876,4.713,4.713,0,0,0,7.794,1.732h0v-5.917A2.9,2.9,0,0,0,115.406,206.97Z" transform="translate(-62.293 -206.97)" fill="#f60"/></g><path d="M238.884,131.482h-6.35V120.946a1.364,1.364,0,0,1,1.443-1.443h3.464a1.364,1.364,0,0,1,1.443,1.443v10.536Z" transform="translate(-201.07 -102.443)" fill="#cdd6e0"/><path d="M241.218,53.476a2.74,2.74,0,0,1-2.742,2.742,2.839,2.839,0,0,1-2.742-2.742c0-1.443.577-1.443,2.742-5.052C239.341,47.126,241.218,50.734,241.218,53.476Z" transform="translate(-203.836 -40.746)" fill="#ffd15c"/></g></svg>