<svg xmlns="http://www.w3.org/2000/svg" width="26.945" height="31" viewBox="0 0 26.945 31"><path d="M12.764,15.506c-.351-.969-.344-2.84-.14-2.84C13.213,12.666,13.157,14.9,12.764,15.506Zm-.119,2.858a26.255,26.255,0,0,1-1.993,3.8,28.689,28.689,0,0,1,4.414-1.326A8.285,8.285,0,0,1,12.645,18.364Zm-6.6,7.556c0,.048.926-.327,2.449-2.434A8.9,8.9,0,0,0,6.042,25.92ZM17.4,9.688h9.543V29.547A1.578,1.578,0,0,1,25.261,31H1.684A1.578,1.578,0,0,1,0,29.547V1.453A1.578,1.578,0,0,1,1.684,0H15.718V8.234A1.586,1.586,0,0,0,17.4,9.688Zm-.561,10.4a6.336,6.336,0,0,1-3-3.257c.316-1.12.814-2.821.435-3.887-.33-1.78-2.975-1.6-3.354-.412-.351,1.108-.028,2.67.568,4.662A53.809,53.809,0,0,1,8.631,22.39c-.007,0-.007.006-.014.006-1.9.842-5.165,2.694-3.824,4.117a2.348,2.348,0,0,0,1.509.605c1.256,0,2.505-1.09,4.287-3.742a44.943,44.943,0,0,1,5.543-1.4,11.909,11.909,0,0,0,4.491,1.181c2.049,0,2.189-1.937,1.382-2.628C21.03,19.7,18.2,19.938,16.841,20.089ZM26.454,6.357,19.577.424A1.828,1.828,0,0,0,18.385,0h-.421V7.75h8.982V7.381A1.356,1.356,0,0,0,26.454,6.357Zm-5.2,15.458c.288-.163-.175-.721-3-.545C20.854,22.227,21.254,21.815,21.254,21.815Z" fill="#ff4f00"/></svg>