<svg xmlns="http://www.w3.org/2000/svg" width="20.77" height="24.391" viewBox="0 0 20.77 24.391"><g transform="translate(0 0.001)"><path d="M125.088,158.457a4.647,4.647,0,1,0,4.647,4.647A4.652,4.652,0,0,0,125.088,158.457Zm2.759,3.772-3.329,3.329a.715.715,0,0,1-1.012,0l-1.272-1.272a.716.716,0,1,1,1.012-1.012l.766.766,2.824-2.823a.716.716,0,1,1,1.012,1.012Zm0,0" transform="translate(-114.703 -150.909)" fill="#459a67"/><path d="M20.746,6.617V6.6c-.011-.234-.018-.482-.022-.758a2.585,2.585,0,0,0-2.434-2.532A10.031,10.031,0,0,1,11.462.43L11.446.415a1.561,1.561,0,0,0-2.121,0L9.309.43A10.032,10.032,0,0,1,2.482,3.308,2.585,2.585,0,0,0,.048,5.84c0,.274-.011.522-.022.758v.044C-.03,9.5-.1,13.06,1.093,16.291A12.283,12.283,0,0,0,4.04,20.88a15.414,15.414,0,0,0,5.766,3.411,1.786,1.786,0,0,0,.236.064,1.745,1.745,0,0,0,.686,0,1.792,1.792,0,0,0,.237-.065,15.425,15.425,0,0,0,5.76-3.413,12.3,12.3,0,0,0,2.947-4.591C20.868,13.047,20.8,9.482,20.746,6.617ZM10.385,18.273a6.078,6.078,0,1,1,6.078-6.078A6.085,6.085,0,0,1,10.385,18.273Zm0,0" transform="translate(0)" fill="#459a67"/></g></svg>