<svg width="18" height="14" fill="none" xmlns="http://www.w3.org/2000/svg"><g clip-path="url(#clip0)" fill="#2BC773"><path d="M16.392 14a1.54 1.54 0 001.052-.394l-5.098-5.05c-.12.087-.242.172-.353.252-.382.279-.692.495-.928.65a6.146 6.146 0 01-.947.48 2.937 2.937 0 01-1.105.242h-.02c-.343 0-.709-.08-1.104-.243a5.378 5.378 0 01-.948-.478 21.032 21.032 0 01-.928-.65 72.042 72.042 0 00-.353-.253l-5.108 5.05c.298.262.65.394 1.053.394h14.787zM1.013 5.38A5.323 5.323 0 010 4.515v7.679l4.493-4.448a286.78 286.78 0 00-3.48-2.368zm15.984 0a287.18 287.18 0 00-3.49 2.367L18 12.195V4.512a5.53 5.53 0 01-1.003.867z"/><path d="M16.392 0H1.608C1.09 0 .696.171.418.518.141.86 0 1.294 0 1.808c0 .418.183.87.552 1.359.37.488.762.87 1.177 1.148.229.159.915.63 2.059 1.417.617.424 1.156.792 1.617 1.113.396.271.732.508 1.013.702.033.022.082.058.15.106l.278.198c.22.155.4.281.543.378.144.097.317.204.523.324.202.12.395.21.578.268.18.058.35.09.503.09h.02c.154 0 .32-.028.503-.09.18-.058.373-.149.579-.268.202-.12.379-.227.523-.324a43.49 43.49 0 00.82-.576l.15-.106 1.017-.699c.833-.573 2.058-1.417 3.683-2.533a4.71 4.71 0 001.225-1.223c.327-.475.493-.976.493-1.5 0-.437-.16-.812-.477-1.123A1.58 1.58 0 0016.392 0z"/></g><defs><clipPath id="clip0"><path fill="#fff" d="M0 0h18v14H0z"/></clipPath></defs></svg>