<svg width="17" height="16" fill="none" xmlns="http://www.w3.org/2000/svg"><path d="M15.645 12.656l-2.473-2.478c-.492-.493-1.306-.475-1.816.032l-1.048 1.05a.36.36 0 01-.441.06c-.786-.437-1.862-1.036-2.992-2.17-1.136-1.137-1.733-2.215-2.17-3.008a.363.363 0 01.061-.433l.643-.64.409-.41c.51-.511.524-1.327.032-1.82L3.377.361c-.492-.493-1.305-.48-1.816.032l-.689.695a.014.014 0 000 .02.014.014 0 01.002.018A4.13 4.13 0 00.307 2.13a4.427 4.427 0 00-.258 1.027c-.322 2.714.915 5.192 4.27 8.55 4.633 4.649 8.37 4.299 8.531 4.28a4.117 4.117 0 002.029-.823.01.01 0 01.014 0 .01.01 0 00.014 0l.696-.683c.515-.516.533-1.332.042-1.825z" fill="#2BC773"/></svg>