<svg xmlns="http://www.w3.org/2000/svg" width="70" height="68.697" viewBox="0 0 70 68.697"><g transform="translate(0 -0.445)"><path d="M27.852,149.015c2.343.146,4.772.222,7.262.222,2.54,0,5.017-.079,7.4-.231,2.035-.128,4-.308,5.89-.536,1.434-.173,2.823-.374,4.153-.6,10.107-1.71,17.006-4.86,17.418-8.492H70l-.223,25.627c0,3.171-4.906,6-12.628,7.876h0L41.319,160.615l-8.427,8.011-11.024-7.805L10.008,172.1l-.012.042c-6.178-1.841-10-4.359-10-7.136l.229-25.974c0,3.719,6.8,6.971,16.954,8.754q2.286.4,4.785.7c1.885.225,3.852.4,5.883.527Zm0,0" transform="translate(0 -118.023)" fill="#00efd1"/><path d="M370.918,88.492a2.646,2.646,0,0,1-.021.346c-.413,3.632-7.325,6.782-17.451,8.492l-.023-17.682c10.458,1.763,17.5,5.064,17.5,8.844Zm0,0" transform="translate(-300.917 -67.436)" fill="#12a3d7"/><path d="M179.351,298.372q-1.128-.059-2.229-.143l0-.033,6.571-6.236,8.443-8.011L208,296.215a88.1,88.1,0,0,1-15.325,2.135c-2.154.125-4.38.192-6.661.2h-.2c-2.206,0-4.366-.06-6.46-.175Zm0,0" transform="translate(-150.831 -241.381)" fill="#87e680"/><g transform="translate(21.915 0.445)"><path d="M168.208,117.729c-2.392.152-4.873.231-7.418.231-2.495,0-4.928-.076-7.276-.222-2.036-.125-4.006-.3-5.895-.527v-8.817a5.463,5.463,0,0,1-.028-.56,5.552,5.552,0,0,1,5.553-5.552h2.986l4.735,4.6v0l4.907-4.607h2.815c.186,0,.372.01.559.028a5.553,5.553,0,0,1,4.964,6.084v8.8c-1.89.228-3.862.408-5.9.536Zm0,0" transform="translate(-147.59 -87.151)" fill="#f60"/><path d="M243.469,380.641v.008l-.271,9.115a3.2,3.2,0,0,1-6.39-.116v-8.809c2.281,0,4.507-.072,6.661-.2Zm0,0" transform="translate(-223.521 -324.146)" fill="#f60"/><path d="M210.26,5.79V7.929a5.345,5.345,0,0,1-10.689,0V5.79a5.345,5.345,0,1,1,10.689,0Zm0,0" transform="translate(-191.829 -0.445)" fill="#f60"/><path d="M198.751,380.964v8.809a3.2,3.2,0,0,1-6.389.116l-.271-9.1c2.094.115,4.253.175,6.46.175Zm0,0" transform="translate(-185.463 -324.272)" fill="#f60"/></g><path d="M90.178,293.137l-6.571,6.236,0,.033a79.881,79.881,0,0,1-16.366-2.754l.012-.042,11.882-11.278Zm0,0" transform="translate(-57.224 -242.557)" fill="#3bb54a"/><path d="M18.552,80.211l-.024,17.5,0,.016C8.349,95.943,1.539,92.69,1.539,88.971s6.821-6.978,17.013-8.76Zm0,0" transform="translate(-1.31 -67.916)" fill="#12a3d7"/><path d="M193.271,235.738a3.412,3.412,0,1,1-3.411,3.411,3.412,3.412,0,0,1,3.411-3.411Zm0,0" transform="translate(-161.642 -200.323)" fill="#fedb41"/></g></svg>