<svg width="93" height="28" fill="none" xmlns="http://www.w3.org/2000/svg"><g opacity=".25" clip-path="url(#clip0)" fill-rule="evenodd" clip-rule="evenodd" fill="#474654"><path d="M57.696 21.897C52.29 25.877 44.458 28 37.713 28c-9.456 0-17.97-3.494-24.41-9.306-.506-.457-.053-1.08.554-.724 6.951 4.04 15.545 6.47 24.423 6.47 5.987 0 12.574-1.237 18.63-3.805.915-.388 1.68.598.786 1.262z"/><path d="M59.942 19.328c-.688-.881-4.566-.416-6.307-.21-.53.065-.611-.396-.134-.728 3.09-2.172 8.157-1.545 8.748-.817.591.732-.153 5.808-3.056 8.23-.445.373-.87.175-.672-.319.652-1.626 2.113-5.27 1.421-6.156zm-6.186-16.27V.946a.52.52 0 01.535-.533h9.46c.304 0 .547.218.547.533v1.808c-.004.304-.26.7-.712 1.327l-4.903 6.993c1.822-.045 3.745.226 5.396 1.157.373.21.474.517.502.82v2.253c0 .308-.34.668-.696.482-2.91-1.525-6.777-1.69-9.995.016-.328.178-.672-.178-.672-.486v-2.139c0-.344.004-.93.348-1.452l5.68-8.137h-4.943c-.304 0-.547-.215-.547-.53zM19.245 16.23h-2.878a.544.544 0 01-.514-.489V.983a.54.54 0 01.555-.53h2.684a.542.542 0 01.522.493v1.93h.052c.7-1.865 2.017-2.734 3.79-2.734 1.801 0 2.927.87 3.736 2.734.696-1.865 2.28-2.734 3.976-2.734 1.206 0 2.526.497 3.331 1.613.911 1.242.725 3.046.725 4.627l-.004 9.315a.544.544 0 01-.555.534h-2.874a.547.547 0 01-.518-.534V7.875c0-.623.056-2.176-.081-2.767-.215-.99-.858-1.27-1.692-1.27-.697 0-1.425.465-1.72 1.21-.296.744-.268 1.99-.268 2.827v7.822a.543.543 0 01-.555.534h-2.874a.544.544 0 01-.518-.534l-.004-7.822c0-1.646.271-4.07-1.773-4.07-2.069 0-1.988 2.363-1.988 4.07v7.822a.544.544 0 01-.555.534M72.443.142c4.27 0 6.582 3.664 6.582 8.323 0 4.502-2.554 8.073-6.582 8.073-4.194 0-6.477-3.664-6.477-8.23 0-4.595 2.311-8.166 6.477-8.166zm.024 3.013c-2.121 0-2.255 2.888-2.255 4.687 0 1.804-.028 5.654 2.231 5.654 2.23 0 2.336-3.106 2.336-4.998 0-1.246-.053-2.735-.43-3.916-.323-1.027-.967-1.427-1.882-1.427zM84.563 16.23h-2.866a.547.547 0 01-.518-.533L81.175.934a.544.544 0 01.555-.481h2.667a.55.55 0 01.515.413v2.256h.052C85.77 1.104 86.9.142 88.887.142c1.291 0 2.55.465 3.36 1.739C93 3.06 93 5.048 93 6.475v9.29a.553.553 0 01-.555.466H89.56a.545.545 0 01-.51-.466V7.75c0-1.613.186-3.975-1.802-3.975-.7 0-1.344.469-1.663 1.18-.405.902-.458 1.8-.458 2.795v7.948a.553.553 0 01-.563.534M46.215 9.181c0 1.12.028 2.055-.539 3.05-.457.808-1.186 1.306-1.991 1.306-1.106 0-1.753-.841-1.753-2.083 0-2.451 2.198-2.896 4.283-2.896v.623zm2.902 7.01a.601.601 0 01-.68.068c-.955-.793-1.13-1.16-1.651-1.917-1.58 1.61-2.7 2.09-4.745 2.09-2.425 0-4.307-1.492-4.307-4.48 0-2.334 1.263-3.924 3.068-4.7 1.563-.688 3.745-.81 5.413-1v-.371c0-.684.052-1.493-.353-2.083-.348-.53-1.02-.748-1.615-.748-1.097 0-2.072.562-2.311 1.727-.049.258-.24.513-.502.525l-2.79-.299c-.234-.053-.497-.243-.429-.603.64-3.38 3.7-4.4 6.437-4.4 1.4 0 3.23.372 4.336 1.432 1.4 1.306 1.267 3.05 1.267 4.946v4.481c0 1.347.558 1.938 1.085 2.666.182.259.222.57-.012.764-.587.49-1.632 1.4-2.207 1.91l-.004-.009M8.481 9.181c0 1.12.028 2.055-.538 3.05-.458.808-1.182 1.306-1.992 1.306-1.105 0-1.749-.841-1.749-2.083 0-2.451 2.198-2.896 4.279-2.896v.623zm2.903 7.01a.601.601 0 01-.68.068c-.956-.793-1.126-1.16-1.652-1.917-1.579 1.61-2.696 2.09-4.745 2.09-2.42 0-4.307-1.492-4.307-4.48 0-2.334 1.267-3.924 3.069-4.7 1.562-.688 3.744-.81 5.412-1v-.371c0-.684.053-1.493-.348-2.083-.352-.53-1.024-.748-1.615-.748-1.097 0-2.077.562-2.316 1.727-.049.258-.239.513-.498.525L.911 5.003C.676 4.95.417 4.76.48 4.4 1.126 1.02 4.182 0 6.919 0c1.401 0 3.23.372 4.336 1.432 1.4 1.306 1.267 3.05 1.267 4.946v4.481c0 1.347.559 1.938 1.085 2.666.186.259.227.57-.008.764-.587.49-1.631 1.4-2.206 1.91l-.008-.009"/></g><defs><clipPath id="clip0"><path fill="#fff" d="M0 0h93v28H0z"/></clipPath></defs></svg>