<svg width="58" height="72" fill="none" xmlns="http://www.w3.org/2000/svg"><path d="M56.158 29.563a5.564 5.564 0 00-.64-6.916 3.476 3.476 0 01-.89-3.125 5.564 5.564 0 00-3.096-6.217 3.476 3.476 0 01-1.958-2.593 5.564 5.564 0 00-5.133-4.68 3.476 3.476 0 01-2.762-1.71 5.565 5.565 0 00-6.477-2.508 3.477 3.477 0 01-3.193-.597 5.564 5.564 0 00-6.945 0 3.476 3.476 0 01-3.194.597 5.564 5.564 0 00-6.477 2.509 3.476 3.476 0 01-2.762 1.71 5.565 5.565 0 00-5.133 4.68 3.476 3.476 0 01-1.957 2.592 5.565 5.565 0 00-3.096 6.217 3.476 3.476 0 01-.89 3.125 5.565 5.565 0 00-.64 6.916c.629.963.74 2.173.3 3.235a5.563 5.563 0 001.9 6.68 3.476 3.476 0 011.448 2.909 5.565 5.565 0 004.186 5.542 3.475 3.475 0 011.858 1.214L4.796 63.172c-.814 1.966 1.029 3.99 3.061 3.367l6.362-1.953a.407.407 0 01.478.198l3.118 5.88c.997 1.88 3.732 1.747 4.545-.217l6.057-14.622c.08-.003.159-.003.238 0l6.057 14.622c.815 1.967 3.55 2.094 4.545.216l3.119-5.88a.406.406 0 01.477-.197l6.362 1.953c2.034.624 3.875-1.402 3.061-3.367l-5.81-14.03a3.475 3.475 0 011.857-1.213 5.565 5.565 0 004.186-5.542 3.475 3.475 0 011.448-2.908 5.564 5.564 0 001.9-6.68 3.479 3.479 0 01.3-3.236zM20.412 69.64a.405.405 0 01-.733.035l-3.119-5.88a2.518 2.518 0 00-2.959-1.225l-6.362 1.952a.405.405 0 01-.494-.543L11.9 51.532a5.562 5.562 0 005.155 2.242 3.477 3.477 0 013.03 1.174 5.565 5.565 0 004.21 1.928c.498 0 .998-.07 1.489-.206l-5.372 12.97zm29.422-5.118l-6.362-1.953a2.519 2.519 0 00-2.96 1.226l-3.117 5.88a.405.405 0 01-.734-.035L31.29 56.673a5.561 5.561 0 005.698-1.726 3.475 3.475 0 013.03-1.173 5.559 5.559 0 005.154-2.242l5.156 12.446a.405.405 0 01-.494.544zm4.558-36.112a5.584 5.584 0 00-.482 5.196 3.466 3.466 0 01-1.183 4.16 5.584 5.584 0 00-2.326 4.67 3.464 3.464 0 01-2.606 3.451 5.583 5.583 0 00-3.448 2.634l-.006.011a5.583 5.583 0 00-.403.871 3.463 3.463 0 01-3.676 2.276 5.584 5.584 0 00-4.866 1.886 3.464 3.464 0 01-4.25.794 5.583 5.583 0 00-1.535-.541l-.013-.003a5.579 5.579 0 00-2.125 0l-.008.002a5.591 5.591 0 00-1.538.542 3.464 3.464 0 01-4.25-.794 5.584 5.584 0 00-4.866-1.886 3.464 3.464 0 01-3.677-2.276 5.59 5.59 0 00-.402-.87l-.007-.013a5.583 5.583 0 00-3.447-2.633 3.464 3.464 0 01-2.606-3.45 5.584 5.584 0 00-2.326-4.672 3.464 3.464 0 01-1.183-4.159 5.584 5.584 0 00-.482-5.196 3.464 3.464 0 01.4-4.305 5.584 5.584 0 001.428-5.02 3.464 3.464 0 011.927-3.87A5.584 5.584 0 009.58 11.05a3.464 3.464 0 013.195-2.913 5.583 5.583 0 004.437-2.747 3.464 3.464 0 014.032-1.562 5.584 5.584 0 005.13-.959 3.464 3.464 0 014.324 0 5.584 5.584 0 005.13.959A3.464 3.464 0 0139.86 5.39a5.584 5.584 0 004.438 2.747 3.464 3.464 0 013.195 2.913 5.585 5.585 0 003.145 4.165 3.464 3.464 0 011.927 3.87 5.584 5.584 0 001.428 5.02 3.465 3.465 0 01.399 4.305z" fill="#474654"/><path d="M8.56 27.018a1.055 1.055 0 001.176-.918c1.165-9.466 9.247-16.604 18.8-16.604 9.558 0 17.64 7.142 18.802 16.613a1.055 1.055 0 002.093-.257C48.141 15.325 39.158 7.386 28.536 7.386c-10.616 0-19.599 7.935-20.893 18.457-.071.578.34 1.104.918 1.175zm39.953 2.831a1.056 1.056 0 00-1.175.918c-1.16 9.472-9.244 16.615-18.802 16.615-9.553 0-17.636-7.14-18.8-16.606a1.055 1.055 0 00-2.093.257c1.294 10.523 10.276 18.458 20.893 18.458 10.622 0 19.605-7.94 20.895-18.467a1.054 1.054 0 00-.918-1.175z" fill="#474654"/><path d="M43.428 24.086a2.022 2.022 0 00-1.868-1.409l-8.269-.296-2.837-7.773a2.022 2.022 0 00-1.917-1.341c-.868 0-1.62.526-1.918 1.34l-2.837 7.774-8.27.296a2.02 2.02 0 00-1.867 1.41 2.02 2.02 0 00.683 2.237l6.515 5.1-2.273 7.957a2.022 2.022 0 00.763 2.212c.701.51 1.62.527 2.34.042l6.864-4.62 6.864 4.62a2.023 2.023 0 002.34-.042 2.022 2.022 0 00.762-2.213l-2.273-7.955 6.515-5.1a2.022 2.022 0 00.684-2.239zm-8.534 5.706a2.033 2.033 0 00-.705 2.168l2.235 7.821-6.747-4.542a2.039 2.039 0 00-2.28 0l-6.748 4.542 2.235-7.82a2.033 2.033 0 00-.705-2.169l-6.405-5.014 8.129-.291a2.033 2.033 0 001.844-1.34l2.79-7.641 2.789 7.64a2.033 2.033 0 001.844 1.34l8.129.292-6.405 5.014z" fill="#474654"/></svg>