<svg width="72" height="72" fill="none" xmlns="http://www.w3.org/2000/svg"><path d="M8.979 19.972H30.35l4.455 4.454a1.596 1.596 0 001.744.347c.6-.248.988-.829.988-1.478v-3.548a4.17 4.17 0 002.8-3.924V4.15A4.153 4.153 0 0036.19 0H8.98a4.153 4.153 0 00-4.15 4.149V5a1.055 1.055 0 102.11 0v-.85c0-1.125.914-2.04 2.039-2.04h27.21c1.124 0 2.04.915 2.04 2.04v11.674c0 .959-.68 1.797-1.615 1.995a1.506 1.506 0 00-1.186 1.47v2.778l-3.763-3.762a1.495 1.495 0 00-1.065-.442H8.98a2.042 2.042 0 01-2.04-2.039V9.941a1.055 1.055 0 10-2.109 0v5.882a4.153 4.153 0 004.149 4.149z" fill="#474654"/><path d="M70.945 48.646c.583 0 1.055-.472 1.055-1.054v-.813c0-3.239-2.171-6.138-5.28-7.05l-5.717-1.68a2.1 2.1 0 00-.565-.37l-1.193-.531a2.508 2.508 0 00-.99-.218v-2.51a8.7 8.7 0 003.479-5.92 2.255 2.255 0 001.64-2.166v-7.548a3.331 3.331 0 00-3.129-3.321 3.331 3.331 0 00-3.315-3.046H49.1a6.291 6.291 0 00-6.285 6.285v7.63c0 1.029.695 1.9 1.64 2.166a8.702 8.702 0 003.477 5.92v2.506a2.505 2.505 0 00-.978.22l-1.17.525a2.097 2.097 0 00-.56.369l-5.753 1.688c-3.108.912-5.28 3.812-5.28 7.052v5.727a7.167 7.167 0 00-2.519-1.327c-.093-.027.448.082-8.211-1.569v-.023a27.506 27.506 0 004.04-1.066c2.929-1.016 4.835-4.028 3.342-9.006a17.669 17.669 0 01-.744-5.074c-.002-6.441-5.244-11.682-11.686-11.682-6.441 0-11.684 5.24-11.686 11.687 0 1.718-.25 3.424-.744 5.07-1.477 4.926.37 7.974 3.342 9.005 1.32.459 2.67.814 4.038 1.066-8.622 1.669-8.118 1.565-8.208 1.592A7.214 7.214 0 000 58.065v9.958a3.972 3.972 0 003.974 3.974h.008l64.044-.064A3.979 3.979 0 0072 67.958V52.522a1.055 1.055 0 10-2.11 0v2.44H57.563l-1.865-8.32 1.01-1.81c.4-.077.783-.269 1.1-.573l3.242-3.157a2.1 2.1 0 00.475-.701l4.603 1.351a5.268 5.268 0 013.764 5.027v.813c0 .582.472 1.054 1.054 1.054zm-26.02-29.943a4.18 4.18 0 014.174-4.174h7.83c.672 0 1.218.546 1.218 1.217 0 1.005.818 1.822 1.823 1.822h.076a1.22 1.22 0 011.218 1.218v3.907h-.516a.527.527 0 01-.526-.526V21.3c0-1.863-1.83-3.164-3.579-2.586a11.387 11.387 0 01-7.098 0 2.722 2.722 0 00-3.578 2.586v.866c0 .29-.237.526-.527.526h-.515v-3.99zm1.585 9.131a1.452 1.452 0 00-1.444-1.359.142.142 0 01-.142-.142v-1.53h.516a2.639 2.639 0 002.636-2.636V21.3c0-.417.405-.716.81-.582a13.51 13.51 0 008.42-.001.614.614 0 01.806.583v.866a2.639 2.639 0 002.636 2.635h.516v1.531a.142.142 0 01-.142.142c-.761 0-1.396.597-1.444 1.36-.218 3.463-3.11 6.177-6.584 6.177-3.474 0-6.366-2.714-6.584-6.178zm7.45 17.59h-1.75l-.679-1.165 1.643-1.373 1.491 1.275-.705 1.264zm1.44 9.538h-4.618l1.666-7.428h1.286l1.666 7.428zM53.17 40.18l-3.128-2.338v-2.274a8.654 8.654 0 003.052.553c1.071 0 2.1-.195 3.053-.553v2.308L53.17 40.18zm-5.352-1.11a.399.399 0 01.402.044l3.261 2.437-1.516 1.267a.066.066 0 01-.025.013.628.628 0 00-.013.002.065.065 0 01-.045-.017L46.66 39.59l1.158-.52zm-37.801 7.46c-2.666-.926-2.82-3.716-2.013-6.408a19.78 19.78 0 00.833-5.679c.002-5.279 4.298-9.574 9.576-9.574 5.28 0 9.575 4.295 9.577 9.578 0 1.923.28 3.832.833 5.675.808 2.693.653 5.482-2.013 6.408a25.708 25.708 0 01-16.793 0zm11.334 3.364v.373c-1.155 2.486-4.74 2.475-5.878-.023v-.35c1.93.204 3.9.209 5.878 0zm13.366 19.659a.271.271 0 01-.261.271h-.013l-.024.002-30.44.062h-.005a1.864 1.864 0 01-1.865-1.865v-9.958a5.095 5.095 0 013.595-4.848l8.124-1.571c2.045 3.454 7.117 3.443 9.164.023l8.133 1.548a5.068 5.068 0 013.592 4.848v11.488zm1.584-22.773a5.268 5.268 0 013.764-5.028l4.639-1.361c.104.25.257.482.454.68l3.24 3.244.01.01a2.17 2.17 0 001.052.568l1.024 1.76-1.863 8.308H36.3V46.78zM69.89 57.07v10.887a1.867 1.867 0 01-1.866 1.865H36.812c.01-.088.015-.179.015-.27V58.065a7.16 7.16 0 00-.07-.994h33.134zM56.34 42.743a.064.064 0 01-.044.017 1.094 1.094 0 00-.025-.004.068.068 0 01-.017-.01l-1.403-1.2 3.129-2.422a.398.398 0 01.406-.05l1.18.526-3.226 3.142z" fill="#474654"/></svg>