<svg width="36" height="33" viewBox="0 0 36 33" fill="none" xmlns="http://www.w3.org/2000/svg">
<path d="M15.7935 29.6961H2.5136C1.70916 29.6961 1.05469 29.0417 1.05469 28.2372V9.02918H2.77474C3.06598 9.02918 3.30209 8.79314 3.30209 8.50184C3.30209 8.21053 3.06598 7.97449 2.77474 7.97449H1.05469V5.06707C1.05469 4.2627 1.70916 3.60823 2.5136 3.60823H4.25869V4.25672C4.25869 5.30712 5.11327 6.16177 6.16373 6.16177C7.2142 6.16177 8.06871 5.30719 8.06871 4.25672V3.60823H24.9607V4.25672C24.9607 5.30712 25.8152 6.16177 26.8657 6.16177H26.8658C27.9162 6.16177 28.7708 5.30719 28.7708 4.25672V3.60823H30.5158C31.3203 3.60823 31.9748 4.2627 31.9748 5.06707V7.97449H5.24004C4.9488 7.97449 4.7127 8.21053 4.7127 8.50184C4.7127 8.79314 4.9488 9.02918 5.24004 9.02918H31.9748V18.0552C31.9748 18.3465 32.2108 18.5825 32.5021 18.5825C32.7934 18.5825 33.0294 18.3465 33.0294 18.0552V5.06707C33.0294 3.68107 31.9018 2.55354 30.5158 2.55354H28.7708V1.90505C28.7708 0.854648 27.9162 0 26.8657 0C25.8152 0 24.9607 0.854578 24.9607 1.90505V2.55354H8.06871V1.90505C8.06871 0.854648 7.21413 0 6.16373 0C5.11334 0 4.25869 0.854648 4.25869 1.90512V2.55361H2.5136C1.1276 2.55354 0 3.68107 0 5.06707V28.2371C0 29.6231 1.1276 30.7507 2.5136 30.7507H15.7935C16.0847 30.7507 16.3208 30.5147 16.3208 30.2234C16.3208 29.9321 16.0847 29.6961 15.7935 29.6961ZM26.0154 1.90512C26.0154 1.4362 26.3969 1.05476 26.8658 1.05476C27.3346 1.05476 27.7161 1.4362 27.7161 1.90512V4.25672C27.7161 4.72563 27.3346 5.10708 26.8657 5.10708C26.3969 5.10708 26.0154 4.72563 26.0154 4.25672V1.90512ZM5.31337 1.90512C5.31337 1.4362 5.69482 1.05476 6.16373 1.05476C6.63265 1.05476 7.01402 1.4362 7.01402 1.90512V4.25672C7.01402 4.72563 6.63258 5.10708 6.16373 5.10708C5.69489 5.10708 5.31337 4.72563 5.31337 4.25672V1.90512Z" fill="white"/>
<path d="M34.8361 19.9932H18.8973C18.243 19.9932 17.7324 20.5304 17.7324 21.158V31.8288C17.7324 32.4674 18.2546 32.9936 18.8973 32.9936H34.8361C35.473 32.9936 36.0009 32.4729 36.0009 31.8288V21.158C36.0009 20.5288 35.4886 19.9932 34.8361 19.9932ZM34.3004 21.0479L27.3492 26.389C27.065 26.6072 26.6682 26.6072 26.384 26.3889L19.4331 21.0479H34.3004ZM18.7871 31.119V21.8815L23.9345 25.8367L18.7871 31.119ZM19.4608 31.9389L24.7765 26.4838L25.7415 27.2252C26.4038 27.7341 27.3294 27.7344 27.9919 27.2252L28.9568 26.4838L34.2727 31.9389H19.4608ZM34.9463 31.119L29.7989 25.8368L34.9463 21.8816V31.119Z" fill="white"/>
<path d="M9.08297 12.7373C9.08297 12.0322 8.50929 11.4585 7.80412 11.4585H4.75931C4.05415 11.4585 3.48047 12.0322 3.48047 12.7373V15.7821C3.48047 16.4872 4.05415 17.0609 4.75931 17.0609H7.80412C8.50929 17.0609 9.08297 16.4872 9.08297 15.7821V12.7373ZM8.02828 15.7821C8.02828 15.9057 7.92773 16.0062 7.80412 16.0062H4.75931C4.6357 16.0062 4.53516 15.9056 4.53516 15.7821V12.7373C4.53516 12.6137 4.6357 12.5132 4.75931 12.5132H7.80412C7.92773 12.5132 8.02828 12.6138 8.02828 12.7373V15.7821Z" fill="white"/>
<path d="M7.80412 19.4307H4.75931C4.05415 19.4307 3.48047 20.0043 3.48047 20.7095V23.7544C3.48047 24.4595 4.05415 25.0332 4.75931 25.0332H7.80412C8.50929 25.0332 9.08297 24.4596 9.08297 23.7544V20.7095C9.08297 20.0043 8.50929 19.4307 7.80412 19.4307ZM8.02828 23.7544C8.02828 23.878 7.92773 23.9785 7.80412 23.9785H4.75931C4.6357 23.9785 4.53516 23.878 4.53516 23.7544V20.7095C4.53516 20.5859 4.6357 20.4854 4.75931 20.4854H7.80412C7.92773 20.4854 8.02828 20.586 8.02828 20.7095V23.7544Z" fill="white"/>
<path d="M15.9267 12.7373C15.9267 12.0322 15.353 11.4585 14.6479 11.4585H11.6031C10.8979 11.4585 10.3242 12.0322 10.3242 12.7373V15.7821C10.3242 16.4872 10.8979 17.0609 11.6031 17.0609H14.6479C15.353 17.0609 15.9267 16.4872 15.9267 15.7821V12.7373ZM14.872 15.7821C14.872 15.9057 14.7715 16.0062 14.6479 16.0062H11.6031C11.4795 16.0062 11.3789 15.9056 11.3789 15.7821V12.7373C11.3789 12.6137 11.4795 12.5132 11.6031 12.5132H14.6479C14.7715 12.5132 14.872 12.6138 14.872 12.7373V15.7821Z" fill="white"/>
<path d="M14.6479 19.4307H11.6031C10.8979 19.4307 10.3242 20.0043 10.3242 20.7095V23.7544C10.3242 24.4595 10.8979 25.0332 11.6031 25.0332H14.6479C15.353 25.0332 15.9267 24.4596 15.9267 23.7544V20.7095C15.9267 20.0043 15.353 19.4307 14.6479 19.4307ZM14.872 23.7544C14.872 23.878 14.7715 23.9785 14.6479 23.9785H11.6031C11.4795 23.9785 11.3789 23.878 11.3789 23.7544V20.7095C11.3789 20.5859 11.4795 20.4854 11.6031 20.4854H14.6479C14.7715 20.4854 14.872 20.586 14.872 20.7095V23.7544Z" fill="white"/>
<path d="M21.4936 17.0609C22.1987 17.0609 22.7725 16.4872 22.7725 15.7821V12.7373C22.7725 12.0322 22.1988 11.4585 21.4936 11.4585H18.4488C17.7436 11.4585 17.1699 12.0322 17.1699 12.7373V15.7821C17.1699 16.4872 17.7436 17.0609 18.4488 17.0609H21.4936ZM18.2246 15.7821V12.7373C18.2246 12.6137 18.3252 12.5132 18.4488 12.5132H21.4936C21.6173 12.5132 21.7178 12.6138 21.7178 12.7373V15.7821C21.7178 15.9057 21.6173 16.0062 21.4936 16.0062H18.4488C18.3252 16.0062 18.2246 15.9057 18.2246 15.7821Z" fill="white"/>
<path d="M25.2925 11.4585C24.5874 11.4585 24.0137 12.0322 24.0137 12.7373V15.7821C24.0137 16.4872 24.5874 17.0609 25.2925 17.0609H28.3373C29.0424 17.0609 29.6161 16.4872 29.6161 15.7821V12.7373C29.6161 12.0322 29.0424 11.4585 28.3373 11.4585H25.2925ZM28.5614 12.7373V15.7821C28.5614 15.9057 28.4608 16.0062 28.3373 16.0062H25.2925C25.1689 16.0062 25.0684 15.9056 25.0684 15.7821V12.7373C25.0684 12.6137 25.169 12.5132 25.2925 12.5132H28.3373C28.4608 12.5132 28.5614 12.6137 28.5614 12.7373Z" fill="white"/>
</svg>
