<svg width="18" height="18" fill="none" xmlns="http://www.w3.org/2000/svg"><path d="M15.282 9.422h-3.281a.703.703 0 00-.703.703v1.46a6.247 6.247 0 01-5.491-5.491h1.46a.703.703 0 00.703-.703V2.109A2.111 2.111 0 005.861 0h-4.14a.703.703 0 00-.64.41C-.924 4.8-.154 10.215 3.511 13.88c3.731 3.732 9.17 4.396 13.47 2.431a.703.703 0 00.41-.64v-4.14c0-1.163-.946-2.11-2.109-2.11zm.703 5.788c-3.7 1.506-8.295.86-11.479-2.324-3.152-3.152-3.85-7.73-2.323-11.48H5.86c.388 0 .703.316.703.703v2.579h-1.5a.703.703 0 00-.703.703c0 4.213 3.427 7.64 7.64 7.64a.703.703 0 00.703-.703v-1.5h2.578c.388 0 .703.316.703.703v3.679z" fill="#E93F4A"/></svg>