<svg width="57" height="72" fill="none" xmlns="http://www.w3.org/2000/svg"><path d="M36.09 13.173a3.14 3.14 0 011.763.538 1.055 1.055 0 001.18-1.749 5.24 5.24 0 00-2.944-.9 5.27 5.27 0 00-5.264 5.265 5.27 5.27 0 005.264 5.265c1.16 0 2.202-.381 3.013-1.103a4.36 4.36 0 00.448-.463 1.055 1.055 0 00-1.617-1.355 2.333 2.333 0 01-.235.242c-.423.378-.965.569-1.609.569a3.158 3.158 0 01-3.154-3.155 3.158 3.158 0 013.154-3.154zm10.502 8.419h.008c.53-.004 1-.343 1.173-.851l2.75-8.276a1.055 1.055 0 00-2.003-.665l-1.946 5.857-2.043-5.886a1.055 1.055 0 10-1.993.692l2.88 8.3c.177.497.648.829 1.174.829zm3.658 12.711H30.465a1.055 1.055 0 000 2.11h19.787a1.055 1.055 0 000-2.11zm-19.786 8.582h9.894a1.055 1.055 0 100-2.11h-9.894a1.055 1.055 0 100 2.11zm19.786 4.362H30.465a1.055 1.055 0 100 2.11h19.787a1.055 1.055 0 100-2.11zm1.056 7.526c0-.583-.472-1.055-1.055-1.055H30.464a1.055 1.055 0 100 2.11h19.787c.583 0 1.055-.473 1.055-1.055zm-20.842 5.589a1.055 1.055 0 100 2.11h9.894a1.055 1.055 0 000-2.11h-9.894zm19.786-32.53H30.465a1.055 1.055 0 000 2.11h19.787a1.055 1.055 0 000-2.11z" fill="#474654"/><path d="M55.875 14.804c.583 0 1.055-.473 1.055-1.055V4.037A4.042 4.042 0 0052.893 0H4.038A4.042 4.042 0 000 4.037v63.926A4.042 4.042 0 004.038 72h48.855a4.042 4.042 0 004.037-4.037V18.68a1.055 1.055 0 10-2.11 0v49.282a1.93 1.93 0 01-1.927 1.927h-26.89V2.11h26.89a1.93 1.93 0 011.927 1.928v9.71c0 .584.473 1.056 1.055 1.056zM23.893 69.89H4.038a1.93 1.93 0 01-1.928-1.927V4.037A1.93 1.93 0 014.038 2.11h19.855v67.78z" fill="#474654"/><path d="M13.015 24.692c4.598 0 8.365-3.744 8.365-8.365 0-4.612-3.752-8.365-8.365-8.365-4.612 0-8.365 3.753-8.365 8.365 0 4.615 3.762 8.365 8.365 8.365zm0-2.11a6.219 6.219 0 01-3.662-1.189 4.134 4.134 0 012.118-1.981 3.62 3.62 0 003.088 0 4.134 4.134 0 012.118 1.981 6.218 6.218 0 01-3.662 1.189zm-1.531-6.467c0-.845.687-1.532 1.531-1.532.845 0 1.532.687 1.532 1.532 0 .844-.687 1.531-1.532 1.531a1.533 1.533 0 01-1.531-1.531zm1.531-6.042a6.262 6.262 0 016.255 6.254 6.22 6.22 0 01-1.064 3.486 6.145 6.145 0 00-2.005-1.937 3.62 3.62 0 00.456-1.761 3.646 3.646 0 00-3.642-3.642 3.646 3.646 0 00-3.641 3.642c0 .639.165 1.239.455 1.761a6.142 6.142 0 00-2.004 1.937 6.219 6.219 0 01-1.065-3.486 6.262 6.262 0 016.255-6.255zM6.902 40.11h12.226a2.281 2.281 0 002.279-2.28v-3.013a2.281 2.281 0 00-2.279-2.279H6.902a2.281 2.281 0 00-2.278 2.279v3.014a2.281 2.281 0 002.278 2.278zm-.168-5.293c0-.093.075-.169.168-.169h12.226c.093 0 .169.075.169.169v3.014a.169.169 0 01-.169.168H6.902a.169.169 0 01-.168-.168v-3.014zm.168 16.473h1.065a1.055 1.055 0 100-2.11H6.902a.169.169 0 01-.168-.168v-3.014c0-.093.075-.169.168-.169h12.226a.17.17 0 01.169.169v3.014a.169.169 0 01-.169.169h-6.23a1.055 1.055 0 000 2.11h6.23a2.281 2.281 0 002.279-2.279v-3.014a2.281 2.281 0 00-2.279-2.279H6.902a2.281 2.281 0 00-2.278 2.279v3.014a2.281 2.281 0 002.278 2.279zm0 11.182h12.226a2.281 2.281 0 002.279-2.278v-3.015a2.281 2.281 0 00-2.279-2.278H6.902a2.281 2.281 0 00-2.278 2.278v3.015a2.281 2.281 0 002.278 2.278zm-.168-5.293c0-.093.075-.168.168-.168h12.226c.093 0 .169.075.169.168v3.015a.169.169 0 01-.169.168H6.902a.169.169 0 01-.168-.168v-3.015z" fill="#474654"/></svg>