<svg width="48" height="48" viewBox="0 0 48 48" fill="none" xmlns="http://www.w3.org/2000/svg">
<path d="M23.9984 17.0161H5.99991C5.61159 17.0161 5.29688 17.3309 5.29688 17.7191C5.29688 18.1075 5.61159 18.4222 5.99991 18.4222H23.9985C24.3868 18.4222 24.7015 18.1074 24.7015 17.7191C24.7015 17.3309 24.3868 17.0161 23.9984 17.0161Z" fill="#3D3C4A"/>
<path d="M23.9984 21.9565H5.99991C5.61159 21.9565 5.29688 22.2714 5.29688 22.6596C5.29688 23.0478 5.61159 23.3626 5.99991 23.3626H23.9985C24.3868 23.3626 24.7015 23.0478 24.7015 22.6596C24.7015 22.2714 24.3868 21.9565 23.9984 21.9565Z" fill="#3D3C4A"/>
<path d="M23.9984 26.8965H5.99991C5.61159 26.8965 5.29688 27.2113 5.29688 27.5995C5.29688 27.9877 5.61159 28.3025 5.99991 28.3025H23.9985C24.3868 28.3025 24.7015 27.9877 24.7015 27.5995C24.7015 27.2113 24.3868 26.8965 23.9984 26.8965Z" fill="#3D3C4A"/>
<path d="M24.7015 32.5399C24.7015 32.1516 24.3868 31.8369 23.9985 31.8369H5.99991C5.61159 31.8369 5.29688 32.1517 5.29688 32.5399C5.29688 32.9282 5.61159 33.243 5.99991 33.243H23.9985C24.3868 33.243 24.7015 32.9283 24.7015 32.5399Z" fill="#3D3C4A"/>
<path d="M5.99991 39.0771C5.61159 39.0771 5.29688 39.392 5.29688 39.7802C5.29688 40.1684 5.61159 40.4832 5.99991 40.4832H15.0222C15.4105 40.4832 15.7253 40.1684 15.7253 39.7802C15.7253 39.392 15.4105 39.0771 15.0222 39.0771H5.99991Z" fill="#3D3C4A"/>
<path d="M32.1002 8.70509V6.42378C32.1002 5.55472 31.3933 4.84766 30.5241 4.84766H16.0897C15.2206 4.84766 14.5137 5.55472 14.5137 6.42378V8.70509C14.5137 9.57416 15.2206 10.2811 16.0897 10.2811H17.3086C17.697 10.2811 18.0117 9.96631 18.0117 9.57809C18.0117 9.18978 17.697 8.87506 17.3086 8.87506H16.0897C15.996 8.87506 15.9198 8.79884 15.9198 8.70519V6.42378C15.9198 6.33012 15.996 6.25381 16.0897 6.25381H30.5241C30.6179 6.25381 30.6941 6.33003 30.6941 6.42378V8.70509C30.6941 8.79875 30.6179 8.87497 30.5241 8.87497H20.5955C20.2072 8.87497 19.8925 9.18978 19.8925 9.578C19.8925 9.96631 20.2072 10.281 20.5955 10.281H30.5242C31.3933 10.2812 32.1002 9.57416 32.1002 8.70509Z" fill="#3D3C4A"/>
<path d="M37.3569 42.8715C36.9686 42.8715 36.6539 43.1863 36.6539 43.5745V44.5213C36.6539 45.664 35.7242 46.5938 34.5813 46.5938H3.47859C2.33588 46.5938 1.40606 45.6641 1.40606 44.5213V10.7276C1.40606 10.5755 1.42387 10.4262 1.45566 10.281H7.85719C9.19369 10.281 10.281 9.19369 10.281 7.85719V1.45575C10.4262 1.42397 10.5754 1.40616 10.7275 1.40616H34.5812C35.724 1.40616 36.6538 2.33588 36.6538 3.47869V12.8389C36.6538 13.2272 36.9685 13.5419 37.3568 13.5419C37.7452 13.5419 38.0599 13.2271 38.0599 12.8389V3.47859C38.06 1.56056 36.4994 0 34.5813 0H10.7276C9.79847 0 8.92481 0.361875 8.26781 1.01888L1.01878 8.26791C0.361781 8.92491 0 9.79847 0 10.7277V44.5214C0 46.4395 1.56047 48 3.47859 48H34.5813C36.4994 48 38.06 46.4394 38.06 44.5214V43.5746C38.06 43.1863 37.7453 42.8715 37.3569 42.8715ZM8.87494 2.40037V7.85719C8.87494 8.41838 8.41838 8.87494 7.85719 8.87494H2.40037L8.87494 2.40037Z" fill="#3D3C4A"/>
<path d="M46.9869 25.1247C47.4804 24.4003 47.608 23.5068 47.3372 22.6732C47.0664 21.8396 46.4378 21.1917 45.6128 20.8959C45.0655 20.6996 44.7003 20.1971 44.6829 19.6158C44.6563 18.7397 44.2344 17.9417 43.5251 17.4265C42.8161 16.9113 41.9266 16.7567 41.0855 17.0021C40.5269 17.1651 39.9366 16.9731 39.5807 16.5132C39.0444 15.82 38.234 15.4224 37.3574 15.4224C36.481 15.4224 35.6705 15.82 35.1341 16.5132C34.7782 16.9732 34.1875 17.1649 33.6294 17.0021C32.7881 16.7565 31.8987 16.9113 31.1895 17.4265C30.4804 17.9417 30.0586 18.7396 30.032 19.6157C30.0145 20.197 29.6494 20.6994 29.102 20.8958C28.277 21.1916 27.6484 21.8396 27.3776 22.6731C27.1068 23.5067 27.2345 24.4003 27.728 25.1246C28.0554 25.6053 28.0554 26.2263 27.728 26.7069C27.2345 27.4313 27.1068 28.3248 27.3776 29.1584C27.6484 29.9921 28.277 30.6399 29.102 30.9358C29.6494 31.1322 30.0146 31.6346 30.032 32.2159C30.0565 33.0218 30.4257 33.779 31.0454 34.2932C31.4543 34.6326 31.9454 34.8449 32.4595 34.9159V41.317C32.4595 41.857 32.7524 42.3563 33.2239 42.6196C33.6948 42.8828 34.2737 42.871 34.7339 42.5876L37.3125 41.0003C37.3545 40.9743 37.3796 40.986 37.4027 41.0003L39.9811 42.5876C40.4411 42.8708 41.0199 42.883 41.4912 42.6195C41.9628 42.3561 42.2557 41.8569 42.2557 41.3169V34.9157C42.7695 34.8448 43.2607 34.6325 43.6695 34.2932C44.2893 33.779 44.6587 33.0219 44.6831 32.2158C44.7006 31.6346 45.0657 31.1321 45.6131 30.9357C46.4381 30.6399 47.0667 29.992 47.3375 29.1583C47.6083 28.3247 47.4806 27.4312 46.9871 26.7068C46.6594 26.2264 46.6594 25.6054 46.9869 25.1247ZM40.7181 41.3903L38.1396 39.8029C37.6602 39.5079 37.055 39.5074 36.5752 39.8029L33.9967 41.3902C33.938 41.4259 33.8655 41.3847 33.8655 41.3169V34.7824C34.3489 34.7264 34.8281 34.9231 35.1341 35.3185C35.6706 36.0116 36.481 36.4092 37.3575 36.4092C38.234 36.4092 39.0444 36.0116 39.5807 35.3185C39.8867 34.923 40.3661 34.7264 40.8493 34.7824V41.3169C40.8493 41.3852 40.7759 41.426 40.7181 41.3903ZM45.8248 27.4988C46.0716 27.8608 46.1353 28.3074 46 28.724C45.8646 29.1406 45.5504 29.4644 45.138 29.6124C44.0428 30.0052 43.3125 31.0105 43.2774 32.1734C43.2649 32.5823 43.0852 32.9508 42.7714 33.2112C42.4186 33.504 41.9409 33.6145 41.4794 33.4798C40.3626 33.154 39.1807 33.538 38.4685 34.458C38.2005 34.8044 37.7954 35.0032 37.3573 35.0032C36.9193 35.0032 36.5142 34.8045 36.246 34.458C35.7024 33.7553 34.8848 33.3653 34.0314 33.3653C33.7672 33.3653 33.4994 33.4027 33.2354 33.4797C32.7695 33.6155 32.2931 33.5017 31.9432 33.2111C31.6294 32.9507 31.4497 32.5822 31.4374 32.1734C31.4021 31.0105 30.6718 30.0052 29.5766 29.6123C29.1642 29.4643 28.8502 29.1406 28.7147 28.724C28.5793 28.3074 28.6431 27.8607 28.8898 27.4987C29.5449 26.5371 29.5449 25.2946 28.8898 24.333C28.6431 23.971 28.5793 23.5243 28.7147 23.1076C28.8501 22.691 29.1642 22.3672 29.5766 22.2193C30.6718 21.8264 31.4021 20.8211 31.4374 19.6582C31.4506 19.2203 31.6614 18.8215 32.0158 18.564C32.3701 18.3065 32.8145 18.2292 33.2353 18.3519C34.3519 18.6778 35.5341 18.2937 36.246 17.3737C36.5141 17.0272 36.9191 16.8284 37.3573 16.8284C37.7954 16.8284 38.2004 17.0271 38.4685 17.3736C39.1806 18.2937 40.3622 18.6777 41.4793 18.3519C41.8999 18.2291 42.3443 18.3064 42.6987 18.5639C43.0532 18.8214 43.2641 19.2203 43.2773 19.6581C43.3125 20.8211 44.0428 21.8264 45.138 22.2192C45.5504 22.3671 45.8645 22.6909 46 23.1075C46.1353 23.5241 46.0716 23.9709 45.8248 24.3328C45.1696 25.2945 45.1696 26.5372 45.8248 27.4988Z" fill="#3D3C4A"/>
<path d="M37.3574 20.0234C34.1082 20.0234 31.4648 22.6668 31.4648 25.916C31.4648 29.1652 34.1082 31.8086 37.3574 31.8086C40.6065 31.8086 43.2499 29.1652 43.2499 25.916C43.2499 22.6668 40.6065 20.0234 37.3574 20.0234ZM37.3574 30.4025C34.8835 30.4025 32.8709 28.3899 32.8709 25.9161C32.8709 23.4423 34.8835 21.4296 37.3574 21.4296C39.8313 21.4296 41.8438 23.4422 41.8438 25.9161C41.8438 28.39 39.8312 30.4025 37.3574 30.4025Z" fill="#3D3C4A"/>
</svg>
