<svg width="17" height="18" viewBox="0 0 17 18" fill="none" xmlns="http://www.w3.org/2000/svg">
<path d="M0.544 9.40296H11.3968L8.5952 12.2239C8.3776 12.4388 8.3776 12.788 8.5952 13.003C8.704 13.1104 8.84 13.1642 8.976 13.1642C9.112 13.1642 9.248 13.1104 9.3568 13.003L12.8384 9.56415C12.9472 9.45669 13.0016 9.32236 13.0016 9.18803C13.0016 9.05371 12.9472 8.91938 12.8384 8.81191L12.6752 8.65072C12.648 8.59699 12.5936 8.54326 12.5392 8.51639L9.3568 5.37311C9.1392 5.15818 8.8128 5.15818 8.5952 5.37311C8.3776 5.58803 8.3776 5.88356 8.5952 6.07162L10.9072 8.30147H0.544C0.2448 8.30147 0 8.54326 0 8.83878C0 9.1343 0.2448 9.40296 0.544 9.40296Z" fill="#002757"/>
<path d="M17.0002 15.9313V2.55224C17.0002 1.26269 15.9394 0 14.6338 0H7.56183C6.28343 0 5.03223 1.23582 5.03223 2.55224V5.72239C5.03223 6.01791 5.27703 6.2597 5.57623 6.2597C5.87543 6.2597 6.12023 6.01791 6.12023 5.72239V2.55224C6.12023 1.82687 6.85463 1.07463 7.56183 1.07463H14.6338C15.341 1.07463 15.9122 1.85373 15.9122 2.55224V15.9045C15.9122 16.6299 15.3138 16.8985 14.6338 16.8985H7.56183C6.90903 16.8985 6.12023 16.6567 6.12023 15.9045V12.7343C6.12023 12.4388 5.87543 12.197 5.57623 12.197C5.27703 12.197 5.03223 12.4388 5.03223 12.7343V15.9313C5.03223 17.194 6.17463 18 7.56183 18H14.6338C16.021 18 17.0002 17.1403 17.0002 15.9313Z" fill="#002757"/>
</svg>
