<svg width="18" height="14" viewBox="0 0 18 14" fill="none" xmlns="http://www.w3.org/2000/svg">
<g clip-path="url(#clip0)">
<path d="M16.3921 14.0002C16.7973 14.0002 17.147 13.8676 17.4444 13.6056L12.3464 8.55615C12.2254 8.64349 12.1045 8.72759 11.9934 8.80846C11.6111 9.08665 11.3006 9.30338 11.0653 9.45865C10.8268 9.61392 10.5098 9.77242 10.1176 9.93739C9.72218 10.0991 9.3529 10.18 9.01303 10.18H9.00323H8.99342C8.65029 10.18 8.28427 10.0991 7.88885 9.93739C7.49342 9.77565 7.17643 9.61715 6.94114 9.45865C6.70257 9.30338 6.39212 9.08665 6.01303 8.80846C5.90519 8.73083 5.78754 8.64673 5.66009 8.55615L0.552246 13.6056C0.849632 13.8676 1.20257 14.0002 1.60453 14.0002H16.3921Z" fill="#2BC773"/>
<path d="M1.01307 5.3793C0.630719 5.12699 0.294118 4.8391 0 4.51562V12.1949L4.49346 7.74714C3.59477 7.12283 2.43791 6.33679 1.01307 5.3793Z" fill="#2BC773"/>
<path d="M16.9965 5.37912C15.6273 6.29455 14.4671 7.08383 13.5063 7.74696L17.9998 12.1947V4.51221C17.7122 4.83245 17.3756 5.12034 16.9965 5.37912Z" fill="#2BC773"/>
<path d="M16.3922 0H1.60784C1.0915 0 0.696078 0.171442 0.418301 0.51756C0.140523 0.860444 0 1.2939 0 1.80823C0 2.22551 0.183007 2.67837 0.552288 3.16682C0.921569 3.65527 1.31373 4.03697 1.72876 4.31516C1.95752 4.47366 2.64379 4.94593 3.78758 5.73198C4.40523 6.15573 4.94444 6.52449 5.40523 6.84473C5.80065 7.11645 6.13726 7.35259 6.4183 7.54667C6.45098 7.56932 6.5 7.6049 6.56863 7.65342C6.64052 7.70518 6.73203 7.76987 6.84641 7.85074C7.06536 8.00601 7.2451 8.13216 7.38889 8.22921C7.53268 8.32625 7.70588 8.43299 7.91177 8.55268C8.11438 8.67237 8.30719 8.76294 8.4902 8.82117C8.66993 8.87939 8.83987 8.91174 8.99346 8.91174H9.00327H9.01307C9.16667 8.91174 9.33333 8.88262 9.51634 8.82117C9.69608 8.76294 9.88889 8.67237 10.0948 8.55268C10.2974 8.43299 10.4739 8.32625 10.6176 8.22921C10.7614 8.13216 10.9412 8.00601 11.1601 7.85074C11.2745 7.76987 11.366 7.70518 11.4379 7.65342C11.5065 7.6049 11.5556 7.56932 11.5882 7.54667C11.8072 7.39464 12.1471 7.16174 12.6046 6.84797C13.4379 6.27542 14.6634 5.43115 16.2876 4.31516C16.7778 3.97874 17.1863 3.56793 17.5131 3.09242C17.8399 2.61691 18.0065 2.11553 18.0065 1.5915C18.0065 1.15481 17.8464 0.779575 17.5294 0.469039C17.2059 0.155268 16.8268 0 16.3922 0Z" fill="#2BC773"/>
</g>
<defs>
<clipPath id="clip0">
<rect width="18" height="14" fill="white"/>
</clipPath>
</defs>
</svg>
