<svg width="17" height="16" viewBox="0 0 17 16" fill="none" xmlns="http://www.w3.org/2000/svg">
<path d="M15.6445 12.6565L13.1717 10.178C12.6799 9.68506 11.8664 9.70349 11.3562 10.2102L10.3084 11.2604C10.1909 11.3782 10.0089 11.4074 9.86695 11.3205C9.08099 10.8829 8.00545 10.284 6.87475 9.15066C5.73946 8.01275 5.14194 6.93474 4.70529 6.14235C4.62672 6.0006 4.65138 5.82367 4.76616 5.70925L5.40853 5.06894L5.8176 4.65893C6.32779 4.14756 6.34158 3.33214 5.84978 2.8392L3.37696 0.360688C2.88515 -0.13225 2.07161 -0.11843 1.56141 0.392936L0.872473 1.08801C0.867108 1.09342 0.867122 1.10215 0.872505 1.10755C0.877447 1.1125 0.877921 1.12035 0.873627 1.12588C0.64261 1.42309 0.452124 1.76514 0.30662 2.12974C0.173327 2.48447 0.0905936 2.82077 0.0492268 3.15708C-0.272515 5.87054 0.963894 8.34906 4.3192 11.7075C8.95229 16.3559 12.6891 16.0057 12.85 15.9873C13.1993 15.9458 13.5394 15.8629 13.8795 15.7293C14.2442 15.5877 14.5863 15.3917 14.8789 15.1637C14.883 15.1605 14.8889 15.1609 14.8926 15.1646C14.8967 15.1686 14.9032 15.1687 14.9073 15.1647L15.6032 14.4808C16.1179 13.9649 16.1363 13.1494 15.6445 12.6565Z" fill="#2BC773"/>
</svg>
