<svg width="28" height="24" viewBox="0 0 28 24" fill="none" xmlns="http://www.w3.org/2000/svg">
<path d="M17.4996 4.90726C17.4996 5.94295 17.8196 6.87905 18.3596 7.67573L16.3796 9.32885C15.8996 8.09399 15.1996 6.79938 14.1996 6.04254C11.9196 4.34959 6.51956 0.445846 5.03955 0.0873392C3.53954 -0.271168 0.0195302 0.585264 0.0195302 0.585264L13.4196 11.7986L0.0195312 23.0119C0.0195312 23.0119 3.53954 23.8683 5.03955 23.5098C6.53956 23.1513 11.9396 19.2675 14.1996 17.5546C15.1996 16.7977 15.8996 15.5031 16.3796 14.2683L18.3596 15.9214C17.8196 16.6982 17.4996 17.6542 17.4996 18.6899C17.4996 21.4185 19.6996 23.6094 22.3997 23.6094C25.0997 23.6094 27.2997 21.4185 27.2997 18.7297C27.2997 16.0409 25.0997 13.85 22.3997 13.85C21.4797 13.85 20.6197 14.1089 19.8797 14.5471L17.2196 12.3363C17.2196 12.3363 17.1796 12.1372 17.1196 11.8384C17.1796 11.5197 17.2196 11.3405 17.2196 11.3405L19.8797 9.10976C20.6197 9.54794 21.4797 9.80686 22.3997 9.80686C25.0997 9.80686 27.2997 7.61598 27.2997 4.92718C27.2997 2.23838 25.0997 0.0475052 22.3997 0.0475054C19.6996 0.027587 17.4996 2.21846 17.4996 4.90726ZM24.7597 18.7297C24.7597 20.0243 23.6997 21.06 22.4197 21.06C21.1197 21.06 20.0797 20.0044 20.0797 18.7297C20.0797 17.4351 21.1397 16.3994 22.4197 16.3994C23.6997 16.3795 24.7597 17.4351 24.7597 18.7297ZM24.7597 4.90726C24.7597 6.20187 23.6997 7.23756 22.4197 7.23756C21.1197 7.23756 20.0797 6.18195 20.0797 4.90726C20.0797 3.61266 21.1397 2.57697 22.4197 2.57697C23.6997 2.57697 24.7597 3.61266 24.7597 4.90726Z" fill="#9BB1DE"/>
</svg>
