<svg width="56" height="56" fill="none" xmlns="http://www.w3.org/2000/svg"><path fill-rule="evenodd" clip-rule="evenodd" d="M26.133 38.267a12.133 12.133 0 0017.733 10.761v2.305a3.733 3.733 0 01-3.733 3.734H4.666a3.733 3.733 0 01-3.733-3.734V8.4a3.733 3.733 0 013.733-3.733h35.467A3.733 3.733 0 0143.866 8.4v19.105a12.133 12.133 0 00-17.733 10.762z" fill="#fff"/><path fill-rule="evenodd" clip-rule="evenodd" d="M50.4 38.267a12.149 12.149 0 01-5.768 10.322c-.252.159-.504.299-.765.439A12.133 12.133 0 1150.4 38.267z" fill="#fff"/><path fill-rule="evenodd" clip-rule="evenodd" d="M47.4 38.267a12.149 12.149 0 01-5.768 10.322c-.252.159-.504.299-.765.439A12.133 12.133 0 1147.4 38.267z" fill="#65C5E3"/><path fill-rule="evenodd" clip-rule="evenodd" d="M54.245 54.245a2.8 2.8 0 01-3.957 0l-5.656-5.656a11.971 11.971 0 003.957-3.957l5.656 5.656a2.8 2.8 0 010 3.957z" fill="#fff"/><path d="M4.667 56h35.466a4.672 4.672 0 004.667-4.667v-1.256l4.828 4.828a3.733 3.733 0 005.277-5.277l-5.147-5.147c3.37-6.217 1.17-13.986-4.958-17.513V8.4a4.672 4.672 0 00-4.667-4.667h-2.8v-2.8a.933.933 0 10-1.866 0v2.8H28v-2.8a.933.933 0 00-1.867 0v2.8h-7.466v-2.8a.933.933 0 00-1.867 0v2.8H9.333v-2.8a.933.933 0 10-1.866 0v2.8h-2.8A4.672 4.672 0 000 8.4v42.933A4.672 4.672 0 004.667 56zm48.919-5.052a1.867 1.867 0 01-2.638 2.638l-4.87-4.866a13.18 13.18 0 002.642-2.641l4.866 4.869zm-4.12-12.681c0 6.185-5.014 11.2-11.2 11.2-6.185 0-11.2-5.015-11.2-11.2 0-6.186 5.015-11.2 11.2-11.2 6.184.006 11.194 5.017 11.2 11.2zM1.867 8.4a2.8 2.8 0 012.8-2.8h2.8v1.105a2.8 2.8 0 101.867 0V5.6H16.8v1.105a2.8 2.8 0 101.867 0V5.6h7.466v1.105a2.8 2.8 0 101.867 0V5.6h7.467v1.105a2.8 2.8 0 101.866 0V5.6h2.8a2.8 2.8 0 012.8 2.8V14a.933.933 0 000 1.867v10.21a13.067 13.067 0 100 24.38v.876a2.8 2.8 0 01-2.8 2.8H4.667a2.8 2.8 0 01-2.8-2.8V15.867a.933.933 0 000-1.867V8.4zm6.534 0a.933.933 0 110 1.867.933.933 0 010-1.867zm9.333 0a.933.933 0 110 1.867.933.933 0 010-1.867zm9.334 0a.933.933 0 110 1.867.933.933 0 010-1.867zm9.333 0a.933.933 0 110 1.867.933.933 0 010-1.867z" fill="#221F1E"/><path fill-rule="evenodd" clip-rule="evenodd" d="M6.533 20.533c0 .516.418.934.934.934h5.6a.933.933 0 000-1.867h-5.6a.933.933 0 00-.934.933zm9.334 0c0 .516.418.934.933.934h20.533a.933.933 0 000-1.867H16.8a.933.933 0 00-.933.933zM26.133 25.2H7.467a.933.933 0 000 1.867h18.666a.933.933 0 000-1.867zM7.467 32.666h10.266a.933.933 0 000-1.866H7.467a.933.933 0 000 1.866zM22.4 36.4H7.467a.933.933 0 000 1.867H22.4a.933.933 0 000-1.867zM5.6 15.867h.933a.933.933 0 000-1.867H5.6a.933.933 0 000 1.867zm4.667 0h.933a.933.933 0 000-1.867h-.933a.933.933 0 000 1.867zm4.666 0h.934a.933.933 0 000-1.867h-.934a.933.933 0 000 1.867zm4.667 0h.933a.933.933 0 000-1.867H19.6a.933.933 0 000 1.867zm4.667 0h.933a.933.933 0 000-1.867h-.933a.933.933 0 000 1.867zm4.666 0h.934a.933.933 0 000-1.867h-.934a.933.933 0 000 1.867zm4.667 0h.933a.933.933 0 000-1.867H33.6a.933.933 0 000 1.867zm4.667 0h.933a.933.933 0 000-1.867h-.933a.933.933 0 000 1.867z" fill="#221F1E"/></svg>