<svg width="54" height="56" fill="none" xmlns="http://www.w3.org/2000/svg"><path d="M48.467 6.533v37.333H21.4a1.872 1.872 0 00-1.867 1.867v3.733a5.6 5.6 0 01-5.6 5.6H13a5.046 5.046 0 01-.934-.084A5.59 5.59 0 017.4 49.466V12.133H3.667A1.872 1.872 0 011.8 10.266V6.533a5.6 5.6 0 015.6-5.6h35.467a5.6 5.6 0 015.6 5.6z" fill="#fff"/><path d="M52.2 45.733v3.734a5.6 5.6 0 01-5.6 5.6H13.933a5.6 5.6 0 005.6-5.6v-3.734a1.872 1.872 0 011.867-1.866h28.933a1.872 1.872 0 011.867 1.866zm-10.267-19.6c-.002 7.731-6.269 13.997-14 14-.458.004-.916-.021-1.372-.075-.018 0-.037.01-.056 0a14 14 0 010-27.85c.019-.01.038 0 .056 0 .456-.053.914-.078 1.372-.075 7.731.003 13.998 6.27 14 14z" fill="#fff"/><path d="M39.133 26.133a14.011 14.011 0 01-12.572 13.925c-.018 0-.037.01-.056 0a14 14 0 010-27.85c.019-.01.038 0 .056 0a14.011 14.011 0 0112.572 13.925z" fill="#65C5E3"/><path d="M49.4 6.533A6.542 6.542 0 0042.867 0H7.4A6.542 6.542 0 00.867 6.533v3.734a2.8 2.8 0 002.8 2.8h2.8v36.4A6.542 6.542 0 0013 56h33.6a6.542 6.542 0 006.533-6.533v-3.734a2.8 2.8 0 00-2.8-2.8H49.4v-36.4zM13 54.133a4.672 4.672 0 01-4.667-4.666V6.533a.933.933 0 00-1.866 0V11.2h-2.8a.933.933 0 01-.934-.933V6.533A4.672 4.672 0 017.4 1.867h35.467a4.672 4.672 0 014.666 4.666v36.4H21.4a2.8 2.8 0 00-2.8 2.8v3.734a4.672 4.672 0 01-4.667 4.666H13zM50.333 44.8c.516 0 .934.418.934.933v3.734a4.672 4.672 0 01-4.667 4.666H18.496a6.508 6.508 0 001.97-4.666v-3.734c0-.515.419-.933.934-.933h28.933z" fill="#221F1E"/><path d="M27.933 41.067c8.248 0 14.934-6.686 14.934-14.933 0-8.248-6.686-14.934-14.934-14.934C19.686 11.2 13 17.886 13 26.134c.01 8.243 6.69 14.923 14.933 14.933zm0-28C35.15 13.067 41 18.917 41 26.134 41 33.35 35.15 39.2 27.933 39.2c-7.216 0-13.066-5.85-13.066-13.067.007-7.213 5.853-13.058 13.066-13.066z" fill="#221F1E"/><path d="M28.867 19.6a.933.933 0 10-1.867 0v6.533c0 .248.098.485.273.66l4.667 4.667a.933.933 0 001.32-1.32l-4.393-4.393V19.6zM27 16.8h1.867a.933.933 0 100-1.867H27a.933.933 0 000 1.867zm0 20.533h1.867a.933.933 0 100-1.866H27a.933.933 0 100 1.866zm-6.986-16.866a.933.933 0 00.66-.273l1.32-1.32a.934.934 0 10-1.32-1.32l-1.32 1.32a.933.933 0 00.66 1.593zm14.519 14.519a.926.926 0 00.66-.273l1.32-1.32a.933.933 0 00-1.32-1.32l-1.32 1.32a.933.933 0 00.66 1.593zM17.667 25.2a.933.933 0 00-.934.934V28a.933.933 0 101.867 0v-1.866a.933.933 0 00-.933-.934zM38.2 28a.933.933 0 00.933-.933V25.2a.933.933 0 10-1.866 0v1.867c0 .515.417.933.933.933zm-17.526 6.712a.933.933 0 101.32-1.32l-1.32-1.319a.933.933 0 00-1.32 1.32l1.32 1.32zm14.519-14.518a.933.933 0 101.32-1.32l-1.32-1.32a.933.933 0 00-1.32 1.32l1.32 1.32z" fill="#221F1E"/></svg>