<svg width="48" height="56" fill="none" xmlns="http://www.w3.org/2000/svg"><path d="M4.357 19.056l.878-1.111a3.892 3.892 0 00.803-2.887l-.177-1.382A3.99 3.99 0 018.373 9.51l1.346-.542a4.166 4.166 0 002.204-2.111l.57-1.28a4.236 4.236 0 014.362-2.4l1.448.168a4.38 4.38 0 003.017-.776l1.168-.831a4.321 4.321 0 015.026 0l1.167.831a4.38 4.38 0 003.018.776l1.448-.169a4.237 4.237 0 014.362 2.401l.57 1.28a4.167 4.167 0 002.204 2.11l1.345.543a3.99 3.99 0 012.513 4.166l-.177 1.382a3.892 3.892 0 00.803 2.887l.878 1.111a3.861 3.861 0 010 4.811l-.878 1.112a3.892 3.892 0 00-.803 2.887l.177 1.382a3.979 3.979 0 01-2.513 4.157l-1.345.551a4.133 4.133 0 00-2.204 2.111l-.57 1.28a4.171 4.171 0 01-3.223 2.382l3.28 11.611a.935.935 0 01-1.075 1.168l-4.213-.803a.908.908 0 00-.803.233l-3.176 2.886a.93.93 0 01-1.523-.438l-2.494-8.828-5.642 6.39a.935.935 0 01-1.57-.271l-1.606-3.97a.946.946 0 00-.626-.552l-4.148-1.102a.938.938 0 01-.457-1.523l4.474-5.072a4.146 4.146 0 01-2.214-2.111l-.57-1.28a4.133 4.133 0 00-2.204-2.11l-1.345-.552a3.979 3.979 0 01-2.513-4.157l.177-1.383a3.892 3.892 0 00-.803-2.886l-.878-1.112a3.861 3.861 0 010-4.81z" fill="#fff"/><path d="M.857 19.056l.878-1.111a3.892 3.892 0 00.803-2.887l-.177-1.382A3.99 3.99 0 014.873 9.51l1.346-.542a4.166 4.166 0 002.204-2.111l.57-1.28a4.236 4.236 0 014.362-2.4l1.448.168a4.38 4.38 0 003.017-.776l1.168-.831a4.321 4.321 0 015.026 0l1.167.831a4.38 4.38 0 003.018.776l1.447-.169a4.237 4.237 0 014.363 2.401l.57 1.28a4.167 4.167 0 002.204 2.11l1.345.543a3.99 3.99 0 012.513 4.166l-.177 1.382a3.892 3.892 0 00.803 2.887l.878 1.111a3.861 3.861 0 010 4.811l-.878 1.112a3.892 3.892 0 00-.803 2.887l.177 1.382a3.979 3.979 0 01-2.513 4.157l-1.345.551a4.133 4.133 0 00-2.204 2.111l-.57 1.28a4.171 4.171 0 01-3.223 2.382l3.28 11.611a.935.935 0 01-1.075 1.168l-4.213-.803a.908.908 0 00-.803.233l-3.176 2.886a.93.93 0 01-1.523-.438l-2.494-8.828-5.642 6.39a.935.935 0 01-1.57-.271l-1.606-3.97a.946.946 0 00-.626-.552L7.19 46.053a.938.938 0 01-.457-1.523l4.474-5.072a4.146 4.146 0 01-2.214-2.111l-.57-1.28a4.133 4.133 0 00-2.204-2.11l-1.345-.552a3.979 3.979 0 01-2.513-4.157l.177-1.383a3.892 3.892 0 00-.803-2.886l-.878-1.112a3.861 3.861 0 010-4.81z" fill="#65C5E3"/><path d="M25 34.561c-7.222 0-13.077-5.855-13.077-13.078 0-7.223 5.855-13.078 13.078-13.078 7.223 0 13.078 5.855 13.078 13.078 0 7.223-5.855 13.078-13.078 13.078z" fill="#fff"/><path d="M13.735 14.853a13.07 13.07 0 0115.992 18.822 13.075 13.075 0 10-15.992-18.822zm-3.045 31.2l4.148 1.102c.283.077.514.28.626.551l1.606 3.97a.936.936 0 001.57.271l.924-1.046 4.718-5.343 3.157-3.578 1.654-1.877a2.118 2.118 0 00-.411.252l-1.168.831a4.05 4.05 0 01-1.112.57 4.314 4.314 0 01-3.914-.57l-1.167-.831a4.111 4.111 0 00-1.355-.645 4.374 4.374 0 00-1.672-.13l-.317.037-.673.075-.448.056a4.384 4.384 0 01-2.149-.29l-4.474 5.072a.938.938 0 00.457 1.523z" fill="#fff"/><path d="M10.707 45.34l4.25 1.06a.95.95 0 01.642.529L16.929 50l4.835-5.136L25 41.424a4.852 4.852 0 01-1.063-.215 4.665 4.665 0 01-4.01-.548l-1.197-.799a4.341 4.341 0 00-1.389-.62l-.316.036A4.79 4.79 0 0114.824 39l-.211.224-4.375 4.652a.86.86 0 00-.197.854.936.936 0 00.666.61z" fill="#65C5E3"/><path d="M23 45.806l2.81 8.535c.096.3.368.537.718.624.35.086.727.01.996-.2l2.094-1.626 1.484-1.165a1.14 1.14 0 01.904-.225l.19.027 4.556.75c.357.057.724-.047.97-.277a.813.813 0 00.24-.853l-.348-1.056-3.345-10.17a5.539 5.539 0 01-1.284.019l-1.62-.163a5.213 5.213 0 00-1.126.01h-.01a5.11 5.11 0 00-1.8.487L23 45.806z" fill="#fff"/><path d="M24.75 43.69l2.495 8.827a.909.909 0 00.579.625l1.317-1.205a.908.908 0 01.803-.233l.169.028 1.83-1.663a.908.908 0 01.804-.233l2.176.41-2.97-10.518c-.377.058-.76.064-1.14.019l-1.438-.168a3.986 3.986 0 00-1 .01h-.01l-3.614 4.1z" fill="#65C5E3"/><path d="M25.002 42.922c1.07 0 2.14-.324 3.054-.972l1.172-.838a3.4 3.4 0 012.366-.605l1.446.167a5.136 5.136 0 005.31-2.93l.582-1.298a3.154 3.154 0 011.7-1.622l1.349-.551a4.916 4.916 0 003.085-5.135l-.176-1.391a2.959 2.959 0 01.614-2.187l.878-1.12a4.776 4.776 0 00-.003-5.964l-.873-1.112a2.963 2.963 0 01-.616-2.192l.175-1.378a4.923 4.923 0 00-3.1-5.151l-1.329-.544A3.157 3.157 0 0138.93 6.47l-.573-1.278a5.154 5.154 0 00-5.327-2.945l-1.434.166a3.4 3.4 0 01-2.37-.605L28.06.974A5.294 5.294 0 0021.946.97l-1.173.84a3.386 3.386 0 01-2.365.603l-1.446-.167a5.133 5.133 0 00-5.31 2.932l-.582 1.297a3.154 3.154 0 01-1.7 1.621l-1.349.552a4.913 4.913 0 00-3.085 5.134l.175 1.39a2.96 2.96 0 01-.614 2.188l-.878 1.12a4.774 4.774 0 00.003 5.964l.872 1.111c.49.618.713 1.416.617 2.193l-.175 1.377a4.922 4.922 0 003.1 5.152l1.328.544a3.16 3.16 0 011.707 1.629l.574 1.278a5.148 5.148 0 005.326 2.944l1.435-.166a3.409 3.409 0 012.37.605l1.165.835c.916.65 1.989.974 3.06.974zm6.193-4.307a5.25 5.25 0 00-3.052.976l-1.17.837a3.415 3.415 0 01-3.948-.001l-1.164-.834a5.283 5.283 0 00-3.67-.942l-1.445.167a3.283 3.283 0 01-3.403-1.867l-.57-1.27a5.02 5.02 0 00-2.706-2.59l-1.339-.548a3.056 3.056 0 01-1.937-3.193l.174-1.368v-.002a4.842 4.842 0 00-1.002-3.58l-.874-1.112a2.917 2.917 0 01-.003-3.65l.88-1.12a4.839 4.839 0 00.999-3.576l-.174-1.382a3.046 3.046 0 011.924-3.176l1.357-.556a5.014 5.014 0 002.7-2.582l.578-1.289a3.279 3.279 0 013.387-1.855l1.454.168c1.3.154 2.6-.18 3.668-.938l1.171-.84a3.42 3.42 0 013.946.003l1.165.835a5.264 5.264 0 003.672.94l1.442-.167a3.29 3.29 0 013.404 1.869l.569 1.268a5.023 5.023 0 002.706 2.59l1.34.549a3.056 3.056 0 011.936 3.193l-.174 1.367a4.84 4.84 0 001.004 3.583l.873 1.113a2.918 2.918 0 01.003 3.648l-.88 1.12a4.838 4.838 0 00-1 3.577l.176 1.382a3.047 3.047 0 01-1.924 3.176l-1.358.556a5.016 5.016 0 00-2.7 2.582l-.577 1.289a3.271 3.271 0 01-3.387 1.855l-1.455-.168a5.084 5.084 0 00-.616-.037z" fill="#221F1E"/><path d="M25 35.495c7.727 0 14.013-6.285 14.013-14.012 0-7.726-6.286-14.012-14.012-14.012-7.727 0-14.012 6.286-14.012 14.012 0 7.727 6.285 14.012 14.012 14.012zM25 9.34c6.697 0 12.144 5.448 12.144 12.144s-5.447 12.144-12.143 12.144c-6.696 0-12.144-5.448-12.144-12.144S18.305 9.34 25.001 9.34zm-7.057 43.858c.532 0 1.037-.224 1.397-.632L29.803 40.71a.934.934 0 10-1.402-1.235L17.94 51.33l-1.61-3.973a1.893 1.893 0 00-1.247-1.102L10.93 45.15l4.478-5.075a.933.933 0 10-1.401-1.235l-4.475 5.072a1.862 1.862 0 00-.387 1.776 1.863 1.863 0 001.297 1.266l4.156 1.105 1.606 3.968a1.862 1.862 0 001.739 1.171z" fill="#221F1E"/><path d="M27.666 56c.462 0 .916-.17 1.262-.486l3.175-2.885 4.213.796a1.865 1.865 0 001.723-.57c.44-.48.6-1.139.426-1.765l-3.28-11.615a.933.933 0 10-1.798.507l3.279 11.61-4.214-.806a1.842 1.842 0 00-1.623.477l-3.159 2.87-2.49-8.83a.933.933 0 10-1.798.507l2.494 8.829a1.85 1.85 0 001.79 1.36z" fill="#221F1E"/></svg>