<svg width="56" height="56" fill="none" xmlns="http://www.w3.org/2000/svg"><path d="M19.121 50.212h0C11.815 44.47 7.76 35.49 7.76 26.151V8.713c7.068-.165 12.222-2.059 15.66-3.978 1.796-1.002 3.119-2.009 4-2.773.221-.192.415-.37.581-.527.166.158.36.335.582.527.88.764 2.204 1.77 4 2.773 3.438 1.919 8.591 3.813 15.66 3.978V26.15c0 9.34-4.056 18.32-11.363 24.061l.618.787-.618-.787c-2.527 1.986-5.48 3.69-8.879 4.743-3.4-1.052-6.352-2.757-8.879-4.742z" fill="#fff" stroke="#221F1E" stroke-width="2"/><path d="M24 0S17.563 7.724 2.76 7.724v18.427c0 9.622 4.179 18.902 11.744 24.848C17.181 53.103 20.34 54.914 24 56c3.661-1.086 6.819-2.897 9.497-5.001 7.566-5.946 11.745-15.226 11.745-24.848V7.724C30.437 7.724 24 0 24 0z" fill="#65C5E3"/><path d="M19.121 50.212h0C11.815 44.47 7.76 35.49 7.76 26.151V8.713c7.068-.165 12.222-2.059 15.66-3.978 1.796-1.002 3.119-2.009 4-2.773.221-.192.415-.37.581-.527.166.158.36.335.582.527.88.764 2.204 1.77 4 2.773 3.438 1.919 8.591 3.813 15.66 3.978V26.15c0 9.34-4.056 18.32-11.363 24.061l.618.787-.618-.787c-2.527 1.986-5.48 3.69-8.879 4.743-3.4-1.052-6.352-2.757-8.879-4.742z" stroke="#221F1E" stroke-width="2"/><path d="M22.701 45.658h0c-5.712-4.489-9.15-11.777-9.15-19.507V14.03C20.02 13.07 24.776 10.849 28 8.76c3.225 2.088 7.981 4.31 14.448 5.27v12.12c0 7.73-3.437 15.018-9.148 19.507-1.7 1.336-3.476 2.386-5.3 3.143-1.823-.757-3.6-1.807-5.299-3.143z" fill="#fff" stroke="#221F1E" stroke-width="2"/><path d="M32.828 37.69h1.28l-.31-1.243-2.442-9.767a4.832 4.832 0 001.506-3.507 4.862 4.862 0 00-9.724 0c0 1.385.583 2.626 1.506 3.507l-2.442 9.767-.31 1.243h10.935z" fill="#fff" stroke="#221F1E" stroke-width="2"/><path d="M30.828 36.69l-2.595-10.377a3.849 3.849 0 001.629-3.14 3.862 3.862 0 00-7.724 0c0 1.298.646 2.44 1.629 3.14L21.172 36.69h9.655z" fill="#65C5E3"/><path d="M32.828 37.69h1.28l-.31-1.243-2.442-9.767a4.832 4.832 0 001.506-3.507 4.862 4.862 0 00-9.724 0c0 1.385.583 2.626 1.506 3.507l-2.442 9.767-.31 1.243h10.935z" stroke="#221F1E" stroke-width="2"/></svg>