<svg width="175" height="36" fill="none" xmlns="http://www.w3.org/2000/svg"><path fill-rule="evenodd" clip-rule="evenodd" d="M95.756.022a9.148 9.148 0 015.022 1.082 1 1 0 11-.948 1.76 7.15 7.15 0 00-3.938-.846 1 1 0 01-.136-1.996zm-3.455 1.88a1 1 0 01-.394 1.358c-1.205.664-2.364 1.57-3.416 2.66a1 1 0 01-1.44-1.388c1.175-1.22 2.492-2.252 3.891-3.024a1 1 0 011.359.394zm10.837 2.344a1 1 0 011.4.197c.471.625.918 1.32 1.338 2.084.46.835.779 1.685.953 2.544a1 1 0 11-1.96.397 6.97 6.97 0 00-.745-1.977 15.55 15.55 0 00-1.183-1.845 1 1 0 01.197-1.4zM85.493 8.07a1 1 0 01.372 1.365 17.536 17.536 0 00-1.69 4.044 1 1 0 11-1.928-.529 19.538 19.538 0 011.881-4.508 1 1 0 011.365-.372zm20.1 4.972a1 1 0 01.432 1.347c-.725 1.408-1.837 2.741-3.269 3.991a1 1 0 11-1.315-1.506c1.294-1.13 2.224-2.271 2.805-3.4a1 1 0 011.347-.432zm58.719.883a.999.999 0 01-.229 1.395c-.668.48-1.384.978-2.144 1.49a1 1 0 01-1.118-1.659 85.498 85.498 0 002.096-1.455 1 1 0 011.395.229zm-81.708 2.881a1 1 0 011.022.977c.033 1.422.287 2.84.8 4.209a1 1 0 11-1.872.702 14.763 14.763 0 01-.927-4.865 1 1 0 01.977-1.023zm75.258 1.448a1 1 0 01-.336 1.374 129.262 129.262 0 01-4.533 2.624 1 1 0 11-.967-1.75 127.39 127.39 0 004.462-2.584 1 1 0 011.374.336zm-58.838 1.642a1 1 0 01-.36 1.367 43.158 43.158 0 01-4.407 2.216 1 1 0 11-.802-1.832 41.183 41.183 0 004.202-2.112 1 1 0 011.367.36zm49.795 3.448a1 1 0 01-.445 1.343c-1.523.765-3.098 1.52-4.718 2.254a1 1 0 11-.825-1.821 129.308 129.308 0 004.645-2.22 1 1 0 011.343.444zm-58.525.644a1 1 0 01-.618 1.272c-.871.3-1.77.593-2.698.876.785.87 1.727 1.7 2.844 2.475a1 1 0 11-1.14 1.643c-1.442-1-2.644-2.101-3.623-3.278a1 1 0 01-.15-.244 1 1 0 01-.42-1.952 79.186 79.186 0 004.533-1.41 1 1 0 011.272.618zM.016 26.32a1 1 0 011.164-.804c.794.145 1.587.286 2.377.423a1 1 0 11-.34 1.97c-.797-.137-1.596-.28-2.396-.425a1 1 0 01-.805-1.164zm81.024.388a1 1 0 01-.752 1.198c-1.53.348-3.115.675-4.752.979a1 1 0 11-.365-1.967c1.612-.299 3.17-.62 4.672-.962a1 1 0 011.197.752zm-73.887.84a1 1 0 011.14-.837c1.593.245 3.176.472 4.747.682a1 1 0 01-.265 1.983c-1.585-.213-3.18-.442-4.785-.688a1 1 0 01-.837-1.14zm132.248.153a1 1 0 01-.553 1.302 113.473 113.473 0 01-4.898 1.847 1 1 0 01-.662-1.887 111.61 111.61 0 004.812-1.815 1 1 0 011.301.553zm-67.809.845a1 1 0 01-.841 1.136c-1.564.233-3.169.445-4.812.637a1 1 0 11-.231-1.987 152.07 152.07 0 004.748-.628 1 1 0 011.136.842zm-54.89.32a1 1 0 011.107-.88c1.607.183 3.201.35 4.782.5a1 1 0 11-.188 1.99 243.88 243.88 0 01-4.821-.503 1 1 0 01-.88-1.107zm45.318.86a1 1 0 01-.909 1.083c-1.581.138-3.194.257-4.837.356a1 1 0 11-.12-1.996c1.625-.098 3.22-.216 4.783-.352a1 1 0 011.083.909zm-35.713.087a1 1 0 011.072-.923c1.613.12 3.211.222 4.793.307a1 1 0 11-.108 1.997 236.927 236.927 0 01-4.834-.31 1 1 0 01-.923-1.071zm26.089.549a1 1 0 01-.964 1.034c-1.59.056-3.206.094-4.844.113a1 1 0 11-.023-2 202.85 202.85 0 004.796-.112 1 1 0 011.035.965zm-16.46.01a1 1 0 011.032-.967c1.619.053 3.218.088 4.798.105a1 1 0 01-.022 2 223.138 223.138 0 01-4.842-.106 1 1 0 01-.966-1.032zm93.705.845a1 1 0 01-.678 1.241c-1.677.493-3.371.94-5.073 1.334a1 1 0 11-.45-1.949 87.578 87.578 0 004.96-1.304 1 1 0 011.241.678zm-37.239.05a1 1 0 011.315-.52c.664.288 1.367.56 2.11.817.792.273 1.596.517 2.41.733a1 1 0 01-.512 1.933 36.37 36.37 0 01-2.55-.776 31.488 31.488 0 01-2.252-.871 1 1 0 01-.52-1.316zm27.16 2.392a1 1 0 01-.829 1.146c-1.744.28-3.49.494-5.229.632a1 1 0 11-.158-1.994 64.08 64.08 0 005.07-.613 1 1 0 011.146.829zm-17.485.465a1 1 0 011.119-.865c1.66.213 3.35.328 5.06.354a1 1 0 01-.03 2 47.22 47.22 0 01-5.284-.37 1 1 0 01-.865-1.12z" fill="#fff"/><path d="M170.615 8.454c-.331 2.014-.728 3.942-1.28 5.854-.386 1.379-.768 3.703-2.014 4.52-.454.348-1.209.114-1.264-.521-.108-1.271.771-2.757 1.196-3.895.477-1.448.822-3.067 1.167-4.685-2.339.707-4.874 1.158-7.254 1.625-.741.16-1.096-1.057-.33-1.373 2.794-1.054 5.838-1.217 8.526-2.598.61-.331 1.289.368 1.253 1.073z" fill="#fff"/></svg>