<svg width="208" height="96" fill="none" xmlns="http://www.w3.org/2000/svg"><path fill-rule="evenodd" clip-rule="evenodd" d="M139.5 4a1 1 0 011-1c.919 0 1.822.009 2.708.026a1.001 1.001 0 01-.039 2C142.296 5.009 141.407 5 140.5 5a1 1 0 01-1-1zm7.897.173c.035-.551.51-.97 1.061-.936 1.826.114 3.573.268 5.244.46a1 1 0 01-.228 1.986 99.62 99.62 0 00-5.141-.45 1 1 0 01-.936-1.06zm10.38 1.096a1 1 0 011.161-.807c1.842.332 3.575.718 5.202 1.152a1 1 0 01-.516 1.932 62.832 62.832 0 00-5.041-1.116 1 1 0 01-.806-1.161zM167.94 7.83a1 1 0 011.293-.572 37.003 37.003 0 014.846 2.267 1 1 0 11-.983 1.742 34.972 34.972 0 00-4.584-2.143 1 1 0 01-.572-1.294zm9.185 4.903a1 1 0 011.411-.1c1.465 1.269 2.675 2.634 3.647 4.075a1 1 0 01-1.659 1.118c-.867-1.287-1.958-2.521-3.298-3.682a1 1 0 01-.101-1.41zm6.168 8.284a1 1 0 011.241.678c.522 1.778.758 3.607.743 5.453a1 1 0 11-1.999-.016 16.78 16.78 0 00-.663-4.874 1 1 0 01.678-1.241zm.538 10.327a1 1 0 01.723 1.216 28.563 28.563 0 01-1.843 5.094 1 1 0 11-1.81-.85 26.738 26.738 0 001.715-4.736 1 1 0 011.215-.724zm-38.768 8.304a19.597 19.597 0 012.437-.148c.811 0 1.627.018 2.445.052a1 1 0 01-.084 1.998 56.166 56.166 0 00-2.361-.05c-.765 0-1.495.046-2.189.133a1 1 0 11-.248-1.985zm8.656 1.177a1 1 0 011.112-.874c1.61.192 3.225.444 4.837.75a1 1 0 11-.373 1.965 69.414 69.414 0 00-4.701-.73 1 1 0 01-.875-1.111zm26.055.12a1 1 0 01.27 1.389 39.707 39.707 0 01-2.893 3.773c.368.158.735.318 1.099.48a1 1 0 11-.813 1.827 87.348 87.348 0 00-4.411-1.821 1 1 0 01.712-1.869c.491.187.98.378 1.465.573.016-.02.032-.04.049-.058a37.9 37.9 0 003.133-4.023 1.001 1.001 0 011.389-.27zm-38.114.51a1 1 0 01-.485 1.33c-1.407.654-2.527 1.512-3.344 2.47a1 1 0 01-1.522-1.298c1.02-1.195 2.378-2.221 4.022-2.986a1 1 0 011.329.485zm21.562 1.031a1 1 0 011.217-.72c1.575.402 3.141.852 4.692 1.346a1 1 0 01-.607 1.906 81.892 81.892 0 00-4.581-1.315 1 1 0 01-.721-1.217zm-27.905 5.284a1 1 0 01.897 1.093c-.124 1.255.175 2.54.971 3.728a1 1 0 01-1.662 1.113c-1.05-1.568-1.47-3.315-1.299-5.037a1 1 0 011.093-.897zm37.715 1.154a1 1 0 01-.096 1.41 42.332 42.332 0 01-4.255 3.26 1.001 1.001 0 01-1.113-1.662 40.316 40.316 0 004.054-3.105.999.999 0 011.41.097zm8.275.205a1 1 0 011.347-.432 83.556 83.556 0 014.276 2.356 1 1 0 01-1.017 1.722 81.72 81.72 0 00-4.174-2.3 1 1 0 01-.432-1.346zm8.356 4.8a1 1 0 011.389-.265 66.305 66.305 0 013.955 2.903 1.001 1.001 0 01-1.244 1.566 64.121 64.121 0 00-3.836-2.815 1 1 0 01-.264-1.39zm-25.173 1.008a1.001 1.001 0 01-.462 1.337 34.383 34.383 0 01-5.009 1.978 1 1 0 01-.582-1.914 32.41 32.41 0 004.716-1.863 1 1 0 011.337.462zm-25.572.75a1 1 0 011.359-.392c1.101.608 2.448 1.128 4.065 1.51a1 1 0 11-.46 1.947c-1.768-.418-3.291-.998-4.573-1.707a1 1 0 01-.391-1.359zm15.688 2.562a1 1 0 01-.886 1.102 25.31 25.31 0 01-2.72.149c-.826 0-1.62-.025-2.382-.073a1 1 0 01.125-1.996c.718.045 1.47.069 2.257.069.831 0 1.666-.047 2.504-.137a1 1 0 011.102.886zm42.705 1.579a1 1 0 011.414-.033 41.5 41.5 0 013.361 3.591 1 1 0 01-1.543 1.273 39.42 39.42 0 00-3.199-3.418.999.999 0 01-.033-1.413zm6.277 7.296a1 1 0 011.362.379c.886 1.567 1.538 3.147 1.909 4.717a1 1 0 01-1.946.46c-.321-1.354-.893-2.758-1.704-4.194a1 1 0 01.379-1.362zm2.619 9.119a1 1 0 01.77 1.186c-.355 1.664-1.11 3.242-2.292 4.701a1 1 0 11-1.554-1.259c.994-1.227 1.605-2.52 1.89-3.858a1 1 0 011.186-.77zm-191.748 8.25c-.855-.007-1.67-.004-2.444.007a1 1 0 01-.03-2c.792-.011 1.622-.014 2.49-.007a1 1 0 01-.016 2zm3.962-.92a1 1 0 011.036-.964c1.562.056 3.215.132 4.955.224a1 1 0 01-.105 1.997 298.596 298.596 0 00-4.923-.222 1 1 0 01-.963-1.036zm9.878.483a1 1 0 011.061-.935c1.593.1 3.245.212 4.956.331a1 1 0 11-.14 1.995c-1.707-.119-3.355-.23-4.942-.33a1 1 0 01-.935-1.06zm172.851.053a1 1 0 01-.291 1.384c-1.281.836-2.763 1.607-4.454 2.308a1 1 0 01-.766-1.847c1.595-.661 2.965-1.377 4.127-2.136a1 1 0 011.384.291zm-162.961.624a1 1 0 011.071-.924c1.6.12 3.245.244 4.933.373a1 1 0 11-.153 1.994c-1.687-.13-3.33-.254-4.928-.372a1 1 0 01-.923-1.071zm9.87.751a1 1 0 011.075-.919l4.944.388a1 1 0 11-.157 1.993h-.008l-4.935-.387a1 1 0 01-.919-1.075zm9.888.775a1 1 0 011.075-.919c1.617.127 3.263.255 4.937.384a1 1 0 01-.154 1.994l-4.94-.384a1 1 0 01-.918-1.075zm9.873.764a1 1 0 011.072-.921c1.622.123 3.267.247 4.936.37a1 1 0 11-.148 1.995c-1.67-.124-3.316-.248-4.94-.37a1 1 0 01-.92-1.074zm9.876.736a1 1 0 011.07-.926c1.626.117 3.273.234 4.94.35a1 1 0 11-.14 1.995 2133.78 2133.78 0 01-4.944-.35 1 1 0 01-.926-1.07zm114.693.422a.999.999 0 01-.69 1.234 61.393 61.393 0 01-4.77 1.134 1.001 1.001 0 01-.389-1.962 59.396 59.396 0 004.615-1.097 1 1 0 011.234.69zm-104.808.27a1 1 0 011.064-.93c1.628.108 3.273.216 4.935.323a1 1 0 11-.128 1.996c-1.664-.107-3.311-.215-4.94-.324a1 1 0 01-.931-1.065zm9.875.64a1 1 0 011.06-.938c1.63.1 3.275.198 4.936.294a1 1 0 11-.115 1.996 1416.12 1416.12 0 01-4.944-.294 1 1 0 01-.937-1.059zm9.883.577a1 1 0 011.053-.944c1.633.09 3.281.176 4.942.26a1 1 0 01-.102 1.998 1855.37 1855.37 0 01-4.949-.26 1 1 0 01-.944-1.054zm9.894.511a1 1 0 011.046-.951c1.638.077 3.288.152 4.949.224a1 1 0 11-.087 1.998c-1.664-.072-3.316-.147-4.956-.225a1 1 0 01-.952-1.046zm65.769.039a.999.999 0 01-.853 1.127c-1.52.21-3.117.393-4.795.548a1 1 0 01-.184-1.992c1.65-.152 3.217-.332 4.705-.537a1 1 0 011.127.854zm-55.868.399a1 1 0 011.039-.96c1.635.065 3.281.127 4.938.186a1 1 0 11-.071 1.998c-1.659-.058-3.308-.12-4.946-.185a1 1 0 01-.96-1.039zm9.89.36a1 1 0 011.031-.969c1.639.052 3.289.1 4.947.145a1 1 0 11-.054 1.999c-1.662-.045-3.314-.093-4.956-.145a1 1 0 01-.968-1.03zm36.435.216a1 1 0 01-.943 1.054 161.68 161.68 0 01-4.916.197 1 1 0 11-.05-2 159.8 159.8 0 004.855-.194 1 1 0 011.054.943zm-26.527.06a1 1 0 011.023-.977c1.639.038 3.288.072 4.945.102a1 1 0 01-.037 2c-1.66-.03-3.311-.065-4.954-.102a1 1 0 01-.977-1.023zm9.896.19a1 1 0 011.014-.986c.826.012 1.654.022 2.483.032.844.01 1.673.014 2.489.014a1 1 0 110 2c-.824 0-1.661-.005-2.511-.015l-2.489-.031a1 1 0 01-.986-1.014z" fill="#fff"/><path d="M1.217 82.455c1.696-1.134 3.375-2.163 5.149-3.066 1.27-.66 3.227-1.97 4.676-1.62.564.095.91.807.482 1.28-.853.948-2.539 1.322-3.66 1.789-1.383.642-2.8 1.495-4.218 2.35 2.115 1.224 4.176 2.767 6.143 4.185.624.431-.022 1.523-.776 1.179-2.68-1.319-4.878-3.43-7.723-4.45-.66-.218-.613-1.192-.073-1.647z" fill="#fff"/></svg>