<svg width="88" height="88" fill="none" xmlns="http://www.w3.org/2000/svg"><path fill-rule="evenodd" clip-rule="evenodd" d="M62.18 5.45a.75.75 0 00.6.876 79.26 79.26 0 012.589.527.75.75 0 10.324-1.464 80.66 80.66 0 00-2.637-.538.75.75 0 00-.875.6zm7.635 1.764a.75.75 0 00.493.939 41.54 41.54 0 014.731 1.77.75.75 0 10.616-1.368 43.04 43.04 0 00-4.901-1.834.75.75 0 00-.94.493zm9.454 4.147a.75.75 0 00.171 1.047c1.526 1.095 2.667 2.25 3.487 3.431a.75.75 0 001.232-.854c-.931-1.343-2.201-2.616-3.844-3.795a.75.75 0 00-1.046.171zM61.587 25.715c-1.814.376-3.445 1.23-4.63 2.656a.75.75 0 101.154.958c.929-1.118 2.234-1.825 3.78-2.145a.75.75 0 00-.304-1.469zm4.317.655a.75.75 0 00.587.883c1.483.3 2.993.843 4.422 1.603a.75.75 0 10.704-1.324 17.889 17.889 0 00-4.83-1.749.75.75 0 00-.883.587zm-10.003 6.266a.75.75 0 00-.808.687 14.41 14.41 0 00.04 2.621c.104 1.041.338 1.963.697 2.765a.75.75 0 101.37-.612c-.284-.634-.484-1.395-.575-2.302a13.022 13.022 0 01-.037-2.35.75.75 0 00-.687-.809zm29.383-13.174a.75.75 0 00-.667.824c.165 1.566-.067 3.174-.624 4.78a.75.75 0 101.416.492c.618-1.777.892-3.608.7-5.43a.75.75 0 00-.825-.666zm-10.58 11.105a.75.75 0 00.008 1.06c1.12 1.103 2.057 2.37 2.72 3.768a.75.75 0 101.356-.642 13.956 13.956 0 00-.114-.234.75.75 0 00.737-.176 28.076 28.076 0 003.493-4.027.75.75 0 10-1.225-.865 26.583 26.583 0 01-3.307 3.81.745.745 0 00-.202.337 15.273 15.273 0 00-2.405-3.04.75.75 0 00-1.061.009zM13.98 67.998a.75.75 0 00.683.812c.84.073 1.741.135 2.695.185a.75.75 0 00.078-1.498 77.506 77.506 0 01-2.644-.181.75.75 0 00-.812.682zm45.668-26.62a.75.75 0 00.55.907c1.638.402 3.525.317 5.485-.122a.75.75 0 00-.327-1.464c-1.818.407-3.458.459-4.801.13a.75.75 0 00-.907.55zm10.068-1.355a.75.75 0 001 .354 32.772 32.772 0 004.589-2.678.75.75 0 00-.857-1.231 31.277 31.277 0 01-4.377 2.555.75.75 0 00-.355 1zM22.007 68.377c0 .414.337.75.751.749 1.71-.003 3.519-.045 5.398-.135a.75.75 0 00-.072-1.498c-1.856.089-3.64.13-5.328.133a.75.75 0 00-.749.75zm57.236-29.295a.75.75 0 00-.728.772c.042 1.426-.188 2.95-.762 4.555a.75.75 0 001.413.505c.633-1.772.896-3.481.848-5.104a.75.75 0 00-.771-.728zm-46.526 28.85a.75.75 0 00.817.677c1.756-.165 3.55-.375 5.362-.634a.75.75 0 10-.212-1.485 110.57 110.57 0 01-5.29.626.75.75 0 00-.677.817zm10.623-1.451a.75.75 0 00.881.59 89.956 89.956 0 005.272-1.203.75.75 0 00-.379-1.452 88.583 88.583 0 01-5.183 1.184.75.75 0 00-.59.88zm33.25-18.067a.75.75 0 00-1.044.188 24.99 24.99 0 01-1.462 1.899 30.939 30.939 0 01-1.774 1.923.75.75 0 101.06 1.062 32.474 32.474 0 001.86-2.016 26.604 26.604 0 001.549-2.012.75.75 0 00-.189-1.044zM53.731 63.852a.75.75 0 00.95.47 64.971 64.971 0 005.064-1.939.75.75 0 10-.596-1.376 63.51 63.51 0 01-4.947 1.895.75.75 0 00-.47.95zm15.639-7.863a.75.75 0 00-1.049-.16 42.581 42.581 0 01-4.431 2.841.75.75 0 00.732 1.31 44.082 44.082 0 004.588-2.942.75.75 0 00.16-1.049z" fill="#fff"/><path d="M6.569 66.673c1.164 1.384 2.339 2.673 3.625 3.879.917.875 2.26 2.471 3.58 2.53.503.06.972-.461.726-.97-.493-1.017-1.835-1.75-2.674-2.424-1.018-.887-2.014-1.963-3.01-3.039 2.102-.52 4.236-1.325 6.26-2.047.636-.213.356-1.3-.37-1.194-2.605.461-4.997 1.715-7.669 1.881-.614.024-.815.864-.468 1.384z" fill="#fff"/></svg>