<svg width="96" height="103" fill="none" xmlns="http://www.w3.org/2000/svg"><path fill-rule="evenodd" clip-rule="evenodd" d="M60.492 7a.75.75 0 01.75-.75c.851 0 1.68.023 2.487.068a.75.75 0 11-.083 1.497 43.298 43.298 0 00-2.404-.065.75.75 0 01-.75-.75zm7.208.492a.75.75 0 01.876-.598c1.718.324 3.312.766 4.787 1.313a.75.75 0 01-.522 1.406 27.92 27.92 0 00-4.543-1.245.75.75 0 01-.598-.876zm9.075 3.13a.75.75 0 011.034-.236 21.055 21.055 0 013.875 3.128.75.75 0 11-1.075 1.046 19.55 19.55 0 00-3.6-2.904.75.75 0 01-.234-1.035zm6.907 6.595a.75.75 0 011.026.266 22.904 22.904 0 012.032 4.537.75.75 0 11-1.426.465 21.412 21.412 0 00-1.898-4.241.75.75 0 01.266-1.027zm3.297 8.988a.75.75 0 01.84.646c.212 1.612.29 3.261.248 4.925a.75.75 0 11-1.5-.038 30.226 30.226 0 00-.235-4.692.75.75 0 01.647-.841zm.004 9.608a.75.75 0 01.62.86 40.202 40.202 0 01-1.083 4.79.75.75 0 11-1.44-.419 38.697 38.697 0 001.043-4.61.75.75 0 01.86-.62zm-28.167 3.555a50.75 50.75 0 012.425-.057c.837 0 1.675.054 2.51.158a.75.75 0 11-.184 1.488 18.855 18.855 0 00-2.325-.146c-.806 0-1.59.019-2.354.056a.75.75 0 01-.072-1.499zm-3.965 1.113a.75.75 0 01-.621.86 32.94 32.94 0 00-4.528 1.044.75.75 0 11-.444-1.432 34.43 34.43 0 014.734-1.093.75.75 0 01.86.621zm12.807.605a.75.75 0 01.955-.462 29.28 29.28 0 014.527 2.041.75.75 0 01-.726 1.313 27.785 27.785 0 00-4.295-1.937.75.75 0 01-.461-.955zm-21.93 2.048a.75.75 0 01-.305 1.016c-1.482.795-2.71 1.693-3.683 2.649a.75.75 0 11-1.05-1.071c1.087-1.067 2.433-2.046 4.023-2.9a.75.75 0 011.016.306zm38.75 1.968a.75.75 0 01.398.983 41.27 41.27 0 01-2.176 4.4.75.75 0 11-1.302-.745c.778-1.36 1.48-2.78 2.097-4.24a.75.75 0 01.983-.398zm-8.245.412a.75.75 0 011.05-.147 40.242 40.242 0 013.75 3.213.75.75 0 01-1.044 1.078 38.725 38.725 0 00-3.608-3.094.75.75 0 01-.148-1.05zm-37.377 3.975a.75.75 0 01.457.957c-.495 1.403-.536 2.834-.117 4.212a.75.75 0 01-1.435.437c-.516-1.697-.46-3.455.138-5.148a.75.75 0 01.957-.458zm44.46 2.616a.75.75 0 011.056.104 42.888 42.888 0 012.902 3.985.75.75 0 11-1.261.811 41.398 41.398 0 00-2.801-3.845.75.75 0 01.105-1.055zm-3.465 1.433c.33.25.396.72.146 1.05a33.627 33.627 0 01-3.245 3.704.75.75 0 01-1.05-1.07 32.124 32.124 0 003.099-3.54.75.75 0 011.05-.144zm-39.356 4.786a.75.75 0 011.06-.027c.966.917 2.21 1.774 3.748 2.526a.75.75 0 11-.659 1.347c-1.654-.808-3.03-1.748-4.121-2.785a.75.75 0 01-.028-1.06zM73.138 60.4a.75.75 0 01-.196 1.043 23.246 23.246 0 01-4.37 2.368.75.75 0 01-.565-1.39 21.739 21.739 0 004.088-2.216.75.75 0 011.043.195zm15.548-.25a.75.75 0 011.001.353 34.32 34.32 0 011.823 4.606.75.75 0 11-1.431.447 32.811 32.811 0 00-1.744-4.404.75.75 0 01.352-1.001zM48.7 62.942a.75.75 0 01.921-.527c1.383.377 2.906.686 4.572.914a.75.75 0 11-.203 1.486 37.506 37.506 0 01-4.763-.952.75.75 0 01-.527-.92zm15.69 1.324a.75.75 0 01-.643.843c-.824.111-1.659.168-2.505.168-.831 0-1.64-.016-2.427-.047a.75.75 0 11.06-1.499c.766.03 1.555.046 2.367.046.778 0 1.547-.052 2.304-.154a.75.75 0 01.844.643zm27.351 5.052a.75.75 0 01.836.653c.208 1.698.234 3.378.05 5.009a.75.75 0 01-1.491-.168c.17-1.502.148-3.064-.048-4.659a.75.75 0 01.653-.835zm-.785 9.559a.75.75 0 01.39.986 15.737 15.737 0 01-2.737 4.265.75.75 0 01-1.117-1.002 14.231 14.231 0 002.478-3.86.75.75 0 01.986-.39zm-5.983 7.443a.75.75 0 01-.236 1.034c-1.315.825-2.801 1.55-4.47 2.164a.75.75 0 11-.517-1.407c1.579-.582 2.97-1.263 4.19-2.027a.75.75 0 011.033.236zm-8.911 3.656a.75.75 0 01-.584.886 45.236 45.236 0 01-4.842.71.75.75 0 01-.14-1.493 43.754 43.754 0 004.68-.686.75.75 0 01.886.584zm-40.193 1.342a488.361 488.361 0 00-4.97-.02.75.75 0 01-.003-1.5c1.439-.002 3.077.004 4.986.02a.75.75 0 11-.013 1.5zm-9.187-.732a.75.75 0 01-.734.766c-1.855.04-3.361.1-4.954.17a.75.75 0 11-.065-1.499c1.596-.07 3.116-.13 4.986-.17a.75.75 0 01.767.733zm13.413.028a.75.75 0 01.76-.74c1.519.021 3.17.047 4.974.078a.75.75 0 11-.026 1.5 1515.89 1515.89 0 00-4.969-.078.75.75 0 01-.74-.76zm9.95.165a.75.75 0 01.764-.735c1.566.03 3.226.064 4.99.101a.75.75 0 01-.031 1.5c-1.763-.037-3.423-.07-4.988-.101a.75.75 0 01-.735-.765zm-33.302.172a.75.75 0 01-.723.776c-.763.028-1.59.055-2.498.082a.75.75 0 01-.044-1.5c.906-.026 1.728-.053 2.489-.08a.75.75 0 01.776.722zm43.249.035a.75.75 0 01.766-.733l2.517.056c.84.02 1.657.023 2.453.014a.75.75 0 11.018 1.5c-.814.01-1.649.005-2.505-.014l-2.516-.057a.75.75 0 01-.733-.766z" fill="#fff"/><path d="M4.916 90.148c1.476-.992 2.937-1.892 4.48-2.683 1.106-.578 2.81-1.723 4.07-1.416.49.082.791.705.42 1.12-.743.829-2.21 1.156-3.186 1.564-1.203.562-2.436 1.309-3.67 2.056 1.84 1.072 3.634 2.422 5.346 3.663.543.377-.02 1.332-.676 1.031-2.331-1.154-4.245-3.001-6.72-3.893-.574-.191-.534-1.043-.064-1.442z" fill="#fff"/></svg>