<svg width="56" height="56" fill="none" xmlns="http://www.w3.org/2000/svg"><circle cx="28" cy="28" r="27" fill="#fff" stroke="#07C2F2" stroke-width="2"/><path fill-rule="evenodd" clip-rule="evenodd" d="M9.674 49.17c.921-1.372 2.18-2.444 3.666-3.038 0 0 6.299-2.468 8.379-3.347 1.278-.545 2.347-1.532 2.609-2.968l-.21-.221-.935-1.05a9.213 9.213 0 01-.383-.448 1.105 1.105 0 01-1.383-.273c-.372.976-1.627 3.422-4.806 3.24l-.479-.027c-4.082-.235-5.068-.292-5.616 1.61-.506-.67.529-6.548 4.126-8.58 1.214-.686 2.202-1.072 2.992-1.259a1.037 1.037 0 01.232-1.475c.134-.09.274-.153.425-.182a12.928 12.928 0 01-1.372-5.47c-.273-11.802 5.375-15.445 11.57-12.926 6.193-2.52 11.841 1.124 11.568 12.926a13.014 13.014 0 01-1.371 5.47c.151.029.296.085.424.182.477.346.581 1.004.233 1.475.79.193 1.778.573 2.992 1.26 3.597 2.026 4.631 7.904 4.126 8.58-.55-1.91-1.54-1.851-5.657-1.61l-.439.026c-3.172.188-4.427-2.258-4.805-3.24-.331.42-.918.528-1.383.273l-.033.039c-.116.139-.228.274-.35.409l-.78.874c.117 1.662 1.28 2.763 2.656 3.393 2.214 1.01 8.03 3.285 8.03 3.285 1.277.524 2.383 1.4 3.25 2.515A27.9 27.9 0 0128.015 56h-.03a27.891 27.891 0 01-18.311-6.83z" fill="#07C2F2"/></svg>