<svg width="56" height="56" fill="none" xmlns="http://www.w3.org/2000/svg"><circle cx="28" cy="28" r="27" fill="#fff" stroke="#07C2F2" stroke-width="2"/><path fill-rule="evenodd" clip-rule="evenodd" d="M7.34 46.9a8.717 8.717 0 013.554-2.32s6.946-2.355 9.243-3.195c1.483-.542 2.696-1.554 2.912-3.028a6.364 6.364 0 01-1.127-1.283l-1.672-2.557a10.421 10.421 0 01-1.666-4.685c-.426-.108-.658-.363-.906-.758a1.145 1.145 0 01-.06-.114l-1.013-2.383c-.264-.775.108-1.609.895-2.015l.102-.054c.308-.157.648-.141.923-.011v-.108c-.151-.921-1.09-7.307.787-9.192 0 0-.372-.233-.987.51 0 0 .647-2.243 2.686-2.059 0 0 .528-3.997 4.691-3.624 0 0-.771.65-.615 1.55 0 0 4.04-1.74 8.64.308 0 0-.987-.222-1.883.277 0 0 5.015.498 6.25 4.262 0 0-.77-.157-1.035.108 0 0 .502.564.377 3.169-.052 1.11-.113 2.363-.165 3.436l-.061 1.26c.135.01.264.043.394.108l.102.055c.787.406 1.16 1.24.895 2.014l-1.014 2.384a1.145 1.145 0 01-.059.113c-.243.39-.474.65-.895.753a10.476 10.476 0 01-1.613 4.647l-1.628 2.54a5.996 5.996 0 01-.803 1.003c.053 1.668 1.364 2.767 2.933 3.385 2.443.964 8.855 3.136 8.855 3.136a8.71 8.71 0 013.902 2.774A28.045 28.045 0 0138.412 54H17.588A28.055 28.055 0 017.34 46.9z" fill="#07C2F2"/></svg>