<svg width="24" height="24" fill="none" xmlns="http://www.w3.org/2000/svg"><g clip-path="url(#clip0)"><path d="M15.1 1.305a4.335 4.335 0 00-6.201 0l-.933.957-1.335-.016a4.335 4.335 0 00-4.386 4.386l.015 1.335-.954.933a4.335 4.335 0 000 6.2l.956.934-.017 1.335a4.336 4.336 0 004.386 4.386l1.335-.015.933.954a4.334 4.334 0 006.201 0l.933-.956 1.335.017a4.334 4.334 0 004.386-4.386l-.015-1.335.954-.933a4.335 4.335 0 000-6.201l-.956-.933.017-1.335a4.334 4.334 0 00-4.386-4.386l-1.335.015-.933-.954v-.002zm.43 8.976l-4.5 4.5a.748.748 0 01-1.061 0l-2.25-2.25a.75.75 0 111.062-1.062l1.718 1.72 3.97-3.97a.751.751 0 011.062 1.062z" fill="#FF7B38"/></g><defs><clipPath id="clip0"><path fill="#fff" d="M0 0h24v24H0z"/></clipPath></defs></svg>