<svg width="68" height="68" fill="none" xmlns="http://www.w3.org/2000/svg"><path d="M26.022 16.522a2.25 2.25 0 000-3.182l-9.546-9.545a2.251 2.251 0 00-3.182 0L8.52 8.567l12.73 12.728 4.773-4.773zm38.184 38.185a2.251 2.251 0 000-3.183L54.66 41.98a2.25 2.25 0 00-3.181 0l-4.774 4.773L59.433 59.48l4.773-4.772z" fill="#fff"/><path d="M21.249 21.296L8.522 8.567 6.93 10.16a18 18 0 000 25.456L32.386 61.07a18 18 0 0025.456 0l1.592-1.59-12.728-12.728-1.591 1.59a6.75 6.75 0 01-9.547 0l-15.91-15.909a6.75 6.75 0 010-9.547l1.591-1.59z" fill="#fff"/><path fill-rule="evenodd" clip-rule="evenodd" d="M8.022 9.067l10.227 10.229-1.59 1.59a6.75 6.75 0 000 9.547l15.909 15.91a6.752 6.752 0 002.628 1.627l.372.373a6.752 6.752 0 009.547 0l1.09-1.091 10.229 10.227-1.592 1.591a18 18 0 01-21.162 3.174c-.448-.369-.88-.76-1.294-1.174L6.93 35.614a18 18 0 010-25.455l1.092-1.092z" fill="#07C2F2"/><path d="M66.625 5.875v18a4.5 4.5 0 01-4.5 4.5h-13.5l-9 10.125V28.375h-2.25a4.5 4.5 0 01-4.5-4.5v-18a4.5 4.5 0 014.5-4.5h24.75a4.5 4.5 0 014.5 4.5z" fill="#fff"/><path fill-rule="evenodd" clip-rule="evenodd" d="M62.625 22.875v-18a4.5 4.5 0 00-1.672-3.5H37.375a4.5 4.5 0 00-4.5 4.5v18a4.5 4.5 0 001.672 3.5h1.078v.646a4.499 4.499 0 001.75.354h2.25V33l5-5.625h13.5a4.5 4.5 0 004.5-4.5z" fill="#FF955F"/><path d="M40.75 17.125a2.25 2.25 0 100-4.5 2.25 2.25 0 000 4.5zm9 0a2.25 2.25 0 100-4.5 2.25 2.25 0 000 4.5zm9 0a2.25 2.25 0 100-4.5 2.25 2.25 0 000 4.5z" fill="#fff"/><path d="M55.456 41.182a3.38 3.38 0 00-4.774 0l-6.363 6.364a5.632 5.632 0 01-7.955 0l-15.91-15.909a5.632 5.632 0 010-7.954l6.364-6.363a3.375 3.375 0 000-4.774L17.272 3A3.456 3.456 0 0012.5 3L6.134 9.362a19.149 19.149 0 000 27.046l25.457 25.458a19.125 19.125 0 0027.046 0l6.366-6.365a3.375 3.375 0 000-4.772l-9.547-9.547zM14.088 4.589a1.15 1.15 0 011.59 0l9.548 9.548a1.125 1.125 0 010 1.59l-3.978 3.977L10.11 8.567l3.978-3.978zm42.955 55.688a16.875 16.875 0 01-23.865 0L7.726 34.819a16.895 16.895 0 010-23.865l.796-.795 11.137 11.137-.795.796a7.881 7.881 0 000 11.137l15.91 15.909a7.884 7.884 0 0011.137 0l.795-.795L57.844 59.48l-.801.797zm6.369-6.365l-3.98 3.977-11.137-11.137 3.978-3.977a1.125 1.125 0 011.592 0l9.545 9.546a1.124 1.124 0 01.002 1.591z" fill="#313131"/><path d="M62.125.25h-24.75a5.632 5.632 0 00-5.625 5.625v18a5.632 5.632 0 005.625 5.625H38.5v9a1.126 1.126 0 001.965.748L49.13 29.5h12.995a5.632 5.632 0 005.625-5.625v-18A5.632 5.632 0 0062.125.25zM65.5 23.875a3.375 3.375 0 01-3.375 3.375h-13.5a1.125 1.125 0 00-.84.377L40.75 35.54v-7.166a1.125 1.125 0 00-1.125-1.125h-2.25A3.375 3.375 0 0134 23.875v-18A3.375 3.375 0 0137.375 2.5h24.75A3.375 3.375 0 0165.5 5.875v18z" fill="#313131"/><path d="M40.75 11.5a3.374 3.374 0 100 6.749 3.374 3.374 0 000-6.749zm0 4.5a1.125 1.125 0 110-2.25 1.125 1.125 0 010 2.25zm9-4.5a3.374 3.374 0 100 6.749 3.374 3.374 0 000-6.749zm0 4.5a1.125 1.125 0 110-2.25 1.125 1.125 0 010 2.25zm9-4.5a3.374 3.374 0 100 6.749 3.374 3.374 0 000-6.749zm0 4.5a1.125 1.125 0 110-2.25 1.125 1.125 0 010 2.25z" fill="#313131"/></svg>