<svg width="72" height="72" fill="none" xmlns="http://www.w3.org/2000/svg"><path d="M1 68.5V28.006a2 2 0 01.807-1.606L34.8 1.892a2 2 0 012.396.009L69.704 26.4a2 2 0 01.796 1.597V68.5a2 2 0 01-2 2H3a2 2 0 01-2-2z" fill="#fff"/><path fill-rule="evenodd" clip-rule="evenodd" d="M3 70.5h61.5a2 2 0 002-2V27.997a2 2 0 00-.796-1.597L33.986 2.497 1.807 26.4A2 2 0 001 28.006V68.5a2 2 0 002 2z" fill="#07C2F2"/><path d="M9.5 33.5V9h53v25.5L45 48.5 36 42l-8.5 6.5-18-15z" fill="#fff"/><path d="M48 13.916H24a4.78 4.78 0 00-3.394 1.418 4.861 4.861 0 00-1.406 3.422v9.681c0 1.284.506 2.515 1.406 3.423A4.78 4.78 0 0024 33.277h7.2l4.8 6.05 4.8-6.05H48a4.78 4.78 0 003.394-1.417 4.861 4.861 0 001.406-3.423v-9.68a4.861 4.861 0 00-1.406-3.423A4.78 4.78 0 0048 13.916z" fill="#fff"/><path fill-rule="evenodd" clip-rule="evenodd" d="M24 13.916a4.78 4.78 0 00-3.394 1.418 4.861 4.861 0 00-1.406 3.422v9.681c0 1.284.506 2.515 1.406 3.423A4.78 4.78 0 0024 33.277h7.2l3.3 4.16 3.3-4.16H45a4.78 4.78 0 003.394-1.417 4.861 4.861 0 001.406-3.423v-9.68a4.861 4.861 0 00-1.406-3.423A4.78 4.78 0 0045 13.916H24z" fill="#FF955F"/><path d="M71.513 26.28l.012-.018L63.6 20.2V9.076c0-.321-.126-.63-.352-.856a1.195 1.195 0 00-.848-.354H47.48l-9.3-7.11a3.58 3.58 0 00-4.357 0l-9.302 7.11H9.6c-.318 0-.623.127-.849.354a1.215 1.215 0 00-.351.856V20.2L.48 26.259l.012.017a1.181 1.181 0 00-.492.95V70.79c0 .32.126.629.351.856.226.227.53.354.849.354h69.6c.318 0 .624-.127.849-.354.225-.227.351-.535.351-.856V27.227a1.193 1.193 0 00-.487-.948zM8.4 31.661l-5.268-4.394L8.4 23.234v8.428zm17.018 17.346L2.4 68.218v-38.42l23.018 19.21zm9.818-5.05a1.185 1.185 0 011.534.006L67.468 69.58H4.532l30.704-25.622zm11.346 5.05L69.6 29.798v38.42l-23.018-19.21zm22.286-21.74L63.6 31.662v-8.428l5.268 4.034zM35.28 2.68a1.177 1.177 0 011.45 0l6.777 5.187H28.493L35.28 2.68zM10.8 10.286h50.4v23.379l-16.5 13.77-6.394-5.334a3.564 3.564 0 00-4.606 0l-6.4 5.334-16.5-13.77v-23.38z" fill="#313131"/><path d="M24 34.488h6.624l4.44 5.596a1.201 1.201 0 00.937.455 1.192 1.192 0 00.937-.455l4.438-5.596H48a5.982 5.982 0 004.24-1.775A6.084 6.084 0 0054 28.437v-9.68a6.084 6.084 0 00-1.76-4.277A5.982 5.982 0 0048 12.706H24a5.982 5.982 0 00-4.24 1.774A6.084 6.084 0 0018 18.756v9.681a6.084 6.084 0 001.76 4.276A5.982 5.982 0 0024 34.488zm-3.6-15.732c0-.962.38-1.886 1.054-2.567A3.585 3.585 0 0124 15.126h24c.955 0 1.87.383 2.546 1.063a3.646 3.646 0 011.054 2.567v9.681a3.65 3.65 0 01-1.054 2.567A3.585 3.585 0 0148 32.067h-7.2a1.192 1.192 0 00-.937.454L36 37.391l-3.863-4.869a1.2 1.2 0 00-.937-.455H24c-.955 0-1.87-.382-2.546-1.063a3.646 3.646 0 01-1.054-2.567v-9.68z" fill="#313131"/><path d="M26.4 19.967h19.2c.319 0 .624-.128.849-.355a1.215 1.215 0 000-1.711 1.195 1.195 0 00-.849-.355H26.4c-.318 0-.623.128-.848.355a1.215 1.215 0 000 1.711c.225.227.53.355.848.355zm0 4.84h19.2c.319 0 .624-.128.849-.354a1.215 1.215 0 000-1.712 1.195 1.195 0 00-.849-.354H26.4c-.318 0-.623.127-.848.354a1.215 1.215 0 000 1.712c.225.226.53.354.848.354zm0 4.84h19.2c.319 0 .624-.127.849-.354a1.215 1.215 0 000-1.712 1.194 1.194 0 00-.849-.354H26.4c-.318 0-.623.128-.848.354a1.215 1.215 0 000 1.712c.225.227.53.354.848.354z" fill="#313131"/></svg>