<svg width="72" height="72" fill="none" xmlns="http://www.w3.org/2000/svg"><path d="M57.375 48.375h-42.75l-11.25 20.25h65.25l-11.25-20.25zm-14.231 15.75H11.025l3.122-5.625 3.122-5.625H54.73l3.122 5.625 3.122 5.625h-17.83z" fill="#fff"/><path fill-rule="evenodd" clip-rule="evenodd" d="M14.625 48.375l-11.25 20.25h63l-11.25-20.25h-40.5zm-5.85 15.75h52.2L57.853 58.5l-3.122-5.625H15.02L11.897 58.5l-3.122 5.625z" fill="#FF955F"/><path d="M36 59.625s22.5-21.323 22.5-33.75a22.5 22.5 0 10-45 0c0 9.05 11.925 22.813 18.414 29.627v-.006.006C34.333 58.043 36 59.625 36 59.625zm-9-33.75a9 9 0 1117.999 0 9 9 0 01-17.999 0z" fill="#fff"/><path fill-rule="evenodd" clip-rule="evenodd" d="M33.813 57.463c5.654-5.732 20.312-21.557 20.312-31.588A22.5 22.5 0 0033.812 3.482 22.5 22.5 0 0013.5 25.875c0 9.051 11.925 22.813 18.414 29.627.704.74 1.345 1.399 1.9 1.96zm0-22.858a8.997 8.997 0 01-8.552-2.365 9 9 0 018.551-15.095A8.998 8.998 0 0144.315 29.32a9 9 0 01-10.502 5.285z" fill="#07C2F2"/><path d="M36 36a10.124 10.124 0 1110.125-10.125A10.137 10.137 0 0136 36zm0-18a7.875 7.875 0 107.875 7.875A7.884 7.884 0 0036 18z" fill="#313131"/><path d="M69.608 68.078l-11.25-20.25a1.124 1.124 0 00-.983-.578h-8.538c5.5-6.862 10.788-15.103 10.788-21.375a23.625 23.625 0 10-47.25 0c0 6.272 5.293 14.513 10.788 21.375h-8.538a1.125 1.125 0 00-.983.578l-11.25 20.25a1.125 1.125 0 00.983 1.672h65.25a1.126 1.126 0 00.983-1.672zM36 4.5a21.398 21.398 0 0121.375 21.375c0 10.529-17.456 28.319-21.375 32.175-3.922-3.858-21.375-21.642-21.375-32.175A21.399 21.399 0 0136 4.5zM21.6 63l1.537-3.375h6.119L28.059 63H21.6zm-8.663 0l1.874-3.375h5.858L19.133 63h-6.195zm17.684-7.214l-.564 1.589h-5.893L25.699 54h3.263c.576.632 1.133 1.23 1.66 1.786zm-8.93 1.589h-5.633L17.931 54h5.297l-1.537 3.375zm10.673.225a118.574 118.574 0 002.862 2.84 1.125 1.125 0 001.548 0 117.71 117.71 0 002.86-2.838l1.912 5.4H30.45l1.915-5.402zM43.938 63l-1.198-3.375h6.12L50.4 63h-6.462zm8.93 0l-1.535-3.375h5.858L59.062 63h-6.194zm-2.56-5.625L48.773 54h5.297l1.873 3.375H50.31zM46.3 54l1.536 3.375h-5.895l-.562-1.586c.526-.563 1.083-1.157 1.662-1.789h3.26zM5.288 67.5l9.998-18h9.723c.652.777 1.3 1.529 1.933 2.25h-9.675a1.125 1.125 0 00-.984.58l-6.245 11.25a1.125 1.125 0 00.987 1.67h49.95a1.125 1.125 0 00.984-1.67l-6.245-11.25a1.124 1.124 0 00-.983-.58h-9.675a132.81 132.81 0 001.933-2.25h9.722l10.002 18H5.288z" fill="#313131"/></svg>