<svg width="456" height="384" fill="none" xmlns="http://www.w3.org/2000/svg"><path d="M384 192c0 106.039-85.961 192-192 192S0 298.039 0 192 85.961 0 192 0s192 85.961 192 192z" fill="#E5F8FF"/><g clip-path="url(#clip0)"><path d="M455.794 318.707c0 9.694-7.865 17.537-17.552 17.537H316.355c-9.701 0-17.551-7.843-17.551-17.537V180.346c0-9.694 7.865-17.537 17.551-17.537h121.887c9.702 0 17.552 7.858 17.552 17.537v138.361z" fill="#fff"/><path fill-rule="evenodd" clip-rule="evenodd" d="M438.242 334.244c8.585 0 15.552-6.95 15.552-15.537V180.346c0-8.574-6.954-15.537-15.552-15.537H316.355c-8.584 0-15.551 6.95-15.551 15.537v138.361c0 8.588 6.953 15.537 15.551 15.537h121.887zm0 2c9.687 0 17.552-7.843 17.552-17.537V180.346c0-9.679-7.85-17.537-17.552-17.537H316.355c-9.686 0-17.551 7.843-17.551 17.537v138.361c0 9.694 7.85 17.537 17.551 17.537h121.887z" fill="#313131"/><path d="M455.794 189.115v-8.769c0-9.694-7.865-17.537-17.552-17.537H316.355c-9.701 0-17.551 7.858-17.551 17.537v8.769h156.99z" fill="#fff"/><path fill-rule="evenodd" clip-rule="evenodd" d="M450.794 176.346v8.769h-151.99v-4.769c0-9.679 7.85-17.537 17.551-17.537h121.887c2.994 0 5.814.749 8.281 2.07a17.463 17.463 0 014.271 11.467z" fill="#FF955F"/><path fill-rule="evenodd" clip-rule="evenodd" d="M453.794 187.115v-6.769c0-8.587-6.967-15.537-15.552-15.537H316.355c-8.597 0-15.551 6.963-15.551 15.537v6.769h152.99zm2-6.769c0-9.694-7.865-17.537-17.552-17.537H316.355c-9.701 0-17.551 7.858-17.551 17.537v8.769h156.99v-8.769z" fill="#313131"/><path d="M422.149 181.712c0 .789-.638 1.441-1.443 1.441h-9.565a1.438 1.438 0 01-1.427-1.441v-9.558c0-.789.638-1.426 1.427-1.426h9.565c.79 0 1.443.637 1.443 1.426v9.558z" fill="#fff"/><path fill-rule="evenodd" clip-rule="evenodd" d="M420.149 181.153v-8.425h-8.435v8.425h8.435zm.557 2c.805 0 1.443-.652 1.443-1.441v-9.558c0-.789-.653-1.426-1.443-1.426h-9.565c-.789 0-1.427.637-1.427 1.426v9.558c0 .789.638 1.441 1.427 1.441h9.565z" fill="#313131"/><path d="M440.186 181.712c0 .789-.638 1.441-1.443 1.441h-9.565a1.438 1.438 0 01-1.427-1.441v-9.558c0-.789.638-1.426 1.427-1.426h9.565c.79 0 1.443.637 1.443 1.426v9.558z" fill="#fff"/><path fill-rule="evenodd" clip-rule="evenodd" d="M438.186 181.153v-8.425h-8.435v8.425h8.435zm.557 2c.805 0 1.443-.652 1.443-1.441v-9.558c0-.789-.653-1.426-1.443-1.426h-9.565c-.789 0-1.427.637-1.427 1.426v9.558c0 .789.638 1.441 1.427 1.441h9.565z" fill="#313131"/><path d="M401.424 176.949a6.205 6.205 0 01-6.21 6.205h-80.438c-3.431 0-6.224-2.777-6.224-6.205 0-3.429 2.778-6.205 6.224-6.205h80.438c3.432-.015 6.21 2.761 6.21 6.205z" fill="#fff"/><path fill-rule="evenodd" clip-rule="evenodd" d="M395.223 172.744h-80.447a4.208 4.208 0 00-4.224 4.205c0 2.316 1.89 4.205 4.224 4.205h80.438a4.205 4.205 0 004.21-4.205 4.185 4.185 0 00-4.201-4.205zm-.009-2h-80.438c-3.446 0-6.224 2.776-6.224 6.205 0 3.428 2.793 6.205 6.224 6.205h80.438a6.205 6.205 0 006.21-6.205c0-3.444-2.778-6.22-6.21-6.205z" fill="#313131"/><path d="M311 280v-75h75v75h-75zm70.312-70.312h-65.624v56.25h65.624v-56.25zm-37.5 35.375v-.952c-3.271-1.074-5.651-3.271-7.141-6.591-1.489-3.321-2.233-7.349-2.233-12.085 0-3.614 1.306-6.36 3.918-8.24s5.994-2.82 10.144-2.82 7.532.94 10.144 2.82 3.918 4.626 3.918 8.24c0 10.595-3.124 16.845-9.374 18.75v.878c5.517.489 9.997 1.783 13.439 3.882 3.443 2.1 5.213 4.883 5.311 8.35 0 .488-.208.928-.623 1.318-.415.391-1.05.72-1.904.989-.855.269-1.734.501-2.637.696-.903.195-2.051.354-3.442.476a207.6 207.6 0 01-3.663.293 75.65 75.65 0 01-3.991.146c-1.612.025-2.845.037-3.699.037h-6.958l-3.699-.037-3.991-.146-3.663-.293-3.442-.476-2.637-.696-1.904-.989-.623-1.318c.098-3.467 1.868-6.25 5.311-8.35 3.442-2.099 7.922-3.393 13.439-3.882z" fill="#E5E5E5"/><path d="M438.094 207.943h-41.016a4.78 4.78 0 000 9.558h41.016a4.78 4.78 0 000-9.558z" fill="#E76524"/><path d="M440.483 224.328h-45.794a2.39 2.39 0 100 4.779h45.794a2.39 2.39 0 100-4.779zm2.39 12.182a2.382 2.382 0 01-2.382 2.382h-45.81a2.383 2.383 0 010-4.764h45.81a2.381 2.381 0 012.382 2.382zm-2.39 7.403h-45.794a2.39 2.39 0 100 4.779h45.794a2.39 2.39 0 100-4.779zm0 9.785h-45.794a2.39 2.39 0 100 4.779h45.794a2.39 2.39 0 100-4.779zm.001 9.786h-45.795a2.39 2.39 0 100 4.779h45.795a2.39 2.39 0 000-4.779zm0 9.786h-45.795a2.39 2.39 0 100 4.778h45.795a2.389 2.389 0 100-4.778zm0 20.041H319.975a2.39 2.39 0 100 4.779h120.509a2.39 2.39 0 000-4.779zm0 11.833H319.975a2.39 2.39 0 100 4.779h120.509a2.39 2.39 0 000-4.779z" fill="#E5E5E5"/><path d="M344.088 144.561c0 5.506-4.472 9.959-9.979 9.959h-69.326c-5.517 0-9.979-4.463-9.979-9.959V65.958c0-5.505 4.472-9.958 9.979-9.958h69.326c5.517 0 9.979 4.463 9.979 9.958v78.603z" fill="#fff"/><path fill-rule="evenodd" clip-rule="evenodd" d="M334.109 152.52c4.407 0 7.979-3.563 7.979-7.959V65.958c0-4.388-3.564-7.958-7.979-7.958h-69.326c-4.407 0-7.979 3.562-7.979 7.958v78.603c0 4.389 3.564 7.959 7.979 7.959h69.326zm0 2c5.507 0 9.979-4.453 9.979-9.959V65.958c0-5.495-4.462-9.958-9.979-9.958h-69.326c-5.507 0-9.979 4.453-9.979 9.958v78.603c0 5.496 4.462 9.959 9.979 9.959h69.326z" fill="#313131"/><path d="M344.088 70.943v-4.985c0-5.505-4.472-9.958-9.979-9.958h-69.326c-5.517 0-9.979 4.463-9.979 9.958v4.985h89.284z" fill="#fff"/><path fill-rule="evenodd" clip-rule="evenodd" d="M340.088 62.958v4.985h-85.284v-1.985c0-5.495 4.462-9.958 9.979-9.958h69.326a9.97 9.97 0 013.802.748 9.904 9.904 0 012.177 6.21z" fill="#FF955F"/><path fill-rule="evenodd" clip-rule="evenodd" d="M342.088 68.943v-2.985c0-4.396-3.572-7.958-7.979-7.958h-69.326c-4.415 0-7.979 3.57-7.979 7.958v2.985h85.284zm2-2.985c0-5.505-4.472-9.958-9.979-9.958h-69.326c-5.517 0-9.979 4.463-9.979 9.958v4.985h89.284v-4.985z" fill="#313131"/><path d="M324.946 66.74a.815.815 0 01-.815.814h-5.444a.815.815 0 01-.815-.813v-5.433c0-.448.366-.813.815-.813h5.444c.449 0 .815.365.815.813v5.433z" fill="#fff"/><path fill-rule="evenodd" clip-rule="evenodd" d="M322.946 65.554v-3.06h-3.074v3.06h3.074zm1.185 2a.815.815 0 00.815-.813v-5.433a.815.815 0 00-.815-.813h-5.444a.815.815 0 00-.815.813v5.433c0 .448.366.813.815.813h5.444z" fill="#313131"/><path d="M335.207 66.74a.815.815 0 01-.815.814h-5.444a.815.815 0 01-.815-.813v-5.433c0-.448.366-.813.815-.813h5.444c.449 0 .815.365.815.813v5.433z" fill="#fff"/><path fill-rule="evenodd" clip-rule="evenodd" d="M333.207 65.554v-3.06h-3.074v3.06h3.074zm1.185 2a.815.815 0 00.815-.813v-5.433a.815.815 0 00-.815-.813h-5.444a.815.815 0 00-.815.813v5.433c0 .448.366.813.815.813h5.444z" fill="#313131"/><path d="M313.16 64.02a3.53 3.53 0 01-3.532 3.524h-45.754a3.524 3.524 0 110-7.05h45.754a3.524 3.524 0 013.532 3.525z" fill="#fff"/><path fill-rule="evenodd" clip-rule="evenodd" d="M309.628 65.544a1.524 1.524 0 100-3.05h-45.754a1.524 1.524 0 100 3.05h45.754zm0 2a3.524 3.524 0 100-7.05h-45.754a3.524 3.524 0 100 7.05h45.754z" fill="#313131"/><path d="M262 123V80h43v43h-43zm40.312-40.313h-37.624v32.251h37.624v-32.25zm-21.5 20.283v-.546c-1.875-.616-3.24-1.876-4.094-3.78-.854-1.903-1.28-4.213-1.28-6.928 0-2.072.748-3.646 2.246-4.724 1.498-1.078 3.436-1.617 5.816-1.617s4.318.539 5.816 1.617c1.498 1.078 2.246 2.652 2.246 4.724 0 6.075-1.791 9.658-5.374 10.75v.504c3.163.28 5.731 1.022 7.705 2.225 1.974 1.204 2.989 2.8 3.045 4.787 0 .28-.119.532-.357.756-.238.224-.602.413-1.092.567-.49.154-.994.287-1.512.399-.518.112-1.176.203-1.974.273-.797.07-1.497.126-2.099.168-.602.042-1.365.07-2.289.084-.924.014-1.63.021-2.12.021h-3.99l-2.12-.021-2.289-.084-2.099-.168-1.974-.273-1.512-.399-1.092-.567-.357-.756c.056-1.987 1.071-3.583 3.045-4.787 1.974-1.203 4.542-1.945 7.705-2.225z" fill="#E5E5E5"/><path d="M334.015 81.631h-23.332a2.716 2.716 0 000 5.433h23.332a2.716 2.716 0 100-5.433z" fill="#E76524"/><path d="M335.371 90.943h-26.043a1.36 1.36 0 100 2.722h26.043a1.36 1.36 0 100-2.722zm.005 5.557h-26.054a1.356 1.356 0 000 2.712h26.054a1.356 1.356 0 100-2.711zm0 5.559h-26.054a1.355 1.355 0 000 2.711h26.054a1.356 1.356 0 100-2.711zm0 5.557h-26.054a1.356 1.356 0 000 2.711h26.054a1.356 1.356 0 100-2.711zm0 5.569h-26.054a1.356 1.356 0 000 2.711h26.054a1.356 1.356 0 100-2.711zm0 5.558h-26.054a1.356 1.356 0 000 2.711h26.054a1.356 1.356 0 100-2.711zm0 11.377h-68.548a1.356 1.356 0 100 2.711h68.548a1.356 1.356 0 100-2.711zm0 6.725h-68.548a1.356 1.356 0 100 2.711h68.548a1.356 1.356 0 100-2.711z" fill="#E5E5E5"/><path d="M237.584 265.583c0 10.039-8.141 18.18-18.18 18.18H93.18c-10.04 0-18.18-8.141-18.18-18.18V122.194c0-10.04 8.14-18.181 18.18-18.181h126.224c10.039 0 18.18 8.141 18.18 18.181v143.389z" fill="#fff"/><path fill-rule="evenodd" clip-rule="evenodd" d="M219.404 281.763c8.935 0 16.18-7.245 16.18-16.18V122.194c0-8.935-7.245-16.181-16.18-16.181H93.18c-8.934 0-16.18 7.246-16.18 16.181v143.389c0 8.935 7.246 16.18 16.18 16.18h126.224zm0 2c10.039 0 18.18-8.141 18.18-18.18V122.194c0-10.04-8.141-18.181-18.18-18.181H93.18c-10.04 0-18.18 8.141-18.18 18.181v143.389c0 10.039 8.14 18.18 18.18 18.18h126.224z" fill="#313131"/><path d="M237.584 131.271v-9.091c0-10.039-8.141-18.18-18.18-18.18H93.18C83.14 104 75 112.141 75 122.18v9.091h162.584z" fill="#fff"/><path fill-rule="evenodd" clip-rule="evenodd" d="M233.584 118.18v9.091H75v-5.091C75 112.141 83.14 104 93.18 104h126.224c3.999 0 7.697 1.292 10.699 3.481a18.097 18.097 0 013.481 10.699z" fill="#FF955F"/><path fill-rule="evenodd" clip-rule="evenodd" d="M235.584 129.271v-7.091c0-8.935-7.245-16.18-16.18-16.18H93.18C84.246 106 77 113.245 77 122.18v7.091h158.584zm2-7.091c0-10.039-8.141-18.18-18.18-18.18H93.18C83.14 104 75 112.141 75 122.18v9.091h162.584v-9.091z" fill="#313131"/><path d="M202.744 123.611c0 .819-.663 1.495-1.482 1.495h-9.91a1.492 1.492 0 01-1.482-1.495v-9.91c0-.819.663-1.482 1.482-1.482h9.91c.819 0 1.482.663 1.482 1.482v9.91z" fill="#fff"/><path fill-rule="evenodd" clip-rule="evenodd" d="M200.744 123.106v-8.887h-8.874v8.887h8.874zm.518 2c.819 0 1.482-.676 1.482-1.495v-9.91c0-.819-.663-1.482-1.482-1.482h-9.91c-.819 0-1.482.663-1.482 1.482v9.91c0 .819.663 1.495 1.482 1.495h9.91z" fill="#313131"/><path d="M221.432 123.611c0 .819-.663 1.495-1.482 1.495h-9.897a1.492 1.492 0 01-1.482-1.495v-9.91c0-.819.663-1.482 1.482-1.482h9.897c.819 0 1.482.663 1.482 1.482v9.91z" fill="#fff"/><path fill-rule="evenodd" clip-rule="evenodd" d="M219.432 123.106v-8.887h-8.861v8.887h8.861zm.518 2c.819 0 1.482-.676 1.482-1.495v-9.91c0-.819-.663-1.482-1.482-1.482h-9.897c-.819 0-1.482.663-1.482 1.482v9.91c0 .819.663 1.495 1.482 1.495h9.897z" fill="#313131"/><path d="M181.287 118.656a6.435 6.435 0 01-6.437 6.437H91.542a6.435 6.435 0 01-6.438-6.437 6.427 6.427 0 016.438-6.437h83.308a6.435 6.435 0 016.437 6.437z" fill="#fff"/><path fill-rule="evenodd" clip-rule="evenodd" d="M174.85 123.093a4.435 4.435 0 004.437-4.437 4.435 4.435 0 00-4.437-4.437H91.542a4.427 4.427 0 00-4.438 4.437 4.435 4.435 0 004.438 4.437h83.308zm0 2a6.435 6.435 0 006.437-6.437 6.435 6.435 0 00-6.437-6.437H91.542a6.427 6.427 0 00-6.438 6.437 6.435 6.435 0 006.438 6.437h83.308z" fill="#313131"/><path d="M219.247 150.777h-42.46a4.955 4.955 0 000 9.91h42.46a4.954 4.954 0 100-9.91z" fill="#E76524"/><path d="M221.725 167.775H174.31a2.477 2.477 0 000 4.954h47.415a2.477 2.477 0 000-4.954zm0 10.13H174.31a2.477 2.477 0 000 4.955h47.415a2.477 2.477 0 000-4.955zm0 10.144H174.31a2.477 2.477 0 000 4.955h47.415a2.477 2.477 0 000-4.955zm0 10.143H174.31a2.478 2.478 0 000 4.955h47.415a2.477 2.477 0 000-4.955zm.006 10.157h-47.428a2.47 2.47 0 000 4.942h47.428a2.471 2.471 0 000-4.942zm-.006 10.13H174.31a2.478 2.478 0 000 4.955h47.415a2.477 2.477 0 000-4.955zm0 20.769H96.932a2.477 2.477 0 100 4.955h124.793a2.478 2.478 0 000-4.955zm0 12.263H96.932a2.477 2.477 0 100 4.955h124.793a2.477 2.477 0 000-4.955zM87 226v-78h78v78H87zm73.125-73.125h-68.25v58.5h68.25v-58.5zm-39 36.791v-.99c-3.402-1.117-5.878-3.403-7.427-6.856-1.549-3.453-2.323-7.642-2.323-12.568 0-3.758 1.358-6.614 4.075-8.569 2.717-1.955 6.234-2.933 10.55-2.933 4.316 0 7.833.978 10.55 2.933 2.717 1.955 4.075 4.811 4.075 8.569 0 11.019-3.25 17.519-9.75 19.5v.914c5.738.508 10.397 1.854 13.978 4.037 3.58 2.184 5.42 5.078 5.522 8.684 0 .508-.216.965-.647 1.371-.432.406-1.092.749-1.981 1.028s-1.803.521-2.742.724c-.94.203-2.133.368-3.58.495s-2.717.228-3.809.305a78.645 78.645 0 01-4.151.152c-1.676.025-2.958.038-3.847.038h-7.236l-3.847-.038-4.151-.152-3.809-.305-3.58-.495-2.742-.724-1.981-1.028-.647-1.371c.102-3.606 1.942-6.5 5.522-8.684 3.581-2.183 8.24-3.529 13.978-4.037z" fill="#E5E5E5"/><path d="M227.349 243.503l7.351 8.335-11.361 10.139-7.351-8.336 11.361-10.138z" fill="#fff"/><path fill-rule="evenodd" clip-rule="evenodd" d="M227.03 246.293l4.878 5.532-8.249 7.361-4.879-5.531 8.25-7.362zm.319-2.79l-11.361 10.138 7.351 8.336 11.361-10.139-7.351-8.335z" fill="#313131"/><path d="M238.769 172.704c-22.469 20.653-25.962 54.585-7.807 75.807 18.161 21.226 51.098 21.694 73.566 1.041 22.472-20.641 25.961-54.584 7.8-75.81-18.154-21.222-51.091-21.691-73.559-1.038z" fill="#fff" fill-opacity=".5"/><path fill-rule="evenodd" clip-rule="evenodd" d="M303.171 248.136v.001c-21.743 19.985-53.339 19.371-70.673-.889-17.398-20.337-14.162-53.1 7.628-73.128 21.743-19.986 53.339-19.371 70.666.884 17.405 20.342 14.17 53.116-7.621 73.132zm-72.209.375c-18.155-21.222-14.662-55.154 7.807-75.807 22.468-20.653 55.405-20.184 73.559 1.038 18.161 21.226 14.672 55.169-7.8 75.81-22.468 20.653-55.405 20.185-73.566-1.041z" fill="#313131"/><path d="M318.143 169.594c22.578 25.493 20.07 64.763-5.613 87.701-25.679 22.93-64.794 20.853-87.373-4.64-22.573-25.5-20.069-64.763 5.61-87.693 25.675-22.942 64.798-20.86 87.376 4.632zm-83.826 74.873c18.126 20.477 49.539 22.148 70.163 3.729 20.621-18.412 22.633-49.945 4.503-70.414-18.13-20.468-49.538-22.148-70.151-3.732-20.625 18.42-22.645 49.948-4.515 70.417z" fill="#fff"/><path fill-rule="evenodd" clip-rule="evenodd" d="M284.759 150.511c10.925 3.12 21.12 9.278 29.228 18.393 22.75 25.579 20.451 64.78-5.147 87.547-15.366 13.665-35.633 18.301-54.3 14.287-10.924-3.12-21.119-9.277-29.226-18.393-22.746-25.586-20.451-64.78 5.142-87.539 15.365-13.672 35.634-18.309 54.303-14.295zm-27.235 108.37c15.938 4.693 33.869 1.302 47.206-10.56 20.551-18.274 22.396-49.752 4.128-70.29a49.556 49.556 0 00-27.086-15.66c-15.936-4.692-33.861-1.305-47.19 10.554-20.555 18.282-22.407 49.755-4.139 70.293a49.52 49.52 0 0027.081 15.663z" fill="#07C2F2"/><path fill-rule="evenodd" clip-rule="evenodd" d="M232.085 166.429c24.873-22.224 62.736-20.189 84.576 4.47 21.848 24.667 19.438 62.701-5.45 84.929-24.876 22.213-62.732 20.182-84.571-4.477-21.844-24.675-19.438-62.702 5.445-84.922zm-6.928 86.226c22.579 25.493 61.694 27.57 87.373 4.64 25.683-22.938 28.191-62.208 5.613-87.701-22.578-25.492-61.701-27.574-87.376-4.632-25.679 22.93-28.183 62.193-5.61 87.693zm79.323-4.459c20.621-18.412 22.633-49.945 4.503-70.414-18.13-20.468-49.538-22.148-70.151-3.732-20.625 18.42-22.645 49.948-4.515 70.417 18.126 20.477 49.539 22.148 70.163 3.729zm-71.645-2.425c18.864 21.31 51.536 23.028 72.964 3.892 21.415-19.122 23.527-51.891 4.666-73.185-18.868-21.302-51.535-23.029-72.952-3.894-21.419 19.128-23.539 51.892-4.678 73.187z" fill="#313131"/><path d="M215.051 248.656l13.559 15.248-7.05 6.269-13.558-15.248 7.049-6.269z" fill="#fff"/><path fill-rule="evenodd" clip-rule="evenodd" d="M213.265 250.2l11.345 12.751-5.263 4.678-11.345-12.75 5.263-4.679z" fill="#BCBCBC"/><path fill-rule="evenodd" clip-rule="evenodd" d="M214.869 251.441l10.954 12.318-4.081 3.629-10.953-12.318 4.08-3.629zm.182-2.785l-7.049 6.269 13.558 15.248 7.05-6.269-13.559-15.248z" fill="#313131"/><path d="M208.099 254.763l13.489 15.228-71.349 61.591s-6.803 6.858-14.326-1.625c-6.357-7.181.83-13.608.83-13.608l71.356-61.586z" fill="#fff"/><path fill-rule="evenodd" clip-rule="evenodd" d="M204.597 257.823l11.008 12.377-71.279 61.261s-1.264 1.27-3.311 2.031c-1.597-.603-3.312-1.754-5.07-3.727-6.413-7.215.766-13.608.766-13.608l67.886-58.334z" fill="#65C5E3"/><path fill-rule="evenodd" clip-rule="evenodd" d="M148.889 330.142l-.045.046-.002.001-.029.028a7.835 7.835 0 01-.862.672 8.043 8.043 0 01-2.53 1.149 6.233 6.233 0 01-3.485-.122c-1.301-.422-2.851-1.356-4.543-3.263-1.359-1.536-1.913-2.931-2.075-4.118-.165-1.202.055-2.332.46-3.344.408-1.02.989-1.879 1.482-2.493a9.922 9.922 0 01.77-.852.816.816 0 00.027-.026l69.857-60.292 10.873 12.276-69.898 60.338zm72.699-60.151l-13.489-15.228-71.356 61.586s-7.187 6.427-.83 13.608c7.523 8.483 14.326 1.625 14.326 1.625l71.349-61.591z" fill="#313131"/></g><defs><clipPath id="clip0"><path fill="#fff" transform="translate(75 56)" d="M0 0h381v281H0z"/></clipPath></defs></svg>