<svg width="457" height="384" fill="none" xmlns="http://www.w3.org/2000/svg"><path d="M384 192c0 106.039-85.961 192-192 192S0 298.039 0 192 85.961 0 192 0s192 85.961 192 192z" fill="#E5F8FF"/><path d="M249.264 35.002l-79.271 183.993 150.425 64.545 79.27-183.994-150.424-64.544z" fill="#fff"/><path fill-rule="evenodd" clip-rule="evenodd" d="M250.31 37.627l-77.687 180.32 146.748 62.967 77.688-180.32L250.31 37.627zm-1.046-2.625l150.424 64.544-79.27 183.994-150.425-64.545 79.271-183.993z" fill="#313131"/><path d="M361.915 122.08c-.294.689-1.198.974-1.999.625L259.814 79.744c-.802-.34-1.214-1.188-.921-1.877.294-.688 1.198-.974 2-.625l100.102 42.961c.801.341 1.213 1.188.92 1.877zm-37.271-10.593c-.293.688-1.198.974-1.999.625l-64.799-27.807c-.801-.34-1.214-1.188-.92-1.876.293-.69 1.198-.974 1.999-.626l64.799 27.807c.801.349 1.214 1.188.92 1.877zm-18.199-2.32c-.293.689-1.198.974-1.999.625l-48.591-20.855c-.802-.34-1.214-1.188-.921-1.876.294-.69 1.198-.974 2-.626l48.591 20.855c.801.341 1.214 1.188.92 1.877zm45.752 35.471c-.294.689-1.198.974-2 .625l-100.102-42.961c-.801-.34-1.213-1.188-.92-1.877.294-.688 1.198-.973 1.999-.625l100.102 42.961c.802.341 1.214 1.188.921 1.877zm-37.271-10.594c-.293.689-1.198.974-1.999.625l-64.799-27.807c-.801-.34-1.214-1.187-.92-1.876.293-.689 1.198-.974 1.999-.626l64.799 27.807c.801.349 1.214 1.188.92 1.877zm-18.199-2.32c-.294.689-1.198.974-1.999.626l-48.592-20.856c-.801-.34-1.213-1.187-.92-1.876.294-.689 1.198-.974 1.999-.626l48.592 20.856c.801.348 1.213 1.187.92 1.876zm44.181 39.105c-.294.689-1.198.974-2 .626l-100.102-42.962c-.801-.34-1.213-1.187-.92-1.876.294-.689 1.198-.974 1.999-.626l100.102 42.962c.81.348 1.222 1.187.921 1.876zm-37.271-10.585c-.294.689-1.198.974-1.999.625l-64.799-27.807c-.802-.34-1.214-1.187-.921-1.876.294-.689 1.198-.974 1.999-.625l64.799 27.806c.81.341 1.222 1.188.921 1.877zm-18.199-2.32c-.294.688-1.198.973-1.999.625l-48.592-20.855c-.801-.341-1.213-1.188-.92-1.877.294-.688 1.198-.974 1.999-.625l48.592 20.855c.809.341 1.221 1.188.92 1.877zm30.892 69.952c-.294.689-1.198.974-1.999.626L214.229 185.54c-.802-.34-1.214-1.187-.921-1.876.294-.689 1.198-.974 2-.626L315.41 226c.809.34 1.221 1.187.92 1.876zm-37.27-10.593c-.294.688-1.198.973-2 .625l-64.799-27.807c-.801-.34-1.213-1.188-.92-1.876.294-.689 1.198-.974 1.999-.626l64.799 27.807c.81.34 1.222 1.188.921 1.877zm-18.199-2.32c-.294.689-1.198.974-1.999.626l-48.592-20.855c-.801-.341-1.214-1.188-.92-1.877.293-.689 1.198-.974 1.999-.625l48.591 20.855c.81.34 1.222 1.188.921 1.876zm70.415-21.773c-.293.689-1.198.974-1.999.625l-100.102-42.961c-.801-.341-1.214-1.188-.92-1.877.293-.689 1.198-.974 1.999-.625l100.102 42.961c.809.341 1.222 1.188.92 1.877zm-37.27-10.595c-.294.689-1.198.974-1.999.626l-64.799-27.807c-.802-.341-1.214-1.188-.921-1.877.294-.689 1.198-.974 2-.625l64.799 27.807c.801.34 1.221 1.187.92 1.876zm-6.196 14.394c-.293.689-1.198.974-1.999.626l-64.799-27.807c-.801-.341-1.214-1.188-.92-1.877.293-.688 1.198-.974 1.999-.625l64.799 27.807c.801.34 1.214 1.187.92 1.876zm-12.003-16.713c-.294.688-1.198.973-1.999.625l-48.591-20.855c-.802-.341-1.214-1.188-.921-1.877.294-.688 1.198-.973 1.999-.625l48.592 20.855c.801.341 1.221 1.188.92 1.877zm-10.892 1.092c-.294.689-1.198.974-1.999.625l-39.802-17.078c-.801-.341-1.213-1.188-.92-1.877.294-.689 1.198-.974 1.999-.625l39.802 17.078c.809.349 1.221 1.188.92 1.877z" fill="#EFEFEF"/><path d="M348.135 134.518a.573.573 0 01-.571-.451l-1.746-7.292a.592.592 0 01.35-.689.561.561 0 01.23-.048c.198 0 .396.103.507.285l2.579 4.228 9.496-3.198a.527.527 0 01.19-.032c.23 0 .444.135.548.356a.594.594 0 01-.262.76l-11.028 6.002a.566.566 0 01-.293.079z" fill="#0EABDD"/><path d="M346.397 126.632l2.825 4.64 9.948-3.349-11.027 6.002-1.746-7.293zm0-1.187c-.15 0-.301.032-.452.087a1.196 1.196 0 00-.706 1.378l1.745 7.292a1.192 1.192 0 001.159.91c.198 0 .396-.047.571-.142l10.995-5.986c.389-.198.651-.594.651-1.061 0-.633-.5-1.156-1.135-1.188h-.063c-.056 0-.119.008-.175.016a1.089 1.089 0 00-.23.056l-9.012 3.04-2.332-3.824a1.195 1.195 0 00-1.016-.578zm-43.141 113.239a.573.573 0 01-.571-.451l-1.745-7.292a.59.59 0 01.349-.689.561.561 0 01.23-.048c.198 0 .396.103.507.285l2.579 4.228 9.496-3.198a.527.527 0 01.19-.032.592.592 0 01.286 1.116l-11.027 6.002a.572.572 0 01-.294.079z" fill="#0EABDD"/><path d="M301.511 230.806l2.824 4.64 9.948-3.349-11.027 6.002-1.745-7.293zm0-1.187a1.3 1.3 0 00-.453.087 1.194 1.194 0 00-.706 1.377l1.746 7.293a1.188 1.188 0 001.158.91c.198 0 .397-.047.571-.142l10.996-5.986c.388-.198.65-.594.65-1.061 0-.634-.5-1.156-1.134-1.188h-.064c-.055 0-.119.008-.174.016a1.12 1.12 0 00-.23.055l-9.013 3.041-2.332-3.824a1.166 1.166 0 00-1.015-.578zm25.045-45.012a.574.574 0 01-.571-.452l-1.745-7.292a.59.59 0 01.349-.689.6.6 0 01.738.238l2.578 4.228 9.496-3.199a.604.604 0 01.738.325.592.592 0 01-.262.76l-11.027 6.002a.588.588 0 01-.294.079z" fill="#0EABDD"/><path d="M324.811 176.728l2.824 4.64 9.948-3.349-11.027 6.002-1.745-7.293zm0-1.187a1.29 1.29 0 00-.452.087c-.54.222-.841.807-.706 1.378l1.745 7.292a1.188 1.188 0 001.158.91c.199 0 .397-.047.571-.142l10.996-5.986c.389-.198.65-.594.65-1.061 0-.633-.499-1.156-1.134-1.188h-.063c-.056 0-.119.008-.175.016a1.074 1.074 0 00-.23.056l-9.012 3.04-2.333-3.824a1.168 1.168 0 00-1.015-.578z" fill="#0EABDD"/><path d="M280.805 328.011c0 3.856-3.133 6.991-7.005 6.991H83.005c-3.863 0-7.005-3.127-7.005-6.991V81.565c0-3.856 3.134-6.992 7.005-6.992H273.8c3.864 0 7.005 3.128 7.005 6.992V328.01z" fill="#fff"/><path fill-rule="evenodd" clip-rule="evenodd" d="M269.21 332.26c3.872 0 7.005-3.135 7.005-6.991V78.822a6.945 6.945 0 00-1.385-4.173 7.065 7.065 0 00-1.03-.076H83.005c-3.871 0-7.005 3.136-7.005 6.992V328.01a6.95 6.95 0 001.385 4.174c.337.049.68.075 1.03.075H269.21z" fill="#E76524"/><path fill-rule="evenodd" clip-rule="evenodd" d="M273.8 333.002a5 5 0 005.005-4.991V81.565a5 5 0 00-5.005-4.992H83.005A5 5 0 0078 81.566V328.01c0 2.754 2.241 4.991 5.005 4.991H273.8zm0 2c3.872 0 7.005-3.135 7.005-6.991V81.565c0-3.864-3.141-6.992-7.005-6.992H83.005c-3.871 0-7.005 3.136-7.005 6.992V328.01c0 3.864 3.142 6.991 7.005 6.991H273.8z" fill="#313131"/><path d="M280.805 319.397c0 3.729-3.133 6.753-7.005 6.753H83.005c-3.863 0-7.005-3.024-7.005-6.753V81.327c0-3.729 3.134-6.754 7.005-6.754H273.8c3.864 0 7.005 3.025 7.005 6.754v238.07z" fill="#fff"/><path fill-rule="evenodd" clip-rule="evenodd" d="M267.374 322.494c3.872 0 7.005-3.025 7.005-6.754V77.67a6.526 6.526 0 00-.779-3.097H83.005c-3.871 0-7.005 3.025-7.005 6.754v238.07c0 1.116.281 2.169.78 3.097h190.594z" fill="#FF955F"/><path fill-rule="evenodd" clip-rule="evenodd" d="M273.8 324.15c2.836 0 5.005-2.196 5.005-4.753V81.327c0-2.555-2.175-4.754-5.005-4.754H83.005C80.17 76.573 78 78.77 78 81.328v238.07c0 2.555 2.176 4.753 5.005 4.753H273.8zm0 2c3.872 0 7.005-3.024 7.005-6.753V81.327c0-3.729-3.141-6.754-7.005-6.754H83.005c-3.871 0-7.005 3.025-7.005 6.754v238.07c0 3.729 3.142 6.753 7.005 6.753H273.8z" fill="#313131"/><path d="M268.914 88.643H87.893v221.411h181.021V88.644z" fill="#fff"/><path fill-rule="evenodd" clip-rule="evenodd" d="M266.914 90.643H89.893v217.411h177.021V90.644zm2-2v221.411H87.893V88.644h181.021z" fill="#313131"/><path fill-rule="evenodd" clip-rule="evenodd" d="M131.128 66.418h32.188a16.035 16.035 0 012.122-3.916c5.259-7.137 15.319-8.668 22.47-3.42a15.977 15.977 0 015.547 7.336h32.23c5.728 0 10.369 4.632 10.369 10.349v18.21H120.76v-18.21c0-5.717 4.64-10.349 10.368-10.349zm47.275 5.59a4.921 4.921 0 004.926-4.917c0-2.707-2.205-4.908-4.926-4.916a4.922 4.922 0 00-4.927 4.916 4.922 4.922 0 004.927 4.917z" fill="#fff"/><path fill-rule="evenodd" clip-rule="evenodd" d="M120.76 94.978h109.786V76.767c0-5.717-4.641-10.349-10.369-10.349h-32.231a15.968 15.968 0 00-5.546-7.336 16.026 16.026 0 00-6.757-2.882 16.022 16.022 0 00-10.205 6.302 16.036 16.036 0 00-2.122 3.916h-32.188c-5.728 0-10.368 4.632-10.368 10.349v18.21zm54.889-23.809c-.787.53-1.734.84-2.754.84a4.921 4.921 0 01-4.927-4.918 4.921 4.921 0 017.676-4.074 4.913 4.913 0 012.759-.842c2.721.008 4.926 2.209 4.926 4.916a4.921 4.921 0 01-4.926 4.917 4.908 4.908 0 01-2.754-.839z" fill="#EFEFEF"/><path fill-rule="evenodd" clip-rule="evenodd" d="M164.705 68.418h-33.577c-4.627 0-8.368 3.74-8.368 8.349v16.21h111.294v-16.21c0-4.608-3.742-8.349-8.369-8.349h-33.621l-.484-1.304a13.974 13.974 0 00-4.855-6.42c-6.263-4.596-15.073-3.254-19.677 2.994a14.07 14.07 0 00-1.858 3.429l-.485 1.301zm71.349 26.56H120.76V76.767c0-5.717 4.64-10.349 10.368-10.349h32.188a16.035 16.035 0 012.122-3.916c5.259-7.137 15.319-8.668 22.47-3.42a15.977 15.977 0 015.547 7.336h32.23c5.728 0 10.369 4.632 10.369 10.349v18.21zm-57.651-34.803h.006c3.814.01 6.92 3.097 6.92 6.916 0 3.825-3.104 6.917-6.926 6.917s-6.927-3.093-6.927-6.917 3.105-6.916 6.927-6.916zm0 2c2.721.008 4.926 2.209 4.926 4.916a4.921 4.921 0 01-4.926 4.917 4.922 4.922 0 01-4.927-4.917 4.922 4.922 0 014.927-4.916z" fill="#313131"/><path d="M236.054 82.301H120.76v12.676h115.294V82.301z" fill="#fff"/><path fill-rule="evenodd" clip-rule="evenodd" d="M232.382 82.301H120.76v9.934h111.622V82.3z" fill="#C6C6C6"/><path fill-rule="evenodd" clip-rule="evenodd" d="M234.054 84.301H122.76v8.676h111.294v-8.676zm2-2v12.676H120.76V82.301h115.294z" fill="#313131"/><path d="M237.284 136.641c0 .831-.714 1.504-1.587 1.504h-120.8c-.873 0-1.587-.681-1.587-1.504 0-.832.714-1.505 1.587-1.505h120.8c.873-.008 1.587.673 1.587 1.505zm-42.491 5.487c0 .831-.714 1.504-1.587 1.504h-78.309c-.873 0-1.587-.681-1.587-1.504 0-.831.714-1.504 1.587-1.504h78.309c.873-.008 1.587.673 1.587 1.504zm-19.5 5.574c0 .831-.714 1.504-1.587 1.504h-58.817c-.873 0-1.587-.681-1.587-1.504 0-.831.714-1.504 1.587-1.504h58.817c.873 0 1.587.673 1.587 1.504zm62.831 27.68a1.59 1.59 0 01-1.586 1.583h-95.287a1.59 1.59 0 01-1.586-1.583v-1.505c0-.87.714-1.583 1.586-1.583h95.287a1.59 1.59 0 011.586 1.583v1.505zm0 23.523a1.59 1.59 0 01-1.586 1.584h-95.287a1.59 1.59 0 01-1.586-1.584v-1.504a1.59 1.59 0 011.586-1.584h95.287a1.59 1.59 0 011.586 1.584v1.504zm0 23.942a1.59 1.59 0 01-1.586 1.584h-95.287a1.59 1.59 0 01-1.586-1.584v-1.504a1.59 1.59 0 011.586-1.583h95.287a1.59 1.59 0 011.586 1.583v1.504zm0 22.337a1.59 1.59 0 01-1.586 1.583h-95.287a1.59 1.59 0 01-1.586-1.583v-1.505c0-.87.714-1.583 1.586-1.583h95.287a1.59 1.59 0 011.586 1.583v1.505z" fill="#E5E5E5"/><path d="M129.859 166.189v14.656h-14.684v-14.656h14.684zm1.872-1.86H113.31v18.385h18.421v-18.385zm-1.872 25.693v14.655h-14.684v-14.655h14.684zm1.872-1.861H113.31v18.385h18.421v-18.385zm-1.872 25.669v14.656h-14.684V213.83h14.684zm1.872-1.861H113.31v18.385h18.421v-18.385zm-1.872 25.971v14.656h-14.684V237.94h14.684zm1.872-1.861H113.31v18.385h18.421v-18.385z" fill="#313131"/><path d="M122.6 178.549a.585.585 0 01-.468-.238l-6.069-8.131a.591.591 0 01.056-.769.605.605 0 01.428-.182c.119 0 .238.04.341.111l5.609 3.983 10.21-9.153a.578.578 0 01.397-.15c.143 0 .294.055.405.158a.597.597 0 01.063.8l-10.488 13.349a.624.624 0 01-.484.222s.008 0 0 0z" fill="#0EABDD"/><path d="M133.096 164.613l-10.488 13.35-6.069-8.132 5.998 4.26 10.559-9.478zm0-1.187h-.024a1.175 1.175 0 00-.769.309l-9.854 8.836-5.22-3.706a1.175 1.175 0 00-.69-.221 1.19 1.19 0 00-.952 1.9l6.069 8.131c.222.293.571.475.936.475h.016c.365 0 .714-.166.936-.451l10.464-13.31c.175-.206.286-.475.286-.768a1.2 1.2 0 00-1.198-1.195zM122.6 200.522a.584.584 0 01-.468-.237l-6.069-8.132a.601.601 0 01.484-.95c.119 0 .238.04.341.111l5.609 3.982 10.21-9.152a.579.579 0 01.397-.151.596.596 0 01.468.958L123.084 200.3a.647.647 0 01-.484.222s.008 0 0 0z" fill="#0EABDD"/><path d="M133.096 186.578l-10.488 13.349-6.069-8.132 5.998 4.26 10.559-9.477zm0-1.188h-.024a1.175 1.175 0 00-.769.309l-9.854 8.836-5.22-3.706a1.175 1.175 0 00-.69-.221 1.19 1.19 0 00-.952 1.9l6.069 8.131c.222.293.571.475.936.475h.016c.365 0 .714-.166.936-.451l10.464-13.31c.175-.205.286-.475.286-.768a1.2 1.2 0 00-1.198-1.195z" fill="#0EABDD"/><path d="M117.619 284.234c-7.814-2.328-13.582-5.574-17.842-9.161-10.036-8.448-11.67-18.749-11.884-23.096v3.531c1.587 27.174 25.196 54.308 26.354 54.3-1.214-1.409-1.753-3.373-1.809-5.432-.142-5.004 2.547-11.86 5.181-20.142z" fill="#fff"/><path fill-rule="evenodd" clip-rule="evenodd" d="M115.097 285.538c-7.08-2.343-12.487-5.465-16.608-8.935a37.181 37.181 0 01-5.468-5.668c2.517 7.625 6.203 14.821 9.914 20.87 2.68 4.368 5.348 8.097 7.546 10.906.171-2.39.79-5.003 1.586-7.736.615-2.109 1.375-4.412 2.172-6.825.283-.858.571-1.73.858-2.612zm1.908.6c-.299.917-.595 1.816-.886 2.695-2.06 6.242-3.796 11.498-3.681 15.543.008.271.023.539.048.805.161 1.76.707 3.403 1.761 4.627-.26.002-1.655-1.368-3.678-3.8-5.939-7.139-17.296-23.436-21.31-41.113-.704-3.101-1.183-6.243-1.366-9.387v-3.531a28.896 28.896 0 00.4 3.531 32.039 32.039 0 002.864 8.714c1.77 3.567 4.48 7.367 8.62 10.851 3.906 3.288 9.078 6.291 15.934 8.561.622.206 1.258.406 1.908.6-.205.643-.41 1.278-.614 1.904zm-5.176 18.255l.608-.017-.608.018" fill="#313131"/><path d="M441.29 328.886c3.594 3.587 9.417 3.595 13.011.008 3.593-3.587 3.601-9.398.008-12.985l-12.757-12.748c-3.594-3.586-9.417-3.594-13.011-.008-3.593 3.587-3.601 9.399-.008 12.985l12.757 12.748z" fill="#fff"/><path fill-rule="evenodd" clip-rule="evenodd" d="M454.298 328.897a9.22 9.22 0 01-10.008-2.008l-12.757-12.747c-3.593-3.587-3.585-9.399.008-12.985l.003-.003a9.22 9.22 0 0110.008 2.007l12.757 12.748c3.593 3.587 3.585 9.398-.008 12.985l-.003.003z" fill="#86CEE4"/><path fill-rule="evenodd" clip-rule="evenodd" d="M428.533 316.138c-3.593-3.586-3.585-9.398.008-12.985 3.594-3.586 9.417-3.578 13.011.008l12.757 12.748c3.593 3.587 3.585 9.398-.008 12.985-3.594 3.587-9.417 3.579-13.011-.008l-12.757-12.748zm14.17 11.332l-12.757-12.747a7.168 7.168 0 01.008-10.154c2.811-2.805 7.369-2.802 10.184.007m.001.001l12.757 12.747a7.168 7.168 0 01-.008 10.154c-2.811 2.805-7.37 2.802-10.185-.008" fill="#313131"/><path d="M445.791 307.288l6.234 6.23-13.12 13.075-6.233-6.23 13.119-13.075z" fill="#fff"/><path fill-rule="evenodd" clip-rule="evenodd" d="M447.625 309.121l4.4 4.397-11.281 11.243-4.4-4.398 11.281-11.242z" fill="#BCBCBC"/><path fill-rule="evenodd" clip-rule="evenodd" d="M445.789 310.114l3.405 3.402-10.287 10.251-3.404-3.402 10.286-10.251zm.002-2.826l-13.119 13.075 6.233 6.23 13.12-13.075-6.234-6.23z" fill="#313131"/><path d="M350.47 211.783l-13.113 13.072-12.21-25.147 25.323 12.075z" fill="#fff"/><path fill-rule="evenodd" clip-rule="evenodd" d="M337.357 224.855l-12.21-25.147 25.323 12.075-13.113 13.072zm.574-3.397l-8.491-17.487 17.61 8.397-9.119 9.09z" fill="#313131"/><path d="M325.176 199.814l11.666 5.552-6.043 6.006-5.623-11.558z" fill="#0EABDD"/><path d="M350.471 211.783l95.352 95.535-13.142 13.063-95.352-95.535 13.142-13.063z" fill="#fff"/><path fill-rule="evenodd" clip-rule="evenodd" d="M352.757 214.073l93.066 93.245-10.838 10.773-93.066-93.245 10.838-10.773z" fill="#E0E0E0"/><path fill-rule="evenodd" clip-rule="evenodd" d="M350.465 214.609l92.526 92.704-10.304 10.243-92.526-92.704 10.304-10.243zm.006-2.826l-13.142 13.063 95.352 95.535 13.142-13.063-95.352-95.535z" fill="#313131"/><path d="M346.79 215.449l95.348 95.539-5.761 5.727-95.348-95.539 5.761-5.727z" fill="#fff"/><path fill-rule="evenodd" clip-rule="evenodd" d="M346.784 218.275l92.523 92.707-2.924 2.907-92.523-92.707 2.924-2.907zm.006-2.826l-5.761 5.727 95.348 95.539 5.761-5.727-95.348-95.539z" fill="#313131"/><path d="M320.982 221.023s.008.024.016.064l-.016-.064z" fill="#ECECF0"/></svg>