<svg width="456" height="384" fill="none" xmlns="http://www.w3.org/2000/svg"><path d="M384 192c0 106.039-85.961 192-192 192S0 298.039 0 192 85.961 0 192 0s192 85.961 192 192z" fill="#E5F8FF"/><path d="M368.473 273.691H92.061c-6.224 0-11.359-4.899-11.359-11.005V93.006C80.703 86.975 85.76 82 92.061 82h276.49c6.224 0 11.358 4.9 11.358 11.005v169.681c-.077 6.106-5.134 11.005-11.436 11.005z" fill="#fff"/><path fill-rule="evenodd" clip-rule="evenodd" d="M92.06 273.691h276.413c1.083 0 2.129-.144 3.119-.415a10.964 10.964 0 002.993-7.395V96.201c0-6.106-5.135-11.006-11.359-11.006H86.736c-1.066 0-2.096.142-3.073.408-1.841 1.962-2.96 4.565-2.96 7.402v169.681c0 6.106 5.134 11.005 11.358 11.005z" fill="#65C5E3"/><path fill-rule="evenodd" clip-rule="evenodd" d="M92.06 271.691h276.413c5.247 0 9.367-4.057 9.436-9.019V93.005c0-4.933-4.17-9.005-9.358-9.005H92.061c-5.248 0-9.359 4.13-9.359 9.005v169.681c0 4.933 4.17 9.005 9.359 9.005zm287.849-9.005V93.006c0-6.106-5.134-11.006-11.358-11.006H92.061c-6.302 0-11.359 4.975-11.359 11.005v169.681c0 6.106 5.135 11.005 11.359 11.005h276.412c6.302 0 11.359-4.899 11.436-11.005z" fill="#313131"/><path d="M366.117 249.234H94.191l.312-149.13h271.614v149.13z" fill="#fff"/><path d="M362.452 113.288H98.16c-1.391 0-2.55-.088-2.55-.194v-11.732c0-.105 1.159-.193 2.55-.193h264.292c1.391 0 2.55.088 2.55.193v11.727c0 .111-1.159.199-2.55.199z" fill="#FF955F"/><path d="M126.899 107.475a3.286 3.286 0 01-3.304 3.279c-1.77 0-3.304-1.406-3.304-3.279a3.286 3.286 0 013.304-3.28c1.77 0 3.304 1.406 3.304 3.28z" fill="#fff"/><path fill-rule="evenodd" clip-rule="evenodd" d="M123.595 108.754c.751 0 1.304-.595 1.304-1.279 0-.71-.578-1.28-1.304-1.28-.751 0-1.304.595-1.304 1.28 0 .709.577 1.279 1.304 1.279zm0 2a3.286 3.286 0 003.304-3.279c0-1.874-1.534-3.28-3.304-3.28a3.286 3.286 0 00-3.304 3.28c0 1.873 1.534 3.279 3.304 3.279z" fill="#313131"/><path d="M106.961 107.475a3.286 3.286 0 01-3.304 3.279c-1.77 0-3.304-1.406-3.304-3.279a3.286 3.286 0 013.304-3.28c1.888 0 3.304 1.406 3.304 3.28z" fill="#fff"/><path fill-rule="evenodd" clip-rule="evenodd" d="M103.657 108.754c.751 0 1.304-.595 1.304-1.279 0-.756-.506-1.28-1.304-1.28-.751 0-1.304.595-1.304 1.28 0 .709.578 1.279 1.304 1.279zm0 2a3.286 3.286 0 003.304-3.279c0-1.874-1.416-3.28-3.304-3.28a3.286 3.286 0 00-3.304 3.28c0 1.873 1.534 3.279 3.304 3.279z" fill="#313131"/><path d="M116.517 107.475a3.286 3.286 0 01-3.304 3.279c-1.77 0-3.304-1.406-3.304-3.279a3.286 3.286 0 013.304-3.28c1.888 0 3.304 1.406 3.304 3.28z" fill="#fff"/><path fill-rule="evenodd" clip-rule="evenodd" d="M113.213 108.754c.751 0 1.304-.595 1.304-1.279 0-.756-.507-1.28-1.304-1.28-.751 0-1.304.595-1.304 1.28 0 .709.577 1.279 1.304 1.279zm0 2a3.286 3.286 0 003.304-3.279c0-1.874-1.416-3.28-3.304-3.28a3.286 3.286 0 00-3.304 3.28c0 1.873 1.534 3.279 3.304 3.279z" fill="#313131"/><path fill-rule="evenodd" clip-rule="evenodd" d="M96.195 247.234h267.922v-145.13H96.499l-.304 145.13zm-2.004 2l.312-149.13h271.614v149.13H94.191z" fill="#313131"/><path d="M379.184 274H82.834c-7.622 0-13.844-6.223-13.844-13.847v-3.501h324.039v3.501c0 7.624-6.222 13.847-13.845 13.847z" fill="#fff"/><path fill-rule="evenodd" clip-rule="evenodd" d="M76.445 268.675h296.349c7.005 0 12.827-5.255 13.725-12.023H68.989v3.501c0 2.754.813 5.325 2.21 7.486a13.731 13.731 0 005.246 1.036z" fill="#65C5E3"/><path fill-rule="evenodd" clip-rule="evenodd" d="M82.835 272h296.349c6.518 0 11.845-5.328 11.845-11.847v-1.501H70.989v1.501c0 6.519 5.328 11.847 11.846 11.847zm0 2h296.349c7.623 0 13.845-6.223 13.845-13.847v-3.501H68.989v3.501c0 7.624 6.223 13.847 13.846 13.847z" fill="#313131"/><path d="M200.675 254.522l4.044 6.379h56.625l3.734-6.379h-64.403z" fill="#fff"/><path fill-rule="evenodd" clip-rule="evenodd" d="M260.013 255.522h-59.338l2.019 3.184h55.456l1.863-3.184z" fill="#C6C6C6"/><path fill-rule="evenodd" clip-rule="evenodd" d="M205.819 258.901l-1.508-2.379h57.279l-1.392 2.379h-54.379zm55.525 2h-56.625l-4.044-6.379h64.403l-3.734 6.379z" fill="#313131"/><path d="M295.022 166.36l.062-4.492c0-.048.006-.433.212-.845.296-.565.846-.894 1.536-.903.697-.018 1.222.296 1.503.854.203.398.206.807.205.855l-.066 4.828c-.011.834-.538 2.421-2.455 2.455-1.908.027-2.392-1.563-2.381-2.381l.063-5.189a.355.355 0 01.35-.35.333.333 0 01.34.341l-.055 5.181c-.009.072.001 1.724 1.701 1.701 1.652-.023 1.745-1.572 1.747-1.748l.058-4.837s.004-.272-.121-.527c-.171-.335-.45-.499-.899-.493-.962.013-1.038.88-1.049 1.049l-.069 4.483c-.002.161.076.352.348.348.273-.003.34-.197.35-.349l.042-3.112c.011-.185.173-.348.35-.35a.345.345 0 01.348.348l-.051 3.104c-.013.425-.294 1.039-1.048 1.049-.762.018-1.034-.595-1.021-1.02z" fill="#E76524"/><path d="M144.59 123.533h162.913v102.236H144.59V123.533z" fill="#fff"/><path fill-rule="evenodd" clip-rule="evenodd" d="M308.698 128.728H149.785v98.235h158.913v-98.235zm-160.913-2v102.235h162.913V126.728H147.785z" fill="#C6C6C6"/><path d="M158.432 141.105c0-.882.716-1.597 1.598-1.597h13.842a1.597 1.597 0 110 3.194H160.03a1.598 1.598 0 01-1.598-1.597zm28.75 0c0-.882.715-1.597 1.597-1.597h56.434a1.597 1.597 0 110 3.194h-56.434a1.597 1.597 0 01-1.597-1.597zm-8.518-1.065a.533.533 0 11-1.067 0 .533.533 0 011.067 0zm0 2.13a.533.533 0 11-1.065-.001.533.533 0 011.065.001zm17.036 7.455c0-.883.715-1.598 1.598-1.598h56.433a1.598 1.598 0 010 3.195h-56.433a1.597 1.597 0 01-1.598-1.597zm-37.268 0c0-.883.716-1.598 1.598-1.598h22.36a1.597 1.597 0 010 3.195h-22.36a1.598 1.598 0 01-1.598-1.597zm28.75-1.065a.533.533 0 11-1.065-.001.533.533 0 011.065.001zm0 2.129a.533.533 0 11-1.066 0 .533.533 0 011.066 0zm19.166 13.845c0-.882.715-1.597 1.598-1.597h56.433a1.598 1.598 0 110 3.194h-56.433a1.597 1.597 0 01-1.598-1.597zm-47.916 0c0-.882.716-1.597 1.598-1.597h33.008a1.597 1.597 0 110 3.194H160.03a1.598 1.598 0 01-1.598-1.597zm39.398-1.065a.533.533 0 11-1.065-.001.533.533 0 011.065.001zm0 2.13a.533.533 0 11-1.065-.001.533.533 0 011.065.001zm-39.398-8.52c0-.294.239-.532.533-.532h140.552a.533.533 0 110 1.065H158.965a.533.533 0 01-.533-.533zm0 14.91c0-.295.239-.533.533-.533h140.552a.533.533 0 110 1.065H158.965a.533.533 0 01-.533-.532z" fill="#E5E5E5"/><path d="M243.623 215.66l-20.928 3.271a2.083 2.083 0 01-2.38-1.737l-4.782-30.594a2.085 2.085 0 011.738-2.381l20.928-3.272a2.083 2.083 0 012.38 1.738l4.782 30.594a2.086 2.086 0 01-1.738 2.381z" fill="#EBEAEA"/><path d="M241.788 216.932l-21.042 2.433a2.086 2.086 0 01-2.31-1.831l-3.556-30.761a2.085 2.085 0 011.831-2.31l21.043-2.433a2.083 2.083 0 012.309 1.831l3.556 30.761a2.085 2.085 0 01-1.831 2.31z" fill="#F1F0F0"/><path d="M241.885 191.573l.047 26.04a.607.607 0 01-.605.609l-24.076.043a.607.607 0 01-.608-.606l-.061-33.871c0-.335.271-.607.606-.608l16.222-.03 8.475 8.423z" fill="#F3F3F3"/><path d="M233.422 183.131l.015 7.854c0 .335.272.607.608.606l7.83-.014-8.453-8.446z" fill="#E5E5E5"/><path opacity=".5" d="M237.744 199.422l-16.992.081a.48.48 0 00-.477.482l.001.155a.48.48 0 00.481.477l16.993-.082a.479.479 0 00.476-.481l-.001-.156a.478.478 0 00-.481-.476zm.022 4.547l-16.992.082a.48.48 0 00-.477.481l.001.156a.479.479 0 00.481.476l16.993-.081a.48.48 0 00.476-.482l-.001-.155a.48.48 0 00-.481-.477zm.022 4.548l-16.993.082a.478.478 0 00-.476.481l.001.156a.478.478 0 00.481.476l16.992-.081a.48.48 0 00.477-.482l-.001-.155a.48.48 0 00-.481-.477z" fill="#C6C6C6"/><path d="M222.726 196.121a4.399 4.399 0 01-4.393-4.394v-8.517a.465.465 0 11.93 0v8.517a3.468 3.468 0 003.463 3.464 3.468 3.468 0 003.464-3.464v-8.958a.465.465 0 11.93 0v8.958a4.4 4.4 0 01-4.394 4.394z" fill="#E76524"/><path d="M224.696 183.688h-.93v-1.596a2.253 2.253 0 00-2.251-2.251 2.254 2.254 0 00-2.252 2.251v1.131h-.93v-1.131a3.185 3.185 0 013.182-3.181 3.185 3.185 0 013.181 3.181v1.596z" fill="#E76524"/><path d="M222.704 192.137a1.994 1.994 0 01-1.991-1.992v-7.364a.465.465 0 11.93 0v7.364a1.062 1.062 0 002.123 0v-6.922a.465.465 0 11.93 0v6.922a1.994 1.994 0 01-1.992 1.992z" fill="#E76524"/><path d="M279.958 130.741v237.392H456V178.798l-47.619-47.578-128.423-.479z" fill="#fff"/><path fill-rule="evenodd" clip-rule="evenodd" d="M279.958 368.133V130.741l128.423.479L456 178.798v189.335H279.958zm174.042-2V179.627l-46.45-46.41-125.592-.468v233.384H454z" fill="#313131"/><path d="M456 178.798l-47.619-47.578v47.827l47.619-.249z" fill="#F9F9F9"/><path fill-rule="evenodd" clip-rule="evenodd" d="M408.381 131.22v47.827l47.619-.249-47.619-47.578zm2 4.826v40.991l40.813-.214-40.813-40.777z" fill="#313131"/><path d="M412.327 202.663H298.951a2.323 2.323 0 100 4.645h113.376a2.323 2.323 0 100-4.645zm0 11.92H298.95a2.323 2.323 0 000 4.645h113.377a2.323 2.323 0 100-4.645zm.002 11.923h-113.38a2.321 2.321 0 000 4.642h113.38a2.321 2.321 0 000-4.642zm-.001 11.919H298.949a2.321 2.321 0 000 4.643h113.379a2.322 2.322 0 100-4.643zm-.002 11.919H298.951a2.323 2.323 0 000 4.647h113.375a2.324 2.324 0 100-4.647zm.002 11.92H298.95a2.322 2.322 0 100 4.644h113.378a2.323 2.323 0 000-4.644zm0 11.922H298.949a2.322 2.322 0 000 4.643h113.379a2.322 2.322 0 100-4.643zm.001 11.922h-113.38a2.321 2.321 0 000 4.643h113.38a2.322 2.322 0 000-4.643zm-.001 11.921H298.949a2.32 2.32 0 100 4.642h113.379a2.322 2.322 0 100-4.642zm.001 11.919h-113.38a2.32 2.32 0 100 4.642h113.38a2.321 2.321 0 000-4.642zm-.002 11.92H298.951a2.323 2.323 0 100 4.645h113.376a2.322 2.322 0 100-4.645zm0 11.92H298.951a2.323 2.323 0 100 4.645h113.376a2.323 2.323 0 100-4.645zm.001 11.92H298.95a2.322 2.322 0 100 4.644h113.378a2.322 2.322 0 100-4.644zM364.47 146.784h-64.233a3.377 3.377 0 000 6.755h64.233a3.378 3.378 0 100-6.755zm8.451 11.821h-72.684a3.377 3.377 0 000 6.754h72.684a3.377 3.377 0 100-6.754zm-14.366 11.82h-58.318a3.377 3.377 0 000 6.755h58.318a3.377 3.377 0 000-6.755z" fill="#E5E5E5"/><path d="M398.563 223.161c7.328-9.66 14.405-19.572 21-29.987a983.312 983.312 0 01-1.017 35.506c-1.05-.044-2.089-.099-3.139-.142.394-8.175.711-16.425.919-24.785-4.878 7.256-9.965 14.283-15.204 21.178a105.438 105.438 0 01-2.559-1.77z" fill="#07C2F2"/><path d="M401.418 217.183c.153-1.005.317-2 .47-3.005 6.803.984 13.563 1.945 20.29 2.852-.142 1.017-.274 2.044-.416 3.06-6.749-.929-13.53-1.89-20.344-2.907z" fill="#07C2F2"/><path d="M422.418 189.382c-3.139-.448-6.322-.481-9.45-.022a27.824 27.824 0 00-8.947 2.951 27.96 27.96 0 00-7.515 5.628c-2.132 2.262-3.937 4.874-4.911 7.704-1.815 5.727-1.367 12.294 2.089 17.212 3.358 4.994 9.33 7.967 15.543 9.234 6.191 1.377 12.808 1.017 18.266-1.857 5.458-2.743 9.713-8 10.873-14.054.546-3.016.24-6.273-.591-9.333-.842-3.07-2.308-5.977-4.331-8.392a19.95 19.95 0 00-7.427-5.628c-2.877-1.257-6.016-1.858-9.199-2.066 1.586-.054 3.194-.044 4.791.153 1.597.219 3.161.579 4.692 1.104 3.063 1.049 5.918 2.874 8.247 5.333 4.594 4.983 7.088 12.196 6.202 19.244-.514 3.53-1.991 6.776-4.058 9.541a23.751 23.751 0 01-7.81 6.688c-6.168 3.3-13.628 3.693-20.355 2.218-3.369-.743-6.716-1.88-9.746-3.639-3.029-1.738-5.753-4.109-7.645-7.005-1.914-2.896-2.986-6.24-3.26-9.595a23.086 23.086 0 011.379-9.945c2.603-6.403 8.083-11.179 14.098-13.933 6.115-2.699 12.918-3.202 19.065-1.541z" fill="#07C2F2"/><path d="M426.235 209.545c.459-2.972.886-5.978 1.302-8.994 1.006.153 1.991.306 2.986.448a555.65 555.65 0 01-1.28 9.016c-.995-.142-1.991-.306-3.008-.47z" fill="#07C2F2"/><path d="M423.982 206.179c.164-1.038.328-2.055.492-3.093 2.834.47 5.656.929 8.467 1.377-.153 1.049-.306 2.077-.459 3.126-2.823-.459-5.656-.929-8.5-1.41z" fill="#07C2F2"/></svg>