<svg width="1920" height="384" fill="none" xmlns="http://www.w3.org/2000/svg"><path d="M1079.99 71.36c-1.4 0-2.8.087-4.26.269-1.97.251-3.84.972-5.65 1.675l-.28.107c-.92.345-1.68.633-2.41.98-.9.436-1.78.912-2.66 1.395-1.68.909-3.33 2.164-4.9 3.725a30.617 30.617 0 00-3.66 4.437c-.38.55-.71 1.139-1.04 1.726-.12.217-.22.433-.32.655-.15.334-.27.593-.36.879l-.09.438a5.31 5.31 0 00-.56.759c-.21.331-.37.695-.53 1.044-.45.976-.75 1.863-.97 2.782-.19.79-.41 1.833-.51 2.883-.07.686-.05 1.373-.03 2.054l.02.542c.01.783.03 1.556.06 2.338.04.941.23 1.887.39 2.726.14.713.36 1.402.57 2.089.35 1.146.7 2.06 1.05 2.973l-.15-.521c.35 1.061.81 2.266 1.42 3.372.48.877 1.06 1.691 1.71 2.592a42.243 42.243 0 003.39 4.176c.7.759 1.37 1.389 2.03 1.931.98.81 1.85 1.518 2.84 1.991 1.13.545 2.28 1.01 3.41 1.368.88.275 2.04.59 3.23.59 1.14-.01 2.33-.08 3.53-.213.39-.043.77-.142 1.14-.241.27-.069.53-.139.8-.187l.28-.013v.021c.1.029.2.056.29.094.12.064.22.128.34.203.36.35.68.75.98 1.159 1.12 1.633 2.07 3.399 3 5.106.47.868.97 1.678 1.54 2.487l.21.3c.51.708 1.04 1.44 1.66 2.057.65.625 1.41 1.181 2.07 1.64.66.465 1.17.823 1.71 1.128.75.411 1.63.865 2.58 1.111.62.155 1.35.246 2.2.281h.01c1.29 0 2.31-.377 3.18-.73.41-.168.82-.334 1.23-.523.51-.246.95-.575 1.42-.922.5-.377.91-.788 1.29-1.21.32-.348.62-.69.84-1.085.28-.492.5-1.005.73-1.523.18-.379.33-.708.43-1.055.24-.722.31-1.467.36-2.167.07-1.005.14-1.961-.05-2.88-.07-.377-.21-.743-.35-1.098l-.17-.468c-.17-.502-.32-1.007-.47-1.51l-.11-.443c-.05-.2-.1-.403-.16-.607-.14-.566-.37-1.124-.59-1.667-.28-.748-.45-1.287-.61-1.835l-.15-.625c-.1-.38-.19-.757-.31-1.128-.1-.283-.2-.564-.31-.844-.14-.361-.27-.721-.38-1.096-.15-.518-.22-1.076-.29-1.624-.01-.109-.01-.232-.01-.342.3-.609.61-1.087.93-1.568.18-.275.36-.548.53-.831.37-.607.72-1.219 1.08-1.846.45-.791.81-1.622 1.17-2.45-.01.005-.01.008-.01.01.1-.187.18-.379.27-.574l-.24.411c.51-1.028.83-1.95 1.03-2.872.22-.988.42-1.955.44-2.931.01-.55-.02-1.092-.07-1.64.1-.053.18-.134.24-.22.35-.408.75-.969.71-1.682a4.66 4.66 0 00-.09-.826c-.06-.315-.13-.633-.21-.96a26.5 26.5 0 00-.49-1.883 24.941 24.941 0 00-1.33-3.775c-.81-1.825-1.85-3.764-3.17-5.928-.59-.989-1.2-1.975-1.85-2.937-.55-.815-1.09-1.616-1.74-2.297-1.28-1.312-2.51-2.312-3.76-3.06-1.04-.627-2.17-1.103-3.26-1.565-.8-.34-1.5-.61-2.23-.853l-.46-.152c-.75-.254-1.52-.518-2.32-.657a26.975 26.975 0 00-3.6-.42c-.38-.01-.78-.02-1.17-.02z" fill="#F5E592"/><path d="M1105.83 132.807c-.14.082-.28.181-.4.299-.02.024-.05.051-.07.077-.1.094-.18.206-.29.361-.14.195-.2.446-.26.679-.05.16-.1.318-.15.464-.15.391-.29.775-.44 1.157-.26.532-.51 1.056-.86 1.537-.12.122-.24.235-.37.342-.52.342-1.08.659-1.65.924-.52-.083-1.05-.077-1.57-.056-.5.011-1.01.048-1.51.093-.23.019-.44.038-.66.067-.27.027-.47.128-.68.299-.21.155-.31.441-.33.711a.886.886 0 00-.12.249c-.11.363.1.812.5.903.46.112.93.205 1.39.288.52.083 1.04.187 1.56.235.31.024.62 0 .92-.045-.2.187-.39.395-.55.622-.15.225-.25.484-.35.724-.18.412-.29.858-.19 1.304.33 1.408 1.95 1.622 3.14 1.416.34-.056.67-.144.99-.248-.04.291-.03.588.04.881.02.177.07.345.14.513.06.26.19.495.38.7.3.391.72.652 1.16.829.12.048.24.083.37.109.19.096.4.171.61.217.17.037.34.053.5.074.18-.01.36-.029.53-.045.17-.067.35-.142.53-.206.16-.093.32-.205.46-.326.66-.531.94-1.426.85-2.244 0-.168-.02-.323-.06-.481.21-.628.28-1.328.16-1.98a3.35 3.35 0 00-.3-.817c-.16-.331-.41-.564-.7-.78.02-.064.04-.131.05-.201.05-.221.12-.475.1-.716-.03-.401-.05-.614-.24-.98a1.878 1.878 0 00-1.09-.885l-.09-.021c.17-.411.34-.826.49-1.25.15-.297.29-.607.41-.927.15-.345.31-.69.37-1.061.05-.27.1-.54.11-.81.04-.566-.13-1.258-.58-1.648-.38-.337-.77-.559-1.29-.577h-.03c-.33 0-.65.077-.93.23zm-1.69 3.222l-.06.136c.02-.048.04-.091.06-.136z" fill="#9D9D9D"/><path d="M1107.06 131.22c-.56.291-.82 1.044-.49 1.611.16.28.3.574.43.873.12.366.2.727.25 1.106.01.329 0 .655-.05.978-.08.331-.18.655-.31.978-.23.436-.5.839-.79 1.224-.42.457-.87.86-1.36 1.223-.68.455-1.39.829-2.15 1.12.1-.038.2-.075.3-.102-.74.267-1.51.455-2.3.545-.55.032-1.11.016-1.65-.064-.37-.085-.72-.19-1.06-.334-.3-.16-.59-.342-.87-.553a6.068 6.068 0 01-.63-.711c-.2-.325-.37-.659-.51-1.015-.1-.275-.22-.502-.5-.676a1.144 1.144 0 00-.89-.157c-.31.064-.58.251-.76.521-.14.232-.26.614-.16.895.2.531.39 1.034.68 1.509.27.438.6.839.95 1.192.75.737 1.71 1.239 2.71 1.528 2.13.607 4.42.147 6.41-.719.94-.411 1.81-.996 2.61-1.659a8.272 8.272 0 001.96-2.452c.5-.941.77-1.986.77-3.046-.01-1.173-.39-2.311-.97-3.327a1.217 1.217 0 00-1.06-.635c-.19.008-.38.05-.56.147zm-11.17 6.954c-.01-.019-.01-.037-.02-.056.04.085.07.182.1.275l-.08-.219zm1.83 2.143c.02.011.05.021.07.032a.724.724 0 00-.07-.032z" fill="#2F545F"/><path d="M1108.36 137.448c-.63.138-1.06.79-.92 1.424.06.221.1.446.14.673 0 .267-.01.529-.05.791-.07.288-.15.561-.26.828-.18.326-.38.628-.61.919-.32.363-.68.684-1.07.978-.46.299-.93.553-1.43.759-.45.147-.9.256-1.37.315-.32.016-.63.005-.94-.032a4.128 4.128 0 01-.53-.163 5.39 5.39 0 01-.36-.222c-.1-.091-.19-.187-.28-.288-.1-.169-.18-.334-.25-.513a4.479 4.479 0 01-.12-.503c-.12-.644-.8-1.055-1.42-.913-.65.141-1.03.782-.91 1.426.15.735.42 1.454.89 2.039.47.596 1.08.978 1.77 1.266.32.131.68.195 1.01.243.32.046.63.056.96.046.85-.016 1.66-.211 2.44-.511a8.325 8.325 0 002-1.082 8.05 8.05 0 001.77-1.75c.49-.633.83-1.426 1.01-2.198.19-.877.16-1.761-.06-2.627a1.213 1.213 0 00-1.17-.932.94.94 0 00-.24.027zm-2.8 5.637c-.05.032-.08.059-.13.091.05-.032.08-.062.13-.091z" fill="#2F545F"/><path d="M1108.65 141.113c-.28.15-.49.39-.59.689-.1.337-.04.607.08.922.02.04.03.078.04.115.17.516.28 1.026.35 1.552.01.393-.01.77-.06 1.147-.08.307-.17.598-.29.889-.11.193-.22.372-.35.545a4.02 4.02 0 01-.41.382c-.11.064-.22.123-.34.182-.12.035-.24.067-.38.091-.12 0-.24-.011-.36-.024a3.614 3.614 0 01-.39-.12 4.706 4.706 0 01-.55-.35c-.3-.278-.56-.578-.81-.911-.16-.249-.3-.5-.44-.759a1.215 1.215 0 00-1.62-.495c-.56.3-.81 1.034-.49 1.612.7 1.295 1.68 2.591 3.1 3.149 1.17.447 2.45.345 3.52-.336 1.05-.679 1.72-1.79 2.04-2.982.21-.745.25-1.52.18-2.281-.03-.431-.1-.831-.19-1.24-.11-.436-.28-.855-.43-1.285-.11-.27-.43-.484-.69-.577a1.298 1.298 0 00-.37-.054c-.19.006-.38.048-.55.139zm-.42 1.83zm-21.05-36.515c-.58.308-.78 1.037-.49 1.614 4.84 9.717 10.42 19.074 14.76 29.045.26.595 1.08.782 1.62.494.6-.318.75-1.015.49-1.614-4.33-9.971-9.91-19.316-14.77-29.034-.2-.408-.63-.636-1.06-.636a1.15 1.15 0 00-.55.131z" fill="#2F545F"/><path d="M1092.74 87.576c-.31.065-.58.254-.75.522-.18.28-.21.577-.16.895.08.611.15 1.22.21 1.83.15 2.054.11 4.104-.24 6.142-.24 1.208-.6 2.375-1.1 3.505-.43.847-.92 1.635-1.5 2.378-.63.714-1.32 1.352-2.08 1.919-.78.526-1.61.951-2.48 1.293-.99.331-1.98.547-3.02.662-1.31.094-2.61.016-3.91-.205a17.402 17.402 0 01-3.6-1.187 16.312 16.312 0 01-2.99-1.913c-.29-.256-.58-.523-.86-.801-.46-.457-1.19-.524-1.68-.067-.47.43-.53 1.232-.07 1.689a16.415 16.415 0 003.93 2.904c1.54.831 3.23 1.397 4.95 1.726.88.157 1.76.251 2.64.277.88.03 1.75-.045 2.62-.157 1.72-.214 3.42-.831 4.93-1.686 1.47-.85 2.7-2.012 3.76-3.337 1.1-1.379 1.86-3.065 2.37-4.742.52-1.724.74-3.548.79-5.338.07-1.799-.09-3.615-.34-5.405-.07-.559-.64-.93-1.18-.93-.08 0-.16.01-.24.026zm-8.15 18.502l-.21.081c.07-.03.14-.054.21-.081z" fill="#2F545F"/><path d="M1087.62 86.083c-.56.342-1 .83-1.36 1.378a2.8 2.8 0 00-.19.345.611.611 0 01-.08-.037c-.5-.214-1.09-.27-1.62-.243-1 .048-1.94.494-2.62 1.24-.56.614-.91 1.351-1.09 2.14a6.526 6.526 0 00-2.29-.37 4.43 4.43 0 00-1.63.348c-.49.187-.91.465-1.31.79-.68.56-1.12 1.371-1.44 2.162-.16.39-.25.81-.33 1.232-.05.294-.1.58-.13.868-.53-.174-1.09-.27-1.64-.197-.53.074-1.05.288-1.53.529-.51.243-.96.625-1.32 1.036-.83.914-1.22 2.079-1.31 3.3-.05.569.03 1.165.16 1.715.12.577.36 1.144.63 1.667a1.2 1.2 0 001.61.495c.58-.3.81-1.035.51-1.612a5.714 5.714 0 01-.32-.665c-.1-.334-.16-.662-.21-1.004 0-.3 0-.591.04-.885.06-.262.14-.507.23-.764.11-.208.24-.409.39-.604.13-.141.27-.272.42-.398.23-.141.46-.259.71-.363.12-.032.23-.062.35-.086.08.003.15.011.22.02.4.103.79.253 1.16.421.04.26.1.521.17.778.19.828.53 1.648 1.04 2.337.35.484.88.922 1.48 1.045.88.187 1.73-.131 2.29-.831.24-.299.33-.641.39-1.015.05-.382-.12-.783-.26-1.125-.14-.347-.43-.673-.67-.951-.35-.4-.78-.724-1.19-1.053a9.257 9.257 0 00-1-.67c-.01-.492.02-.98.09-1.47.09-.42.22-.823.39-1.223.11-.22.24-.428.39-.623.14-.155.3-.3.46-.433.15-.09.31-.17.47-.243.21-.064.42-.107.64-.139.33-.005.65.019.98.067.38.099.74.227 1.09.382l.15.08c.02.206.05.412.08.61.13.846.46 1.696.91 2.43.22.372.5.72.83 1.016.34.318.7.523 1.12.708.55.251 1.38-.176 1.51-.764.12-.58.2-1.128.11-1.715-.1-.57-.28-1.101-.53-1.614-.27-.521-.66-.997-1.06-1.416-.2-.2-.4-.388-.62-.561.01-.16.02-.318.04-.476.07-.28.15-.545.26-.807.09-.16.18-.31.29-.46.08-.082.17-.162.26-.242.09-.06.19-.113.29-.163.14-.038.27-.07.4-.097.15 0 .3.011.45.027.16.046.32.099.48.158.05.032.11.064.17.101-.01.35.01.703.06 1.048.1.718.4 1.426.77 2.04.43.7 1.02 1.249 1.68 1.732.34.243.84.233 1.2.048.39-.206.58-.569.64-.988.13-1.016-.13-1.97-.5-2.9-.23-.55-.57-1.025-.92-1.509-.11-.16-.24-.31-.38-.451.03-.083.06-.169.09-.249.1-.17.2-.336.31-.491.1-.1.2-.198.3-.286.1-.062.21-.118.31-.169.1-.024.19-.048.29-.066.15 0 .29.01.43.03.19.05.38.114.57.189.28.155.54.334.79.523.22.188.42.383.62.588.46.457 1.19.513 1.68.064.47-.435.53-1.22.07-1.686-1.09-1.108-2.42-2.078-4.04-2.097h-.04c-.65 0-1.29.203-1.84.524zm2.81 2.11c.05.022.1.046.16.07-.05-.021-.11-.045-.16-.07zm-1.74.035a.928.928 0 01-.08.054c.03-.019.06-.035.08-.054zm-.08.054a.182.182 0 01-.03.018c.01-.008.02-.01.03-.018zm-11.25 4.9c-.03.032-.07.058-.11.088.04-.032.08-.059.11-.088zm-5.56 5.028c-.04.01-.07.024-.11.032.04-.01.07-.021.11-.032zm-.68.371c-.04.032-.09.062-.13.088.04-.029.09-.056.13-.088zm5.83 1.793l-.06.008.06-.008zm-.36.409s0 .002 0 0c0 .021 0 .04-.01.056.01-.016.01-.035.01-.056z" fill="#2F545F"/><path d="M1072.87 36.62c-.58.84-.37 1.96-.28 2.918.03.294.06.588.1.88-.11 1.37.01 2.757.26 4.114.26 1.435.59 2.859.94 4.277.12.487.49.973.99 1.125.02.131.05.265.08.396.19.988.38 1.982.56 2.97.01.562.05 1.125.09 1.686.02.436.06.877.11 1.312.03.42.09.85.32 1.21.04.057.07.102.11.153 0 .045.01.093.01.136.03.206.05.4.1.596.1.532.35.914.8 1.232.32.224.78.277 1.15.187.4-.094.68-.337.92-.652.02-.03.04-.056.06-.078.27-.352.29-.828.16-1.242a1.1 1.1 0 00.15-.2c.2-.324.29-.658.3-1.008h.01c.01-.625-.1-1.258-.19-1.88-.06-.436-.12-.866-.17-1.302-.13-1.745-.24-3.49-.37-5.234.52-.369.84-.964.9-1.627.02-.411-.05-.866-.1-1.266l-.14-1.232c-.08-.735-.18-1.461-.29-2.19-.11-.671-.24-1.342-.43-2.005-.36-1.303-.91-3.446-2.63-3.409l-.14.008c-.15-.16-.35-.278-.57-.318a3.213 3.213 0 00-.52-.25 6.123 6.123 0 00-.74-.121 1.05 1.05 0 00-.13-.008c-.54.005-1.15.411-1.42.823zm5.17 2.23c.01.026.01.053.01.08v-.049c-.01-.008-.01-.021-.01-.032z" fill="#24CFFB"/><path d="M1074.86 34.003c-.57.008-1.11.195-1.61.465-.51.277-.9.753-1.21 1.24-.3.464-.46 1.023-.59 1.554-.17.679-.21 1.408-.24 2.105-.08 2.143.3 4.305.72 6.4.5 2.497 1.18 4.966 1.92 7.4.68 2.199 1.43 4.38 2.25 6.532.52 1.352 1.04 2.731 1.73 4.008.3.55 1.07.7 1.59.4.67-.028 1.16-.595 1.15-1.25-.04-1.48.15-2.97.28-4.453.18-2.023.35-4.053.47-6.084.13-2.225.19-4.472.13-6.709-.07-2.022-.27-4.06-.73-6.038-.36-1.528-.99-3.059-2.11-4.184-.24-.243-.54-.449-.82-.633-.3-.195-.65-.307-.97-.43A5.282 5.282 0 001075 34c-.05 0-.09 0-.14.003zm.36 2.386c.34.048.67.13.99.24.18.077.34.168.51.275.17.14.32.286.47.45.25.336.47.696.65 1.078.43 1.008.68 2.074.87 3.15l-.06-.307c.32 1.902.42 3.831.44 5.76.02 2.06-.08 4.118-.19 6.175-.13 1.835-.28 3.67-.44 5.506-.01.134-.03.267-.04.404-.6-1.553-1.14-3.137-1.67-4.719-1.12-3.387-2.1-6.837-2.73-10.35.01.075.03.147.04.222-.32-1.814-.57-3.693-.44-5.544.06-.484.14-.962.3-1.424.08-.184.17-.358.27-.526.06-.073.12-.14.19-.206.05-.038.11-.075.17-.104.08-.03.15-.054.23-.072.14-.008.29-.014.44-.008zm2.54 1.851a.65.65 0 00.05.118c-.02-.04-.04-.078-.05-.118zm14.95 8.432a1.49 1.49 0 00-.75.446c-.19.233-.29.42-.42.7-.09.236-.11.513-.14.748-.05.334-.07.671-.1 1.008-.07.921-.11 1.854-.16 2.786-.01.1-.01.198-.02.297-.01.032-.01.07-.02.104-.19.994-.37 1.99-.53 2.995l-.39 1.189c-.12.353-.23.7-.34 1.053-.14.438-.23.895-.29 1.349-.01.3.06.588.19.85.21.382.56.678.98.812.86.262 1.77-.209 2.08-1.037.31-.208.57-.518.65-.876.05-.192.08-.38.11-.57-.02.086-.04.174-.05.262.01-.098.03-.194.05-.296.01-.048.02-.094.02-.144 0 .037-.01.075-.01.107.27-1.478.6-2.942.84-4.422.14-.575.28-1.157.39-1.731.11-.53.22-1.072.3-1.614.03-.27.07-.54.11-.818.02-.253.04-.513.05-.772.02-.3.01-.644-.06-.943-.17-.57-.62-1.018-1.2-1.13-.14-.144-.32-.26-.53-.32a1.293 1.293 0 00-.42-.062c-.12-.006-.24.008-.34.03zm.85 11.817c-.01.011-.01.024-.01.032.01-.024.01-.045.01-.07v.038z" fill="#24CFFB"/><path d="M1092.5 45.288c-.66.158-1.27.625-1.71 1.128-.48.569-.8 1.229-1.05 1.918-.3.79-.47 1.614-.61 2.453-.31 1.918-.35 3.892-.32 5.84.03 1.78.15 3.57.31 5.349.06.801.15 1.592.21 2.394.05.641.57 1.173 1.24 1.143a1.2 1.2 0 00.85-.42c.33-.071.63-.272.78-.584 1.51-3.348 3.04-6.661 4.1-10.185.27-.932.5-1.873.65-2.824.15-.9.23-1.825.15-2.739-.08-.726-.28-1.437-.66-2.068a3.08 3.08 0 00-.67-.745c-.37-.3-.76-.476-1.21-.623-.33-.122-.72-.141-1.08-.16a1.24 1.24 0 00-.14-.008c-.28 0-.56.067-.84.131zm1.07 2.258c.16.026.3.056.44.099.07.034.14.072.21.112.05.048.1.099.15.15.06.077.11.16.16.245.06.177.11.356.15.537.07.521.08 1.042.04 1.571-.25 2.234-.97 4.395-1.75 6.49l.11-.307a85.481 85.481 0 01-1.69 4.074c-.03-.342-.06-.678-.08-1.018-.14-2.308-.2-4.622-.01-6.933.12-1.186.3-2.37.69-3.497.13-.318.28-.623.46-.909.1-.13.21-.254.33-.368.07-.057.15-.105.24-.155.07-.027.15-.054.23-.075.11-.008.22-.016.32-.016zm1.02.718l.03.078c-.01-.03-.02-.05-.03-.078zm-83.61 35.112c-.76.046-1.53.188-2.2.578-.77.446-1.37 1.042-1.96 1.704-.17.187-.33.39-.48.588-.28.371-.45.834-.46 1.301 0 .059 0 .123.01.184 0 .04.01.086.01.126.03.232.1.468.19.7.01.013.01.032.02.048.08.294.17.585.28.866.34.82 1.08 1.464 1.73 2.022.62.532 1.37.914 2.1 1.277.55.28 1.11.543 1.69.783 1.06.449 2.16.81 3.25 1.21 1.16.439 2.42.682 3.63.914 2.23.436 4.45.914 6.72.989 1.17.045 2.33.064 3.49.056 1.22-.01 2.4-.112 3.6-.27.99-.13 1.99-.224 2.98-.318.6-.061 1.19-.142 1.79-.198.72-.021 1.45-.002 2.17-.101.29-.03.63-.14.83-.334.5-.468.66-1.25.17-1.798-.62-.703-1.52-1.098-2.37-1.499-1.09-.561-2.11-1.189-3.21-1.726-1.07-.521-2.16-1.015-3.24-1.52-2.08-.978-4.14-2.001-6.33-2.683-1.14-.352-2.32-.651-3.48-1.004a46.061 46.061 0 00-3.46-.943c-2.17-.492-4.41-.973-6.65-.973-.28-.003-.55.005-.82.021zm26.93 8.702c.07.035.16.075.24.118-.08-.043-.16-.08-.24-.118z" fill="#24CFFB"/><path d="M1011.49 81.533c-.9.112-1.78.326-2.62.652a9.201 9.201 0 00-2.84 1.809c-.82.745-1.54 1.64-1.86 2.722-.28.94-.21 1.919.17 2.822.37.913 1.01 1.67 1.72 2.348.86.818 1.9 1.462 2.93 2.039 1.82 1.034 3.82 1.79 5.82 2.375 3.09.913 6.3 1.314 9.51 1.483 6.51.344 13.05-.634 19.42-1.927.3-.066.57-.344.7-.606.14-.27.17-.596.08-.895a1.187 1.187 0 00-.19-.353 1.13 1.13 0 00-.61-.775c-1.09-.523-2.18-1.042-3.26-1.603-.85-.446-1.72-.903-2.58-1.349a215.418 215.418 0 00-6.12-3.131c-2.28-1.106-4.59-2.143-6.96-3.057-2.27-.876-4.61-1.638-7-2.142-1.46-.313-2.98-.519-4.5-.519-.61 0-1.21.035-1.81.107zm3 2.32l-.31-.028c2.72.209 5.35.92 7.92 1.796-.02-.01-.04-.016-.07-.027.07.024.14.048.21.075.03.01.06.019.08.03a.064.064 0 00-.03-.009c3.69 1.32 7.25 2.985 10.75 4.75 1.54.784 3.08 1.593 4.62 2.416.82.435 1.66.858 2.49 1.277 0 0 0 .003.01.005-5.69 1.002-11.47 1.6-17.25 1.19.1.01.2.018.3.029-3.14-.251-6.25-.783-9.24-1.812-1.85-.668-3.65-1.493-5.29-2.597a10.17 10.17 0 01-1.56-1.392 6.49 6.49 0 01-.56-.841c-.06-.166-.12-.329-.16-.503-.01-.152-.02-.299-.02-.448.02-.145.05-.28.08-.423.11-.264.25-.513.4-.756.26-.318.53-.609.82-.89.53-.435 1.06-.82 1.67-1.13.61-.261 1.25-.454 1.9-.59 1.07-.168 2.14-.187 3.24-.123zm-6.7 1.733c-.02.019-.04.04-.06.056.02-.016.04-.037.06-.056zm.94 5.392c.05.034.1.075.16.117a8.35 8.35 0 01-.16-.117zm5.34 2.602c.03.013.07.024.11.037a7.886 7.886 0 01-.11-.037zm8.22-7.892c-.02-.008-.03-.014-.05-.02a17.542 17.542 0 01.05.019zm-7.81-29.467c-.79.056-1.59.195-2.31.548-1.46.719-2.61 2.423-2.17 4.09.23.84.69 1.603 1.3 2.218.81.79 1.7 1.427 2.66 2.022 1.03.634 2.12 1.203 3.24 1.668 1.03.435 2.11.734 3.17 1.082 1.21.4 2.42.801 3.66 1.172 2.21.671 4.49 1.12 6.74 1.641 1.16.27 2.29.606 3.45.855 1.26.275 2.54.548 3.73 1.08.34.186.66.397.98.625.46.318 1.1.205 1.43-.254.31-.457.21-1.106-.26-1.414-.11-.077-.22-.15-.32-.221.19-.294.3-.634.32-.98.05-.495-.1-1.174-.48-1.54a8.39 8.39 0 00-1.43-1.09c-.49-.307-.99-.625-1.48-.924-1.06-.642-2.08-1.35-3.11-2.03-1.99-1.323-4.09-2.488-6.2-3.608-2.17-1.143-4.28-2.394-6.52-3.409-1.26-.58-2.53-1.175-3.89-1.435a7.983 7.983 0 00-1.54-.144c-.32.008-.64.024-.97.048z" fill="#24CFFB"/><path d="M1013.83 55.16c-.71.142-1.37.401-2 .748-.3.169-.56.372-.82.578-.32.259-.62.542-.9.83-.39.412-.74.895-.99 1.398-.27.54-.37 1.1-.41 1.696-.03.465.08.949.23 1.39.19.51.47.996.81 1.424.81 1.034 1.86 1.816 2.97 2.525 1.28.83 2.68 1.49 4.08 2.097 1.67.718 3.38 1.322 5.1 1.902 3.54 1.173 7.14 2.124 10.77 2.952 2.74.642 5.51 1.21 8.31 1.66.59.093 1.2.195 1.81.243.32.03.59.018.88-.16a1.2 1.2 0 00.52-.765c.07-.307.01-.625-.16-.884 0-.008 0-.016-.01-.024.04-.369-.09-.754-.38-1.029-2.44-2.292-5.03-4.438-7.66-6.487-3.6-2.786-7.38-5.423-11.43-7.51-1.81-.94-3.71-1.731-5.67-2.274-1.07-.286-2.19-.467-3.3-.47a9.16 9.16 0 00-1.75.16zm2.25 2.231c1.18.107 2.32.39 3.44.754a2.44 2.44 0 01.06.018c.03.011.07.025.11.035l-.06-.016c3.73 1.33 7.16 3.436 10.4 5.654-.03-.016-.05-.035-.08-.054 2.46 1.705 4.84 3.527 7.16 5.43 1.04.843 2.05 1.704 3.05 2.588-1.75-.31-3.48-.652-5.22-1.034-4.52-.98-9.02-2.145-13.4-3.65.03.011.06.025.09.035-2.84-.996-5.73-2.126-8.24-3.812.08.064.17.123.26.187-.69-.473-1.33-.98-1.88-1.593a6.546 6.546 0 01-.5-.748c-.06-.15-.11-.299-.15-.46-.01-.117-.02-.232-.02-.352.02-.144.05-.28.09-.42.08-.19.17-.368.28-.542.26-.352.56-.662.89-.956.32-.254.64-.473 1-.658a5.72 5.72 0 011.06-.328c.54-.083 1.1-.102 1.66-.078zm.02.003c.05 0 .1.003.16.005-.05 0-.11-.002-.16-.005zm-3.77 1.08c-.05.042-.11.085-.15.125.04-.043.1-.083.15-.126zm-1.24 1.71v-.002zm.2 1.076l.04.099-.04-.099zm10.24 5.86a1.954 1.954 0 00-.2-.068c.07.024.14.043.2.067zm8.41-3.335c-.03-.019-.05-.038-.07-.056.02.016.04.034.07.056zm-.08-.059zm-10.23-5.544c-.02-.008-.04-.01-.06-.019-.01-.008-.04-.013-.06-.018.04.01.08.026.12.037zm38.73 69.372c-.19 0-.38 0-.57.037-.31.064-.62.195-.91.299l-.89.334c-.39.161-.78.313-1.15.505-.14-.034-.28-.067-.42-.096-.2.011-.4.019-.6.038-.15.01-.31.045-.47.074-.34.064-.68.142-1.02.214-.84.176-1.66.382-2.49.588-1.66.401-3.21 1.071-4.6 2.03-.5.345-.98.682-1.44 1.064-.74.614-1.47 1.378-1.74 2.319a.896.896 0 00-.05.227c-.14.139-.27.278-.39.427-.47.559-.93 1.334-.59 2.079.02.051.05.102.08.147 0 .037.01.077.01.112.06.345.45.69.82.569.03-.01.07-.018.1-.029.2.045.41.051.62.011.25-.054.49-.121.73-.193.14.174.32.337.52.388.15.034.31.074.47.101a4.47 4.47 0 001.45-.232c.08.053.16.099.25.139.45.205.93.128 1.39.045.43-.083.86-.278 1.27-.427.48-.179.96-.385 1.42-.607.53-.254 1.12-.532 1.53-.951.23-.241.35-.39.48-.7.1-.176.17-.428.18-.612.01-.112.01-.224 0-.334.01-.064.01-.128.01-.192.01-.011.03-.016.04-.027.05-.035.1-.072.15-.109.36-.22.73-.433 1.09-.644.21-.113.42-.233.61-.356.27-.168.59-.334.76-.625.12-.208.18-.43.18-.657.26-.147.53-.299.79-.441.58-.307 1.17-.607 1.75-.903.24-.112.47-.224.71-.326.11-.056.23-.102.35-.168.27-.142.46-.3.65-.551.14-.195.22-.419.24-.66.02-.275-.05-.499-.17-.724v-.152c-.06-.526-.61-1.037-1.13-1.037h-.02v.006z" fill="#24CFFB"/><path d="M1060.94 125.598c-4.72 1.016-9.56 1.585-14.07 3.412-1.01.412-1.99.895-2.91 1.472-1 .633-1.85 1.443-2.63 2.322-.65.705-1.26 1.518-1.66 2.402-.17.385-.3.791-.36 1.21-.06.449-.03.839.07 1.277.08.289.25.596.43.839.27.372.61.636.99.885.4.269.9.43 1.35.566.6.187 1.22.262 1.83.326.55.056 1.1.093 1.64.083.58-.011 1.16-.123 1.72-.233 1.2-.254 2.34-.791 3.4-1.37 1.08-.577 2.09-1.312 3.05-2.068 1.09-.855 2.11-1.79 3.12-2.739 1.81-1.744 3.48-3.615 5.24-5.423.33-.353.4-.882.21-1.315.12-.27.15-.585.06-.855-.09-.288-.3-.548-.56-.689a1.124 1.124 0 00-.56-.144 1.7 1.7 0 00-.36.042zm-1.96 2.814c-2.02 2.129-4.03 4.277-6.31 6.166.05-.035.09-.069.13-.099-.07.054-.14.11-.21.166-.01.008-.01.013-.02.021l.01-.013c-1.29 1.02-2.65 1.945-4.14 2.639-.71.292-1.43.519-2.17.66-.69.078-1.37.065-2.05.006l.02.002c-.62-.077-1.23-.189-1.81-.382-.18-.08-.35-.168-.51-.269-.06-.054-.12-.107-.17-.163a.654.654 0 01-.07-.118c-.01-.013-.01-.024-.01-.035-.01-.075-.01-.144-.01-.216.03-.147.06-.289.11-.433.16-.374.37-.721.6-1.058.59-.783 1.26-1.52 2-2.164.89-.7 1.88-1.24 2.9-1.718-.08.045-.17.083-.27.128 3.81-1.667 7.92-2.348 11.98-3.12zm-14.41 4.547zm8.01 1.691c.01-.003.01-.005.01-.008.03-.024.06-.043.08-.067-.03.027-.06.048-.09.075zm76-72.48c-.42.049-.82.348-1.14.588-.5.372-.97.84-1.43 1.278-1.28 1.245-2.39 2.615-3.49 4.013-.9 1.033-1.88 1.971-2.84 2.957l-.26.273c-.23.184-.46.368-.68.558-.37.305-.75.668-.95 1.111-.37.348-.75.68-1.16.976-.45.323-.39 1.071-.05 1.442.18.195.44.308.71.318.3.02.5-.101.73-.27.07-.053.14-.101.21-.154.21.187.45.336.72.424.34.102.7.113 1.04.032 0 .003 0 .006-.01.009.54-.078.97-.457 1.39-.775.37-.28.74-.564 1.11-.84.66-.445 1.32-.876 1.98-1.322.83-.547 1.64-1.135 2.46-1.731.67-.484 1.29-1.074 1.89-1.651.41-.401.81-.812 1.18-1.237.38-.43.72-.858.99-1.363.34-.622.45-1.266.54-1.966-.02-.27-.04-.548-.08-.82a4.195 4.195 0 00-.24-.68 2.357 2.357 0 00-1.32-1.108 2.182 2.182 0 00-.67-.104c-.2-.008-.39.016-.63.043z" fill="#24CFFB"/><path d="M1127.04 62.115c-.67.307-1.29.737-1.88 1.164-.72.513-1.4 1.083-2.05 1.681-1.43 1.296-2.73 2.72-3.99 4.173a97.753 97.753 0 00-3.87 4.807c-.74.988-1.47 1.985-2.16 3.01-.36.54-.14 1.315.39 1.639.31.19.66.213.97.11.01.005.01.007.02.01.24.141.6.235.88.141 1.59-.531 3.12-1.183 4.64-1.872a52.44 52.44 0 005.99-3.17c1.81-1.108 3.6-2.377 5.03-3.97.56-.622 1.07-1.303 1.42-2.078.37-.81.55-1.648.47-2.544-.07-.689-.33-1.367-.69-1.966-.32-.569-.81-1.08-1.4-1.37a3.364 3.364 0 00-1.49-.337c-.77.002-1.55.24-2.28.572zm2.47 1.814c.06.013.12.032.18.053.06.032.11.062.17.096.07.078.14.153.21.233.12.192.23.39.32.6.07.207.12.412.16.62 0 .15-.01.3-.02.45a4.12 4.12 0 01-.21.689c-.19.409-.44.788-.71 1.151-.88 1.056-1.92 1.94-3.04 2.747-1.84 1.299-3.8 2.402-5.81 3.41a60.492 60.492 0 01-3.91 1.776c.85-1.144 1.73-2.26 2.62-3.361-.02.026-.03.05-.06.077a65.128 65.128 0 013.56-4.037c1.12-1.173 2.31-2.3 3.62-3.273-.02.011-.04.025-.06.038.04-.032.08-.056.12-.086.05-.034.09-.066.14-.099l-.09.07a9.84 9.84 0 011.78-.997c.22-.067.44-.123.66-.163.12-.008.25-.005.37.006zm-1.05.163c-.06.024-.12.045-.18.064.06-.024.12-.043.18-.064zm-9.18 8.541c.04-.053.09-.11.13-.165-.04.053-.09.11-.13.165zm7.37-7.52c-.02.013-.04.031-.06.047.04-.026.07-.053.11-.077-.02.008-.03.019-.05.03z" fill="#24CFFB"/><path d="M1082.63 69.914c-2.42.168-4.82.708-7.13 1.472-2.35.785-4.6 1.88-6.72 3.16-2.14 1.296-4.09 2.851-5.91 4.556-1.79 1.686-3.36 3.596-4.71 5.645-1.32 2.023-2.39 4.184-3.15 6.487a24.46 24.46 0 00-1.16 6.997c-.04 2.173.4 4.361 1.01 6.431.68 2.357 1.69 4.601 2.88 6.747a33.75 33.75 0 004.39 6.187 31 31 0 002.77 2.728c.96.831 2 1.555 3.07 2.228 2.03 1.277 4.34 2.172 6.71 2.514 2.46.367 4.94.038 7.25-.817.62-.233.95-.903.74-1.52-.21-.607-.91-.959-1.52-.738-.66.246-1.33.452-2.02.604-1.04.187-2.07.259-3.12.222a15.33 15.33 0 01-3.31-.647 18.808 18.808 0 01-3.94-1.921l.25.169c-1.9-1.235-3.59-2.734-5.12-4.411-1.88-2.14-3.46-4.502-4.77-7.022.06.094.1.187.15.281-1.17-2.319-2.1-4.753-2.65-7.297a19.85 19.85 0 01-.36-4.806 23.2 23.2 0 011.1-5.47l-.02.057c.69-1.967 1.61-3.82 2.72-5.579-.03.04-.05.086-.08.126a32.283 32.283 0 015.16-6.07 34.744 34.744 0 017.09-4.876c-.08.032-.15.066-.22.101 2.41-1.213 4.93-2.145 7.57-2.706 2.11-.417 4.25-.59 6.4-.476 1.74.128 3.44.446 5.11.962 1.65.556 3.2 1.304 4.66 2.23l-.03-.018a27.596 27.596 0 015.13 4.39 31.6 31.6 0 014.52 6.604 30.731 30.731 0 012.33 6.586c-.01-.045-.01-.088-.02-.136l.03.17.03.137c-.01-.032-.01-.058-.02-.093.4 2.036.57 4.103.47 6.171 0-.032.01-.058.01-.088 0 .032-.01.064-.01.1 0 .069-.01.138-.01.21v-.165a21.154 21.154 0 01-.87 4.606 19.478 19.478 0 01-1.95 4.093 21.482 21.482 0 01-2.57 3.12c-.47.468-.34 1.285.13 1.686.24.195.55.299.85.281.34-.03.6-.187.83-.42a20.458 20.458 0 004.36-6.401c.48-1.098.82-2.255 1.1-3.417.3-1.259.44-2.555.52-3.84.15-2.532-.2-5.068-.79-7.529-.62-2.525-1.63-4.918-2.87-7.21-1.24-2.293-2.79-4.38-4.55-6.309-1.72-1.891-3.71-3.494-5.87-4.854-3.59-2.253-7.82-3.278-12.04-3.278a23.25 23.25 0 00-1.83.056zm18.23 9.914c.05.067.12.129.18.195a1.428 1.428 0 01-.18-.195zm-43.53 11.962c-.03.064-.05.128-.07.19.02-.065.04-.126.07-.19zm48.01 16.271l-.09.147c.03-.051.06-.099.09-.147zm-41.44 7.948c.06.075.13.145.19.222-.06-.072-.13-.144-.19-.222zm8.59 6.092l.13.043-.13-.043zm6.62.497zm29.07-23.274c.01-.013.01-.03.01-.045v-.01c0 .02 0 .04-.01.055zm-.46-6.228c0-.013-.01-.029-.01-.042 0-.011-.01-.024-.01-.035.01.027.01.05.02.077z" fill="#2F545F"/><path d="M1103.34 111.531c-.59.131-1.1.802-.9 1.427 1.37 4.395 3.38 8.646 3.83 13.281.06 1.09.02 2.151-.15 3.222-.2 1-.51 1.951-.92 2.889-.38.766-.83 1.485-1.36 2.161-.46.521-.97.994-1.52 1.416-.52.347-1.06.639-1.65.876-.6.201-1.2.337-1.83.409-.76.051-1.51.006-2.26-.112-.72-.155-1.41-.39-2.1-.689a14.683 14.683 0 01-2.53-1.665c-1.6-1.4-2.95-3.022-4.17-4.75l.18.251c-1.65-2.367-3.07-4.884-4.52-7.39a1.199 1.199 0 00-1.61-.494c-.56.291-.81 1.044-.49 1.613 2.25 3.896 4.44 7.893 7.57 11.174.79.82 1.65 1.565 2.58 2.236.87.654 1.86 1.157 2.87 1.557 1.04.417 2.18.607 3.3.679 1.12.064 2.29-.101 3.37-.43a9.653 9.653 0 002.85-1.462c.86-.643 1.57-1.397 2.23-2.246.66-.855 1.14-1.844 1.56-2.833.43-1.025.68-2.105.86-3.195.19-1.135.19-2.3.1-3.457-.14-1.566-.45-3.083-.86-4.604-.82-3.037-2.06-5.944-3.01-8.945-.1-.318-.24-.566-.52-.753a1.201 1.201 0 00-.65-.184.958.958 0 00-.25.018zm.45 23.047c-.02.021-.04.048-.06.072a.762.762 0 01.06-.072zm-9.51 1.739c.06.024.12.051.17.078-.05-.027-.11-.051-.17-.078z" fill="#2F545F"/><path d="M1597.31 249c-.55 0-1.02.192-1.31.542-.25.312-.37.524-.47.874-.05.15-.07.393-.08.609a.893.893 0 000 .231v.287c.01.37.05.743.09 1.113.05.445.07.898.09 1.351.03.482.01.947-.01 1.427-.01.356-.01.692-.01 1.027v.876c.01.575-.03 1.144-.07 1.72l-.02.227-.07 1.092-.07 1.091-.04.605-.09 1.169c-.04.568-.03 1.145-.02 1.712l.01.236c0 .435.01.868.06 1.303.07.524.19 1.056.58 1.406.05.383.4.7.78.7.23-.02.4-.026.58-.026.14 0 .26.006.4.012.45.073.88.17 1.31.267l.35.079a44.087 44.087 0 012.67.631l1.06.288 1.19.319c.69.172 1.38.326 2.07.472l.75.17.75.174.74.172.86.19.27.058c.34.075.68.15 1.02.235 1 .255 2 .53 3 .803l1.5.403c2.03.54 3.78 1.058 5.36 1.582.37.125.75.239 1.12.352.62.184 1.09.33 1.56.484l.66.224.22.073c.51.172 1.01.344 1.51.532l1.18.492.89.368.19.077.62.249.32.129.76.32c.86.364 1.71.72 2.57 1.064l.58.237.29.107c.26.109.59.251.92.384l.55.223-.13-.118c.78.379 1.65.717 2.72 1.095.61.216 1.22.453 1.82.69l.44.172.25.097c.41.16.82.318 1.22.471l.77.294.16.064.32.134-.2-.152.5.259.2.065 1.21.518c.67.279 1.35.56 2.03.827.66.267 1.45.557 2.25.83.43.154.88.281 1.33.409.35.103.7.204 1.04.313.57.18 1.12.395 1.66.609l.27.105.25.103c.32.128.64.243.96.346a1.517 1.517 0 00-.21-.03c-.77-.087-1.5-.131-2.24-.158l-.23-.01-.24-.008c-.9-.166-1.8-.344-2.7-.542-1.23-.269-2.46-.631-3.64-.981l-1.1-.32-.72-.208c-.54-.158-1.09-.318-1.63-.482-.56-.162-1.14-.283-1.71-.405l-.63-.137c-1.39-.298-3.02-.635-4.64-.868-.73-.105-1.46-.219-2.18-.334-.83-.129-1.66-.259-2.48-.376l-.65-.089c-1.36-.188-2.72-.374-4.07-.595a37.51 37.51 0 00-2.48-.293c-.38-.033-.76-.053-1.15-.073-.33-.018-.67-.035-1-.063-.93-.079-1.87-.17-2.81-.261l-1.72-.164a4.07 4.07 0 00-.31-.032c-.5-.067-1-.144-1.51-.221l-1.21-.182c-.98-.145-1.96-.255-2.95-.362l.11.028-.51-.076-.85-.091.2.054c-2.51-.311-4.58-.445-6.47-.445-.62 0-1.24.014-1.85.045-.6.03-1.18.095-1.76.159-.45.051-.91.102-1.36.134-.5.038-.91.067-1.33.103l-.34.024c-.36.025-.73.049-1.09.122-1.02.202-1.45 1.165-1.73 2.078-.09.289-.17.58-.24.874l-.14.497c-.06.213-.12.423-.19.636l-.24.807c-.12.447-.24.894-.37 1.333-.05.105-.1.208-.15.318-.33.71-.58 1.4-.76 2.11-.11.388-.21.777-.34 1.161l-.06.196-.01-.006c-.13.334-.26.666-.37.998-.24.54-.49 1.084-.7 1.647-.27.74-.4 1.499-.48 2.14l-.06.435-.08.297c-.09.373-.19.745-.26 1.117-.11.542-.17 1.131-.2 1.805-.02.344-.03.69-.02 1.034l.03.39c.04.407.08.536.25.919.05.089.1.168.15.244-.08.229-.04.48.09.709.16.275.51.467.84.467.17 0 .32-.051.45-.144.68-.499 1.37-.906 2.09-1.244.81-.336 1.65-.605 2.48-.872.6-.19 1.19-.378 1.77-.595l.64-.232c.5-.187 1-.371 1.5-.545.47-.157.93-.305 1.4-.453l.75-.237.74-.232a37.895 37.895 0 013.71-1.024c.81-.192 1.63-.336 2.46-.479.76-.134 1.52-.267 2.28-.439.72-.168 1.45-.302 2.17-.431l.79-.142.99-.186c.55-.103 1.1-.209 1.65-.3 0 0 .02-.004.03-.008v-.014l.03.008a.113.113 0 00.04-.014c0-.01.07-.028.07-.028 1.63-.198 3.13-.395 4.63-.587l.91-.127c.6-.085 1.19-.168 1.78-.235a60.2 60.2 0 002.63-.352c.83-.128 1.66-.257 2.49-.391l.22-.034c.86-.121 1.75-.279 2.63-.439l1.51-.267c1.01-.14 2.01-.299 3.01-.471 1.01-.185 2.02-.369 3.03-.537 1.37-.19 2.75-.313 4.13-.437l.31-.03c.84-.073 1.67-.178 2.5-.285.63-.081 1.25-.16 1.88-.227.99-.103 1.99-.139 2.98-.174.48-.018.96-.036 1.43-.06.74-.039 1.47-.039 2.2-.039.34.006.67.02.99.032.17.007.31.015.45.015.31-.006.57-.073.88-.225.48-.235.66-.882.53-1.339a1.217 1.217 0 00-.61-.737c-.24-.133-.51-.21-.77-.271.03.006.06.008.09.008.06 0 .13-.01.19-.02.4-.071.8-.479.88-.878.07-.399.02-.925-.34-1.204-.21-.172-.43-.332-.65-.485-.21-.154-.44-.288-.66-.421l-.29-.166-.32-.202c-.57-.346-1.13-.69-1.69-1.054l-.25-.164-.48-.316c-.48-.316-.96-.631-1.43-.955l-.54-.382c-.46-.332-.92-.666-1.41-.933a6.74 6.74 0 00-.49-.263l-.17-.081c-.11-.279-.33-.518-.67-.74-.49-.332-.97-.694-1.45-1.056-1.28-.959-2.56-1.878-3.86-2.784-1.32-.925-2.69-1.742-4.21-2.636l-1.66-.982c-2.01-1.181-4.14-2.444-6.18-3.753-1.07-.694-2.15-1.379-3.22-2.065l-.63-.399-4.24-2.713a162.55 162.55 0 00-3.86-2.444c-1.28-.773-2.56-1.539-3.87-2.286-.36-.208-.72-.421-1.08-.635l-.54-.322c-.72-.427-1.43-.854-2.17-1.256-.28-.168-.58-.328-.88-.488l-.15-.081-.78-.421c-.51-.287-1.02-.58-1.54-.874l-.41-.23a22.1 22.1 0 00-1.47-.753l-.25-.123c-.65-.32-1.32-.652-1.94-1.05l-.75-.496c-.75-.51-1.68-1.143-2.65-1.572a5.693 5.693 0 00-.9-.352 2.139 2.139 0 00-.6-.087z" fill="#F1F1F1"/><path d="M1601.35 251.035c-.73.115-1.32.556-1.59 1.205-.21.506-.3.978-.27 1.493.02.294.08.583.12.862l.04.255c.1.607.13 1.226.17 1.839l.03.358c.02.409.08.818.13 1.226.05.383.1.761.13 1.141.07.854.05 1.712.01 2.521l-.01.045c-.05.696-.1 1.398-.2 2.094-.06.402-.13.805-.2 1.202a13.67 13.67 0 00-.15 1.691c-.02.332-.02.67-.02 1.001l-.02.799c-.01.146-.01.294-.01.446-.14.076-.28.172-.42.287-.35.287-.69.593-1.02.9l-.22.198.02-.014c-.18.172-.36.344-.53.522l-.34.332c-.43.352-.9.67-1.37.951-.25.148-.51.275-.76.409-.32.159-.63.327-.94.505-.58.358-1.14.83-1.67 1.404-.3.32-.58.62-.88.901l-.26.236c-.27.241-.52.446-.77.65l-.52.441-.35.293c-.35.294-.7.589-1.05.868l-.21.166c-.91.72-1.86 1.463-2.69 2.311-.33.337-.64.702-.96 1.064l-.39.447-.29.344c-.11.141-.22.275-.34.408-.19.211-.4.409-.6.593l-.51.421c-.4.312-.72.563-.95.868-.32.403-.53.803-.69 1.335-.17.555-.04 1.236.36 1.839.49.753 1.31 1.18 2.11 1.538 1.39.613 2.7.983 4.01 1.141.59.077 1.15.225 1.7.37l.47.128c.39.095.78.184 1.17.267l.81.178c.68.166 1.36.301 2.04.435.22.038.45.077.68.107l.28.047c-.2.489-.4 1.007-.6 1.525-.18.445-.32.904-.44 1.355l.09-.25c.21-.563.45-1.105.69-1.647.12-.332.25-.664.37-.996l.02.006.06-.198c.12-.384.23-.773.33-1.161.19-.71.44-1.398.76-2.106.05-.109.1-.211.16-.32.13-.439.25-.886.37-1.333.07-.267.15-.536.24-.803.06-.211.12-.429.19-.64l.13-.497c.08-.294.15-.581.24-.874.29-.913.71-1.876 1.73-2.08.36-.071.73-.097 1.1-.122l.34-.026c.41-.03.83-.065 1.33-.101.45-.032.9-.083 1.36-.134.58-.064 1.16-.129 1.75-.159.62-.033 1.23-.045 1.85-.045 1.9 0 3.97.134 6.48.445l-.2-.056.84.095.52.077-.12-.031c.99.107 1.98.217 2.96.362l1.21.186c.5.077 1 .152 1.51.217.1.006.2.02.3.032l1.73.166c.94.095 1.87.184 2.8.261.34.031.67.045 1.01.065.38.02.76.036 1.15.071.82.077 1.65.158 2.47.293 1.36.225 2.71.409 4.07.595l.65.089c.83.123 1.66.251 2.49.378.72.114 1.44.231 2.17.332 1.63.237 3.26.575 4.65.874l.63.134c.57.121 1.14.242 1.71.408.54.16 1.08.32 1.63.48l.72.21 1.09.32c1.19.352 2.42.71 3.65.983.9.19 1.8.37 2.7.536l.23.014.24.006c.73.025 1.47.071 2.23.158.07.006.15.012.22.033-.32-.108-.64-.217-.96-.352l-.25-.102-.27-.103c-.55-.216-1.09-.427-1.66-.613-.35-.107-.7-.21-1.05-.311-.44-.128-.89-.257-1.33-.409-.8-.275-1.59-.562-2.25-.829-.67-.268-1.35-.549-2.02-.83l-1.22-.516-.2-.065-.25-.127-.2-.089.05.032.11.061-.06-.02.05.032-.32-.133-.16-.065-.77-.294c-.4-.151-.81-.311-1.21-.471l-.26-.095-.44-.174c-.6-.235-1.21-.471-1.82-.69-.86-.301-1.59-.581-2.25-.874-.15-.061-.29-.123-.44-.184l.03.026.08.045-.04-.016.03.03-.55-.225c-.33-.133-.66-.275-.92-.382l-.28-.109-.58-.235c-.87-.344-1.72-.702-2.58-1.066l-.75-.32-.32-.127-.63-.249-.19-.077-.89-.37-1.17-.492c-.5-.184-1.01-.356-1.52-.53l-.22-.077-.66-.222c-.46-.154-.94-.302-1.55-.486-.37-.109-.75-.224-1.13-.352a97.516 97.516 0 00-5.36-1.584l-1.5-.403c-1-.275-2-.548-3-.803-.34-.083-.68-.16-1.02-.23l-.27-.065-.85-.19-.75-.172-.75-.174-.75-.166c-.69-.154-1.38-.308-2.06-.48l-1.2-.319-1.06-.288c-.72-.19-1.43-.368-2.15-.516-.18-.038-.35-.076-.52-.115l-.35-.077c-.43-.097-.86-.19-1.31-.267-.13-.006-.26-.006-.4-.006-.18 0-.35.006-.58.026-.37 0-.72-.319-.78-.702-.39-.352-.51-.888-.58-1.41-.05-.435-.06-.87-.06-1.303l-.01-.236c-.01-.569-.02-1.141.02-1.712l.09-1.167.04-.607.07-1.091.07-1.09.03-.229c.04-.574.07-1.141.06-1.718v-.871c0-.338 0-.676.02-1.034.02-.48.03-.945 0-1.423-.02-.453-.04-.906-.09-1.353-.04-.37-.08-.741-.09-1.111v-.516c.02-.216.03-.461.08-.613.1-.352.21-.562.47-.874.29-.344.75-.544 1.31-.544.19 0 .39.032.61.083.3.083.6.216.89.352.97.429 1.9 1.06 2.65 1.57l.74.498c.62.402 1.3.726 1.95 1.052l.26.123c.49.235.99.472 1.46.751l.41.23c.51.294 1.03.587 1.54.874l.78.421.15.083c.3.154.6.312.88.486.74.402 1.45.827 2.17 1.256l.54.32c.36.216.72.427 1.08.637 1.31.747 2.59 1.513 3.86 2.286 1.31.791 2.59 1.615 3.87 2.444l4.24 2.713.63.395c1.07.684 2.15 1.371 3.22 2.067 2.04 1.307 4.17 2.572 6.18 3.753l1.66.982c1.52.894 2.9 1.709 4.21 2.636 1.3.906 2.59 1.827 3.87 2.782.48.364.95.728 1.45 1.06.34.224.55.459.67.74l.16.083c.18.083.33.166.49.261.5.267.96.599 1.41.931l.54.384c.47.326.95.637 1.43.951l.48.32.25.166c.56.362 1.12.708 1.69 1.052-.36-.377-.78-.721-1.19-1.04-.69-.53-1.42-1.014-2.16-1.505-.39-.257-.78-.518-1.16-.785-.44-.306-.89-.607-1.33-.913-.83-.56-1.66-1.129-2.47-1.728-.26-.198-.53-.396-.79-.599-.37-.281-.74-.562-1.12-.835l-.43-.302c-.49-.343-.98-.693-1.47-1.046a20.4 20.4 0 00-1.59-1.084l-.76-.461-.76-.466c-.51-.345-1.02-.693-1.52-1.046-.59-.414-1.19-.829-1.79-1.232-.61-.396-1.19-.779-1.79-1.161l-.41-.275-.41-.281-.22-.154c-.73-.516-1.49-1.046-2.28-1.513-.71-.413-1.4-.836-2.09-1.283l.2.148-.22-.134.01-.006c-1.32-.894-2.57-1.712-3.84-2.521l.15.134a46.537 46.537 0 00-3.9-2.412c-.35-.198-.71-.39-1.06-.581l-.95-.509-.62-.344c-.47-.267-.95-.53-1.42-.785a97.435 97.435 0 01-3.92-2.272c-.39-.231-.78-.447-1.17-.67l-.64-.364c-.33-.19-.66-.389-.99-.593-.28-.166-.56-.334-.84-.498l-.52-.301c-1.11-.643-2.23-1.283-3.32-1.952-1.34-.81-2.56-1.457-3.73-1.973l-.19-.083c-.37-.154-.74-.311-1.1-.492l-.33-.171c-.28-.14-.55-.288-.83-.409-.45-.198-.82-.364-1.26-.472a2.36 2.36 0 00-.61-.097c-.07-.002-.15.004-.22.017z" fill="#D7D7D7"/><path d="M1664.32 290.249c-5.3.785-10.63 1.411-15.95 2.05-5.3.633-10.57 1.283-15.84 2.08-9.09 1.371-18.22 2.618-27.11 5.011-4.53 1.212-8.97 2.764-13.18 4.825-.18.089-.32.32-.36.51a.798.798 0 00.11.619c.11.18.3.314.51.358.23.051.41-.006.62-.107.25-.125.51-.249.77-.37l-.02.006c7.41-3.439 15.42-5.333 23.41-6.798 3.52-.633 7.05-1.183 10.59-1.709 3.77-.569 7.53-1.142 11.31-1.647 8.4-1.111 16.84-1.953 25.22-3.197.22-.03.41-.089.56-.255.15-.16.23-.384.22-.599a.793.793 0 00-.26-.556.806.806 0 00-.52-.223c-.03-.002-.05 0-.08.002z" fill="#2F545F"/><path d="M1600.08 250.762c-.15.408.07.906.49 1.041 2.39.747 4.68 1.748 6.91 2.877l-.19-.095c4.33 2.22 8.42 4.882 12.65 7.29 2.25 1.276 4.49 2.551 6.71 3.874 2.22 1.321 4.44 2.681 6.63 4.073 4.41 2.79 8.69 5.762 12.95 8.776 4.27 3.033 8.5 6.12 12.69 9.268 1.59 1.2 3.18 2.408 4.76 3.62.35.275.9.141 1.14-.211.26-.382.14-.862-.22-1.135-4.15-3.19-8.35-6.324-12.6-9.401-4.24-3.078-8.5-6.114-12.84-9.038-4.31-2.891-8.72-5.624-13.2-8.246-2.18-1.285-4.4-2.503-6.57-3.779-2.11-1.226-4.18-2.495-6.28-3.727-3.81-2.24-7.76-4.352-11.99-5.681a.903.903 0 00-.27-.041.796.796 0 00-.77.535z" fill="#2F545F"/><path d="M1598.22 281.038c-.21.014-.42.18-.53.344a.845.845 0 00-.14.599c.04.216.17.408.35.536.19.129.37.139.6.129.62-.038 1.23-.071 1.85-.103-.07.006-.14.006-.21.014 14.73-.641 29.42 1.653 43.78 4.722-.01-.002-.02-.004-.03-.004 1.61.344 3.2.702 4.8 1.04 1.65.352 3.31.696 4.96 1.048-.06-.014-.13-.026-.2-.038 3 .639 5.99 1.321 8.95 2.144.43.122.89-.056 1.04-.497.14-.397-.07-.925-.49-1.04-4.91-1.364-9.9-2.339-14.88-3.401l.02.004c-4.01-.868-8.03-1.742-12.07-2.495-4.21-.791-8.45-1.467-12.69-2.009-5.99-.758-12.01-1.204-18.03-1.204-2.36-.004-4.72.065-7.08.211zm45.88 6.282l-.18-.039.18.039zm3.98-.791a2.135 2.135 0 00-.19-.039c.06.012.13.025.19.039z" fill="#2F545F"/><path d="M1599.36 270.776c-.04.456.3.824.75.883a107.12 107.12 0 018.3 1.422l.19.04c0 .002.01.002.01.004v-.002c9.28 2.017 18.28 5.093 27.17 8.396 2.23.824 4.44 1.665 6.66 2.509 2.14.817 4.27 1.635 6.44 2.367 4.35 1.475 8.76 2.794 12.88 4.856l.36.192c.2.101.38.166.61.127a.807.807 0 00.53-.343.844.844 0 00.14-.599c-.04-.191-.16-.441-.35-.536-2.14-1.117-4.36-2.042-6.63-2.865-2.31-.844-4.66-1.584-6.99-2.367-2.37-.799-4.69-1.698-7.02-2.586-2.41-.92-4.82-1.831-7.25-2.725-9.69-3.581-19.55-6.836-29.74-8.712a101.27 101.27 0 00-5.18-.805.68.68 0 00-.09-.006c-.4-.002-.76.348-.79.75zm62.25 20.4c.05.024.1.046.14.071-.05-.025-.09-.047-.14-.071zm-53-18.053c-.01 0-.01-.002-.01-.002-.05-.012-.1-.02-.15-.032.05.016.11.026.16.034z" fill="#2F545F"/><path d="M1599.9 250.685c-.16.165-.22.364-.24.586-.56 6.505-.61 13.048-.34 19.562.01.447.36.818.82.818.43-.007.84-.383.82-.824-.28-6.516-.22-13.065.33-19.562.04-.445-.4-.817-.82-.817a.853.853 0 00-.57.237zm-2.29 30.933c-.97 1.641-1.78 3.371-2.51 5.133-.81 1.973-1.47 4.002-2.03 6.057-.56 2.036-.97 4.11-1.25 6.203a35.165 35.165 0 00-.25 3.082c-.03.926-.01 1.865.1 2.79.06.439.58.71.98.619a.85.85 0 00.51-.362c.12-.201.13-.391.11-.613-.02-.077-.02-.154-.03-.231-.13-2.187.06-4.378.41-6.537 0 .012-.01.026-.01.039a50.526 50.526 0 013.73-12.196c0 .016-.01.032-.02.051.5-1.079 1.04-2.139 1.64-3.161.23-.382.14-.886-.25-1.128a.808.808 0 00-.44-.124c-.27 0-.54.132-.69.378z" fill="#2F545F"/><path d="M1599.12 268.241c-3.05 2.363-6.05 4.781-8.97 7.302-1.46 1.268-2.9 2.565-4.3 3.886-.66.626-1.32 1.263-1.96 1.908-.72.71-1.42 1.443-2.14 2.157-.49.492-1.01.957-1.47 1.487-.37.435-.62.989-.59 1.57.02.581.32 1.078.65 1.54.39.53.89.981 1.45 1.319 1.11.669 2.39 1.048 3.63 1.392 1.12.313 2.25.564 3.39.843l-.02-.002c.01 0 .02.004.03.004a.693.693 0 00.05.014c.57.146 1.14.274 1.72.385.65.127 1.3.243 1.95.392.35.095.69.201 1.03.322.42.148.89-.03 1.06-.459.16-.403-.03-.913-.45-1.06-1.53-.541-3.14-.717-4.7-1.095.02.004.04.01.05.016-.95-.251-1.92-.469-2.88-.71.01.002.01.002.01.004-1.32-.346-2.66-.716-3.87-1.351-.24-.138-.46-.29-.67-.47a7.46 7.46 0 01-.69-.835 2.717 2.717 0 01-.11-.275c-.01-.021-.01-.043-.01-.063 0-.022 0-.047.01-.067.01-.038.02-.079.04-.115.13-.211.29-.395.46-.577.59-.607 1.21-1.193 1.8-1.8.71-.727 1.43-1.437 2.16-2.145 1.52-1.487 3.1-2.923 4.7-4.336 3.13-2.749 6.38-5.361 9.66-7.906.36-.275.4-.805.13-1.151a.812.812 0 00-.63-.302.885.885 0 00-.52.178zm-17.71 17.95l-.03.046.03-.046zm-.07.071c0 .024-.01.046-.01.072 0 .002-.01.005-.01.005.01-.029.02-.053.02-.077zm-.04.068zm.02.011zm-.02.084v.005-.005zm11.12 5.987c.02.004.04.012.06.016a.665.665 0 01-.06-.016zm-3.56-.747c-.01-.006-.03-.01-.04-.014l-.02-.004c.02.008.04.012.06.018zm.61-1.515a.845.845 0 00-.14-.034c.05.01.09.022.14.034z" fill="#2F545F"/><path d="M1596.86 282.385c-5.18 1.212-10.29 2.675-15.49 3.824-.21.051-.4.134-.54.326a.75.75 0 00-.15.593c.05.414.48.799.92.702 5.19-1.15 10.3-2.612 15.49-3.824.21-.051.4-.134.54-.326a.797.797 0 00.15-.593c-.05-.37-.39-.718-.78-.718a.519.519 0 00-.14.016z" fill="#2F545F"/><path d="M1563.69 271.126c-.38.216-.65.58-.76.995-.21.811.28 1.839 1.16 1.999l.17.028.01.004c.32.057.63.116.94.178.23.043.46.089.69.138l.24.055a.7.7 0 00.09.014c.92.2 1.82.417 2.73.653l.09.029c.4.107.81.224 1.22.337.86.249 1.77-.319 1.99-1.167.23-.874-.31-1.742-1.17-1.991-.28-.087-.57-.166-.87-.249-.02-.006-.04-.012-.06-.02-.1-.024-.19-.05-.29-.077a.537.537 0 00-.08-.018 60.41 60.41 0 00-2.75-.661l-.07-.015-.11-.024-.51-.105c-.1-.022-.2-.041-.31-.065a1.99 1.99 0 01-.15-.03c-.14-.022-.27-.049-.4-.073l-.08-.016c-.1-.02-.21-.039-.32-.059-.01-.004-.03-.006-.05-.01l-.12-.02a2.498 2.498 0 00-.43-.041c-.27-.002-.54.057-.8.211zm-13-1.291c-.03 0-.06.002-.09.004l-.52.01h-.05c-.12 0-.24.004-.36.008-1.16.029-2.33.081-3.48.15-.04.004-.08.008-.12.014h-.01c-.89.057-1.63.728-1.62 1.653.02.854.77 1.671 1.66 1.614.07-.006.13-.014.2-.014.03-.002.06-.004.09-.008 1.05-.063 2.1-.109 3.15-.137h.06c.51-.013 1.02-.027 1.53-.027h.04c.34-.004.68-.006 1.02-.006.89.006 1.62-.773 1.61-1.653-.01-.898-.76-1.608-1.66-1.614-.48 0-.96 0-1.45.006zm-17.15 1.796c-1.52.286-3.03.607-4.53.959-.03.004-.06.013-.09.019-.01 0-.03.006-.04.012-.73.168-1.2.894-1.19 1.614 0 .134.02.267.05.397.25.886 1.15 1.339 2.02 1.135 1.55-.362 3.1-.69 4.66-.99.88-.165 1.36-1.211 1.13-2.017a1.65 1.65 0 00-.75-.969 1.524 1.524 0 00-.79-.208c-.15.002-.31.018-.47.048zm-16.34 4.368c-.17.063-.35.124-.53.187a.274.274 0 01-.05.018c-.07.026-.15.052-.22.079-.06.022-.13.046-.2.068a.202.202 0 01-.05.021c-.03.012-.06.02-.09.032l-.04.012a26.1 26.1 0 01-.36.132c-.05.016-.09.032-.14.048l-.08.031c-.17.064-.34.121-.51.184-.02.01-.05.02-.07.03-.8.295-1.59.595-2.39.902-.41.16-.74.359-.97.753-.22.378-.28.838-.16 1.258.11.409.39.767.75.978.35.198.88.311 1.27.157a148.831 148.831 0 013.47-1.298l.35-.124c.05-.02.1-.038.16-.056.25-.087.5-.174.74-.261.85-.288 1.39-1.117 1.14-2.012-.19-.677-.86-1.211-1.57-1.211-.15-.002-.3.022-.45.072zm-14.22 5.868l-.86.42c-.03.015-.07.031-.1.047l-.51.253a1.77 1.77 0 00-.09.04 118.798 118.798 0 01-1.18.593l-.24.123c-.11.059-.23.12-.35.178-.01.007-.03.015-.04.023-.3.156-.6.309-.9.467-.79.415-1.02 1.495-.58 2.236.46.797 1.44 1.001 2.23.586.4-.212.81-.418 1.21-.627.11-.054.22-.109.32-.164l.02-.008c.23-.115.45-.23.68-.346.01-.004.03-.01.04-.016.17-.089.35-.174.52-.263.03-.01.05-.02.07-.03.47-.235.94-.46 1.4-.688.81-.385 1.01-1.513.59-2.236a1.664 1.664 0 00-.99-.752 1.54 1.54 0 00-.4-.053c-.29-.002-.56.083-.84.217zm-13 7.162c-.7.437-1.39.886-2.08 1.337-.03.016-.06.03-.08.049-.11.066-.21.133-.31.204-.05.036-.11.071-.16.107-.02.012-.05.024-.06.039-.11.068-.21.139-.32.21-.04.028-.09.057-.13.083 0 .004-.01.01-.02.014 0 .002 0 .004-.01.006l-.06.039c-.09.062-.18.125-.28.19-.06.038-.12.081-.18.123-.74.496-1.05 1.431-.58 2.234.42.734 1.5 1.084 2.23.586.15-.101.31-.21.47-.311v-.004c.01-.004.02-.012.03-.018l.06-.035c.11-.077.22-.151.33-.224.04-.025.07-.047.1-.069.02-.01.03-.02.05-.03a.159.159 0 00.04-.029c.02-.012.04-.022.06-.038.85-.555 1.69-1.103 2.55-1.639.75-.473 1.05-1.449.59-2.236-.3-.503-.87-.811-1.45-.811-.27 0-.55.069-.79.223zm-11.93 8.897c-.46.006-.79.199-1.13.48-1.52 1.238-3 2.5-4.45 3.817-.65.593-.6 1.704 0 2.311.66.649 1.66.593 2.31 0a105.57 105.57 0 014.45-3.818c.32-.267.48-.779.48-1.181a1.657 1.657 0 00-.48-1.129c-.31-.308-.73-.48-1.16-.48h-.02z" fill="#24CFFB"/><mask id="a" maskUnits="userSpaceOnUse" x="0" y="0" width="1920" height="384"><path fill="#43B97F" d="M0 0h1920v384H0z"/></mask><g mask="url(#a)"><path d="M1276.39 69.094l-.54 42.363s26.17 27.514 66.65 24.672c40.49-2.842 54.09-22.143 54.09-22.143l.08-38.627 11.1.094 31.89-35.651s2.22-4.767-.85-9.669c-3.3-1.562-159.87-9.646-159.87-9.646l-33.51 37.723s-2.54 4.169-.15 9.437c5.96.286 31.11 1.447 31.11 1.447z" fill="#fff"/><path d="M1390.89 80.068l5.77.049.01-4.757 9.54.081 27.67-30.931s2.22-4.767-.84-9.669c-3.12-1.472-142.28-8.734-158.35-9.567l-29.26 32.938s-2.53 4.167-.15 9.436c5.96.282 31.11 1.445 31.11 1.445l-.54 42.363s26.17 27.514 66.65 24.673c22.95-1.612 37.25-8.508 45.35-14.182 2.04-1.96 2.96-3.253 2.96-3.253l.08-38.626z" fill="#2F545F"/><path d="M1342.26 56.22c-2.07-.142-4.13-.416-6.2-.673-1.1-.128-2.19-.184-3.29-.258-1.12-.068-2.25-.157-3.37-.245-1.2-.1-2.4-.121-3.6-.188-1.1-.068-2.2-.198-3.3-.31-2.31-.23-4.61-.455-6.92-.647-2.22-.178-4.42-.398-6.63-.604-2.07-.204-4.14-.441-6.22-.587-1.95-.138-3.89-.315-5.85-.426-2.1-.13-4.2-.232-6.31-.282-1.92-.035-3.84-.133-5.77-.224-1.9-.089-3.81-.145-5.72-.213-1.86-.06-3.71-.204-5.57-.303-.94-.056-1.89-.091-2.83-.14-.92-.046-1.87-.155-2.8-.106-.62.03-1.18.21-1.64.646a2.395 2.395 0 00-.73 1.672c-.01 1.254 1.05 2.384 2.32 2.367 1.08-.013 2.16.085 3.22.14 1.1.054 2.19.095 3.3.165 1.13.065 2.27.171 3.42.2 1.07.027 2.15.06 3.23.111 1.1.052 2.21.073 3.33.114 1.13.041 2.25.103 3.38.145 2.29.074 4.59.106 6.89.192 1.94.066 3.88.177 5.82.32 1.96.133 3.93.22 5.9.36 1.06.076 2.12.172 3.18.247 1.15.078 2.29.138 3.44.198 2.25.117 4.51.165 6.76.256 1.88.085 3.76.127 5.65.09 2.02-.045 4-.256 6.02-.412 1.8-.144 3.62-.25 5.43-.287.88-.018 1.76-.047 2.64-.032.94.011 1.88.06 2.81.12.39.027.71-.332.72-.7a.691.691 0 00-.32-.589.862.862 0 00-.39-.118zm-53.83-10.235c-1.77-.176-3.54-.319-5.31-.465-.9-.08-1.8-.15-2.69-.226-.94-.074-1.9-.115-2.84-.202-1.73-.157-3.44-.395-5.15-.603-.81-.108-1.61-.16-2.42-.258-.8-.09-1.59-.204-2.38-.315-.6-.099-1.18-.196-1.78-.189-.91.01-1.69.73-1.7 1.659 0 .432.17.859.47 1.166.33.353.73.476 1.19.519 1.77.157 3.56.138 5.34.094 1.82-.034 3.64-.053 5.46-.087.97-.015 1.93-.044 2.9-.049 1.03-.016 2.04.012 3.07.028 1.94.025 3.89.13 5.82.324.38.034.71-.337.71-.691a.674.674 0 00-.32-.58.781.781 0 00-.37-.125zm-20.39-2.005c-.08-.01-.16-.024-.23-.036.08.009.15.02.23.036zm8.77 51.696v-.142.142zm15.29 17.785c.08-.376.15-.737.16-1.121l.03-.871c.03-.672.05-1.342.09-2.016.05-1.152.12-2.299.14-3.448l-.01.221.03-1.004v.006c0-.252.01-.503.02-.756v.003c.02-.79.05-1.583.07-2.384.03-1.069.07-2.145.14-3.22.07-1.043.11-2.089.14-3.134.04-1.041.06-2.085.08-3.128.01.078 0 .154 0 .24.02-.87.06-1.746.1-2.606.04-.935.07-1.875.12-2.81.09-1.74.13-3.48.22-5.225.05-.917.13-1.834.21-2.756.07-.969.16-1.923.23-2.888.06-.873.14-1.75.2-2.628.06-.825.09-1.654.19-2.473a.624.624 0 00-.28-.594.59.59 0 00-.89.41c-.08.783-.12 1.573-.17 2.36-.26.014-.48.169-.54.418.04-.76.1-1.52.1-2.281 0-.188-.12-.349-.28-.45v-.067a.635.635 0 00-.28-.617.567.567 0 00-.23-.089c-.12-.018-.23.034-.35.086-.02-.008-.04-.024-.08-.03-.44-.075-.96.25-.98.72-.03.273-.04.543-.06.816-.01-.431-.05-.864-.06-1.295-.01-.347-.22-.635-.5-.814-.23-.142-.5-.213-.75-.184a1.04 1.04 0 00-.69.355c-.1-.04-.19-.078-.29-.106-.23-.323-.55-.586-.88-.703a4.897 4.897 0 00-1.03-.236l-.73-.074a16.09 16.09 0 00-2.31-.06c-.56.026-1.1.06-1.66.098-.24.023-.49.037-.73.08-.84.133-1.53.467-2.1 1.094-.46.494-.59 1.144-.65 1.79-.02.29-.08.584-.1.882-.11 1.137-.09 2.285-.1 3.426-.01.414-.01.829-.02 1.242-.06 2.347-.25 4.681-.43 7.02-.19 2.486-.22 4.973-.26 7.468-.06 1.174-.1 2.345-.12 3.52-.01.167-.01.335-.01.502v-.167c-.03 1.76-.02 3.518.06 5.278.03.918.13 1.804.39 2.697.21.746.82 1.348 1.46 1.766.33.223.67.44.99.677.39.291.76.602 1.17.864 1.01.617 2.11 1.075 3.13 1.682.24.146.47.292.71.437-.15-.086-.29-.176-.44-.269.53.35 1.02.737 1.47 1.176.46.513.88 1.057 1.32 1.578.53.597 1.15 1.071 1.98 1.037.02.016.03.041.05.058.26.22.61.321.94.28.36-.04.62-.248.82-.509.01.068.01.134.01.202l-.03.323c-.03.349.18.689.53.743.37.053.67-.199.74-.542zm6.88-38.433c-.3-.042-.64.174-.67.496-.1 1.038-.22 2.072-.28 3.117-.08 1.096-.18 2.198-.26 3.3-.07 1.042-.17 2.08-.27 3.126-.1 1.08-.17 2.16-.27 3.242-.09 1.017-.13 2.046-.23 3.061-.09 1.038-.2 2.075-.29 3.109-.09 1.051-.21 2.095-.29 3.147-.07 1.096-.15 2.19-.23 3.28-.1 1.283-.22 2.56-.3 3.838-.04.593-.07 1.195-.11 1.794-.02.572-.03 1.112.09 1.657.04.226.11.428.24.62.2.268.51.454.84.511.34.049.69-.034.97-.236.24-.182.5-.518.51-.84.01-.296.06-.592.09-.891.03-.394.06-.787.08-1.178.05-.938.11-1.877.17-2.814.03-.9.09-1.8.12-2.698.03-1.023.04-2.043.05-3.066 0-.26.01-.524.01-.782.01-.454.02-.905.04-1.353.01-.523.03-1.047.04-1.57v.022c.01-.84.02-1.676.04-2.516v-.149c.01-.086.01-.167.01-.253.01-.741-.01-1.48-.03-2.22-.02-.894 0-1.785.01-2.674 0-.77-.03-1.537-.03-2.298 0-.887 0-1.773.02-2.658.02-.91.1-1.815.17-2.723.06-.906.17-1.817.25-2.726a.638.638 0 00-.27-.596.579.579 0 00-.22-.08zm.09 16.147zm0 .106v-.019.019zm4.59-3.878a.61.61 0 00-.68.489c-.07.517-.14 1.03-.22 1.55-.08.554-.11 1.122-.16 1.678-.09 1.012-.12 2.034-.22 3.04-.09 1.03-.24 2.05-.34 3.079-.11 1.01-.23 2.023-.33 3.026-.1.959-.22 1.911-.32 2.859-.1.98-.22 1.948-.32 2.916-.06.457-.11.923-.16 1.386-.04.494-.07.988-.11 1.475-.03.468-.08.939-.12 1.404-.02.486-.07.991 0 1.468.07.491.43.885.92.968.57.087 1.21-.322 1.26-.923.14-1.522.13-3.052.22-4.576.05-.784.11-1.564.12-2.346.03-.841.05-1.691.07-2.526.04-1.113.1-2.227.12-3.343.03-1.245.06-2.497.13-3.744.04-1.154.11-2.308.2-3.461.04-.58.09-1.171.16-1.752.08-.67.17-1.338.27-1.992a.61.61 0 00-.27-.59.626.626 0 00-.22-.085zm-.39 15.078zm-1.82 12.518c-.16.02-.3.094-.4.206a.592.592 0 00-.13.443c.02.141.09.318.21.392.14.088.28.152.44.128.16-.02.3-.094.39-.207a.59.59 0 00.13-.441c-.02-.143-.09-.321-.21-.394-.13-.089-.27-.151-.43-.127z" fill="#366270"/><path d="M1244.81 59.31s-1.55 4.15.4 8.567c8.98.32 162.56 7.579 162.56 7.579s1.88-4.142-1.14-8.275c-7.08-.267-161.82-7.87-161.82-7.87z" fill="#fff"/><path d="M1402.6 69.902c-6.45-.244-135.41-6.574-158.33-7.7-.11 1.56.01 3.58.94 5.675 8.18.29 136.29 6.338 159.08 7.415.05-1.517-.27-3.447-1.69-5.39z" fill="#3D6A77"/><path d="M1229.61 65.584c4.06 1.773 8.06 5.316 7.15 7.153-.92 1.837-5.64 1.507-8.76-.017-3.11-1.523-7.88-4.401-6.83-7.008 1.05-2.605 8.44-.128 8.44-.128z" fill="#fff"/><path d="M1223.39 69.694s-15.51 12.376-3.95 19.242c11.55 6.867 12.01-15.539 12.01-15.539s-4.52-.181-8.06-3.704zm215.27-38.988l-31.14 36.032.46 9.064 31.68-35.997s2.06-4.733-1-9.099z" fill="#fff"/><path d="M1407.79 72.027l28.01-31.824s1.27-3.026.24-6.466l-28.52 33 .27 5.29z" fill="#1E4855"/><path d="M1397.6 114.53c.25-12.535.48-25.062.72-37.582 2.64.138 5.27.282 7.9.419.42.025.76.009 1.12-.233v-.008c.58.304 1.34.254 1.78-.258.04-.034.06-.065.08-.086l.09-.1c10.21-11.776 20.42-23.555 30.63-35.325.05-.065.08-.146.13-.217.2-.169.38-.372.47-.64.49-1.48.72-2.993.7-4.551-.03-1.707-.36-3.4-.76-5.06-.02-.059-.03-.11-.05-.164-.09-.162-.18-.323-.28-.484 0-.007.01-.013.01-.02-.17-.297-.33-.599-.52-.896 0-.005-.01-.013-.01-.019-.04-.044-.07-.09-.11-.134a24.61 24.61 0 00-.65-.722 7.925 7.925 0 00-1.52-.675c-.43-.15-.9-.188-1.35-.265-.49-.076-.99-.091-1.49-.106-.09-.004-.18.028-.26.04l-88.09-4.67c-22.53-1.206-45.06-2.402-67.58-3.593-.42-.015-.75-.009-1.12.244-.15.105-.28.24-.38.39-.15.075-.28.174-.4.305a113027.92 113027.92 0 01-32.37 37.35c-.15.17-.25.363-.32.567-.03.018-.07.022-.1.043-.36.238-.5.561-.62.957-.41 1.353-.52 2.726-.44 4.13.08 1.383.45 2.772.86 4.09 0 .006.01.01.01.016-.02.326.05.65.23.916.2.292.59.605.96.623 10.06.533 20.12 1.068 30.18 1.6-.26 13.83-.53 27.655-.8 41.484 0 .204.04.397.12.573.03.311.11.638.32.834.33.316.66.623.98.941.05.04.09.08.14.118 0 .007.01.012.02.018.01.016.03.031.04.046.03.031.07.063.11.099l.12.113c.01.008.02.011.02.018a86.782 86.782 0 004.14 3.59c.04.033.08.061.12.084.07.064.15.123.23.188.03.028.06.057.1.084 1.15.907 2.31 1.78 3.5 2.617.03.018.05.034.07.049l.09.066c.05.031.09.064.14.095.01.01.03.02.04.029.39.267.78.538 1.16.795.07.054.15.103.23.152.03.022.07.045.11.068a89.795 89.795 0 0019.06 9.538c.02.011.05.019.07.028l.09.036c.01.001.02.006.03.007.49.176.98.346 1.48.516.03.016.07.029.1.041 1.83.604 3.68 1.174 5.53 1.672.07.016.14.035.21.048 1.69.448 3.38.848 5.07 1.208.08.021.15.039.23.058 1.77.365 3.57.687 5.36.96.07.019.13.032.2.044.7.095 1.4.197 2.1.284l.17.022c.02.001.05.006.07.006 1.74.218 3.48.39 5.24.523l.05.004c.07.007.14.009.21.015.04.003.07.004.11.009l.04.001c15.66 1.044 31.62-1.548 45.86-8.28a80.903 80.903 0 004.94-2.56l.09-.047c.11-.066.22-.124.33-.19l.03-.021c.04-.018.08-.035.11-.055.21-.13.43-.26.65-.385a4.699 4.699 0 00.36-.214 78.533 78.533 0 003.59-2.27c.02-.015.04-.034.06-.049.32-.207.63-.419.94-.641.02-.013.04-.028.06-.037a67.328 67.328 0 003.19-2.36c.07-.054.14-.112.21-.168.03-.019.06-.037.08-.06.04-.024.08-.054.12-.082.14-.118.29-.246.44-.369l.27-.214c.04-.027.07-.052.11-.081.09-.079.18-.157.27-.232.05-.036.09-.071.13-.105l.09-.075c.77-.653 1.53-1.309 2.27-1.991.02-.016.04-.034.07-.055l.01-.017a.21.21 0 01.03-.024c.01-.013.03-.028.04-.041.01-.003.01-.009.02-.012 0-.005 0-.009.01-.013v-.005c.02-.021.05-.041.06-.065.02-.009.03-.022.04-.032l.02-.014c.01-.004.01-.007.01-.008v-.005c.01-.009.02-.018.03-.025a3.063 3.063 0 00.26-.241c.02-.013.03-.02.04-.032l.01-.018c.02-.019.05-.04.07-.059v-.003l.12-.117c.08-.072.15-.143.23-.211l.09-.099c.04-.038.06-.087.09-.128.41-.279.67-.728.68-1.253zm40.63-78.981c.03.931-.02 1.838-.18 2.761-.07.33-.18.654-.29.982v.003c-9.54 11.002-19.09 22-28.62 33 .02-.414.08-.82.06-1.241-.02-.708-.18-1.389-.34-2.081a5.782 5.782 0 00-.44-1.278c.14-.073.28-.155.39-.28 9.7-11.208 19.41-22.394 29.12-33.584.1.572.25 1.142.3 1.718zM1278.82 22.18c.01-.006.01-.015.01-.023 34.66 1.843 69.31 3.682 103.98 5.516 17.19.917 34.39 1.836 51.59 2.743.07.003.13-.008.2-.008.49.03.98.058 1.47.132.21.047.4.127.59.192-10 11.545-20.01 23.076-30.01 34.616-.16.175-.25.38-.32.59-19.29-1.02-38.6-2.043-57.89-3.07-31.32-1.667-62.63-3.32-93.94-4.977-2.11-.118-4.22-.23-6.33-.342 10.22-11.797 20.44-23.584 30.65-35.37zm-32.8 38.222c30.53 1.61 61.07 3.236 91.61 4.853 22.46 1.196 44.92 2.382 67.38 3.576l.64.033c.17.445.34.886.46 1.351.09.625.13 1.247.13 1.879a13.5 13.5 0 01-.4 2.289c-27.54-1.447-55.08-2.926-82.62-4.388-25.6-1.347-51.21-2.713-76.82-4.067-.14-.47-.28-.94-.38-1.415-.18-.928-.27-1.853-.25-2.81.04-.443.16-.871.25-1.301zm148.37 53.723c-.08.077-.16.15-.24.224l-.05.046c-.02.015-.03.027-.05.043-.01.012-.03.025-.04.041-.01.006-.01.012-.02.019 0 .003-.01.006-.01.009a.297.297 0 00-.03.031.365.365 0 00-.03.027v.006l-.03.018c0 .007-.01.008-.01.013-.01.009-.02.018-.03.025l-.03.032a.7.7 0 00-.1.095c-.89.808-1.81 1.604-2.73 2.363-.03.019-.05.041-.08.062-.01.018-.03.032-.05.047l-.03.018c-.23.187-.45.36-.67.537-.01.012-.03.021-.04.033l-.02.015c-1.16.915-2.35 1.8-3.57 2.653l-.01.014a.354.354 0 00-.08.056c-.35.238-.7.468-1.04.71-.01.005-.02.013-.03.016-.29.195-.59.386-.87.572.1-.072.21-.14.31-.204-.91.583-1.84 1.152-2.79 1.71l-.08.052-.03.018c-.18.104-.36.206-.53.305-.09.052-.19.105-.28.161-1.6.9-3.21 1.744-4.86 2.532-.03.013-.06.031-.09.047-.03.013-.07.029-.09.05a86.291 86.291 0 01-9.77 3.875c-7.48 2.394-15.21 3.779-23.05 4.228l.02.002-.08.003-.32.019c.03-.003.06-.009.09-.009-3.8.167-7.61.123-11.41-.14a104.05 104.05 0 01-5.79-.573c-.04-.006-.09-.014-.13-.015l-.02-.003c-.58-.077-1.17-.157-1.75-.244-.04-.007-.08-.01-.12-.016-.03-.004-.05-.007-.08-.007-1.69-.26-3.36-.566-5.05-.909-.04-.01-.08-.022-.13-.032-.5-.098-1.01-.214-1.51-.326.02.008.06.017.09.026-1.3-.303-2.59-.626-3.87-.97a88.45 88.45 0 01-5.26-1.602 1.463 1.463 0 00-.14-.039c-.47-.161-.94-.328-1.42-.495v-.004a90.794 90.794 0 01-11.39-4.971c.09.044.17.09.25.142a90.032 90.032 0 01-7.48-4.442c-.03-.021-.06-.042-.09-.059-.46-.311-.92-.622-1.38-.946-.01-.01-.03-.019-.04-.032-1.24-.86-2.45-1.76-3.63-2.691-.06-.043-.11-.087-.16-.13-.02-.016-.05-.031-.07-.05-.14-.109-.27-.216-.41-.325-.11-.09-.22-.181-.33-.267a91.691 91.691 0 01-3.23-2.791c-.06-.049-.1-.098-.16-.146l-.48-.455a2.523 2.523 0 01-.11-.096c-.14-.133-.28-.266-.41-.398.27-13.683.53-27.375.79-41.063 22.45 1.192 44.91 2.382 67.38 3.574 16.64.881 33.29 1.769 49.93 2.648-.24 12.375-.47 24.748-.72 37.113-.01.015-.03.029-.04.044-.06.056-.13.117-.19.176z" fill="#2F545F"/><path d="M1343.18 134.628c.02 0 .04-.003.06-.004-.09 0-.19.004-.29.014l.23-.01zm64.59-59.172c-.27.053-.54.056-.82.015a6.924 6.924 0 00-.34-.077c-.4-.098-.8.086-.93.493-.11.381.11.84.5.938.21.062.42.1.65.134.3.042.61.042.91-.016.2-.012.37-.052.53-.205.14-.13.23-.32.23-.514a.796.796 0 00-.21-.547.631.631 0 00-.13-.106c-.12-.072-.26-.127-.39-.115z" fill="#2F545F"/><path d="M1407.72 75.735c-.14.024-.28.043-.41.067-.17.002-.34-.008-.51-.036-.12-.035-.23-.06-.36-.093a.74.74 0 00-.92.504c-.12.37.1.83.5.925.13.029.27.074.41.111.2.03.41.052.62.074.32.037.7-.05 1.03-.105.4-.063.63-.539.54-.898a.705.705 0 00-.31-.44.845.845 0 00-.59-.109zm-.22.058c-.04.002-.08.007-.12.008a.54.54 0 01.12-.008z" fill="#2F545F"/><path d="M1407.94 75.753c-.13.028-.27.05-.4.08.06-.005.14-.014.19-.017l-.39.039c-.28.016-.55.01-.82-.024.08.01.14.02.2.032-.13-.011-.26-.042-.4-.061-.22-.04-.38-.052-.58.06a.7.7 0 00-.35.44.784.784 0 00.06.579c.09.15.26.315.45.349.33.05.65.097.99.124.48.037.95-.06 1.41-.156.4-.08.64-.522.54-.903a.73.73 0 00-.32-.44.786.786 0 00-.58-.102z" fill="#2F545F"/><path d="M1408.56 75.892c-.18-.112-.37-.123-.58-.09-.1.013-.2.03-.3.048a3.08 3.08 0 01-.69-.004c-.08-.012-.16-.028-.24-.038-.2-.032-.38-.034-.58.062a.85.85 0 00-.35.438.82.82 0 00.06.58c.09.148.26.328.45.348.13.03.27.05.41.067.19.042.39.058.6.052.33.028.69-.06 1.01-.106.4-.064.64-.533.55-.91a.736.736 0 00-.31-.43c-.01-.006-.02-.014-.03-.017zm-1.4-.018c-.03-.004-.06-.01-.09-.013.03.001.06.006.09.013zm-161.82-18.609a.793.793 0 00-.53.202 3.1 3.1 0 00-.66.603c-.14.16-.26.33-.38.517-.24.332-.1.824.24 1.026.36.226.79.086 1.02-.236.09-.108.16-.22.24-.33.17-.186.36-.353.57-.5.32-.25.28-.771.03-1.043a.893.893 0 00-.15-.128.736.736 0 00-.38-.111zm-.12 1.834c-.01.02-.03.037-.04.05.01-.016.03-.034.04-.05z" fill="#2F545F"/><path d="M1244.66 57.306c-.24.19-.46.41-.65.66-.15.16-.26.346-.36.545a.75.75 0 00.23 1.02.77.77 0 001.04-.23c.08-.133.16-.254.23-.385.16-.2.34-.375.54-.53.31-.263.31-.762.03-1.058a.575.575 0 00-.13-.108.78.78 0 00-.93.086zm.47 1.632a.854.854 0 00-.03.037c.01-.013.02-.027.03-.037z" fill="#2F545F"/><path d="M1244.34 57.566c-.14.123-.27.229-.41.352-.15.178-.3.372-.42.575-.23.34-.09.825.23 1.031.37.22.81.1 1.04-.239.07-.108.14-.214.22-.322.12-.099.24-.204.36-.307.31-.273.3-.774.03-1.054a.737.737 0 00-.14-.12.767.767 0 00-.91.084z" fill="#2F545F"/><path d="M1244.17 57.649l-.29.336a1.5 1.5 0 00-.33.537c-.19.364-.13.806.24 1.026.33.207.84.128 1.02-.236.08-.132.14-.256.22-.384a.163.163 0 01-.04.045c.07-.08.14-.16.2-.234.14-.157.23-.312.24-.525a.783.783 0 00-.2-.53.516.516 0 00-.14-.11c-.28-.18-.69-.184-.92.075zm-.19 7.434c-.42.105-.62.502-.55.91.04.27.1.543.18.803.08.328.24.65.38.947.16.376.67.483 1.01.298.38-.2.47-.645.3-1.012l-.15-.329c-.11-.352-.2-.699-.27-1.074a.65.65 0 00-.3-.437.782.782 0 00-.6-.106zm1.18 1.663l.03.087-.03-.087z" fill="#2F545F"/><path d="M1244.5 65.112a.77.77 0 00-.57-.101.818.818 0 00-.46.332c-.1.193-.11.37-.09.579.04.297.09.579.16.86.07.345.24.689.38 1.01.15.373.68.476 1.01.3a.73.73 0 00.35-.44c.06-.21.02-.386-.06-.577a2.647 2.647 0 00-.1-.232c.01.002.01.003.01.006a8.51 8.51 0 01-.14-.418 4.33 4.33 0 01-.15-.87c-.02-.165-.16-.335-.3-.425a.095.095 0 00-.04-.023z" fill="#2F545F"/><path d="M1244.15 65.147c-.39-.01-.78.317-.77.73.02.339.05.637.1.97.05.312.22.637.34.924.16.378.68.47 1.01.297.18-.1.3-.253.35-.443.07-.203.03-.384-.05-.57-.05-.098-.09-.198-.13-.297-.06-.19-.09-.386-.12-.585v-.258a.855.855 0 00-.36-.658.758.758 0 00-.37-.11zm.74 1.107zm.11.515a.4.4 0 01.04.104c-.01-.033-.02-.067-.04-.104z" fill="#2F545F"/><path d="M1243.86 64.977c-.42.094-.62.492-.55.9l.09.519c.08.344.17.68.32 1.004.06.195.15.344.32.456.17.108.39.135.58.092.19-.05.35-.162.45-.338.09-.146.16-.38.09-.56a6.36 6.36 0 00-.17-.5 6.07 6.07 0 01-.23-1.031.64.64 0 00-.31-.44.76.76 0 00-.59-.102z" fill="#2F545F"/><path d="M1243.74 64.249a.698.698 0 00-.46.33c-.11.176-.12.355-.09.569l.06.49c.04.331.12.662.22.97.1.38.27.755.43 1.1.18.374.68.491 1.01.3.38-.202.47-.646.3-1.014l-.18-.405a5.64 5.64 0 01-.25-.82c-.07-.321-.11-.65-.15-.978-.02-.183-.18-.365-.33-.458a.69.69 0 00-.56-.084z" fill="#2F545F"/><path d="M1243.99 64.522a.713.713 0 00-.54.205c-.13.13-.25.343-.24.517.04.396.08.752.15 1.141.07.53.3 1.033.5 1.517.07.173.27.313.43.362.2.055.41.035.58-.062.17-.099.3-.252.36-.436.06-.208.02-.385-.06-.579-.04-.107-.09-.21-.14-.314a2.573 2.573 0 00-.12-.387 5.904 5.904 0 01-.17-.846 3.934 3.934 0 00-.04-.349c-.02-.208-.05-.378-.2-.54a.466.466 0 00-.13-.11.806.806 0 00-.38-.12z" fill="#2F545F"/><path d="M1243.78 64.828a.733.733 0 00-.46.33c-.12.186-.12.365-.09.576.05.439.15.854.25 1.28.08.345.23.683.36 1.002.06.18.27.312.43.357.2.067.41.037.58-.06a.76.76 0 00.36-.437c.06-.207.01-.38-.06-.576-.04-.081-.07-.163-.1-.244-.1-.263-.17-.542-.23-.822a8.114 8.114 0 01-.14-.864.646.646 0 00-.31-.433.784.784 0 00-.59-.11z" fill="#2F545F"/><path d="M1243.59 63.812a.777.777 0 00-.46.33c-.11.176-.12.365-.09.569.05.342.11.684.18 1.022.08.338.17.675.26 1.008.12.389.5.647.91.55.38-.105.65-.513.55-.91-.1-.323-.18-.669-.27-.995a9.312 9.312 0 01-.18-1.027.607.607 0 00-.3-.444.774.774 0 00-.6-.103zm96.23-22.021l.01.006c.01.006.03.01.04.018.02.004.03.008.04.014l-.09-.038z" fill="#2F545F"/><path d="M1221.69 65.566c-.97 1.936 2.53 5.062 5.59 6.55 3.06 1.49 7.77 2.387 8.64.3.87-2.089-3.66-5.422-5.96-6.245-2.3-.824-7.07-2.989-8.27-.605z" fill="#fff"/><path d="M1223.39 69.694s-15.55 11.663-4.32 18.93c11.23 7.268 12.38-15.225 12.38-15.225s-4.7-.598-7.63-3.583" fill="#fff"/><path d="M1224.73 70.605c-.48-.244-.95-.522-1.42-.844-.88.677-14.33 11.258-4.94 18.314 8.85 4.225 10.72-11.411 11.03-15.146-1.35-.396-3.12-1.107-4.67-2.324zm5.32-4.394c-.03-.01-.06-.03-.09-.041-2.3-.823-7.07-2.988-8.27-.606-.59 1.188.5 2.821 2.13 4.25 3.05 1.342 7.3 2.047 8.12.072.45-1.067-.53-2.458-1.89-3.675z" fill="#2F545F"/><path d="M1340.96 43.58c.08-.389.02-.786-.19-1.114a1.35 1.35 0 00-.42-.424c-.15-.09-.3-.158-.47-.226-18.15-6.716-36.3-13.421-54.45-20.137-2.94-1.077-5.87-2.162-8.81-3.255-.06-.024-.12-.031-.18-.05-.05-.039-.09-.093-.14-.126a1.72 1.72 0 00-1.15-.23c-5.29.8-10.19 3.22-14.55 6.22-4.99 3.423-9.38 7.611-13.4 12.117-4.06 4.577-7.73 9.502-11.04 14.635-2.7 4.19-5.12 8.571-7.18 13.108-1.14-.412-2.32-.735-3.51-.858a7.948 7.948 0 00-1.17-.058c-.09 0-.17.002-.26.003a6.46 6.46 0 00-.96.086c-.14.02-.27.044-.4.075-.38.077-.75.253-1.11.414-.01.01-.02.02-.04.03-.19.1-.37.214-.52.36v.004c-.02.008-.03.02-.05.033-.26.26-.48.51-.66.822-.12.18-.2.377-.26.585a3.228 3.228 0 00-.07 1.475l.06.24c.14.598.42 1.15.76 1.671.02.037.05.074.07.107.16.236.34.462.53.686-2.42 2.676-4.99 5.302-6.64 8.542-.86 1.68-1.42 3.546-1.22 5.444.1.906.39 1.755.81 2.547.54 1.006 1.37 1.834 2.22 2.558.79.675 1.64 1.245 2.6 1.65.96.417 1.95.645 3 .7.97.06 1.97-.13 2.88-.451.99-.337 1.83-.85 2.66-1.472.85-.647 1.54-1.52 2.15-2.381.68-.988 1.14-2.134 1.54-3.26.94-2.665 1.42-5.5 1.41-8.328.51.03 1.05.059 1.54-.012.73-.118 1.38-.299 2-.693.52-.344.97-.833 1.19-1.438.11-.32.15-.625.2-.968.05-.323-.05-.705-.11-1.02-.08-.245-.16-.48-.25-.713a7.11 7.11 0 00-.6-1.032c-.42-.594-.87-1.09-1.38-1.578a14.78 14.78 0 00-2.28-1.76c-.17-.11-.34-.214-.52-.316a.792.792 0 00-.13-.09c-.15-.083-.3-.167-.45-.245-.12-.064-.24-.126-.35-.188l.15-.338v-.013c.06-.117.11-.232.16-.353-.03.078-.06.15-.09.223 1.87-3.986 4.04-7.833 6.4-11.564 2.79-4.427 5.89-8.665 9.24-12.687-.04.049-.09.098-.13.142 4.4-5.213 9.28-10.088 14.89-13.996 2.64-1.788 5.46-3.337 8.46-4.47a27.65 27.65 0 014.46-1.156c.01.006.02.02.03.025a53939.18 53939.18 0 0161.9 22.89c.69.242 1.37.496 2.06.756.34.118.81-.022 1.1-.195.34-.22.59-.562.67-.952zm-114.12 42.382c-.44.493-.91.933-1.44 1.323-.4.25-.8.458-1.23.635-.4.132-.81.228-1.24.293-.46.026-.92.004-1.37-.057-.5-.107-.96-.258-1.42-.459-.58-.297-1.1-.648-1.62-1.05a12.33 12.33 0 01-1.32-1.391 7.848 7.848 0 01-.51-.956c-.1-.324-.17-.65-.22-.984-.01-.389.01-.766.06-1.15.15-.766.4-1.492.72-2.212.84-1.658 1.93-3.15 3.11-4.58 1.05-1.234 2.15-2.414 3.23-3.617.38.288.76.577 1.18.84 1.05.653 2.18 1.175 3.32 1.65.57.234 1.16.409 1.76.57v.003a23.39 23.39 0 01-.25 3.917c-.34 1.848-.82 3.688-1.59 5.398a13.71 13.71 0 01-1.17 1.827zm6.16-16.257c.52.476.99.97 1.4 1.533.12.179.21.367.3.556.02.073.04.149.05.224v.056l-.01.018c-.02.018-.03.032-.05.05-.06.035-.12.067-.19.095-.2.056-.39.097-.58.128a12.01 12.01 0 01-1.86-.078c-1.44-.273-2.79-.742-4.13-1.349a18.439 18.439 0 01-3.15-1.995 10.5 10.5 0 01-1.46-1.538 1.08 1.08 0 01-.12-.204c-.1-.169-.18-.331-.25-.505l-.03-.096c-.01-.04-.01-.076-.02-.115v-.005l.02-.035.03-.028c.06-.036.12-.063.18-.09.26-.071.52-.125.79-.159.05 0 .1-.003.15-.001a11.51 11.51 0 011.55.102 16.9 16.9 0 012.82.802c.01.007.03.012.05.019.28.108.56.22.85.343l.15.073c1.25.613 2.43 1.334 3.51 2.2z" fill="#2F545F"/><path d="M1309.29 514.601c63.82-2.044 222.09 4.921 130.87-284.001-63.13 17.657-250.14 7.836-250.14 7.836s-130.78 284.175 119.27 276.165z" fill="#fff"/><path d="M1311.34 509.825c64.73-1.859 217.41 1.865 130.2-279.458-34.73 5.153-85.07 6.311-129.64 6.039-38.66.252-75.84-.82-98.75-1.684-7.87 17.689-114.73 266.65 98.19 275.103z" fill="url(#paint0_linear)"/><path d="M1391.7 262.459s70.23 198.633-32.1 244.38c28.49-6.019 102.46-12.813 108.83-126.675-19.75-44.671-41.47-89.265-44.6-133.53-10.57 9.974-27.19 16.964-32.13 15.825z" fill="#2F42D9"/><path d="M1299.15 511.819c-59.54 0-101.32-17.531-124.31-52.181-52.96-79.824 12.9-225.199 13.57-226.657l.51-1.09 1.19.064c1.87.099 187.45 9.602 249.57-7.773l1.65-.462.52 1.632c35.36 111.985 36.78 191.896 4.23 237.508-32.91 46.126-93.32 47.668-129.41 48.59-2.56.065-5 .127-7.32.202-3.46.112-6.86.167-10.2.167zm-108.01-276.271c-5.93 13.467-62.83 147.568-13.35 222.14 23.55 35.501 67.76 52.481 131.44 50.43 2.33-.074 4.78-.136 7.34-.202 35.44-.903 94.75-2.418 126.63-47.107 31.71-44.441 30.29-122.754-4.22-232.772-61.48 16.193-231.73 8.302-247.84 7.511z" fill="#2F545F"/><path d="M1294.15 404.215c-1.65-1.799-2.89-3.896-3.71-6.247a32.408 32.408 0 01-2.33 4.193c-1.14 1.737-2.45 2.562-3.9 2.451-1.24-.096-2.92-.831-3.87-3.82a45.973 45.973 0 01-1.47-6.907 59.783 59.783 0 01-1.63 2.877c-.83 1.413-1.89 2.197-3.46 2.33-1.1-.085-2.58-.71-3.36-3.209-.23-.75-.4-1.511-.5-2.28-1.18 1.146-2.79 2.515-4.8 4.091-1.77 1.714-3.23.695-3.5.465a1.74 1.74 0 011.21-3.078v-.001c2.29-1.798 4-3.273 5.06-4.369 1.17-1.222 2.08-2.454 2.72-3.666.23-.588.49-1.164.81-1.717a1.739 1.739 0 013.02 1.725c-.24.414-.44.848-.59 1.256 0 .009-.01.023-.01.032-.26.778-.43 1.622-.5 2.539-.14 1.355 0 2.693.39 3.969.09.254.16.436.23.559.08-.101.18-.235.29-.427 1.51-2.496 2.99-5.416 4.41-8.687.33-.763 1.17-1.16 1.97-1.005.82.181 1.39.914 1.36 1.745-.12 4.292.44 8.589 1.67 12.738.31.989.66 1.361.72 1.383 0 0 .3-.118.81-.902 2.1-3.193 3.5-6.684 4.13-10.208.07-.869.19-1.711.35-2.538.19-.95 1.18-1.586 2.04-1.368a1.73 1.73 0 011.37 2.04c-.12.617-.21 1.246-.28 2.007-.01.032-.01.063-.01.099-.1 1.708.07 3.472.52 5.23.63 2.443 1.77 4.583 3.39 6.357.53.573 1.53 1.515 2.4 1.36.23-.023.9-.101 1.74-1.405 1.6-2.118 2.67-4.858 3.18-8.146.35-2.299.48-5.545.38-9.642a1.732 1.732 0 011.15-1.677c.7-.253 1.49-.031 1.96.561 3.83 4.863 7.99 9.143 12.36 12.722.74.609.85 1.705.25 2.447-.61.748-1.72.85-2.45.244-3.41-2.787-6.68-5.977-9.78-9.515-.06 2.115-.2 3.922-.43 5.396-.6 3.862-1.89 7.132-3.76 9.595-1.37 2.143-3.05 2.748-4.11 2.862-.36.067-.74.083-1.11.053-1.45-.114-2.91-.954-4.33-2.512zm71.28-30.82c-1.03.289-2.1.084-3.19-.61-.54-.378-1.12-.912-1.84-1.678-3.1-4.128-5.49-8.534-7.17-13.204-1.06 3.541-2.68 6.978-4.84 10.274-1.63 2.565-3.47 3.757-5.45 3.512-2 .069-3.82-1.458-5.14-4.524a44.83 44.83 0 01-3.95-15.655l-5.45 6.616a1.736 1.736 0 01-2.68-2.206l8.45-10.28a1.738 1.738 0 013.08 1.174c-.25 6.571 1 12.947 3.73 18.943.41.951 1.21 2.494 2.13 2.47.64.067 1.39-.422 2.36-1.931 3.38-5.152 5.29-10.62 5.69-16.285.06-.871.75-1.551 1.63-1.613a1.73 1.73 0 011.81 1.405 46.144 46.144 0 008.47 19.073c.6.624.95.92 1.1 1.024.18.107.29.132.34.142.01-.047.35-.362.87-1.413 2.43-6.331 3.72-12.943 3.78-19.516.01-.836.6-1.493 1.43-1.7.82-.147 1.63.312 1.93 1.093 1.4 3.683 3.37 6.982 5.85 9.802 1.97 2.151 3.61 2.978 4.92 2.526.35-.14.91-.472 1.34-1.55.39-.895.51-1.851.4-2.963-.06-.604-.27-1.75-.65-3.423-.37-1.681-.55-3.005-.55-4.067-.01-.771.5-1.455 1.24-1.673l.02-.006c.74-.207 1.52.088 1.94.731 1.83 2.853 4.26 5.256 7.23 7.15 2.24 1.448 4.61 2.498 7.1 3.139.06-.691.54-1.298 1.26-1.499.92-.26 1.88.276 2.14 1.2.29 1.036.45 1.792.49 2.381.03.526-.17 1.041-.56 1.4-.38.356-.91.521-1.43.444-3.86-.573-7.52-1.965-10.88-4.142a27.71 27.71 0 01-4.05-3.137c.08.474.13.861.16 1.171.17 1.672-.05 3.232-.64 4.627-.68 1.675-1.79 2.85-3.3 3.454-2.79 1.022-5.71-.115-8.77-3.443a35.438 35.438 0 01-3.59-4.895c-.6 4.794-1.81 9.579-3.63 14.284-.98 2.014-1.96 3.045-3.13 3.378zm21.49-52.818c-.41.117-.84.186-1.29.202-2.71.089-4.96-1.819-6.7-5.677-1.26-2.862-2.4-5.809-3.41-8.809a85.301 85.301 0 01-4.87 11.246c-1.24 2.23-2.61 3.475-4.18 3.803-2.03.21-4.52-.569-6.06-5.288a47.664 47.664 0 01-1.8-14.092c-4.75 5.251-10.28 9.468-16.5 12.572-.84.421-1.9.081-2.33-.778a1.739 1.739 0 01.78-2.334c7.36-3.672 13.7-9.02 18.85-15.888a1.732 1.732 0 013.1 1.289c-.86 6.134-.46 12.267 1.22 18.222.35 1.074 1.13 2.971 2.2 2.869-.02-.01.68-.285 1.66-2.029a82.46 82.46 0 006.27-15.892 1.742 1.742 0 013.35-.001 105.2 105.2 0 004.89 13.693c.75 1.666 1.97 3.665 3.4 3.621.38-.012 1.56-.062 2.84-2.652 1.25-2.287 2.04-4.753 2.38-7.395.36-2.63.27-5.236-.27-7.762a1.748 1.748 0 011.08-1.985c.8-.289 1.7.009 2.13.748 1.96 3.362 4.65 6.134 8 8.243 1.13.801 2.03 1.081 2.74.882.17-.049.57-.163.89-1.006.32-.738.42-1.527.34-2.41-.04-.328-.24-1.301-.59-2.864-.36-1.397-.51-2.596-.43-3.604a1.73 1.73 0 011.09-1.485 1.73 1.73 0 011.81.33 29.227 29.227 0 007.49 4.938 1.73 1.73 0 01.86 2.301 1.728 1.728 0 01-2.3.857 31.647 31.647 0 01-4.82-2.721c.2.96.31 1.579.35 1.873.14 1.519-.05 2.875-.57 4.086-.75 1.983-2.15 2.76-3.18 3.051-1.76.496-3.65.045-5.61-1.341a27.035 27.035 0 01-5.32-4.364c-.03.892-.11 1.792-.23 2.687-.39 3.062-1.32 5.944-2.75 8.552-1.16 2.339-2.68 3.795-4.51 4.312zm-144.75 49.344c-.41.22-.91.266-1.37.106-4.06-1.388-7.7-3.684-10.83-6.818a29.823 29.823 0 01-2.42-2.744c.03 1.568-.01 3.147-.13 4.724-.16 2.641-.96 4.596-2.38 5.775-1.04.791-2.69 1.487-5.11.779-1.39-.369-2.76-1.118-4.03-2.212-2.17-1.804-4.04-4.046-5.53-6.645-.35-.619-.68-1.25-.98-1.891-.58 2.545-1.27 5.525-2.05 8.941-.27 1.051-1.04 4.133-3.6 4.699-1.62.409-3.4-.386-5.23-2.372a36.655 36.655 0 01-5.54-9.177 39.977 39.977 0 01-1.27-3.604c-.58 1.462-1.19 2.755-1.84 3.866-2.15 3.77-4.98 6.164-8.41 7.096a1.75 1.75 0 01-2.11-1.13c-1.64-4.922-2.39-9.896-2.25-14.851a28.687 28.687 0 01-6.03 5.088c-.77.56-1.88.273-2.39-.539a1.724 1.724 0 01.54-2.397c3.73-2.367 6.71-5.587 8.85-9.568a1.74 1.74 0 012.12-.814 1.754 1.754 0 011.12 1.979c-1.22 6.052-.95 12.191.81 18.277 1.85-.975 3.39-2.528 4.73-4.876 1.33-2.281 2.52-5.466 3.56-9.473.21-.816.98-1.355 1.81-1.298.84.064 1.51.72 1.6 1.554a34.004 34.004 0 002.38 9.357 32.87 32.87 0 004.94 8.221c1.04 1.136 1.68 1.31 1.82 1.278.09-.051.55-.341 1.01-2.134 1.54-6.692 2.7-11.731 3.46-15.089.19-.805.91-1.369 1.74-1.352.82.019 1.52.618 1.67 1.429a21.76 21.76 0 002.57 7.05c1.27 2.235 2.87 4.16 4.75 5.718.89.765 1.8 1.273 2.72 1.52 1.16.343 1.71.075 2.02-.164.57-.478.96-1.632 1.06-3.286.33-4.362.03-8.67-.91-12.833-.2-.899.33-1.783 1.22-2.054.89-.253 1.82.232 2.12 1.101 1.24 3.583 3.28 6.808 6.05 9.588a25.018 25.018 0 005.71 4.316 1.737 1.737 0 013.26-.615c.37.702.88 1.772 1.54 3.215a1.72 1.72 0 01-.3 1.884c-.13.158-.29.28-.47.375zm53.53-53.247c-.5.264-1.13.28-1.66-.021a40.89 40.89 0 01-1.65-.969 32.335 32.335 0 01-6.13-4.953c-.71 1.644-1.95 2.853-3.53 3.57-1.79.767-3.77.868-5.89.296a11.483 11.483 0 01-4.98-2.98c-1.13-1.163-2.13-2.643-3-4.415-.79 3.154-1.37 5.378-1.74 6.664-.68 3.474-2.55 4.381-4 4.487-1.46.108-2.84-.682-4.25-2.41a45.732 45.732 0 01-5.8-10.677c-1.31 4.105-2.91 7.911-4.77 11.371-1.57 3.346-3.68 4.994-6.24 4.782-1.04-.058-2.59-.525-3.89-2.391-.71-.956-1.27-2.223-1.66-3.719a34.124 34.124 0 01-1.05-10.594c.01-.042.01-.08.01-.117-1.93 3.098-3.71 5.963-5.37 8.596-.98 1.519-1.86 2.629-2.71 3.402-1.47 1.295-3 1.856-4.57 1.642-2.37-.349-4.23-2.211-5.57-5.537a37.792 37.792 0 01-2.11-7.071 58.38 58.38 0 01-3.83 7.912 1.736 1.736 0 01-2.97.067 38.104 38.104 0 01-4.64-10.435 40.002 40.002 0 01-1.46-11.428c.01-.959.81-1.736 1.76-1.708.96.015 1.73.81 1.71 1.768a36.73 36.73 0 001.34 10.441 34.958 34.958 0 002.7 6.877 54.258 54.258 0 004.9-14.172 1.741 1.741 0 011.95-1.389c.92.136 1.57.966 1.48 1.888-.51 5.436.29 10.8 2.39 15.946.58 1.446 1.54 3.208 2.82 3.395.18.021.76.093 1.77-.784.59-.54 1.3-1.453 2.09-2.683 3.11-4.93 6.69-10.695 10.74-17.286a1.745 1.745 0 012.26-.642c.81.407 1.17 1.363.84 2.201a29.52 29.52 0 00-2.07 9.312c-.18 3.252.13 6.453.94 9.518.28 1.072.65 1.936 1.13 2.577.63.908 1.11.936 1.29.946 1.24.095 2.26-1.509 2.9-2.875 2.61-4.843 4.64-10.311 6.08-16.344.19-.781.88-1.329 1.68-1.335.8-.003 1.5.542 1.7 1.32 1.38 5.584 3.73 10.666 6.98 15.104.8.985 1.24 1.061 1.24 1.061.31-.004.66-.76.87-1.829.56-2.012 1.55-5.868 2.99-11.713.18-.737.83-1.265 1.57-1.317.76-.05 1.46.393 1.74 1.1.86 2.212 1.5 3.7 1.87 4.416.75 1.534 1.56 2.745 2.43 3.649a7.901 7.901 0 003.43 2.057c1.33.359 2.51.316 3.56-.137 1.01-.443 1.68-1.264 1.99-2.533.14-.592.15-1.106.05-1.506-.01-.018-.01-.034-.02-.051-.11-.364-.32-.673-.66-.949a1.74 1.74 0 01-.24-2.447 1.752 1.752 0 012.45-.241c.8.653 1.37 1.458 1.7 2.382 2.01 2.707 4.57 5.046 7.61 6.96.48.299.99.597 1.51.888.84.471 1.14 1.527.67 2.367-.16.3-.41.533-.68.696z" fill="#2F545F"/><path d="M1394.78 113.832c-.77-3.234-4.79-19.698-8.41-26.777-.1-.209.13-.429.32-.282 5.98 4.717 13.71 11.728 15 20.788.02.144.21.126.22-.017 1.37-15.97 3.31-22.917.63-34.249-.04-.156.15-.258.23-.118 4.89 8.724 12.35 18.423 10.64 35.015-.02.158.19.242.26.102 5.36-10.3 9-25.735 9.63-25.605 2.07.426 5.37 30.427-8.53 41.897-.17.139-.22.365-.11.548 8.96 14.105 39.44 41.278 31.59 87.237-1.37 8.028-4.22 15.781-8.63 22.633-20.83 32.434-69.01 58.347-127.8-10.639-2.91 1.403-26.38 43.863-72.73 42.045-46.35-1.818-56.55-43.716-53.9-62.671 2.63-18.764 14.71-52.507 65.38-79.326.76-.4.91-1.431.3-2.025-8.17-7.909-13.71-13.065-14.3-27.362-.02-.528.59-.852 1-.512 4.68 3.92 15.71 13.238 19.25 16.227.14.118.33-.058.22-.205-3.4-4.624-14.95-22.827-6.57-46.996.19-.548 1-.502 1.15.057 4.31 16.137 7.78 28.498 14.23 37.248.39.526 1.23.233 1.24-.421.1-13.843 1.3-29.127 1.67-33.607.03-.396.56-.5.75-.148 1.61 3.072 5.78 11.933 6.38 22.313 1.12 9.18 3.26 20.465 11.97 22.121 8.67 1.646 70.03 7.119 108.47 3.343.33-.031.53-.3.45-.614z" fill="#fff"/><path d="M1414.77 124.586c7.64-6.3 10.08-18.185 10.39-27.696a2.97 2.97 0 01-.85-1.669c-.47-2.964-1.2-6.167-2.26-9.312-1.6 5.044-4.54 15.014-8.37 22.385-.08.14-.28.056-.27-.102.28-2.639.29-5.087.15-7.402-1.34.553-3.04.206-3.88-1.35-.91-1.7-1.83-3.238-2.77-4.613-.92-1.351-2.4-1.552-3.6-1.059-.22 2.217-.49 4.61-.77 7.265 1.03 3.684 1.99 7.258 2.65 9.788a2.994 2.994 0 01-2.8 3.767c-3.26.117-8.51.282-14.99.422-38.47 2.585-93.37-2.357-101.53-3.909-6.54-1.242-9.37-7.902-10.86-15.026a2.972 2.972 0 01-2.56-1.435c-2.23-3.6-4.66-8.372-6.68-13.447-.33 5.88-.62 12.708-.67 19.23 0 .652-.85.946-1.24.421-2.37-3.218-4.34-6.932-6.09-11.134a45.68 45.68 0 002.19 8.308c1.07 2.87-2.21 5.361-4.66 3.518a217.74 217.74 0 00-3-2.237c-1.09-.805-2.37-.728-3.35-.142 2.16 5.587 4.76 9.553 6.1 11.379.11.147-.08.323-.22.205-1.32-1.116-3.69-3.116-6.38-5.386 1.55 4.662 4.23 10.075 8.94 14.424 1.54 1.422 1.39 3.884-.39 4.975-13.46 8.223-59.24 32.612-59.36 79.319 0 .477 1.69 8.471 1.89 8.899 4.32 8.889 32.02 61.81 94.61 29.536 9.25-9.136 14.42-17.533 15.69-18.144 1.58 1.856 3.16 3.629 4.72 5.349 2.66-1.945 5.36-4.023 8.13-6.259.21-.172.45-.305.71-.4 2.73-1.017 5.23-1.658 12.09 3.945 4.12 3.368 7.35 8.277 11.08 10.417 19.42 11.15 66.45 31.723 97.41-15.83a63.343 63.343 0 002.29-9.215c7.85-45.959-22.63-73.132-31.59-87.237-.12-.183-.07-.409.1-.548z" fill="url(#paint1_linear)"/><path d="M1185.85 212.6s-1.43 49.741 47.44 53.562c25.06-.269 57.45-6.974 68.41-35.083-12.52 7.403-71.71 53.15-115.85-18.479z" fill="#fff"/><path d="M1191.11 220.477c1.88 14.061 10.16 42.301 45.96 45.583 23.11-.848 50.93-7.508 62.71-30.794-10.83 6.799-30.27 17.822-51.95 16.962-18.27.679-38.52-6.527-56.72-31.751z" fill="#D6E6EB"/><path d="M1323.9 233.717s19.73 42.065 74.26 32.142c33.27-12.129 54.37-40.832 48.13-85.168-.41 16.259-18.46 107.209-122.39 53.026z" fill="#fff"/><path d="M1329.24 236.404c7.3 10.858 28.66 34.851 71.28 27.098 10.71-3.905 20.14-9.537 27.83-16.844 13.1-13.751 20.36-32.915 18.82-57.324-2.58 12.38-8.97 30.747-22.72 43.708-16.86 17.739-45.96 27.365-95.21 3.362z" fill="#D6E6EB"/><path d="M1382.95 269.699c-24.02.002-48.62-14.347-73.2-42.714-.46.582-1.05 1.334-1.62 2.075-8.37 10.84-30.28 39.174-68.1 39.177-1 0-1.99-.02-3.01-.06-17.84-.7-31.99-7.159-42.06-19.199-11.76-14.076-15.26-32.986-13.51-45.484 2.56-18.301 14.51-53.008 65.69-80.32-7.97-7.718-13.72-13.371-14.33-28.074a2.396 2.396 0 011.33-2.247 2.374 2.374 0 012.57.305c2.76 2.31 7.72 6.497 12.06 10.158-4.14-8.838-7.94-23.118-1.97-40.357a2.334 2.334 0 012.32-1.574 2.36 2.36 0 012.21 1.754c4 14.96 7.13 25.818 12.04 33.819.25-12.901 1.3-26.247 1.63-30.289a2.16 2.16 0 011.73-1.94c.94-.194 1.89.254 2.34 1.11 1.78 3.395 5.98 12.421 6.59 23.042 1.14 9.3 3.29 19.109 10.53 20.485 7.77 1.475 67.58 6.997 106.53 3.459-1.25-5.101-4.77-18.788-7.92-24.966a1.984 1.984 0 01.51-2.451 1.958 1.958 0 012.47-.024c4.7 3.709 9.99 8.436 13.12 14.318.08-.767.16-1.51.24-2.236 1.04-9.587 1.66-15.375-.32-23.764 0 0-.17-1.127-.04-1.488.22-.64 1.2-.74 1.2-.74.88-.351 1.86.002 2.33.823.64 1.148 1.32 2.297 2.02 3.475 3.74 6.337 8.22 13.926 8.98 24.516 1.89-4.82 3.44-9.758 4.51-13.179 1.78-5.662 2.06-6.52 3.84-6.152 1.37.282 1.92 1.751 2.3 3.296 1.73 6.93 2.67 29.995-9.16 40.906 1.49 2.203 3.46 4.743 5.7 7.627 12 15.44 32.09 41.281 25.5 79.882-1.46 8.547-4.45 16.383-8.89 23.29-12.84 19.989-31.83 32.237-52.11 33.605-1.35.091-2.7.136-4.05.136zm-72.66-47.519l.88 1.038c25.62 30.067 51.06 44.463 75.59 42.817 27.2-1.835 43.59-22.981 49.38-31.986 4.18-6.507 6.99-13.898 8.37-21.975 6.33-37.066-12.41-61.167-24.8-77.117-2.63-3.386-4.91-6.311-6.53-8.877a2.186 2.186 0 01.47-2.862c9.69-7.996 10.35-26.089 9.44-34.716-1.67 5.347-4.42 14.018-7.85 20.607l-.67 1.291-1.55-.344a1.93 1.93 0 01-1.37-2.044c1.19-11.568-2.25-19.63-6.09-26.507.31 5.148-.22 10.045-.91 16.34-.31 2.905-.66 6.132-.98 9.849l-.13 1.567-3.27.217-.33-1.661c-.87-6.136-4.97-11.314-9.49-15.526 2.86 8.01 5.45 18.599 6.05 21.132v.006c.15.645.02 1.316-.35 1.843-.38.528-.97.87-1.64.935-39.22 3.86-101.03-1.857-108.98-3.366-10.76-2.044-12.54-16.633-13.4-23.643-.39-6.752-2.29-12.794-4.01-16.998-.5 6.81-1.18 17.963-1.26 28.237a2.46 2.46 0 01-1.71 2.323c-1 .328-2.09-.022-2.71-.865-5.94-8.044-9.37-18.814-13.47-33.932-5.67 21.246 4.18 37.01 7.5 41.524l.93 1.261-1.15 1.275c-.72.67-1.82.7-2.56.069-3.09-2.606-11.87-10.02-17.17-14.474 1.06 11.386 5.77 15.941 13.23 23.161l.35.339c.69.669 1.03 1.641.89 2.598a3.052 3.052 0 01-1.59 2.261c-50.3 26.625-61.97 60.302-64.45 78.007-1.59 11.345 1.71 29.554 12.72 42.725 9.4 11.242 22.69 17.276 39.49 17.934 37.93 1.504 59.88-27.017 68.18-37.746 2.18-2.823 2.91-3.732 3.72-4.125l1.23-.592zm105.61-96.233l-.01.003.01-.003zm-162.29-14.378c.01.009.01.018.02.028-.01-.01-.01-.019-.02-.028zm158.5-4.104c0 .009-.01.018-.01.027 0-.009.01-.018.01-.027z" fill="#2F545F"/><path d="M1245.03 254.296c-5.52 0-10.88-.739-16.05-2.216-33.43-9.543-46.89-46.189-47.45-47.746l3.33-1.193c.13.363 13.44 36.518 45.12 45.544 22.62 6.449 49.13-2.197 78.75-25.706l2.19 2.769c-23.92 18.993-46.01 28.548-65.89 28.548zm135.28-.937c-16.94 0-35.82-6.563-56.41-19.643l1.89-2.986c29.12 18.499 54.52 23.589 75.48 15.111 33.46-13.532 44.44-57.636 44.54-58.079l3.44.827c-.45 1.883-11.48 46.294-46.64 60.525-7 2.831-14.44 4.245-22.3 4.245z" fill="#2F545F"/><path d="M1327.45 181.58c-1.42 22.128 13.5 51.866 45.3 48.802 31.8-3.065 39.97-32.007 34.71-51.719-5.27-19.712-12.34-43.288-59.49-40.931-16.5 2.357-19.75 31.769-20.52 43.848z" fill="#fff"/><path d="M1368.32 232.365c-10.75 0-20.29-3.775-27.8-11.051-9.95-9.628-15.77-25.271-14.83-39.848 1.02-15.958 5.24-43.088 22.03-45.487 49.53-2.49 56.41 23.357 61.45 42.225 3.41 12.778 1.11 27.091-6.02 37.355-6.65 9.582-17.11 15.316-30.23 16.582-1.56.15-3.1.224-4.6.224zm-14.01-93.029c-2 0-4.08.053-6.25.161-14.69 2.106-18.08 30.211-18.85 42.196-.87 13.588 4.53 28.144 13.76 37.081 7.81 7.557 18.06 10.957 29.61 9.847 12.05-1.16 21.62-6.376 27.66-15.078 6.55-9.433 8.66-22.624 5.51-34.425-4.76-17.815-10.63-39.782-51.44-39.782z" fill="#2F545F"/><path d="M1231.13 149.6s-15.91 15.914-14.3 45.664c1.62 29.751 27.6 34.325 33.6 34.555 5.99.23 48.97-9.878 51.97-33.402s-7.15-58.58-33.44-61.347c-26.3-2.768-37.83 14.53-37.83 14.53z" fill="#fff"/><path d="M1250.56 231.588c-.07 0-.14-.003-.2-.004-.33-.012-33.42-1.681-35.29-36.224-1.58-29.161 13.08-45.217 14.69-46.888 1.29-1.842 13.35-17.901 39.38-15.161 8.89.938 16.5 5.332 22.62 13.063 11.19 14.129 14.28 35.427 12.39 50.266-3.16 24.77-47.15 34.948-53.59 34.948zm12.74-95.053c-20.98 0-30.28 13.431-30.7 14.048l-.21.265c-.16.153-15.34 15.782-13.79 44.318 1.7 31.364 31.59 32.874 31.9 32.886l.16.002c5.78 0 47.15-9.675 49.98-31.86 1.74-13.648-1.16-34.372-11.65-47.625-5.51-6.957-12.31-10.908-20.22-11.739a52.223 52.223 0 00-5.47-.295z" fill="#2F545F"/><path d="M1314.8 209.243c18.85-.003 7.08 58.031-1.2 58.385-8.27.353-23.33-58.381 1.2-58.385z" fill="#fff"/><path d="M1316.86 209.531c-18.67 3.803-8.95 48.299-1.02 56.725 7.53-8.375 15.43-52.922 1.02-56.725z" fill="#FF7B38"/><path d="M1315.51 209.243c-1.28-.523 7.02 48.053-1.91 58.385 7.78-12.542 19.67-51.109 1.91-58.385z" fill="#E76524"/><path d="M1313.52 269.397c-1.9 0-3.72-1.456-5.55-4.445-6.13-9.936-12.33-37.414-5.07-50.426 2.57-4.612 6.69-7.051 11.91-7.052 4.26 0 11.47 2.64 11.85 20.325.33 15.447-5.6 41.279-12.98 41.595a4.27 4.27 0 01-.16.003zm1.29-60.154v1.768c-9.61.003-11.64 10.557-11.64 19.414-.02 17.802 7.61 35.431 10.35 35.435 2.76-.118 10.01-19.114 9.61-37.986-.14-6.298-1.4-16.863-8.32-16.863h-.01v-1.768h.01zm-65.03-26.275c.01-3.725 3.16-17.425 15.09-16.381 11.92 1.044 9.7 15.901 6.63 19.902-3.07 4.002-7.58 10.045-15.4 7.933s-5.51-9.988-5.51-9.988-.81-.8-.81-1.466zm108.46-4.891c.38-1.876 2.22-13.9 9.95-13.213 7.72.687 12.09 8.223 11.76 16.243-.33 8.019-3.4 15.114-10.85 15.428-7.44.316-9.41-4.952-10.38-17.166-.37-.476-.53-1.023-.48-1.292z" fill="#2F545F"/><path d="M1301.68 112.907s14.04 13.423 16.56 30.883c.03.231.34.259.42.042 4.71-12.05 9.15-18.89 17.52-28.681-11.3-.557-25.61-1.753-34.5-2.244z" fill="#2F42D9"/><path d="M1318.45 145.747a1.98 1.98 0 01-1.96-1.697c-2.4-16.638-15.89-29.737-16.03-29.867l-3.45-3.306 4.77.263c3.82.211 8.64.552 13.8.917 6.68.472 14.25 1.01 20.69 1.326l3.59.177-2.34 2.738c-8.77 10.255-12.79 16.837-17.21 28.176a1.99 1.99 0 01-1.86 1.273zm-1.43-2.568c0 .007-.01.014-.01.023 0-.009.01-.017.01-.023zm-11.04-28.238c3.82 4.441 10.14 12.985 12.97 23.555 3.52-8.075 7.32-14.13 13.6-21.768-5.6-.319-11.71-.752-17.22-1.142-3.32-.234-6.49-.459-9.35-.645z" fill="#2F545F"/><path d="M1170.22 258.338s-1.73 10.385-1.25 16.836c9.28.943 118.31 12.114 118.31 12.114l24.7-.473s-30.05-38.311-122.09-55.067c-2.12 4.957-4.84 14.869-4.84 14.869l-8.61-1.18-.94 12.745-5.28.156zm285.17 0s1.73 10.385 1.26 16.836c-9.28.943-118.32 12.114-118.32 12.114l-24.7-.473s30.05-38.311 122.09-55.067c2.13 4.957 4.84 14.869 4.84 14.869l8.62-1.18.94 12.745 5.27.156z" fill="#fff"/><path d="M1295.27 288.733c-57.97-27.827-114.16-29.336-123.65-28.598-.74 2.843-.79 10.611-.57 15.716l-3.62.155c-.1-2.393-.53-14.515 1.14-18.073a2.339 2.339 0 011.82-1.309c8.07-1.078 65.69-.318 126.44 28.844l-1.56 3.265z" fill="#F4F4F4"/><path d="M1305.47 289.15c-36.16-28.601-94.8-38.32-126.53-41.567l-.51-.054c-.45 2.437-.8 7.396-.93 10.388l-3.62-.162c.05-.975.45-9.602 1.33-12.332.35-1.072 1.36-1.748 2.48-1.609l1.62.17c32.12 3.287 91.53 13.158 128.41 42.327l-2.25 2.839zm-128.19-41.742c0 .002.01.002.02.003l-.02-.003z" fill="#F4F4F4"/><path d="M1311.06 288.246c-20.13-30.855-106.44-51.5-120.42-53.919-1.24 2.891-2.5 9.917-2.9 12.495l-3.57-.551c.16-1.051 1.63-10.382 3.41-13.948a3.045 3.045 0 013.23-1.639c15.13 2.475 102.17 23.237 123.27 55.585l-3.02 1.977zm20.12.487l-1.57-3.262c60.76-29.164 118.37-29.926 126.45-28.845.8.105 1.48.597 1.81 1.315 1.68 3.553 1.25 15.674 1.15 18.067l-3.62-.155c.22-5.107.16-12.881-.58-15.715-9.49-.744-65.68.773-123.64 28.595z" fill="#F4F4F4"/><path d="M1320.98 289.15l-2.25-2.839c36.88-29.169 96.28-39.04 128.41-42.328l1.62-.169c1.12-.132 2.12.537 2.47 1.603.88 2.734 1.29 11.363 1.34 12.338l-3.62.162c-.13-2.992-.48-7.951-.93-10.388l-.51.055c-31.74 3.246-90.37 12.965-126.53 41.566zm128.18-41.742l-.01.003s.01-.001.01-.003z" fill="#F4F4F4"/><path d="M1315.39 288.246l-3.03-1.976c21.1-32.348 108.14-53.11 123.28-55.585 1.34-.218 2.63.44 3.22 1.642 1.78 3.564 3.26 12.893 3.42 13.946l-3.58.55c-.4-2.579-1.66-9.605-2.9-12.495-13.98 2.419-100.28 23.066-120.41 53.918z" fill="#F4F4F4"/><path d="M1145.71 277.056l1.92 189.009c.01.582.38 1.084.94 1.239 9.12 2.515 83.45 21.796 141.62-1.206-.47-30.681-1.31-177.917-1.31-177.917s-89.99-12.469-141.45-12.873a1.712 1.712 0 00-1.72 1.748z" fill="#fff"/><path d="M1290.19 466.099c-.47-30.68-1.31-177.916-1.31-177.916s-80.27-11.121-132.55-12.693c-.58.28-.98.872-.97 1.566l1.92 189.009c.01.582.38 1.084.94 1.239 5.54 1.529 35.2 9.239 70.66 9.895 20.19-.397 41.67-3.333 61.31-11.1z" fill="#FF7B38"/><path d="M1226.44 479.106c-34.73 0-67.48-6.568-76.75-8.596a4.332 4.332 0 01-3.42-4.207l-2.36-188.374a4.368 4.368 0 011.28-3.152c.83-.831 1.87-1.27 3.11-1.273 44.35.369 122.53 9.884 137.75 11.788 2.18.272 3.79 2.056 3.83 4.241.23 13.876 2.31 136.667 2.37 174.705a4.389 4.389 0 01-2.56 3.993c-18.18 8.208-41.12 10.875-63.25 10.875zm-78.91-201.224l2.36 188.372c0 .351.24.648.57.721 14.99 3.274 92.06 18.579 137.74-2.046a.752.752 0 00.43-.689c-.06-38.012-2.14-160.775-2.38-174.648a.727.727 0 00-.65-.713c-15.19-1.899-93.18-11.39-137.34-11.76-.19.023-.41.113-.51.21a.8.8 0 00-.22.553z" fill="#2F545F"/><path d="M1478.36 277.056l-1.92 189.009a1.289 1.289 0 01-.94 1.239c-9.12 2.515-83.45 21.796-141.62-1.206.47-30.681 1.31-177.917 1.31-177.917s89.99-12.469 141.45-12.873c.97-.006 1.73.784 1.72 1.748z" fill="#fff"/><path d="M1333.88 466.099c.47-30.68 1.31-177.916 1.31-177.916s80.28-11.121 132.55-12.693c.58.28.98.872.98 1.566l-1.93 189.009a1.289 1.289 0 01-.94 1.239c-5.54 1.529-35.19 9.239-70.65 9.895-20.2-.397-41.68-3.333-61.32-11.1z" fill="#FF7B38"/><path d="M1397.83 479.071c-22.76 0-46.38-2.806-64.74-11.551l-1.04-.49v-1.143c0-38.174 2.39-177.157 2.42-178.555l.02-1.565 1.56-.2c.9-.115 90.94-11.593 139.53-12.061 1.32-.046 2.49.482 3.4 1.394.92.92 1.42 2.146 1.4 3.45v.002l-2.34 187.369c-.03 2.39-1.67 4.41-4 4.912-9.29 2.008-41.77 8.438-76.21 8.438zm-62.16-14.336c45.24 20.757 122.48 5.626 137.61 2.36a1.457 1.457 0 001.14-1.418l2.35-187.37c0-.323-.12-.626-.35-.85-.21-.219-.59-.395-.81-.333-44.86.435-125.38 10.313-137.55 11.837-.26 15.363-2.34 138.38-2.39 175.774z" fill="#2F545F"/><path d="M1287.75 287.444h48.46s-18.56 22.499-48.46 0z" fill="#E76524"/><path d="M1287.75 287.444l2.21 176.53s20.71 15.582 44.18 1.026c-.13-21.163 2.07-177.556 2.07-177.556s-21.24 20.768-48.46 0z" fill="#fff"/><path d="M1294.78 463.976s8.52 6.393 20.81 7.155c5.72-.371 12.03-2.083 18.55-6.131-.12-19.247 1.69-150.316 2.02-173.907-4.53 2.819-11.98 6.126-21.25 5.485-6.44.483-14.03-.825-22.29-5.816l2.16 173.214z" fill="#FF7B38"/><path d="M1295.22 300.852c0 5.932-.31 11.847-.45 17.769-.15 6.235-.26 12.468-.31 18.696-.11 12.897-.2 25.786-.22 38.686-.03 8.311-.04 16.623-.05 24.937 0 7.067.03 14.126-.01 21.186a2.17 2.17 0 002.15 2.153c1.17 0 2.16-.976 2.16-2.153-.03-5.132-.01-10.274-.02-15.415 0-6.402-.01-12.796-.02-19.199-.02-12.863-.05-25.72-.15-38.585-.07-8.211-.15-16.432-.28-24.641-.03-2.021-.08-4.031-.13-6.051-.05-2.001-.09-4.003-.18-5.998-.19-3.787-.27-7.588-.27-11.384 0-.605-.5-1.11-1.11-1.11a1.114 1.114 0 00-1.11 1.109zm7.7 47.903c0 6.427-.24 12.848-.36 19.275-.11 6.536-.18 13.075-.25 19.62-.14 13.193-.21 26.385-.27 39.577-.02 4.82-.03 9.649-.06 14.47-.01 2.222-.01 4.443-.02 6.663 0 1.17-.01 2.339-.01 3.509-.01 1.01.02 2.035-.02 3.045-.02.568.2 1.059.55 1.425.14.161.31.304.5.418.34.193.71.278 1.08.272.36.009.74-.077 1.07-.272.2-.114.36-.255.5-.415.35-.368.57-.86.56-1.428-.04-1.143-.01-2.288-.02-3.434-.01-1.438-.01-2.885-.02-4.322l-.03-9.078c-.02-6.101-.05-12.2-.09-18.299-.06-13.21-.14-26.411-.3-39.612-.07-5.216-.13-10.434-.24-15.65-.13-5.257-.3-10.508-.3-15.766 0-.622-.51-1.135-1.13-1.135-.62.001-1.14.514-1.14 1.137zm24.81-57.566c0 5.553-.18 11.115-.27 16.675-.1 5.821-.15 11.644-.18 17.467-.09 13.3-.13 26.603-.14 39.905-.02 13.538-.04 27.083-.03 40.619 0 12.63.03 25.259.15 37.887.05 4.854.16 9.719.32 14.573.06 1.791.16 3.575.25 5.359.01.412.05.817.05 1.22-.01.291-.03.579-.02.87-.01.611.4 1.215 1.03 1.385.07.022.15.034.23.043h.01c.01.002.03.005.05.005l.05.001.03.001.02-.001.05-.001c.02 0 .04-.002.06-.005h.01c.08-.009.15-.022.23-.043.62-.17 1.03-.774 1.03-1.385 0-.291-.01-.579-.02-.87 0-.452.03-.907.06-1.361.09-1.954.19-3.896.26-5.849.16-5.309.26-10.61.31-15.919.12-12.571.14-25.14.13-37.71-.01-26.779-.02-53.561-.18-80.348-.03-5.512-.09-11.024-.18-16.524-.09-5.336-.26-10.668-.26-15.995 0-.833-.69-1.523-1.52-1.523-.84.002-1.53.69-1.53 1.524z" fill="#E76524"/><path d="M1333.29 289.404c-.05.034-.09.071-.14.108-.42.081-.81.31-1.17.54-.32.194-.63.403-.94.622-.37.269-.75.512-1.02.874-.21.295-.14.826.14 1.052 0 .008 0 .008.01.008.3.26.66.33 1.03.136.43-.224.83-.455 1.22-.717-.15.381-.31.756-.46 1.137.02-.042.03-.084.05-.135-.18.42-.36.841-.55 1.263-.13.276-.09.597.2.765.19.109.49.093.66-.061-.03.272-.06.541-.08.81-.16 1.63-.32 3.263-.45 4.895-.11 1.498-.24 2.998-.37 4.496-.61.076-1.09.605-1.09 1.234-.02 2.23-.19 4.462-.28 6.69l-.12 3.837c-.03.985-.09 1.968-.11 2.961-.14 4.829-.2 9.658-.27 14.489l-.06 4.003c-.01.573-.03 1.136-.04 1.709 0 .328-.01.663-.01 1.001-.01.579-.07 1.17.08 1.732.09.315.26.588.49.798-.04 1.518-.07 3.033-.11 4.547-.14 4.718-.19 9.44-.26 14.159-.02 1.566-.05 3.13-.07 4.695-.01.84-.02 1.691-.02 2.533 0 .822-.03 1.648.03 2.465.04.639.31 1.194.88 1.531.21.126.44.202.68.23 0 .78 0 1.555.01 2.331-.03.023-.06.052-.09.081-.29.292-.39.631-.43 1.034-.1 1.01-.14 2.035-.2 3.054-.06 1.127-.12 2.255-.19 3.382-.12 2.171-.17 4.35-.2 6.521-.03 2.23-.01 4.45.01 6.671.02.976.05 1.954.06 2.928.03 1.086-.01 2.171.03 3.255-.02.527.22 1.001.6 1.331 0 .36 0 .722.01 1.081-.01 1.23-.01 2.462-.02 3.693v.011c-.41.775-.33 1.69-.36 2.541-.02.555-.05 1.103-.06 1.65-.01 1.169-.03 2.339-.04 3.5-.02 1.951-.04 3.894-.05 5.839l-.09 2.734c-.09 2.396-.12 4.805-.17 7.202-.05 2.212-.12 4.426-.15 6.638-.02.724-.02 1.456-.03 2.18-.03.865-.05 1.739-.02 2.608.02.422.17.816.43 1.122-.01 1.275-.01 2.552-.02 3.828-.26.192-.45.456-.52.771-.21.941-.2 1.908-.23 2.869-.02.579-.02 1.152-.03 1.725-.02 1.136-.02 2.27-.04 3.407 0 1.043-.01 2.077-.03 3.121l-.03 1.682c-.01.357-.03.722-.03 1.085l-.03.489c-.05.614-.13 1.311.22 1.859.46.699 1.37 1.01 2.13.555.2-.125.37-.273.5-.443.15.043.31.065.46.065.73 0 1.43-.497 1.61-1.212.12-.521.12-1.077.15-1.607.03-.394.05-.79.06-1.187.04-.756.04-1.514.04-2.27-.01-.799-.01-1.589-.03-2.382l-.03-1.127-.03-.53c0-.1-.01-.202-.01-.304 0-.177-.03-.572-.09-.733-.06-.22-.18-.419-.34-.59.08-2.071.06-4.147.07-6.216.02-1.95.04-3.9.05-5.853.15-.178.27-.384.3-.592.02-.146.04-.297.05-.446v-.013c.16-1.343.17-2.707.24-4.051.05-.967.1-1.935.14-2.902.05-2.197.15-4.401.18-6.597.03-2.128.05-4.256.02-6.377-.02-2.137 0-4.281-.15-6.409-.03-.292-.1-.549-.25-.775v-.208c.32-.305.52-.733.53-1.204.02-2.516-.08-5.031-.12-7.548-.04-2.599-.07-5.209-.1-7.808-.04-3.19-.09-6.381-.15-9.574 0-.963-.01-1.923-.01-2.885-.01-.319 0-.643-.01-.963.12-.248.2-.527.21-.821.04-1.138.03-2.289.05-3.434.01-1.161.01-2.321 0-3.482 0-.767-.01-1.533-.01-2.303v-3.85c0-2.061-.01-4.114-.02-6.174-.01-1.462-.02-2.923-.02-4.386.06-1.04.02-2.087.01-3.128v-1.418c.01-.771.02-1.537.02-2.306.03-2.377.03-4.754.04-7.13.01-1.081.02-2.162.04-3.245.22-.292.3-.629.35-1.014.06-.572.05-1.152.05-1.725.01-.647.01-1.303.01-1.96l.02-3.431c.02-2.188-.03-4.384-.06-6.571l-.07-7.321c-.02-1.178-.05-2.354-.06-3.532-.03-1.019-.05-2.038-.14-3.054 0-.08-.01-.161-.02-.245 0-.039.01-.08.01-.117.01-.26.01-.53.01-.79.01-.431.01-.869.01-1.297 0-.958 0-1.92.04-2.878.05-2.096.11-4.19.17-6.276.06-1.987.1-3.964.14-5.949 0-1.016.03-2.035.05-3.054.01-.437 0-.883 0-1.32-.01-.513.01-1.068-.1-1.573-.12-.532-.69-.799-1.18-.715a.444.444 0 00-.21-.084 1.629 1.629 0 00-.2-.015.925.925 0 00-.51.154zm-12.97 17.823c0 6.581-.26 13.158-.48 19.739-.11 2.912-.23 5.822-.32 8.725-.07 2.825-.13 5.653-.2 8.489-.13 5.989-.21 11.99-.27 17.988-.06 5.578-.14 11.163-.14 16.743 0 1.531.02 3.08.24 4.594.09.328.25.606.49.851a1.923 1.923 0 002.32.294c.38-.217.81-.681.87-1.143.19-1.312.2-2.641.23-3.972.02-1.346 0-2.692-.01-4.039-.02-2.667-.03-5.341-.06-8.008-.07-5.992-.13-11.983-.23-17.971-.1-5.831-.21-11.652-.43-17.483-.25-6.521-.52-13.05-.63-19.577-.04-1.743-.05-3.483-.05-5.225a.67.67 0 00-.66-.666.67.67 0 00-.67.661zm-52.7-2.785c0 3.214-.07 6.418-.14 9.626-.07 3.213-.12 6.427-.21 9.649-.17 6.412-.26 12.839-.33 19.26-.16 13.546-.24 27.092-.3 40.637-.06 11.77-.09 23.542-.12 35.31 0 4.948-.01 9.886-.02 14.826v13.26c-.01.405.02.767.08 1.179.04.304.1.598.15.9.09.339.27.631.51.884.37.37.88.581 1.41.581.36 0 .68-.093.99-.268.41-.235.86-.715.92-1.195.04-.301.11-.597.15-.901.05-.412.09-.774.08-1.178v-6.159c0-2.785 0-5.57-.01-8.354 0-5.737-.01-11.476-.02-17.213-.03-12.882-.08-25.772-.14-38.66-.07-12.418-.17-24.838-.31-37.255-.07-5.764-.21-11.519-.34-17.283-.12-5.88-.3-11.762-.3-17.642 0-.555-.46-1.027-1.02-1.027a1.03 1.03 0 00-1.03 1.023z" fill="#E76524"/><path d="M1333.09 290.064c-.06.047-.13.099-.19.151a.647.647 0 00-.33-.058c-.33.032-.56.118-.77.38-.12.132-.21.285-.32.428-.18.263-.37.512-.56.766-.29.368-.59.734-.88 1.109-.15.185-.26.362-.26.615 0 .137.04.273.1.395-.03.123-.04.246-.05.362-.01.194.02.386.02.579.02.344.01.691.01 1.035.01.371 0 .733 0 1.101-.01.515-.04 1.036-.03 1.549h.01c0 .184.03.36.14.539.09.155.22.282.36.375-.18.949-.36 1.903-.53 2.856-.36 1.96-.67 3.928-.91 5.906-.12.96-.21 1.918-.3 2.878l-.13 1.363c-.03.489-.08.985-.02 1.465.03.371.11.672.38.941.33.338.84.48 1.3.344.14-.033.28-.093.4-.16.3-.168.45-.412.59-.714.16-.362.23-.748.32-1.127.12-.471.21-.944.31-1.415.2-.958.34-1.926.5-2.884.18-1.044.3-2.096.41-3.147.1-.953.12-1.885.04-2.846-.02-.3-.13-.579-.31-.795.16-.887.33-1.775.51-2.662.24-1.213.49-2.432.8-3.627.19-.697.38-1.378.59-2.062.24-.723.51-1.453.69-2.185.11-.455 0-.926-.33-1.254a1.354 1.354 0 00-.57-.338c-.1-.025-.23-.042-.36-.042-.23.002-.47.049-.63.179zm-2.22 1.738c-.01.013-.02.03-.03.046.01-.016.02-.033.03-.046zm1.21 5.52z" fill="#E76524"/><path d="M1313.44 473.135c-12.65 0-23.15-5.292-23.83-5.639l-.96-.497-2.47-180.277 2.71 1.459c29.7 15.989 45.46.957 46.11.309l3.16-3.115-.07 4.431c-.03 1.552-2.69 155.47-2.14 175.144l.03.962-.79.561c-7.03 5.025-14.73 6.662-21.75 6.662zm-21.21-8.405c4.57 2.046 24.37 9.842 40.08-.661-.41-21.284 1.69-147.015 2.09-170.546-6.18 4.084-21.3 10.668-44.52-.759l2.35 171.966z" fill="#2F545F"/><path d="M1335.73 285.607h-48.25v3.618h48.25v-3.618z" fill="#2F545F"/><path d="M1118.3 356.8c1.54 26.225 10.27 58.322 51.57 62.807 41.3 4.485 37.29-34.693 14.87-45.785 14.4-9.44 48.14-34.221-3.78-37.289 9.21-24.072 23.07-57.335-14.66-48.256-37.73 9.079-48 68.523-48 68.523z" fill="#fff"/><path d="M1170.02 337.507c-.59-.006-.94-.672-.59-1.152 8.82-12.059 22.03-44.851 3.52-49.15-27.97 4.727-55.05 43.93-55.05 69.597 0 21.294 7.29 57.194 56.35 63.914 23.8-4.123 22.92-38.283 0-46.185-.4-.138-.45-.666-.06-.829 12.06-5.05 51.95-35.675-4.17-36.195z" fill="url(#paint2_linear)"/><path d="M1165.1 288.277s-60.11 60.417-18.57 122.407c-12.9-6.294-30.84-23.601-28.95-56.012 1.89-32.41 34.93-63.563 47.52-66.395z" fill="#2F42D9"/><path d="M1179.03 422.959c-.64 0-1.3-.018-1.97-.055-53.07-5.811-60.98-43.911-60.98-66.105 0-27.935 30.02-69.302 59.56-71.765 7.79-.641 13.15 1.586 15.99 6.64 6.41 11.43-2.94 33.561-9.91 44.057 17.98.41 27.4 4.063 28.79 11.139 1.99 10.116-14.51 22.428-23.15 27.114 12.73 5.969 17.49 19.749 15.39 30.492-1.77 9.086-8.94 18.483-23.72 18.483zm-.9-134.412c-.7 0-1.43.033-2.18.096-27.16 2.263-56.25 41.94-56.25 68.159 0 20.984 7.49 57.004 57.66 62.499 11.63.643 19.82-5.173 21.84-15.517 1.96-10.021-2.95-23.08-15.89-27.543a2.263 2.263 0 01-1.55-2.075 2.223 2.223 0 011.37-2.131c7.63-3.194 25.41-16.412 23.83-24.466-1.01-5.167-10.71-8.097-27.3-8.251a2.535 2.535 0 01-2.26-1.403 2.522 2.522 0 01.22-2.629c6.78-9.267 16.48-31.805 10.85-41.842-1.82-3.255-5.3-4.897-10.34-4.897zm6.35 84.272z" fill="#2F545F"/><path d="M1503.19 356.8c-1.54 26.225-10.27 58.322-51.57 62.807-41.3 4.483-37.29-34.693-14.87-45.785-14.4-9.44-48.15-34.221 3.77-37.289-9.2-24.072-23.06-57.335 14.67-48.256s48 68.523 48 68.523z" fill="#fff"/><path d="M1451.06 337.507c.6-.006.95-.672.59-1.152-8.82-12.059-22.02-44.851-3.51-49.15 27.97 4.727 55.05 43.93 55.05 69.597 0 21.294-7.29 57.194-56.35 63.914-23.81-4.123-22.93-38.283 0-46.185.4-.138.45-.666.06-.829-12.06-5.05-51.96-35.675 4.16-36.195z" fill="url(#paint3_linear)"/><path d="M1455.19 288.277s60.1 60.417 18.57 122.407c12.9-6.294 30.83-23.601 28.95-56.012-1.89-32.411-34.93-63.563-47.52-66.395z" fill="#2F42D9"/><path d="M1442.13 422.953c-14.86 0-22.02-9.392-23.8-18.474-2.09-10.744 2.67-24.524 15.39-30.492-8.63-4.686-25.13-16.998-23.15-27.114 1.39-7.077 10.82-10.729 28.8-11.139-6.98-10.494-16.32-32.627-9.91-44.057 2.83-5.054 8.2-7.288 15.98-6.64 29.55 2.463 59.56 43.83 59.56 71.765 0 22.194-7.91 60.294-60.88 66.097-.68.035-1.34.054-1.99.054zm.82-134.406c-5.04 0-8.51 1.642-10.34 4.897-5.63 10.038 4.08 32.575 10.85 41.842.57.771.65 1.778.23 2.629a2.546 2.546 0 01-2.26 1.403c-16.6.154-26.29 3.083-27.31 8.251-1.58 8.054 16.2 21.272 23.83 24.464a2.221 2.221 0 011.38 2.133 2.276 2.276 0 01-1.55 2.076c-12.95 4.462-17.85 17.519-15.89 27.542 2.02 10.344 10.21 16.151 21.94 15.508 50.06-5.486 57.55-41.508 57.55-62.49 0-26.219-29.09-65.896-56.24-68.159-.76-.065-1.49-.096-2.19-.096zm-6.35 84.272z" fill="#2F545F"/></g><defs><linearGradient id="paint0_linear" x1="1468" y1="329.5" x2="1196" y2="344" gradientUnits="userSpaceOnUse"><stop stop-color="#1A58E1"/><stop offset="1" stop-color="#04D5F5"/></linearGradient><linearGradient id="paint1_linear" x1="1436" y1="154" x2="1270" y2="144" gradientUnits="userSpaceOnUse"><stop stop-color="#1A58E1"/><stop offset="1" stop-color="#04D5F5"/></linearGradient><linearGradient id="paint2_linear" x1="1118" y1="354" x2="1199" y2="346" gradientUnits="userSpaceOnUse"><stop stop-color="#1A58E1"/><stop offset="1" stop-color="#04D5F5"/></linearGradient><linearGradient id="paint3_linear" x1="1503" y1="354" x2="1416.5" y2="348" gradientUnits="userSpaceOnUse"><stop stop-color="#1A58E1"/><stop offset="1" stop-color="#04D5F5"/></linearGradient></defs></svg>