<svg width="1920" height="184" fill="none" xmlns="http://www.w3.org/2000/svg"><mask id="a" maskUnits="userSpaceOnUse" x="0" y="0" width="1920" height="184"><path fill="#07C2F2" d="M0 0h1920v184H0z"/></mask><g mask="url(#a)"><path d="M1428.27 315.626c39.94-1.281 138.98 3.082 81.9-177.724-39.5 11.05-156.53 4.904-156.53 4.904s-81.84 177.833 74.63 172.82z" fill="#fff"/><path d="M1429.56 312.641c40.51-1.162 136.05 1.162 81.48-174.878-21.74 3.221-53.24 3.95-81.12 3.782-24.2.158-47.46-.512-61.8-1.054-4.94 11.07-71.81 166.862 61.44 172.15z" fill="url(#paint0_linear)"/><path d="M1479.85 157.844s43.94 124.297-20.09 152.926c17.82-3.762 64.11-8.016 68.1-79.269-12.36-27.95-25.95-55.86-27.91-83.564-6.61 6.244-17.01 10.617-20.1 9.907z" fill="#2F42D9"/><path d="M1421.93 313.892c-37.26 0-63.41-10.971-77.79-32.657-33.14-49.951 8.07-140.921 8.49-141.837l.32-.679.75.039c1.17.059 117.29 6.008 156.17-4.865l1.04-.286.32 1.025c22.13 70.081 23.02 120.081 2.65 148.632-20.59 28.865-58.4 29.83-80.98 30.402-1.6.039-3.13.078-4.58.128-2.18.059-4.3.098-6.39.098zm-67.59-172.888c-3.71 8.43-39.33 92.348-8.36 139.01 14.74 22.218 42.4 32.844 82.25 31.554 1.46-.049 3-.089 4.6-.128 22.18-.561 59.29-1.517 79.24-29.476 19.85-27.812 18.96-76.818-2.64-145.668-38.48 10.144-145.02 5.2-155.09 4.708z" fill="#2F545F"/><path d="M1476.85 194.215c-.25.069-.53.118-.8.128-1.7.059-3.11-1.143-4.2-3.556a64.288 64.288 0 01-2.13-5.515 54.483 54.483 0 01-3.04 7.042c-.78 1.398-1.64 2.176-2.61 2.383-1.27.128-2.84-.354-3.79-3.309a29.762 29.762 0 01-1.12-8.814c-2.98 3.289-6.44 5.928-10.33 7.869-.53.266-1.19.049-1.45-.483a1.087 1.087 0 01.48-1.458c4.61-2.294 8.58-5.643 11.8-9.946.29-.394.82-.542 1.29-.355.45.187.73.67.66 1.162-.54 3.841-.29 7.682.76 11.405.21.669.7 1.861 1.36 1.792-.01-.01.43-.177 1.05-1.27a52.01 52.01 0 003.92-9.947c.13-.473.57-.798 1.04-.798.49 0 .92.325 1.06.788.82 2.945 1.86 5.82 3.06 8.568.47 1.044 1.23 2.295 2.13 2.265.23-.01.97-.039 1.78-1.664a12.796 12.796 0 001.49-4.629c.22-1.645.16-3.28-.17-4.855a1.1 1.1 0 01.67-1.241c.5-.177 1.06.01 1.33.463a14.8 14.8 0 005 5.16c.71.503 1.27.68 1.71.552.11-.03.36-.099.57-.631.19-.462.26-.955.2-1.506-.02-.207-.15-.818-.37-1.793-.23-.876-.32-1.625-.27-2.255.03-.414.3-.778.68-.926.38-.157.83-.079 1.13.207a18.327 18.327 0 004.69 3.092c.55.247.79.897.53 1.438-.24.552-.89.788-1.43.532a19.562 19.562 0 01-3.02-1.704c.13.601.2.985.22 1.172.09.956-.03 1.803-.36 2.561-.47 1.241-1.33 1.723-1.98 1.91-1.11.316-2.29.03-3.52-.837a17.328 17.328 0 01-3.33-2.728 15.93 15.93 0 01-.15 1.684c-.24 1.921-.81 3.723-1.71 5.348-.73 1.458-1.68 2.374-2.83 2.699zm-57.08-2.443a1.08 1.08 0 01-1.04-.01c-.36-.197-.69-.403-1.04-.61a20.62 20.62 0 01-3.83-3.102c-.44 1.024-1.22 1.782-2.2 2.235-1.13.483-2.36.542-3.69.187a7.3 7.3 0 01-3.12-1.861c-.7-.729-1.33-1.655-1.87-2.767-.49 1.969-.86 3.368-1.08 4.175-.43 2.177-1.6 2.738-2.51 2.807-.91.069-1.78-.423-2.65-1.507a28.745 28.745 0 01-3.64-6.677c-.82 2.57-1.82 4.954-2.98 7.12-.98 2.098-2.31 3.122-3.91 2.994-.65-.039-1.63-.325-2.43-1.497-.45-.6-.8-1.388-1.05-2.324a21.301 21.301 0 01-.65-6.628c0-.029 0-.049.01-.069a453.91 453.91 0 01-3.37 5.378c-.61.945-1.16 1.644-1.69 2.127-.93.807-1.88 1.162-2.87 1.024-1.47-.217-2.65-1.379-3.48-3.467a22.858 22.858 0 01-1.32-4.422 35.933 35.933 0 01-2.4 4.954c-.18.325-.54.532-.91.542-.39.01-.74-.177-.95-.502-1.28-2-2.26-4.196-2.9-6.53a25.213 25.213 0 01-.92-7.15c.01-.601.51-1.083 1.1-1.063.61.009 1.09.502 1.07 1.103-.04 2.186.24 4.382.84 6.529.41 1.507.98 2.945 1.69 4.304a33.87 33.87 0 003.06-8.874c.11-.571.65-.945 1.22-.866.57.088.99.6.93 1.182-.33 3.397.18 6.756 1.49 9.976.36.906.96 2.009 1.76 2.127.11.01.48.059 1.1-.492.37-.335.82-.906 1.31-1.684 1.95-3.083 4.19-6.697 6.73-10.814.29-.473.9-.65 1.42-.404.5.256.73.857.52 1.379a18.648 18.648 0 00-1.29 5.83c-.12 2.039.08 4.038.59 5.959.18.669.41 1.211.71 1.615.39.571.7.591.81.591.77.059 1.41-.946 1.81-1.803 1.63-3.033 2.9-6.45 3.8-10.232.12-.492.55-.827 1.05-.837.51 0 .94.335 1.07.827.86 3.496 2.33 6.677 4.36 9.455.5.62.78.659.78.659.18 0 .41-.472.54-1.142.35-1.261.97-3.673 1.87-7.327.11-.463.51-.788.99-.827.47-.03.91.246 1.08.689.54 1.389.93 2.314 1.17 2.767.47.956.98 1.714 1.52 2.285a4.925 4.925 0 002.14 1.29c.83.227 1.57.197 2.23-.088.63-.276 1.05-.788 1.24-1.586.09-.374.1-.689.03-.945 0-.01-.01-.02-.01-.03-.07-.226-.2-.423-.41-.591a1.078 1.078 0 01-.15-1.526 1.084 1.084 0 011.53-.148c.5.404.85.916 1.06 1.487 1.26 1.694 2.86 3.161 4.77 4.353.3.187.62.374.94.552.52.295.71.955.42 1.477-.07.177-.23.325-.4.423z" fill="#2F545F"/><path d="M1481.78 64.836c-.49-2.029-3.01-12.33-5.26-16.752-.07-.128.08-.266.2-.177 3.74 2.954 8.58 7.337 9.38 13.01.01.088.13.078.14-.01.86-9.996 2.07-14.34.39-21.43-.02-.099.1-.158.15-.07 3.05 5.457 7.73 11.533 6.66 21.913-.01.099.12.148.16.06 3.35-6.441 5.63-16.103 6.03-16.024 1.29.266 3.36 19.037-5.34 26.217-.1.088-.13.226-.05.344 5.6 8.825 24.68 25.833 19.76 54.59-.86 5.023-2.65 9.878-5.4 14.162-13.04 20.297-43.18 36.508-79.97-6.658-1.83.877-16.52 27.448-45.52 26.315-29.01-1.132-35.39-27.359-33.73-39.216 1.64-11.739 9.2-32.854 40.91-49.646a.794.794 0 00.18-1.27c-5.11-4.954-8.58-8.174-8.94-17.127-.01-.334.37-.531.62-.325 2.93 2.453 9.84 8.283 12.06 10.154.08.079.2-.04.13-.128-2.12-2.895-9.35-14.28-4.11-29.407.11-.345.62-.315.72.04 2.69 10.094 4.86 17.835 8.9 23.31.24.325.77.148.78-.265.07-8.667.8-18.23 1.04-21.027.02-.246.35-.315.46-.088 1.01 1.92 3.63 7.465 3.99 13.964.7 5.742 2.04 12.803 7.5 13.847 5.42 1.035 43.82 4.452 67.88 2.088a.32.32 0 00.28-.394z" fill="#fff"/><path d="M1494.28 71.563c4.78-3.94 6.31-11.385 6.5-17.334-.26-.265-.46-.61-.53-1.044a36.18 36.18 0 00-1.41-5.83c-1 3.162-2.84 9.396-5.24 14.005-.04.088-.17.039-.16-.06.16-1.654.17-3.18.09-4.628-.84.345-1.9.128-2.43-.847a32.806 32.806 0 00-1.73-2.886c-.57-.847-1.5-.975-2.26-.66-.13 1.389-.3 2.886-.48 4.55.65 2.305 1.24 4.54 1.66 6.126a1.88 1.88 0 01-1.76 2.354c-2.04.069-5.32.177-9.37.266-24.08 1.615-58.43-1.478-63.54-2.443-4.09-.778-5.86-4.944-6.8-9.405-.61 0-1.22-.276-1.6-.896-1.4-2.255-2.92-5.24-4.18-8.41-.21 3.683-.39 7.957-.42 12.034 0 .414-.54.591-.78.266-1.49-2.009-2.72-4.333-3.81-6.963.27 1.684.71 3.418 1.37 5.2.67 1.793-1.39 3.358-2.92 2.206-.68-.512-1.31-.975-1.88-1.398-.68-.502-1.49-.453-2.1-.089 1.35 3.496 2.98 5.978 3.82 7.12.07.09-.05.207-.13.129l-3.99-3.369c.96 2.915 2.65 6.303 5.59 9.022.97.886.88 2.432-.25 3.112-8.42 5.14-37.07 20.406-37.14 49.636 0 .295 1.05 5.298 1.18 5.574 2.7 5.564 20.03 38.674 59.2 18.485 5.79-5.712 9.03-10.971 9.82-11.355.98 1.162 1.97 2.275 2.95 3.348 1.66-1.221 3.36-2.521 5.08-3.919.14-.109.29-.187.44-.246 1.72-.641 3.27-1.035 7.57 2.471 2.58 2.108 4.6 5.181 6.93 6.52 12.16 6.973 41.58 19.854 60.96-9.907a38.057 38.057 0 001.43-5.772c4.91-28.757-14.16-45.765-19.76-54.59-.05-.147-.02-.285.08-.373z" fill="url(#paint1_linear)"/><path d="M1351.02 126.645s-.89 31.13 29.69 33.514c15.69-.168 35.96-4.363 42.81-21.952-7.84 4.628-44.88 33.258-72.5-11.562z" fill="#fff"/><path d="M1354.32 131.569c1.18 8.794 6.36 26.472 28.77 28.521 14.45-.532 31.87-4.698 39.23-19.274-6.77 4.255-18.95 11.149-32.51 10.617-11.43.433-24.1-4.077-35.49-19.864z" fill="#D6E6EB"/><path d="M1437.41 139.861s12.35 26.325 46.47 20.111c20.82-7.593 34.02-25.547 30.12-53.3-.26 10.174-11.55 67.087-76.59 33.189z" fill="#fff"/><path d="M1440.76 141.535c4.57 6.796 17.93 21.815 44.6 16.959 6.7-2.442 12.61-5.968 17.41-10.538 8.21-8.607 12.75-20.593 11.78-35.867-1.61 7.75-5.61 19.243-14.21 27.349-10.56 11.099-28.76 17.126-59.58 2.097z" fill="#D6E6EB"/><path d="M1474.37 162.375c-15.04 0-30.42-8.982-45.81-26.729-.29.364-.65.837-1.01 1.3-5.24 6.786-18.95 24.513-42.62 24.513-.62 0-1.24-.01-1.88-.04-11.17-.433-20.03-4.481-26.33-12.015-7.36-8.804-9.55-20.642-8.46-28.462 1.61-11.453 9.08-33.169 41.11-50.266-4.99-4.826-8.59-8.371-8.97-17.57-.03-.59.3-1.142.83-1.408a1.498 1.498 0 011.61.187c1.72 1.448 4.84 4.068 7.55 6.353-2.59-5.535-4.97-14.468-1.23-25.252.22-.61.79-1.014 1.45-.984.66.02 1.22.462 1.39 1.093 2.5 9.366 4.46 16.151 7.53 21.164.16-8.076.81-16.427 1.03-18.958a1.33 1.33 0 011.07-1.212c.59-.118 1.18.158 1.47.69 1.11 2.127 3.74 7.77 4.11 14.418.71 5.82 2.06 11.956 6.59 12.822 4.87.926 42.29 4.383 66.67 2.167-.79-3.19-2.99-11.759-4.96-15.62a1.265 1.265 0 01.32-1.536 1.209 1.209 0 011.54-.01c2.95 2.324 6.26 5.28 8.22 8.962.05-.482.1-.945.15-1.398.65-5.998 1.04-9.622-.2-14.871 0 0-.11-.71-.03-.926.14-.404.75-.463.75-.463.55-.216 1.16 0 1.46.512.4.72.82 1.438 1.26 2.177 2.34 3.969 5.14 8.716 5.62 15.344 1.18-3.014 2.15-6.106 2.83-8.243 1.11-3.546 1.29-4.078 2.4-3.851.86.177 1.2 1.093 1.44 2.058 1.07 4.333 1.66 18.771-5.73 25.596.92 1.379 2.16 2.964 3.56 4.776 7.51 9.662 20.08 25.833 15.95 49.991-.91 5.348-2.78 10.252-5.56 14.576-8.04 12.507-19.92 20.169-32.61 21.026-.82.059-1.66.089-2.51.089zm-45.47-29.733l.55.65c16.04 18.821 31.95 27.822 47.3 26.798 17.02-1.153 27.28-14.379 30.9-20.012 2.62-4.068 4.38-8.696 5.24-13.749 3.96-23.193-7.77-38.28-15.52-48.257-1.65-2.117-3.08-3.949-4.09-5.554a1.38 1.38 0 01.3-1.793c6.06-5.003 6.48-16.328 5.9-21.725-1.05 3.348-2.76 8.775-4.91 12.891l-.42.808-.97-.217a1.224 1.224 0 01-.86-1.28c.75-7.239-1.4-12.28-3.81-16.585.2 3.22-.13 6.284-.56 10.223-.2 1.822-.41 3.84-.61 6.165l-.08.985-2.04.138-.2-1.044c-.54-3.841-3.12-7.081-5.94-9.72 1.79 5.012 3.41 11.64 3.78 13.226.1.404.01.827-.23 1.152-.23.335-.61.542-1.02.581-24.54 2.413-63.23-1.162-68.2-2.107-6.74-1.28-7.85-10.41-8.38-14.793-.25-4.225-1.44-8.006-2.51-10.636-.31 4.264-.74 11.237-.79 17.668 0 .66-.43 1.25-1.06 1.458-.63.207-1.31-.01-1.71-.542-3.71-5.032-5.86-11.769-8.43-21.233-3.54 13.295 2.62 23.163 4.7 25.99l.58.788-.72.797c-.44.424-1.13.434-1.6.04-1.93-1.635-7.43-6.274-10.75-9.06.67 7.12 3.62 9.976 8.28 14.496l.22.217c.43.413.64 1.024.55 1.625a1.92 1.92 0 01-.99 1.418c-31.49 16.663-38.79 37.739-40.34 48.818-1 7.101 1.07 18.496 7.97 26.739 5.88 7.032 14.19 10.813 24.71 11.227 23.73.945 37.47-16.91 42.66-23.617 1.37-1.762 1.82-2.334 2.33-2.58l.77-.394zm-35.47-69.224c0 .01.01.01.01.02 0-.01 0-.01-.01-.02zm99.19-2.57c0 .01-.01.01-.01.02 0 0 0-.01.01-.02z" fill="#2F545F"/><path d="M1388.06 152.733c-3.46 0-6.81-.463-10.05-1.389-20.91-5.968-29.34-28.905-29.69-29.88l2.09-.748c.08.226 8.41 22.848 28.23 28.501 14.17 4.038 30.75-1.379 49.29-16.082l1.37 1.733c-14.97 11.887-28.79 17.865-41.24 17.865zm84.66-.581c-10.6 0-22.42-4.107-35.31-12.291l1.19-1.871c18.22 11.572 34.12 14.763 47.23 9.454 20.94-8.469 27.82-36.064 27.89-36.34l2.15.522c-.28 1.182-7.19 28.974-29.19 37.877-4.39 1.763-9.05 2.649-13.96 2.649z" fill="#2F545F"/><path d="M1373.21 107.726c-1.25 8.873 1.24 27.25 16.64 29.171 15.41 1.91 33.54-9.878 33.66-18.88.33-24.01-9.66-23.902-24.69-24.61-14.99-.71-23.47-.887-25.61 14.319z" fill="#fff"/><path d="M1393.33 138.207c-1.2 0-2.41-.069-3.61-.217-5.08-.63-9.21-2.994-12.3-7.012-5.74-7.495-6.03-18.239-5.31-23.41 2.32-16.417 12.05-15.964 26.76-15.275l1.03.05c14.54.67 25.05 1.152 24.72 25.684-.05 3.358-2.29 7.14-6.31 10.646-5.71 4.984-15.31 9.534-24.98 9.534zm-1.94-43.924c-10.45 0-15.47 2.176-17.09 13.59-.89 6.264.27 15.738 4.88 21.756 2.7 3.535 6.34 5.603 10.81 6.165 10.08 1.25 21.01-3.674 26.88-8.785 3.48-3.043 5.5-6.323 5.54-9.002.31-22.385-8.32-22.779-22.61-23.439l-1.03-.049c-2.71-.138-5.18-.236-7.38-.236z" fill="#2F545F"/><path d="M1439.64 107.233c-.89 13.847 8.45 32.461 28.34 30.54 19.9-1.92 25.01-20.031 21.72-32.362-3.29-12.34-7.72-27.093-37.22-25.615-10.33 1.467-12.36 19.874-12.84 27.437z" fill="#fff"/><path d="M1465.21 139.014c-6.72 0-12.69-2.364-17.39-6.913-6.22-6.028-9.87-15.817-9.28-24.937.64-9.986 3.28-26.965 13.79-28.462 30.99-1.555 35.3 14.615 38.46 26.424 2.14 7.997.69 16.949-3.76 23.38-4.17 5.998-10.71 9.582-18.92 10.38-1 .079-1.95.128-2.9.128zm-8.76-58.214c-1.25 0-2.55.03-3.91.099-9.19 1.32-11.31 18.909-11.79 26.403-.54 8.499 2.83 17.609 8.61 23.203 4.88 4.727 11.29 6.855 18.52 6.165 7.54-.729 13.53-3.988 17.31-9.435 4.1-5.899 5.42-14.162 3.45-21.538-2.98-11.158-6.66-24.897-32.19-24.897z" fill="#2F545F"/><path d="M1431.73 124.547c11.79 0 4.42 36.311-.75 36.538-5.19.216-14.61-36.538.75-36.538z" fill="#fff"/><path d="M1433.01 124.724c-11.68 2.383-5.6 30.225-.64 35.494 4.72-5.24 9.66-33.12.64-35.494z" fill="#FF7B38"/><path d="M1432.17 124.547c-.8-.325 4.39 30.067-1.19 36.538 4.85-7.859 12.3-31.988 1.19-36.538z" fill="#E76524"/><path d="M1430.92 162.187c-1.18 0-2.32-.915-3.48-2.777-3.83-6.214-7.71-23.409-3.17-31.554 1.62-2.886 4.19-4.412 7.45-4.412 2.67 0 7.18 1.654 7.41 12.714.21 9.671-3.5 25.832-8.12 26.029h-.09zm.81-37.64v1.103c-6.01 0-7.28 6.608-7.29 12.153-.01 11.138 4.77 22.169 6.48 22.178 1.72-.069 6.26-11.965 6.01-23.774-.09-3.939-.88-10.547-5.21-10.547v-1.113h.01zm-55.45-16.447c0-2.334 1.98-10.902 9.45-10.252 7.46.65 6.06 9.947 4.15 12.458-1.92 2.502-4.75 6.283-9.64 4.964-4.89-1.32-3.45-6.254-3.45-6.254s-.51-.502-.51-.916zm67.88-3.063c.23-1.172 1.38-8.696 6.22-8.273 4.84.434 7.56 5.151 7.36 10.164-.21 5.013-2.13 9.455-6.79 9.651-4.66.197-5.89-3.102-6.5-10.744-.23-.286-.33-.63-.29-.798z" fill="#2F545F"/><path d="M1423.51 64.255s8.79 8.4 10.36 19.322c.02.148.22.158.27.03 2.94-7.544 5.72-11.818 10.96-17.944-7.07-.354-16.02-1.103-21.59-1.408z" fill="#2F42D9"/><path d="M1434.01 84.808c-.05 0-.09 0-.14-.01a1.233 1.233 0 01-1.09-1.053c-1.5-10.41-9.95-18.604-10.02-18.693l-2.16-2.068 2.98.168c2.4.128 5.41.344 8.64.571 4.19.296 8.92.63 12.95.827l2.26.109-1.47 1.713c-5.49 6.421-8.01 10.538-10.78 17.629-.19.492-.67.807-1.17.807zm-.9-1.605s0 .01-.01.01c.01 0 .01-.01.01-.01zm-6.91-17.678c2.39 2.777 6.34 8.125 8.12 14.743 2.2-5.052 4.58-8.844 8.51-13.62-3.51-.197-7.33-.473-10.78-.719-2.08-.138-4.06-.286-5.85-.404z" fill="#2F545F"/><path d="M1512.93 103.708s64.84 60.498 29.07 156.895c-.09.256-.44.295-.57.059-16.3-29.112-38.74-77.852-41.48-110.627 5.54-6.057 19.94-23.223 12.98-46.327z" fill="#fff"/><path d="M1514.37 105.155c.43 2.955.67 6.392.4 10.174.29 16.427-9.34 28.599-14.18 33.996.64 4.206 1.57 10.105 2 11.237 1.86-1.526 6.26-2.531 6.51-11.443.37 4.333 4.58 26.492 8.03-2.453 2.01 2.009 9.66 15.945 5.47-14.122 1.69 3.013 11.47 20.218 3.76-10.922.43.207 1.04.502 1.69.798-5.9-8.864-11.21-14.724-13.68-17.265z" fill="#3958D7"/><path d="M1542.87 151.837c-3.37-8.234-7.99-19.146-10.47-22.691-1.8-.345-3.28-.926-4.36-1.398.86 4.569 1.48 9.316.44 9.818 1.06 6.569 1.07 11.818-4.45 1.95.15 2.61.19 5.122-.03 6.963.5 7.987.1 15.344-5.88 5.811-2.11 6.135-4.87 28.728-8.89 4.372-.98 3.566-2.89 6.737-4.95 8.598l3.03 11.08s3.81-5.191 4.56-9.278c1.38 3.565 8.04 25.498 10.55-5.623 1.51 3.929 6.83 13.729 7.77 4.895-.06-.975-.14-2.009-.23-3.142.11.128.24.276.37.423.02-2.009-.09-4.569-.37-7.8 2.46 2.679 7.28 10.341 8.04-.63 0-.049 0-.098-.01-.157.01.009.01.009.01.019.12-1.891.13-4.303-.01-7.396 2.34 2.59 3.22 3.94 4.88 4.186z" fill="#3958D7"/><path d="M1538.17 155.618c.01.897 0 1.803-.04 2.679.24 6.776-.19 16.654-7.98 4.599.04 1.32.05 2.679-.02 3.94.3 7.347-.53 16.535-7.66 2.511-1.22 6.126-1.88 28.945-10.83 5.052-1.06 3.782-2.18 6.402-3.4 8.145 1.48 4.964 4.3 14.044 5.76 15.698 2.25-3.102 4.13-6.874 4.13-10.547 2.07 5.741 9.11 26.551 11.15-3.575 1.77 2.245 7.71 9.277 8.58 2.255a57.94 57.94 0 00-.48-4.107c.16.197.36.433.55.68a53.192 53.192 0 00-.55-5.112c2.46 3.053 10.02 12.557 11.08 5.338-.16-1.743-.45-3.841-.95-6.401.3.157.55.295.78.423a68.37 68.37 0 00-.78-4.855c1.07.581 1.73.945 2.16 1.182-.74-4.127-2.03-10.095-3.93-14.615-1.36.876-6.1-.109-7.57-3.29z" fill="#0F94EB"/><path d="M1552.47 208.268c.13-2.403.39-6.372.47-11.069-.1-6.195-.65-13.119-2.29-19.313-1.22-.453-2.08-.887-2.66-1.231.37 2.373.63 5.082.33 7.002.6 6.254-.51 12.104-10.62-.64.05 1.3.07 2.649-.03 3.811.31 5.653.1 12.971-8.38 1.901-.61 5.18-.98 31.259-10.87 3.762-.76 3.28-1.76 6.411-3.27 8.696 1.9 4.885 5.63 14.29 6.66 15.886 1.61-1.32 5.55-5.269 5.47-11.395 1.4 4.806 6.77 21.095 8.48-1.133 2.25 3.861 11.83 16.91 11.39-4.993 1.12 2.65 3.3 7.82 5.32 8.716z" fill="#0F94EB"/><path d="M1514.75 119.613s38.87 65.393 27.25 140.989c4.77-13.295 22.28-65.472.62-110.666s-28.93-44.781-28.93-44.781 1.83 7.574 1.06 14.458z" fill="#2F42D9"/><path d="M1541.89 262.602c-.51 0-.97-.266-1.23-.719-17.52-31.308-38.94-79.181-41.62-111.07l-.04-.483.33-.355c12.98-14.191 17.38-29.84 12.73-45.263l-1.18-3.929 2.99 2.797c.17.157 16.52 15.6 28.22 42.673 10.79 24.975 19.75 65.285 1.15 115.423-.2.522-.68.886-1.23.926h-.12zm-40.59-111.504c2.77 31.032 23.29 77.221 40.46 108.185 17.55-48.661 8.84-87.749-1.65-112.075-8.6-19.943-19.75-33.465-24.9-39.088 2.25 11.119.94 26.541-13.91 42.978z" fill="#2F545F"/><path d="M1512.86 168.806c-.89 0-2.32-.325-3.88-7.534-1.93 3.939-5.54 6.135-5.74 6.263l-1.14-1.901c.06-.039 5.77-3.545 5.87-9.296 0 0 .03-.867.02-1.015-.16-1.979 1.62-2.235 2.05-.433.14.581.24 1.26.24 1.26 1.18 7.377 2.24 9.603 2.68 10.243.5-.768 1.67-3.644 2.96-14.389.07-.581.48-1.054 1.04-1.191.57-.148 1.14.069 1.47.541 2.85 4.068 3.87 4.511 4.18 4.511.11-.118 1.6-1.822-1.33-17.481 0 0-.06-.374.2-1.074.09-.246.61-.295.61-.295.57-.187 1.18.069 1.43.611 1.32 2.777 3.66 5.761 4.67 6.303.22-.778.44-4.019-3.29-16.496-.16-.552.05-1.123.51-1.438a1.258 1.258 0 011.51.069c2.74 2.206 6.26 3.368 6.29 3.378l-.68 2.107c-.12-.039-2.37-.778-4.78-2.226 4.09 14.31 2.83 16.191 1.29 16.782-1.5.581-3.26-1.073-4.7-2.974 1.85 11.739.68 14.122-.92 14.792-1.8.758-3.76-1.192-5.57-3.585-1.72 13.246-3.35 14.438-4.86 14.468h-.13zm5 17.628c-2.82 0-4.94-5.249-6.07-8.814-1.27 3.378-3.22 7.042-3.32 7.248l-1.95-1.044c.04-.069 3.44-6.5 4.07-9.848.11-.591.62-1.034 1.22-1.044.64.01 1.13.394 1.25.985 1.31 5.742 3.81 10.292 4.78 10.292h.02c.02 0 2.21-.355 3.1-15.531.04-.601.5-1.084 1.1-1.143l.93-.098.35.985c1.15 4.254 3.99 7.878 4.79 7.731.02 0 1.94-.985.33-14.113-.07-.591.28-1.152.85-1.33l.88-.276.55.857c2.23 4.146 4.68 6.609 5.26 6.412.02-.01 1.7-.857.42-12.508-.07-.62.28-1.211.86-1.438a1.362 1.362 0 011.6.453c2.1 2.797 3.76 4.255 4.95 4.334.28.029.65-.02 1.09-.473l1.57 1.556c-.8.807-1.76 1.201-2.83 1.123-1.71-.119-3.35-1.448-4.78-3.024.81 9.721-.65 11.602-2.23 12.094-1.87.581-3.93-1.487-5.55-3.742.83 10.134-.88 11.916-2.54 12.241-2.12.424-4.26-2.285-5.72-5.16-1.03 11.296-2.98 13.098-4.8 13.246-.05.029-.12.029-.18.029zm-6.95-12.015s0 .01 0 0c0 .01 0 0 0 0zm1.85-.029v.01-.01zm12.79 31.731c-2.68 0-5.2-5.2-6.98-10.075-1.1 4.54-3.45 7.584-3.57 7.751l-1.75-1.359c.04-.049 3.68-4.786 3.67-10.971v-.956l1.02-.246c.58-.079 1.14.256 1.31.837 2.45 8.086 5.33 12.931 6.27 12.813.02 0 2.06-.551 2.48-15.56.02-.581.41-1.084.97-1.241.55-.158 1.12.059 1.44.532 2.8 4.264 4.91 5.741 5.38 5.584.01-.01 1.47-.867-.1-10.853-.09-.581.21-1.143.75-1.379a1.224 1.224 0 011.48.354c6.39 7.889 8.12 7.909 8.5 7.722.08-.04 1.78-1.005-.78-12.626-.12-.571.15-1.152.66-1.428a1.276 1.276 0 011.54.246 34.795 34.795 0 003.7 3.349l-1.35 1.753c-.05-.04-.78-.611-1.78-1.497 1.43 7.475 1.09 11.168-1.02 12.192-2.26 1.083-5.26-1.398-9.05-5.771.72 6.204.17 9.247-1.75 9.996-1.98.768-4.4-1.517-6.46-4.215-.58 12.744-2.48 14.792-4.3 15.028-.1.01-.19.02-.28.02z" fill="#2F545F"/><path d="M1353.58 107.174s-69.92 61.001-34.15 157.397c.08.256.44.296.57.059 16.3-29.111 39.64-78.846 42.39-111.621-5.54-6.067-15.77-22.73-8.81-45.835z" fill="#fff"/><path d="M1352.78 107.933c-.42 2.954-2.65 9.011-2.37 12.793-.3 16.427 7.44 26.827 12.29 32.233-.64 4.206-1.58 10.105-2 11.238-1.86-1.527-6.26-2.532-6.51-11.444-.37 4.333-4.58 26.492-8.04-2.453-2 2.009-9.66 15.945-5.46-14.122-1.7 3.013-10.76 20.731-3.03-10.41-.44.207-1.08.768-1.74 1.064 5.91-8.864 14.4-16.358 16.86-18.899z" fill="#3958D7"/><path d="M1319.69 156.032c3.37-8.233 9.07-17.668 11.56-21.213 1.81-.345 1.6-2.265 2.67-2.728-.85 4.569-1.47 9.316-.43 9.819-1.06 6.569-1.07 11.818 4.45 1.95-.16 2.609-.2 5.121.03 6.962-.5 7.988-.1 15.344 5.88 5.811 2.11 6.136 4.87 28.728 8.88 4.373.99 3.565 4.3 7.869 6.36 9.74l-2.8 11.493s-5.44-6.736-6.19-10.833c-1.38 3.565-8.03 25.497-10.54-5.624-1.51 3.93-6.83 13.729-7.77 4.895.05-.975.13-2.009.23-3.142-.12.128-.24.276-.37.424-.02-2.009.09-4.57.37-7.8-2.46 2.679-7.29 10.341-8.04-.631 0-.049 0-.098.01-.157-.01.01-.01.01-.01.02-.12-1.891-.13-4.304.01-7.397-2.34 2.6-2.64 3.792-4.3 4.038z" fill="#3958D7"/><path d="M1323.54 158.455c-.01.896-.04 4.166 0 5.042-.23 6.776-.09 14.606 7.71 2.541-.04 1.32-.06 4.009 0 5.269-.29 7.347 1.01 14.999 8.14.965 1.22 6.126.79 29.319 9.73 5.437 1.05 3.781 4.25 8.194 5.47 9.937-1.47 4.963-3.86 12.556-5.31 14.221-2.25-3.102-4.13-6.874-4.13-10.548-2.07 5.742-9.11 26.551-11.15-3.575-1.77 2.246-7.71 9.277-8.59 2.255.1-1.201.25-2.55.49-4.106-.16.197-.36.433-.55.679.07-1.418.24-3.092.55-5.111-2.47 3.053-10.02 12.557-11.08 5.338.15-1.743.45-3.841.94-6.402-.29.158-.54.296-.78.424.18-1.409.43-3.004.78-4.855-1.06.581-2.58 1.034-3 1.27.74-4.127 2.87-10.173 4.78-14.704 1.36.877 4.55-.886 6-4.077z" fill="#0F94EB"/><path d="M1309.59 213.596c-.13-2.403.07-8.401 0-13.098.1-6.195.87-12.074 2.52-18.259 1.22-.453.87-1.605 1.46-1.95-.38 2.373-.35 5.023-.05 6.943-.6 6.254-.08 12.34 10.02-.404-.06 1.3-.11 3.191 0 4.353-.31 5.653-.34 11.769 8.15.699.6 5.181 1.73 31.407 11.62 3.91.76 3.28 2.21 8.056 3.72 10.341-1.9 4.885-4.53 12.98-5.56 14.576-1.61-1.32-5.56-5.269-5.47-11.395-1.41 4.806-6.77 21.095-8.48-1.133-2.25 3.861-11.84 16.91-11.39-4.993-1.12 2.64-4.52 9.504-6.54 10.41z" fill="#0F94EB"/><path d="M1351.02 126.645s-42.6 48.591-31.59 137.926c-6.33-20.652-18.61-56.618-2.8-99.784 15.81-43.165 37.81-57.11 37.81-57.11s-4.21 7.445-3.42 18.968z" fill="#2F42D9"/><path d="M1319.53 266.068h-.11a1.412 1.412 0 01-1.23-.925c-18.62-50.158-8.27-90.606 3.7-115.709 12.96-27.192 30.59-42.752 30.76-42.91l2.9-2.531-1.11 3.684c-7.65 25.349 5.8 41.737 8.57 44.771l.32.354-.04.483c-2.63 31.337-24.56 79.959-42.53 112.065-.25.453-.71.718-1.23.718zm31.77-155.181c-5.46 5.506-17.77 19.234-27.45 39.571-11.62 24.434-21.7 63.64-4.18 112.292 17.61-31.752 38.64-78.669 41.38-109.19-3.32-3.762-15.15-19.224-9.75-42.673z" fill="#2F545F"/><path d="M1348.57 172.282h-.14c-1.52-.03-3.14-1.211-4.87-14.457-1.81 2.383-3.76 4.333-5.56 3.575-1.6-.68-2.78-3.053-.93-14.793-1.43 1.901-3.2 3.556-4.69 2.974-1.51-.581-2.76-2.403 1.09-16.092-.64.699-.84 1.074-.85 1.074l-1.98-.985c.08-.158.83-1.605 3.86-4.048a1.264 1.264 0 011.51-.069c.47.315.68.887.51 1.438-3.72 12.478-3.5 15.728-3.29 16.506 1.02-.542 3.35-3.516 4.66-6.293l.42-.877 1.02.256c.58.188.93.778.82 1.379-2.94 15.649-1.44 17.363-1.26 17.501.23-.02 1.25-.453 4.1-4.53.33-.473.91-.68 1.46-.542.57.148.99.61 1.05 1.201 1.29 10.745 2.47 13.621 2.97 14.379.43-.64 1.48-2.826 2.65-10.055 0 0 .1-.887.16-.985.25-.404.82-.561 1.1-.552.26.01.88.306.95.542.06.177.13 1.133.13 1.133.22 5.672 6.39 9.316 6.45 9.356l-1.1 1.91c-.23-.128-4.24-2.491-6.33-6.598-1.58 7.307-3.03 7.652-3.91 7.652zm-5.26-16.535c.01.009.01.009 0 0 .01.009.01 0 0 0zm-3.41-13.69l-.02.04c0-.01.01-.03.02-.04zm3.66 47.854c-.05 0-.12 0-.18-.01-1.82-.148-3.77-1.95-4.81-13.256-1.47 2.876-3.59 5.584-5.71 5.17-1.67-.325-3.38-2.097-2.54-12.241-1.63 2.255-3.69 4.313-5.56 3.742-1.53-.472-2.95-2.275-2.28-11.325-.91 1.418-1.92 2.639-3.3 2.806-.9.109-1.74-.236-2.54-1.034l1.56-1.556c.16.168.49.424.7.404.71-.089 1.76-1.851 2.45-3.014.41-.689.79-1.339 1.2-1.881a1.345 1.345 0 011.59-.453c.58.227.94.818.87 1.438-1.28 11.641.39 12.498.41 12.498.64.197 3.04-2.265 5.26-6.411l.44-.808.99.217c.57.177.94.738.86 1.329-1.62 13.128.29 14.103.31 14.113.83.177 3.66-3.477 4.8-7.731l.24-.916 1.05.03c.6.059 1.05.541 1.09 1.142.9 15.167 3.08 15.521 3.1 15.521h.02c.97 0 3.47-4.55 4.78-10.301.14-.581.64-.985 1.23-.985h.03c.61.01 1.11.443 1.22 1.044.62 3.348 4.33 10.281 4.36 10.35l-1.94 1.044c-.12-.226-2.27-4.234-3.62-7.78-1.12 3.575-3.26 8.854-6.08 8.854zm-7.69 19.677c-.09 0-.17-.01-.27-.02-1.82-.246-3.73-2.285-4.31-15.028-2.05 2.698-4.49 4.983-6.46 4.215-1.92-.749-2.48-3.792-1.74-9.996-3.78 4.372-6.81 6.854-9.05 5.771-2.02-.975-2.41-4.373-1.21-11.159-.03.05-.04.079-.05.089l-1.98-.975c.03-.069.85-1.714 2.79-3.742a1.26 1.26 0 011.53-.246c.51.275.79.856.66 1.428-2.56 11.621-.84 12.596-.78 12.635.38.187 2.11.167 8.49-7.721a1.27 1.27 0 011.5-.355c.53.237.84.808.75 1.379-1.58 9.977-.11 10.843-.1 10.843.47.168 2.57-1.31 5.38-5.574.31-.483.89-.689 1.45-.532.56.158.94.66.95 1.251.42 14.999 2.46 15.541 2.48 15.551h.03c1 0 3.8-4.806 6.24-12.803l.27-.916 1.04.079c.6.088 1.02.59 1.02 1.201 0 6.185 3.8 11.237 3.84 11.286l-1.75 1.35c-.14-.178-2.6-3.428-3.73-8.076-1.78 4.855-4.3 10.065-6.99 10.065zm-4.67-17.708z" fill="#2F545F"/></g><path d="M1574.22 74.858c7.13 4.899 17.07 5.024 25.49 2.4 8.41-2.614 15.69-7.6 22.89-12.41 7.2-4.824 14.65-9.634 23.22-11.82L1625.85 16s-19.15 6.959-31.94 20.373c-10.35 10.852-33.91 5.916-33.91 5.916l14.22 32.569z" fill="#FAFAFA"/><path d="M1576.16 75.757s-.11-.176-.28-.553c-.19-.402-.44-.955-.76-1.658-.68-1.507-1.65-3.668-2.9-6.444-2.5-5.652-6.09-13.778-10.52-23.814l-.18-.414.48.087a65.49 65.49 0 0015.75.955c2.81-.213 5.69-.666 8.54-1.482 2.84-.842 5.58-2.186 7.9-4.107 1.13-.968 2.23-2.06 3.34-3.166 1.13-1.092 2.33-2.135 3.55-3.177 2.47-2.06 5.14-3.982 7.96-5.84 5.66-3.643 11.86-6.922 18.61-9.547l.3-.113.15.276c.82 1.52 1.71 3.153 2.59 4.798 6.13 11.355 11.99 22.258 17.37 32.23l.18.34-.39.1c-5.59 1.432-10.56 3.919-15.06 6.582-4.51 2.675-8.6 5.539-12.55 8.126-3.95 2.588-7.78 4.899-11.57 6.682-3.78 1.784-7.48 3.078-10.97 3.718-3.48.691-6.71.78-9.48.553-2.77-.239-5.09-.816-6.9-1.457-1.82-.628-3.08-1.356-3.94-1.859-.39-.264-.69-.465-.92-.615-.2-.126-.31-.189-.3-.201.07-.088 1.63 1.268 5.24 2.5 1.79.615 4.1 1.142 6.85 1.356 2.74.188 5.93.063 9.37-.64 3.44-.667 7.1-1.96 10.83-3.757 3.74-1.796 7.54-4.107 11.48-6.707 3.93-2.587 8.01-5.476 12.54-8.177 4.53-2.688 9.55-5.225 15.21-6.694l-.2.44c-5.39-9.974-11.27-20.863-17.41-32.218-.88-1.645-1.77-3.278-2.59-4.798l.44.163c-6.66 2.588-12.86 5.866-18.48 9.47-2.78 1.834-5.44 3.744-7.9 5.779-1.21 1.03-2.4 2.06-3.52 3.14-1.1 1.092-2.18 2.172-3.38 3.19-2.4 1.984-5.25 3.354-8.15 4.208-2.9.829-5.83 1.268-8.69 1.482a66.142 66.142 0 01-15.91-1.03l.3-.327c4.34 10.061 7.85 18.2 10.29 23.853 1.2 2.8 2.12 4.986 2.77 6.506.3.728.53 1.294.71 1.708.13.34.2.553.2.553z" fill="#313131"/><path d="M1588.21 73.408c-.18.075-2.84-5.25-5.94-11.87-3.09-6.632-5.46-12.058-5.28-12.133.18-.075 2.84 5.237 5.93 11.87 3.1 6.619 5.46 12.057 5.29 12.133zm8.65-.867c-.18.088-3.18-4.948-6.71-11.254-3.53-6.293-6.25-11.468-6.09-11.555.18-.088 3.18 4.948 6.71 11.254 3.53 6.292 6.26 11.467 6.09 11.555zm6.42-2.387c-.1.038-.79-1.218-1.89-3.253-1.1-2.034-2.65-4.848-4.41-7.913a361.422 361.422 0 00-4.67-7.787c-1.23-1.985-1.97-3.216-1.89-3.266.08-.05.98 1.093 2.31 3.027a116.56 116.56 0 014.86 7.712 120.5 120.5 0 014.24 8.014c1 2.11 1.54 3.441 1.45 3.466zm6.69-5.324c-.08.05-.88-1.081-2.13-2.927-1.38-2.023-3.07-4.46-4.93-7.16-1.91-2.675-3.64-5.087-5.06-7.084-1.31-1.809-2.11-2.939-2.03-2.99.09-.05 1.02.98 2.43 2.726 1.42 1.746 3.3 4.208 5.26 6.996 1.95 2.789 3.62 5.376 4.77 7.285 1.14 1.897 1.77 3.103 1.69 3.153zm6.47-4.435c-.08.05-1.04-.992-2.5-2.738-1.47-1.746-3.41-4.22-5.47-6.996a152.282 152.282 0 01-5.07-7.26c-1.24-1.897-1.93-3.102-1.85-3.153.09-.05.94 1.068 2.27 2.902 1.47 2.01 3.25 4.446 5.23 7.134 2 2.676 3.8 5.1 5.3 7.097 1.35 1.821 2.17 2.964 2.09 3.014zm5.36-4.546c-.08.05-1.03-.993-2.5-2.739-1.46-1.746-3.41-4.22-5.47-6.996a160.012 160.012 0 01-5.07-7.26c-1.23-1.896-1.92-3.102-1.84-3.152.08-.05.93 1.067 2.27 2.901 1.46 2.01 3.24 4.446 5.22 7.134 2 2.676 3.81 5.1 5.3 7.097 1.34 1.821 2.17 2.952 2.09 3.014zm5.88-3.731c-.16.1-3.68-4.258-7.88-9.747-4.19-5.489-7.45-10.023-7.29-10.123.17-.1 3.68 4.258 7.88 9.746 4.18 5.477 7.45 10.011 7.29 10.124zm5.02-1.796c-.08.038-.88-1.23-2.05-3.354-1.23-2.298-2.77-5.15-4.46-8.302-1.76-3.228-3.41-6.117-4.72-8.152-1.29-2.047-2.2-3.24-2.1-3.303.07-.05 1.13 1.068 2.53 3.065 1.42 1.984 3.16 4.86 4.91 8.101 1.75 3.24 3.23 6.23 4.29 8.39 1.05 2.173 1.69 3.517 1.6 3.555z" fill="#313131"/><path d="M1645.63 159.998c12.05-9.696 24.41-13.739 39.06-12.03-2.39-6.814-6.48-19.972-8.86-26.797-18.13-3.842-34.15 4.792-46.56 20.151 5.78 6.992 10.59 11.695 16.36 18.676z" fill="#ECECEC"/><path d="M1648.63 159.998c0 .011-.1-.089-.29-.313-.21-.246-.5-.569-.86-.983-.77-.871-1.87-2.111-3.27-3.697-2.85-3.206-7.14-7.64-12.08-13.538l-.13-.145.12-.145c2.13-2.603 4.56-5.328 7.37-7.953 2.82-2.592 6.03-5.094 9.63-7.216 3.6-2.122 7.59-3.853 11.88-4.892a39.315 39.315 0 0113.48-.894c.74.045 1.47.157 2.19.291l2.17.368.13.023.05.156c3.28 9.505 6.04 18.665 8.84 26.796l.14.402-.38-.044c-6.06-.693-11.74-.414-16.65.703-4.94 1.05-9.08 2.849-12.38 4.569-3.31 1.742-5.78 3.451-7.45 4.635-.82.604-1.45 1.073-1.91 1.408-.2.145-.36.257-.49.346-.05.101-.11.134-.11.123 0-.011.06-.056.17-.145.12-.101.28-.235.48-.391.41-.335 1.02-.849 1.83-1.463 1.66-1.229 4.1-2.983 7.41-4.781 3.3-1.776 7.46-3.63 12.42-4.714 4.94-1.161 10.66-1.463 16.78-.793l-.24.358c-2.83-8.143-5.61-17.291-8.88-26.786l.19.179c-.71-.123-1.43-.246-2.15-.369a17.86 17.86 0 00-2.17-.29c-4.56-.48-9.09-.156-13.33.871-4.25 1.017-8.21 2.726-11.78 4.814-3.56 2.089-6.75 4.558-9.58 7.116-2.8 2.602-5.23 5.283-7.37 7.863v-.29c4.89 5.92 9.15 10.399 11.95 13.66 1.42 1.62 2.49 2.905 3.21 3.787.33.425.59.76.8 1.005.17.235.26.358.26.369z" fill="#313131"/><path d="M1641.34 138.641c.11-.111 2.63 2.916 5.64 6.758 3.02 3.843 5.38 7.048 5.27 7.149-.11.112-2.63-2.915-5.65-6.758-3.01-3.842-5.36-7.037-5.26-7.149zm4.6-4.579c.12-.101 2.4 3.172 5.1 7.305 2.7 4.132 4.81 7.562 4.69 7.651-.11.1-2.4-3.172-5.1-7.305-2.7-4.122-4.8-7.551-4.69-7.651zm6.38-3.832c.07-.044.54.838 1.31 2.257.77 1.418 1.86 3.373 3.06 5.518 1.21 2.144 2.29 4.121 2.99 5.596.71 1.474 1.08 2.424 1.02 2.457-.07.045-.54-.838-1.32-2.245-.9-1.586-1.94-3.44-3.1-5.496-1.21-2.144-2.26-4.144-2.95-5.629-.7-1.475-1.07-2.424-1.01-2.458zm13.38 14.912c-.05.034-.55-.827-1.26-2.29s-1.6-3.541-2.47-5.886c-.87-2.346-1.56-4.513-2.05-6.088-.49-1.575-.76-2.558-.69-2.591.16-.067 1.5 3.764 3.21 8.444.86 2.335 1.69 4.423 2.32 5.931.62 1.508 1.01 2.435.94 2.48zm4.7-1.15c-.06.033-.46-.805-.99-2.212-.55-1.396-1.23-3.373-1.87-5.596a75.728 75.728 0 01-1.44-5.764c-.3-1.496-.43-2.435-.36-2.446.15-.033.99 3.619 2.28 8.031 1.28 4.423 2.52 7.92 2.38 7.987zm6.18-.883c-.05.034-.45-.826-1.02-2.245-.57-1.418-1.29-3.418-2.03-5.652-.73-2.234-1.32-4.278-1.72-5.774-.39-1.497-.6-2.436-.53-2.458.07-.022.38.871.87 2.335.54 1.675 1.17 3.585 1.86 5.707.69 2.112 1.33 4.022 1.88 5.697.49 1.441.76 2.357.69 2.39z" fill="#313131"/><path d="M1279.54 16.001c-8.77 11.328-19.49 18.33-34.1 21.559 4.3 4.575 12.08 13.588 16.38 18.163 18.58-2.647 31.48-14.381 38.94-30.239-7.61-3.662-13.61-5.83-21.22-9.483z" fill="#FAFAFA"/><path d="M1282.54 16.001c0-.01.12.046.37.148.27.12.64.286 1.11.498.99.443 2.41 1.07 4.23 1.873 3.67 1.623 9.11 3.736 15.59 6.808l.16.073-.07.157c-1.29 2.703-2.84 5.581-4.78 8.515-1.96 2.905-4.32 5.857-7.17 8.634-2.84 2.777-6.18 5.378-10.02 7.527-3.82 2.15-8.13 3.838-12.72 4.899-.72.194-1.46.332-2.19.452-.74.129-1.47.258-2.2.387l-.14.028-.1-.102c-5.93-6.41-11.27-12.702-16.36-18.172l-.25-.277.38-.083c6.05-1.347 11.43-3.33 15.84-5.738 4.45-2.352 7.9-5.055 10.58-7.426 2.67-2.39 4.55-4.493 5.82-5.94.61-.72 1.09-1.292 1.43-1.689.15-.175.27-.314.37-.424.07-.11.11-.157.12-.148a.98.98 0 01-.12.166c-.09.12-.2.268-.35.452-.31.397-.73.978-1.34 1.716a60.232 60.232 0 01-5.74 6.042c-2.66 2.417-6.13 5.157-10.58 7.555-4.42 2.445-9.85 4.465-15.93 5.849l.12-.36c5.12 5.47 10.47 11.753 16.39 18.145l-.24-.083c.73-.129 1.44-.258 2.18-.387.72-.12 1.46-.258 2.17-.452a47.725 47.725 0 0012.59-4.834 47.807 47.807 0 009.93-7.426c2.83-2.749 5.17-5.664 7.15-8.542 1.93-2.897 3.48-5.756 4.79-8.44l.09.23c-6.44-3.1-11.85-5.268-15.51-6.946a138.37 138.37 0 01-4.19-1.956c-.45-.221-.79-.406-1.06-.535-.22-.12-.35-.185-.35-.194z" fill="#1A2E35"/><path d="M1295.81 30.41c-.07.12-3.39-1.457-7.41-3.523-4.02-2.067-7.23-3.829-7.16-3.94.07-.12 3.38 1.458 7.42 3.524 4.01 2.058 7.22 3.82 7.15 3.94zm-3.09 5c-.08.11-3.24-1.734-7.05-4.124-3.82-2.389-6.84-4.41-6.77-4.52.08-.11 3.24 1.735 7.06 4.124 3.81 2.389 6.84 4.41 6.76 4.52zm-5.02 4.981c-.05.056-.77-.488-1.92-1.356a426.54 426.54 0 00-4.56-3.357c-1.8-1.301-3.41-2.51-4.51-3.441-1.11-.932-1.75-1.56-1.7-1.606.05-.055.78.49 1.94 1.347 1.33.96 2.88 2.085 4.6 3.321 1.79 1.301 3.37 2.537 4.48 3.478 1.09.941 1.72 1.568 1.67 1.614zm-17.26-7.471c.04-.047.79.47 1.89 1.392 1.11.923 2.57 2.26 4.1 3.829a85.919 85.919 0 013.76 4.114c.92 1.08 1.48 1.762 1.42 1.808-.13.101-2.56-2.472-5.56-5.6a110.31 110.31 0 00-3.98-3.902c-1.03-.987-1.68-1.586-1.63-1.642zm-4.19 2.361c.05-.046.68.489 1.61 1.412.94.922 2.17 2.25 3.45 3.782a56.177 56.177 0 013.07 4.05c.72 1.07 1.12 1.77 1.06 1.798-.13.074-2.01-2.518-4.54-5.562-2.54-3.045-4.77-5.388-4.65-5.48zm-5.7 2.619c.05-.045.69.508 1.64 1.44.96.932 2.25 2.27 3.61 3.782a75.069 75.069 0 013.34 3.976c.82 1.042 1.28 1.716 1.23 1.762-.06.037-.62-.563-1.52-1.55-1.01-1.135-2.17-2.435-3.45-3.874-1.29-1.43-2.46-2.73-3.48-3.865-.88-.997-1.42-1.624-1.37-1.67z" fill="#1A2E35"/><path d="M1211.84 120.002c11.5 15.859 25.57 25.661 44.73 30.181-5.64 6.406-15.86 19.024-21.5 25.43-24.37-3.707-41.29-20.134-51.07-42.335 9.98-5.127 17.86-8.162 27.84-13.276z" fill="#F2F2F2"/><path d="M1214.92 120.002c0-.013-.16.064-.48.206-.37.168-.85.401-1.46.698-1.31.62-3.17 1.498-5.55 2.621-4.82 2.273-11.95 5.231-20.45 9.531l-.21.104.09.219c1.69 3.784 3.73 7.814 6.27 11.921 2.57 4.068 5.66 8.2 9.4 12.088 3.73 3.887 8.11 7.529 13.14 10.538a60.964 60.964 0 0016.69 6.858c.95.271 1.91.465 2.88.633.96.181 1.93.361 2.88.542l.18.039.13-.142c7.79-8.976 14.78-17.784 21.47-25.442l.32-.388-.49-.116c-7.94-1.885-15-4.662-20.78-8.033-5.84-3.293-10.37-7.077-13.89-10.396-3.5-3.345-5.96-6.29-7.63-8.317-.79-1.008-1.42-1.808-1.87-2.364-.2-.245-.36-.439-.49-.594-.09-.155-.14-.219-.15-.206 0 .013.05.09.15.232.12.168.26.375.46.633.4.555.96 1.369 1.76 2.402a81.857 81.857 0 007.53 8.459c3.49 3.384 8.03 7.22 13.88 10.577 5.8 3.423 12.91 6.251 20.9 8.188l-.16-.503c-6.72 7.658-13.74 16.453-21.51 25.403l.32-.116c-.95-.181-1.89-.362-2.86-.543-.95-.168-1.91-.361-2.85-.632a60.094 60.094 0 01-16.5-6.768c-4.98-2.97-9.33-6.561-13.03-10.396-3.71-3.849-6.78-7.93-9.38-11.959-2.54-4.055-4.57-8.059-6.29-11.817l-.12.323c8.46-4.34 15.56-7.375 20.35-9.725 2.41-1.15 4.25-2.092 5.5-2.738.58-.31 1.04-.568 1.39-.749.29-.168.46-.258.46-.271z" fill="#313131"/><path d="M1197.51 140.175c.1.167 4.45-2.041 9.72-4.934 5.28-2.893 9.49-5.36 9.39-5.514-.09-.168-4.44 2.04-9.73 4.933-5.26 2.88-9.47 5.347-9.38 5.515zm4.06 6.999c.1.155 4.24-2.428 9.24-5.773 5.01-3.345 8.98-6.173 8.88-6.328-.11-.155-4.25 2.428-9.25 5.773-5.01 3.345-8.98 6.173-8.87 6.328zm6.57 6.974c.07.078 1.02-.684 2.53-1.898 1.53-1.214 3.64-2.88 5.98-4.701 2.36-1.821 4.47-3.513 5.91-4.817 1.46-1.305 2.3-2.183 2.23-2.247-.06-.078-1.01.684-2.54 1.885-1.74 1.343-3.78 2.919-6.03 4.65-2.36 1.82-4.43 3.551-5.87 4.868-1.44 1.318-2.27 2.196-2.21 2.26zm22.64-10.461c-.05-.064-1.03.659-2.47 1.95-1.46 1.292-3.38 3.165-5.38 5.36-2.01 2.183-3.71 4.249-4.93 5.76-1.21 1.511-1.94 2.467-1.86 2.531.17.142 3.35-3.461 7.3-7.839 1.98-2.182 3.84-4.094 5.21-5.463 1.35-1.382 2.2-2.221 2.13-2.299zm5.5 3.306c-.07-.064-.89.685-2.11 1.976-1.22 1.292-2.84 3.152-4.52 5.295a78.12 78.12 0 00-4.03 5.67c-.95 1.498-1.47 2.48-1.39 2.518.17.104 2.63-3.525 5.95-7.787 3.34-4.262 6.26-7.542 6.1-7.672zm7.48 3.668c-.07-.064-.9.711-2.15 2.015-1.27 1.304-2.95 3.177-4.73 5.295a105.468 105.468 0 00-4.39 5.566c-1.07 1.46-1.68 2.402-1.62 2.467.08.052.82-.788 2-2.17 1.33-1.588 2.85-3.409 4.53-5.424 1.69-2.002 3.23-3.823 4.56-5.411 1.16-1.395 1.86-2.273 1.8-2.338z" fill="#313131"/><defs><linearGradient id="paint0_linear" x1="1520.5" y1="214.5" x2="1375.5" y2="215.5" gradientUnits="userSpaceOnUse"><stop stop-color="#1A58E1"/><stop offset="1" stop-color="#04D5F5"/></linearGradient><linearGradient id="paint1_linear" x1="1515" y1="98" x2="1397" y2="98" gradientUnits="userSpaceOnUse"><stop stop-color="#1A58E1"/><stop offset="1" stop-color="#04D5F5"/></linearGradient></defs></svg>