<svg width="148" height="40" fill="none" xmlns="http://www.w3.org/2000/svg"><path d="M48 29.5h2.8v-5.3c.6.9 1.7 1.2 2.9 1.2 2.6 0 4.2-2.3 4.2-4.9 0-2.8-1.8-4.7-4.5-4.7-1.3 0-2.4.8-2.8 1.4V16H48v13.5zm2.6-8.9c0-1.4.8-2.3 2.3-2.3 1.4 0 2.3.9 2.3 2.3s-.9 2.4-2.3 2.4c-1.5 0-2.3-1-2.3-2.4zm14.7 4.6h2.6v-4.6c0-3-.9-4.7-4.2-4.7-1.5 0-3 .5-4 1.5l1.5 1.5c.6-.7 1.4-1.1 2.3-1.1 1 0 1.8.6 1.8 1.6-2.4 0-6.2.1-6.2 3.2 0 1.8 1.5 2.8 3.3 2.8 1.1 0 2.3-.4 2.9-1.4v1.2zm0-4v.6c0 1.1-1 1.7-2.1 1.7-.6 0-1.3-.3-1.3-1 0-1.2 1.9-1.3 2.8-1.3h.6zm4.7 8.3h2.8v-5.3c.6.9 1.7 1.2 2.9 1.2 2.6 0 4.2-2.3 4.2-4.9 0-2.8-1.8-4.7-4.5-4.7-1.3 0-2.4.8-2.8 1.4V16H70v13.5zm2.5-8.9c0-1.4.8-2.3 2.3-2.3 1.4 0 2.3.9 2.3 2.3s-.9 2.4-2.3 2.4-2.3-1-2.3-2.4zm15.7 1.6c-.5.6-1.1 1.1-2 1.1-1.1 0-1.9-.7-2.1-1.8h6.5v-.9c0-2.9-1.7-4.8-4.3-4.8-2.8 0-5.1 1.9-5.1 4.8s2.3 4.8 5.1 4.8c1.5 0 3-.7 3.9-1.8l-2-1.4zm-4.1-2.6c.1-.9.8-1.7 2-1.7 1 0 1.7.8 1.7 1.7h-3.7zm8.2 5.6h2.8v-3.8c0-1.8.3-3.1 2.4-3.1.4 0 .8.1 1.2.2v-2.6c-.3-.1-.6-.1-.9-.1-1.2 0-2 .6-2.6 1.7V16h-2.8v9.2h-.1zm14.6-8.1c-.8-.9-2.2-1.2-3.4-1.2-1.9 0-3.8.9-3.8 3.1 0 3.5 4.8 2.2 4.8 3.7 0 .5-.6.7-1.3.7-.8 0-1.5-.4-2-1l-1.7 1.9c.9.9 2.3 1.2 3.6 1.2 2 0 4.2-.7 4.2-3 0-3.5-4.8-2.3-4.8-3.7 0-.5.6-.8 1-.8.7 0 1.2.3 1.6.8l1.8-1.7zm1.5 3.5c0 2.9 2.3 4.8 5.1 4.8s5.1-1.9 5.1-4.8-2.3-4.8-5.1-4.8c-2.9.1-5.1 1.9-5.1 4.8zm2.8 0c0-1.4.8-2.3 2.3-2.3 1.5 0 2.3.9 2.3 2.3s-.8 2.3-2.3 2.3c-1.5 0-2.3-.9-2.3-2.3zm11.2 4.6h2.8l1.7-6.1 1.9 6.1h2.8l3.3-9.1H132l-1.7 5.7-1.7-5.7h-3.1l-1.6 5.7-1.9-5.7h-3l3.4 9.1zm13.5 0h2.8V11h-2.8v14.2zm11.7-8.1c-.8-.9-2.2-1.2-3.4-1.2-1.9 0-3.8.9-3.8 3.1 0 3.5 4.8 2.2 4.8 3.7 0 .5-.6.7-1.3.7-.8 0-1.5-.4-2-1l-1.7 1.9c.9.9 2.3 1.2 3.6 1.2 2 0 4.2-.7 4.2-3 0-3.5-4.8-2.3-4.8-3.7 0-.5.6-.8 1-.8.7 0 1.2.3 1.6.8l1.8-1.7z" fill="#313131"/><path fill-rule="evenodd" clip-rule="evenodd" d="M22.28 38.483l1.01-.925v-2.61c0-.336.252-.673.673-.673.337 0 .674.253.674.674v2.525c.084 0 .084.084.168.168l.926 1.094c.252.253.168.59-.085.842-.252.252-.589.168-.841-.085l-.253-.336v.252c0 .337-.252.59-.589.59a.575.575 0 01-.589-.59v-.168l-.252.168c-.253.253-.59.169-.842 0-.253-.336-.253-.673 0-.925zm-7.575 0l1.01-.925v-2.61c0-.336.253-.673.674-.673.42 0 .673.253.673.674v2.525c.084 0 .084.084.168.168l.926 1.094c.253.253.168.59-.084.842-.253.252-.59.168-.842-.085l-.252-.336v.252c0 .337-.253.59-.59.59a.575.575 0 01-.589-.59v-.168l-.168.168c-.252.253-.589.169-.841 0-.337-.336-.337-.673-.085-.925z" fill="#E79A24"/><path fill-rule="evenodd" clip-rule="evenodd" d="M5.532.022C6.373-.315 9.74 3.388 9.74 3.388c4.04-1.43 7.574-1.936 10.436-1.936 2.861 0 6.312.421 10.436 1.936 0 0 3.45-3.703 4.208-3.366.842.336 4.882 22.05-2.777 31.055-3.114 3.704-7.406 4.798-11.867 4.798-4.376 0-8.753-1.094-11.867-4.797C.65 22.072 4.69.358 5.532.021z" fill="url(#paint0_linear)"/><circle cx="12.776" cy="12.624" fill="#D6E6EB" r="7.605"/><circle cx="27.529" cy="12.624" fill="#D6E6EB" r="7.605"/><path fill-rule="evenodd" clip-rule="evenodd" d="M17.904 12.393c0 3.03-2.525 5.555-5.555 5.555s-5.555-2.525-5.555-5.555S9.32 6.838 12.35 6.838a5.55 5.55 0 015.555 5.555z" fill="#fff"/><path fill-rule="evenodd" clip-rule="evenodd" d="M16.557 12.898c0 1.936-1.6 3.535-3.535 3.535-1.936 0-3.535-1.6-3.535-3.535 0-1.936 1.6-3.535 3.535-3.535 1.936 0 3.535 1.6 3.535 3.535z" fill="#2F545F"/><path fill-rule="evenodd" clip-rule="evenodd" d="M12.77 11.131c0 .59-.421 1.01-1.01 1.01-.59 0-1.01-.42-1.01-1.01 0-.59.42-1.01 1.01-1.01.505 0 1.01.505 1.01 1.01zm9.594 1.262c0 3.03 2.525 5.555 5.555 5.555s5.555-2.525 5.555-5.555-2.525-5.555-5.555-5.555a5.55 5.55 0 00-5.555 5.555z" fill="#fff"/><path fill-rule="evenodd" clip-rule="evenodd" d="M23.71 12.898c0 1.936 1.6 3.535 3.535 3.535 1.936 0 3.535-1.6 3.535-3.535 0-1.936-1.599-3.535-3.535-3.535-1.935 0-3.534 1.6-3.534 3.535z" fill="#2F545F"/><path fill-rule="evenodd" clip-rule="evenodd" d="M27.498 11.131c0 .59.42 1.01 1.01 1.01.59 0 1.01-.42 1.01-1.01 0-.59-.42-1.01-1.01-1.01-.505 0-1.01.505-1.01 1.01z" fill="#fff"/><path fill-rule="evenodd" clip-rule="evenodd" d="M22.112 14.75l-1.936 2.777v-4.629l1.936 1.852z" fill="#C78721"/><path fill-rule="evenodd" clip-rule="evenodd" d="M20.176 12.898v4.63l-2.02-2.778 2.02-1.852z" fill="#F0D331"/><path fill-rule="evenodd" clip-rule="evenodd" d="M10.329 33.098c-.253-.842-.337-1.684-.337-2.525 0-5.47 4.545-9.931 10.184-9.931 5.639 0 10.184 4.46 10.184 9.93 0 .927-.085 1.768-.337 2.61-2.862 2.104-6.228 2.861-9.847 2.861-3.535-.084-6.986-.841-9.847-2.945z" fill="#D6E6EB"/><path fill-rule="evenodd" clip-rule="evenodd" d="M25.646 22.156l-.252-.168c.084.084.168.084.253.168zm-4.207-1.262h1.178c.336.084.673.168 1.01.337l-1.01 1.01-1.178-1.347zm-2.862 0h2.609l-1.347 1.347-1.262-1.347zm-.926 0h.673l-1.346 1.347-.758-.842c.421-.168.926-.337 1.431-.505zm9.679 6.901h2.525l-1.263 1.263-1.262-1.263zm-2.862 0h2.525l-1.262 1.263-1.263-1.263zm-2.861 0h2.525l-1.263 1.263-1.262-1.263zm-2.862 0h2.525l-1.262 1.263-1.263-1.263zm-2.861 0h2.525l-1.263 1.263-1.262-1.263zm-2.862 0h2.525l-1.262 1.263-1.263-1.263zm-2.693 0h2.357l-1.347 1.347-1.094-1.178c.084-.084.084-.169.084-.169zm18.431-1.767h.505c.169.337.337.589.421.926l-.925-.926zm-2.861 0h2.525l-1.263 1.346-1.262-1.346zm-2.861 0h2.524L24.3 27.374l-1.262-1.346zm-2.862 0h2.525l-1.262 1.346-1.263-1.346zm-2.862 0h2.525l-1.262 1.346-1.263-1.346zm-2.861 0h2.525l-1.263 1.346-1.262-1.346zm-2.862 0h2.525l-1.262 1.346-1.263-1.346zm-.505 0h.253l-.421.42c0-.084.084-.252.168-.42zm14.813-3.367h.42c.422.337.758.673 1.179 1.01l-.337.337L25.9 22.66zm-2.861 0h2.524L24.3 23.924l-1.262-1.263zm-2.862 0h2.525l-1.262 1.263-1.263-1.263zm-2.862 0h2.525l-1.262 1.263-1.263-1.263zm-2.861 0h2.525l-1.263 1.263-1.262-1.263zm-.505 0h.168l-1.346 1.347-.169-.169c.505-.505.926-.841 1.347-1.178zm13.382 1.684h.757l.758 1.01-.253.252-1.262-1.262zm-2.862 0h2.525l-1.262 1.262-1.263-1.262zm-2.861 0h2.525l-1.263 1.262-1.262-1.262zm-2.862 0h2.525l-1.262 1.262-1.263-1.262zm-2.861 0h2.525l-1.263 1.262-1.262-1.262zm-2.862 0h2.525l-1.262 1.262-1.263-1.262zm-.842 0h.505L11.34 25.69l-.084-.084c.336-.505.589-.926.925-1.262zm12.288 10.267h2.525l-.252.253c-.505.168-1.01.337-1.6.505l-.673-.758zm-2.861 0h2.525l-1.179 1.179h-.252l-1.094-1.179zm-2.862 0h2.525l-1.262 1.263-1.263-1.263zm-2.861 0h2.525l-1.179 1.179c-.084 0-.252 0-.336-.085l-1.01-1.094zm-2.862 0h2.525l-.673.674c-.59-.169-1.179-.337-1.852-.674zm-2.777-1.683h1.178l-.589.589c-.168-.084-.337-.253-.59-.421.085-.084 0-.168 0-.168zm18.515 0h1.263c0 .084 0 .168-.084.168a2.56 2.56 0 01-.59.42l-.588-.588zm-2.861 0h2.525L27.16 34.19l-1.26-1.26zm-2.861 0h2.524L24.3 34.19l-1.262-1.262zm-2.862 0h2.525l-1.262 1.262-1.263-1.262zm-2.862 0h2.525l-1.262 1.262-1.263-1.262zm-2.861 0h2.525l-1.263 1.262-1.262-1.262zm-2.862 0h2.525l-1.262 1.262-1.263-1.262zm-1.599-3.45h1.347l-1.347 1.346-.084-.084v-.168c.084-.421.084-.758.084-1.095zm18.768 0h1.515c0 .336.085.673.085 1.01l-.337.336-1.262-1.346zm-2.861 0h2.525L27.16 30.74l-1.26-1.261zm-2.861 0h2.524L24.3 30.74l-1.262-1.262zm-2.862 0h2.525l-1.262 1.262-1.263-1.262zm-2.862 0h2.525l-1.262 1.262-1.263-1.262zm-5.723 0h2.525l-1.262 1.262-1.263-1.262zm2.862 0h2.525l-1.263 1.262-1.262-1.262zm15.738 1.683h.084v.084l-.084-.084zm-2.861 0h2.525l-1.263 1.346-1.262-1.346zm-2.862 0h2.525l-1.262 1.346-1.263-1.346zm-2.861 0h2.525l-1.263 1.346-1.262-1.346zm-2.862 0h2.525l-1.262 1.346-1.263-1.346zm-2.861 0h2.525l-1.263 1.346-1.262-1.346zm-5.724 0h2.525l-1.262 1.346-1.262-1.346zm2.862 0h2.525l-1.262 1.346-1.263-1.346zm20.199 3.03s11.446-6.228 3.198-19.021c0 0-8.5 12.203-3.198 19.02zm-26.427 0S-4.652 27.964 3.596 15.17c0 0 8.5 12.203 3.198 19.02z" fill="#2F42D9"/><defs><linearGradient id="paint0_linear" x1="20.176" y1="0" x2="20.176" y2="35.875" gradientUnits="userSpaceOnUse"><stop stop-color="#90FFFF"/><stop offset="1" stop-color="#354FD8"/></linearGradient></defs></svg>