<svg width="105" height="40" fill="none" xmlns="http://www.w3.org/2000/svg"><path d="M40.009 15.31l1.054 4.088 29.789 6.939s-.97-3.168-11.871-7.63c-10.9-4.492-18.972-3.398-18.972-3.398z" fill="#F4F4F4"/><path fill-rule="evenodd" clip-rule="evenodd" d="M59.553 18.975c-5.615-2.234-10.5-3.078-13.977-3.364a35.493 35.493 0 00-4.075-.115c-.475.016-.84.041-1.087.062l-.04.003.959 3.594 30.03 6.754c-.258-.344-.715-.85-1.504-1.49-1.633-1.325-4.678-3.22-10.306-5.444zm12.225 7.027c.139.219.176.335.176.335L41.1 19.396l-1.09-4.086s.099-.013.29-.03c1.562-.142 9.297-.576 19.36 3.428 9.13 3.609 11.534 6.37 12.12 7.295z" fill="#2F545F"/><path d="M98.39 8.505l-.138 4.152-27.4 13.68s.25-3.27 9.853-10.125C90.31 9.36 98.391 8.505 98.391 8.505z" fill="#F4F4F4"/><path fill-rule="evenodd" clip-rule="evenodd" d="M69.75 26.337s.01-.12.095-.362c.361-1.022 2.077-4.22 10.153-9.763 8.902-6.108 16.546-7.45 18.103-7.67.19-.027.29-.037.29-.037l-.144 4.152-28.496 13.68zm.48-.546l27.735-13.314.126-3.646-.039.006a21.84 21.84 0 00-1.074.188c-.934.185-2.286.503-3.95 1.034-3.327 1.063-7.899 2.978-12.866 6.387-4.98 3.417-7.516 5.929-8.806 7.573-.622.794-.953 1.383-1.127 1.772z" fill="#2F545F"/><path d="M38.907 18.8l.947 4.257 30.998 3.28s-21.708-8.862-29.622-7.695c-.574.094-2.323.157-2.323.157z" fill="#fff"/><path fill-rule="evenodd" clip-rule="evenodd" d="M69.807 24.853c.67.233 1.045.37 1.045.37l-29.93-2.812-.913-3.65.282-.01c.505-.019 1.548-.064 1.96-.125 6.619-.866 23.227 4.716 27.556 6.227zm-1.141-.108c-.388-.132-.823-.28-1.298-.438a196.483 196.483 0 00-8.029-2.498c-3.093-.886-6.42-1.74-9.447-2.309-3.035-.57-5.739-.85-7.602-.606-.294.043-.868.077-1.354.1-.216.01-.418.02-.578.025l.787 3.141 27.521 2.585z" fill="#2F545F"/><path d="M99.381 11.849l.111 3.762-28.64 9.611a153.862 153.862 0 0114.86-8.678 50.326 50.326 0 0113.67-4.695z" fill="#fff"/><path fill-rule="evenodd" clip-rule="evenodd" d="M99.381 11.849l-.275.053a50.28 50.28 0 00-13.393 4.643 154.078 154.078 0 00-14.86 8.677l28.64-9.611-.112-3.762zm-.267.332a49.997 49.997 0 00-13.274 4.607 153.961 153.961 0 00-13.032 7.488l26.401-8.86-.095-3.235z" fill="#2F545F"/><path d="M41.264 21.872l29.504 3.43c.166.027.36 0 .526-.056 2.413-.892 21.546-7.864 27.341-9.983.666-.252 1.387.195 1.498.892l4.852 32.209c.083.502-.194 1.004-.665 1.227L81.97 59.602c-.083.028-.138.056-.222.084l-5.6 1.171c-.112.028-.25.028-.39.028L48.946 57.37a1.094 1.094 0 01-.943-.864l-7.958-33.185c-.194-.837.444-1.534 1.22-1.45z" fill="#fff"/><path d="M40.184 21.872l30.004 3.43c.169.027.366 0 .535-.056 2.454-.892 21.91-7.864 27.804-9.983a1.148 1.148 0 011.523.892l4.935 32.209c.085.502-.197 1.004-.677 1.227L81.58 59.602c-.085.028-.141.056-.226.084l-5.696 1.171c-.113.028-.254.028-.395.028L47.995 57.37c-.48-.056-.874-.418-.959-.864l-8.093-33.185c-.197-.837.451-1.534 1.24-1.45z" fill="#04D3F5"/><path fill-rule="evenodd" clip-rule="evenodd" d="M71.294 25.246c-.166.056-.36.084-.526.056l-29.504-3.43c-.776-.084-1.414.613-1.22 1.45l7.958 33.185c.083.446.472.808.943.864l26.814 3.514c.138 0 .277 0 .388-.028l5.601-1.171c.042-.014.077-.028.111-.042.035-.014.07-.028.111-.042l22.35-10.011c.471-.223.748-.725.665-1.227l-4.852-32.21c-.111-.696-.832-1.143-1.498-.892-2.288.837-6.654 2.43-11.25 4.107-7.046 2.57-14.63 5.337-16.09 5.877zm28.565-9.047c-.085-.532-.633-.862-1.126-.675h-.003c-2.289.838-6.657 2.431-11.253 4.108a9705.419 9705.419 0 00-16.087 5.876l-.004.001-.004.001a1.417 1.417 0 01-.653.068l-29.495-3.43c-.581-.061-1.071.456-.92 1.11l7.96 33.19v.007a.82.82 0 00.703.64h.004l26.796 3.511c.14 0 .235-.003.303-.02h.005l5.59-1.17.081-.031h.002c.031-.013.068-.028.111-.043l22.333-10.003.002-.002a.884.884 0 00.508-.927l-.001-.002v-.002l-4.852-32.207z" fill="#2F545F"/><path d="M76.036 62c-.145 0-.26-.086-.319-.228l-8.164-36.174c-.03-.171.058-.342.231-.37.174-.029.348.056.377.227l8.193 36.174c.03.171-.058.342-.231.37h-.087zm5.567-2.23c-.13 0-.233-.083-.285-.223l-7.156-35.071c-.026-.168.051-.335.207-.363.156-.028.311.056.337.223l7.157 35.072c.026.167-.052.335-.208.363h-.052z" fill="#2F545F"/><path d="M76.36 22.112l3.943 17.486c.026.15.235.15.287 0l.548-2.396L82.731 39c.105.12.261 0 .235-.15l-3.499-18.085-3.107 1.348z" fill="#fff"/><path d="M75.258 22.112l4.6 17.486c.03.15.275.15.335 0l.64-2.396L82.692 39c.121.12.304 0 .274-.15l-4.082-18.085-3.626 1.348z" fill="#DD6021"/><path fill-rule="evenodd" clip-rule="evenodd" d="M82.731 38.999c.105.12.261 0 .235-.15l-3.499-18.085-3.107 1.348 3.943 17.486c.026.15.235.15.287 0l.548-2.396L82.731 39zm-2.284.043L81 36.627l1.623 1.83-3.345-17.29-2.607 1.13 3.776 16.745z" fill="#2F545F"/><path d="M87.259 44.128l9.077-3.771c.655-.15 1.064-.898.927-1.616l-1.336-9.13c-.136-.718-.817-1.166-1.472-1.017l-9.431 3.831c-.654.15-1.063.898-.927 1.617l1.69 9.099c.164.718.818 1.167 1.472.987z" fill="#fff"/><path fill-rule="evenodd" clip-rule="evenodd" d="M85.198 34.042l1.69 9.099c.164.718.818 1.167 1.473.987l9.077-3.771c.654-.15 1.063-.898.927-1.616l-1.336-9.13c-.136-.718-.818-1.166-1.472-1.017l-9.432 3.831c-.654.15-1.063.898-.927 1.617zm10.433-5.159l-9.43 3.83-.02.005c-.495.113-.824.692-.716 1.262v.002l1.69 9.092c.129.555.629.895 1.125.768l9.081-3.773.021-.005c.495-.113.824-.692.716-1.262l-.001-.007-1.336-9.128c-.105-.533-.618-.89-1.13-.784z" fill="#2F545F"/><path d="M32.368 30.281a.225.225 0 01-.323-.022l-.63-.504c-.089-.098-.03-.29.133-.44.156-.138.358-.184.447-.086l.408.701c.075.123.062.262-.035.351z" fill="#2F545F"/><path d="M32.326 29.467L30.66 25.37l-2.916 2.604 3.832 2.18.75-.687z" fill="#fff"/><path d="M31.328 29.467l-1.665-4.097-2.916 2.604 3.832 2.18.749-.687z" fill="#07C2F2"/><path d="M28 27.947l2.602-2.323 1.546 3.802-.593.544L28 27.947z" stroke="#2F545F" stroke-width=".3"/><path d="M12.566 4.887l-2.64-3.004a1.874 1.874 0 00-2.67-.163c-.788.699-.852 1.905-.162 2.702l2.64 3.004 2.832-2.54z" fill="#fff"/><path d="M11.568 4.887l-2.64-3.004a1.874 1.874 0 00-2.67-.163c-.788.699-.852 1.905-.161 2.702l2.64 3.004 2.831-2.54z" fill="#FF7B38"/><path d="M9.746 7.213l-2.54-2.89s0 0 0 0a1.775 1.775 0 01.148-2.49 1.725 1.725 0 012.46.149h0l2.541 2.892-2.609 2.339z" stroke="#2F545F" stroke-width=".3"/><path d="M30.65 25.359L12.806 5.005 9.902 7.611l17.845 20.354 2.904-2.606z" fill="#fff"/><path d="M29.653 25.359L11.808 5.005 8.904 7.611l17.845 20.354 2.904-2.606z" fill="#FF7B38"/><path d="M10.112 7.625l2.681-2.407L30.44 25.346l-2.68 2.406L10.111 7.625z" stroke="#2F545F" stroke-width=".3"/><path d="M9.853 7.93a.094.094 0 01-.124-.007l-.72-.83c-.03-.032-.027-.095.006-.125L12.96 3.43a.094.094 0 01.124.006l.72.83a.096.096 0 01-.006.126L9.853 7.929z" fill="#fff"/><path d="M8.855 8.939a.094.094 0 01-.124-.007l-.72-.83c-.03-.032-.026-.095.006-.125l3.945-3.536a.094.094 0 01.124.006l.72.83c.03.032.027.095-.006.125L8.855 8.939z" fill="#2F545F"/><path d="M9.799 7.776L9.16 7.04l3.854-3.455.639.736-3.854 3.455z" stroke="#2F545F" stroke-width=".3"/><path d="M19.61 11.832l-6.955-7.934.35-.314 8.156 9.303-.434.39-.018.012-.001.001a.043.043 0 01-.008.003.142.142 0 01-.044-.002.553.553 0 01-.174-.066 1.884 1.884 0 01-.485-.414 2.017 2.017 0 01-.35-.543.576.576 0 01-.046-.183c-.002-.037.006-.049.007-.05l.093-.1-.09-.103z" fill="#2F545F" stroke="#2F545F" stroke-width=".3"/></svg>