<svg width="49" height="14" fill="none" xmlns="http://www.w3.org/2000/svg"><g clip-path="url(#clip0)"><path d="M18.4 14L20.8.5h3.8L22.3 14h-3.9z" fill="#3C58BF"/><path d="M18.4 14L21.5.5h3.1L22.3 14h-3.9z" fill="#293688"/><path d="M35.9.6c-.8-.3-2-.6-3.5-.6C28.7 0 26 1.9 26 4.6c0 2 1.9 3.1 3.4 3.8 1.5.7 2 1.1 2 1.7 0 .9-1.2 1.4-2.3 1.4-1.5 0-2.3-.2-3.6-.8l-.5-.2-.5 3.1c.9.4 2.6.8 4.3.8 4 0 6.6-1.9 6.6-4.7 0-1.6-1-2.8-3.2-3.8-1.4-.7-2.2-1.1-2.2-1.7 0-.6.7-1.2 2.2-1.2 1.3 0 2.2.2 2.9.5l.4.2.4-3.1z" fill="#3C58BF"/><path d="M35.9.6c-.8-.3-2-.6-3.5-.6-3.8 0-5.8 1.9-5.8 4.6 0 2 1.2 3.1 2.7 3.8 1.5.7 2 1.1 2 1.7 0 .9-1.2 1.4-2.3 1.4-1.5 0-2.3-.2-3.6-.8l-.5-.2-.5 3.1c.9.4 2.6.8 4.3.8 4 0 6.6-1.9 6.6-4.7 0-1.6-1-2.8-3.2-3.8-1.4-.7-2.2-1.1-2.2-1.7 0-.6.7-1.2 2.2-1.2 1.3 0 2.2.2 2.9.5l.4.2.5-3.1z" fill="#293688"/><path d="M42.4.5c-.9 0-1.6.1-2 1L34.8 14h4.1l.8-2.3h4.8L45 14h3.6L45.3.5h-2.9zm-1.7 9c.2-.7 1.5-4 1.5-4s.3-.8.5-1.4l.2 1.3s.8 3.4.9 4.1h-3.1z" fill="#3C58BF"/><path d="M43.3.5c-.9 0-1.6.1-2 1L34.8 14h4.1l.8-2.3h4.8L45 14h3.6L45.3.5h-2zm-2.6 9l1.5-4s.3-.8.5-1.4l.2 1.3s.8 3.4.9 4.1h-3.1z" fill="#293688"/><path d="M11.5 10l-.4-2c-.7-2.3-2.9-4.7-5.3-6l3.4 12.1h4.1L19.4.5h-4.1L11.5 10z" fill="#3C58BF"/><path d="M11.5 10l-.4-2c-.7-2.3-2.9-4.7-5.3-6l3.4 12.1h4.1L19.4.5h-3.3L11.5 10z" fill="#293688"/><path d="M1 .5l.7.2c4.8 1.1 8.1 4 9.4 7.4L9.7 1.6C9.5.7 8.8.5 8 .5H1z" fill="#FFBC00"/><path d="M1 .5C5.8 1.6 9.8 4.6 11.1 8L9.8 2.6c-.2-.9-1-1.5-1.8-1.5L1 .5z" fill="#F7981D"/><path d="M1 .5C5.8 1.6 9.8 4.6 11.1 8l-.9-3c-.2-.9-.5-1.8-1.6-2.2L1 .5z" fill="#ED7C00"/><path d="M15.3 9.5l-2.6-2.6-1.2 2.9-.3-1.9c-.7-2.3-2.9-4.7-5.3-6L9.3 14h4.1l1.9-4.5zm7 4.5L19 10.7l-.6 3.3h3.9zm8.6-4.7c.3.3.5.5.4.8 0 .9-1.2 1.4-2.3 1.4-1.5 0-2.3-.2-3.6-.8l-.5-.2-.5 3.1c.9.4 2.6.8 4.3.8 2.4 0 4.4-.7 5.5-1.9l-3.3-3.2zm4.4 4.7h3.5l.8-2.3h4.8l.5 2.3h3.6l-1.3-5.5-4.5-4.4.2 1.2s.8 3.4.9 4.1h-3.2l1.5-4s.3-.8.5-1.4" fill="#051244"/></g><defs><clipPath id="clip0"><path fill="#fff" d="M0 0h49v14H0z"/></clipPath></defs></svg>