<svg width="49" height="16" fill="none" xmlns="http://www.w3.org/2000/svg"><g clip-path="url(#clip0)"><path d="M26.022 8.492c2.242 0 4.059-1.873 4.059-4.184S28.264.123 26.022.123c-2.241 0-4.058 1.874-4.058 4.185 0 2.31 1.817 4.184 4.058 4.184z" fill="#EF9122"/><path d="M21.844 4.308c0-2.339 1.79-4.185 4.059-4.185 2.268 0 4.058 1.846 4.058 4.185 0 2.338-1.79 4.184-4.058 4.184" fill="#F26E21"/><path d="M23.158 1.23c1.551-1.6 4.178-1.6 5.73 0 1.551 1.6 1.551 4.308 0 5.908" fill="#F44500"/><path d="M2.268.37H0v8h2.268c1.194 0 2.03-.37 2.745-.862.836-.739 1.433-1.847 1.433-3.077 0-2.462-1.671-4.062-4.178-4.062zm1.79 5.907c-.477.492-1.193.738-2.029.738h-.477V1.723h.358c.955 0 1.552.123 2.03.615.596.493.835 1.231.835 1.97.12.738-.239 1.477-.716 1.969zM8.714.37H7.162v8h1.552v-8zm3.7 3.076c-.955-.369-1.193-.615-1.193-.984 0-.493.477-.862 1.074-.862.478 0 .836.123 1.313.615l.716-1.107c-.597-.616-1.432-.862-2.268-.862-1.313 0-2.387.985-2.387 2.216 0 1.107.477 1.6 1.91 2.215.597.246.835.37 1.074.492.358.123.478.493.478.862 0 .615-.478 1.108-1.194 1.108s-1.313-.37-1.671-1.108l-1.075.984c.717 1.108 1.672 1.6 2.746 1.6 1.552 0 2.626-1.107 2.626-2.584 0-1.354-.478-1.97-2.149-2.585z" fill="#595A5B"/><path d="M15.04 4.308c0 2.338 1.791 4.184 4.06 4.184.596 0 1.193-.123 1.909-.492V6.03c-.597.616-1.194.862-1.79.862-1.552 0-2.627-1.107-2.627-2.707 0-1.6 1.075-2.708 2.507-2.708.716 0 1.313.246 1.91.861V.492C20.412.123 19.815 0 19.099 0 16.95.123 15.04 1.97 15.04 4.308z" fill="#3B3D3F"/><path d="M33.423 5.661L31.393.37h-1.67l3.223 8.123h.955L37.243.37h-1.671l-2.149 5.292zm4.417 2.585h4.416v-1.23h-2.745V4.8h2.626V3.446h-2.626V1.723h2.745V.369H37.84v7.877z" fill="#000"/><path d="M46.554 4.923c1.194-.246 1.79-1.108 1.79-2.338 0-1.477-1.074-2.339-2.745-2.339h-2.268v8h1.552V5.17h.239l2.148 3.2h1.671l-2.387-3.446zm-1.313-.984h-.477V1.477h.477c.955 0 1.552.37 1.552 1.23 0 .862-.597 1.232-1.552 1.232zM2.268.37H0v8h2.268c1.194 0 2.03-.37 2.745-.862.836-.739 1.433-1.847 1.433-3.077 0-2.462-1.671-4.062-4.178-4.062zm1.79 5.907c-.477.492-1.193.738-2.029.738h-.477V1.723h.358c.955 0 1.552.123 2.03.615.596.493.835 1.231.835 1.97.12.738-.239 1.477-.716 1.969zM8.714.37H7.162v8h1.552v-8zm3.7 3.076c-.955-.369-1.193-.615-1.193-.984 0-.493.477-.862 1.074-.862.478 0 .836.123 1.313.615l.716-1.107c-.597-.616-1.432-.862-2.268-.862-1.313 0-2.387.985-2.387 2.216 0 1.107.477 1.6 1.91 2.215.597.246.835.37 1.074.492.358.123.478.493.478.862 0 .615-.478 1.108-1.194 1.108s-1.313-.37-1.671-1.108l-1.075.984c.717 1.108 1.672 1.6 2.746 1.6 1.552 0 2.626-1.107 2.626-2.584 0-1.354-.478-1.97-2.149-2.585zm6.804 5.046c.597 0 1.194-.123 1.91-.492V6.03c-.597.616-1.194.862-1.79.862-1.552 0-2.627-1.107-2.627-2.707 0-.862.359-1.477.836-2.093L16.473.985c-.836.738-1.313 1.846-1.313 3.077-.12 2.584 1.79 4.43 4.058 4.43z" fill="#595A5B"/><path d="M46.554 4.923c1.194-.246 1.79-1.108 1.79-2.338 0-1.477-1.074-2.339-2.745-2.339h-2.268v8h1.552V5.17h.239l2.148 3.2h1.671l-2.387-3.446zm-1.313-.984h-.477V1.477h.477c.955 0 1.552.37 1.552 1.23 0 .862-.597 1.232-1.552 1.232z" fill="#000"/><path d="M11.101 15.63V11.2l2.984 3.2v-2.954h.597v4.431l-2.984-3.2v2.954H11.1zm6.804-3.568h-1.67v.984h1.55v.616h-1.55v1.353h1.67v.616h-2.268v-4.185h2.268v.616zm2.029 0v3.569h-.597v-3.57h-.955v-.492h2.507v.616h-.955v-.123zm1.91-.492l1.075 2.83.954-3.077 1.075 2.954 1.074-2.83h.836L25.068 16l-1.075-2.954L22.919 16l-1.791-4.43h.716zm5.014 1.969c0-.616.239-1.108.597-1.6.358-.37.955-.616 1.552-.616.596 0 1.074.246 1.551.615.358.37.597.985.597 1.6 0 .616-.239 1.108-.597 1.6-.358.37-.955.616-1.552.616-.596 0-1.074-.123-1.432-.615-.477-.37-.716-.862-.716-1.6zm.716 0c0 .492.12.861.478 1.107.358.37.596.492 1.074.492.477 0 .835-.123 1.074-.492.358-.369.478-.615.478-1.107 0-.493-.12-.862-.478-1.108-.358-.37-.597-.492-1.074-.492-.358 0-.836.123-1.074.492-.358.369-.478.738-.478 1.108zm5.849.369l1.313 1.846h-.835l-1.194-1.723h-.12v1.723h-.596v-4.308h.716c.597 0 .955.123 1.194.37.238.246.358.615.358.861 0 .37-.12.615-.239.739-.12.369-.358.492-.597.492zm-.835-.492h.119c.597 0 .835-.247.835-.616 0-.37-.358-.615-.835-.615h-.239l.12 1.23zm3.222-.246l1.552-1.724h.836l-1.79 1.846 1.79 2.339h-.836l-1.552-1.846v1.846h-.597v-4.308h.597v1.846z" fill="#F26E21"/><path d="M40.943 7.015h-1.432V5.538l-1.671-1.6v4.308h4.297l-1.194-1.23zm-5.729-5.907l-1.79 4.553L31.393.37h-1.671l3.223 8.123h.955l2.506-6.154-1.193-1.23z" fill="#3B3D3F"/></g><defs><clipPath id="clip0"><path fill="#fff" d="M0 0h48.941v16H0z"/></clipPath></defs></svg>