<svg width="40" height="24" fill="none" xmlns="http://www.w3.org/2000/svg"><path d="M39.758 12c0 6.48-5.334 11.76-11.88 11.76C21.334 23.76 16 18.48 16 12 16 5.52 21.333.24 27.758.24c6.787 0 12 5.28 12 11.76z" fill="#FFB600"/><path d="M27.879.24C34.424.24 39.758 5.52 39.758 12c0 6.48-5.334 11.76-11.88 11.76C21.334 23.76 16 18.48 16 12" fill="#F7981D"/><path d="M27.879.24C34.424.24 39.758 5.52 39.758 12c0 6.48-5.334 11.76-11.88 11.76" fill="#FF8500"/><path d="M12 .24C5.454.36.242 5.52.242 12c0 6.48 5.334 11.76 11.879 11.76 3.03 0 5.818-1.2 8-3 .485-.36.849-.84 1.212-1.2H18.91c-.364-.36-.606-.84-.849-1.2h4.243c.242-.36.485-.84.727-1.2h-5.576c-.242-.36-.363-.84-.485-1.2h6.546c.363-1.2.606-2.4.606-3.72 0-.84-.121-1.68-.242-2.52h-7.273c.121-.48.242-.84.363-1.2h6.546c-.121-.48-.364-.84-.485-1.2h-5.576c.243-.48.485-.84.728-1.2h4.242c-.242-.48-.606-.84-.97-1.2h-2.303c.364-.48.727-.84 1.212-1.2-2.06-1.92-4.848-3-8-3L12 .24z" fill="#FF5050"/><path d="M.242 12c0 6.48 5.334 11.76 11.879 11.76 3.03 0 5.818-1.2 8-3 .485-.36.849-.84 1.212-1.2H18.91c-.364-.36-.606-.84-.849-1.2h4.243c.242-.36.485-.84.727-1.2h-5.576c-.242-.36-.363-.84-.485-1.2h6.546c.363-1.2.606-2.4.606-3.72 0-.84-.121-1.68-.242-2.52h-7.273c.121-.48.242-.84.363-1.2h6.546c-.121-.48-.364-.84-.485-1.2h-5.576c.243-.48.485-.84.728-1.2h4.242c-.242-.48-.606-.84-.97-1.2h-2.303c.364-.48.727-.84 1.212-1.2-2.06-1.92-4.848-3-8-3H12" fill="#E52836"/><path d="M12.121 23.76c3.03 0 5.818-1.2 8-3.12.485-.36.849-.84 1.212-1.2H18.91c-.363-.36-.606-.84-.848-1.2h4.242c.242-.36.485-.84.727-1.2h-5.576c-.242-.36-.363-.84-.484-1.2h6.545c.364-1.2.606-2.4.606-3.72 0-.84-.121-1.68-.242-2.52h-7.273c.121-.48.242-.84.364-1.2h6.545c-.121-.48-.364-.84-.485-1.2h-5.576c.243-.48.485-.84.728-1.2h4.242c-.242-.48-.606-.84-.97-1.2h-2.303a5.72 5.72 0 011.213-1.2c-2.061-1.92-4.849-3.12-8-3.12H12" fill="#CB2026"/><path d="M16.242 15l.243-1.08c-.121 0-.243.12-.364.12-.485 0-.485-.24-.485-.36L16 11.52h.727l.243-1.2h-.606l.12-.72h-1.211s-.728 4.08-.728 4.56c0 .72.485 1.08.97 1.08.364-.12.606-.24.727-.24zm.485-2.04c0 1.8 1.213 2.16 2.182 2.16.97 0 1.334-.24 1.334-.24l.242-1.2s-.727.36-1.333.36c-1.334 0-1.091-.96-1.091-.96h2.545s.243-.84.243-1.08c0-.84-.485-1.8-1.818-1.8-1.334-.12-2.303 1.2-2.303 2.76zm2.182-1.8c.728 0 .606.84.606.84h-1.333c-.121 0 0-.84.727-.84zM26.91 15l.242-1.32s-.606.36-1.091.36c-.849 0-1.212-.72-1.212-1.44 0-1.44.727-2.28 1.575-2.28.606 0 1.091.36 1.091.36l.243-1.32S27.03 9 26.303 9c-1.454 0-2.909 1.2-2.909 3.6 0 1.56.727 2.64 2.303 2.64.485-.12 1.212-.24 1.212-.24zM9.334 10.08c-.849 0-1.455.24-1.455.24l-.242 1.08s.606-.24 1.333-.24c.485 0 .848.12.848.48 0 .24-.12.36-.12.36H9.09c-1.09 0-2.303.48-2.303 1.92 0 1.08.727 1.32 1.212 1.32.849 0 1.212-.6 1.334-.6l-.122.48h1.091l.485-3.48c.242-1.56-.97-1.56-1.454-1.56zm.242 2.76c0 .24-.121 1.2-.849 1.2-.363 0-.484-.36-.484-.48 0-.36.242-.72 1.09-.72h.243zm2.666 2.28c.364 0 1.94.12 1.94-1.56 0-1.56-1.455-1.2-1.455-1.92 0-.36.243-.48.728-.48.242 0 .848.12.848.12l.242-1.08s-.484-.12-1.212-.12c-.97 0-1.939.36-1.939 1.56 0 1.44 1.576 1.32 1.576 1.92 0 .36-.485.48-.728.48-.606 0-1.09-.24-1.09-.24l-.243 1.08c0 .12.243.24 1.333.24zm25.092-6l-.243 1.68s-.485-.6-1.212-.6c-1.09 0-2.182 1.32-2.182 3 0 .96.485 2.04 1.576 2.04.727 0 1.212-.48 1.212-.48l-.121.48h1.212l.97-6-1.212-.12zm-.606 3.24c0 .72-.364 1.56-.97 1.56-.485 0-.727-.36-.727-.96 0-.96.484-1.56.97-1.56.484-.12.727.24.727.96zM2.546 15l.727-4.44.121 4.44h.849l1.575-4.44L5.091 15h1.333l.97-6h-1.94l-1.211 3.72-.122-3.6H2.303l-.97 6h1.213V15z" fill="#fff"/><path d="M22.06 15c.364-2.04.486-3.72 1.334-3.48.121-.84.364-1.08.485-1.44h-.242c-.606 0-.97.72-.97.72l.121-.72h-1.212l-.849 4.8 1.334.12zm7.758-4.92c-.848 0-1.454.24-1.454.24l-.243 1.08s.606-.24 1.334-.24c.485 0 .848.12.848.48v.24h-.606c-1.09 0-2.303.48-2.303 1.92 0 1.08.727 1.32 1.212 1.32.849 0 1.212-.6 1.333-.6l-.12.48h1.09l.606-3.36c0-1.56-1.212-1.56-1.697-1.56zm.243 2.76c0 .24-.122 1.2-.849 1.2-.363 0-.485-.36-.485-.48 0-.36.243-.72 1.091-.72h.243zM32.606 15c.364-2.04.485-3.72 1.334-3.48.12-.84.363-1.08.485-1.44h-.243c-.606 0-.97.72-.97.72l.122-.72H32.12l-.848 4.8 1.333.12z" fill="#fff"/><path d="M14.303 14.16c0 .72.485 1.08.97 1.08s.848-.12.97-.24l.242-1.08c-.121 0-.242.12-.364.12-.484 0-.484-.24-.484-.36L16 11.52h.727l.243-1.2h-.606l.121-.72m.849 3.36c0 1.8.606 2.16 1.575 2.16.97 0 1.334-.24 1.334-.24l.242-1.2s-.727.36-1.333.36c-1.334 0-1.091-.96-1.091-.96h2.545s.243-.84.243-1.08c0-.84-.485-1.8-1.819-1.8-1.333-.12-1.697 1.2-1.697 2.76zm1.575-1.8c.728 0 .849.84.849.84h-1.576c-.121 0 0-.84.727-.84zM26.91 15l.241-1.32s-.605.36-1.09.36c-.849 0-1.212-.72-1.212-1.44 0-1.44.727-2.28 1.575-2.28.606 0 1.091.36 1.091.36l.243-1.32S27.03 9 26.303 9C24.849 9 24 10.2 24 12.6c0 1.56.121 2.64 1.576 2.64.606-.12 1.333-.24 1.333-.24zM7.637 11.4s.606-.24 1.333-.24c.485 0 .848.12.848.48 0 .24-.12.36-.12.36H9.09c-1.09 0-2.303.48-2.303 1.92 0 1.08.727 1.32 1.212 1.32.849 0 1.212-.6 1.334-.6l-.122.48h1.091l.485-3.48c0-1.44-1.212-1.44-1.818-1.44l-1.333 1.2zm2.666 1.44c0 .24-.727 1.2-1.454 1.2-.364 0-.485-.36-.485-.48 0-.36.242-.72 1.09-.72h.85z" fill="#DCE5E5"/><path d="M10.91 15s.363.12 1.454.12c.363 0 1.94.12 1.94-1.56 0-1.56-1.455-1.2-1.455-1.92 0-.36.242-.48.727-.48.242 0 .848.12.848.12l.243-1.08s-.485-.12-1.212-.12c-.97 0-1.213.36-1.213 1.56 0 1.44.97 1.32.97 1.92 0 .36-.485.48-.727.48m24.606-3.24s-.485-.6-1.212-.6c-1.09 0-1.455 1.32-1.455 3 0 .96-.12 2.04.97 2.04.727 0 1.212-.48 1.212-.48l-.121.48h1.212l.97-6-1.576 1.56zm0 1.56c0 .72-.606 1.56-1.212 1.56-.485 0-.727-.36-.727-.96 0-.96.484-1.56.97-1.56.363-.12.97.24.97.96zM2.546 15l.727-4.44.121 4.44h.849l1.575-4.44L5.091 15h1.333l.97-6H5.94l-1.82 3.72v-3.6h-.606l-2.182 6h1.213V15zm18.181 0h1.334c.363-2.04.485-3.72 1.333-3.48.121-.84.364-1.08.485-1.44h-.242c-.606 0-.97.72-.97.72l.121-.72m5.333 1.32s.606-.24 1.334-.24c.485 0 .848.12.848.48v.24h-.606c-1.09 0-2.303.48-2.303 1.92 0 1.08.727 1.32 1.212 1.32.849 0 1.212-.6 1.333-.6l-.12.48h1.09l.606-3.36c0-1.44-1.212-1.44-1.818-1.44l-1.576 1.2zm2.546 1.44c0 .24-.728 1.2-1.455 1.2-.363 0-.485-.36-.485-.48 0-.36.243-.72 1.091-.72h.849zm.606 2.16h1.333c.364-2.04.485-3.72 1.334-3.48.12-.84.363-1.08.485-1.44h-.243c-.606 0-.97.72-.97.72l.122-.72" fill="#DCE5E5"/></svg>