<svg width="656" height="208" fill="none" xmlns="http://www.w3.org/2000/svg"><g clip-path="url(#clip0)"><path d="M60.9 20.419c.36.163.607.425.694.739.073.277.084.448.049.706a2.116 2.116 0 01-.192.57l-.086.187a9.215 9.215 0 01-.389.695c-.16.276-.31.563-.456.851-.159.305-.284.613-.412.93-.096.236-.197.453-.297.671l-.098.217-.16.352c-.172.372-.315.752-.46 1.138l-.053.153-.275.731-.275.73-.147.407-.286.786c-.146.379-.32.752-.494 1.116l-.074.152a7.98 7.98 0 01-.42.83c-.2.32-.434.63-.795.741a.582.582 0 01-.712.226 4.56 4.56 0 00-.372-.19 6.002 6.002 0 00-.262-.108 14.55 14.55 0 00-.93-.213l-.251-.052a30.834 30.834 0 00-1.926-.378l-.78-.127-.87-.144c-.496-.09-.994-.196-1.485-.304l-.537-.11-.541-.109-.534-.107-.613-.129-.192-.041a24.219 24.219 0 00-.734-.148c-.727-.13-1.46-.247-2.19-.364l-1.096-.18a66 66 0 00-3.958-.555c-.28-.028-.56-.066-.837-.103a39.73 39.73 0 00-1.157-.145l-.494-.048-.164-.017c-.384-.04-.766-.078-1.145-.102l-.91-.028-.691-.024-.143-.005-.48-.023-.245-.01-.59-.016a88.196 88.196 0 01-1.988-.067l-.45-.018-.214-.014c-.203-.006-.46-.011-.716-.023l-.422-.017.12-.037c-.622.015-1.288-.022-2.096-.092-.463-.04-.927-.065-1.388-.089l-.338-.018-.195-.012c-.31-.015-.622-.033-.928-.052l-.59-.037-.122-.005-.247-.007.172-.04-.399.021-.15-.017-.945-.023a84.982 84.982 0 01-1.562-.059 31.623 31.623 0 01-1.708-.124c-.33-.03-.66-.079-.988-.127-.26-.037-.518-.075-.775-.106-.42-.05-.84-.071-1.26-.094l-.205-.01-.192-.006a10.37 10.37 0 01-.73-.06c.052.01.101.027.15.044.525.17 1.016.357 1.502.557l.158.063.155.064a58.7 58.7 0 001.916.444c.884.189 1.79.316 2.666.438l.81.117.526.075c.402.059.804.116 1.207.17.413.06.823.15 1.23.24l.453.097c.99.216 2.154.478 3.28.806.503.146 1.011.287 1.517.426.579.16 1.156.32 1.73.489l.449.133c.937.277 1.878.558 2.826.814.575.157 1.14.347 1.7.54.257.092.513.192.768.292.224.087.448.176.674.256.63.224 1.269.441 1.906.659l1.17.401c.072.022.141.044.21.07.346.105.697.203 1.047.301l.842.24a54.31 54.31 0 012.032.636l-.083-.016.36.103.575.19-.147-.024c1.73.54 3.116 1.062 4.35 1.622.405.183.8.373 1.195.576.376.194.737.407 1.097.622.28.166.56.332.846.487.313.172.576.313.834.459l.214.116c.233.124.466.248.68.403.605.432.6 1.184.515 1.86-.027.214-.062.426-.098.64l-.06.362a13.39 13.39 0 00-.063.47 12.11 12.11 0 01-.083.594c-.05.327-.104.652-.15.975.006.085.008.167.01.253a9.239 9.239 0 01-.126 1.596c-.048.282-.092.566-.125.853l-.018.145h.011c-.014.255-.028.509-.052.758 0 .422-.002.848-.03 1.275-.038.563-.179 1.093-.313 1.535l-.091.299-.038.216c-.046.27-.093.54-.154.805-.09.383-.222.785-.401 1.23-.088.23-.186.457-.295.677-.046.09-.088.17-.13.246-.15.252-.211.325-.434.523-.057.044-.113.08-.172.114a.595.595 0 01-.267.434.72.72 0 01-.681.057.542.542 0 01-.252-.227 8.912 8.912 0 00-.996-1.425 22.95 22.95 0 00-1.362-1.3c-.33-.298-.662-.595-.979-.908l-.346-.34c-.27-.267-.54-.534-.818-.796a49.84 49.84 0 00-.779-.707l-.42-.376-.41-.368c-.287-.258-.575-.519-.87-.766a29.982 29.982 0 00-2.709-2.031c-.455-.312-.914-.624-1.355-.959a30.758 30.758 0 00-1.292-.922l-.469-.323-.59-.413c-.328-.23-.655-.46-.987-.682-.003 0-.012-.008-.023-.016l.007-.008-.022-.004a.082.082 0 01-.02-.02c.003-.007-.041-.041-.036-.039-1.007-.61-1.929-1.182-2.848-1.749l-.557-.352c-.362-.23-.723-.459-1.09-.678a42.482 42.482 0 01-1.607-1.003 245.22 245.22 0 01-1.507-.988l-.133-.087a50.214 50.214 0 01-1.589-1.063l-.906-.62a67.245 67.245 0 01-1.82-1.194c-.603-.416-1.206-.834-1.816-1.242a61.023 61.023 0 00-2.562-1.502l-.196-.112a43.652 43.652 0 01-1.544-.923 59.085 59.085 0 00-1.159-.703 30.971 30.971 0 00-1.89-.992c-.306-.153-.61-.305-.913-.461a30.275 30.275 0 00-1.425-.675c-.218-.094-.437-.182-.652-.27-.11-.045-.206-.082-.3-.125a1.418 1.418 0 01-.505-.404c-.244-.295-.171-.769.051-1.026a.866.866 0 01.614-.299c.192-.017.391.013.578.05a.3.3 0 01-.06-.021c-.042-.019-.08-.044-.12-.07-.24-.164-.379-.547-.313-.83.071-.28.259-.606.574-.682a7.247 7.247 0 011.125-.2l.232-.025.272-.035c.47-.058.938-.116 1.411-.186l.21-.033.406-.064c.405-.064.81-.127 1.211-.199l.462-.09c.4-.08.796-.161 1.196-.19.131-.016.26-.02.397-.025l.132-.004c.156-.148.366-.24.653-.284.422-.069.84-.163 1.258-.257a94.816 94.816 0 013.334-.67c1.132-.21 2.265-.338 3.52-.47l1.366-.15c1.656-.174 3.418-.365 5.133-.613.9-.136 1.804-.263 2.706-.392l.525-.074 3.559-.513a109.939 109.939 0 016.427-.793c.3-.027.597-.059.894-.092l.447-.05a49.634 49.634 0 011.78-.177c.236-.025.476-.041.716-.058l.124-.007.63-.044c.422-.034.84-.074 1.26-.114l.338-.027c.39-.039.78-.049 1.175-.057l.2-.006c.519-.016 1.056-.032 1.576-.109l.632-.102c.639-.11 1.432-.246 2.19-.239.227-.002.463 0 .688.036.156.023.297.066.42.122z" fill="#E5F8FF"/><path d="M57.668 20.548c.445.292.697.751.686 1.255-.013.39-.098.72-.27 1.047-.099.185-.217.358-.328.526l-.1.154c-.241.366-.447.758-.654 1.144l-.12.226c-.138.258-.295.506-.448.757-.146.233-.291.464-.419.704a13.555 13.555 0 00-.749 1.634l-.009.031c-.171.467-.345.939-.482 1.421a21.73 21.73 0 00-.224.84 9.912 9.912 0 01-.398 1.144c-.09.22-.184.44-.282.656l-.222.526a7.118 7.118 0 01-.127.29c.07.093.137.197.19.312.145.29.275.588.401.886l.088.195-.013-.017c.07.166.136.331.196.498l.123.315c.176.355.385.7.614 1.023.119.17.248.328.375.49.156.196.311.397.458.603.274.405.505.878.681 1.408.098.294.193.572.306.844l.101.23c.103.236.205.442.307.648l.212.441.143.295c.138.292.28.587.43.874l.085.169c.383.737.78 1.498 1.071 2.294.121.32.217.648.316.976l.122.405.09.31c.028.124.064.245.1.366.062.192.138.382.216.562l.212.425c.166.32.302.577.36.843.09.356.11.678.058 1.072-.05.411-.339.814-.778 1.087-.54.345-1.198.38-1.827.377-1.083-.01-2.045-.157-2.948-.442-.401-.122-.81-.19-1.211-.259l-.345-.056a28.248 28.248 0 01-.844-.173l-.581-.124c-.49-.092-.97-.203-1.454-.318a14.478 14.478 0 01-.472-.13l-.2-.054c-.012.378-.035.773-.054 1.17a8.062 8.062 0 01-.115 1.01c.006-.063.013-.126.016-.19.028-.427.03-.851.032-1.275.022-.25.037-.503.051-.756h-.01l.017-.147c.034-.286.078-.57.125-.853a9.022 9.022 0 00.125-1.593 4.416 4.416 0 00-.01-.254c.046-.323.098-.65.152-.976.032-.194.057-.393.081-.591l.063-.473.064-.36c.032-.216.067-.424.094-.642.085-.676.09-1.428-.511-1.86a6.311 6.311 0 00-.68-.403l-.217-.119c-.257-.14-.521-.287-.835-.457-.286-.155-.566-.322-.846-.488a21.68 21.68 0 00-1.096-.622c-.394-.203-.79-.392-1.194-.575-1.235-.56-2.621-1.083-4.351-1.622l.15.023-.578-.187-.359-.102.083.014a54.051 54.051 0 00-2.031-.637l-.846-.237a45.75 45.75 0 01-1.044-.303c-.07-.027-.14-.048-.21-.07l-1.172-.401a109.69 109.69 0 01-1.905-.658c-.227-.08-.45-.17-.673-.255-.255-.1-.509-.202-.77-.293a25.336 25.336 0 00-1.698-.54c-.952-.254-1.888-.534-2.828-.814l-.446-.132a386.29 386.29 0 00-1.734-.49c-.506-.14-1.01-.276-1.516-.426a50.077 50.077 0 00-3.283-.803l-.452-.1c-.406-.089-.815-.179-1.23-.237-.4-.056-.8-.112-1.206-.171l-.529-.075-.808-.115c-.877-.122-1.781-.251-2.669-.44a75.603 75.603 0 01-1.912-.445l-.158-.06-.155-.066a19.92 19.92 0 00-1.503-.557.79.79 0 00-.15-.043c.238.024.482.049.732.056l.192.007.204.012c.421.021.836.045 1.263.092.255.032.514.068.773.106.328.05.658.097.99.129.6.056 1.2.103 1.707.123a74.09 74.09 0 001.562.058l.947.025.148.016.2-.009h.155l-.04.008-.087.008.04.002-.04.008.248.008.124.005.588.037c.307.02.62.036.928.05l.196.015.337.016c.459.024.925.05 1.389.09.65.058 1.208.092 1.725.096l.337.009-.028.008-.06.007.03.002-.032.009.423.015c.257.012.515.018.716.025l.216.012.447.02c.663.03 1.326.05 1.99.065l.587.016.246.012.48.022.145.005.691.024.91.026c.378.028.758.065 1.145.104l.163.014.494.05c.349.037.7.08 1.158.144.273.038.553.074.836.103 1.18.126 2.477.308 3.96.553l1.095.18c.73.115 1.463.234 2.19.364.245.046.488.095.73.15l.199.039.612.128.534.107.542.11.535.112c.495.104.993.21 1.488.298l.872.145.779.128c.521.087 1.04.183 1.553.3.128.028.246.05.371.077l.252.054c.307.063.612.129.93.212a6.117 6.117 0 01.631.302.59.59 0 00.714-.227c.36-.112.593-.426.797-.743.16-.268.292-.549.42-.83l.073-.152c.176-.365.349-.735.494-1.116l.285-.785.15-.408.274-.73.275-.729.051-.156c.144-.384.29-.762.463-1.135l.16-.352.096-.215a18 18 0 00.295-.676c.128-.317.256-.623.414-.926.146-.288.296-.576.456-.853.14-.227.272-.457.39-.693l.084-.187.067-.148c.05-.147.11-.311.123-.425a1.476 1.476 0 00-.047-.705c-.09-.31-.33-.576-.693-.74a1.93 1.93 0 00-.42-.125 3.91 3.91 0 00-.684-.035c-.76-.008-1.552.127-2.189.238l-.632.103c-.522.08-1.058.09-1.578.11l-.202.005c-.393.005-.785.013-1.174.056l-.338.027c-.418.04-.838.08-1.259.115l-.63.043-.124.01c-.236.013-.48.026-.716.055-.597.045-1.187.11-1.78.178l-.447.047c-.3.034-.595.065-.894.095-1.069.1-2.13.22-3.188.346-1.085.128-2.159.286-3.238.447l-3.56.512-.523.072c-.904.126-1.808.255-2.706.393a137.7 137.7 0 01-5.135.614l-1.365.15c-1.257.13-2.392.255-3.52.47a99.072 99.072 0 00-3.338.666c-.42.095-.834.193-1.256.261-.29.045-.497.135-.655.283l-.132.005c-.138.003-.265.01-.397.025a9.46 9.46 0 00-1.193.189l-.462.091c-.403.073-.807.134-1.212.196l-.406.066-.212.034a48.7 48.7 0 01-1.412.185c.348-.137.72-.239 1.084-.324.608-.14 1.224-.239 1.848-.342.328-.052.66-.107.987-.167.376-.07.757-.133 1.137-.2a53.86 53.86 0 002.117-.393l.692-.156a26.1 26.1 0 01.973-.214l.368-.069a77.15 77.15 0 001.264-.247c.45-.097.896-.178 1.354-.235l.632-.076.635-.076c.435-.074.865-.152 1.297-.232a76.76 76.76 0 011.528-.273c.512-.078 1.005-.154 1.505-.227l.351-.057.352-.06.186-.037c.63-.118 1.276-.24 1.93-.31.583-.06 1.161-.129 1.742-.216l-.177.036.186-.02-.007-.009c1.12-.193 2.178-.353 3.24-.506l-.136.043a33.921 33.921 0 013.25-.417c.287-.024.577-.044.865-.062l.77-.051.504-.04a51.18 51.18 0 011.154-.093 74.318 74.318 0 003.225-.318c.318-.037.635-.063.953-.093l.528-.046c.272-.026.546-.057.819-.093.232-.025.46-.053.69-.077l.43-.042c.912-.09 1.829-.176 2.739-.288a22.96 22.96 0 013.01-.181l.148.002c.286.01.574.016.86.005l.267-.014c.22-.01.441-.025.66-.021.349.002.644.006.957.064.133.02.291.056.429.118a.83.83 0 01.137.075z" fill="#B1EAFF"/><path d="M5.11 27.45c3.226 2.075 6.514 4.054 9.794 6.04 3.261 1.973 6.51 3.953 9.705 6.024 5.52 3.574 11.102 7.078 16.192 11.257 2.596 2.125 5.03 4.442 7.169 7.025.093.112.114.302.087.439a.581.581 0 01-.69.452c-.166-.035-.269-.126-.372-.252a28.695 28.695 0 00-.388-.46c-3.813-4.421-8.475-8.015-13.253-11.326a253.932 253.932 0 00-6.397-4.236c-2.286-1.48-4.572-2.964-6.885-4.407-5.146-3.2-10.396-6.237-15.495-9.52-.133-.085-.237-.178-.288-.33a.603.603 0 01.031-.456.59.59 0 01.334-.284.58.58 0 01.456.034z" fill="#87DFFF"/><path d="M58.579 20.747a.582.582 0 01-.631.53c-1.775-.22-3.558-.242-5.345-.168l.152-.006c-3.476.164-6.92.689-10.384 1.005-1.84.166-3.674.334-5.51.538-1.84.201-3.682.432-5.522.688-3.69.514-7.354 1.181-11.014 1.884A428.477 428.477 0 009.33 27.495c-1.388.31-2.779.626-4.166.947-.31.075-.624-.172-.678-.472-.057-.325.163-.6.475-.673a408.728 408.728 0 0110.972-2.392c3.667-.75 7.337-1.465 11.028-2.082a180.874 180.874 0 0111.024-1.464c1.796-.193 3.598-.33 5.392-.518 1.732-.175 3.456-.387 5.183-.57 3.145-.33 6.336-.538 9.487-.152a.624.624 0 01.186.053c.22.094.37.316.347.575z" fill="#87DFFF"/><path d="M50.89 40.97c.129.07.22.242.244.38a.567.567 0 01-.09.429.604.604 0 01-.38.247c-.163.028-.287-.02-.43-.093-.391-.207-.781-.41-1.175-.613.044.025.09.046.133.071-9.412-4.764-19.657-7.608-29.917-9.852a.081.081 0 01.02.006c-1.146-.25-2.291-.488-3.43-.74-1.18-.258-2.363-.524-3.543-.783l.144.035c-2.143-.47-4.293-.91-6.46-1.247-.315-.047-.563-.299-.536-.632.026-.299.318-.58.63-.529 3.596.561 7.136 1.401 10.69 2.179a.049.049 0 01-.014-.003c2.87.62 5.748 1.239 8.601 1.942 2.978.729 5.934 1.539 8.862 2.44 4.12 1.272 8.174 2.76 12.099 4.537a80.18 80.18 0 014.552 2.227zm-31.742-9.456l.126.027c-.043-.009-.087-.02-.126-.027zm-2.359-1.688z" fill="#87DFFF"/><path d="M53.163 33.965c-.11.308-.439.447-.746.353a76.558 76.558 0 00-5.828-1.526l-.135-.029-.011-.002h.004c-6.64-1.427-13.41-2.086-20.172-2.561-1.694-.123-3.384-.23-5.08-.336-1.632-.1-3.262-.198-4.891-.362-3.264-.324-6.528-.77-9.818-.645l-.294.017c-.159.008-.294-.003-.433-.096a.587.587 0 01-.156-.809c.08-.112.233-.24.381-.247 1.726-.093 3.445-.038 5.164.095 1.753.134 3.501.346 5.253.526 1.773.177 3.55.28 5.33.39 1.843.114 3.682.234 5.526.368 7.368.534 14.75 1.328 21.94 3.116a71.03 71.03 0 013.61 1.004.59.59 0 01.356.744zm-46.56-5.114c-.038.002-.075.003-.11.006.037-.002.075-.002.11-.006zm39.844 3.91c.003.002.005.001.007.002.037.007.07.016.106.023a.956.956 0 01-.113-.024z" fill="#87DFFF"/><path d="M58.716 20.749a.613.613 0 01-.016.452c-1.55 4.391-3.436 8.66-5.53 12.812a.59.59 0 01-.773.29c-.28-.132-.432-.495-.29-.776 2.094-4.154 3.981-8.427 5.53-12.812.106-.3.506-.41.777-.288.136.066.245.18.302.322zm-7.604 20.777c.15 1.353.17 2.716.126 4.076a36.707 36.707 0 01-.455 4.537 32.866 32.866 0 01-1.012 4.398 23.767 23.767 0 01-.74 2.078 12.7 12.7 0 01-.886 1.783c-.166.269-.583.292-.819.114a.596.596 0 01-.226-.386.64.64 0 01.11-.43l.087-.141c.727-1.383 1.244-2.865 1.654-4.37a35.538 35.538 0 001.145-8.96 25.613 25.613 0 00-.14-2.538.586.586 0 01.5-.658.57.57 0 01.317.047.57.57 0 01.34.45z" fill="#87DFFF"/><path d="M54.061 32.387a150.646 150.646 0 013.7 7.393 104.124 104.124 0 011.66 3.795 65.7 65.7 0 01.719 1.82c.26.673.499 1.355.758 2.031.176.465.377.92.52 1.4.113.392.112.826-.075 1.195-.187.37-.53.605-.882.807a3.56 3.56 0 01-1.331.43c-.92.107-1.864-.024-2.772-.166-.823-.127-1.635-.299-2.454-.45a.01.01 0 01.008.001l-.017-.004-.053-.01a20.949 20.949 0 01-1.222-.255c-.457-.108-.916-.225-1.38-.318a9.914 9.914 0 00-.767-.096c-.318-.028-.574-.283-.56-.613.015-.309.294-.581.611-.553 1.152.098 2.251.458 3.383.675-.014-.004-.028-.005-.042-.007.697.12 1.392.263 2.087.39h-.007c.96.164 1.942.318 2.921.264.196-.019.385-.052.572-.108.241-.098.471-.207.694-.34a1.44 1.44 0 00.156-.145l.024-.038.015-.045c.002-.03.005-.06.004-.09a2.875 2.875 0 00-.126-.508c-.208-.569-.439-1.133-.645-1.702-.25-.681-.51-1.355-.775-2.03a96.003 96.003 0 00-1.79-4.205c-1.23-2.71-2.58-5.366-3.972-7.99a.585.585 0 01.256-.785.575.575 0 01.501-.01.616.616 0 01.281.267zm6.267 16.893l.003.038c0-.013 0-.026-.003-.038zm.023.066a.782.782 0 00-.012.054c.004-.02.007-.038.012-.054zm.003.055l-.025.056-.001.002c.01-.02.02-.039.026-.058zm-.016 0v.007c-.002-.002-.001-.004 0-.006zm-.012.062l-.001.002.001-.002zm-9.005.609l-.043-.007a.28.28 0 00.043.007zm2.54.566a.21.21 0 01.034.004l.01.001c-.015 0-.03-.003-.044-.005zm.047-1.166a.87.87 0 01.103.02c-.035-.008-.068-.013-.103-.02z" fill="#87DFFF"/><path d="M51.377 42.246c3.017 2.316 5.922 4.776 8.968 7.056a.62.62 0 01.259.372.564.564 0 01-.076.43c-.159.253-.551.376-.805.185-3.047-2.28-5.948-4.739-8.969-7.056-.126-.097-.223-.205-.258-.372a.589.589 0 01.076-.43c.142-.225.468-.35.717-.237.031.012.06.03.088.052z" fill="#87DFFF"/><path fill-rule="evenodd" clip-rule="evenodd" d="M510.731 174.859c3.018.791 6.095 1.502 9.218 2.14a1 1 0 01-.4 1.96 176.186 176.186 0 01-9.324-2.165 1 1 0 01.506-1.935zm-8.419-1.414a.999.999 0 01-1.264.633 125.435 125.435 0 01-4.51-1.593c-1.606-.601-3.191-1.198-4.754-1.791a1 1 0 01.709-1.871c1.561.593 3.142 1.189 4.746 1.789a126.06 126.06 0 004.44 1.569c.524.174.808.74.633 1.264zm25.803 6.06a1 1 0 011.142-.833c3.105.486 6.239.908 9.388 1.272a1.001 1.001 0 01-.229 1.987 238.84 238.84 0 01-9.467-1.283 1 1 0 01-.834-1.143zm-44.509-13.025a1 1 0 01-1.296.567 781.193 781.193 0 01-9.427-3.754 1 1 0 11.752-1.853 780.68 780.68 0 009.403 3.744 1 1 0 01.568 1.296zm63.392 15.302a1 1 0 011.077-.917c3.154.254 6.311.456 9.456.611a1 1 0 01-.098 1.998c-3.165-.157-6.342-.36-9.518-.615a1 1 0 01-.917-1.077zm-242.389-60.7c-1.597-.156-3.317-.6-5.156-1.345-2.073-.841-3.63-2.032-4.651-3.521a1 1 0 111.649-1.131c.757 1.104 1.967 2.075 3.753 2.798 1.695.687 3.228 1.074 4.599 1.209a1 1 0 01-.194 1.99zm160.212 37.791a1 1 0 01-1.311.529 496.162 496.162 0 01-9.301-4.064.999.999 0 11.82-1.824 499.59 499.59 0 009.263 4.047 1 1 0 01.529 1.312zm101.172 23.915a1 1 0 011.021-.978c3.189.069 6.353.095 9.476.085a1 1 0 01.008 2c-3.14.011-6.32-.016-9.527-.085a1 1 0 01-.978-1.022zm-119.659-32.194a1 1 0 01-1.334.469 335.917 335.917 0 01-9.104-4.534 1 1 0 11.918-1.776 339.347 339.347 0 009.05 4.507c.498.239.708.837.47 1.334zm-133.553-33.47a1 1 0 01-.243-1.393c1.491-2.119 2.382-5.176 2.57-8.932a1 1 0 111.998.101c-.2 3.98-1.151 7.449-2.932 9.982a1 1 0 01-1.393.242zm272.234 65.653a1 1 0 01.973-1.026c3.228-.085 6.394-.206 9.481-.353a1 1 0 11.096 1.997c-3.1.149-6.281.27-9.524.356a1.001 1.001 0 01-1.026-.974zM82.779 54.675a296.49 296.49 0 009.082 2.223 1 1 0 01-.444 1.95 298.365 298.365 0 01-9.144-2.239 1 1 0 01.506-1.934zm-8.354-1.284a1 1 0 01-1.245.67 178.21 178.21 0 01-4.165-1.31l-.222-.073-.057-.02-.018-.006h-.002a1 1 0 01.647-1.893l.003.001.013.004.053.018a57.793 57.793 0 001.059.348c.745.24 1.845.588 3.264 1.015a1 1 0 01.67 1.246zm25.424 6.237a1 1 0 011.173-.79c2.934.574 6.01 1.128 9.201 1.645a1 1 0 01-.319 1.974 289.246 289.246 0 01-9.265-1.656 1 1 0 01-.79-1.173zm328.462 81.696a1 1 0 01-1.362.381 262.247 262.247 0 01-8.77-5.155 1 1 0 011.047-1.704 259.662 259.662 0 008.703 5.116c.481.27.652.88.382 1.362zm-309.949-78.64a1 1 0 011.117-.867c3.03.383 6.132.72 9.285.996a1 1 0 01-.174 1.992 247.4 247.4 0 01-9.361-1.003 1 1 0 01-.867-1.118zm177.186 43.764a1 1 0 01-.436-1.345c1.465-2.874 3.81-5.81 6.833-8.54a1 1 0 111.341 1.484c-2.886 2.608-5.063 5.356-6.393 7.965a1 1 0 01-1.345.436zm308.447 75.466a1 1 0 01.93-1.065c3.291-.224 6.458-.474 9.474-.738a1 1 0 01.175 1.993c-3.028.265-6.208.515-9.513.74a1 1 0 01-1.066-.93zM137.037 64.389a1 1 0 011.044-.953c3.087.14 6.204.212 9.334.205a1 1 0 01.005 2 197.72 197.72 0 01-9.429-.208 1 1 0 01-.954-1.044zm273.974 66.386a1 1 0 01-1.388.271 244.346 244.346 0 01-8.319-5.856 1.001 1.001 0 011.185-1.612 240.394 240.394 0 008.251 5.809 1 1 0 01.271 1.388zM155.798 64.427a1 1 0 01.942-1.054c3.105-.176 6.205-.44 9.283-.808a1.001 1.001 0 01.237 1.986c-3.122.373-6.264.641-9.407.819a1 1 0 01-1.055-.943zm467.153 115.867a.999.999 0 01.888-1.1c3.476-.372 6.646-.748 9.455-1.105a1 1 0 01.253 1.985c-2.822.358-6.005.736-9.495 1.109a1.001 1.001 0 01-1.101-.889zm-228.314-61.457a.999.999 0 01-1.405.157 276.731 276.731 0 01-7.82-6.495 1 1 0 011.305-1.515 276.993 276.993 0 007.763 6.448.999.999 0 01.157 1.405zm-79.202-20.964a1 1 0 01-1.181-.779 54.234 54.234 0 00-1.466-5.579c-.344.18-.684.362-1.02.547a1 1 0 01-.965-1.752c.44-.243.886-.48 1.339-.712a63.497 63.497 0 00-.71-1.896 1 1 0 111.861-.731c.229.582.448 1.164.656 1.743a53.064 53.064 0 016.817-2.616 1 1 0 11.586 1.912 51 51 0 00-6.751 2.608 56.76 56.76 0 011.612 6.074 1 1 0 01-.778 1.18zM174.431 62.31a1 1 0 01.792-1.171c3.06-.592 6.081-1.3 9.045-2.137a1.001 1.001 0 01.544 1.925 112.342 112.342 0 01-9.21 2.176 1 1 0 01-1.171-.793zm467.42 115.617a1 1 0 01.84-1.138 271.059 271.059 0 004.326-.689l.225-.039.057-.009.013-.003h.004a1 1 0 01.349 1.969l-.174-.985.174.985h-.002l-.019.004-.059.01-.231.04-.901.151c-.792.13-1.959.316-3.463.544a1.002 1.002 0 01-1.139-.84zm-262.62-72.251a1 1 0 01-1.413.06 372.28 372.28 0 01-3.72-3.469 73.369 73.369 0 00-3.94-3.472 1 1 0 011.267-1.547 75.629 75.629 0 014.047 3.566 346.157 346.157 0 003.699 3.449 1 1 0 01.06 1.413zM192.5 57.353a.999.999 0 01.566-1.296 84.743 84.743 0 004.267-1.807 165.794 165.794 0 014.696-2.059 1 1 0 11.774 1.845 165.13 165.13 0 00-4.639 2.033 86.207 86.207 0 01-4.369 1.85.999.999 0 01-1.295-.566zm137.969 27.74a1 1 0 01.905-1.086 50.945 50.945 0 0110.818.169 1 1 0 01-.243 1.985A48.945 48.945 0 00331.555 86a1 1 0 01-1.086-.905zm32.47 7.379a1 1 0 01-1.365.368 54.55 54.55 0 00-9.494-4.335 1 1 0 01.649-1.892 56.563 56.563 0 019.842 4.493 1 1 0 01.368 1.366zm-54.412-13.264a1 1 0 01-1.365-.37 70.542 70.542 0 00-5.481-8.161 1 1 0 011.578-1.228 72.43 72.43 0 015.637 8.394 1 1 0 01-.369 1.365zM210.783 49.88a1 1 0 01.621-1.27 130.084 130.084 0 019.623-2.904 1 1 0 01.502 1.936 128.108 128.108 0 00-9.475 2.859 1.001 1.001 0 01-1.271-.621zm85.743 13.456a1 1 0 01-1.414.024 67.735 67.735 0 00-7.55-6.306 1 1 0 011.166-1.625 69.754 69.754 0 017.774 6.493 1 1 0 01.024 1.414zM230.05 44.76a1 1 0 01.823-1.15c3.44-.57 6.776-.946 10.007-1.144a1.001 1.001 0 01.123 1.997 95.913 95.913 0 00-9.803 1.12 1 1 0 01-1.15-.823zm50.47 6.732a1 1 0 01-1.347.433 66.718 66.718 0 00-9.038-3.83 1 1 0 11.643-1.894 68.745 68.745 0 019.309 3.944 1 1 0 01.433 1.347zm-30.631-8.123a1 1 0 011.054-.942 77.44 77.44 0 0110.041 1.209 1 1 0 01-.37 1.966 75.43 75.43 0 00-9.782-1.178 1 1 0 01-.943-1.055z" fill="#B1EAFF"/></g><defs><clipPath id="clip0"><path fill="#fff" transform="matrix(-1 0 0 1 656 0)" d="M0 0h656.001v208H0z"/></clipPath></defs></svg>