<svg width="520" height="225" fill="none" xmlns="http://www.w3.org/2000/svg"><g clip-path="url(#clip0)"><path d="M464.831 182.057c-.395.065-.706.258-.875.544a1.634 1.634 0 00-.235.685c-.017.114-.004.291.011.449.006.056.015.111.025.166l.035.207c.051.265.122.529.196.791.085.315.155.639.222.963.074.344.115.682.156 1.03.032.258.072.5.112.741l.039.241.063.391c.07.413.11.827.149 1.247l.012.166.075.796.075.794.037.441.071.854c.042.413.113.828.187 1.235l.032.17c.05.313.105.625.191.932.111.37.258.739.583.945a.59.59 0 00.637.414 4.588 4.588 0 01.7-.125c.331 0 .648.02.967.04l.26.016c.127.007.253.015.38.018.538.026 1.072.071 1.605.125l.797.082.891.091c.509.044 1.026.073 1.535.098l.555.035.559.038.552.037.633.037.2.011c.253.014.505.028.757.05.747.066 1.496.148 2.242.228l1.12.115c1.518.152 2.832.32 4.023.513.281.047.566.085.847.122.464.061.819.111 1.171.167l.497.085.165.027c.387.064.77.128 1.149.206l.898.217.683.161.141.033.477.107.242.056.582.141c.655.163 1.308.32 1.965.467l.444.102.214.045c.2.048.454.111.707.169l.418.096-.107-.069c.604.181 1.266.323 2.077.47.464.085.924.184 1.382.285l.336.072.194.04c.307.068.617.134.922.198l.588.122.12.028.245.059-.159-.087.385.129.151.023.933.231c.511.123 1.029.246 1.544.36.502.115 1.102.232 1.706.335.331.06.667.099 1.001.139.264.033.528.065.787.103.425.064.841.155 1.258.245l.204.045.19.045c.242.055.487.1.73.137a1.17 1.17 0 00-.157.003c-.56.027-1.091.081-1.62.148l-.171.02-.169.022a58.43 58.43 0 01-1.994-.076c-.915-.049-1.837-.167-2.726-.28l-.824-.102-.536-.067c-.409-.05-.818-.102-1.226-.156-.42-.051-.846-.071-1.269-.092l-.469-.025c-1.027-.053-2.236-.105-3.425-.083-.532.009-1.067.012-1.599.014-.609.003-1.217.007-1.823.019l-.476.012c-.991.023-1.986.047-2.983.047a23.302 23.302 0 00-2.637.16c-.243.026-.486.053-.728.072-.677.052-1.36.096-2.042.14l-1.252.083a2.803 2.803 0 00-.224.013c-.367.01-.737.014-1.105.017l-.887.01a53.83 53.83 0 00-2.16.085l.086.007-.38.005-.613.033.15.016c-1.837.069-3.333.215-4.69.436a28.02 28.02 0 00-1.323.249c-.419.091-.829.206-1.239.32-.319.09-.636.179-.957.255-.352.086-.648.155-.939.23l-.241.057c-.261.061-.522.121-.773.216-.707.265-.901 1.009-.997 1.7a14.54 14.54 0 00-.073.658l-.038.374c-.018.16-.04.32-.063.481-.029.202-.057.405-.077.609-.036.337-.07.673-.111 1.004a4.18 4.18 0 00-.076.248 9.495 9.495 0 00-.302 1.61c-.027.291-.059.584-.103.875l-.021.149-.011-.003c-.054.256-.107.51-.15.762a20.96 20.96 0 00-.308 1.269c-.113.566-.116 1.127-.101 1.599l.01.32-.021.224c-.027.279-.052.559-.062.836-.013.403.008.835.066 1.324.025.25.061.5.109.747.021.101.041.19.063.278.079.288.12.377.285.633.044.059.089.11.139.158a.615.615 0 00.145.5c.147.18.417.278.653.239a.54.54 0 00.306-.156c.433-.44.875-.813 1.354-1.141a23.16 23.16 0 011.679-.919c.402-.206.805-.411 1.199-.636l.428-.242c.335-.192.672-.383 1.013-.567.315-.169.633-.33.95-.491l.511-.258.499-.254c.35-.178.701-.358 1.055-.524.489-.231.985-.445 1.486-.648.559-.233 1.132-.433 1.705-.633.53-.185 1.062-.37 1.583-.583a32.293 32.293 0 011.509-.565l.545-.193.687-.25c.382-.139.764-.279 1.148-.409.003 0 .014-.005.027-.01l-.005-.01.023.002a.062.062 0 00.024-.014c-.001-.008.052-.03.046-.029 1.148-.334 2.202-.651 3.253-.965l.638-.198c.417-.131.83-.26 1.249-.377a42.445 42.445 0 001.839-.561c.583-.189 1.158-.379 1.737-.572l.154-.051c.605-.188 1.22-.405 1.838-.624l1.051-.37c.704-.218 1.403-.45 2.099-.691.701-.25 1.403-.501 2.108-.74a59.965 59.965 0 012.907-.798l.221-.059a42.38 42.38 0 001.757-.498c.439-.131.879-.261 1.322-.383.698-.19 1.407-.333 2.114-.474.34-.069.679-.137 1.017-.21.521-.114 1.046-.2 1.573-.286.239-.034.477-.062.711-.092.12-.015.224-.026.327-.043.216-.039.397-.118.601-.264.318-.225.372-.713.222-1.027a.881.881 0 00-.521-.459 2.054 2.054 0 00-.579-.106.298.298 0 00.065-.005c.045-.007.088-.022.135-.037.279-.098.516-.439.526-.735.005-.296-.092-.669-.381-.828-.17-.1-.345-.189-.523-.274a5.721 5.721 0 00-.525-.226l-.221-.086-.256-.108a52.558 52.558 0 01-1.334-.562l-.197-.089-.38-.171c-.379-.172-.759-.343-1.133-.522l-.428-.213c-.37-.185-.736-.372-1.121-.507-.124-.051-.249-.09-.382-.132l-.128-.039c-.114-.188-.295-.335-.564-.455-.395-.181-.779-.386-1.164-.591a94.795 94.795 0 00-3.087-1.555c-1.053-.512-2.128-.941-3.323-1.408l-1.297-.514c-1.575-.616-3.25-1.277-4.863-1.982-.846-.375-1.697-.743-2.546-1.112l-.494-.214-3.349-1.46a110.724 110.724 0 00-6.084-2.505 53.556 53.556 0 01-.85-.331l-.425-.169a47.906 47.906 0 00-1.696-.652c-.224-.088-.455-.168-.685-.249l-.12-.04-.606-.213c-.403-.146-.802-.298-1.202-.45l-.324-.118a15.857 15.857 0 00-1.136-.371l-.194-.059c-.504-.155-1.026-.315-1.514-.53l-.592-.27c-.597-.28-1.338-.627-2.082-.823a4.168 4.168 0 00-.682-.149 1.592 1.592 0 00-.444.008z" fill="#E5F8FF"/><path d="M467.962 183.051c-.513.169-.882.555-1.004 1.056a2.407 2.407 0 00-.015 1.106c.049.209.118.412.182.608l.057.179c.14.426.238.868.337 1.305l.059.256c.066.291.154.579.237.868.081.269.162.536.223.807.15.607.236 1.228.3 1.816l.001.033c.044.507.089 1.019.095 1.533.006.297.002.595-.003.889-.003.417.038.824.085 1.237.03.241.064.485.103.724l.077.578c.013.106.03.213.048.322a1.742 1.742 0 00-.269.256c-.219.248-.425.508-.628.769l-.138.169.018-.014c-.112.146-.222.291-.324.439l-.204.279a7.84 7.84 0 01-.873.846c-.161.135-.33.257-.497.383-.205.152-.41.31-.609.474a5.837 5.837 0 00-1.04 1.208c-.174.265-.34.513-.524.751l-.159.201c-.164.205-.319.382-.473.558l-.325.379-.218.253a24.26 24.26 0 01-.653.748l-.128.144c-.57.625-1.161 1.271-1.657 1.979-.203.283-.385.582-.569.88l-.226.368-.171.282c-.06.114-.127.224-.195.334a6.451 6.451 0 01-.36.497l-.321.364c-.247.27-.448.489-.577.736a2.776 2.776 0 00-.34 1.043c-.06.42.115.895.473 1.283.438.485 1.073.697 1.69.861 1.063.28 2.043.394 3.004.354.424-.013.843.028 1.254.069l.352.037c.289.023.584.041.873.055l.602.033c.503.041 1.004.059 1.508.076.165.001.333.002.496-.002h.211c-.089.377-.172.773-.258 1.17a8.374 8.374 0 00-.155 1.028c.01-.063.021-.127.034-.191.086-.43.198-.849.307-1.268.045-.253.098-.507.151-.761l.011.003.022-.15c.042-.291.074-.584.103-.876.05-.533.15-1.059.3-1.607a7.01 7.01 0 01.077-.249c.042-.331.077-.668.111-1.004.02-.201.048-.404.077-.606.022-.16.041-.324.064-.484l.033-.373c.026-.221.046-.437.078-.659.096-.691.29-1.435.994-1.701.253-.094.515-.156.773-.216l.244-.059c.289-.07.586-.144.939-.228.32-.076.639-.166.958-.255.408-.115.817-.229 1.238-.321.44-.095.877-.176 1.321-.248 1.358-.222 2.854-.367 4.692-.437l-.153-.017.615-.03.378-.005-.084-.008a53.755 53.755 0 012.157-.085l.891-.007c.37-.004.735-.008 1.104-.02.074-.008.148-.01.224-.013l1.253-.082c.684-.041 1.365-.087 2.041-.14.242-.017.486-.046.726-.071.276-.03.552-.063.831-.083a25.834 25.834 0 011.806-.078c1 .003 1.991-.022 2.986-.047l.471-.011c.609-.008 1.219-.014 1.828-.019.533-.003 1.063-.003 1.598-.015a50.08 50.08 0 013.428.087l.469.022c.421.021.845.041 1.267.095.407.052.814.104 1.227.155l.537.068.822.102c.892.115 1.811.229 2.73.282.667.031 1.326.057 1.99.071l.172-.017.168-.023a19.803 19.803 0 011.62-.148.841.841 0 01.159-.002c-.24-.04-.486-.081-.732-.141l-.19-.044-.203-.043a21.29 21.29 0 00-1.261-.248c-.258-.037-.521-.07-.785-.102a18.06 18.06 0 01-1.004-.138 33.312 33.312 0 01-1.704-.336 67.849 67.849 0 01-1.545-.361l-.933-.229-.15-.024-.193-.062-.152-.041.037.018.082.031-.038-.009.035.019-.244-.059-.122-.028-.586-.122a43.402 43.402 0 01-.923-.198l-.195-.038-.334-.074c-.456-.099-.92-.199-1.384-.285a21.35 21.35 0 01-1.715-.366l-.332-.082.025.015.057.024-.03-.007.029.018-.419-.098c-.254-.057-.508-.121-.707-.168l-.214-.045-.444-.102a88.951 88.951 0 01-1.965-.467l-.58-.142-.244-.055-.476-.106-.142-.034-.684-.162-.897-.217c-.378-.075-.76-.139-1.149-.204l-.164-.031-.497-.083a38.054 38.054 0 00-1.172-.168 20.522 20.522 0 01-.846-.122 69.911 69.911 0 00-4.024-.515l-1.12-.115c-.745-.082-1.495-.161-2.242-.228-.251-.02-.502-.036-.754-.048l-.205-.014-.633-.037-.552-.037-.559-.038-.554-.032c-.512-.03-1.028-.06-1.536-.104l-.892-.091-.797-.082a27.837 27.837 0 00-1.6-.121c-.134-.006-.255-.015-.385-.022l-.261-.014c-.317-.02-.633-.038-.967-.04a5.396 5.396 0 00-.697.129c-.27.044-.557-.146-.639-.415-.323-.208-.468-.581-.583-.948a8.106 8.106 0 01-.191-.932l-.032-.17c-.076-.408-.146-.82-.187-1.236l-.071-.851-.039-.443-.075-.794-.075-.795-.009-.167a16.292 16.292 0 00-.152-1.246l-.063-.391-.038-.237c-.039-.244-.078-.487-.109-.747a10.677 10.677 0 00-.16-1.026 18.014 18.014 0 00-.22-.965 9.478 9.478 0 01-.198-.789l-.033-.207-.026-.165c-.011-.158-.026-.337-.007-.452.027-.265.086-.43.232-.685.171-.282.477-.48.875-.545.138-.022.282-.022.444-.011.229.024.46.085.68.149.745.196 1.486.542 2.08.822l.592.271c.49.218 1.011.373 1.516.531l.197.059c.383.111.764.224 1.134.37l.324.118c.399.152.799.303 1.202.45l.607.212.118.042c.228.077.462.156.686.248a47.46 47.46 0 011.696.652l.425.167c.285.114.565.223.851.333 1.019.385 2.026.788 3.029 1.196 1.029.417 2.038.861 3.053 1.309l3.349 1.46.493.211c.852.367 1.703.737 2.546 1.114 1.615.703 3.288 1.365 4.865 1.982l1.297.514c1.196.466 2.274.893 3.322 1.407 1.038.501 2.067 1.014 3.092 1.553.385.206.765.414 1.16.595.272.121.452.266.567.455l.128.04c.134.04.257.081.382.131.383.135.751.32 1.118.506l.428.214c.375.18.755.348 1.135.518l.38.175.199.09c.443.195.886.379 1.333.56a8.04 8.04 0 00-.975-.61c-.559-.301-1.136-.564-1.719-.832a42.94 42.94 0 01-.922-.43c-.35-.169-.707-.334-1.061-.502a52.422 52.422 0 01-1.969-.957l-.635-.339c-.294-.16-.591-.319-.897-.471l-.342-.168c-.392-.19-.783-.385-1.171-.582a16.206 16.206 0 00-1.265-.596l-.598-.243-.601-.246c-.407-.19-.808-.382-1.209-.576a77.19 77.19 0 00-1.424-.679c-.48-.215-.943-.422-1.413-.628l-.329-.15-.328-.155-.173-.085c-.586-.286-1.186-.58-1.808-.824a37.32 37.32 0 01-1.648-.68l.163.083-.176-.07.009-.006a118.437 118.437 0 00-3.038-1.369l.121.079a34.262 34.262 0 00-3.071-1.282 35.646 35.646 0 00-.831-.294l-.74-.256-.483-.176a59.157 59.157 0 00-1.105-.4 74.784 74.784 0 01-3.074-1.179c-.302-.121-.605-.232-.909-.347l-.504-.187a19.96 19.96 0 01-.777-.311c-.221-.087-.438-.176-.656-.261l-.409-.157c-.87-.333-1.745-.663-2.607-1.018a23.261 23.261 0 00-2.898-.986l-.146-.037a12.35 12.35 0 01-.844-.226l-.257-.085c-.213-.069-.426-.143-.642-.198-.341-.091-.631-.166-.954-.193a1.697 1.697 0 00-.45.002.833.833 0 00-.155.037zm49.634 20.902c-3.709 1.186-7.454 2.26-11.193 3.343-3.717 1.075-7.422 2.16-11.101 3.35-6.353 2.052-12.749 4.017-18.842 6.782-3.105 1.403-6.104 3.04-8.883 5.019-.122.086-.192.268-.202.41a.618.618 0 00.149.433.59.59 0 00.407.199c.171.009.296-.053.431-.15.167-.12.338-.239.509-.357l-.008.006c4.907-3.345 10.426-5.646 15.983-7.636a255.9 255.9 0 017.388-2.471c2.631-.85 5.263-1.703 7.91-2.509 5.889-1.783 11.835-3.376 17.7-5.253.151-.047.278-.111.369-.249.09-.133.119-.304.09-.458a.602.602 0 00-.651-.47c-.02.002-.039.007-.056.011z" fill="#B1EAFF"/><path d="M467.018 183.003c-.059.312.155.645.477.693 1.796.259 3.548.714 5.278 1.266l-.147-.046c3.36 1.093 6.594 2.534 9.902 3.775 1.757.657 3.509 1.314 5.253 2.008 1.748.692 3.49 1.413 5.223 2.16 3.477 1.496 6.888 3.137 10.285 4.812a431.869 431.869 0 0110.164 5.196c1.276.679 2.555 1.363 3.828 2.052.284.157.657-.003.789-.285.143-.306 0-.637-.286-.792a413.173 413.173 0 00-10.11-5.304c-3.391-1.722-6.795-3.412-10.246-5.011a182.719 182.719 0 00-10.406-4.401c-1.708-.671-3.436-1.29-5.142-1.956-1.65-.637-3.282-1.309-4.924-1.952-2.992-1.168-6.062-2.229-9.25-2.692a.643.643 0 00-.196.002.579.579 0 00-.492.475z" fill="#B1EAFF"/><path d="M469.182 205.042c-.145.034-.281.179-.34.31a.583.583 0 00-.027.447.619.619 0 00.308.347c.152.071.286.056.444.023.439-.1.875-.195 1.314-.291-.05.013-.1.021-.149.035 10.481-2.185 21.267-2.249 31.909-1.716h-.021c1.188.061 2.372.132 3.555.189 1.224.061 2.452.115 3.677.175-.046-.003-.099-.003-.151-.004 2.223.11 4.445.252 6.658.5.32.037.629-.145.692-.481.054-.302-.158-.658-.477-.691-3.67-.41-7.36-.529-11.046-.713l.015.001c-2.975-.157-5.957-.316-8.938-.386-3.109-.078-6.218-.07-9.324.036-4.372.152-8.737.536-13.052 1.24a81.243 81.243 0 00-5.047.979zm33.59-.836l-.131-.007.131.007zm2.757-1.036a1.195 1.195 0 00-.136-.006c.046.002.091.003.136.006z" fill="#B1EAFF"/><path d="M468.814 197.513c.025.333.311.558.637.549a76.707 76.707 0 016.142.055l-.03-.001.139.007.012.001-.004-.001c6.88.369 13.685 1.533 20.432 2.875 1.692.333 3.374.681 5.063 1.029 1.625.339 3.247.679 4.886.953 3.282.555 6.596.99 9.785 1.994.094.033.189.065.283.096.154.05.289.076.449.021a.6.6 0 00.368-.757c-.049-.133-.165-.299-.308-.346-1.665-.555-3.363-.961-5.081-1.29-1.753-.338-3.521-.597-5.283-.888-1.784-.3-3.551-.676-5.323-1.044a506.494 506.494 0 00-5.509-1.116c-7.356-1.448-14.796-2.641-22.31-2.802a71.94 71.94 0 00-3.802.025.692.692 0 00-.064.006c-.29.046-.506.34-.482.634zm46.949 7.424l.107.035c-.037-.012-.074-.022-.107-.035zm-40.053-6.814h-.008l-.109-.006a.966.966 0 00.117.006z" fill="#B1EAFF"/><path d="M466.883 182.968a.637.637 0 00-.105.451c.353 4.754 1.068 9.476 2.017 14.139.06.321.353.547.679.494.31-.055.554-.374.49-.689-.949-4.665-1.663-9.392-2.016-14.139-.024-.325-.387-.541-.684-.493a.624.624 0 00-.381.237zm1.933 22.564c-.506 1.296-.886 2.637-1.205 3.993a37.911 37.911 0 00-.758 4.603 33.887 33.887 0 00-.175 4.617c.022.752.081 1.501.173 2.25.084.672.205 1.346.394 1.999.092.31.494.445.772.332a.606.606 0 00.323-.32c.064-.159.051-.297.008-.455-.018-.054-.032-.108-.049-.163-.345-1.561-.457-3.163-.46-4.759l.001.028a36.69 36.69 0 011.263-9.226l-.008.039c.232-.836.498-1.663.81-2.47a.601.601 0 00-.314-.783.57.57 0 00-.323-.039.578.578 0 00-.452.354z" fill="#B1EAFF"/><path d="M468.354 195.713a154.383 154.383 0 00-5.585 6.312c-.9 1.085-1.779 2.188-2.632 3.304a67.124 67.124 0 00-1.187 1.605c-.434.596-.848 1.205-1.281 1.804-.296.412-.613.808-.881 1.244-.215.356-.329.785-.243 1.2.084.416.358.74.649 1.033.339.337.748.604 1.19.782.873.352 1.831.476 2.757.579.841.095 1.681.143 2.524.212h-.009.018l.054.005a21.877 21.877 0 001.264.075c.477.016.957.023 1.437.055.261.028.518.064.776.112a.606.606 0 00.711-.456c.068-.309-.133-.653-.452-.71-1.153-.212-2.326-.15-3.491-.24l.042.005c-.714-.069-1.432-.113-2.147-.175l.008.002c-.985-.095-1.987-.205-2.931-.521a2.94 2.94 0 01-.531-.261 5.042 5.042 0 01-.59-.521 1.614 1.614 0 01-.114-.185l-.013-.044-.003-.049a.64.64 0 01.02-.089c.07-.167.16-.318.258-.468.354-.507.73-1.002 1.083-1.509.425-.607.859-1.203 1.297-1.798a97.894 97.894 0 012.869-3.675c1.923-2.347 3.949-4.61 6.009-6.828a.603.603 0 00-.042-.845.581.581 0 00-.488-.143.622.622 0 00-.346.188zm-10.619 15.009l-.013.036.013-.036zm-.039.059l-.002.054-.001.003.003-.057zm-.019.053l.011.063v.002a.52.52 0 01-.011-.065zm.016.005l-.002.007c.003-.002.003-.004.002-.007zm-.005.064l.001.003-.001-.003zm8.656 3.015c.015 0 .029.004.044.005a.536.536 0 01-.044-.005zm-2.636-.122c-.011-.003-.023-.004-.035-.005l-.009-.001c.013.003.028.004.044.006zm.262-1.164a1.268 1.268 0 00-.105-.008l.105.008z" fill="#B1EAFF"/><path d="M468.366 206.172c-3.569 1.479-7.066 3.132-10.654 4.567-.149.062-.273.143-.352.298a.586.586 0 00-.04.445c.088.293.44.52.739.399 3.589-1.436 7.082-3.088 10.655-4.567.149-.062.273-.144.351-.298a.61.61 0 00.04-.445c-.079-.261-.366-.472-.639-.427a.365.365 0 00-.1.028z" fill="#B1EAFF"/><path fill-rule="evenodd" clip-rule="evenodd" d="M0 3.653c.337.206.734.445 1.202.721a.992.992 0 001.365-.353 1.008 1.008 0 00-.36-1.373c-.489-.29-.894-.533-1.226-.737-.057-.31-.26-.59-.568-.732l-.132.293.132-.293H.412L.41 1.178l-.008-.004-.029-.013A15.208 15.208 0 000 .998v2.655zm9.798 3.326a.992.992 0 00-1.356.386 1.008 1.008 0 00.39 1.364c2.114 1.183 4.638 2.586 7.647 4.245a.992.992 0 001.353-.394 1.008 1.008 0 00-.4-1.362A1380.816 1380.816 0 019.799 6.98zm15.296 8.446a.992.992 0 00-1.352.4 1.008 1.008 0 00.404 1.36c2.347 1.284 4.902 2.678 7.683 4.192a.992.992 0 001.351-.402 1.008 1.008 0 00-.407-1.36 3922.31 3922.31 0 01-7.68-4.19zM40.475 23.8a.992.992 0 00-1.35.404 1.008 1.008 0 00.41 1.36l3.884 2.104c1.444.782 2.908 1.599 4.39 2.448a.992.992 0 001.36-.372 1.008 1.008 0 00-.378-1.368 209.52 209.52 0 00-4.433-2.472L40.475 23.8zm210.474 84.831a24.685 24.685 0 00-5.212-1.465.993.993 0 00-1.14.829 1.008 1.008 0 00.831 1.15c1.564.254 3.165.697 4.79 1.348a43.544 43.544 0 014.956 2.347.992.992 0 001.355-.39 1.008 1.008 0 00-.396-1.363 45.416 45.416 0 00-5.184-2.456zM57.509 33.609a.992.992 0 00-1.372.32c-.29.47-.144 1.087.325 1.38a360.773 360.773 0 018.517 5.5.992.992 0 001.382-.28 1.008 1.008 0 00-.286-1.39 362.946 362.946 0 00-8.565-5.53zm207.677 84.527a.994.994 0 00-1.409-.069 1.005 1.005 0 00-.061 1.416c2.632 2.898 4.399 6.052 5.36 9.232.161.531.718.832 1.245.674a.998.998 0 00.664-1.248c-1.054-3.484-2.977-6.899-5.799-10.005zm-29.428-8.104a.998.998 0 00.587-1.286 1.001 1.001 0 00-1.283-.597c-3.361 1.241-6.356 3.341-8.809 6.095a1.006 1.006 0 00.081 1.416.993.993 0 001.408-.075c2.252-2.528 4.981-4.433 8.016-5.553zM74.465 44.852a.993.993 0 00-1.387.251 1.008 1.008 0 00.257 1.395 623.595 623.595 0 018.271 5.86.993.993 0 001.391-.227c.32-.45.215-1.076-.234-1.4a625.22 625.22 0 00-8.298-5.879zm16.51 11.876a.993.993 0 00-1.395.21 1.007 1.007 0 00.217 1.402c2.689 1.988 5.397 4.012 8.118 6.064a.993.993 0 001.396-.198c.33-.442.238-1.07-.203-1.403a1090.437 1090.437 0 00-8.133-6.075zm16.223 12.22a.992.992 0 00-1.397.188 1.008 1.008 0 00.194 1.405c2.675 2.046 5.359 4.11 8.048 6.185a.994.994 0 001.399-.181 1.007 1.007 0 00-.188-1.406 2224.181 2224.181 0 00-8.056-6.19zm164.093 70.8a1.006 1.006 0 00-.715-1.225.991.991 0 00-1.216.712c-.866 3.348-2.675 6.445-5.376 8.975a1.006 1.006 0 00-.045 1.417.995.995 0 001.41.053c2.973-2.785 4.98-6.213 5.942-9.932zm-148.01-58.395a.993.993 0 00-1.399.178 1.007 1.007 0 00.184 1.406c2.089 1.62 4.178 3.243 6.265 4.865l1.753 1.361a.993.993 0 001.399-.177 1.008 1.008 0 00-.183-1.407l-1.759-1.365-.046-.036c-2.07-1.608-4.142-3.218-6.214-4.825zm326.112 132.8a.996.996 0 00.752-1.195l-1.193-.762h-.001l-.011.003-.05.01-.101.021-.111.022c-.192.037-.486.092-.885.159-.799.133-2.019.316-3.685.508a1.004 1.004 0 00.237 1.992 74.956 74.956 0 003.785-.523c.417-.07.728-.127.937-.168.105-.02.184-.037.238-.048l.063-.013.017-.004.005-.001h.002l.001-.001-.015-.068.015.068zm-226.571-89.986a1.007 1.007 0 00-.621-1.275.992.992 0 00-1.267.618c-1.094 3.213-1.689 6.762-1.686 10.531.001.554.448 1.004.999 1.006a.994.994 0 00.997-.998c-.004-3.555.558-6.885 1.578-9.882zM139.317 93.8a.992.992 0 00-1.398.18 1.007 1.007 0 00.185 1.406c2.689 2.082 5.369 4.153 8.038 6.205a.993.993 0 001.398-.184 1.007 1.007 0 00-.19-1.406c-2.667-2.05-5.346-4.12-8.033-6.2zm294.904 121.891a.996.996 0 00.946-1.048 1.006 1.006 0 00-1.047-.955c-2.884.133-6.216.222-10.016.232a.995.995 0 00-.99 1.005 1.005 1.005 0 001.005 1c3.829-.01 7.188-.1 10.102-.234zM155.413 106.167a.994.994 0 00-1.397.193 1.006 1.006 0 00.199 1.404c2.721 2.068 5.426 4.108 8.108 6.112a.993.993 0 001.395-.203 1.007 1.007 0 00-.209-1.403c-2.678-2-5.378-4.037-8.096-6.103zm258.601 109.612a.994.994 0 001.023-.972 1.008 1.008 0 00-.973-1.032c-3.12-.094-6.468-.239-10.051-.445a.993.993 0 00-1.049.943 1.007 1.007 0 00.945 1.058c3.6.207 6.966.353 10.105.448zm-242.353-97.487a.992.992 0 00-1.392.219 1.008 1.008 0 00.225 1.401 671.093 671.093 0 008.264 5.936.992.992 0 001.389-.241 1.007 1.007 0 00-.247-1.397 671.66 671.66 0 01-8.239-5.918zm83.654 37.01a.998.998 0 00.664-1.248 1.002 1.002 0 00-1.245-.673c-3.106.934-6.677 1.417-10.697 1.312a.993.993 0 00-1.018.976 1.007 1.007 0 00.976 1.028c4.209.11 7.993-.395 11.32-1.395zm-32.629-11.252a1.004 1.004 0 00-1.234-.695 1 1 0 00-.685 1.236 44.706 44.706 0 001.854 5.242.991.991 0 00-.681.596 1.008 1.008 0 00.555 1.306c.408.166.813.328 1.216.485.351.717.725 1.435 1.121 2.155a.998.998 0 001.356.397c.482-.266.656-.876.388-1.361l-.071-.131-.019-.034a69.734 69.734 0 006.271 1.865.993.993 0 001.203-.736 1.009 1.009 0 00-.738-1.212 67.34 67.34 0 01-5.311-1.545c-.9-.301-1.817-.629-2.749-.983a43.362 43.362 0 01-2.476-6.585zm-34.478-14.091a.993.993 0 00-1.384.269 1.008 1.008 0 00.275 1.392 368.558 368.558 0 008.525 5.604.992.992 0 001.375-.308 1.007 1.007 0 00-.313-1.383 369.944 369.944 0 01-8.478-5.574zm205.637 84.674a.992.992 0 001.069-.919 1.006 1.006 0 00-.92-1.079 497.446 497.446 0 01-10.007-.91.993.993 0 00-1.088.897c-.052.551.35 1.042.898 1.098 3.504.353 6.852.656 10.048.913zM205.296 140.8a.993.993 0 00-1.363.361 1.008 1.008 0 00.366 1.371 183.942 183.942 0 008.919 4.907.991.991 0 001.34-.436 1.009 1.009 0 00-.441-1.349 181.693 181.693 0 01-8.821-4.854zm168.423 71.81a.993.993 0 001.104-.878 1.007 1.007 0 00-.879-1.113 629.784 629.784 0 01-9.943-1.266.992.992 0 00-1.117.859 1.007 1.007 0 00.861 1.128c3.44.465 6.764.887 9.974 1.27zm-19.983-2.701a.993.993 0 001.13-.843 1.007 1.007 0 00-.845-1.14 737.38 737.38 0 01-9.968-1.568.993.993 0 00-1.142.827 1.008 1.008 0 00.83 1.151c3.425.562 6.756 1.086 9.995 1.573zm-121.414-48.075a.996.996 0 00-1.405-.14 1.005 1.005 0 00-.132 1.411c2.11 2.572 4.538 5.124 7.308 7.63a.994.994 0 001.409-.07 1.007 1.007 0 00-.077-1.416c-2.7-2.443-5.059-4.924-7.103-7.415zm101.491 44.808a.993.993 0 001.152-.813 1.007 1.007 0 00-.815-1.161 865.627 865.627 0 01-9.9-1.811.99.99 0 00-1.16.799c-.1.544.259 1.069.801 1.171a869.47 869.47 0 009.922 1.815zm-19.829-3.743a.992.992 0 001.169-.787 1.008 1.008 0 00-.789-1.179 966.711 966.711 0 01-4.986-1.011 260.33 260.33 0 01-5.136-1.108.994.994 0 00-1.189.758c-.118.54.222 1.076.76 1.198 1.695.383 3.419.756 5.175 1.116 1.682.346 3.348.684 4.996 1.013zm-66.585-27.278a.993.993 0 00-1.39.238 1.007 1.007 0 00.244 1.397 107.951 107.951 0 008.884 5.651.991.991 0 001.359-.374 1.007 1.007 0 00-.379-1.367 105.798 105.798 0 01-8.718-5.545zm46.328 22.643a.991.991 0 001.22-.705 1.008 1.008 0 00-.708-1.23 208.37 208.37 0 01-9.878-2.942.992.992 0 00-1.254.644 1.01 1.01 0 00.648 1.263 211.518 211.518 0 009.972 2.97zm-28.523-12.389a.993.993 0 00-1.325.482 1.009 1.009 0 00.487 1.333 154.696 154.696 0 009.576 4.103.992.992 0 001.289-.571 1.008 1.008 0 00-.574-1.297 152.631 152.631 0 01-9.453-4.05z" fill="#B1EAFF"/></g><defs><clipPath id="clip0"><path fill="#fff" transform="translate(0 .998)" d="M0 0h520v224.002H0z"/></clipPath></defs></svg>