<svg width="56" height="56" fill="none" xmlns="http://www.w3.org/2000/svg"><g clip-path="url(#clip0)"><path d="M44.773 37.453H37.25a23.926 23.926 0 00-1.195-7.628l-.002-.01a42.02 42.02 0 005.353-1.596v-1.071h.02a17.45 17.45 0 013.347 10.305zm-7.523 0h7.523a17.46 17.46 0 01-4.337 11.543 17.337 17.337 0 00-4.462-3.675 23.817 23.817 0 001.276-7.867v-.001zM13.139 11.672L6.114 8.94 27.772.979l21.657 7.96-7.023 2.733-14.634 5.696-14.633-5.695z" fill="#fff"/><path d="M28.247 30.85l-.474.003c-2.82 0-5.631-.284-8.394-.847a41.68 41.68 0 01-6.071-1.726l-.17-.061v-7.014a41.971 41.971 0 0029.268 0v7.014a42.025 42.025 0 01-5.353 1.597 42.045 42.045 0 01-8.806 1.034z" fill="#fff"/><path d="M42.406 11.673v9.532a41.971 41.971 0 01-29.267 0v-9.532l14.633 5.696 14.634-5.696z" fill="#fff"/><path d="M9.139 10.672L4.578 8.898c-.859-.334-.847-1.553.017-1.87L23.082.231a2 2 0 011.38 0l18.487 6.795c.864.318.876 1.537.017 1.87l-4.56 1.775-13.909 5.414a2 2 0 01-1.45 0L9.138 10.673zM24.247 29.85l-.474.003c-2.82 0-5.631-.284-8.394-.847-.044-.015-3.898-.922-5.593-1.321a1 1 0 01-.77-.993l.123-6.487a41.971 41.971 0 0029.267 0v6.319c0 .418-.26.793-.653.932a42.027 42.027 0 01-4.7 1.36 42.045 42.045 0 01-8.806 1.034z" fill="#65C5E3"/><path d="M38.406 10.673v9.532a41.971 41.971 0 01-29.267 0v-9.532l14.633 5.696 14.634-5.696z" fill="#65C5E3"/><path d="M41.435 48.996a17.481 17.481 0 01-12.734 5.978c3.964-1.901 6.77-5.362 8.272-9.653a17.34 17.34 0 014.462 3.675zm-3.186-11.543v.001a23.82 23.82 0 01-1.276 7.867 17.31 17.31 0 00-8.682-2.299h-.045v-5.57H38.25z" fill="#fff"/><path d="M37.25 37.453H27.247V30.85a42.03 42.03 0 008.806-1.035l.003.01a23.925 23.925 0 011.194 7.628zm-1.276 7.869c-1.503 4.29-4.308 7.751-8.272 9.652a17.7 17.7 0 01-.455.007V43.023h.045c3.046-.011 6.04.782 8.682 2.299zm-8.727 8.064v1.595c-.152 0-.303-.003-.453-.007h-.001c-3.96-1.898-6.762-5.354-8.267-9.635a17.491 17.491 0 018.72-2.316v10.363z" fill="#fff"/><path d="M27.247 37.453v5.57a17.491 17.491 0 00-8.72 2.316 23.839 23.839 0 01-1.283-7.885v-.001h10.003zm0-6.603v6.603H17.244a23.986 23.986 0 011.135-7.447 42.034 42.034 0 008.867.844zm-8.721 14.489c1.505 4.282 4.307 7.737 8.267 9.636a17.48 17.48 0 01-12.734-5.977 17.488 17.488 0 014.467-3.66z" fill="#fff"/><path d="M18.379 30.006a23.986 23.986 0 00-1.135 7.447H9.72a17.45 17.45 0 012.586-9.168l.002-.005a41.688 41.688 0 006.071 1.726zm-1.135 7.448a23.836 23.836 0 001.282 7.885 17.49 17.49 0 00-4.467 3.658 17.458 17.458 0 01-4.34-11.544h7.525v.001z" fill="#fff"/><path d="M4.73 9.852l6.37 2.49v15.876c0 .025.034.05.036.074A18.564 18.564 0 0026.767 56h.008c.157 0 .313-.017.471-.017.158 0 .319-.014.48-.018 10.03-.275 18.026-8.475 18.046-18.51a18.361 18.361 0 00-3.348-10.648V12.343l5.017-1.972v15.548a3.68 3.68 0 00-2.614 3.482 3.625 3.625 0 107.25 0 3.577 3.577 0 00-2.678-3.497V9.116c.001-.035 0-.07-.001-.104.002-.027.008-.054.008-.082a.978.978 0 00-.64-.91L27.108.06a.977.977 0 00-.675 0L4.775 8.02a.993.993 0 00-.656.91.967.967 0 00.61.922zm45.394 19.55a1.668 1.668 0 11-3.337 0 1.668 1.668 0 013.338 0zm-37.377.049c1.44.494 2.906.91 4.391 1.247a25.196 25.196 0 00-.856 5.725h-5.553a16.448 16.448 0 012.018-6.973zm1.36 18.038a16.603 16.603 0 01-3.379-9.108h5.554c.063 2.2.423 4.381 1.07 6.484a18.459 18.459 0 00-3.244 2.624zm1.285 1.51a16.473 16.473 0 012.645-2.203c1.086 2.609 2.62 4.81 4.542 6.532a16.62 16.62 0 01-7.187-4.329zm10.881 4.593c-2.937-1.675-5.142-4.343-6.524-7.796a16.247 16.247 0 016.524-1.766v9.562zm0-11.52a18.674 18.674 0 00-7.168 1.828 22.814 22.814 0 01-.864-5.52h8.032v3.691zm0-5.65h-8.032a23 23 0 01.822-5.315c2.378.442 4.79.683 7.21.718v4.598zm.976-6.55l-.472.002c-2.763 0-5.52-.277-8.23-.827a44.077 44.077 0 01-5.489-1.515v-4.945a43.649 43.649 0 0013.704 2.234 43.645 43.645 0 0013.705-2.234v4.945c-1.591.53-3.061.977-4.61 1.328a41.206 41.206 0 01-8.608 1.011zm-14.19-9.355v-7.412l13.328 5.176c.118.044.244.067.37.067.13 0 .26-.023.382-.067l13.328-5.177v7.413a41.22 41.22 0 01-27.409 0zM28.23 36.423v-4.616c2.406-.088 4.8-.38 7.156-.874.505 1.79.795 3.632.864 5.49h-8.02zm8.02 1.957a22.757 22.757 0 01-.853 5.502 18.437 18.437 0 00-7.167-1.815V38.38h8.02zm-8.02 15.213v-9.566a16.13 16.13 0 016.532 1.752c-1.38 3.461-3.596 6.135-6.532 7.814zm3.683-.266c1.925-1.725 3.462-3.931 4.547-6.546a16.264 16.264 0 012.643 2.214 16.624 16.624 0 01-7.19 4.332zm8.474-5.843c-.977-1-2.064-1.883-3.242-2.635a24.365 24.365 0 001.064-6.468h5.554a16.598 16.598 0 01-3.376 9.103zm3.374-11.061H38.21a24.631 24.631 0 00-.915-5.927 43.297 43.297 0 004.292-1.34 16.376 16.376 0 012.175 7.267zM26.772 2.022l18.89 6.943-4.573 1.78c-.027.01-.053.02-.08.032l-14.238 5.542-14.23-5.539a1.125 1.125 0 00-.1-.04L7.88 8.966l18.891-6.943z" fill="#221F1E"/></g><defs><clipPath id="clip0"><path fill="#fff" d="M0 0h56v56H0z"/></clipPath></defs></svg>