<svg width="56" height="56" fill="none" xmlns="http://www.w3.org/2000/svg"><g clip-path="url(#clip0)"><path d="M3.918 53.977V1.945h29.663v10.698h10.698v41.334H3.918z" fill="#fff"/><path d="M1 50.032V2a2 2 0 012-2h26.834a2 2 0 011.415.586l4.763 4.763 4.763 4.763a2 2 0 01.586 1.415v38.505a2 2 0 01-2 2H3a2 2 0 01-2-2z" fill="#65C5E3"/><path d="M44.508 20.195c7.083 3.438 10.455 11.645 7.837 19.07-2.617 7.425-10.391 11.703-18.064 9.94-7.673-1.764-12.8-9.006-11.914-16.828.886-7.823 7.503-13.735 15.376-13.737 2.344 0 4.657.53 6.765 1.555zm4.911 13.919c0-6.45-5.228-11.677-11.677-11.677s-11.677 5.229-11.676 11.677c0 6.45 5.228 11.677 11.677 11.677s11.676-5.229 11.676-11.677z" fill="#fff"/><path d="M37.744 22.437c6.45 0 11.677 5.228 11.676 11.677 0 6.45-5.228 11.677-11.677 11.677-6.45 0-11.677-5.229-11.677-11.678 0-6.448 5.23-11.676 11.678-11.676zm6.765-9.615H33.582V1.895l10.927 10.927z" fill="#fff"/><path d="M4.22 55.435h40.29a.89.89 0 00.903-.922v-5.9a16.591 16.591 0 006.158-5.673 16.36 16.36 0 00-.004-17.65 16.575 16.575 0 00-6.154-5.675v-6.793a.928.928 0 00-.256-.67h.011L34.247 1.225l.002.013a.925.925 0 00-.666-.265H4.22a.932.932 0 00-.956.922v52.618a.932.932 0 00.956.922zM49.998 26.31a14.516 14.516 0 11-24.492 15.585A14.516 14.516 0 0149.998 26.31zM34.52 4.18l7.703 7.684H34.52V4.181zM5.158 2.867h27.468v9.955a.947.947 0 00.957.938h9.936v4.994a15.86 15.86 0 00-5.797-1.061c-9.055 0-16.41 7.366-16.41 16.42 0 9.054 7.35 16.422 16.405 16.422a15.92 15.92 0 005.802-1.061v4.067H5.158V2.867z" fill="#221F1E"/><path d="M25.12 34.113c0 6.972 5.652 12.624 12.624 12.625 6.972 0 12.624-5.652 12.624-12.624S44.718 21.49 37.745 21.49c-6.969.008-12.616 5.655-12.625 12.623zm23.354 0c0 5.926-4.803 10.73-10.73 10.73-5.926 0-10.73-4.803-10.73-10.73 0-5.925 4.805-10.73 10.73-10.729 5.923.007 10.723 4.806 10.73 10.73z" fill="#221F1E"/><path d="M36.178 28.271v6.817a.906.906 0 00.916.93h5.194a.947.947 0 000-1.894h-4.216v-5.853a.947.947 0 00-1.894 0z" fill="#221F1E"/></g><defs><clipPath id="clip0"><path fill="#fff" d="M0 0h56v56H0z"/></clipPath></defs></svg>