<svg width="56" height="56" fill="none" xmlns="http://www.w3.org/2000/svg"><g clip-path="url(#clip0)"><path d="M50 4.013v41.215c0 1.111-.946 2.013-2.115 2.013H10.947a4.036 4.036 0 00-2.79 1.101A3.66 3.66 0 007 51V4.014C7 2.901 7.948 2 9.115 2h38.77C49.054 2 50 2.901 50 4.013zM34.999 20.185L28.5 7.858l-6.499 12.327 2.008 7.283h-1.354v5.235h11.69v-5.235h-1.204v-.023L35 20.185z" fill="#fff"/><path d="M47 2.013v41.215c0 1.111-.946 2.013-2.115 2.013H7.947a4.036 4.036 0 00-2.79 1.101A3.66 3.66 0 004 49V2.014C4 .901 4.948 0 6.115 0h38.77C46.054 0 47 .901 47 2.013zM31.999 18.185L25.5 5.858l-6.499 12.327 2.008 7.283h-1.354v5.235h11.69v-5.235h-1.204v-.023L32 18.185z" fill="#65C5E3"/><path d="M47 48v5.126C47 54.16 46.057 55 44.895 55H10.928C8.76 55 7 53.432 7 51.5a3.309 3.309 0 011.15-2.474A4.173 4.173 0 0110.93 48H47zM28.5 17.428c-.852 0-1.543.707-1.544 1.58 0 .871.69 1.579 1.543 1.58.852 0 1.543-.707 1.543-1.58 0-.872-.69-1.58-1.542-1.58zM28.5 8L35 20.572l-1.858 7.405V28h-9.134L22 20.572 28.5 8zm-4.226 20H34v5H23v-5h1.274z" fill="#fff"/><path d="M28.5 17a1.5 1.5 0 110 3 1.5 1.5 0 010-3z" fill="#65C5E3"/><path d="M47.895 1.317H8.922c-1.683 0-3.105 1.32-3.105 2.944V51.31c0 2.587 2.248 4.691 4.947 4.691h34.297c1.684 0 3.043-1.32 3.043-2.942v-4.594C49.726 48.356 51 47.081 51 45.53V4.26c0-1.621-1.421-2.942-3.105-2.942zm-1.645 51.74c0 .6-.528 1.09-1.189 1.09H10.764c-1.676 0-3.04-1.273-3.04-2.838a2.729 2.729 0 01.872-1.99 3.131 3.131 0 012.168-.85H46.25v4.589zm2.897-7.528c0 .6-.59 1.087-1.252 1.087h-37.13a5.298 5.298 0 00-3.094 1.017V4.26c0-.6.59-1.09 1.251-1.09h38.973c.661 0 1.252.489 1.252 1.089v41.27z" fill="#221F1E"/><path d="M42.722 40.36H14.095a.927.927 0 000 1.854h28.627a.927.927 0 000-1.854zm0-4.634H14.095a.927.927 0 000 1.853h28.627a.927.927 0 000-1.853zm-20.046-8.921h-.143a.967.967 0 00-.96.941v5.242c0 .512.448.884.96.884h11.752c.512 0 .96-.372.96-.884v-5.242a.967.967 0 00-.96-.94h-.022l1.576-6.13a.919.919 0 00-.078-.66L29.228 7.675a.928.928 0 00-1.638 0L21.057 20.02a.911.911 0 00-.074.674l1.693 6.112zm10.715 5.214h-9.964v-3.36h9.964v3.36zm-4.359-13.1a.623.623 0 11-1.246-.003.623.623 0 011.246.002zm-1.55-7.077v4.78a2.477 2.477 0 101.854 0v-4.78l4.619 8.72-1.605 6.243h-7.751l-1.732-6.25 4.615-8.713z" fill="#221F1E"/></g><defs><clipPath id="clip0"><path fill="#fff" d="M0 0h56v56H0z"/></clipPath></defs></svg>