<svg width="56" height="56" fill="none" xmlns="http://www.w3.org/2000/svg"><path d="M47.952 10.18v33.974H17.257V2.636h23.444l3.68 3.864 3.57 3.68z" fill="#fff"/><path d="M43.347 44.155v4.605H12.652V7.24h4.606v36.914h26.09z" fill="#fff"/><path d="M38.742 48.76v4.604H8.048V11.845h4.604V48.76h26.09z" fill="#fff"/><path d="M45.67 7.89a1 1 0 01.282.696v32.568a1 1 0 01-1 1H16.257a1 1 0 01-1-1V1.636a1 1 0 011-1h22.016a1 1 0 01.724.31L42.382 4.5l3.288 3.39z" fill="#65C5E3"/><path d="M40.702 2.636l7.25 7.544h-7.25V2.636z" fill="#fff"/><path d="M41.333 2.024a.88.88 0 00-.631-.274H17.258a.865.865 0 00-.852.886v3.708h-3.753a.865.865 0 00-.84.897v3.697H8.047c-.483 0-.83.424-.83.907v41.52c0 .482.347.885.83.885h30.694a.864.864 0 00.852-.886v-3.708h3.753a.864.864 0 00.84-.897v-3.697h3.765c.483 0 .83-.424.83-.907V10.18a.86.86 0 00-.222-.61l-7.227-7.547zm.23 2.785l4.335 4.488h-4.336V4.809zM37.843 52.5H8.97V12.687h2.844V48.76a.865.865 0 00.84.897h25.19V52.5zm4.594-4.594H13.564V8.094h2.843v36.06c0 .484.37.908.852.908h25.18v2.844zm-24.28-4.593V3.5h21.655v6.68a.88.88 0 00.89.867h6.33v32.266H18.155z" fill="#221F1E"/></svg>