<svg width="72" height="32" fill="none" xmlns="http://www.w3.org/2000/svg"><path d="M12.049 5.808C5.396 5.808 0 11.377 0 18.243c0 6.865 5.396 12.434 12.049 12.434s12.049-5.569 12.049-12.434c0-6.866-5.396-12.435-12.05-12.435zm-.045 3.901c4.569 0 8.269 3.818 8.269 8.534 0 4.715-3.7 8.533-8.27 8.533-4.568 0-8.28-3.818-8.28-8.533 0-4.716 3.712-8.534 8.28-8.534z" fill="#FEB511"/><path d="M27.675 8.49v10.832h2.092v-7.511l3.713 7.511h2.261V8.49H33.65v6.757L30.218 8.49h-2.543zm12.848 2.682c-2.216 0-4.005 1.846-4.005 4.133s1.789 4.145 4.005 4.145c2.215 0 4.016-1.858 4.016-4.145 0-2.287-1.8-4.133-4.016-4.133zm.01 2.008c1.134 0 2.048.955 2.048 2.125s-.914 2.113-2.047 2.113c-1.134 0-2.059-.943-2.059-2.113s.925-2.125 2.059-2.125zm4.549-1.833v7.975h2.273v-3.237c0-1.147.242-1.826.646-2.318.419-.51.787-.81 1.91-.825l.853.012.011 3.647c.002.558.03 1.029.15 1.43.28.921.958 1.426 2.27 1.426.6 0 1.185-.083 1.74-.293l-.273-1.619c-.26.103-.57.168-.807.17-.667.007-.82-.294-.818-1.014v-3.747h1.636l.006-1.607h-1.642L53.03 9.09l-1.835-.006-.392 2.263h-1.069c-.34 0-.603.003-.862.07-1.094.285-1.543 1.116-1.82 1.637l-.642-1.707h-1.33zm13.862-.175c-2.216 0-4.005 1.846-4.005 4.133s1.789 4.145 4.005 4.145 4.016-1.858 4.016-4.145c0-2.287-1.8-4.133-4.016-4.133zm.011 2.008c1.134 0 2.047.955 2.047 2.125s-.913 2.113-2.047 2.113c-1.134 0-2.059-.943-2.059-2.113s.925-2.125 2.059-2.125zm8.995-2.008c-1.04.006-1.894.522-2.689 1.405l-.438-1.23h-1.328v7.975h2.216v-5.48c.227-.265.74-.755 1.395-.754.834 0 1.136.553 1.137 1.172l.01 5.062h2.262v-5.131c.002-1.996-1.123-3.027-2.565-3.02zm2.77 1.1v-.762h-.216v-.159h.604v.159h-.221v.762h-.166zm.502 0v-.92h.24l.16.609.15-.61H72v.92h-.126v-.716l-.197.717h-.12l-.18-.73v.73h-.155zM24.21 2.975v.952h.923v-.952h-.923zm0 .952H22.5v.952h1.71v-.952zm-1.71.952h-.855v1.858h.855V4.879zm0 1.858v.906h.878v-.906H22.5zm.878 0h.967v-.894h-.967v.894zm-.878.906h-.855v.928h-.889v-.928h-1.45v.661h-.788v.813h.866v.906h-.878l.012-.906h-.945v1.428h-.878v.894H16.1v.906h-.63c-1.355 2.293-2.442 4.411-3.071 5.979-1.728-2.373-2.538-3.228-3.994-4.064-.52-.298-.984-.437-1.316-.243-.346.201-.447.837-.012 1.335 2.704 3.09 3.19 4.739 4.174 7.094.293.701.846 1.003 1.474 1.021.335.01.747-.095 1.024-.43.128-.154.165-.366.27-.626.821-2.045 1.733-4.096 3.048-6.05l.012-1.02h.697l-.011-.906h.754l-.012-1.08h.878v-.987h-.889l.011-.929h.878v.929h.877v-.94h.687v-1.103h.798V9.57h.754V7.643zm-1.744 0h.89v-.906h-.89v.906zm0-.906v-.87h-.888v.87h.888z" fill="#231F20"/><path d="M22.5 4.884h.876v.953H22.5v-.953zm2.628-.954h.948v.954h-.948V3.93zm0-1.93h.948v.976h-.948V2z" fill="#FEB511"/><path d="M28.173 27.9h-.418v-5.944h.704v2.198c.278-.36.668-.608 1.1-.594 1.168.037 1.6 1.112 1.613 2.15.016 1.246-.648 2.26-1.72 2.272a1.29 1.29 0 01-1.118-.6l-.161.518zm.29-.94c.287.273.343.42.899.426.836.008 1.05-.95 1.049-1.615-.003-.838-.226-1.556-.952-1.578-.456-.014-.768.22-.987.474l-.01 2.293zm3.317 2.423l.092-.547c.59.12 1.016-.011 1.248-.683l-1.462-4.508h.732l1.033 3.593.976-3.593h.716l-1.421 4.67c-.328 1.078-1.095 1.269-1.914 1.068zm5.488-2.11l.358-.51c.545.403.956.566 1.626.57.725.003 1.188-.386 1.184-.988-.011-1.692-2.823-.744-2.872-2.998-.02-.989.832-1.475 1.655-1.48.62-.003 1.203.094 1.6.383l-.31.574c-.186-.19-.856-.318-1.22-.32-.634-.006-1.034.253-1.052.803-.054 1.617 2.91.727 2.905 3.02-.002 1.07-.776 1.626-1.892 1.636-1.032.009-1.799-.472-1.982-.69zm8.535.621v-4.242h.434l.168.691c.342-.468.933-.781 1.43-.78.588.003.838.43.914.744.37-.446.868-.743 1.372-.748.867-.007 1.066.646 1.066 1.379v2.956l-.703.003v-2.725c0-.597-.07-.984-.565-.973-.55.012-.842.385-1.042.57v3.128h-.73V25.09c0-.569-.09-.898-.558-.888-.472.01-.61.206-1.067.58v3.114l-.719-.003zm8.873-.505c-.364.393-.832.582-1.27.577-.7-.007-1.265-.445-1.263-1.159.004-.87.585-1.111 1.084-1.282.492-.169.884-.227 1.33-.307.02-.757-.136-1.037-.736-1.041-.54-.004-1.004.25-1.204.357l-.255-.486c.197-.158.694-.48 1.506-.487.892-.008 1.423.508 1.424 1.474v2.862h-.433l-.183-.508zm-.114-1.677a7.772 7.772 0 00-1.033.278c-.445.146-.661.379-.656.801.005.443.288.613.64.605.422-.01.693-.152 1.047-.428l.002-1.256zm8.171 1.61l.108.505c-.247.14-.617.13-.764.13-.869.004-1-.577-1-1.24v-2.543h-.612v-.529h.613l.21-1.209.503-.002v1.211h.925v.529h-.925v2.582c0 .63.255.632.494.643.23.01.448-.077.448-.077zm3.574-.357l.298.44c-.312.253-.663.563-1.418.566-1.257.004-1.818-.99-1.813-2.17.005-1.176.532-2.234 1.69-2.24 1.442-.008 1.645 1.427 1.644 2.428h-2.572c.001.804.318 1.387.967 1.394.67.006 1.204-.418 1.204-.418zm-2.17-1.484h1.827c-.036-.666-.202-1.367-.892-1.359-.74.01-.886.714-.936 1.359zm6.316 1.924c-.294.294-.761.55-1.365.554-1.157.008-1.726-.912-1.726-2.184 0-1.267.618-2.213 1.82-2.216.534 0 .917.219 1.193.45l-.311.488c-.174-.143-.556-.341-.89-.336-.818.011-1.073.634-1.071 1.594.002.8.173 1.608 1.068 1.617.266.003.587-.095.933-.404l.35.437zM41.69 29.383l.091-.547c.59.12 1.017-.011 1.25-.683l-1.464-4.508h.733l1.033 3.593.976-3.593h.715l-1.42 4.67c-.329 1.078-1.096 1.269-1.914 1.068zm14.8-1.489v-4.242h.434l.169.691c.341-.468.98-.784 1.558-.78.75.007 1.042.688 1.042 1.404v2.93h-.73V25.09c0-.569-.09-.898-.558-.888-.472.01-.738.206-1.196.58v3.114l-.719-.003z" fill="#999"/></svg>