<svg width="176" height="24" fill="none" xmlns="http://www.w3.org/2000/svg"><path fill-rule="evenodd" clip-rule="evenodd" d="M52.694 15.06l-2.753-1.594-.204.312c-.628.962-1.485 1.45-2.548 1.448-1.821 0-3.193-1.34-3.193-3.116.002-1.775 1.375-3.113 3.197-3.112 1.077 0 1.887.462 2.548 1.453l.205.308 2.766-1.599-.239-.337c-1.321-1.866-3.048-2.773-5.279-2.775-4.217-.002-6.494 3.12-6.496 6.06-.001 2.94 2.272 6.065 6.49 6.067 2.148.001 4.175-1.065 5.29-2.782l.216-.333zm7.682-6.611l1.54 3.772-3.102-.002 1.562-3.77zm-7.82 9.729l3.807.002 1.131-2.743 5.712.003 1.128 2.744 3.823.002-6.819-16.078-3.395-.002.904 2.132-6.29 13.94zm17.177.009l3.34.002.004-7.216 2.178.002.002-3.028-2.178-.001v-1.43c0-.615.423-1.267 1.204-1.266.43 0 .688.072.946.18l.372.156 1.388-2.954-.4-.16c-.62-.248-1.485-.337-2.088-.337-1.515-.001-2.763.482-3.612 1.396-.74.798-1.149 1.907-1.15 3.124v1.29l-1.475-.002-.002 3.028h1.475l-.004 7.216zM24.952 2.013v16.15l3.629.002.005-9.233 3.518 2.555 3.52-2.555v9.237l3.624.001.01-16.157-7.152 5.27-7.154-5.27zm54.912 8.642c.436-1.101 1.377-1.744 2.593-1.744 1.228 0 2.187.63 2.696 1.747l-5.289-.003zm2.913-4.551c-4.204-.003-6.475 3.111-6.477 6.042-.001 2.93 2.266 6.046 6.47 6.048h.005c1.928-.02 3.736-.877 5.135-2.421l-2.724-1.449c-.698.698-1.547 1.065-2.483 1.064-1.372-.001-2.588-.892-2.906-2.058l9.084.005v-.805c.003-4.43-3.567-6.425-6.104-6.426z" fill="#AD262A"/><mask id="a" maskUnits="userSpaceOnUse" x="0" y="2" width="103" height="21"><path d="M0 2h102.536v20.11H0V2z" fill="#fff"/></mask><g mask="url(#a)" fill-rule="evenodd" clip-rule="evenodd"><path d="M93.519 10.663c.435-1.102 1.375-1.745 2.592-1.745 1.228.001 2.187.631 2.696 1.748l-5.288-.003zM96.43 6.11c-4.204-.002-6.474 3.112-6.476 6.042-.002 2.931 2.264 6.047 6.47 6.049h.004c1.928-.02 3.736-.877 5.135-2.422l-2.724-1.448c-.699.697-1.547 1.064-2.483 1.063-1.372 0-2.588-.892-2.906-2.058l9.084.005.001-.805c.003-4.43-3.568-6.424-6.105-6.426zM3.624 15.794V7.618l5.217 2.385V6.058L0 2.016v16.065l8.84 4.046V18.18l-5.216-2.387z" fill="#AD262A"/><path d="M14.058 15.794V7.617l-5.217 2.386V6.058l8.84-4.042V18.08l-8.84 4.045V18.18l5.217-2.386z" fill="#5E1D1B"/></g><path fill-rule="evenodd" clip-rule="evenodd" d="M171.745 6.181h1.728v.315h-.679v1.766h-.374V6.496h-.675v-.315zm1.97 0h.526l.589 1.63h.006l.574-1.63h.52v2.081h-.356V6.657h-.006l-.592 1.605h-.308l-.592-1.605h-.006v1.605h-.355v-2.08zm-56.099 8.659c0 1.083-.4 1.936-1.199 2.56-.799.622-1.911.934-3.334.934-1.312 0-2.473-.24-3.482-.722v-2.361c.83.36 1.532.615 2.106.762a6.395 6.395 0 001.577.222c.572 0 1.011-.107 1.316-.32.306-.213.459-.53.459-.951a1.03 1.03 0 00-.202-.628 2.226 2.226 0 00-.593-.529c-.26-.169-.792-.44-1.593-.812-.752-.344-1.315-.674-1.691-.992a3.744 3.744 0 01-.9-1.107c-.224-.42-.336-.913-.336-1.476 0-1.06.368-1.894 1.106-2.5.737-.607 1.756-.911 3.057-.911a7.42 7.42 0 011.829.221c.58.148 1.187.356 1.821.624l-.841 1.976a12.62 12.62 0 00-1.628-.55 5.363 5.363 0 00-1.265-.155c-.494 0-.872.112-1.136.336a1.099 1.099 0 00-.395.877c0 .224.053.42.16.587.106.166.276.328.509.483.232.156.783.437 1.652.84 1.149.537 1.937 1.074 2.363 1.612.426.539.64 1.199.64 1.98zm9.077 3.33h-7.081V6.181h7.081v2.083h-4.474v2.632h4.163v2.083h-4.163v3.092h4.474v2.099zm7.322-10.045c-.981 0-1.741.36-2.279 1.078-.538.719-.807 1.72-.807 3.005 0 2.674 1.028 4.01 3.086 4.01.863 0 1.909-.21 3.137-.631v2.132c-1.009.41-2.136.615-3.381.615-1.789 0-3.156-.529-4.104-1.587-.948-1.058-1.421-2.576-1.421-4.555 0-1.246.233-2.338.698-3.276.465-.937 1.134-1.656 2.006-2.157.872-.5 1.893-.75 3.065-.75 1.194 0 2.394.282 3.599.845l-.841 2.066a14.16 14.16 0 00-1.387-.557 4.242 4.242 0 00-1.371-.238zm15.373-1.944v7.757c0 .886-.204 1.662-.61 2.33-.407.667-.994 1.177-1.762 1.533-.768.355-1.676.533-2.725.533-1.581 0-2.809-.395-3.683-1.185-.875-.79-1.312-1.871-1.312-3.243V6.18h2.598v7.34c0 .923.191 1.601.572 2.033.381.432 1.012.648 1.893.648.852 0 1.47-.218 1.854-.652.384-.435.576-1.117.576-2.046V6.181h2.599zm5.094 5.322h.841c.824 0 1.432-.134 1.825-.402.392-.268.589-.688.589-1.263 0-.568-.201-.973-.602-1.213-.401-.24-1.021-.36-1.862-.36h-.791v3.238zm0 2.067v4.6h-2.607V6.181h3.583c1.67 0 2.907.297 3.708.89.802.593 1.203 1.494 1.203 2.702 0 .705-.199 1.332-.597 1.882-.398.55-.962.98-1.69 1.291a477.595 477.595 0 003.616 5.224h-2.893l-2.935-4.6h-1.388zm15.639 4.6h-7.08V6.181h7.08v2.083h-4.474v2.632h4.163v2.083h-4.163v3.092h4.474v2.099z" fill="#4A4E4F"/></svg>