<svg width="64" height="64" fill="none" xmlns="http://www.w3.org/2000/svg"><g clip-path="url(#clip0)" fill="#1A58E1"><path d="M61.562 36.342a2.078 2.078 0 001.627-.443 2.22 2.22 0 00.56-.675 2.4 2.4 0 00.242-.889 2.169 2.169 0 00-.57-1.666 2.064 2.064 0 00-1.543-.671c0 1.476-.109 2.928-.316 4.344z"/><path d="M60.615 40.595a2.094 2.094 0 001.677-.197c.507-.288.88-.802 1.023-1.434.159-.63-.006-1.258-.32-1.733a2.066 2.066 0 00-1.434-.889 29.34 29.34 0 01-.946 4.253z"/><path d="M61.97 43.441c.463-1.223-.177-2.512-1.354-2.846a29.938 29.938 0 01-1.554 4.066c1.086.524 2.45.007 2.907-1.22z"/><path d="M59.983 47.676c.64-1.142.193-2.509-.922-3.015a29.684 29.684 0 01-2.13 3.795c.995.675 2.419.362 3.052-.78z"/><path d="M55.862 52.431c.58-.045 1.139-.347 1.536-.86.798-1.034.556-2.45-.467-3.114a30.513 30.513 0 01-2.662 3.447 2.06 2.06 0 001.593.527zm-4.726 2.503c.387.46.925.72 1.494.748.289.015.584-.028.869-.13a2.44 2.44 0 00.777-.499c.478-.439.693-1.05.69-1.62 0-.566-.25-1.12-.7-1.525a29.922 29.922 0 01-3.13 3.026z"/><path d="M48.967 58.427c.282.056.58.056.88-.003a2.38 2.38 0 00.84-.383c.534-.366.84-.935.917-1.501a2.05 2.05 0 00-.467-1.606 30.42 30.42 0 01-3.537 2.54c.316.51.805.844 1.367.953zm-4.029 2.186c.27.095.566.14.868.127.299-.021.598-.11.886-.257.58-.284.967-.801 1.125-1.353a2.058 2.058 0 00-.225-1.652 30.239 30.239 0 01-3.867 2c.239.545.675.945 1.213 1.135zm-4.308 1.571c.253.134.542.222.84.253.3.022.609-.02.915-.123a2.16 2.16 0 001.311-1.173 2.047 2.047 0 00.021-1.66 29.794 29.794 0 01-4.12 1.41 2.095 2.095 0 001.033 1.293z"/><path d="M36.14 63.109c.233.172.504.302.795.372.292.063.605.07.925.01a2.164 2.164 0 001.47-.97 2.05 2.05 0 00.267-1.633c-1.392.365-2.82.629-4.282.79.07.59.372 1.093.826 1.43zm-5.189-1.269c-.035 1.188.967 2.214 2.257 2.158.647-.004 1.217-.323 1.597-.745.372-.415.555-.984.499-1.575a30.07 30.07 0 01-3.305.187c-.352 0-.696-.015-1.048-.025zm-3.948 1.135c.345.47.896.773 1.536.858a2.258 2.258 0 001.684-.507c.426-.358.69-.9.721-1.486a30.188 30.188 0 01-4.328-.468c-.091.584.05 1.15.387 1.603zm-4.463-1.058c.275.51.774.896 1.397 1.076a2.294 2.294 0 001.744-.257c.474-.306.812-.787.928-1.363a29.361 29.361 0 01-4.212-1.093 2.117 2.117 0 00.144 1.637zm-4.253-1.704c.197.54.633 1.001 1.223 1.268a2.299 2.299 0 001.762.004 2.118 2.118 0 001.118-1.21 29.678 29.678 0 01-4.008-1.697 2.087 2.087 0 00-.095 1.635zm-3.963-2.306c.113.57.482 1.083 1.023 1.434a2.29 2.29 0 001.74.26 2.122 2.122 0 001.28-1.026 30.197 30.197 0 01-3.716-2.264 2.102 2.102 0 00-.327 1.596zm-3.582-2.857c.024.583.316 1.139.805 1.567a2.268 2.268 0 001.684.51 2.106 2.106 0 001.41-.826 30.519 30.519 0 01-3.348-2.78c-.386.429-.58.974-.551 1.529zm-2.367-4.777c-.918.745-1.048 2.14-.193 3.097a2.267 2.267 0 001.592.748 2.106 2.106 0 001.512-.608 29.923 29.923 0 01-2.91-3.237zm-3.052-.6c.352.54.91.868 1.466.973a2.09 2.09 0 001.579-.38 29.898 29.898 0 01-2.409-3.626c-1.012.597-1.346 1.964-.636 3.033zM3.03 45.596c.549 1.156 1.878 1.592 2.926 1.033a29.908 29.908 0 01-1.857-3.943c-1.086.45-1.617 1.754-1.068 2.91zm-1.673-4.369c.373 1.223 1.62 1.849 2.739 1.452a29.206 29.206 0 01-1.255-4.176c-1.143.289-1.853 1.498-1.484 2.724zm-.57-6.27c-.369.45-.524 1.062-.446 1.701.091.64.453 1.174.914 1.505.446.316 1.02.432 1.582.327a30.333 30.333 0 01-.63-4.302 2.14 2.14 0 00-1.42.77zm1.421-5.131a2.118 2.118 0 00-1.522.555A2.306 2.306 0 000 32.002a2.32 2.32 0 00.686 1.62c.407.377.945.577 1.522.556a29.677 29.677 0 01-.088-2.175c0-.735.039-1.459.088-2.176zm-.953-3.992c-.46.33-.823.864-.914 1.504-.078.643.077 1.251.446 1.701.348.432.851.706 1.42.766.106-1.465.317-2.903.63-4.302a2.092 2.092 0 00-1.582.33zm.102-3.061c-.369 1.226.345 2.435 1.484 2.72a29.81 29.81 0 011.255-4.175c-1.118-.394-2.366.232-2.739 1.455zm1.673-4.369c-.548 1.156-.017 2.46 1.07 2.91a29.494 29.494 0 011.856-3.943c-1.051-.559-2.377-.123-2.925 1.033zm3.76-5.047a2.232 2.232 0 00-1.467.974c-.71 1.068-.376 2.435.636 3.036a30.325 30.325 0 012.409-3.627 2.077 2.077 0 00-1.579-.383zm4.496-2.867a2.092 2.092 0 00-1.512-.608 2.267 2.267 0 00-1.592.748c-.855.956-.725 2.351.193 3.096a29.923 29.923 0 012.911-3.237zm1.944-3.617a2.27 2.27 0 00-1.683.51c-.486.425-.777.984-.806 1.567a2.1 2.1 0 00.553 1.529 29.866 29.866 0 013.347-2.78 2.106 2.106 0 00-1.41-.826zm3.858-2.474a2.29 2.29 0 00-1.74.26c-.546.351-.911.864-1.024 1.434a2.116 2.116 0 00.327 1.599 29.77 29.77 0 013.716-2.264 2.116 2.116 0 00-1.28-1.03zm4.18-1.884a2.283 2.283 0 00-1.761.004c-.59.267-1.027.727-1.224 1.268a2.09 2.09 0 00.095 1.635 29.48 29.48 0 014.009-1.698 2.107 2.107 0 00-1.119-1.209zm4.413-1.251a2.307 2.307 0 00-1.744-.257c-.622.18-1.122.566-1.396 1.076a2.116 2.116 0 00-.147 1.637 29.782 29.782 0 014.212-1.093 2.092 2.092 0 00-.925-1.363zm4.546-.591a2.248 2.248 0 00-1.684-.506c-.64.088-1.196.387-1.537.858a2.092 2.092 0 00-.383 1.603 30.196 30.196 0 014.328-.468 2.105 2.105 0 00-.724-1.487zm5.08 1.649a2.05 2.05 0 00-.499-1.575c-.38-.418-.95-.741-1.596-.745-1.29-.056-2.293.97-2.258 2.158.349-.01.697-.028 1.048-.028a31.14 31.14 0 013.305.19zm4.023-.847a2.195 2.195 0 00-1.47-.97 2.472 2.472 0 00-.925.01c-.291.07-.562.2-.794.373a2.07 2.07 0 00-.826 1.43 29.6 29.6 0 014.282.791c.144-.58.042-1.16-.267-1.634zm4.37 1.388a2.17 2.17 0 00-1.311-1.174 2.375 2.375 0 00-.915-.123 2.25 2.25 0 00-.84.253c-.5.267-.872.72-1.03 1.297 1.417.373 2.792.843 4.12 1.41a2.069 2.069 0 00-.024-1.663zm4.121 2.007a2.176 2.176 0 00-1.125-1.353 2.319 2.319 0 00-.886-.257 2.238 2.238 0 00-.869.127c-.534.19-.97.587-1.21 1.135a29.567 29.567 0 013.868 2c.306-.517.38-1.104.222-1.652z"/><path d="M51.6 7.46a2.177 2.177 0 00-.917-1.5 2.383 2.383 0 00-.84-.384 2.243 2.243 0 00-.88-.003 2.068 2.068 0 00-1.367.952 30.442 30.442 0 013.537 2.541A2.05 2.05 0 0051.6 7.46zm2.67 4.632c.45-.408.695-.96.699-1.525a2.182 2.182 0 00-.69-1.617 2.394 2.394 0 00-.776-.499 2.243 2.243 0 00-.869-.13 2.07 2.07 0 00-1.494.749 30.227 30.227 0 013.13 3.022zm3.128.338c-.397-.514-.956-.816-1.536-.862a2.088 2.088 0 00-1.593.527 30.201 30.201 0 012.662 3.448c1.023-.664 1.262-2.08.467-3.114z"/><path d="M59.983 16.323c-.633-1.145-2.057-1.458-3.052-.783a29.672 29.672 0 012.13 3.795c1.115-.502 1.558-1.87.922-3.012z"/><path d="M61.97 20.559c-.461-1.227-1.826-1.744-2.908-1.22a29.477 29.477 0 011.554 4.066c1.177-.334 1.817-1.623 1.353-2.846z"/><path d="M61.561 27.658a2.054 2.054 0 001.435-.89c.313-.47.478-1.103.32-1.732-.145-.633-.517-1.146-1.024-1.434a2.08 2.08 0 00-1.677-.197c.415 1.378.735 2.798.946 4.253z"/><path d="M63.991 29.664a2.364 2.364 0 00-.242-.889 2.235 2.235 0 00-.56-.674 2.087 2.087 0 00-1.627-.443 30 30 0 01.316 4.344 2.07 2.07 0 001.544-.672 2.186 2.186 0 00.57-1.666zM11.339 10.535c.344.359.534.79.608 1.234.197-.197.401-.387.605-.577a2.342 2.342 0 01-1.213-.657zm3.347-2.787c.285.4.415.858.425 1.304.222-.165.45-.323.675-.482a2.283 2.283 0 01-1.1-.822zm7.721-3.975c.158.464.151.942.032 1.367.26-.091.52-.179.78-.263a2.347 2.347 0 01-.812-1.104zm-4.004 1.705a2.3 2.3 0 01.232 1.35c.242-.13.489-.254.735-.377a2.307 2.307 0 01-.967-.973zM6.023 17.406c.429.25.745.615.946 1.023.137-.25.281-.496.422-.742a2.427 2.427 0 01-1.368-.281zm-1.85 3.94c.468.186.837.502 1.094.882.098-.274.207-.541.316-.812a2.372 2.372 0 01-1.41-.07zm-1.251 4.168c.503.112.907.383 1.22.727.06-.291.13-.58.197-.868-.43.18-.918.246-1.417.14zM26.623 2.677c.088.485.01.952-.172 1.356.27-.052.54-.098.815-.144a2.326 2.326 0 01-.643-1.212zm-24.331 31.5c.52-.035 1.01.113 1.407.366-.028-.31-.053-.619-.07-.928a2.313 2.313 0 01-1.337.562zm6.139-20.401c.394.305.647.71.784 1.138.169-.225.345-.442.52-.664a2.38 2.38 0 01-1.304-.474zM2.292 29.823c.514.038.97.25 1.322.552.018-.306.043-.605.07-.907-.397.246-.875.39-1.392.355zm58.323-6.418a2.364 2.364 0 01-1.49-.063c.098.313.186.626.274.942.285-.394.7-.72 1.216-.879zm-1.557-4.066a2.398 2.398 0 01-1.466.162c.14.288.27.58.4.871a2.389 2.389 0 011.066-1.033zm.982 17.312a2.37 2.37 0 011.522-.309 2.338 2.338 0 01-1.368-.727c-.046.347-.099.692-.155 1.036zm-3.116-21.104c-.44.284-.936.397-1.41.376.175.26.344.524.513.787a2.36 2.36 0 01.897-1.163zm3.15 11.819c.053.33.095.664.137.998a2.358 2.358 0 011.347-.706 2.352 2.352 0 01-1.484-.292zM54.262 12.1a2.339 2.339 0 01-1.329.572c.208.225.408.457.608.689a2.38 2.38 0 01.721-1.262zM43.714 4.546c-.197.46-.534.82-.924 1.065.267.11.534.225.798.345a2.357 2.357 0 01.126-1.41zm-8.406-2.189a2.354 2.354 0 01-.56 1.265c.282.028.56.063.837.099a2.302 2.302 0 01-.277-1.364zm4.282.783a2.37 2.37 0 01-.75 1.182c.279.066.553.144.827.22a2.398 2.398 0 01-.077-1.401zm7.995 3.4a2.351 2.351 0 01-1.08.92c.254.151.504.306.753.464-.031-.46.064-.95.327-1.385zm3.541 2.537a2.36 2.36 0 01-1.217.755c.232.19.46.387.69.584.035-.468.2-.942.527-1.34zM11.339 53.465c.387-.4.882-.619 1.378-.682-.253-.235-.503-.47-.749-.713a2.333 2.333 0 01-.63 1.395zm47.719-8.805a2.362 2.362 0 01-1.111-1.117c-.148.33-.299.654-.46.977a2.377 2.377 0 011.571.14zm1.557-4.065a2.347 2.347 0 01-1.255-.932c-.098.341-.197.682-.306 1.02a2.385 2.385 0 011.561-.088zm-3.692 7.858a2.383 2.383 0 01-.942-1.28c-.197.31-.397.612-.605.911.52-.05 1.07.06 1.547.37zM35.307 61.678h.007c0-.01-.007-.024-.007-.035 0 .014-.003.025 0 .035zm15.819-6.755a2.37 2.37 0 01-.538-1.51 28.07 28.07 0 01-.858.713c.52.094 1.027.355 1.396.797zm3.136-3.023a2.372 2.372 0 01-.749-1.412 26.19 26.19 0 01-.738.822 2.386 2.386 0 011.487.59zm-6.666 5.578s0-.003 0 0c0-.007-.004-.01-.007-.017 0 .004.003.01.007.017zm3.537-2.544c.003 0 .003 0 0 0 0-.007-.004-.007-.007-.01.003.003.007.006.007.01zm-7.412 4.544s.004 0 .004-.003l-.01-.021c.003.01.003.017.006.024zm3.864-2.018a2.343 2.343 0 01-.31-1.58c-.312.2-.632.393-.956.583.5.168.964.506 1.266.998zm-7.988 3.428h.003l-.01-.029c.003.01.003.021.007.029z"/><path d="M60.44 31.91c0 .204-.01.405-.014.605.394-.31.9-.513 1.452-.517a2.35 2.35 0 01-1.449-.513c.004.144.01.281.01.425zM2.922 38.486a2.361 2.361 0 011.463.162 35.649 35.649 0 01-.215-.925 2.313 2.313 0 01-1.248.763zm5.509 11.738c.44-.33.95-.478 1.445-.478-.21-.263-.422-.523-.626-.794a2.312 2.312 0 01-.819 1.272zm6.255 6.028a2.32 2.32 0 011.28-.879c-.292-.2-.577-.4-.858-.611a2.322 2.322 0 01-.422 1.49zm-8.663-9.658a2.38 2.38 0 011.484-.264 29.776 29.776 0 01-.493-.854c-.193.447-.527.85-.991 1.118zm-1.85-3.94a2.364 2.364 0 011.491-.049c-.12-.299-.242-.594-.355-.9a2.41 2.41 0 01-1.136.95zm14.23 15.868c.26-.502.682-.861 1.15-1.061-.32-.158-.64-.32-.953-.489.105.496.06 1.047-.197 1.55zm12.547 3.275a2.36 2.36 0 01.61-1.476c-.37-.007-.743-.014-1.108-.031.32.411.52.928.499 1.508zm-8.543-1.57a2.31 2.31 0 01.992-1.223c-.345-.11-.69-.225-1.03-.348.186.474.225 1.03.038 1.57zm12.9 1.416a2.35 2.35 0 01.394-1.56c-.369.049-.738.09-1.107.123.372.372.647.864.713 1.437zm4.283-.783a2.378 2.378 0 01.162-1.607c-.359.102-.72.197-1.083.285.425.31.774.763.921 1.321zm-12.967.463a2.332 2.332 0 01.809-1.363c-.363-.06-.725-.12-1.083-.194a2.3 2.3 0 01.274 1.557zm17.091-1.87a2.37 2.37 0 01-.077-1.613c-.341.151-.686.3-1.03.44.467.242.878.643 1.107 1.173zM30.951 2.202c.018.496-.13.942-.369 1.322.274-.014.556-.014.833-.021a2.402 2.402 0 01-.464-1.3zM8.375 13.726a.96.96 0 00-.01.01c.02.015.042.025.063.04-.018-.014-.032-.036-.053-.05zM4.1 21.314c0 .003 0 .003-.004.007.025.01.053.014.078.025a23.37 23.37 0 00-.074-.032zm1.86-3.95c0 .003-.004.003-.004.007.025.01.046.02.07.035-.024-.014-.045-.028-.066-.042zm5.333-6.885l-.01.01c.017.018.038.029.052.046-.014-.017-.024-.038-.042-.056zm3.358-2.787c-.003.003-.007.003-.01.007.014.017.031.032.042.05-.01-.018-.018-.04-.032-.057zm3.727-2.27c-.004.003-.007.003-.01.007.01.017.024.031.03.049-.006-.018-.01-.039-.02-.056zM2.837 38.493c0 .003.004.007.004.01l.08-.02c-.027.007-.055.006-.084.01zm.003-13l-.003.01c.029.004.057.004.081.011-.024-.003-.049-.014-.077-.021zm-.632 8.681v.017c.028-.003.053-.014.08-.014-.024 0-.052-.003-.08-.003z"/><path d="M4.096 42.679c0 .003 0 .003.004.007l.074-.032a.783.783 0 01-.078.025zm-1.885-12.87v.017c.029 0 .057-.003.085-.003-.032 0-.056-.01-.085-.014zm52.059 22.1s0-.004 0 0c0-.004-.004-.004-.008-.008l.008.008zM22.397 3.72c-.004 0-.007.004-.01.004.006.018.017.032.024.05-.007-.018-.01-.036-.014-.054zm31.873 8.375s0-.003 0 0c-.004 0-.008.004-.008.007 0-.003.004-.007.007-.007zM26.62 2.627c-.004 0-.008 0-.011.004.003.018.01.032.014.046-.004-.018 0-.035-.004-.05zm30.311 12.916c-.004 0-.004 0-.004.004 0-.004 0-.004.004-.004zm-5.795-6.477l-.01.01.01-.01zM30.951 2.16h-.007c0 .014.007.028.007.042 0-.014.004-.028 0-.042zm25.98 46.297c0-.004-.004-.004-.004-.004 0 .004 0 .004.004.004zM43.725 4.525s-.004 0-.004-.003c-.003.007-.003.014-.007.024l.01-.02zm3.875 2c-.004 0-.004-.003 0 0-.008.003-.008.01-.011.014 0-.004.007-.01.01-.014zm-8-3.412h-.003c-.004.01-.004.02-.007.028l.01-.028zm-4.285-.791h-.007v.035a.09.09 0 01.007-.035zM22.386 60.276c.004 0 .007.003.01.003.008-.017.008-.035.015-.052-.007.017-.018.031-.025.049zm-4.019-1.701c.004.003.007.003.01.007.011-.018.015-.039.022-.056-.007.014-.021.028-.032.049zm8.242 2.797h.01c.004-.017 0-.031.004-.049-.004.018-.01.032-.014.05zM14.64 56.3c.004.004.008.004.011.008.014-.018.021-.039.032-.056-.01.017-.028.031-.042.049zm-8.684-9.67c0 .003.004.003.004.006a.95.95 0 01.066-.042c-.024.014-.049.025-.07.035zm5.33 6.88l.01.011c.018-.017.029-.039.043-.056-.018.017-.039.028-.053.045zm-2.918-3.247l.01.01c.022-.017.036-.035.053-.052-.02.018-.042.028-.063.042zm22.58 11.577h.007v-.042a.154.154 0 00-.007.042zm29.245-26.226c.345.37.816.647 1.368.728.208-1.42.316-2.868.316-4.344a2.34 2.34 0 00-1.452.517 28.98 28.98 0 01-.232 3.1zm-.154 1.037a28.282 28.282 0 01-.679 3.009c.285.418.718.77 1.256.931a29.62 29.62 0 00.942-4.249 2.387 2.387 0 00-1.52.31zm-.985 4.029c-.316.98-.689 1.932-1.107 2.86.221.46.594.868 1.11 1.117h.004a29.483 29.483 0 001.554-4.066 2.432 2.432 0 00-1.56.088z"/><path d="M57.49 44.52c-.454.914-.957 1.8-1.505 2.657a2.36 2.36 0 00.946 1.283 29.679 29.679 0 002.13-3.796h-.003a2.348 2.348 0 00-1.568-.144z"/><path d="M55.38 48.087a28.664 28.664 0 01-1.867 2.4c.074.514.32 1.027.75 1.414.003.003.006.003.006.007a30.201 30.201 0 002.662-3.448l-.004-.004a2.386 2.386 0 00-1.547-.369z"/><path d="M52.775 51.31c-.69.738-1.42 1.438-2.184 2.098 0 .52.166 1.069.538 1.512l.01.01a30.314 30.314 0 003.133-3.026l-.006-.007a2.42 2.42 0 00-1.491-.587zm-3.042 2.812a28.868 28.868 0 01-2.457 1.757c-.078.517.01 1.086.309 1.582l.01.014a30.44 30.44 0 003.538-2.541l-.007-.01a2.38 2.38 0 00-1.393-.802z"/><path d="M46.32 56.463c-.865.506-1.762.966-2.683 1.38a2.373 2.373 0 00.077 1.614l.01.021a29.562 29.562 0 003.868-2c-.003-.007-.003-.01-.007-.017a2.374 2.374 0 00-1.265-.998z"/><path d="M42.606 58.283c-.928.373-1.88.7-2.855.974a2.376 2.376 0 00-.161 1.606l.01.028a29.966 29.966 0 004.121-1.41c-.003-.006-.003-.013-.007-.024a2.375 2.375 0 00-1.108-1.174zm-3.937 1.255c-.97.232-1.962.415-2.971.545a2.36 2.36 0 00-.394 1.56c0 .01.007.025.007.035a29.604 29.604 0 004.282-.79c-.003-.011-.003-.022-.007-.029a2.38 2.38 0 00-.917-1.321z"/><path d="M34.59 60.209a28.61 28.61 0 01-2.58.123c-.152 0-.3-.01-.447-.01-.348.386-.58.896-.608 1.475v.043c.348.01.696.028 1.047.028 1.118 0 2.219-.067 3.305-.186v-.036a2.397 2.397 0 00-.717-1.437z"/><path d="M30.452 60.286a28.452 28.452 0 01-3.02-.327 2.298 2.298 0 00-.809 1.364c-.003.018 0 .032-.003.05a30.19 30.19 0 004.328.467c0-.014.007-.028.007-.043a2.34 2.34 0 00-.503-1.51zm-4.1-.52a28.367 28.367 0 01-2.95-.766 2.335 2.335 0 00-.991 1.223c-.007.018-.007.035-.014.053 1.364.464 2.77.83 4.212 1.093.004-.018.01-.032.014-.046a2.316 2.316 0 00-.27-1.557z"/><path d="M22.372 58.656a28.09 28.09 0 01-2.82-1.192c-.464.2-.89.559-1.15 1.062-.01.017-.014.038-.02.056a29.484 29.484 0 004.008 1.697c.007-.017.017-.031.024-.049.18-.545.14-1.1-.042-1.574zm-3.776-1.684a29.02 29.02 0 01-2.633-1.599c-.485.134-.95.422-1.28.879-.014.017-.021.038-.032.056a29.76 29.76 0 003.717 2.263c.01-.017.024-.031.031-.052.26-.5.306-1.051.197-1.547z"/><path d="M15.105 54.762a28.636 28.636 0 01-2.388-1.979 2.31 2.31 0 00-1.378.682c-.018.017-.028.038-.042.056a29.864 29.864 0 003.347 2.78c.014-.018.032-.032.042-.05a2.3 2.3 0 00.419-1.49z"/><path d="M11.968 52.07a29.181 29.181 0 01-2.092-2.324 2.369 2.369 0 00-1.445.478c-.02.014-.035.036-.053.053a30.231 30.231 0 002.908 3.237c.018-.018.039-.028.053-.046.383-.404.58-.903.63-1.399zM9.25 48.952a28.024 28.024 0 01-1.743-2.622 2.378 2.378 0 00-1.484.264c-.025.014-.042.028-.067.042a30.324 30.324 0 002.408 3.627c.022-.014.043-.025.064-.039a2.3 2.3 0 00.823-1.272z"/><path d="M7.014 45.476a28.564 28.564 0 01-1.353-2.871 2.388 2.388 0 00-1.491.05l-.074.03a29.493 29.493 0 001.857 3.944.66.66 0 00.07-.035c.464-.267.798-.671.991-1.118z"/><path d="M5.309 41.705a27.975 27.975 0 01-.925-3.06 2.362 2.362 0 00-1.462-.162l-.081.02c.32 1.435.738 2.826 1.255 4.176.025-.01.053-.014.077-.025a2.408 2.408 0 001.136-.949z"/><path d="M4.17 37.723a27.835 27.835 0 01-.471-3.18 2.327 2.327 0 00-1.407-.366l-.08.014c.105 1.466.316 2.903.629 4.302.028-.004.056-.004.08-.01a2.287 2.287 0 001.249-.76z"/><path d="M3.628 33.615a27.415 27.415 0 01-.014-3.24 2.304 2.304 0 00-1.322-.552c-.028-.004-.056.003-.084.003-.053.72-.088 1.441-.088 2.176 0 .73.035 1.455.088 2.175.028 0 .056.004.084.004a2.34 2.34 0 001.336-.566zm.057-4.147c.091-1.093.242-2.172.457-3.227a2.309 2.309 0 00-1.22-.727c-.028-.007-.057-.004-.081-.01a30.332 30.332 0 00-.63 4.301c.029.004.053.014.081.014.517.039.995-.105 1.393-.351z"/><path d="M4.335 25.373c.253-1.072.56-2.123.932-3.145a2.37 2.37 0 00-1.094-.882.51.51 0 00-.077-.025 29.212 29.212 0 00-1.255 4.175l.08.021c.5.102.989.035 1.414-.144z"/><path d="M5.583 21.42a28.19 28.19 0 011.39-2.991 2.401 2.401 0 00-.947-1.023.352.352 0 00-.07-.035A29.913 29.913 0 004.1 21.314l.073.032c.475.175.964.183 1.41.074z"/><path d="M7.394 17.684c.556-.96 1.16-1.888 1.821-2.77a2.317 2.317 0 00-.784-1.139c-.02-.014-.042-.024-.063-.038a29.898 29.898 0 00-2.409 3.627l.067.042c.44.239.914.32 1.368.278zm2.342-3.434a29.084 29.084 0 012.211-2.485 2.328 2.328 0 00-.608-1.234c-.018-.017-.035-.028-.053-.045a29.908 29.908 0 00-2.908 3.237c.022.017.036.035.053.052.397.3.855.45 1.305.475z"/><path d="M12.552 11.192a29.216 29.216 0 012.556-2.14 2.278 2.278 0 00-.425-1.304c-.014-.017-.032-.031-.042-.049a30.518 30.518 0 00-3.348 2.78c.018.018.029.039.043.056.348.355.777.566 1.216.657zm3.235-2.622a28.39 28.39 0 012.844-1.743 2.301 2.301 0 00-.232-1.35c-.01-.017-.024-.03-.031-.048a30.196 30.196 0 00-3.717 2.263c.014.018.021.039.032.056.288.4.682.672 1.104.823z"/><path d="M19.366 6.451a28.294 28.294 0 013.073-1.307c.12-.425.127-.903-.032-1.367-.007-.018-.017-.032-.024-.05a29.672 29.672 0 00-4.008 1.698c.01.018.014.039.02.056.233.433.58.76.971.97zm3.857-1.574a28.117 28.117 0 013.231-.844 2.29 2.29 0 00.173-1.356c-.004-.018-.01-.032-.014-.046-1.445.264-2.852.63-4.213 1.093.007.018.007.035.015.053.154.46.45.833.808 1.1z"/><path d="M27.267 3.89a28.612 28.612 0 013.319-.366c.239-.38.386-.826.369-1.322a.177.177 0 00-.007-.042 30.161 30.161 0 00-4.328.468c.003.017 0 .031.003.049.088.481.33.896.644 1.212z"/><path d="M31.415 3.503c.197-.004.394-.014.591-.014.925 0 1.835.049 2.739.133a2.32 2.32 0 00.559-1.265v-.035a30.188 30.188 0 00-3.305-.187c-.352 0-.7.015-1.048.029v.042c.025.492.2.935.464 1.297zm4.167.217a28.55 28.55 0 013.263.602c.344-.3.622-.7.748-1.181.004-.01.004-.021.007-.028a29.686 29.686 0 00-4.282-.791c0 .01-.007.024-.007.035-.06.492.056.963.27 1.364z"/><path d="M39.667 4.54a28.39 28.39 0 013.123 1.068 2.37 2.37 0 00.924-1.065c.004-.007.004-.014.007-.025a29.794 29.794 0 00-4.12-1.41l-.011.029c-.123.489-.077.974.077 1.402zm3.921 1.412c1.005.45 1.98.953 2.918 1.508a2.372 2.372 0 001.08-.92l.007-.019a29.79 29.79 0 00-3.868-2l-.01.022c-.198.467-.222.96-.127 1.41zm3.67 1.975a28.994 28.994 0 012.655 1.909 2.36 2.36 0 001.216-.756c.004-.003.004-.007.007-.01A30.425 30.425 0 0047.6 6.529a2.321 2.321 0 00-.341 1.399z"/><path d="M50.599 10.415c.819.71 1.6 1.463 2.334 2.257a2.373 2.373 0 001.33-.573l.006-.007a29.96 29.96 0 00-3.132-3.026l-.011.01a2.377 2.377 0 00-.527 1.34z"/><path d="M53.545 13.364a28.926 28.926 0 011.972 2.555c.475.021.97-.091 1.41-.376l.004-.003a30.513 30.513 0 00-2.662-3.448c-.003.004-.007.004-.007.007a2.346 2.346 0 00-.717 1.265zm2.482 3.343c.57.9 1.097 1.83 1.568 2.794.471.095.985.056 1.466-.162h.004a29.672 29.672 0 00-2.131-3.795s-.003 0-.003.003a2.34 2.34 0 00-.904 1.16zm1.966 3.669c.429.963.808 1.954 1.132 2.97.457.168.977.207 1.49.063a29.938 29.938 0 00-1.553-4.066h-.004a2.35 2.35 0 00-1.065 1.033z"/><path d="M59.399 24.287a27.87 27.87 0 01.675 3.08c.436.242.95.368 1.487.287a29.768 29.768 0 00-.942-4.249 2.34 2.34 0 00-1.22.882zm1.031 7.201c.393.31.896.51 1.448.514 0-1.477-.113-2.924-.316-4.344a2.336 2.336 0 00-1.347.706 28.6 28.6 0 01.214 3.124zm-51.411 1.68a1.272 1.272 0 10.001-2.544 1.272 1.272 0 00-.001 2.544zm45.931-2.545a1.272 1.272 0 10-.001 2.545 1.272 1.272 0 00.001-2.544zM14.672 19.34l-.064-.061.17-.514-2.092-2.154-.502.2-.063-.061 1.093-1.148 2.381.877-1.01-2.316 1.067-1.12.064.06-.226.462 2.289 2.05.47-.159.065.061-1.33 1.395-.063-.06.155-.491-1.872-1.715 1.246 2.867-.243.255-2.955-1.096 1.8 1.813.51-.206.063.06-.953 1zm5.63-4.878a2.102 2.102 0 01-.72.309 1.823 1.823 0 01-1.402-.258 1.917 1.917 0 01-.53-.547 1.917 1.917 0 01-.291-.705 1.857 1.857 0 01.322-1.384 2.03 2.03 0 01.565-.543c.233-.153.474-.255.723-.304.25-.054.494-.06.734-.015.238.041.46.13.664.268.208.136.386.318.536.545a1.855 1.855 0 01.273 1.427 1.968 1.968 0 01-.305.669 2.1 2.1 0 01-.569.538zm-.1-.283a.542.542 0 00.24-.368c.033-.163.02-.35-.04-.56a2.554 2.554 0 00-.332-.685 3.119 3.119 0 00-.606-.702c-.21-.173-.412-.283-.604-.328a.616.616 0 00-.507.07.553.553 0 00-.24.369c-.035.16-.023.347.035.563.06.211.17.438.329.68.193.295.396.53.609.707.214.17.418.28.612.329a.635.635 0 00.504-.075zm2.237-1.031l-.032-.082.373-.393-1.085-2.792-.54-.038-.032-.082 1.113-.432 2.838 1.33-.706-1.816-.714.03-.032-.083 1.436-.558.032.082-.362.389 1.21 3.115-.405.157-3.182-1.469.788 2.027.715-.03.032.083-1.447.562zm4.484-1.562l-.014-.087.445-.309-.493-2.954-.521-.147-.015-.087 3.16-.528.158.945-.087.015-.553-.572-1.113.186.215 1.287.782-.131.246-.532.087-.015.207 1.244-.087.014-.403-.412-.782.13.233 1.401 1.228-.205.334-.97.087-.015.199 1.189-3.313.553zm5.176-.539l.003-.088.497-.215.047-1.375-1.133-1.659-.388-.244.003-.088 1.942.066-.003.088-.43.2-.002.022.898 1.298.885-1.226v-.022l-.432-.24.003-.088 1.31.044-.004.088-.385.169-1.218 1.627-.047 1.376.481.248-.003.088-2.024-.07zm3.497.27l.02-.085.53-.112.694-2.913-.423-.339.02-.086 1.945.463c.267.064.5.151.696.262.2.108.347.236.44.383a.584.584 0 01.083.483.729.729 0 01-.344.45c-.183.119-.418.176-.704.172.353.137.616.307.79.511.174.204.233.423.177.659a.8.8 0 01-.335.48c-.176.12-.396.197-.66.228a2.4 2.4 0 01-.851-.061l-2.078-.495zm2.362-2.861l-.096-.023-.31 1.296.124.03c.225.053.414.037.566-.047a.596.596 0 00.301-.41c.052-.217.029-.398-.069-.542-.094-.143-.266-.245-.516-.304zm-.19 1.579l-.272-.065-.336 1.408.31.074c.247.06.458.038.633-.064a.698.698 0 00.337-.463c.055-.232.023-.423-.096-.572-.116-.148-.308-.254-.575-.318zm1.812 2.337l.036-.08.376-.039 2.744-2.455.574.266-.11 3.673.264.335-.037.08-1.799-.832.037-.08.515.014.036-.918-1.164-.539-.675.622.324.374-.037.08-1.085-.501zm1.714-.796l.935.432.05-1.33-.985.898zm3.998 4.107a2.298 2.298 0 01-.572-.59 1.812 1.812 0 01-.277-1.391 1.78 1.78 0 01.309-.662 1.72 1.72 0 01.6-.521c.234-.12.482-.191.744-.213a2.225 2.225 0 011.485.414c.16.117.285.223.376.316.093.096.168.19.224.28.06.094.116.193.172.297l-.565.91-.08-.058.05-1.166a.917.917 0 00-.3-.328.797.797 0 00-.55-.152 1.364 1.364 0 00-.644.245c-.222.147-.435.36-.639.638a2.16 2.16 0 00-.362.717 1.196 1.196 0 00-.013.632.832.832 0 00.318.46c.074.054.152.1.234.137a.97.97 0 00.272.076l.984-.309.08.06-.645.72a1.6 1.6 0 01-.583-.154 3.267 3.267 0 01-.618-.358zm1.734 1.358l.065-.059.5.207 2.215-2.016-.158-.518.065-.06 1.364 1.5-.066.058-.5-.206-2.216 2.015.16.518-.066.06-1.363-1.499zm2.377-.087l2.135.09-.13-.455.065-.06.934 1.027-.065.06-.382-.167-1.596-.118-.553 2.386.155.425-.065.059-1.012-1.112.514-2.134zM13.734 48.512a2.04 2.04 0 01-.389-.654 1.886 1.886 0 01.037-1.414c.098-.222.244-.418.438-.587a1.71 1.71 0 01.7-.378 1.93 1.93 0 01.776-.041 2.29 2.29 0 011.392.765c.13.149.233.283.308.403.075.12.134.234.176.343.042.11.078.221.11.336l-.705.725-.069-.08.269-1.081a1.158 1.158 0 00-.256-.435.847.847 0 00-.52-.277 1.434 1.434 0 00-.704.081c-.253.09-.51.248-.769.475-.23.2-.4.409-.514.625-.108.216-.16.422-.155.617a.81.81 0 00.2.505c.048.056.106.113.172.172l.8-.699-.107-.557.067-.058 1.296 1.484-.066.058-.502-.14-.684.598a1.638 1.638 0 01-.462-.152 3.335 3.335 0 01-.464-.288 2.534 2.534 0 01-.375-.346zm1.031.452l-.057-.023a.386.386 0 00.057.023zm2.901 3.046a2.407 2.407 0 01-.639-.672 1.209 1.209 0 01-.168-.79c.033-.285.18-.602.437-.95l.984-1.327-.26-.48.052-.071 1.637 1.213-.053.07-.536-.109-1.023 1.38c-.18.242-.283.46-.312.653a.849.849 0 00.084.514c.085.15.204.282.358.396.13.096.269.16.418.194a.761.761 0 00.461-.049c.158-.066.309-.194.45-.386l1.145-1.543-.267-.472.053-.07 1.105.819-.052.07-.533-.113-.987 1.331c-.258.348-.515.582-.773.701-.258.12-.519.148-.783.085a2.218 2.218 0 01-.798-.393zm2.76 1.717l.036-.08.375-.045 2.704-2.499.578.257-.051 3.675.269.33-.036.08-1.812-.803.036-.08.515.005.022-.918-1.173-.52-.665.632.33.37-.036.08-1.092-.484zm1.702-.823l.941.417.03-1.33-.971.913zm3.321 2.818l.018-.087.526-.127.603-2.934-.433-.325.018-.086 2.14.44c.378.077.658.217.841.42.188.2.254.436.198.71a.698.698 0 01-.297.456c-.156.102-.35.173-.583.211l.669 1.75.362.317-.018.086-1.423-.292-.624-1.86-.151-.03-.276 1.342.357.315-.018.086-1.909-.392zm2.305-2.927l-.13-.026-.28 1.358.163.034c.215.044.395.017.539-.08a.696.696 0 00.285-.459c.045-.22.02-.399-.075-.538-.094-.143-.262-.24-.502-.289zm2.81 3.785l-.001-.088.322-.197 1.419-3.397.633-.008 1.482 3.363.383.188v.088l-1.981.024-.001-.088.47-.21-.362-.843-1.282.015-.343.852.454.198.001.089-1.194.014zm1.205-1.457l1.029-.012-.527-1.222-.502 1.234zm4.201 1.188l-.02-.086.423-.337-.69-2.915-.53-.112-.02-.086 1.162-.275 2.628 1.709-.449-1.897-.712-.069-.02-.086 1.5-.355.02.086-.413.335.77 3.252-.423.1-2.949-1.892.502 2.116.712.069.02.085-1.51.358zm5.977-1.815l-.038-.079.446-.47-1.302-2.716-.645.31-.018 1.083-.08.038-.55-1.146 3.267-1.567.55 1.147-.08.038-.856-.664-.645.31 1.302 2.714.646-.053.038.08-2.035.975zm3.803-2.045l-.054-.07.25-.48-1.812-2.385-.53.113-.053-.07 2.55-1.94.58.763-.07.054-.756-.249-.898.683.79 1.039.63-.48-.03-.585.07-.054.763 1.004-.07.053-.55-.177-.63.48.86 1.13.99-.752-.157-1.015.07-.054.73.96-2.673 2.032zm3.856-3.181l-.066-.059.148-.52-2.256-1.971-.496.217-.066-.058 2.108-2.413.721.63-.058.067-.79-.092-.743.85.983.859.521-.597-.147-.568.058-.066.95.83-.059.066-.574-.063-.521.597 1.07.934.818-.936-.358-.963.059-.067.907.793-2.209 2.53z"/><path fill-rule="evenodd" clip-rule="evenodd" d="M49.548 32c0 9.692-7.856 17.548-17.548 17.548-9.692 0-17.548-7.856-17.548-17.548 0-9.692 7.856-17.548 17.548-17.548 9.692 0 17.548 7.856 17.548 17.548zm-10.905-6.024a9.186 9.186 0 00-5.325-2.724l.576-.576a.585.585 0 10-.827-.827l-1.48 1.48a.585.585 0 000 .827l1.48 1.48a.583.583 0 00.827 0 .584.584 0 000-.826l-.331-.331a8.025 8.025 0 014.239 2.31 8.028 8.028 0 012.267 5.607c0 4.45-3.62 8.07-8.069 8.07-4.45 0-8.069-3.62-8.069-8.07 0-1.697.521-3.321 1.507-4.696a8.046 8.046 0 013.848-2.905.585.585 0 00-.393-1.101 9.21 9.21 0 00-4.405 3.325 9.174 9.174 0 00-1.726 5.377c0 2.468.96 4.788 2.706 6.533A9.178 9.178 0 0032 41.634c2.468 0 4.788-.96 6.532-2.705a9.178 9.178 0 002.706-6.533 9.192 9.192 0 00-2.595-6.42zM32 38.404a6.014 6.014 0 01-6.007-6.008A6.014 6.014 0 0132 26.39a6.014 6.014 0 016.007 6.007A6.014 6.014 0 0132 38.404zm-1.324-6.297c.354.278.841.512 1.683.81.534.189.523.62.493.797a.897.897 0 01-.89.756c-.533.004-.686-.02-1.09-.285a.585.585 0 00-.64.978c.436.286.76.406 1.15.452v.222a.585.585 0 001.169 0v-.28c.3-.086.572-.24.807-.455.34-.313.57-.737.647-1.194.157-.931-.348-1.773-1.256-2.094-.497-.175-1.046-.387-1.351-.627-.088-.069-.125-.23-.093-.402.016-.087.093-.378.388-.467.5-.151.842.048.966.14a.585.585 0 00.7-.936 2.232 2.232 0 00-.808-.368v-.198a.585.585 0 00-1.17 0v.235a.508.508 0 01-.011.003l-.014.004c-.616.186-1.076.71-1.2 1.37-.115.608.085 1.198.52 1.54z"/></g><defs><clipPath id="clip0"><path fill="#fff" d="M0 0h64v64H0z"/></clipPath></defs></svg>