<svg width="64" height="64" fill="none" xmlns="http://www.w3.org/2000/svg"><path d="M56.113 15.634l1.364-3.025-3.274.51 1.032-3.155-3.202.862.687-3.247-3.09 1.201.336-3.302-2.943 1.526L47 3.685l-2.761 1.838-.383-3.299-2.546 2.128-.742-3.237-2.3 2.392L37.183.373l-2.026 2.628L33.734 0l-1.732 2.83L30.269 0l-1.421 3L26.82.374l-1.086 3.134-2.297-2.392-.741 3.237-2.546-2.128-.383 3.299-2.76-1.838-.025 3.32-2.942-1.527.335 3.302-3.09-1.2.688 3.246-3.202-.862 1.032 3.155-3.277-.513L7.89 15.63l-3.311-.154 1.681 2.861-3.308.205 1.982 2.659-3.266.565 2.258 2.429-3.184.917 2.511 2.166-3.068 1.26 2.73 1.881L0 32l2.915 1.58-2.73 1.883 3.068 1.259-2.511 2.166 3.184.917-2.258 2.43 3.266.564-1.982 2.659 3.308.205-1.681 2.86 3.311-.154-1.363 3.025 3.273-.513-1.032 3.155 3.202-.862-.687 3.247 3.09-1.201-.335 3.302 2.942-1.526.024 3.319 2.76-1.838.384 3.299 2.545-2.128.742 3.236 2.3-2.391 1.086 3.134 2.027-2.628L30.269 64l1.733-2.83L33.734 64l1.422-3 2.026 2.627 1.087-3.134 2.296 2.392.742-3.237 2.545 2.128.383-3.299 2.761 1.838.024-3.32 2.942 1.527-.335-3.302 3.09 1.2-.687-3.246 3.202.862L54.2 50.88l3.273.513-1.363-3.024 3.311.154-1.681-2.861 3.308-.205-1.982-2.659 3.266-.565-2.258-2.429 3.184-.917-2.511-2.166 3.069-1.26-2.73-1.881L64 32l-2.915-1.58 2.73-1.883-3.068-1.259 2.511-2.166-3.184-.917 2.258-2.43-3.266-.564 1.982-2.659-3.308-.205 1.681-2.86-3.308.157zm1.87 6.43c.341.903-.014 1.844-.752 2.285h.782v.246c.086.035.168.069.25.113.44.25.762.698.888 1.246.137.544-.007 1.095-.277 1.502a1.72 1.72 0 01-.858.67v.083c.38.024.732.164 1.026.4a1.9 1.9 0 01.485.589c.116.232.188.492.208.773a1.89 1.89 0 01-.492 1.444c-.31.342-.745.544-1.227.571v.024c.482.028.916.23 1.227.572.335.366.547.886.492 1.444-.02.28-.095.54-.208.773-.123.23-.29.431-.485.589-.29.236-.646.376-1.026.4v.082c.356.13.653.366.858.67.27.411.414.959.277 1.503a1.896 1.896 0 01-.888 1.245c-.079.048-.164.079-.25.113v.09h-.297a1.838 1.838 0 01-.748 0h-.086c.967.324 1.486 1.406 1.097 2.442-.4 1.064-1.582 1.516-2.522 1.058.967.438 1.353 1.628.8 2.617-.55.996-1.788 1.266-2.649.678.892.575 1.1 1.806.41 2.706a1.866 1.866 0 01-1.332.746 1.802 1.802 0 01-1.388-.462c.393.353.612.835.612 1.331a1.898 1.898 0 01-.598 1.407 2.081 2.081 0 01-.673.434 1.906 1.906 0 01-.752.113 1.807 1.807 0 01-1.305-.657c.341.407.482.914.41 1.406a1.89 1.89 0 01-.796 1.304c-.23.161-.475.274-.728.332a1.97 1.97 0 01-.762.004 1.794 1.794 0 01-1.196-.839c.276.452.341.969.201 1.448a1.877 1.877 0 01-.977 1.173c-.25.127-.51.206-.769.223a1.896 1.896 0 01-.752-.11 1.794 1.794 0 01-1.059-1.006c.208.49.195 1.01-.01 1.461a1.878 1.878 0 01-1.138 1.02 2.009 2.009 0 01-.793.106 2.002 2.002 0 01-.728-.219 1.809 1.809 0 01-.902-1.15 1.787 1.787 0 01-.225 1.444c-.27.418-.721.753-1.275.842a2.09 2.09 0 01-.8-.01 1.969 1.969 0 01-.69-.322 1.807 1.807 0 01-.724-1.273 1.787 1.787 0 01-.434 1.4c-.328.362-.82.643-1.384.646-1.135.048-2.01-.865-1.958-1.912a1.81 1.81 0 01-.629 1.327 1.956 1.956 0 01-1.463.442c-.557-.076-1.035-.336-1.332-.746a1.812 1.812 0 01-.328-1.434c-.096.52-.393.955-.817 1.225-.42.257-.967.356-1.51.222-.54-.157-.974-.492-1.21-.934a1.84 1.84 0 01-.116-1.468 1.85 1.85 0 01-.988 1.095 1.985 1.985 0 01-1.527-.003c-.51-.233-.889-.63-1.06-1.102a1.827 1.827 0 01.1-1.468 1.853 1.853 0 01-1.138.938 1.978 1.978 0 01-1.51-.226c-.472-.305-.79-.753-.89-1.246a1.83 1.83 0 01.312-1.437 1.829 1.829 0 01-1.261.76 1.958 1.958 0 01-1.46-.445c-.42-.37-.672-.855-.697-1.362-.027-.503.15-.995.516-1.375-.365.38-.854.578-1.356.568a1.954 1.954 0 01-1.38-.65c-.756-.849-.626-2.098.215-2.734a1.82 1.82 0 01-1.425.366 1.937 1.937 0 01-1.271-.845c-.63-.948-.315-2.17.608-2.673-.92.534-2.109.161-2.597-.869-.486-1.03.003-2.193.99-2.556-.987.394-2.108-.15-2.44-1.239a1.876 1.876 0 01.565-1.98v-.398a1.776 1.776 0 01-.65-.28c-.4-.288-.71-.75-.792-1.307-.069-.558.068-1.088.386-1.479a1.835 1.835 0 011.056-.636v-.051a1.834 1.834 0 01-1.145-.476 2.016 2.016 0 01-.595-1.406c.014-.561.24-1.064.595-1.407.314-.287.71-.451 1.145-.475v-.052a1.834 1.834 0 01-1.056-.636c-.321-.39-.455-.92-.386-1.478.078-.558.393-1.02.792-1.307.195-.137.417-.23.65-.28v-.398a1.876 1.876 0 01-.564-1.981c.331-1.088 1.456-1.632 2.44-1.239-.988-.362-1.477-1.526-.991-2.556.485-1.026 1.678-1.403 2.597-.869-.923-.503-1.237-1.724-.608-2.672a1.944 1.944 0 011.27-.845 1.828 1.828 0 011.426.366c-.841-.633-.974-1.886-.216-2.734a1.954 1.954 0 011.38-.65 1.83 1.83 0 011.357.568 1.827 1.827 0 01-.516-1.376c.024-.506.277-.989.698-1.362.434-.355.97-.496 1.459-.444a1.84 1.84 0 011.26.76 1.83 1.83 0 01-.31-1.438c.099-.493.417-.94.888-1.245a1.976 1.976 0 011.51-.226c.486.14.896.465 1.138.937a1.824 1.824 0 01-.099-1.468c.171-.472.55-.869 1.06-1.101a1.985 1.985 0 011.527-.004c.462.209.82.592.988 1.095a1.827 1.827 0 01.116-1.468c.236-.441.67-.78 1.21-.934a1.982 1.982 0 011.51.222c.424.274.724.709.817 1.225-.096-.52.03-1.026.328-1.433.297-.41.775-.671 1.332-.746a1.965 1.965 0 011.463.441c.38.318.612.804.629 1.328-.052-1.047.823-1.96 1.958-1.913.56.003 1.056.28 1.384.647.331.37.492.872.434 1.4a1.79 1.79 0 01.724-1.274c.202-.147.434-.263.69-.321a2.09 2.09 0 01.8-.01 1.886 1.886 0 011.275.841c.273.418.358.93.225 1.444.133-.513.462-.917.902-1.15.219-.116.468-.191.728-.219.26-.02.53.018.793.107.536.17.933.564 1.138 1.02.208.454.222.971.01 1.46a1.794 1.794 0 011.06-1.006 2.05 2.05 0 01.751-.11c.26.018.52.097.769.223.506.247.84.698.977 1.174.14.479.075.996-.201 1.447a1.784 1.784 0 011.196-.838 1.97 1.97 0 01.762.003c.253.059.499.171.728.332.464.318.727.815.796 1.304.068.493-.072.996-.41 1.406a1.795 1.795 0 011.305-.657c.25-.013.506.024.752.113.24.096.471.24.673.435.414.38.602.91.598 1.406 0 .496-.215.979-.612 1.331.393-.352.889-.51 1.388-.462.502.041.987.305 1.333.746.693.9.481 2.132-.41 2.707.864-.592 2.101-.319 2.648.677.553.993.167 2.18-.8 2.618.943-.442 2.126.01 2.525 1.074z" fill="#1A58E1"/><path fill-rule="evenodd" clip-rule="evenodd" d="M53.096 43.693a1.85 1.85 0 00-.171 1.31c-.2.313-.405.627-.614.93a1.82 1.82 0 00-1.153.67c-.291.37-.394.835-.36 1.288-.237.277-.48.55-.727.816a1.87 1.87 0 00-1.256.494 1.696 1.696 0 00-.394.58c-.09.208-.14.43-.151.662a22.53 22.53 0 01-.82.685 1.88 1.88 0 00-1.33.307c-.2.14-.354.318-.474.519a1.75 1.75 0 00-.25.645c-.296.187-.59.371-.896.549h-.003a1.895 1.895 0 00-1.372.109 1.763 1.763 0 00-.546.443c-.15.174-.267.379-.343.604v.004a.01.01 0 01-.003.006c-.316.143-.631.276-.954.406a1.889 1.889 0 00-1.386-.099c-.23.075-.432.205-.603.362-.175.15-.32.334-.43.545-.002.007-.006.014-.006.02-.326.093-.655.182-.988.26a.09.09 0 01-.02-.017 1.863 1.863 0 00-1.345-.29c-.24.041-.456.137-.648.27a1.857 1.857 0 00-.522.504c-.333.045-.669.082-1.008.113l-.003-.002-.002-.003-.002-.002a.201.201 0 00-.017-.017c-.357-.327-.803-.48-1.29-.48a1.86 1.86 0 00-1.276.6 24.431 24.431 0 01-1.005-.031l-.006-.01c-.005-.008-.01-.017-.018-.024a1.791 1.791 0 00-1.207-.662c-.48-.065-.944.106-1.321.385l-.016.014-.006.006a.071.071 0 01-.009.008c-.33-.055-.659-.11-.985-.174a1.761 1.761 0 00-1.115-.866c-.462-.137-.946-.038-1.361.187-.007.003-.013.008-.019.012a.483.483 0 01-.019.012 28.012 28.012 0 01-.947-.317.06.06 0 01-.003-.008v-.002c-.002-.003-.002-.007-.003-.01l-.007-.021a1.763 1.763 0 00-.96-.98c-.44-.2-.93-.177-1.376-.013a.105.105 0 00-.023.01.134.134 0 01-.015.007 31.26 31.26 0 01-.892-.453.106.106 0 01-.003-.02l-.004-.021a1.754 1.754 0 00-.806-1.109c-.404-.263-.898-.31-1.358-.211l-.025.008a.227.227 0 01-.013.005 22.076 22.076 0 01-.816-.58v-.04a1.754 1.754 0 00-.638-1.215c-.364-.32-.844-.433-1.314-.406-.011 0-.02.003-.031.005l-.007.002c-.247-.229-.49-.457-.727-.696 0-.005 0-.01.002-.017l.002-.017a1.77 1.77 0 00-.453-1.293 1.855 1.855 0 00-1.273-.593 22.742 22.742 0 01-.62-.798c.001-.007.003-.012.005-.017l.001-.01a1.77 1.77 0 00-.26-1.344 1.842 1.842 0 00-1.163-.768c-.172-.293-.343-.59-.501-.89a1.796 1.796 0 00-.055-1.385 1.836 1.836 0 00-1.03-.924 24.97 24.97 0 01-.37-.966c.103-.197.172-.412.2-.63h9.604a15.36 15.36 0 0013.34 7.715 15.358 15.358 0 0013.34-7.716h9.968a1.797 1.797 0 00-.813.914c-.158.423-.14.884.017 1.303-.154.348-.315.696-.483 1.034-.446.14-.817.423-1.04.819zm-25.874 6.722l-.052-.018.01-.032c.094-.27.064-.491-.087-.662a.776.776 0 00-.308-.204l-.524-.187-.419 1.224.395.141a.536.536 0 00.425-.018.556.556 0 00.277-.333l.003-.01.052.018-.46 1.343-.052-.018.007-.02a.563.563 0 00-.015-.433.523.523 0 00-.321-.284l-.394-.14-.375 1.093a.278.278 0 00.055.282c.033.04.076.068.127.087l.052.019-.018.052-1.67-.596.019-.053.057.02a.267.267 0 00.213-.01.265.265 0 00.15-.164l.846-2.474a.278.278 0 00-.015-.227.274.274 0 00-.16-.145l-.057-.02.017-.053 2.023.722a2.046 2.046 0 00.539.105l-.34.995zm4.155 1.11c.11-.15.176-.319.197-.508.07-.602-.311-.953-1.142-1.052l-1.88-.226-.007.055.066.008a.254.254 0 01.182.105.278.278 0 01.058.212l-.3 2.603a.275.275 0 01-.104.193.27.27 0 01-.206.058l-.06-.007-.007.055 1.755.21.006-.055-.05-.005a.33.33 0 01-.193-.096.272.272 0 01-.063-.224l.308-2.68.11.014a.522.522 0 01.165.053.35.35 0 01.133.099c.032.04.066.119.1.234a.786.786 0 01-.003.41l-.003.032c-.047.21-.113.357-.2.442a.342.342 0 01-.284.105l-.028-.004-.005.044c.08.054.127.165.145.334.026.317.079.565.158.745.05.117.102.221.158.313.06.088.16.174.303.258.104.06.336.112.697.156l.645.077.006-.055a.47.47 0 01-.24-.09c-.114-.095-.255-.364-.421-.81a2.74 2.74 0 00-.086-.22.957.957 0 00-.186-.261.813.813 0 00-.327-.24c.275-.014.476-.108.603-.282zm1.7 1.847l-.005-.055.06-.007c.077-.008.133-.035.169-.08a.31.31 0 00.085-.236l-.28-2.6a.273.273 0 00-.11-.199.269.269 0 00-.206-.06l-.06.007-.006-.055 2.133-.24a1.9 1.9 0 00.304-.061 1.2 1.2 0 00.23-.081l.11 1.034-.054.006-.003-.027c-.023-.212-.097-.37-.223-.474-.122-.104-.285-.147-.49-.127l-.563.063.139 1.286.42-.047a.539.539 0 00.482-.625l-.002-.01.055-.007.152 1.412-.054.007-.003-.022a.553.553 0 00-.196-.383.507.507 0 00-.406-.115l-.42.047.133 1.238.525-.06a.881.881 0 00.57-.307 1.26 1.26 0 00.296-.698l.05-.006-.03 1.167-2.801.315zm4.601-.774l.018.052 2.661-.927-.22-1.148-.047.017c.026.286-.02.535-.14.748a.889.889 0 01-.49.427l-.498.174-.395-1.18.4-.14a.503.503 0 01.42.023.547.547 0 01.273.33l.007.021.052-.018-.45-1.347-.052.018.004.01a.543.543 0 01-.335.717l-.4.14-.41-1.227.535-.186c.195-.064.363-.059.505.016.144.074.25.212.318.414l.008.026.052-.018-.33-.987a1.197 1.197 0 01-.206.13 1.952 1.952 0 01-.282.128l-2.027.706.017.053.057-.02a.267.267 0 01.214.013.27.27 0 01.15.17l.828 2.48a.313.313 0 01-.032.25.245.245 0 01-.148.115l-.057.02zm15.418-32.375a1.85 1.85 0 01-.171-1.31 29.351 29.351 0 00-.614-.931 1.82 1.82 0 01-1.153-.669c-.291-.371-.394-.835-.36-1.289a27.34 27.34 0 00-.727-.815 1.87 1.87 0 01-1.256-.495 1.696 1.696 0 01-.394-.58c-.09-.208-.14-.43-.151-.661a22.53 22.53 0 00-.82-.686c-.47.068-.933-.04-1.33-.307a1.668 1.668 0 01-.474-.518 1.782 1.782 0 01-.25-.645 25.96 25.96 0 00-.896-.55h-.003a1.895 1.895 0 01-1.372-.108 1.768 1.768 0 01-.546-.444 1.787 1.787 0 01-.343-.604c0-.003 0-.006-.003-.01a23.523 23.523 0 00-.954-.406 1.889 1.889 0 01-1.386.099 1.666 1.666 0 01-.603-.361 1.817 1.817 0 01-.43-.546c-.002-.007-.006-.014-.006-.02a22.712 22.712 0 00-.988-.26.052.052 0 00-.01.007l-.002.002-.002.002-.006.006a1.864 1.864 0 01-1.345.29 1.607 1.607 0 01-.648-.27 1.858 1.858 0 01-.515-.492l-.007-.012a23.967 23.967 0 00-1.008-.113.103.103 0 00-.007.008c-.005.005-.01.012-.017.016-.357.328-.803.481-1.29.481a1.862 1.862 0 01-1.276-.6c-.336.003-.672.014-1.005.03l-.006.01c-.005.008-.01.017-.018.025a1.791 1.791 0 01-1.207.661c-.48.065-.944-.105-1.321-.385-.005-.003-.01-.009-.016-.014a.11.11 0 00-.015-.013c-.33.054-.659.109-.985.174a1.762 1.762 0 01-1.115.866c-.462.136-.946.038-1.361-.188a.144.144 0 01-.019-.012.146.146 0 00-.019-.011c-.319.102-.634.204-.947.317a.076.076 0 00-.006.02 1.764 1.764 0 01-.967 1c-.44.2-.93.177-1.376.013a.104.104 0 01-.023-.01l-.015-.007c-.298.147-.597.297-.892.454a.16.16 0 00-.003.02l-.004.02a1.754 1.754 0 01-.806 1.11c-.404.262-.898.31-1.358.21-.009-.001-.017-.005-.025-.008l-.01-.004h-.003c-.274.187-.549.378-.816.579v.041c-.048.477-.26.91-.638 1.214-.364.32-.844.433-1.314.406a.1.1 0 01-.03-.005l-.008-.002c-.247.229-.49.457-.727.696 0 .005 0 .011.002.017l.002.017c.024.481-.13.935-.453 1.293a1.855 1.855 0 01-1.273.594c-.213.262-.422.528-.62.798l.001.006a1.77 1.77 0 01-.256 1.365 1.842 1.842 0 01-1.162.767c-.172.294-.343.59-.501.89.161.454.154.952-.055 1.385-.206.434-.58.758-1.03.925-.13.317-.253.641-.37.965.103.198.172.413.2.631h9.604a15.36 15.36 0 0113.34-7.715 15.358 15.358 0 0113.34 7.715h9.968a1.798 1.798 0 01-.813-.914 1.853 1.853 0 01.017-1.303 25.943 25.943 0 00-.483-1.034 1.785 1.785 0 01-1.04-.818zm-36.858-.425l-.034-.029c.071-.113.066-.263-.016-.451a1.128 1.128 0 00-.313-.407c-.208-.175-.41-.234-.605-.178a.485.485 0 00-.236.162l-.043.05 2.079 1.745a.316.316 0 00.213.072.275.275 0 00.19-.107l.036-.042.042.035-1.133 1.35-.042-.036.039-.046a.27.27 0 00.064-.205.277.277 0 00-.103-.194l-2.011-1.689a.278.278 0 00-.209-.06.27.27 0 00-.19.099l-.04.046-.041-.035 1.19-1.417c.337-.402.67-.601.998-.599a.91.91 0 01.58.235c.109.092.2.204.27.336a.787.787 0 01.11.408.933.933 0 01-.21.628.992.992 0 01-.585.329zm2.72-.61l2.186-1.78-.606-.997-.043.034c.122.26.165.51.127.75a.857.857 0 01-.308.563l-.41.333-1.71-2.1a.255.255 0 01-.052-.107c-.035-.118-.002-.218.097-.299l.047-.038-.035-.043-1.378 1.123.034.043.047-.038a.27.27 0 01.206-.062.27.27 0 01.197.103l1.655 2.032a.268.268 0 01.06.213.27.27 0 01-.1.19l-.048.038.035.042zm5.92-3.863l.039-.02.026.048-1.712.909-.026-.049.04-.02c.064-.035.102-.076.114-.124.014-.053.013-.094-.003-.123a.28.28 0 00-.078-.09l-.311-.245-.9.477.032.413a.243.243 0 00.027.098c.016.03.048.054.096.074.05.016.107.006.171-.028l.034-.019.026.049-1.001.532-.026-.049.039-.02a.462.462 0 00.173-.167.44.44 0 00.07-.268l-.145-2.69c-.026-.432-.056-.692-.091-.781l.039-.021 2.856 2.067c.172.12.342.136.511.047zm-2.835.496l.71-.377-.789-.629.08 1.006zm5.114-.985c.357-.1.675-.254.956-.463.281-.208.456-.402.523-.58l-.21-.753c-.04-.142.016-.234.168-.276l.063-.018-.012-.043-1.616.454.012.042.074-.02a.23.23 0 01.18.012c.05.024.083.07.102.137l.167.594a.69.69 0 01.027.078.407.407 0 01-.058.342.536.536 0 01-.321.221c-.527.148-.918-.236-1.175-1.15-.135-.482-.157-.866-.066-1.155.093-.292.31-.487.654-.583.494-.139.901.054 1.22.578l.037-.01-.179-.922a2.71 2.71 0 00-.636.035 5.55 5.55 0 00-.78.156c-.572.16-.977.43-1.214.81-.233.377-.277.824-.132 1.34.097.347.253.625.468.835.216.21.472.344.77.402.299.057.624.036.978-.063zm4.133-.759l.06-.005.005.055-1.76.16-.005-.054.06-.006a.27.27 0 00.19-.1c.05-.06.072-.13.064-.21l-.238-2.61a.277.277 0 00-.101-.196.27.27 0 00-.205-.064l-.06.006-.005-.055 1.754-.16.005.055-.055.005a.258.258 0 00-.229.159.334.334 0 00-.03.152l.239 2.61a.29.29 0 00.106.194.27.27 0 00.205.064zm4.642.272l-.044-.004c-.19-.016-.325-.121-.404-.316l-1.28-3.285-.043-.004c-.019.094-.135.33-.347.706l-1.337 2.34a.441.441 0 01-.203.187.463.463 0 01-.236.046l-.044-.004-.005.055 1.13.096.005-.055-.039-.003c-.073-.007-.126-.03-.16-.07a.179.179 0 01-.04-.113.242.242 0 01.03-.097l.197-.364 1.015.086.128.375a.281.281 0 01.018.118c-.003.033-.024.068-.064.105-.036.034-.09.047-.164.041l-.044-.004-.004.055 1.93.164.005-.055zm-1.894-1.056l-.8-.067.478-.888.322.955zm6.067-.081c-.055.182-.15.338-.284.466-.156.148-.37.206-.645.173a.81.81 0 01.28.292c.078.123.124.22.137.289.018.07.033.147.046.232.085.466.176.756.272.87.051.057.125.1.22.13l-.016.052-.622-.188c-.348-.105-.568-.196-.66-.273a.921.921 0 01-.252-.307 2.385 2.385 0 01-.1-.335c-.047-.19-.054-.443-.024-.76.013-.169-.015-.286-.083-.353l.012-.042.027.008c.098.03.198.012.298-.054.101-.07.193-.202.276-.4l.01-.032a.785.785 0 00.075-.402.766.766 0 00-.058-.248.342.342 0 00-.113-.12.515.515 0 00-.154-.08l-.105-.033-.78 2.583a.27.27 0 00.023.231.328.328 0 00.174.127l.048.015-.016.052-1.692-.51.016-.053.058.018a.27.27 0 00.213-.022.277.277 0 00.138-.171l.757-2.51a.277.277 0 00-.02-.218.252.252 0 00-.16-.135l-.064-.019.016-.053 1.813.547c.801.242 1.114.653.94 1.233zm1.683 3.46l-.054-.027a.27.27 0 01-.14-.163.297.297 0 01.014-.221l1.184-2.338a.335.335 0 01.106-.113.258.258 0 01.278-.013l.05.025.024-.05-1.571-.795-.025.049.054.027a.27.27 0 01.14.163.277.277 0 01-.02.22l-1.183 2.337a.276.276 0 01-.166.145.27.27 0 01-.214-.016l-.054-.028-.025.05 1.577.798.025-.05zm3.665 1.27c-.238.326-.534.485-.887.477-.314-.007-.654-.144-1.021-.413a2.27 2.27 0 01-.5-.474c-.108-.157-.164-.29-.168-.403a.61.61 0 01.103-.225c.05-.068.103-.129.16-.182.148-.134.29-.219.426-.256l.027.02-.03.04a.957.957 0 00-.176.69c.03.262.172.487.427.674.151.11.29.16.417.148a.38.38 0 00.288-.151.393.393 0 00.066-.314 1.38 1.38 0 00-.189-.451l-.307-.56a1.038 1.038 0 01-.16-.656.954.954 0 01.183-.466c.035-.047.072-.092.113-.135.4-.412.85-.436 1.348-.072.166.122.38.299.642.531l.297.218-.58.57-.028-.019a.523.523 0 00.094-.463.718.718 0 00-.293-.42c-.303-.22-.536-.241-.7-.06a.29.29 0 00-.059.304c.032.087.087.193.164.317l.381.682a.972.972 0 01.148.544.92.92 0 01-.186.505zm1.91 3.564l-.042.037 1.183 1.335.04-.036-.05-.058a.363.363 0 01-.093-.204.364.364 0 01.064-.219l1.996-2.355-.033-.037-2.52.268.459-2.597-.03-.033-2.551 1.685a.305.305 0 01-.238.056.393.393 0 01-.21-.13l-.048-.054-.041.037.708.8.041-.037-.051-.058c-.044-.05-.053-.11-.028-.18a.177.177 0 01.064-.094l.965-.655-.334 1.949.03.033.057-.051a.727.727 0 01.197-.093c.103-.038.202-.062.297-.072l1.299-.135-.803.953a.236.236 0 01-.133.066c-.052.007-.1-.014-.144-.063l-.051-.058z" fill="#1A58E1"/><g clip-path="url(#clip0)" fill="#1A58E1"><path d="M34.215 22.021h-9.563a2.285 2.285 0 00-2.286 2.287v12.89a2.285 2.285 0 002.287 2.286h6.768a5.936 5.936 0 01-1.156-3.534 6.033 6.033 0 016.029-6.029c.067 0 .141 0 .208.008v-5.62a2.285 2.285 0 00-2.287-2.288zm-8.523 3.327h3.326c.457 0 .832.374.832.831a.834.834 0 01-.832.832h-3.326a.834.834 0 01-.832-.832c0-.457.375-.831.832-.831zm4.158 8.315h-4.158a.834.834 0 01-.832-.831c0-.458.375-.832.832-.832h4.158c.457 0 .831.374.831.831a.834.834 0 01-.831.832zm3.326-3.326h-7.484a.834.834 0 01-.832-.832c0-.457.375-.831.832-.831h7.484c.457 0 .831.374.831.831a.834.834 0 01-.831.832z"/><path d="M36.294 40.315a4.37 4.37 0 01-4.366-4.365 4.37 4.37 0 014.366-4.366 4.37 4.37 0 014.365 4.366 4.37 4.37 0 01-4.365 4.365zm0-7.068a2.706 2.706 0 00-2.703 2.703 2.706 2.706 0 002.703 2.702 2.706 2.706 0 002.702-2.702 2.706 2.706 0 00-2.702-2.703z"/><path d="M41.491 41.978a.829.829 0 01-.588-.243l-2.702-2.703a.83.83 0 111.176-1.176l2.702 2.703a.83.83 0 01-.588 1.42z"/></g><defs><clipPath id="clip0"><path fill="#fff" transform="translate(22.366 22.021)" d="M0 0h19.957v19.957H0z"/></clipPath></defs></svg>