<svg width="64" height="64" fill="none" xmlns="http://www.w3.org/2000/svg"><path d="M32 57.629c-9.272 0-17.41-4.949-21.91-12.347h-.544C14.099 52.946 22.455 58.098 32 58.098c9.542 0 17.902-5.152 22.455-12.816h-.544c-4.5 7.398-12.639 12.347-21.91 12.347zM6.375 32c0-14.132 11.497-25.629 25.629-25.629 14.132 0 25.629 11.497 25.629 25.629 0 .79-.041 1.57-.111 2.343h.473c.07-.772.11-1.552.11-2.343 0-14.39-11.707-26.098-26.098-26.098C17.617 5.902 5.91 17.609 5.91 32c0 .79.04 1.57.111 2.343h.473A23.4 23.4 0 016.375 32z" fill="#1A58E1"/><path d="M32 64c17.672 0 32-14.328 32-32S49.672 0 32 0 0 14.328 0 32s14.328 32 32 32zM6.364 47.425l1.264-2.143H4.405L1.73 34.343h1.829l1.256-.865-2.723-1.474 2.723-1.475-2.553-1.759 2.867-1.175-2.346-2.025 2.978-.858-2.113-2.265 3.052-.525-1.855-2.483 3.093-.192-1.574-2.672 3.097.144-1.275-2.824 3.06.477-.965-2.945 2.993.805-.642-3.03 2.89 1.12-.311-3.082 2.75 1.426.022-3.097 2.58 1.715.358-3.078L23.3 6.19l.69-3.02 2.148 2.233 1.016-2.927 1.892 2.454 1.327-2.801 1.619 2.642 1.618-2.642 1.327 2.8 1.892-2.453 1.016 2.927 2.148-2.232.69 3.02 2.38-1.985.359 3.078 2.58-1.715.022 3.1 2.75-1.426-.311 3.082 2.89-1.12-.643 3.031 2.993-.806-.964 2.946 3.06-.477-1.275 2.824 3.096-.145-1.574 2.669 3.093.192-1.855 2.483 3.053.525-2.114 2.265 2.978.858-2.346 2.021 2.867 1.175-2.553 1.76L61.894 32l-2.724 1.474 1.256.865h1.83l-2.232 10.94h-3.67l1.264 2.143-3.097-.144 1.275 2.823-3.06-.477.964 2.946-2.993-.806.643 3.03-2.89-1.12.31 3.083-2.749-1.427-.022 3.097-2.58-1.715-.358 3.079-2.38-1.985-.691 3.02-2.147-2.233-1.017 2.927-1.892-2.454-1.326 2.802-1.62-2.643-1.618 2.643-1.326-2.802-1.893 2.454-1.016-2.927-2.147 2.232-.691-3.019-2.38 1.985-.359-3.079-2.579 1.715-.022-3.1-2.75 1.426.31-3.082-2.89 1.12.644-3.03-2.994.805.965-2.946-3.064.477 1.275-2.823-3.09.151z" fill="#1A58E1"/><path d="M57.518 34.343a25.412 25.412 0 01-3.607 10.939h.543a25.844 25.844 0 003.533-10.939h-.469zm-51.032 0h-.473c.354 3.97 1.6 7.68 3.533 10.939h.543a25.458 25.458 0 01-3.603-10.939zm52.388 2.066l2.347 2.025-2.975.857 2.11 2.266-3.053.528 1.852 2.484-3.09.188.307.525h3.674l2.228-10.939h-1.826l1.294.894-2.868 1.172zM4.845 44.565L6.7 42.082l-3.056-.525 2.113-2.27-2.978-.853 2.347-2.025-2.865-1.172 1.294-.894h-1.83l2.68 10.939h3.222l.31-.525-3.092-.192zm12.368-25.59c-.196.219-.41.389-.643.51a1.813 1.813 0 01-1.412.139 1.783 1.783 0 01-.628-.37 1.71 1.71 0 01-.46-.65 1.973 1.973 0 01-.139-.76 2.224 2.224 0 01.558-1.438 2.99 2.99 0 01.352-.343c.104-.084.205-.149.3-.196.1-.05.204-.097.313-.141l.85.651-.066.074-1.155-.163a.92.92 0 00-.356.265.797.797 0 00-.205.533c-.005.208.056.43.18.665.125.235.315.467.572.698.227.203.453.347.678.43.226.085.435.11.628.076a.832.832 0 00.488-.272 1.26 1.26 0 00.16-.22.969.969 0 00.103-.262l-.21-1.01.065-.074.655.713a1.6 1.6 0 01-.211.565c-.116.207-.255.4-.417.58zm3.542-3.005a2.1 2.1 0 01-.713.324 1.823 1.823 0 01-1.407-.228 1.916 1.916 0 01-.542-.537 1.916 1.916 0 01-.307-.697 1.86 1.86 0 01.293-1.39 2.02 2.02 0 01.554-.556 2.04 2.04 0 01.716-.32 1.86 1.86 0 01.734-.03c.239.037.462.121.67.255.21.131.392.309.546.532a1.856 1.856 0 01.304 1.422 1.97 1.97 0 01-.291.675 2.101 2.101 0 01-.557.55zm-.107-.28a.541.541 0 00.232-.374 1.19 1.19 0 00-.051-.56 2.555 2.555 0 00-.346-.677c-.2-.29-.407-.52-.621-.689-.214-.169-.418-.274-.611-.315a.616.616 0 00-.506.081.553.553 0 00-.231.373c-.032.16-.017.348.046.563a2.5 2.5 0 00.343.673c.2.29.408.521.624.693.217.167.424.272.619.316.196.04.363.01.502-.085zm2.642-1.373l-.028-.083.388-.378-.868-2.875-.537-.053-.028-.084 1.499-.516 1.71 1.873.169-2.52 1.463-.504.028.083-.413.305 1.09 2.874.491.075.029.084-1.822.627-.029-.083.364-.364-.874-2.384-.212 3.119-.333.115-2.12-2.333.764 2.439.548.05.028.083-1.306.45zm5.908-1.718l-.006-.088.473-.264-.203-2.988-.504-.197-.006-.088 2.208-.15c.285-.02.539-.002.76.053a1 1 0 01.52.28c.13.134.204.315.22.542a.785.785 0 01-.173.558 1.315 1.315 0 01-.53.395c-.229.1-.493.16-.794.18l-.543.037.088 1.307.62.19.006.088-2.136.145zm1.307-3.427l.098 1.45.137-.01c.29-.019.512-.104.667-.254a.651.651 0 00.212-.533c-.017-.257-.114-.436-.29-.538-.172-.102-.414-.143-.726-.122l-.098.007zm3.427 3.298l.014-.086.52-.153.465-2.958-.449-.305.014-.087 2.056.323-.014.087-.574.144-.467 2.975 1.115.175.663-1.033.088.014-.222 1.409-3.209-.504zm4.368.848l.032-.082.54-.033 1.109-2.782-.37-.396.033-.082 2.977 1.186-.355.89-.082-.033-.177-.776-1.048-.417-.483 1.212.736.293.487-.328.081.033-.466 1.171-.082-.032-.132-.563-.736-.293-.526 1.32 1.156.46.79-.657.081.032-.446 1.12-3.12-1.243zm4.885 2.31l.05-.073.63.157 1.723-2.469-.587-.41-.952.518-.072-.05.728-1.044 2.97 2.074-.728 1.043-.072-.05.157-1.073-.587-.41-1.723 2.47.364.536-.05.072-1.851-1.291zm3.214 2.464l.065-.06.5.211 2.229-2-.155-.519.066-.059 2.14 2.385-.714.64-.059-.066.187-.773-.754-.84-.971.871.529.59.581-.077.059.065-.938.842-.06-.066.133-.562-.53-.59-1.057.949.83.926 1-.238.059.065-.898.805-2.242-2.5zM8.866 36.756c-.05-.29-.05-.563 0-.821a1.813 1.813 0 01.77-1.192 1.78 1.78 0 01.68-.261 1.71 1.71 0 01.795.044c.252.076.479.197.682.364a2.224 2.224 0 01.78 1.33c.032.196.049.359.049.49 0 .133-.011.252-.034.357a4.57 4.57 0 01-.083.332l-1.04.26-.016-.097.846-.803a.92.92 0 00.014-.443.797.797 0 00-.29-.493 1.365 1.365 0 00-.633-.272 2.589 2.589 0 00-.902.014c-.3.05-.554.139-.76.263a1.196 1.196 0 00-.449.445.832.832 0 00-.09.551c.015.09.04.178.072.262.033.084.08.165.142.244l.922.463.017.098-.966.069a1.6 1.6 0 01-.311-.517 3.263 3.263 0 01-.195-.687zm1.408 4.62a2.102 2.102 0 01-.16-.767c.002-.254.046-.493.134-.718.09-.226.224-.428.398-.605.175-.173.39-.31.641-.411a1.92 1.92 0 01.748-.147 1.86 1.86 0 011.293.59c.176.183.316.404.42.663a2.029 2.029 0 01.024 1.491 1.71 1.71 0 01-.395.598 1.854 1.854 0 01-.64.417 1.855 1.855 0 01-1.453-.016 1.968 1.968 0 01-.595-.431 2.1 2.1 0 01-.415-.664zm.298-.043a.541.541 0 00.313.308c.153.065.338.09.557.072.222-.018.468-.08.737-.189.327-.13.596-.282.808-.455.212-.172.359-.347.441-.527a.616.616 0 00.032-.51.553.553 0 00-.313-.308 1.182 1.182 0 00-.56-.078 2.5 2.5 0 00-.731.187 3.175 3.175 0 00-.813.457 1.63 1.63 0 00-.444.534.635.635 0 00-.027.51zm1.138 2.909l.071-.05.47.27 2.46-1.709-.09-.534.072-.05.682.98-.628 3.072 1.6-1.113-.196-.688.072-.05.88 1.266-.073.05-.463-.261-2.744 1.907-.248-.357.682-3.437-1.786 1.24.197.689-.073.05-.886-1.275zm3.297 4.302l.06-.065.516.165 2.041-2.191-.2-.504.06-.064 2.303 2.147-.652.7-.065-.06.157-.75-.826-.768-.908.974.54.503.571-.13.065.061-.822.882-.064-.06.08-.572-.54-.502-.975 1.047.286.582-.06.064-1.567-1.46zm3.468 2.946l.048-.074.537.075 1.64-2.507-.284-.461.048-.074 1.696 1.109-.048.074-.537-.075-1.64 2.506.284.462-.048.074-1.696-1.11zm2.98 1.837l.034-.081.54-.028 1.14-2.77-.365-.4.033-.081 1.894.779c.421.173.75.386.988.638.24.254.39.528.448.821.061.295.032.589-.088.88a1.949 1.949 0 01-.45.673c-.19.184-.41.32-.661.407a2.124 2.124 0 01-.794.12 2.459 2.459 0 01-.86-.194l-1.859-.764zm2.891-2.412l-.203-.084-1.152 2.8.28.115c.38.157.722.15 1.026-.018.305-.172.544-.47.719-.895.177-.431.214-.815.11-1.151-.099-.339-.359-.594-.78-.767zm2.218 4.248l.015-.087.522-.145.51-2.951-.444-.311.015-.087 3.157.544-.163.944-.086-.015-.334-.722-1.112-.192-.222 1.286.781.135.408-.422.087.015-.214 1.243-.087-.015-.245-.523-.781-.135-.242 1.4 1.226.212.637-.807.087.015-.205 1.188-3.31-.57zm4.849.646l-.004-.088.478-.255-.146-2.992-.5-.207-.005-.088 1.194-.058 2.271 2.16-.095-1.946-.687-.198-.005-.088 1.54-.075.004.088-.467.254.163 3.338-.434.02-2.554-2.399.106 2.172.688.198.004.088-1.55.076zm6.064-.692l-.023-.085.522-.383-.798-2.904-.69.19-.21 1.063-.085.023-.337-1.226 3.492-.96.337 1.226-.084.023-.724-.806-.69.19.798 2.904.645.062.023.085-2.176.598zm3.933-1.318l-.039-.08.343-.42-1.29-2.702-.541.002-.038-.08 1.828-.872.038.08-.343.42 1.29 2.703.542-.003.038.08-1.829.872zm3.015-1.529l-.051-.072.15-.347-.806-3.592.512-.372 3.153 1.887.421-.067.052.071-1.604 1.165-.052-.071.264-.444-.784-.478-1.038.753.213.893.486-.1.051.071-.967.702zm.142-1.886l.833-.605-1.136-.693.303 1.298zM48.536 49l-.066-.06.158-.518-2.221-2.01-.5.209-.066-.06 1.396-1.542.066.059-.194.559 2.233 2.02.757-.836-.5-1.121.059-.066 1.057.957-2.18 2.408zm2.894-3.512l-.074-.047.067-.538-2.53-1.602-.457.29-.075-.047 1.085-1.712.074.047-.067.538 2.53 1.603.458-.29.074.047-1.084 1.711zm2.029-3.63l-.082-.033.015-.649-2.788-1.139-.27.663.713.815-.033.081-1.177-.48 1.37-3.354 1.177.481-.033.082-1.08.082-.27.662 2.787 1.14.443-.474.081.033-.853 2.09zm1.577-4.929l-.087-.015-.143-.523-1.355-.239-1.8.89-.297.35-.087-.015.337-1.914.087.016.138.454.022.004 1.41-.707-1.09-1.048-.021-.003-.3.394-.086-.015.227-1.29.087.015.113.405 1.441 1.434 1.356.239.313-.443.086.016-.351 1.995z" fill="#1A58E1"/><path fill-rule="evenodd" clip-rule="evenodd" d="M32 49.548c9.692 0 17.548-7.857 17.548-17.548 0-9.692-7.856-17.549-17.548-17.549-9.692 0-17.548 7.857-17.548 17.549 0 9.691 7.856 17.548 17.548 17.548zm8.23-24.928c.251.07.437.281.473.539.047.334 1.113 8.238-1.62 12.17-2.731 3.928-6.759 4.934-6.93 4.975a.66.66 0 01-.307 0c-.17-.04-4.198-1.047-6.928-4.974-2.733-3.933-1.668-11.837-1.621-12.171a.653.653 0 01.473-.539l8.055-2.23a.656.656 0 01.35 0l8.055 2.23zM31.7 35.244l5.494-5.47a.65.65 0 000-.923l-.674-.672a.656.656 0 00-.926 0l-4.357 4.339-2.26-2.25a.657.657 0 00-.925 0l-.675.671a.65.65 0 000 .923l3.397 3.382a.654.654 0 00.926 0z" fill="#1A58E1"/></svg>