<svg width="64" height="64" fill="none" xmlns="http://www.w3.org/2000/svg"><path d="M32 50.372c7.13 0 13.335-3.895 16.516-9.635H15.484c3.185 5.74 9.386 9.635 16.516 9.635zm5.003-6.44l.566-1.123.566 1.124 1.262.18-.914.871.214 1.234-1.128-.582-1.129.582.215-1.234-.914-.872 1.262-.18zm-5.734.96l.735-1.459.734 1.458 1.642.235-1.188 1.134.281 1.602-1.47-.758-1.469.758.281-1.602-1.188-1.134 1.642-.235zm-5.4-.96l.566-1.123.566 1.124 1.262.18-.914.871.214 1.234-1.128-.582-1.129.582.215-1.234-.914-.872 1.262-.18zM32 13.837c-7.13 0-13.334 3.896-16.516 9.634h33.032c-3.181-5.738-9.383-9.634-16.516-9.634zm-5 6.58l-.565 1.123-.566-1.124-1.262-.18.914-.872-.215-1.234 1.129.583 1.128-.583-.214 1.235.914.872-1.262.18zm5.735-.956L32 20.92l-.735-1.459-1.642-.234 1.189-1.135-.282-1.603 1.47.758 1.47-.758-.282 1.603 1.188 1.135-1.641.234zm5.396.955l-.566 1.124L37 20.416l-1.262-.18.914-.872-.214-1.234 1.128.583 1.129-.583-.215 1.235.914.872-1.262.18z" fill="#1A58E1"/><path d="M3.166 41.712c.336 1.079.564 2.259.781 3.403.428 2.233.865 4.54 2.161 6.388 1.31 1.863 3.293 3.01 5.212 4.118 1.023.592 1.99 1.148 2.861 1.805.859.646 1.657 1.42 2.501 2.24 1.611 1.562 3.278 3.174 5.425 3.897 2.056.694 4.29.418 6.455.149 1.139-.142 2.312-.287 3.436-.287 1.125 0 2.301.145 3.436.287 1.152.142 2.322.287 3.478.287 1.016 0 2.014-.113 2.977-.436 2.144-.723 3.81-2.335 5.425-3.897.844-.82 1.643-1.59 2.501-2.24.872-.657 1.839-1.217 2.862-1.805 1.919-1.108 3.905-2.252 5.211-4.118 1.296-1.849 1.738-4.155 2.165-6.388.217-1.144.445-2.324.78-3.403.32-1.024.778-2.034 1.262-3.105C63.033 36.53 64 34.38 64 31.997c0-2.385-.97-4.532-1.905-6.609-.484-1.071-.939-2.08-1.261-3.105-.336-1.079-.564-2.259-.781-3.403-.427-2.233-.865-4.54-2.161-6.388-1.31-1.863-3.293-3.01-5.212-4.114-1.023-.592-1.99-1.148-2.861-1.805-.858-.646-1.657-1.42-2.501-2.24C45.707 2.77 44.04 1.157 41.893.435c-2.056-.694-4.29-.414-6.455-.15-1.139.142-2.312.288-3.436.288-1.125 0-2.301-.146-3.436-.287-2.165-.269-4.4-.541-6.455.149-2.147.722-3.81 2.335-5.425 3.896-.845.817-1.643 1.59-2.501 2.24-.872.658-1.839 1.218-2.862 1.806-1.919 1.107-3.905 2.251-5.211 4.114-1.296 1.849-1.737 4.155-2.165 6.388-.217 1.144-.445 2.325-.78 3.403-.32 1.024-.778 2.034-1.262 3.105C.967 27.465 0 29.615 0 31.998c0 2.385.97 4.532 1.905 6.609.484 1.075.942 2.084 1.261 3.105zm-.112-15.765c.48-1.06.974-2.153 1.317-3.253.36-1.152.595-2.372.82-3.556.416-2.19.812-4.256 1.943-5.868 1.146-1.631 2.921-2.655 4.802-3.74 1.012-.586 2.056-1.188 2.991-1.893.921-.694 1.783-1.533 2.62-2.342 1.51-1.464 3.072-2.978 4.95-3.61 1.789-.603 3.792-.356 5.911-.095 1.174.146 2.385.295 3.587.295 1.198 0 2.413-.15 3.586-.295 2.12-.261 4.123-.508 5.912.095 1.878.632 3.44 2.146 4.95 3.61.836.81 1.702 1.648 2.62 2.342.934.705 1.978 1.307 2.99 1.892 1.881 1.086 3.66 2.11 4.802 3.74 1.131 1.613 1.527 3.68 1.944 5.87.224 1.18.459 2.403.82 3.555.343 1.1.837 2.193 1.316 3.253.88 1.947 1.787 3.962 1.787 6.054s-.907 4.108-1.787 6.054c-.48 1.06-.973 2.154-1.317 3.254-.36 1.151-.595 2.371-.82 3.555-.416 2.19-.812 4.256-1.943 5.869-1.145 1.63-2.921 2.655-4.802 3.74-1.012.585-2.056 1.188-2.99 1.892-.922.694-1.787 1.533-2.62 2.343-1.51 1.463-3.072 2.974-4.95 3.606-1.79.603-3.793.356-5.912.094-1.173-.145-2.388-.294-3.586-.294s-2.413.149-3.587.294c-2.119.262-4.122.509-5.912-.094-1.877-.632-3.44-2.146-4.949-3.606-.837-.81-1.702-1.649-2.62-2.343-.935-.704-1.979-1.307-2.99-1.892-1.881-1.085-3.66-2.113-4.803-3.74-1.13-1.613-1.527-3.679-1.943-5.869-.225-1.18-.46-2.404-.82-3.555-.343-1.1-.837-2.194-1.317-3.254-.879-1.947-1.786-3.962-1.786-6.054s.907-4.107 1.786-6.054z" fill="#1A58E1"/><path d="M6.591 40.247c.308.946.51 1.973.71 2.968.373 1.882.758 3.831 1.869 5.36 1.122 1.544 2.862 2.508 4.54 3.444.88.492 1.792.999 2.588 1.578.783.57 1.538 1.275 2.265 1.953 1.411 1.316 2.869 2.678 4.71 3.275 1.761.573 3.722.339 5.616.112 1.023-.122 2.082-.248 3.11-.248 1.027 0 2.082.126 3.11.248 1.016.122 2.047.245 3.06.245.878 0 1.737-.091 2.551-.357 1.842-.597 3.303-1.959 4.714-3.275.73-.681 1.482-1.383 2.265-1.953.796-.58 1.708-1.086 2.589-1.578 1.68-.936 3.417-1.9 4.539-3.443 1.111-1.526 1.5-3.475 1.87-5.357.195-.996.401-2.022.709-2.969.293-.9.702-1.78 1.139-2.71.821-1.753 1.67-3.565 1.67-5.542 0-1.973-.849-3.785-1.67-5.538-.437-.933-.85-1.81-1.14-2.71-.307-.947-.51-1.974-.709-2.969-.373-1.882-.758-3.83-1.869-5.36-1.122-1.544-2.862-2.508-4.54-3.444-.88-.489-1.792-.998-2.588-1.575-.783-.569-1.538-1.274-2.265-1.952-1.411-1.316-2.869-2.678-4.714-3.275-1.76-.573-3.721-.34-5.612-.112-1.023.122-2.086.248-3.11.248-1.023 0-2.082-.126-3.11-.248-1.893-.227-3.85-.458-5.611.112-1.842.597-3.303 1.959-4.71 3.275-.731.681-1.482 1.383-2.265 1.952-.797.58-1.709 1.087-2.59 1.575-1.68.936-3.417 1.9-4.539 3.444-1.11 1.526-1.499 3.474-1.869 5.36-.196.995-.402 2.022-.71 2.969-.293.9-.702 1.78-1.139 2.71-.82 1.753-1.67 3.565-1.67 5.542 0 1.973.85 3.785 1.67 5.542.43.925.843 1.802 1.136 2.703zM5.847 26.64c.423-.9.86-1.833 1.16-2.762.314-.971.52-2.012.72-3.017.363-1.837.74-3.737 1.796-5.186 1.066-1.464 2.76-2.406 4.4-3.318.894-.496 1.816-1.01 2.634-1.606.804-.587 1.569-1.3 2.306-1.987 1.377-1.286 2.8-2.613 4.55-3.182 1.67-.541 3.494-.325 5.427-.094 1.037.122 2.11.251 3.162.251s2.124-.129 3.159-.251c1.932-.23 3.756-.447 5.426.094 1.751.57 3.173 1.896 4.55 3.182.737.688 1.503 1.403 2.306 1.987.818.593 1.74 1.107 2.635 1.606 1.639.912 3.334 1.854 4.4 3.318 1.055 1.449 1.432 3.349 1.796 5.186.199 1.005.405 2.046.72 3.017.3.925.737 1.858 1.16 2.762.8 1.711 1.628 3.478 1.628 5.354 0 1.875-.828 3.646-1.628 5.353-.423.901-.86 1.834-1.16 2.763-.315.97-.521 2.011-.72 3.017-.364 1.837-.741 3.736-1.796 5.186-1.066 1.463-2.761 2.406-4.4 3.317-.894.496-1.817 1.01-2.635 1.607-.803.586-1.569 1.299-2.306 1.987-1.377 1.285-2.799 2.612-4.55 3.181-1.67.541-3.494.325-5.426.095-1.038-.123-2.11-.252-3.159-.252-1.048 0-2.125.13-3.159.252-1.932.23-3.756.447-5.427-.095-1.75-.566-3.172-1.896-4.55-3.181-.737-.688-1.502-1.404-2.305-1.987-.818-.594-1.74-1.107-2.635-1.607-1.64-.911-3.334-1.854-4.4-3.317-1.055-1.45-1.432-3.35-1.796-5.186-.199-1.006-.405-2.047-.72-3.017-.3-.926-.737-1.858-1.16-2.763-.8-1.71-1.628-3.478-1.628-5.353-.004-1.876.825-3.643 1.625-5.354z" fill="#1A58E1"/><path d="M32.172 56.43c13.374 0 24.258-10.88 24.258-24.258 0-13.377-10.88-24.258-24.258-24.258-13.377 0-24.258 10.88-24.258 24.258 0 13.377 10.884 24.258 24.258 24.258zm0-44.954c11.414 0 20.696 9.283 20.696 20.696 0 11.414-9.282 20.696-20.696 20.696-11.413 0-20.696-9.282-20.696-20.696 0-11.413 9.286-20.696 20.696-20.696z" fill="#1A58E1"/><path d="M14.796 30.229v-.081l.48-.213v-2.752l-.48-.213v-.08h3.142v.88h-.086l-.443-.602h-1.107v1.199h.778l.324-.445h.086v1.158h-.086l-.324-.435h-.778v1.306h1.22l.481-.83h.086v1.108h-3.293zm3.674 0v-.081l.448-.207 1.101-1.23-1.123-1.538-.372-.203v-.08h2.062v.08l-.42.208v.025l.652.875.75-.875v-.02l-.431-.213v-.08h1.355v.08l-.378.177-1.096 1.195 1.193 1.593.395.213v.08h-2.09v-.08l.389-.197v-.02l-.68-.937-.821.926-.016.02.431.208v.08h-1.35zm6.227.051a2.39 2.39 0 01-.793-.127 1.931 1.931 0 01-.621-.354 1.673 1.673 0 01-.405-.526 1.548 1.548 0 01-.14-.658c0-.26.057-.498.172-.714.115-.216.27-.403.464-.561.195-.159.414-.282.66-.37.244-.087.496-.131.755-.131.194 0 .354.01.48.03.13.02.243.049.34.086.101.037.204.08.308.127l.081.981h-.097l-.637-.89a.944.944 0 00-.427-.081.812.812 0 00-.523.187 1.25 1.25 0 00-.367.531c-.09.23-.135.503-.135.82 0 .28.043.523.13.729.086.205.204.364.356.475a.852.852 0 00.518.167c.09 0 .178-.008.265-.025a.992.992 0 00.259-.091l.599-.764h.097l-.092.885c-.136.088-.32.155-.55.203-.227.047-.46.07-.697.07zm1.799-.051v-.081l.48-.213v-2.752l-.48-.213v-.08h3.142v.88h-.086l-.443-.602h-1.107v1.199h.778l.324-.445h.086v1.158h-.086l-.324-.435h-.778v1.306h1.22l.481-.83h.087v1.108h-3.294zm3.781 0v-.081l.48-.213v-2.752l-.48-.213v-.08h2.04v.08l-.534.213v2.768h1.107l.486-1.033h.086v1.31h-3.185zm3.563 0v-.081l.481-.213v-2.752l-.48-.213v-.08h2.04v.08l-.534.213v2.768h1.107l.486-1.033h.087v1.31H33.84zm3.565 0v-.081l.48-.213v-2.752l-.48-.213v-.08h3.143v.88h-.087l-.442-.602h-1.107v1.199h.777l.324-.445h.087v1.158h-.087l-.324-.435h-.777v1.306h1.22l.48-.83h.087v1.108h-3.294zm3.781 0v-.081l.48-.213v-2.752l-.48-.213v-.08h1.171l2.122 2.084v-1.791l-.664-.213v-.08h1.512v.08l-.47.213v3.071h-.426l-2.387-2.317v1.998l.664.213v.08h-1.522zm5.135 0v-.081l.594-.213v-2.767h-.702l-.475.89h-.086V26.89h3.553v1.17h-.087l-.475-.892h-.702v2.768l.594.213v.08h-2.214zm-23.869 7.276c-.187 0-.381-.027-.583-.08a2.988 2.988 0 01-.652-.26 5.196 5.196 0 01-.76-.496 1.872 1.872 0 01-.793-.324 1.84 1.84 0 01-.545-.631 1.846 1.846 0 01-.194-.847c0-.266.046-.511.14-.734a1.82 1.82 0 011.008-.96c.23-.094.482-.14.756-.14.273 0 .524.046.755.14.233.09.436.217.609.383.173.162.306.354.4.577.096.223.145.468.145.734a1.809 1.809 0 01-.583 1.349 1.76 1.76 0 01-.636.372c.295.266.541.444.739.534.198.094.368.14.512.14a.907.907 0 00.216-.021c.06-.01.111-.022.15-.032v.15a1.676 1.676 0 01-.28.098 1.429 1.429 0 01-.404.048zm-1.553-1.09a.53.53 0 00.393-.172 1.16 1.16 0 00.27-.48 2.51 2.51 0 00.097-.74c0-.345-.04-.645-.118-.9-.08-.256-.186-.454-.319-.594a.604.604 0 00-.453-.216.542.542 0 00-.393.172 1.159 1.159 0 00-.276.48c-.064.206-.097.45-.097.734 0 .346.04.648.12.907.082.255.19.455.323.599a.62.62 0 00.453.21zm4.375.286c-.341 0-.64-.052-.895-.156a1.185 1.185 0 01-.593-.523c-.14-.245-.21-.58-.21-1.004v-1.619l-.486-.227v-.086h1.996v.087l-.486.226v1.684c0 .295.045.527.135.696a.832.832 0 00.367.356c.154.068.325.102.512.102.158 0 .306-.03.442-.091a.745.745 0 00.335-.308c.086-.144.13-.333.13-.566v-1.884l-.486-.215v-.087h1.348v.087l-.485.22v1.625c0 .424-.067.759-.2 1.004a1.144 1.144 0 01-.566.523 2.18 2.18 0 01-.858.156zm2.059-.054v-.086l.318-.189 1.429-3.313h.62l1.413 3.313.372.19v.085h-1.941v-.086l.463-.2-.345-.83h-1.256l-.345.83.442.2v.086h-1.17zm1.197-1.413h1.008l-.501-1.203-.507 1.203zm3.171 1.413v-.086l.48-.227V33.4l-.48-.227v-.086h2.039v.087l-.534.226v2.952h1.105l.486-1.101h.086v1.397h-3.182zm3.56 0v-.086l.48-.227V33.4l-.48-.227v-.086h1.985v.087l-.48.226v2.935l.48.227v.086h-1.985zm2.976 0v-.086l.593-.227v-2.951h-.7l-.475.95h-.087v-1.247h3.549v1.247h-.086l-.475-.95h-.701v2.951l.593.227v.086h-2.211zm4.168 0v-.086l.48-.227v-1.349L41.72 33.4l-.389-.227v-.086h1.904v.087l-.415.21v.021l.922 1.242.825-1.23v-.022l-.431-.221v-.087h1.283v.087l-.372.178-1.138 1.635v1.349l.48.226v.086h-1.984z" fill="#1A58E1"/></svg>