<svg width="16" height="18" fill="none" xmlns="http://www.w3.org/2000/svg"><path d="M15.783 2.52a.588.588 0 00-.424-.487L8.157.022a.583.583 0 00-.314 0L.641 2.033a.587.587 0 00-.424.486c-.041.302-.994 7.431 1.45 10.978 2.442 3.542 6.043 4.45 6.195 4.487a.58.58 0 00.276 0c.152-.037 3.754-.945 6.195-4.487 2.444-3.547 1.491-10.676 1.45-10.978zm-3.138 4.16l-4.913 4.935a.583.583 0 01-.828 0l-3.038-3.05a.59.59 0 010-.832l.603-.606c.229-.23.6-.23.828 0l2.02 2.03 3.896-3.913a.584.584 0 01.829 0l.603.605a.59.59 0 010 .832z" fill="#FF7B38"/></svg>