<svg width="571" height="335" fill="none" xmlns="http://www.w3.org/2000/svg"><g clip-path="url(#clip0)"><path d="M145.229 243.867h-20.001v35.158H76.777v-35.158H4.349v-36.028L79.883 97.396h45.345v109.822h20.001v36.649zm-68.452-36.649v-21.119c0-3.976.124-9.318.373-16.027.33-6.791.58-10.352.745-10.683h-1.367c-2.816 6.377-6.004 12.34-9.566 17.889l-20.126 29.94h29.94zm489.958 36.649h-20.002v35.158h-48.451v-35.158h-72.428v-36.028l75.534-110.443h45.345v109.822h20.002v36.649zm-68.453-36.649v-21.119c0-3.976.125-9.318.373-16.027.331-6.791.58-10.352.746-10.683h-1.367c-2.816 6.377-6.005 12.34-9.566 17.889l-20.125 29.94h29.939z" fill="#fff"/><path d="M319.179 275.743l.132 25.6h-10.928l-3.693-25.6h14.489zm-69.326 0l-2.579 25.6h10.919l6.149-25.6h-14.489z" fill="#FEC9CF"/><path d="M259.563 153.256l-14.055 135.282 19.079 2.237 23.139-102.945 14.905 102.945 20.561-2.954-14.215-134.565h-49.414z" fill="#212A6B"/><path d="M268.28 286.689l-.879 4.463a1.408 1.408 0 01-1.558 1.123l-21.326-2.831a1.405 1.405 0 01-1.21-1.481l.293-4.303a1.383 1.383 0 01.966-1.252c.18-.058.368-.078.555-.06l21.921 2.68a1.399 1.399 0 011.238 1.661zm31.489-.708l.878 4.463a1.403 1.403 0 001.558 1.123l21.317-2.83a1.39 1.39 0 001.209-1.482l-.283-4.303a1.4 1.4 0 00-1.005-1.247 1.374 1.374 0 00-.563-.045l-21.912 2.708a1.398 1.398 0 00-1.179 1.056 1.395 1.395 0 00-.02.557z" fill="#283577"/><path d="M360.867 167.924c0 58.857-37.642 98.804-75.481 98.804-37.839 0-75.481-39.947-75.481-98.804s37.642-98.804 75.481-98.804c37.839 0 75.481 39.947 75.481 98.804z" stroke="#fff" stroke-width="47"/><g filter="url(#filter0_d)"><path d="M322.37 96.689s5.667 14.493 6.394 15.003c.728.509 15.027-15.38 17.614-19.938.529-4.794 3.929-8.55 4.912-13.73.472-2.49 1.568-1.406 1.776.623a10.837 10.837 0 01-.51 4.057s6.903-1.622 10.455-1.726a20.12 20.12 0 016.782 1.113s3.249.944 3.352 1.425c.104.481-1.114 1.519-4.968 1.415-3.853-.104-3.957 1.057-6.432 1.623-2.682.614-6.016 3.067-8.17 6.341-2.606 3.963-7.659 15.966-12.892 23.873-5.232 7.907-12.826 16.475-18.436 8.898a112.716 112.716 0 01-12.165-21.523l12.288-7.454z" fill="#FFCAD0"/><path d="M314.767 76.231s7.046 10.626 9.889 22.996c0 0-4.052 6.775-15.112 8.756 0 0-7.103-21.485 5.223-31.752z" fill="#F4A258"/><path d="M307.202 295.983s-4.722 7.653-1.181 9.011c3.543 1.359 26.984 1.491 32.765.624 5.78-.869-12.902-8.786-17.161-10.022-4.26-1.236-5.667 5.247-14.423.387zm-47.819 0s4.722 7.653 1.18 9.011c-3.541 1.359-26.993 1.491-32.773.624-5.78-.869 12.902-8.786 17.18-10.022 4.279-1.236 5.648 5.247 14.413.387z" fill="#FEB161"/><path d="M259.563 153.256L251.462 224l25.038 14.5 11.227-50.67 6.773 50.67L316 220l-7.022-66.744h-49.415z" fill="#212A6B"/><path d="M287.727 187.829l5.119-19.031-1.842 41.724-3.277-22.693z" fill="#222259"/><path d="M285.431 22.22c4.373-.886 8.671 1.935 13.119 1.973 1.756 0 3.485-.406 5.242-.463a6.27 6.27 0 014.864 1.623c1.417 1.51 1.577 3.869 1.331 5.973a20.148 20.148 0 01-7.432 13.37c-1.738 1.35-3.845 2.426-5.998 2.162a10.947 10.947 0 01-4.722-2.227c-4.544-3.124-9.474-6.54-12.364-11.512-2.54-4.397 1.597-10.011 5.96-10.898z" fill="#2D2056"/><path d="M255.255 94.707l-13.912 21.703s-27.73-1.765-31.092-1.756c-3.363.009-8.501-2.283-8.501-1.443 0 .839 1.162 3 4.345 3.67a90.693 90.693 0 00-7.575 5.19c-1.747 1.575-3.391 6.19-3.457 8.152-.065 1.963 7.717-2.076 10.975-4.312 3.259-2.236 4.827-5.18 8.01-4.095s29.949 9.096 32.858 6.992c2.909-2.104 19.117-25.175 19.117-25.175s-7.273-7.417-10.768-8.926z" fill="#FFCAD0"/><path d="M261.744 74.495s10.068-8.568 26.946-7.907c16.878.66 27.032 7.294 26.219 11.134-.812 3.84-8.32 38.527-6.696 54.539 1.625 16.013 7.745 22.797-3.231 23.411-10.974.614-44.107 1.028-45.628-1.104-1.52-2.133 4.421-32.95 4.421-44.198 0-11.247-5.582-28.873-2.031-35.875z" fill="#FEB161"/><path d="M283.306 58.898s-17.208-15.72-9.747-27.28c7.462-11.558 15.301.52 15.301.52s3.315 19.824-5.554 26.76z" fill="#2D2056"/><path d="M298.135 47.528l-.794 15.323-.274 4.388a6.998 6.998 0 01-2.18 4.69 7.003 7.003 0 01-11.328-2.525 7.003 7.003 0 01-.48-2.731l.19-7.804.34-12.965 14.526 1.623z" fill="#FEC9CF"/><path d="M298.135 50.594l-.793 14.437c-6.801.274-11.759-2.482-14.035-6.162l.34-9.879 14.488 1.604z" fill="#EE84AA"/><path d="M303.527 38.724a52.54 52.54 0 01-.198 10.52c-.822 6.398-.519 13.9-9.955 14.4-10.068.538-13.392-10.71-13.392-10.71s-5.346-1-5.667-4.604c-.322-3.605 3.372-3.822 4.59-2.831 0 0 1.379-13.456 13.827-13.456 10.946.029 10.795 6.68 10.795 6.68z" fill="#FFCAD0"/><path d="M291.741 49.226a1 1 0 01-1.709.707.988.988 0 01-.274-.512.986.986 0 01.057-.578 1.001 1.001 0 01.924-.617 1.014 1.014 0 011.002 1zm9.01 0a.999.999 0 01-1.708.707.988.988 0 01-.274-.512.994.994 0 01.425-1.027 1.001 1.001 0 011.557.832z" fill="#171D51"/><path d="M287.112 45.763a4.05 4.05 0 014.628-1.557m5.422-.038a3.178 3.178 0 012.293-.835 3.189 3.189 0 012.212 1.034" stroke="#171D51" stroke-width="1.15" stroke-linecap="round" stroke-linejoin="round"/><path d="M295.179 46.64s1.076 2.746 1.993 4.454c.916 1.708-1.795 2.472-1.795 2.472m-3.816 3.076a4.722 4.722 0 005.072.84m-16.765-7.124s0-3.095-2.343-2.255" stroke="#EE84AA" stroke-width=".86" stroke-linecap="round" stroke-linejoin="round"/><path d="M279.547 46.584s7.801-3.435 5.818-12.267c0 0-5.176-7.954-9.587-5.048-4.41 2.906 3.769 17.315 3.769 17.315z" fill="#2D2056"/><path d="M245.82 105.511s6.291 6.69 13.705 9.728c0 0 6.375-8.917 8.207-15.003 1.833-6.086-1.983-24.325-4.42-26.354s-13.534 22.505-17.492 31.629z" fill="#FEB161"/><path d="M291.561 35.336c2.276.52 4.222 2.19 6.299 3.378 2.078 1.19 4.723 1.888 6.612.444 1.795-1.312 2.531-4.142 2.031-6.558a9.239 9.239 0 00-3.873-5.662 15.928 15.928 0 00-5.997-2.245 19.95 19.95 0 00-8.217-.18c-2.418.548-9.218 3.878-7.82 8.087.529 1.595 2.729 2.057 3.966 2.33 2.343.548 4.694-.122 6.999.406z" fill="#2D2056"/></g></g><defs><clipPath id="clip0"><path fill="#fff" d="M0 0h570.772v335H0z"/></clipPath><filter id="filter0_d" x="165.062" y="-3.952" width="238.089" height="344.117" filterUnits="userSpaceOnUse" color-interpolation-filters="sRGB"><feFlood flood-opacity="0" result="BackgroundImageFix"/><feColorMatrix in="SourceAlpha" values="0 0 0 0 0 0 0 0 0 0 0 0 0 0 0 0 0 0 127 0"/><feOffset dy="4"/><feGaussianBlur stdDeviation="15"/><feColorMatrix values="0 0 0 0 0 0 0 0 0 0 0 0 0 0 0 0 0 0 0.15 0"/><feBlend in2="BackgroundImageFix" result="effect1_dropShadow"/><feBlend in="SourceGraphic" in2="effect1_dropShadow" result="shape"/></filter></defs></svg>