<svg width="1366" height="310" viewBox="0 0 1366 310" fill="none" xmlns="http://www.w3.org/2000/svg">
<g clip-path="url(#clip0)">
<path d="M1368 0H-1V212H1368V0Z" fill="#224982"/>
<mask id="mask0" mask-type="alpha" maskUnits="userSpaceOnUse" x="151" y="0" width="1160" height="186">
<path d="M1311 0H151V186H1311V0Z" fill="#224982"/>
</mask>
<g mask="url(#mask0)">
<path d="M943.964 8.23365C944.496 8.23365 944.927 7.80227 944.927 7.27014C944.927 6.73802 944.496 6.30664 943.964 6.30664C943.432 6.30664 943 6.73802 943 7.27014C943 7.80227 943.432 8.23365 943.964 8.23365Z" fill="#C1C1C1"/>
<path d="M943.964 17.387C944.496 17.387 944.927 16.9556 944.927 16.4235C944.927 15.8913 944.496 15.46 943.964 15.46C943.432 15.46 943 15.8913 943 16.4235C943 16.9556 943.432 17.387 943.964 17.387Z" fill="#C1C1C1"/>
<path d="M943.964 26.5403C944.496 26.5403 944.927 26.1089 944.927 25.5768C944.927 25.0447 944.496 24.6133 943.964 24.6133C943.432 24.6133 943 25.0447 943 25.5768C943 26.1089 943.432 26.5403 943.964 26.5403Z" fill="#C1C1C1"/>
<path d="M943.964 35.6936C944.496 35.6936 944.927 35.2622 944.927 34.7301C944.927 34.198 944.496 33.7666 943.964 33.7666C943.432 33.7666 943 34.198 943 34.7301C943 35.2622 943.432 35.6936 943.964 35.6936Z" fill="#C1C1C1"/>
<path d="M953.117 8.23365C953.649 8.23365 954.081 7.80227 954.081 7.27014C954.081 6.73802 953.649 6.30664 953.117 6.30664C952.585 6.30664 952.154 6.73802 952.154 7.27014C952.154 7.80227 952.585 8.23365 953.117 8.23365Z" fill="#C1C1C1"/>
<path d="M953.117 17.387C953.649 17.387 954.081 16.9556 954.081 16.4235C954.081 15.8913 953.649 15.46 953.117 15.46C952.585 15.46 952.154 15.8913 952.154 16.4235C952.154 16.9556 952.585 17.387 953.117 17.387Z" fill="#C1C1C1"/>
<path d="M953.117 26.5403C953.649 26.5403 954.081 26.1089 954.081 25.5768C954.081 25.0447 953.649 24.6133 953.117 24.6133C952.585 24.6133 952.154 25.0447 952.154 25.5768C952.154 26.1089 952.585 26.5403 953.117 26.5403Z" fill="#C1C1C1"/>
<path d="M953.117 35.6936C953.649 35.6936 954.081 35.2622 954.081 34.7301C954.081 34.198 953.649 33.7666 953.117 33.7666C952.585 33.7666 952.154 34.198 952.154 34.7301C952.154 35.2622 952.585 35.6936 953.117 35.6936Z" fill="#C1C1C1"/>
<path d="M962.27 8.23365C962.802 8.23365 963.234 7.80227 963.234 7.27014C963.234 6.73802 962.802 6.30664 962.27 6.30664C961.738 6.30664 961.307 6.73802 961.307 7.27014C961.307 7.80227 961.738 8.23365 962.27 8.23365Z" fill="#C1C1C1"/>
<path d="M962.27 17.387C962.802 17.387 963.234 16.9556 963.234 16.4235C963.234 15.8913 962.802 15.46 962.27 15.46C961.738 15.46 961.307 15.8913 961.307 16.4235C961.307 16.9556 961.738 17.387 962.27 17.387Z" fill="#C1C1C1"/>
<path d="M962.27 26.5403C962.802 26.5403 963.234 26.1089 963.234 25.5768C963.234 25.0447 962.802 24.6133 962.27 24.6133C961.738 24.6133 961.307 25.0447 961.307 25.5768C961.307 26.1089 961.738 26.5403 962.27 26.5403Z" fill="#C1C1C1"/>
<path d="M962.27 35.6936C962.802 35.6936 963.234 35.2622 963.234 34.7301C963.234 34.198 962.802 33.7666 962.27 33.7666C961.738 33.7666 961.307 34.198 961.307 34.7301C961.307 35.2622 961.738 35.6936 962.27 35.6936Z" fill="#C1C1C1"/>
<path d="M971.423 8.23365C971.955 8.23365 972.386 7.80227 972.386 7.27014C972.386 6.73802 971.955 6.30664 971.423 6.30664C970.891 6.30664 970.459 6.73802 970.459 7.27014C970.459 7.80227 970.891 8.23365 971.423 8.23365Z" fill="#C1C1C1"/>
<path d="M971.423 17.387C971.955 17.387 972.386 16.9556 972.386 16.4235C972.386 15.8913 971.955 15.46 971.423 15.46C970.891 15.46 970.459 15.8913 970.459 16.4235C970.459 16.9556 970.891 17.387 971.423 17.387Z" fill="#C1C1C1"/>
<path d="M971.423 26.5403C971.955 26.5403 972.386 26.1089 972.386 25.5768C972.386 25.0447 971.955 24.6133 971.423 24.6133C970.891 24.6133 970.459 25.0447 970.459 25.5768C970.459 26.1089 970.891 26.5403 971.423 26.5403Z" fill="#C1C1C1"/>
<path d="M971.423 35.6936C971.955 35.6936 972.386 35.2622 972.386 34.7301C972.386 34.198 971.955 33.7666 971.423 33.7666C970.891 33.7666 970.459 34.198 970.459 34.7301C970.459 35.2622 970.891 35.6936 971.423 35.6936Z" fill="#C1C1C1"/>
<path d="M980.577 8.23365C981.109 8.23365 981.541 7.80227 981.541 7.27014C981.541 6.73802 981.109 6.30664 980.577 6.30664C980.045 6.30664 979.614 6.73802 979.614 7.27014C979.614 7.80227 980.045 8.23365 980.577 8.23365Z" fill="#C1C1C1"/>
<path d="M980.577 17.387C981.109 17.387 981.541 16.9556 981.541 16.4235C981.541 15.8913 981.109 15.46 980.577 15.46C980.045 15.46 979.614 15.8913 979.614 16.4235C979.614 16.9556 980.045 17.387 980.577 17.387Z" fill="#C1C1C1"/>
<path d="M980.577 26.5403C981.109 26.5403 981.541 26.1089 981.541 25.5768C981.541 25.0447 981.109 24.6133 980.577 24.6133C980.045 24.6133 979.614 25.0447 979.614 25.5768C979.614 26.1089 980.045 26.5403 980.577 26.5403Z" fill="#C1C1C1"/>
<path d="M980.577 35.6936C981.109 35.6936 981.541 35.2622 981.541 34.7301C981.541 34.198 981.109 33.7666 980.577 33.7666C980.045 33.7666 979.614 34.198 979.614 34.7301C979.614 35.2622 980.045 35.6936 980.577 35.6936Z" fill="#C1C1C1"/>
<path d="M989.73 8.23365C990.262 8.23365 990.694 7.80227 990.694 7.27014C990.694 6.73802 990.262 6.30664 989.73 6.30664C989.198 6.30664 988.767 6.73802 988.767 7.27014C988.767 7.80227 989.198 8.23365 989.73 8.23365Z" fill="#C1C1C1"/>
<path d="M989.73 17.387C990.262 17.387 990.694 16.9556 990.694 16.4235C990.694 15.8913 990.262 15.46 989.73 15.46C989.198 15.46 988.767 15.8913 988.767 16.4235C988.767 16.9556 989.198 17.387 989.73 17.387Z" fill="#C1C1C1"/>
<path d="M989.73 26.5403C990.262 26.5403 990.694 26.1089 990.694 25.5768C990.694 25.0447 990.262 24.6133 989.73 24.6133C989.198 24.6133 988.767 25.0447 988.767 25.5768C988.767 26.1089 989.198 26.5403 989.73 26.5403Z" fill="#C1C1C1"/>
<path d="M989.73 35.6936C990.262 35.6936 990.694 35.2622 990.694 34.7301C990.694 34.198 990.262 33.7666 989.73 33.7666C989.198 33.7666 988.767 34.198 988.767 34.7301C988.767 35.2622 989.198 35.6936 989.73 35.6936Z" fill="#C1C1C1"/>
<path d="M998.883 8.23365C999.415 8.23365 999.846 7.80227 999.846 7.27014C999.846 6.73802 999.415 6.30664 998.883 6.30664C998.351 6.30664 997.919 6.73802 997.919 7.27014C997.919 7.80227 998.351 8.23365 998.883 8.23365Z" fill="#C1C1C1"/>
<path d="M998.883 17.387C999.415 17.387 999.846 16.9556 999.846 16.4235C999.846 15.8913 999.415 15.46 998.883 15.46C998.351 15.46 997.919 15.8913 997.919 16.4235C997.919 16.9556 998.351 17.387 998.883 17.387Z" fill="#C1C1C1"/>
<path d="M998.883 26.5403C999.415 26.5403 999.846 26.1089 999.846 25.5768C999.846 25.0447 999.415 24.6133 998.883 24.6133C998.351 24.6133 997.919 25.0447 997.919 25.5768C997.919 26.1089 998.351 26.5403 998.883 26.5403Z" fill="#C1C1C1"/>
<path d="M998.883 35.6936C999.415 35.6936 999.846 35.2622 999.846 34.7301C999.846 34.198 999.415 33.7666 998.883 33.7666C998.351 33.7666 997.919 34.198 997.919 34.7301C997.919 35.2622 998.351 35.6936 998.883 35.6936Z" fill="#C1C1C1"/>
<path d="M1008.04 8.23365C1008.57 8.23365 1009 7.80227 1009 7.27014C1009 6.73802 1008.57 6.30664 1008.04 6.30664C1007.51 6.30664 1007.08 6.73802 1007.08 7.27014C1007.08 7.80227 1007.51 8.23365 1008.04 8.23365Z" fill="#C1C1C1"/>
<path d="M1008.04 17.387C1008.57 17.387 1009 16.9556 1009 16.4235C1009 15.8913 1008.57 15.46 1008.04 15.46C1007.51 15.46 1007.08 15.8913 1007.08 16.4235C1007.08 16.9556 1007.51 17.387 1008.04 17.387Z" fill="#C1C1C1"/>
<path d="M1008.04 26.5403C1008.57 26.5403 1009 26.1089 1009 25.5768C1009 25.0447 1008.57 24.6133 1008.04 24.6133C1007.51 24.6133 1007.08 25.0447 1007.08 25.5768C1007.08 26.1089 1007.51 26.5403 1008.04 26.5403Z" fill="#C1C1C1"/>
<path d="M1008.04 35.6936C1008.57 35.6936 1009 35.2622 1009 34.7301C1009 34.198 1008.57 33.7666 1008.04 33.7666C1007.51 33.7666 1007.08 34.198 1007.08 34.7301C1007.08 35.2622 1007.51 35.6936 1008.04 35.6936Z" fill="#C1C1C1"/>
<path d="M980.577 44.927C981.109 44.927 981.541 44.4956 981.541 43.9635C981.541 43.4314 981.109 43 980.577 43C980.045 43 979.614 43.4314 979.614 43.9635C979.614 44.4956 980.045 44.927 980.577 44.927Z" fill="#C1C1C1"/>
<path d="M980.577 54.0803C981.109 54.0803 981.541 53.6489 981.541 53.1168C981.541 52.5847 981.109 52.1533 980.577 52.1533C980.045 52.1533 979.614 52.5847 979.614 53.1168C979.614 53.6489 980.045 54.0803 980.577 54.0803Z" fill="#C1C1C1"/>
<path d="M980.577 63.2337C981.109 63.2337 981.541 62.8023 981.541 62.2701C981.541 61.738 981.109 61.3066 980.577 61.3066C980.045 61.3066 979.614 61.738 979.614 62.2701C979.614 62.8023 980.045 63.2337 980.577 63.2337Z" fill="#C1C1C1"/>
<path d="M980.577 72.387C981.109 72.387 981.541 71.9556 981.541 71.4235C981.541 70.8913 981.109 70.46 980.577 70.46C980.045 70.46 979.614 70.8913 979.614 71.4235C979.614 71.9556 980.045 72.387 980.577 72.387Z" fill="#C1C1C1"/>
<path d="M980.577 81.5403C981.109 81.5403 981.541 81.1089 981.541 80.5768C981.541 80.0447 981.109 79.6133 980.577 79.6133C980.045 79.6133 979.614 80.0447 979.614 80.5768C979.614 81.1089 980.045 81.5403 980.577 81.5403Z" fill="#C1C1C1"/>
<path d="M980.577 90.6936C981.109 90.6936 981.541 90.2622 981.541 89.7301C981.541 89.198 981.109 88.7666 980.577 88.7666C980.045 88.7666 979.614 89.198 979.614 89.7301C979.614 90.2622 980.045 90.6936 980.577 90.6936Z" fill="#C1C1C1"/>
<path d="M989.73 44.927C990.262 44.927 990.694 44.4956 990.694 43.9635C990.694 43.4314 990.262 43 989.73 43C989.198 43 988.767 43.4314 988.767 43.9635C988.767 44.4956 989.198 44.927 989.73 44.927Z" fill="#C1C1C1"/>
<path d="M989.73 54.0803C990.262 54.0803 990.694 53.6489 990.694 53.1168C990.694 52.5847 990.262 52.1533 989.73 52.1533C989.198 52.1533 988.767 52.5847 988.767 53.1168C988.767 53.6489 989.198 54.0803 989.73 54.0803Z" fill="#C1C1C1"/>
<path d="M989.73 63.2337C990.262 63.2337 990.694 62.8023 990.694 62.2701C990.694 61.738 990.262 61.3066 989.73 61.3066C989.198 61.3066 988.767 61.738 988.767 62.2701C988.767 62.8023 989.198 63.2337 989.73 63.2337Z" fill="#C1C1C1"/>
<path d="M989.73 72.387C990.262 72.387 990.694 71.9556 990.694 71.4235C990.694 70.8913 990.262 70.46 989.73 70.46C989.198 70.46 988.767 70.8913 988.767 71.4235C988.767 71.9556 989.198 72.387 989.73 72.387Z" fill="#C1C1C1"/>
<path d="M989.73 81.5403C990.262 81.5403 990.694 81.1089 990.694 80.5768C990.694 80.0447 990.262 79.6133 989.73 79.6133C989.198 79.6133 988.767 80.0447 988.767 80.5768C988.767 81.1089 989.198 81.5403 989.73 81.5403Z" fill="#C1C1C1"/>
<path d="M989.73 90.6936C990.262 90.6936 990.694 90.2622 990.694 89.7301C990.694 89.198 990.262 88.7666 989.73 88.7666C989.198 88.7666 988.767 89.198 988.767 89.7301C988.767 90.2622 989.198 90.6936 989.73 90.6936Z" fill="#C1C1C1"/>
<path d="M998.883 44.927C999.415 44.927 999.846 44.4956 999.846 43.9635C999.846 43.4314 999.415 43 998.883 43C998.351 43 997.919 43.4314 997.919 43.9635C997.919 44.4956 998.351 44.927 998.883 44.927Z" fill="#C1C1C1"/>
<path d="M998.883 54.0803C999.415 54.0803 999.846 53.6489 999.846 53.1168C999.846 52.5847 999.415 52.1533 998.883 52.1533C998.351 52.1533 997.919 52.5847 997.919 53.1168C997.919 53.6489 998.351 54.0803 998.883 54.0803Z" fill="#C1C1C1"/>
<path d="M998.883 63.2337C999.415 63.2337 999.846 62.8023 999.846 62.2701C999.846 61.738 999.415 61.3066 998.883 61.3066C998.351 61.3066 997.919 61.738 997.919 62.2701C997.919 62.8023 998.351 63.2337 998.883 63.2337Z" fill="#C1C1C1"/>
<path d="M998.883 72.387C999.415 72.387 999.846 71.9556 999.846 71.4235C999.846 70.8913 999.415 70.46 998.883 70.46C998.351 70.46 997.919 70.8913 997.919 71.4235C997.919 71.9556 998.351 72.387 998.883 72.387Z" fill="#C1C1C1"/>
<path d="M998.883 81.5403C999.415 81.5403 999.846 81.1089 999.846 80.5768C999.846 80.0447 999.415 79.6133 998.883 79.6133C998.351 79.6133 997.919 80.0447 997.919 80.5768C997.919 81.1089 998.351 81.5403 998.883 81.5403Z" fill="#C1C1C1"/>
<path d="M998.883 90.6936C999.415 90.6936 999.846 90.2622 999.846 89.7301C999.846 89.198 999.415 88.7666 998.883 88.7666C998.351 88.7666 997.919 89.198 997.919 89.7301C997.919 90.2622 998.351 90.6936 998.883 90.6936Z" fill="#C1C1C1"/>
<path d="M1008.04 44.927C1008.57 44.927 1009 44.4956 1009 43.9635C1009 43.4314 1008.57 43 1008.04 43C1007.51 43 1007.08 43.4314 1007.08 43.9635C1007.08 44.4956 1007.51 44.927 1008.04 44.927Z" fill="#C1C1C1"/>
<path d="M1008.04 54.0803C1008.57 54.0803 1009 53.6489 1009 53.1168C1009 52.5847 1008.57 52.1533 1008.04 52.1533C1007.51 52.1533 1007.08 52.5847 1007.08 53.1168C1007.08 53.6489 1007.51 54.0803 1008.04 54.0803Z" fill="#C1C1C1"/>
<path d="M1008.04 63.2337C1008.57 63.2337 1009 62.8023 1009 62.2701C1009 61.738 1008.57 61.3066 1008.04 61.3066C1007.51 61.3066 1007.08 61.738 1007.08 62.2701C1007.08 62.8023 1007.51 63.2337 1008.04 63.2337Z" fill="#C1C1C1"/>
<path d="M1008.04 72.387C1008.57 72.387 1009 71.9556 1009 71.4235C1009 70.8913 1008.57 70.46 1008.04 70.46C1007.51 70.46 1007.08 70.8913 1007.08 71.4235C1007.08 71.9556 1007.51 72.387 1008.04 72.387Z" fill="#C1C1C1"/>
<path d="M1008.04 81.5403C1008.57 81.5403 1009 81.1089 1009 80.5768C1009 80.0447 1008.57 79.6133 1008.04 79.6133C1007.51 79.6133 1007.08 80.0447 1007.08 80.5768C1007.08 81.1089 1007.51 81.5403 1008.04 81.5403Z" fill="#C1C1C1"/>
<path d="M1008.04 90.6936C1008.57 90.6936 1009 90.2622 1009 89.7301C1009 89.198 1008.57 88.7666 1008.04 88.7666C1007.51 88.7666 1007.08 89.198 1007.08 89.7301C1007.08 90.2622 1007.51 90.6936 1008.04 90.6936Z" fill="#C1C1C1"/>
<path d="M943.964 44.927C944.496 44.927 944.927 44.4956 944.927 43.9635C944.927 43.4314 944.496 43 943.964 43C943.432 43 943 43.4314 943 43.9635C943 44.4956 943.432 44.927 943.964 44.927Z" fill="#C1C1C1"/>
<path d="M943.964 54.0803C944.496 54.0803 944.927 53.6489 944.927 53.1168C944.927 52.5847 944.496 52.1533 943.964 52.1533C943.432 52.1533 943 52.5847 943 53.1168C943 53.6489 943.432 54.0803 943.964 54.0803Z" fill="#C1C1C1"/>
<path d="M943.964 63.2337C944.496 63.2337 944.927 62.8023 944.927 62.2701C944.927 61.738 944.496 61.3066 943.964 61.3066C943.432 61.3066 943 61.738 943 62.2701C943 62.8023 943.432 63.2337 943.964 63.2337Z" fill="#C1C1C1"/>
<path d="M943.964 72.387C944.496 72.387 944.927 71.9556 944.927 71.4235C944.927 70.8913 944.496 70.46 943.964 70.46C943.432 70.46 943 70.8913 943 71.4235C943 71.9556 943.432 72.387 943.964 72.387Z" fill="#C1C1C1"/>
<path d="M943.964 81.5403C944.496 81.5403 944.927 81.1089 944.927 80.5768C944.927 80.0447 944.496 79.6133 943.964 79.6133C943.432 79.6133 943 80.0447 943 80.5768C943 81.1089 943.432 81.5403 943.964 81.5403Z" fill="#C1C1C1"/>
<path d="M943.964 90.6936C944.496 90.6936 944.927 90.2622 944.927 89.7301C944.927 89.198 944.496 88.7666 943.964 88.7666C943.432 88.7666 943 89.198 943 89.7301C943 90.2622 943.432 90.6936 943.964 90.6936Z" fill="#C1C1C1"/>
<path d="M953.117 44.927C953.649 44.927 954.081 44.4956 954.081 43.9635C954.081 43.4314 953.649 43 953.117 43C952.585 43 952.154 43.4314 952.154 43.9635C952.154 44.4956 952.585 44.927 953.117 44.927Z" fill="#C1C1C1"/>
<path d="M953.117 54.0803C953.649 54.0803 954.081 53.6489 954.081 53.1168C954.081 52.5847 953.649 52.1533 953.117 52.1533C952.585 52.1533 952.154 52.5847 952.154 53.1168C952.154 53.6489 952.585 54.0803 953.117 54.0803Z" fill="#C1C1C1"/>
<path d="M953.117 63.2337C953.649 63.2337 954.081 62.8023 954.081 62.2701C954.081 61.738 953.649 61.3066 953.117 61.3066C952.585 61.3066 952.154 61.738 952.154 62.2701C952.154 62.8023 952.585 63.2337 953.117 63.2337Z" fill="#C1C1C1"/>
<path d="M953.117 72.387C953.649 72.387 954.081 71.9556 954.081 71.4235C954.081 70.8913 953.649 70.46 953.117 70.46C952.585 70.46 952.154 70.8913 952.154 71.4235C952.154 71.9556 952.585 72.387 953.117 72.387Z" fill="#C1C1C1"/>
<path d="M953.117 81.5403C953.649 81.5403 954.081 81.1089 954.081 80.5768C954.081 80.0447 953.649 79.6133 953.117 79.6133C952.585 79.6133 952.154 80.0447 952.154 80.5768C952.154 81.1089 952.585 81.5403 953.117 81.5403Z" fill="#C1C1C1"/>
<path d="M953.117 90.6936C953.649 90.6936 954.081 90.2622 954.081 89.7301C954.081 89.198 953.649 88.7666 953.117 88.7666C952.585 88.7666 952.154 89.198 952.154 89.7301C952.154 90.2622 952.585 90.6936 953.117 90.6936Z" fill="#C1C1C1"/>
<path d="M962.27 44.927C962.802 44.927 963.234 44.4956 963.234 43.9635C963.234 43.4314 962.802 43 962.27 43C961.738 43 961.307 43.4314 961.307 43.9635C961.307 44.4956 961.738 44.927 962.27 44.927Z" fill="#C1C1C1"/>
<path d="M962.27 54.0803C962.802 54.0803 963.234 53.6489 963.234 53.1168C963.234 52.5847 962.802 52.1533 962.27 52.1533C961.738 52.1533 961.307 52.5847 961.307 53.1168C961.307 53.6489 961.738 54.0803 962.27 54.0803Z" fill="#C1C1C1"/>
<path d="M962.27 63.2337C962.802 63.2337 963.234 62.8023 963.234 62.2701C963.234 61.738 962.802 61.3066 962.27 61.3066C961.738 61.3066 961.307 61.738 961.307 62.2701C961.307 62.8023 961.738 63.2337 962.27 63.2337Z" fill="#C1C1C1"/>
<path d="M962.27 72.387C962.802 72.387 963.234 71.9556 963.234 71.4235C963.234 70.8913 962.802 70.46 962.27 70.46C961.738 70.46 961.307 70.8913 961.307 71.4235C961.307 71.9556 961.738 72.387 962.27 72.387Z" fill="#C1C1C1"/>
<path d="M962.27 81.5403C962.802 81.5403 963.234 81.1089 963.234 80.5768C963.234 80.0447 962.802 79.6133 962.27 79.6133C961.738 79.6133 961.307 80.0447 961.307 80.5768C961.307 81.1089 961.738 81.5403 962.27 81.5403Z" fill="#C1C1C1"/>
<path d="M962.27 90.6936C962.802 90.6936 963.234 90.2622 963.234 89.7301C963.234 89.198 962.802 88.7666 962.27 88.7666C961.738 88.7666 961.307 89.198 961.307 89.7301C961.307 90.2622 961.738 90.6936 962.27 90.6936Z" fill="#C1C1C1"/>
<path d="M971.423 44.927C971.955 44.927 972.386 44.4956 972.386 43.9635C972.386 43.4314 971.955 43 971.423 43C970.891 43 970.459 43.4314 970.459 43.9635C970.459 44.4956 970.891 44.927 971.423 44.927Z" fill="#C1C1C1"/>
<path d="M971.423 54.0803C971.955 54.0803 972.386 53.6489 972.386 53.1168C972.386 52.5847 971.955 52.1533 971.423 52.1533C970.891 52.1533 970.459 52.5847 970.459 53.1168C970.459 53.6489 970.891 54.0803 971.423 54.0803Z" fill="#C1C1C1"/>
<path d="M971.423 63.2337C971.955 63.2337 972.386 62.8023 972.386 62.2701C972.386 61.738 971.955 61.3066 971.423 61.3066C970.891 61.3066 970.459 61.738 970.459 62.2701C970.459 62.8023 970.891 63.2337 971.423 63.2337Z" fill="#C1C1C1"/>
<path d="M971.423 72.387C971.955 72.387 972.386 71.9556 972.386 71.4235C972.386 70.8913 971.955 70.46 971.423 70.46C970.891 70.46 970.459 70.8913 970.459 71.4235C970.459 71.9556 970.891 72.387 971.423 72.387Z" fill="#C1C1C1"/>
<path d="M971.423 81.5403C971.955 81.5403 972.386 81.1089 972.386 80.5768C972.386 80.0447 971.955 79.6133 971.423 79.6133C970.891 79.6133 970.459 80.0447 970.459 80.5768C970.459 81.1089 970.891 81.5403 971.423 81.5403Z" fill="#C1C1C1"/>
<path d="M971.423 90.6936C971.955 90.6936 972.386 90.2622 972.386 89.7301C972.386 89.198 971.955 88.7666 971.423 88.7666C970.891 88.7666 970.459 89.198 970.459 89.7301C970.459 90.2622 970.891 90.6936 971.423 90.6936Z" fill="#C1C1C1"/>
</g>
<mask id="mask1" mask-type="alpha" maskUnits="userSpaceOnUse" x="-1" y="0" width="1264" height="212">
<path d="M1263 0H-1V212H1263V0Z" fill="#224982"/>
</mask>
<g mask="url(#mask1)">
<path d="M38 138C105.931 138 161 82.931 161 15C161 -52.931 105.931 -108 38 -108C-29.931 -108 -85 -52.931 -85 15C-85 82.931 -29.931 138 38 138Z" fill="#DFDFDF" fill-opacity="0.2"/>
</g>
<mask id="mask2" mask-type="alpha" maskUnits="userSpaceOnUse" x="1028" y="26" width="262" height="173">
<path d="M1289.68 26H1028V198.883H1289.68V26Z" fill="#224982"/>
</mask>
<g mask="url(#mask2)">
<path d="M1166.41 199.806C1201.01 199.806 1229.06 185.096 1229.06 166.951C1229.06 148.805 1201.01 134.095 1166.41 134.095C1131.81 134.095 1103.76 148.805 1103.76 166.951C1103.76 185.096 1131.81 199.806 1166.41 199.806Z" fill="#224982"/>
</g>
<mask id="mask3" mask-type="alpha" maskUnits="userSpaceOnUse" x="1045" y="90" width="220" height="220">
<path d="M1195.28 269.304C1233.54 247.213 1246.65 198.286 1224.56 160.022C1202.47 121.759 1153.54 108.649 1115.28 130.74C1077.02 152.832 1063.91 201.759 1086 240.022C1108.09 278.286 1157.02 291.396 1195.28 269.304Z" fill="#224982"/>
</mask>
<g mask="url(#mask3)">
<path d="M1209.81 265.467L1128.25 124.194" stroke="white" stroke-width="2"/>
<path d="M1186.06 286.341L1100.99 138.992" stroke="white" stroke-width="2"/>
<path d="M1164.58 298.745L1079.51 151.396" stroke="white" stroke-width="2"/>
<path d="M1148.47 308.047L1063.39 160.698" stroke="white" stroke-width="2"/>
<path d="M1208.78 276.088L1122.83 127.22" stroke="white" stroke-width="2"/>
<path d="M1181.93 291.591L1095.98 142.723" stroke="white" stroke-width="2"/>
<path d="M1160.45 303.993L1074.5 155.125" stroke="white" stroke-width="2"/>
<path d="M1144.34 313.297L1058.39 164.429" stroke="white" stroke-width="2"/>
<path d="M1138.96 316.396L1053.02 167.528" stroke="white" stroke-width="2"/>
<path d="M1133.59 319.498L1047.65 170.63" stroke="white" stroke-width="2"/>
<path d="M1208.37 287.781L1117.16 129.799" stroke="white" stroke-width="2"/>
<path d="M1181.52 303.285L1090.31 145.303" stroke="white" stroke-width="2"/>
<path d="M1215.18 262.367L1133.62 121.094" stroke="white" stroke-width="2"/>
<path d="M1191.43 283.24L1106.47 136.081" stroke="white" stroke-width="2"/>
<path d="M1169.95 295.644L1084.99 148.484" stroke="white" stroke-width="2"/>
<path d="M1153.84 304.945L1068.87 157.786" stroke="white" stroke-width="2"/>
<path d="M1220.55 259.266L1138.99 117.993" stroke="white" stroke-width="2"/>
<path d="M1196.8 280.14L1111.84 132.98" stroke="white" stroke-width="2"/>
<path d="M1225.93 256.165L1144.36 114.892" stroke="white" stroke-width="2"/>
<path d="M1247.41 243.762L1165.84 102.489" stroke="white" stroke-width="2"/>
<path d="M1231.3 253.063L1149.73 111.791" stroke="white" stroke-width="2"/>
<path d="M1252.78 240.661L1171.22 99.3887" stroke="white" stroke-width="2"/>
<path d="M1236.67 249.963L1155.1 108.69" stroke="white" stroke-width="2"/>
<path d="M1258.15 237.56L1176.59 96.2871" stroke="white" stroke-width="2"/>
<path d="M1242.04 246.863L1160.47 105.59" stroke="white" stroke-width="2"/>
<path d="M1263.52 234.459L1181.96 93.1865" stroke="white" stroke-width="2"/>
</g>
<mask id="mask4" mask-type="alpha" maskUnits="userSpaceOnUse" x="1042" y="0" width="351" height="212">
<path d="M1393 0H1042V212H1393V0Z" fill="#224982"/>
</mask>
<g mask="url(#mask4)">
<path d="M1416.3 18.958L1108.41 362.708L1056 304.195L1363.89 -39.5553L1416.3 18.958Z" fill="white"/>
<mask id="mask5" mask-type="alpha" maskUnits="userSpaceOnUse" x="1056" y="-26" width="349" height="389">
<path d="M1404.15 32.5212L1108.41 362.709L1056 304.196L1351.74 -25.9921L1404.15 32.5212Z" fill="white"/>
</mask>
<g mask="url(#mask5)">
<path d="M1379 120.001C1420.42 120.001 1454 86.4223 1454 45.001C1454 3.57962 1420.42 -29.999 1379 -29.999C1337.58 -29.999 1304 3.57962 1304 45.001C1304 86.4223 1337.58 120.001 1379 120.001Z" fill="#CDD6E0"/>
</g>
<mask id="mask6" mask-type="alpha" maskUnits="userSpaceOnUse" x="1056" y="-51" width="370" height="414">
<path d="M1425.81 8.34199L1108.41 362.709L1056 304.196L1373.4 -50.1713L1425.81 8.34199Z" fill="white"/>
</mask>
<g mask="url(#mask6)">
<path d="M1155 279C1199.18 279 1235 243.183 1235 199C1235 154.817 1199.18 119 1155 119C1110.82 119 1075 154.817 1075 199C1075 243.183 1110.82 279 1155 279Z" fill="#EF5E3B"/>
</g>
</g>
</g>
<defs>
<clipPath id="clip0">
<rect width="1366" height="310" fill="white"/>
</clipPath>
</defs>
</svg>
