<svg width="39" height="39" fill="none" xmlns="http://www.w3.org/2000/svg"><path d="M19.392 37.158c9.812 0 17.766-7.954 17.766-17.766 0-9.813-7.954-17.767-17.766-17.767-9.813 0-17.767 7.954-17.767 17.767 0 9.812 7.954 17.766 17.767 17.766z" fill="#3E6CAF"/><path opacity=".1" d="M6.86 31.99a17.713 17.713 0 0012.565 5.204c9.813 0 17.769-7.956 17.769-17.769 0-4.907-1.99-9.349-5.205-12.565L6.86 31.99z" fill="#231F20"/><path d="M14.544 17.982a2.86 2.86 0 11-2.86-2.86 2.86 2.86 0 012.86 2.86zm7.512-.838a3.198 3.198 0 11-6.397 0 3.198 3.198 0 016.397 0zm8.238-1.024c0 1.954-1.571 3.537-3.51 3.537-1.937 0-3.508-1.584-3.508-3.537 0-1.954 1.571-3.537 3.509-3.537s3.509 1.583 3.509 3.537zM8.51 25.544c0 .227.152.377.374.377h5.536c.222 0 .374-.148.374-.377v-1.053c0-1.787-1.424-3.236-3.143-3.236-1.883 0-3.141 1.698-3.141 3.236v1.053zm6.924.007c0 .223.15.37.37.37h6.144c.221 0 .37-.146.37-.37v-1.18c0-1.753-1.358-3.544-3.463-3.544-1.804 0-3.421 1.5-3.421 3.545v1.179zm7.544-.004c0 .225.151.373.373.373h6.93c.222 0 .373-.146.373-.373v-1.408c0-2.081-1.627-3.92-3.826-3.92-1.842 0-3.85 1.484-3.85 3.92v1.408z" fill="#fff"/></svg>