<svg width="561" height="293" fill="none" xmlns="http://www.w3.org/2000/svg"><path d="M37.499 292.3s-64.938-69.492-10.983-144.727c47.873-66.754 103.687-62.19 144.637-35.097 17.441 11.536 67.732 1.421 110.524-66.502C340.043-46.66 542.359 9.522 505.47 152.031c-17.851 68.967 54.329 71.474 17.551 140.412L37.499 292.3z" fill="#EBF3FA" fill-opacity=".2"/><path d="M89.974 198.143L44.02 240.304l42.3 45.801 45.952-42.161-42.3-45.801z" fill="#DFEBFD"/><path d="M89.975 198.144l-45.953 42.161 8.519 9.224 45.952-42.161-8.518-9.224z" fill="#BED7FB"/><path d="M184.617 128.69l-12.979 153.813s-1.36 9.325 5.598 9.341c11.441.026 56.942 0 56.942 0s-8.609-1.941-8.505-6.308c.124-5.148 15.169-158.298 15.169-158.298l-56.225 1.452z" fill="#224982"/><path d="M237.871 289.042c-2.25 0-45.71.141-56.851 0-4.856-.06-5.707-4.302-5.747-7.049-.016-.766.033-1.532.146-2.29l.339-3.996.86-10.19.77-9.003.975-11.566.822-9.764 9.213-109.293 56.225-1.455s-6.337 64.093-10.818 110.748a9401.772 9401.772 0 00-2.958 31.232l-.479 5.246c-.577 6.29-.908 10.308-.912 11.072a6.43 6.43 0 00.11 1.246c.922 4.902 7.46 5.062 8.305 5.062z" fill="#3662C1"/><path d="M48.07 44.986l31.613 126.566 4.327 17.334 14.724 58.95H372.28l-54.27-202.85H48.07z" fill="#3662C1"/><path d="M48.068 44.986l-4.381 1.456L92.91 252.238l5.824-4.403-50.666-202.85zM92.91 252.239h271.862l7.506-4.403H98.735l-5.825 4.403zm95.469 39.653h58.861v-2.789h-58.861v2.789z" fill="#224982"/><path d="M359.027 210.458L314.64 47.667H47.631v-2.681H318.01l44.237 165.11-3.219.362z" fill="#F1A34F"/><path d="M232.279 252.238l-.304 2.132-55.357 11.147.76-9.003.362-4.276h54.539z" fill="#6D89CF"/><path opacity=".4" d="M237.871 289.042c-2.25 0-45.709.142-56.85 0-4.857-.06-5.708-4.302-5.748-7.049l55.095-10.331c-.577 6.291-.908 10.308-.912 11.072a6.43 6.43 0 00.11 1.246c.922 4.903 7.46 5.062 8.305 5.062z" fill="#6D89CF"/><path opacity=".4" d="M218.898 206.772L98.734 247.836l-14.724-58.95 134.888 17.886z" fill="#3662C1"/><path d="M48.068 44.986H318.01l43.799 163.027H87.398L48.069 44.986z" fill="#699DEE"/><path d="M242.758 228.623c-.769-3.999-4.662-7.24-8.674-7.24s-6.631 3.241-5.852 7.24c.78 3.999 4.665 7.24 8.675 7.24 4.01 0 6.631-3.241 5.851-7.24z" fill="#fff"/><path d="M349.077 200.95H96.331L67.706 87.298l-2.191-8.715-1.874-7.433-1.497-5.952-2.892-11.48h249.101l.176.631 2.997 10.85 1.648 5.95 2.057 7.434 2.411 8.715 31.435 113.652z" fill="#E9F3FE"/><path d="M349.077 201.337H96.331L67.706 87.687l-2.191-8.715-1.874-7.433-1.497-5.953-2.892-11.479h249.101l.176.631 2.997 10.848 1.648 5.953 2.057 7.433 2.411 8.715 31.435 113.65z" fill="#E9F3FE"/><path d="M311.526 65.198H62.144l-2.892-11.48h249.007l.27.631 2.997 10.85z" fill="#AFCDFB"/><path d="M66.18 59.454c-.302-1.204.434-2.178 1.642-2.178s2.43.974 2.73 2.178c.3 1.205-.433 2.179-1.64 2.179-1.21 0-2.431-.972-2.731-2.179zm11.308 1.64c.706-.796.447-2.174-.579-3.076-1.025-.902-2.428-.988-3.133-.192-.706.796-.447 2.173.578 3.076 1.025.902 2.428.988 3.134.192zm3.778-1.64c-.3-1.204.433-2.178 1.642-2.178 1.208 0 2.43.974 2.73 2.178.3 1.205-.433 2.179-1.641 2.179-1.209 0-2.428-.972-2.73-2.179z" fill="#E9F3FE"/><path d="M314.775 110.911l-26.25.096-8.512-32.481 26.249-.098 8.513 32.483z" fill="#fff"/><path d="M299.753 82.697l-11.007.04-.127-.481 11.007-.04.127.481zm1.756 1.335l-13.819.052-.125-.482 13.819-.052.125.482zm3.801 6.611l-17.951.065-.125-.48 17.949-.067.127.482zm.415 1.584l-17.951.065-.125-.481 17.949-.065.127.481zm.414 1.583l-17.949.066-.127-.481 17.951-.065.125.48zm.416 1.584l-17.949.067-.127-.482 17.949-.067.127.481zm.415 1.584l-17.95.065-.125-.48 17.948-.067.127.482zm1.011 3.854l-17.951.066-.125-.482 17.949-.065.127.481zm.413 1.583l-17.949.067-.127-.481 17.951-.066.125.48zm.416 1.584l-17.949.067-.127-.481 17.949-.067.127.481zm.415 1.584l-17.951.065-.125-.479 17.949-.067.127.481zm.414 1.584l-17.948.065-.126-.481 17.949-.065.125.481z" fill="#ADCBF9"/><path d="M325.352 151.273l-26.25.097-8.512-32.483 26.252-.095 8.51 32.481z" fill="#fff"/><path d="M310.33 123.059l-11.006.04-.127-.479 11.008-.041.125.48zm1.757 1.335l-13.818.052-.127-.482 13.82-.05.125.48zm3.8 6.611l-17.948.067-.127-.482 17.95-.065.125.48zm.415 1.584l-17.95.065-.125-.479 17.948-.068.127.482zm.414 1.584l-17.948.065-.125-.479 17.948-.068.125.482zm.416 1.584l-17.949.065-.127-.481 17.951-.065.125.481zm.416 1.582l-17.951.067-.125-.481 17.949-.065.127.479zm1.01 3.855l-17.951.065-.125-.479 17.949-.067.127.481zm.414 1.585l-17.949.065-.125-.482 17.949-.065.125.482zm.415 1.584l-17.949.065-.127-.481 17.951-.066.125.482zm.416 1.582l-17.951.067-.125-.481 17.949-.066.127.48zm.413 1.584l-17.948.067-.125-.481 17.948-.065.125.479z" fill="#ADCBF9"/><path d="M336.002 191.907l-26.252.098-8.512-32.484 26.252-.095 8.512 32.481z" fill="#fff"/><path d="M320.978 163.693l-11.006.04-.127-.479 11.008-.041.125.48zm1.757 1.335l-13.818.052-.127-.482 13.82-.05.125.48zm3.8 6.611l-17.949.067-.127-.482 17.951-.065.125.48zm.416 1.584l-17.95.065-.126-.479 17.949-.066.127.48zm.416 1.584l-17.951.065-.125-.479 17.949-.067.127.481zm.413 1.584l-17.949.066-.127-.482 17.951-.065.125.481zm.416 1.582l-17.949.068-.127-.482 17.949-.065.127.479zm1.01 3.855l-17.949.065-.127-.479 17.949-.067.127.481zm.416 1.585l-17.951.065-.125-.48 17.949-.067.127.482zm.414 1.584l-17.949.065-.127-.482 17.951-.065.125.482zm.415 1.582l-17.949.067-.127-.481 17.949-.066.127.48zm.416 1.584l-17.951.067-.125-.481 17.949-.065.127.479z" fill="#ADCBF9"/><path d="M301.487 192.181l-91.811.338-26.423-100.827 11.959-12.838 76.502-.28 29.773 113.607zm-101.253 0l-91.811.338L82.001 91.692l11.958-12.838 76.502-.28 29.773 113.607z" fill="#fff"/><path d="M246.424 95.612l-32.357.119-.372-1.412 32.358-.119.371 1.412zm-101.253 0l-32.357.119-.371-1.412L144.8 94.2l.371 1.412zm106.42 3.926l-40.626.15-.369-1.414 40.623-.15.372 1.414zm-101.253 0l-40.625.15-.37-1.414 40.624-.15.371 1.414zm112.422 19.434l-52.767.194-.371-1.414 52.767-.194.371 1.414zm-101.252 0l-52.768.194-.371-1.414 52.767-.194.372 1.414zm102.472 4.655l-52.767.195-.371-1.413 52.767-.194.371 1.412zm-101.252 0l-52.767.195-.372-1.413 52.767-.194.372 1.412zm102.472 4.656l-52.767.194-.37-1.414 52.766-.193.371 1.413zm-101.252 0l-52.768.194-.369-1.414 52.765-.193.372 1.413zm102.472 4.655l-52.767.195-.37-1.413 52.765-.194.372 1.412zm-101.253 0l-52.767.195-.369-1.413 52.765-.194.371 1.412zm102.473 4.656l-52.767.194-.37-1.411 52.766-.196.371 1.413zm-101.252 0l-52.768.194-.369-1.411 52.765-.196.372 1.413zm104.221 11.329l-52.767.196-.37-1.414 52.767-.193.37 1.411zm-101.253 0l-52.767.196-.369-1.414 52.767-.193.369 1.411zm102.473 4.657l-52.767.194-.37-1.412 52.767-.195.37 1.413zm-101.253 0l-52.767.194-.369-1.412 52.767-.195.369 1.413zm102.473 4.657l-52.767.193-.37-1.413 52.767-.194.37 1.414zm-101.253 0l-52.767.193-.369-1.413 52.767-.194.369 1.414zm102.473 4.654l-52.767.196-.37-1.414 52.767-.193.37 1.411zm-101.253 0l-52.767.196-.369-1.414 52.767-.193.369 1.411zm102.473 4.657l-52.765.193-.371-1.413 52.767-.194.369 1.414zm-101.252 0l-52.766.193-.371-1.413 52.767-.194.37 1.414zm9.016-75.856l15.309-.058-3.35-12.78-11.959 12.838zM82 91.692l15.31-.058-3.35-12.78L82 91.691z" fill="#ADCBF9"/><path d="M329.643 244.946h74.982c2.8 0 5.485 1.108 7.464 3.081a10.505 10.505 0 013.092 7.44v5.033a10.74 10.74 0 01-3.162 7.608 10.81 10.81 0 01-7.633 3.151h-74.743v-26.313z" fill="#FCECDB"/><path d="M478.976 255.772v3.959a11.494 11.494 0 01-3.388 8.151 11.556 11.556 0 01-3.752 2.499 11.592 11.592 0 01-4.427.876H327.353a1.686 1.686 0 01-1.186-.489 1.658 1.658 0 01-.492-1.181v-.593a1.673 1.673 0 011.678-1.67h85.386a10.718 10.718 0 002.45-6.826v-5.037a10.44 10.44 0 00-2.325-6.586h-85.511a1.662 1.662 0 01-1.187-.489 1.678 1.678 0 01-.491-1.183v-.591a1.676 1.676 0 01.491-1.183 1.681 1.681 0 011.187-.489h140.763a10.866 10.866 0 017.683 3.168 10.79 10.79 0 013.177 7.658v.006z" fill="#699DEE"/><path d="M478.558 252.788h-63.723a10.523 10.523 0 00-1.98-3.907h-85.502a1.663 1.663 0 01-.642-.127 1.665 1.665 0 01-1.036-1.545v-.591a1.672 1.672 0 011.678-1.672h140.763c2.358 0 4.653.765 6.537 2.18a10.824 10.824 0 013.905 5.662z" fill="#548EE2"/><path d="M329.643 258.103l10.371.443-10.371.264v-.707zm0 4.127l24.672.443-24.672.266v-.709z" fill="#F4D2B8"/><path d="M427.034 291.667h-79.565a10.599 10.599 0 01-7.483-3.089 10.531 10.531 0 01-3.1-7.459 9.909 9.909 0 012.913-7.009 9.97 9.97 0 017.031-2.903h80.204v20.46z" fill="#2B478B"/><path d="M513.021 291.667h-90.553a10.35 10.35 0 01-7.31-3.018 10.288 10.288 0 01-3.029-7.287v-.082a10.06 10.06 0 012.961-7.125 10.127 10.127 0 017.149-2.952h90.783v20.464h-.001z" fill="#FCECDB"/><path d="M406.081 291.669h110.083a1.535 1.535 0 001.54-1.534 1.535 1.535 0 00-1.54-1.534H406.081a1.54 1.54 0 00-1.539 1.534 1.54 1.54 0 001.539 1.534zm0-17.412h110.083a1.542 1.542 0 001.54-1.535 1.535 1.535 0 00-1.54-1.534H406.081c-.408 0-.799.162-1.088.449a1.531 1.531 0 000 2.17c.289.288.68.45 1.088.45z" fill="#2B478B"/><path d="M513.021 281.435l-12.232.344 12.232.209v-.553zm-.001-4.71l-29.101.345 29.101.207v-.552z" fill="#F4D2B8"/><path d="M484.219 277.001s1.247.879 1.659 2.325c.077.263.121.535.131.809.069 1.918 0 6.266 0 6.266l3.681-2.173 3.673 2.173v-5.89c0-1.114-.316-2.198-.9-2.908-.283-.343-.628-.602-1.018-.602h-7.226z" fill="#699DEE"/><path d="M484.219 277.001s1.247.879 1.659 2.325l7.379.086s-.288-2.069-1.812-2.411h-7.226z" fill="#568CDB"/><path d="M494.5 245.001h-81.293a12.075 12.075 0 01-8.524-3.519 11.995 11.995 0 01-3.531-8.496v-6.304a11.72 11.72 0 013.452-8.308 11.805 11.805 0 018.335-3.441H494.5v30.068z" fill="#FCECDB"/><path d="M403.065 226.599v6.471a7.46 7.46 0 001.038 3.731 7.492 7.492 0 002.772 2.713c1.145.65 2.44.991 3.757.99h88.282a1.87 1.87 0 011.875 1.866v.767a1.87 1.87 0 01-1.875 1.866H346.405a12.938 12.938 0 01-9.134-3.771 12.854 12.854 0 01-3.783-9.104v-5.105c0-3.204 1.277-6.278 3.55-8.544a12.144 12.144 0 018.572-3.539h153.299a1.879 1.879 0 011.731 1.152c.094.226.143.469.143.715v.767a1.87 1.87 0 01-1.874 1.868h-88.552a7.33 7.33 0 00-5.37 2.334 7.128 7.128 0 00-1.922 4.823z" fill="#B5453C"/><path d="M494.5 229.967l-11.318.506 11.318.303v-.809zm0-6.92l-26.925.507 26.925.303v-.81z" fill="#F4D2B8"/><path d="M467.852 223.452s1.778.959 2.365 2.522c.112.28.177.576.192.877.098 2.081 0 6.795 0 6.795l5.248-2.357 5.231 2.357v-6.389c0-1.206-.448-2.382-1.283-3.151a2.17 2.17 0 00-1.449-.654h-10.304z" fill="#F99746"/><path d="M467.852 223.452s1.778.959 2.365 2.522l10.514.092s-.412-2.244-2.583-2.614h-10.296z" fill="#ED7D2B"/><path d="M414.621 203.784c4.653 8.073 10.504 11.187 10.504 11.187h24.349s-38.403-17.345-34.853-11.187z" fill="#233862"/><path d="M433.328 266.238c.635.725.716 1.534.402 2.399a.033.033 0 010 .014c-.577 1.599-2.501 3.385-4.728 5.178a23.89 23.89 0 00-.758.631l-.171.151-.131.119c-2.078 1.909-1.295 2.346-5.03 6.222-4.256 4.411-7.186 4.493-8.022 4.091-.704-.344.73-2.685 2.309-5.317.077-.126.152-.255.231-.383.212-.349.422-.704.633-1.057 1.861-3.166 1.382-4.653.941-9.367-.358-3.836-5.978-21.4-5.978-21.4l8.158-1.4s2.456 13.989 5.163 16.145c1.447 1.151 3.067 1.162 4.458 2.014.1.059.193.119.291.182.783.512 1.587 1.051 2.232 1.778z" fill="#FFB27D"/><path d="M433.328 266.238c.635.725.716 1.534.402 2.399a.033.033 0 010 .014c-.71 1.597-2.58 3.373-4.735 5.153-.281.232-.529.445-.75.646l-.172.152-.131.119c-2.078 1.908-1.295 2.345-5.029 6.221-4.257 4.411-7.187 4.494-8.022 4.091-.705-.343.729-2.685 2.309-5.316a18.119 18.119 0 007.589-5.574c2.563-3.26 4.271-7.449 6.017-9.875.1.06.192.119.29.182.783.522 1.588 1.061 2.232 1.788z" fill="#233862"/><path d="M367.538 261.159c-.504 2.511-4.093 2.093-8.103 1.115s-3.057.191-8.764-.445c-5.708-.637-7.437-2.751-7.613-3.596-.155-.752 2.665-1.017 5.69-1.364.385-.042.77-.087 1.155-.136 3.415-.428 5.917-2.624 9.019-4.427 2.938-1.708 7.323-8.67 7.323-8.67l7.828.617s-4.109 6.218-5.696 8.922c-.935 1.59-.885 3.692-.77 5.317.052.882.106 1.783-.069 2.667z" fill="#FFB27D"/><path d="M359.439 262.274c-4.012-.976-3.057.191-8.765-.445-5.707-.637-7.437-2.75-7.612-3.596-.156-.752 2.665-1.017 5.69-1.364l.029.06a16.137 16.137 0 008.174 2.531c3.871.094 7.974-1.012 10.647-.959.061.882.119 1.784-.06 2.668-.508 2.501-4.097 2.083-8.103 1.105zm38.099-51l7.312 19.625 9.554 25.625s2.591.249 5.074-.462c2.286-.66 4.908-2.382 4.908-2.382s-2.651-27.514-7.6-43.308c-1.268-4.054-2.694-7.332-4.259-9.179-7.667-9.035-14.989 10.081-14.989 10.081z" fill="#233862"/><path d="M404.975 180.106c4.793-1.534 18.472.437 32.2 3.119l2.886-4.728 29.665-2.301s9.79 21.637 4.426 35.423c-.789 2.027-2.353 3.327-5.022 3.37h-23.824c-14.753 0-31.222-10.11-33.354-10.533-3.486-.697-4.881 6.256-8.368 13.555-3.487 7.3-32.792 32.309-32.792 32.309s-4.503.044-6.363-.652c-2-.746-2.733-1.726-2.733-1.726s32.467-64.359 43.279-67.836z" fill="#2B478B"/><path d="M440.226 137.777c10.564 5.797 31.994 17.815 32.106 17.738 0 0 7.877 2.958 12.345 0 7.449-4.931 11.443-18.199-2.178-29.618-6.794-5.696-11.62-7.08-12.353-16.175-.399-4.933-7.164-21.214-18.405-19.708-.941.125-6.723.395-10.524 2.384-9.682 5.069-16.829 43.135-.991 45.379z" fill="#233862"/><path d="M449.079 132.842c-.046.029 5.196 1.814 8.705.265 3.298-1.452 5.798-6.863 5.748-6.864-1.499-.07-3.148-1.377-4.416-9.958l-.639.228-10.745 3.853s.77 3.437 1.282 6.713c.425 2.742.652 5.374.065 5.763z" fill="#FFB27D"/><path d="M447.732 120.366s.77 3.437 1.282 6.713c6.173-1.109 8.593-7.237 9.463-10.562l-10.745 3.849z" fill="#ED975D"/><path d="M446.134 123.778s14.699-1.968 13.328-11.074c-1.37-9.106-.394-15.49-9.838-14.62-9.444.871-10.739 4.617-11.024 7.768-.284 3.151 3.674 18.202 7.534 17.926z" fill="#FFB27D"/><path d="M439.135 100.859s9.412 8.084 15.811 8.736c6.4.652 8.825-1.398 8.825-1.398a24.89 24.89 0 01-6.044-8.16 4.49 4.49 0 00-1.494-1.826 4.511 4.511 0 00-2.216-.82c-4.57-.392-13.235-.57-14.882 3.468z" fill="#233862"/><path d="M445.018 100.136s-3.148 3.034-4.139 5.284c-.962 2.171-1.243 7.365-.481 9.428 0 0-4.905-9.506-2.128-14.125 2.948-4.896 6.748-.587 6.748-.587z" fill="#233862"/><path d="M436.701 154.424c.445 29.658.123 23.461 3.377 26.275.785.679 2.99 1.081 5.892 1.273 9.124.604 25.162-.896 25.772-2.576 2.106-5.815.62-7.621 2.375-16.524.192-.947.41-1.972.675-3.088 1.465-6.116 2.887-8.195-2.309-18.028-4.708-8.899-9.601-16.122-10.042-15.861-12.426 7.353-13.429 1.174-13.429 1.174s-12.528 12.888-12.311 27.355z" fill="#fff"/><path d="M404.85 230.899l9.554 25.625s2.592.249 5.074-.462c2.286-.66 4.908-2.382 4.908-2.382s-2.651-27.514-7.6-43.308l-11.936 20.527z" fill="#2B478B"/><path d="M449.014 127.075s-12.786 2.159-14.287 7.648l-10.339 37.746s6.5 1.164 9.504-1.828c3.003-2.992 10.45-27.771 10.45-27.771l4.672-15.795z" fill="#fff"/><path d="M445.97 181.972c9.124.604 25.162-.895 25.772-2.575 2.105-5.815.62-7.622 2.375-16.525l-4.401-12.353s.728 13.755-3.342 17.372c-4.07 3.617-16.662 6.985-18.64 10.008-.954 1.45-1.581 2.905-1.764 4.073z" fill="#EBF3FF"/><path d="M456.419 176.188s-9.002-1.999-10.455-1.203c-1.452.796-5.002 3.696-5.447 4.705-.444 1.009 3.235-.767 4.426-1.086.769-.207 2.815.499 3.825.835 4.247 1.411 6.85.686 6.85.686l.801-3.937z" fill="#FFB27D"/><path d="M462.453 125.897s12.085.742 16.271 6.559c5.889 8.188 17.573 43.084 10.877 47.738-7.541 5.24-34.322 1.37-34.322 1.37s-.891-4.151.348-6.161c1.24-2.01 21.392-5.251 22.321-6.179.929-.928-11.624-18.074-11.624-20.855 0-2.781-3.871-22.472-3.871-22.472z" fill="#fff"/><path d="M445.534 177.482s-1.886 2.427-2.502 2.714a1.867 1.867 0 01-1.018.219l1.27-2.28 2.25-.653zm.436-2.497l-5.484 2.655s.233.383.908.349c.675-.035 2.378-.65 2.378-.65l2.198-2.354z" fill="#FFB27D"/><path d="M443.03 183.911h-43.377l-13.05-32.341h43.312l13.115 32.341z" fill="#F99746"/><path d="M399.143 182.651h57.281v1.26h-56.771l-.51-1.26z" fill="#ED7D2B"/><path d="M410.601 167.741c-.327-1.137.333-2.059 1.474-2.059s2.331.922 2.658 2.059c.327 1.138-.333 2.058-1.474 2.058s-2.331-.922-2.658-2.058z" fill="#fff"/><path d="M48.842 196.613l-.924.639a2.182 2.182 0 01-3.028-.547l-5.373-7.727a2.166 2.166 0 01.549-3.019l1.324-.912a.414.414 0 01.32-.075.413.413 0 01.345.33.421.421 0 01-.18.441l-1.322.915a1.32 1.32 0 00-.335 1.837l5.372 7.725a1.328 1.328 0 001.843.334l.924-.639a1.32 1.32 0 00.335-1.837l-3.568-5.129a.42.42 0 01.108-.59.428.428 0 01.593.107l3.565 5.129a2.159 2.159 0 01.042 2.41 2.173 2.173 0 01-.59.608z" fill="#AFCDFB"/><path d="M54.732 204.233l-1.657 1.151c-1.54 1.062-3.717.591-4.858-1.051l-8.082-11.615a.425.425 0 01.428-.644.426.426 0 01.272.159l8.082 11.616c.873 1.259 2.523 1.633 3.673.839l1.657-1.151c1.154-.796 1.378-2.467.502-3.723l-9.2-13.233c-.875-1.256-2.522-1.632-3.675-.838a.433.433 0 01-.478.015.431.431 0 01-.19-.438.424.424 0 01.183-.274c1.54-1.062 3.718-.59 4.86 1.052l9.2 13.233c1.142 1.64.82 3.84-.717 4.902zm11.112 60.666l.192 1.636a3.19 3.19 0 01-.658 2.353 3.208 3.208 0 01-2.134 1.201l-13.767 1.674a3.213 3.213 0 01-2.36-.656 3.195 3.195 0 01-1.206-2.127l-.285-2.343a.623.623 0 01.55-.676.623.623 0 01.695.526l.285 2.344a1.95 1.95 0 002.169 1.693l13.775-1.666c.513-.063.98-.326 1.298-.731a1.94 1.94 0 00.401-1.431l-.192-1.636a1.943 1.943 0 00-.733-1.294 1.956 1.956 0 00-1.436-.401l-9.144 1.107a.624.624 0 11-.15-1.239l9.144-1.107a3.217 3.217 0 012.35.657c.666.52 1.1 1.28 1.206 2.116z" fill="#AFCDFB"/><path d="M79.833 262.491l.358 2.932c.33 2.723-1.782 5.228-4.709 5.581l-20.708 2.505a.638.638 0 01-.621-.313.623.623 0 01.469-.926l20.71-2.505c2.242-.272 3.862-2.152 3.614-4.191l-.356-2.934c-.248-2.039-2.275-3.479-4.516-3.207l-23.589 2.854c-2.242.271-3.864 2.15-3.614 4.191a.623.623 0 01-.55.676.624.624 0 01-.695-.527c-.33-2.723 1.78-5.226 4.709-5.581l23.587-2.853c2.928-.353 5.58 1.574 5.91 4.298z" fill="#AFCDFB"/><path d="M304.309 71.053a1.909 1.909 0 00-3.715-.874 1.909 1.909 0 003.715.874z" fill="#F99746"/></svg>