<svg width="274" height="371" fill="none" xmlns="http://www.w3.org/2000/svg"><g clip-path="url(#clip0)"><path d="M257.972 354.733H16.852V17.699h241.12v337.034z" fill="#DCDCDC"/><path d="M242.115 94.213v277.731H6V35h178.839l57.276 59.213z" fill="#F3F3F3"/><path d="M242.115 94.214h-57.243V34.899l57.243 59.315z" fill="#EEE"/><path d="M207.25 112.064H39.135v10.937H207.25v-10.937zm.568 27.636H39.135v3.126h168.683V139.7zm0 11.556H39.135v3.126h168.683v-3.126zm-84.337 11.652H39.135v3.126h84.346v-3.126zm84.337 11.651H39.135v3.126h168.683v-3.126zm0 11.652H39.135v3.126h168.683v-3.126zm-84.337 11.662H39.135v3.126h84.346v-3.126zm46.091 11.652H39.135v3.126h130.437v-3.126zm0 11.652H39.135v3.126h130.437v-3.126zm38.246 11.651H39.135v3.126h168.683v-3.126zm0 11.652H39.135v3.126h168.683v-3.126zm0 11.641H39.135v3.126h168.683v-3.126zm-86.279 11.662H39.135v3.126h82.404v-3.126z" fill="#CAC8C8"/></g><path d="M97 35H6v91l91-91z" fill="url(#paint0_linear)"/><path d="M19.903 83.03a.58.58 0 01.028.323.493.493 0 01-.142.243.717.717 0 01-.339.17c-.154.034-.332.08-.532.136a3.58 3.58 0 00-.645.26c-.23.11-.462.28-.695.515-.212.21-.37.422-.476.633a1.647 1.647 0 00-.186.605c-.015.197.015.385.09.566.072.177.183.342.334.492.192.193.405.3.64.323.237.019.49-.015.757-.102a5.59 5.59 0 00.849-.362c.298-.155.605-.307.922-.458.317-.159.643-.296.979-.413a3.27 3.27 0 011.012-.198c.34-.015.68.043 1.024.175.347.128.69.362 1.03.702.37.37.652.78.848 1.233.196.445.292.91.289 1.397a3.728 3.728 0 01-.323 1.454c-.215.486-.549.956-1.001 1.408-.26.26-.543.49-.849.69a5.618 5.618 0 01-.944.515c-.325.136-.655.24-.99.311a4.65 4.65 0 01-.979.097l-.288-1.171a.761.761 0 01.017-.278.518.518 0 01.141-.254c.094-.094.236-.157.424-.187.185-.034.398-.077.64-.13.245-.056.507-.145.786-.266.279-.128.56-.334.843-.616.433-.434.667-.872.701-1.313.03-.445-.147-.86-.532-1.244-.215-.215-.445-.336-.69-.362a1.756 1.756 0 00-.763.084 4.34 4.34 0 00-.843.368c-.29.162-.59.323-.9.481-.309.158-.63.298-.961.419-.332.12-.672.184-1.019.192a2.715 2.715 0 01-1.063-.204c-.362-.15-.73-.413-1.103-.786a3.196 3.196 0 01-.696-1.046 3.23 3.23 0 01-.232-1.273 3.68 3.68 0 01.317-1.37c.2-.463.513-.908.939-1.334a5.395 5.395 0 011.561-1.109 4.263 4.263 0 011.675-.407l.345 1.092zm15.563-2.179l-1.176 1.177a.76.76 0 01-.425.232.836.836 0 01-.43-.068l-2.28-1.058-3.388 3.388 1.058 2.28a.748.748 0 01.057.419.692.692 0 01-.215.43l-1.183 1.182-4.966-11.393 1.555-1.556 11.393 4.967zm-8.383 2.206l2.608-2.608-3.717-1.725a27.83 27.83 0 01-.577-.271 19.97 19.97 0 01-.696-.38c.14.246.266.478.38.696.116.215.212.41.288.583l1.714 3.705zm9.938-10.55c.185.057.37.125.555.204.184.072.37.147.554.227a18.394 18.394 0 01-.238-.566 7.148 7.148 0 01-.198-.56l-2.11-6.952a.997.997 0 01-.045-.227c0-.067.012-.128.034-.18a.723.723 0 01.108-.165 3.31 3.31 0 01.17-.18l1.148-1.15 8.18 8.18-1.341 1.341-5.284-5.283a14.103 14.103 0 01-.316-.328c-.11-.125-.22-.253-.328-.385l2.166 7.11a.956.956 0 01.028.47.827.827 0 01-.232.402l-.209.21a.827.827 0 01-.401.231.955.955 0 01-.47-.028l-7.162-2.15c.14.11.272.223.396.34.125.11.238.215.34.317l5.283 5.283-1.34 1.34-8.18-8.18 1.148-1.148a3.31 3.31 0 01.181-.17.621.621 0 01.159-.101.436.436 0 01.186-.04c.068 0 .145.014.232.04l6.986 2.099zm8.5-7.469l2.878 2.88-1.521 1.521-8.18-8.18 2.664-2.664c.547-.547 1.084-.956 1.612-1.227.529-.272 1.038-.423 1.528-.453.49-.03.958.053 1.403.25.445.195.858.484 1.239.865.396.396.694.826.893 1.29.197.46.281.94.255 1.442-.026.502-.172 1.016-.436 1.544s-.662 1.058-1.193 1.59l-1.143 1.142zm-1.189-1.187l1.143-1.143c.279-.28.488-.556.628-.832a1.99 1.99 0 00.215-.814 1.779 1.779 0 00-.17-.78c-.12-.257-.296-.5-.526-.73a2.331 2.331 0 00-.696-.493 1.66 1.66 0 00-.758-.147 1.88 1.88 0 00-.797.232c-.276.14-.553.349-.832.628l-1.143 1.143 2.936 2.936zm9.832-4.21l3.275-3.274 1.256 1.255-4.797 4.797-8.18-8.18 1.522-1.521 6.924 6.924zm2.558-16.405l1.21 1.21-3.626 3.627 2.269 2.268 2.856-2.857 1.171 1.171-2.856 2.857 2.313 2.313 3.626-3.626 1.217 1.217-5.16 5.159-8.18-8.18 5.16-5.16z" fill="#fff"/><defs><linearGradient id="paint0_linear" x1="-.828" y1="-110.6" x2="254.223" y2="-40.905" gradientUnits="userSpaceOnUse"><stop stop-color="#3499FF"/><stop offset="1" stop-color="#3A3985"/></linearGradient><clipPath id="clip0"><path fill="#fff" transform="translate(.983)" d="M0 0h272.289v370.944H0z"/></clipPath></defs></svg>