<svg width="38" height="38" viewBox="0 0 38 38" fill="none" xmlns="http://www.w3.org/2000/svg">
<rect width="38" height="38" fill="url(#paint0_linear)"/>
<path d="M16.8296 13.9813C17.2547 13.8031 17.433 13.2956 17.241 12.8842L16.569 11.4717C16.377 11.0741 15.9107 10.8957 15.4993 11.0741C14.3336 11.5678 13.3325 12.2124 12.5371 12.9941C11.5634 13.9128 10.9051 14.9688 10.5486 16.1344C10.192 17.314 10 18.9184 10 20.9618V25.172C10 25.6245 10.3703 25.9948 10.8228 25.9948H16.2124C16.665 25.9948 17.0353 25.6245 17.0353 25.172V19.7824C17.0353 19.3297 16.665 18.9595 16.2124 18.9595H13.6342C13.6616 17.5743 13.9908 16.4636 14.5942 15.6269C15.0879 14.9552 15.8284 14.4066 16.8296 13.9813Z" fill="white"/>
<path d="M26.5121 13.9812C26.9373 13.803 27.1154 13.2955 26.9236 12.8841L26.2516 11.4854C26.0596 11.0877 25.5933 10.9094 25.1819 11.0877C24.0299 11.5814 23.0424 12.226 22.2334 12.994C21.2595 13.9265 20.5877 14.9825 20.231 16.1482C19.8744 17.3 19.6963 18.9047 19.6963 20.9618V25.172C19.6963 25.6246 20.0666 25.9948 20.5191 25.9948H25.9087C26.3613 25.9948 26.7316 25.6246 26.7316 25.172V19.7824C26.7316 19.3297 26.3613 18.9596 25.9087 18.9596H23.3168C23.3442 17.5743 23.6735 16.4636 24.2768 15.6269C24.7705 14.9551 25.511 14.4065 26.5121 13.9812Z" fill="white"/>
<defs>
<linearGradient id="paint0_linear" x1="-2.85139" y1="-60.8" x2="103.653" y2="-31.6966" gradientUnits="userSpaceOnUse">
<stop stop-color="#3499FF"/>
<stop offset="1" stop-color="#3A3985"/>
</linearGradient>
</defs>
</svg>
