<svg width="96" height="16" fill="none" xmlns="http://www.w3.org/2000/svg"><path fill-rule="evenodd" clip-rule="evenodd" d="M8 12l-4.702 2.472.898-5.236L.392 5.528l5.257-.764L8 0l2.351 4.764 5.257.764-3.804 3.708.898 5.236L8 12z" fill="url(#paint0_linear)"/><path fill-rule="evenodd" clip-rule="evenodd" d="M28 12l-4.702 2.472.898-5.236-3.805-3.708 5.258-.764L28 0l2.351 4.764 5.258.764-3.805 3.708.898 5.236L28 12z" fill="url(#paint1_linear)"/><path fill-rule="evenodd" clip-rule="evenodd" d="M48 12l-4.702 2.472.898-5.236-3.804-3.708 5.257-.764L48 0l2.351 4.764 5.258.764-3.805 3.708.898 5.236L48 12z" fill="url(#paint2_linear)"/><path fill-rule="evenodd" clip-rule="evenodd" d="M68 12l-4.702 2.472.898-5.236-3.804-3.708 5.257-.764L68 0l2.351 4.764 5.258.764-3.805 3.708.898 5.236L68 12z" fill="url(#paint3_linear)"/><path fill-rule="evenodd" clip-rule="evenodd" d="M88 12l-4.702 2.472.898-5.236-3.805-3.708 5.258-.764L88 0l2.351 4.764 5.258.764-3.805 3.708.898 5.236L88 12z" fill="url(#paint4_linear)"/><defs><linearGradient id="paint0_linear" x1="17.896" y1="12.107" x2="10.742" y2="2.219" gradientUnits="userSpaceOnUse"><stop stop-color="#FFA200"/><stop offset=".976" stop-color="#FFBE1E"/></linearGradient><linearGradient id="paint1_linear" x1="37.896" y1="12.107" x2="30.742" y2="2.219" gradientUnits="userSpaceOnUse"><stop stop-color="#A3BAD4"/><stop offset=".976" stop-color="#C0D4EA"/></linearGradient><linearGradient id="paint2_linear" x1="57.896" y1="12.107" x2="50.742" y2="2.219" gradientUnits="userSpaceOnUse"><stop stop-color="#A3BAD4"/><stop offset=".976" stop-color="#C0D4EA"/></linearGradient><linearGradient id="paint3_linear" x1="77.896" y1="12.107" x2="70.742" y2="2.219" gradientUnits="userSpaceOnUse"><stop stop-color="#A3BAD4"/><stop offset=".976" stop-color="#C0D4EA"/></linearGradient><linearGradient id="paint4_linear" x1="97.896" y1="12.107" x2="90.742" y2="2.219" gradientUnits="userSpaceOnUse"><stop stop-color="#A3BAD4"/><stop offset=".976" stop-color="#C0D4EA"/></linearGradient></defs></svg>