<svg width="120" height="20" fill="none" xmlns="http://www.w3.org/2000/svg"><path fill-rule="evenodd" clip-rule="evenodd" d="M10 15l-5.878 3.09 1.123-6.545L.489 6.91l6.572-.955L10 0l2.939 5.955 6.572.955-4.756 4.635 1.123 6.545L10 15z" fill="url(#paint0_linear)"/><path fill-rule="evenodd" clip-rule="evenodd" d="M35 15l-5.878 3.09 1.123-6.545-4.756-4.635 6.572-.955L35 0l2.939 5.955 6.572.955-4.756 4.635 1.123 6.545L35 15z" fill="url(#paint1_linear)"/><path fill-rule="evenodd" clip-rule="evenodd" d="M60 15l-5.878 3.09 1.123-6.545-4.756-4.635 6.572-.955L60 0l2.939 5.955 6.572.955-4.756 4.635 1.123 6.545L60 15z" fill="url(#paint2_linear)"/><path fill-rule="evenodd" clip-rule="evenodd" d="M85 15l-5.878 3.09 1.123-6.545-4.756-4.635 6.572-.955L85 0l2.939 5.955 6.572.955-4.756 4.635 1.123 6.545L85 15z" fill="url(#paint3_linear)"/><path fill-rule="evenodd" clip-rule="evenodd" d="M110 15l-5.878 3.09 1.123-6.545-4.756-4.635 6.572-.955L110 0l2.939 5.955 6.572.955-4.756 4.635 1.123 6.545L110 15z" fill="url(#paint4_linear)"/><defs><linearGradient id="paint0_linear" x1="22.37" y1="15.134" x2="13.428" y2="2.773" gradientUnits="userSpaceOnUse"><stop stop-color="#FFA200"/><stop offset=".976" stop-color="#FFBE1E"/></linearGradient><linearGradient id="paint1_linear" x1="47.37" y1="15.134" x2="38.428" y2="2.773" gradientUnits="userSpaceOnUse"><stop stop-color="#FFA200"/><stop offset=".976" stop-color="#FFBE1E"/></linearGradient><linearGradient id="paint2_linear" x1="72.37" y1="15.134" x2="63.428" y2="2.773" gradientUnits="userSpaceOnUse"><stop stop-color="#FFA200"/><stop offset=".976" stop-color="#FFBE1E"/></linearGradient><linearGradient id="paint3_linear" x1="97.37" y1="15.134" x2="88.428" y2="2.773" gradientUnits="userSpaceOnUse"><stop stop-color="#A3BAD4"/><stop offset=".976" stop-color="#C0D4EA"/></linearGradient><linearGradient id="paint4_linear" x1="122.37" y1="15.134" x2="113.428" y2="2.773" gradientUnits="userSpaceOnUse"><stop stop-color="#A3BAD4"/><stop offset=".976" stop-color="#C0D4EA"/></linearGradient></defs></svg>