<svg width="35" height="35" fill="none" xmlns="http://www.w3.org/2000/svg"><g clip-path="url(#clip0)"><path d="M17.5 35C27.167 35 35 27.165 35 17.5S27.167 0 17.5 0C7.837 0 .002 7.835.002 17.5S7.836 35 17.501 35z" fill="#55ACEE"/><path d="M28.22 12.577a8.35 8.35 0 01-2.403.658 4.195 4.195 0 001.84-2.314A8.374 8.374 0 0125 11.936a4.184 4.184 0 00-7.128 3.816A11.874 11.874 0 019.25 11.38a4.183 4.183 0 001.294 5.585 4.152 4.152 0 01-1.894-.524v.053a4.185 4.185 0 003.355 4.102 4.168 4.168 0 01-1.889.072 4.187 4.187 0 003.908 2.905 8.392 8.392 0 01-5.196 1.79c-.337 0-.67-.02-.997-.058a11.832 11.832 0 006.412 1.88c7.694 0 11.901-6.374 11.901-11.902 0-.182-.004-.362-.012-.541a8.484 8.484 0 002.088-2.165z" fill="#fff"/></g><defs><clipPath id="clip0"><path fill="#fff" d="M0 0h35v35H0z"/></clipPath></defs></svg>