<svg width="32" height="8" viewBox="0 0 32 8" fill="none" xmlns="http://www.w3.org/2000/svg">
<path d="M28.0651 0.133274C28.1538 0.0443845 28.2647 -6.10269e-05 28.3866 -6.10239e-05C28.5085 -6.10209e-05 28.6193 0.0443845 28.708 0.133274L31.867 3.29994C31.9557 3.38883 32 3.49994 32 3.62216C32 3.74438 31.9557 3.85549 31.867 3.94438L28.708 7.11105C28.6193 7.19994 28.5085 7.24438 28.3866 7.24438C28.2647 7.24438 28.1538 7.19994 28.0651 7.11105C27.9765 7.02216 27.9321 6.91105 27.9321 6.78883L27.9321 0.455495C27.9321 0.333273 27.9765 0.222163 28.0651 0.133274Z" fill="#EB597C"/>
<rect y="3.24445" width="27.9321" height="1" fill="#EB597C"/>
</svg>
