<svg width="32" height="8" viewBox="0 0 32 8" fill="none" xmlns="http://www.w3.org/2000/svg">
<path d="M28.0651 0.133335C28.1538 0.0444455 28.2647 7.8101e-09 28.3866 1.06738e-08C28.5085 1.35375e-08 28.6193 0.0444455 28.708 0.133335L31.867 3.3C31.9557 3.38889 32 3.5 32 3.62222C32 3.74445 31.9557 3.85556 31.867 3.94444L28.708 7.11111C28.6193 7.2 28.5085 7.24445 28.3866 7.24445C28.2647 7.24445 28.1538 7.2 28.0651 7.11111C27.9765 7.02222 27.9321 6.91111 27.9321 6.78889L27.9321 0.455556C27.9321 0.333334 27.9765 0.222224 28.0651 0.133335Z" fill="white"/>
<rect y="3.24445" width="27.9321" height="1" fill="white"/>
</svg>
