<svg width="48" height="48" viewBox="0 0 48 48" fill="none" xmlns="http://www.w3.org/2000/svg">
<path d="M44.5775 25.5714L44.5783 25.5708L35.8406 14.1823C35.7881 14.1139 35.7205 14.0584 35.6431 14.0203C35.5658 13.9821 35.4806 13.9623 35.3944 13.9623H12.6061C12.5198 13.9623 12.4347 13.9821 12.3573 14.0203C12.2799 14.0584 12.2124 14.1139 12.1598 14.1823L3.42187 25.5708L3.42272 25.5714C3.33867 25.6791 3.29709 25.8139 3.30587 25.9502C3.31465 26.0865 3.37318 26.2148 3.47034 26.3108L23.6022 46.443C23.6545 46.4952 23.7165 46.5367 23.7847 46.565C23.853 46.5932 23.9261 46.6078 24 46.6078C24.0739 46.6078 24.147 46.5932 24.2153 46.565C24.2835 46.5367 24.3455 46.4952 24.3978 46.443L44.5298 26.3108C44.627 26.2148 44.6855 26.0865 44.6943 25.9502C44.7031 25.8139 44.6615 25.6791 44.5775 25.5714ZM34.7087 15.0873L32.8154 24.6192L25.1719 15.0873H34.7087ZM31.9598 25.3507H16.0406L24 15.4238L31.9598 25.3507ZM22.8281 15.0873L15.1846 24.6192L13.2913 15.0873H22.8281ZM12.2965 15.8525L14.1831 25.3507H5.0085L12.2965 15.8525ZM5.2259 26.4757H14.5056L22.2094 43.4589L5.2259 26.4757ZM24 44.6836L15.7406 26.4757H32.2594L24 44.6836ZM25.7906 43.4589L33.4942 26.4757H42.7739L25.7906 43.4589ZM33.8169 25.3507L35.7035 15.8525L42.9913 25.3507H33.8169Z" fill="#38B0B0"/>
<path d="M13.1124 8.06672L16.0852 8.49872L17.4145 11.1925C17.461 11.2867 17.5328 11.3659 17.622 11.4213C17.7111 11.4767 17.814 11.5061 17.9189 11.5061C18.0239 11.5061 18.1268 11.4767 18.2159 11.4213C18.3051 11.3659 18.3769 11.2867 18.4234 11.1925L19.7531 8.49872L22.7258 8.06672C22.8297 8.05162 22.9273 8.00777 23.0075 7.94011C23.0877 7.87246 23.1475 7.7837 23.1799 7.68389C23.2123 7.58407 23.2162 7.47717 23.191 7.37527C23.1659 7.27337 23.1127 7.18055 23.0376 7.10729L20.8862 5.01047L21.394 2.04985C21.4117 1.94643 21.4002 1.84013 21.3606 1.74294C21.3211 1.64576 21.2552 1.56157 21.1703 1.49989C21.0854 1.43821 20.985 1.40149 20.8803 1.39389C20.7757 1.38629 20.671 1.40811 20.5781 1.45688L17.919 2.85469L15.2601 1.45688C15.1672 1.40806 15.0625 1.3862 14.9578 1.39377C14.8531 1.40135 14.7526 1.43805 14.6677 1.49974C14.5828 1.56143 14.5169 1.64564 14.4773 1.74286C14.4378 1.84007 14.4262 1.94641 14.444 2.04985L14.9517 5.01047L12.8007 7.10729C12.7256 7.18055 12.6724 7.27337 12.6473 7.37527C12.6221 7.47717 12.626 7.58407 12.6584 7.68389C12.6908 7.7837 12.7505 7.87246 12.8308 7.94011C12.911 8.00777 13.0086 8.05162 13.1124 8.06672ZM15.9487 5.60972C16.0141 5.54606 16.0629 5.46746 16.0911 5.3807C16.1193 5.29394 16.126 5.20163 16.1106 5.11172L15.7449 2.98294L17.6568 3.98804C17.7375 4.03052 17.8273 4.05272 17.9185 4.05272C18.0097 4.05272 18.0996 4.03052 18.1803 3.98804L20.0921 2.98294L19.7265 5.11172C19.7111 5.20162 19.7177 5.29393 19.7459 5.38069C19.7741 5.46744 19.8229 5.54605 19.8882 5.60972L21.4351 7.11732L19.2976 7.42791C19.2073 7.44103 19.1216 7.4759 19.0478 7.52952C18.974 7.58313 18.9144 7.65389 18.874 7.73569L17.9178 9.67257L16.9615 7.73569C16.9212 7.6539 16.8616 7.58315 16.7878 7.52954C16.714 7.47592 16.6283 7.44104 16.5381 7.42791L14.4006 7.11732L15.9487 5.60972Z" fill="#38B0B0"/>
<path d="M5.25252 15.9645C5.29896 16.0586 5.37081 16.1379 5.45994 16.1933C5.54907 16.2487 5.65193 16.2781 5.75689 16.2781C5.86186 16.2781 5.96474 16.2487 6.05389 16.1933C6.14304 16.1379 6.21491 16.0586 6.26136 15.9645L7.59083 13.2709L10.5635 12.8388C10.6673 12.8236 10.7648 12.7798 10.8451 12.7121C10.9253 12.6444 10.985 12.5557 11.0174 12.4559C11.0498 12.356 11.0536 12.2492 11.0285 12.1473C11.0033 12.0454 10.9501 11.9526 10.875 11.8793L8.72417 9.78261L9.23202 6.82189C9.24978 6.71843 9.23824 6.61206 9.1987 6.51482C9.15917 6.41758 9.09321 6.33334 9.00828 6.27163C8.92336 6.20992 8.82287 6.17321 8.71817 6.16565C8.61347 6.15808 8.50874 6.17997 8.41583 6.22882L5.75689 7.62682L3.09805 6.22882C3.00514 6.17997 2.90041 6.15808 2.79571 6.16565C2.69101 6.17321 2.59051 6.20992 2.50559 6.27163C2.42067 6.33334 2.35471 6.41758 2.31517 6.51482C2.27563 6.61206 2.26409 6.71843 2.28186 6.82189L2.7897 9.78261L0.638608 11.8793C0.563454 11.9526 0.510295 12.0454 0.485142 12.1473C0.459989 12.2492 0.463846 12.3561 0.496277 12.4559C0.528708 12.5557 0.588419 12.6445 0.668658 12.7122C0.748897 12.7798 0.846464 12.8237 0.950327 12.8388L3.92305 13.2709L5.25252 15.9645ZM3.78673 10.3818C3.85203 10.3181 3.90087 10.2395 3.92905 10.1528C3.95722 10.066 3.96388 9.97374 3.94845 9.88386L3.58339 7.75507L5.49514 8.76008C5.57585 8.80256 5.66568 8.82476 5.75689 8.82476C5.8481 8.82476 5.93793 8.80256 6.01864 8.76008L7.93048 7.75507L7.56561 9.88386C7.55019 9.97375 7.55687 10.066 7.58506 10.1528C7.61325 10.2395 7.66211 10.3181 7.72742 10.3818L9.2743 11.8894L7.1368 12.2C7.04656 12.2132 6.96086 12.248 6.88709 12.3016C6.81332 12.3552 6.75369 12.426 6.71333 12.5077L5.75708 14.4445L4.80083 12.5077C4.76047 12.426 4.70084 12.3552 4.62706 12.3016C4.55329 12.248 4.4676 12.2132 4.37736 12.2L2.23986 11.8894L3.78673 10.3818Z" fill="#38B0B0"/>
<path d="M25.2745 8.06672L28.2469 8.49872L29.5764 11.1925C29.6228 11.2867 29.6947 11.3659 29.7838 11.4213C29.8729 11.4767 29.9758 11.5061 30.0808 11.5061C30.1857 11.5061 30.2886 11.4767 30.3778 11.4213C30.4669 11.3659 30.5388 11.2867 30.5852 11.1925L31.9146 8.49872L34.8873 8.06672C34.9912 8.05162 35.0887 8.00776 35.169 7.94011C35.2492 7.87245 35.3089 7.7837 35.3413 7.68388C35.3738 7.58406 35.3776 7.47716 35.3525 7.37526C35.3273 7.27337 35.2742 7.18054 35.199 7.10728L33.0483 5.01047L33.556 2.04984C33.5737 1.94646 33.5621 1.84021 33.5226 1.74307C33.4831 1.64592 33.4172 1.56177 33.3324 1.5001C33.2475 1.43843 33.1471 1.4017 33.0426 1.39406C32.938 1.38642 32.8333 1.40818 32.7404 1.45687L30.081 2.85468L27.4219 1.45687C27.329 1.40802 27.2243 1.38614 27.1196 1.3937C27.0149 1.40127 26.9144 1.43797 26.8295 1.49966C26.7446 1.56136 26.6786 1.64558 26.6391 1.74281C26.5995 1.84004 26.588 1.94639 26.6057 2.04984L27.1135 5.01047L24.9627 7.10728C24.8876 7.18054 24.8344 7.27337 24.8093 7.37526C24.7841 7.47716 24.788 7.58406 24.8204 7.68388C24.8528 7.7837 24.9125 7.87245 24.9928 7.94011C25.073 8.00776 25.1706 8.05162 25.2745 8.06672ZM28.1109 5.60972C28.1762 5.54604 28.225 5.46744 28.2532 5.38068C28.2814 5.29392 28.288 5.20162 28.2726 5.11172L27.907 2.98293L29.8188 3.98803C29.8995 4.03051 29.9893 4.05271 30.0805 4.05271C30.1718 4.05271 30.2616 4.03051 30.3423 3.98803L32.2541 2.98293L31.889 5.11172C31.8735 5.20162 31.8802 5.29394 31.9084 5.38069C31.9366 5.46745 31.9855 5.54605 32.0508 5.60972L33.5977 7.11731L31.4602 7.4279C31.3699 7.44103 31.2842 7.47591 31.2104 7.52953C31.1367 7.58315 31.077 7.6539 31.0367 7.73568L30.0805 9.67256L29.1242 7.73568C29.0838 7.65389 29.0242 7.58313 28.9504 7.52951C28.8766 7.47589 28.7909 7.44102 28.7006 7.4279L26.5631 7.11731L28.1109 5.60972Z" fill="#38B0B0"/>
<path d="M45.2103 9.78261L45.7181 6.82189C45.7359 6.71843 45.7243 6.61206 45.6848 6.51482C45.6453 6.41758 45.5793 6.33334 45.4944 6.27163C45.4095 6.20992 45.309 6.17321 45.2043 6.16565C45.0996 6.15808 44.9948 6.17997 44.9019 6.22882L42.2431 7.62682L39.5841 6.22882C39.4912 6.17997 39.3865 6.15808 39.2818 6.16565C39.1771 6.17321 39.0766 6.20992 38.9917 6.27163C38.9068 6.33334 38.8408 6.41758 38.8013 6.51482C38.7617 6.61206 38.7502 6.71843 38.768 6.82189L39.2758 9.78261L37.125 11.8793C37.0498 11.9526 36.9967 12.0454 36.9715 12.1473C36.9464 12.2492 36.9502 12.3561 36.9827 12.456C37.0151 12.5558 37.0748 12.6445 37.1551 12.7122C37.2353 12.7798 37.3329 12.8237 37.4368 12.8388L40.4094 13.2709L41.7389 15.9645C41.7853 16.0586 41.8572 16.1379 41.9463 16.1933C42.0355 16.2487 42.1384 16.2781 42.2433 16.2781C42.3483 16.2781 42.4511 16.2487 42.5403 16.1933C42.6294 16.1379 42.7013 16.0586 42.7477 15.9645L44.0772 13.2709L47.0499 12.8388C47.1538 12.8237 47.2514 12.7798 47.3316 12.7122C47.4118 12.6445 47.4715 12.5557 47.504 12.4559C47.5364 12.3561 47.5403 12.2492 47.5151 12.1473C47.49 12.0454 47.4368 11.9526 47.3616 11.8793L45.2103 9.78261ZM43.6224 12.2C43.5322 12.2132 43.4465 12.248 43.3727 12.3016C43.299 12.3552 43.2393 12.426 43.199 12.5077L42.2427 14.4445L41.2865 12.5077C41.2461 12.426 41.1865 12.3552 41.1127 12.3016C41.0389 12.248 40.9532 12.2132 40.863 12.2L38.7255 11.8894L40.2724 10.3818C40.3377 10.3181 40.3865 10.2395 40.4147 10.1528C40.4429 10.066 40.4496 9.97375 40.4342 9.88386L40.069 7.75507L41.9812 8.76008C42.0619 8.80256 42.1518 8.82476 42.243 8.82476C42.3342 8.82476 42.424 8.80256 42.5047 8.76008L44.4165 7.75507L44.0514 9.88386C44.036 9.97374 44.0427 10.066 44.0708 10.1528C44.099 10.2395 44.1478 10.3181 44.2131 10.3818L45.76 11.8894L43.6224 12.2Z" fill="#38B0B0"/>
</svg>
