<svg width="48" height="45" viewBox="0 0 48 45" fill="none" xmlns="http://www.w3.org/2000/svg">
<path d="M34.552 31.8125H21.0532C20.6727 31.8125 20.3643 32.1274 20.3643 32.5159C20.3643 32.9044 20.6727 33.2192 21.0532 33.2192H34.552C37.2111 33.2192 39.3745 31.0107 39.3745 28.2962V17.7357C39.3745 15.0212 37.2111 12.8127 34.552 12.8127H30.6401L21.7503 8.18023C20.8634 7.71823 19.7738 8.07898 19.3212 8.98394L17.4067 12.8127H14.8559C13.9695 12.8127 13.2484 13.5488 13.2484 14.4537V31.5781C13.2484 32.4829 13.9695 33.2191 14.8559 33.2191H18.0229C18.4035 33.2191 18.7119 32.9043 18.7119 32.5158C18.7119 32.1273 18.4035 31.8124 18.0229 31.8124H14.8559C14.7293 31.8124 14.6262 31.7074 14.6262 31.578V14.4536C14.6262 14.3243 14.7292 14.2191 14.8559 14.2191H34.5519C36.4513 14.2191 37.9966 15.7966 37.9966 17.7356V20.0224H32.509C30.7516 20.0224 29.3219 21.4819 29.3219 23.2759V24.2133C29.3219 26.0073 30.7516 27.4668 32.509 27.4668H37.9966V28.2958C37.9967 30.235 36.4514 31.8125 34.552 31.8125ZM20.5485 9.62351C20.6558 9.40901 20.9138 9.32369 21.124 9.43301L27.6096 12.8127H18.9538L20.5485 9.62351ZM32.509 26.0604C31.5113 26.0604 30.6997 25.2319 30.6997 24.2134V23.276C30.6997 22.2576 31.5113 21.4291 32.509 21.4291H37.9966V26.0604H32.509Z" fill="#272BA4"/>
<path d="M46.3417 13.9017C45.2413 11.176 43.6491 8.73087 41.6093 6.63452C41.1084 6.11974 40.5787 5.62465 40.0347 5.16293C39.7423 4.91496 39.3078 4.95546 39.0644 5.25415C38.8212 5.55284 38.8613 5.99627 39.1538 6.24462C39.6643 6.67784 40.1615 7.14246 40.6317 7.62574C44.4947 11.5961 46.6221 16.8654 46.6221 22.4626C46.6221 28.0869 44.4766 33.3745 40.5808 37.3513C36.6851 41.3283 31.5054 43.5185 25.9959 43.5185C21.6436 43.5185 17.4982 42.1588 13.9856 39.583L14.7995 38.5027C18.0766 40.8942 21.9407 42.1565 25.9959 42.1565C31.1501 42.1565 35.9986 40.0994 39.6484 36.3644C43.2979 32.6295 45.3007 27.6747 45.2878 22.4126C45.2614 11.6079 36.6291 2.79565 26.0448 2.76865C26.028 2.76865 26.0115 2.76855 25.9946 2.76855C22.9171 2.76855 19.9738 3.49015 17.2456 4.91346C14.6309 6.27752 12.3155 8.27046 10.5496 10.6767C10.3214 10.9876 10.3834 11.4284 10.6879 11.6613C10.9923 11.894 11.4242 11.8308 11.6523 11.5201C15.0293 6.9184 20.3889 4.17499 25.9974 4.17499C26.0118 4.17499 26.0268 4.17509 26.0413 4.17509C35.8695 4.20021 43.8854 12.383 43.9099 22.4159C43.9218 27.3017 42.062 31.9026 38.6728 35.371C35.2835 38.8395 30.7813 40.7498 25.9958 40.7498C22.1291 40.7498 18.4502 39.5143 15.3567 37.1771C14.9009 36.8326 14.2481 36.9269 13.9014 37.3871L12.6889 38.9967C12.5159 39.2263 12.4421 39.5108 12.4813 39.7976C12.5206 40.0856 12.6684 40.3399 12.8974 40.5133C16.7052 43.3994 21.2345 44.9249 25.9958 44.9249C31.8733 44.9249 37.399 42.5884 41.5551 38.3458C45.7112 34.1034 48 28.4625 48 22.4626C48 19.5076 47.442 16.6273 46.3417 13.9017Z" fill="#272BA4"/>
<path d="M9.99492 19.0635C9.86424 18.8381 9.65531 18.6783 9.4068 18.6134C9.15829 18.5483 8.89995 18.5863 8.67927 18.7197L8.42975 18.8708C8.74558 17.2556 9.27465 15.6961 10.0091 14.2179C10.1812 13.8716 10.0457 13.4483 9.70628 13.2727C9.3674 13.0971 8.95248 13.2352 8.78029 13.5817C7.75447 15.6459 7.10069 17.8579 6.83675 20.1563C6.80626 20.4219 6.92601 20.6823 7.14569 20.828C7.36536 20.9737 7.64703 20.9796 7.8723 20.8433L9.02237 20.1472L9.70261 21.319L5.76942 23.6988L2.52988 20.6985L3.42621 19.6898L4.35073 20.5459C4.54258 20.7234 4.81542 20.7762 5.0575 20.6828C5.29949 20.5892 5.46985 20.365 5.49832 20.1024C6.01683 15.3255 8.0613 10.993 11.4108 7.57378C15.2879 3.61584 20.4422 1.42566 25.9239 1.40672C25.9475 1.40663 25.971 1.40663 25.9946 1.40663C29.7659 1.40663 33.4429 2.44528 36.6326 4.41225C36.9583 4.61297 37.3818 4.50647 37.5785 4.17384C37.7753 3.84141 37.6707 3.40913 37.345 3.20822C33.9402 1.1085 30.0173 0 25.9945 0C25.9696 0 25.9441 -5.14992e-08 25.9191 9.36985e-05C23.0248 0.0100312 20.2052 0.589781 17.5389 1.72275C14.8729 2.85572 12.4832 4.48959 10.4363 6.57909C7.17783 9.90553 5.07697 14.0426 4.31262 18.6116L4.04262 18.3616C3.8527 18.1856 3.60786 18.0969 3.35072 18.1083C3.09449 18.1211 2.85847 18.2348 2.68628 18.4288L1.22883 20.0692C1.05645 20.263 0.968291 20.5139 0.980781 20.7755C0.99327 21.037 1.10476 21.278 1.29477 21.4538L5.02279 24.9064C5.22208 25.0909 5.47353 25.1857 5.72755 25.1857C5.9114 25.1857 6.09673 25.136 6.26415 25.0345L10.7646 22.3116C11.2199 22.0361 11.3709 21.4338 11.1011 20.9687L9.99492 19.0635Z" fill="#272BA4"/>
<path d="M32.984 24.9219C33.6258 24.9219 34.1462 24.3907 34.1462 23.7355C34.1462 23.0802 33.6258 22.5491 32.984 22.5491C32.3421 22.5491 31.8218 23.0802 31.8218 23.7355C31.8218 24.3907 32.3421 24.9219 32.984 24.9219Z" fill="#272BA4"/>
</svg>
