<svg width="48" height="48" viewBox="0 0 48 48" fill="none" xmlns="http://www.w3.org/2000/svg">
<path d="M23.8056 30.7574C21.8856 30.7574 20.1494 29.9232 18.6456 28.2773C18.4934 28.1112 18.5054 27.8529 18.6715 27.7008C18.8376 27.5491 19.0958 27.5597 19.248 27.7267C20.5906 29.196 22.1242 29.9409 23.8056 29.9409C25.7122 29.9409 27.2957 28.6934 28.2883 27.647C28.4434 27.4833 28.7016 27.4766 28.8653 27.6317C29.029 27.7867 29.0357 28.0449 28.8806 28.2086C27.299 29.8762 25.5442 30.7574 23.8056 30.7574Z" fill="#EB597C"/>
<path d="M44.4763 42.7281H3.52367C3.30287 42.7281 3.09407 42.6269 2.95727 42.4531C2.82095 42.2793 2.77151 42.0523 2.82383 41.8377C3.40799 39.4416 4.85999 33.7771 5.72159 32.9381C6.09167 32.5781 10.1361 30.9283 17.7489 28.032C16.1909 25.9752 15.4565 23.6299 15.1968 22.6358C14.6544 22.1073 14.2632 21.1397 14.2152 20.1547C14.1758 19.3469 14.3774 18.6456 14.7878 18.1325C14.7609 18.0417 14.7302 17.939 14.7009 17.8421C14.2488 16.3493 13.1909 12.8525 14.412 10.3353C15.6993 7.68286 17.2229 6.33742 18.9408 6.33742C19.98 6.33742 20.8147 6.85294 21.3168 7.26526C22.2307 6.56734 24.228 5.27182 26.4696 5.27182C28.2705 5.27182 30.7905 6.13966 32.5694 10.2739C33.2381 11.8277 33.0619 14.7974 32.9457 16.7625C32.9208 17.1825 32.8934 17.6457 32.8905 17.9016C33.3845 18.4286 33.6369 19.1731 33.6062 20.0318C33.5702 21.0288 33.1589 22.0579 32.5963 22.6157C32.2113 24.1056 31.2513 26.1705 29.8281 27.9413C33.5697 29.2368 41.7067 32.1091 42.5904 32.8853C43.5173 33.6998 44.6131 38.8665 45.1833 41.8737C45.2232 42.0845 45.1675 42.3024 45.0307 42.467C44.8939 42.6326 44.6909 42.7281 44.4763 42.7281ZM4.44431 41.2881H43.6027C42.9432 37.9872 42.0537 34.4501 41.6232 33.9509C40.9757 33.4493 34.295 30.9965 28.3502 28.9545C28.1189 28.8749 27.9432 28.6833 27.8846 28.4453C27.8261 28.2072 27.8933 27.9557 28.0617 27.7781C29.7701 25.9771 30.9115 23.5531 31.2489 22.0632C31.2883 21.8909 31.3891 21.7387 31.5331 21.636C31.7443 21.4853 32.1374 20.8032 32.1672 19.98C32.1801 19.6109 32.1192 19.1073 31.751 18.803C31.3997 18.5117 31.416 18.2318 31.5081 16.6771C31.6032 15.072 31.7803 12.0835 31.2465 10.8432C30.0672 8.1019 28.4597 6.71182 26.4696 6.71182C24.0216 6.71182 21.7901 8.7355 21.768 8.75614C21.6225 8.89006 21.4296 8.9587 21.2313 8.9443C21.0341 8.93086 20.8512 8.83678 20.7254 8.68414C20.7201 8.6779 19.9488 7.77694 18.9408 7.77694C17.8373 7.77694 16.7193 8.87854 15.708 10.9632C14.7321 12.9734 15.6763 16.0925 16.0795 17.4245C16.3118 18.1925 16.4289 18.5779 16.0267 18.9149C15.6677 19.2153 15.6389 19.7765 15.6542 20.0846C15.6902 20.8229 16.0229 21.4891 16.2456 21.6417C16.3929 21.7421 16.4971 21.8942 16.5389 22.0675C16.7361 22.8883 17.532 25.7328 19.4784 27.8621C19.6392 28.0382 19.7025 28.2825 19.6473 28.5144C19.5921 28.7462 19.4256 28.9358 19.2024 29.0208C14.7777 30.6993 7.57103 33.4968 6.70655 33.996C6.29471 34.5605 5.26751 38.0285 4.44431 41.2881Z" fill="#EB597C"/>
<path d="M23.8296 23.8401C23.6045 23.8401 23.4216 23.6573 23.4216 23.4321V19.2014C23.4216 19.1443 23.4336 19.0877 23.4567 19.0353C23.5536 18.8179 23.7773 18.7032 24.1834 18.4939C25.2269 17.9568 27.1695 16.9569 27.1695 14.3285C27.1695 13.5609 26.9232 11.0573 23.7523 11.0573C20.8176 11.0573 20.1043 13.9545 20.0323 14.2848C19.9843 14.5046 19.764 14.6443 19.5471 14.5968C19.3267 14.5488 19.1871 14.3318 19.2351 14.1115C19.321 13.7155 20.1783 10.2408 23.7523 10.2408C26.8733 10.2408 27.9855 12.3523 27.9855 14.3285C27.9855 17.4547 25.5826 18.6912 24.5568 19.2192C24.4488 19.2749 24.3226 19.3397 24.2376 19.3891V23.4321C24.2376 23.6573 24.0547 23.8401 23.8296 23.8401Z" fill="#EB597C"/>
<path d="M23.916 27.0292C23.327 27.0292 22.8475 26.5497 22.8475 25.9608C22.8475 25.3718 23.327 24.8923 23.916 24.8923C24.505 24.8923 24.9845 25.3718 24.9845 25.9608C24.9845 26.5497 24.505 27.0292 23.916 27.0292ZM23.916 25.7088C23.7768 25.7088 23.664 25.822 23.664 25.9608C23.664 26.0995 23.7773 26.2128 23.916 26.2128C24.0547 26.2128 24.168 26.0995 24.168 25.9608C24.168 25.822 24.0552 25.7088 23.916 25.7088Z" fill="#EB597C"/>
</svg>
