<svg width="48" height="48" viewBox="0 0 48 48" fill="none" xmlns="http://www.w3.org/2000/svg">
<g clip-path="url(#clip0)">
<path d="M0.787288 23.9894H0.815287C1.24668 23.9897 1.60057 23.6478 1.61527 23.2166C2.04806 10.8533 12.4213 1.18168 24.7846 1.61437C29.5401 1.78086 34.119 3.45732 37.8576 6.40096H33.6001C33.1584 6.40096 32.8002 6.75915 32.8002 7.20094C32.8002 7.64273 33.1584 8.00092 33.6001 8.00092H40H40.0112C40.0738 7.99582 40.1355 7.98352 40.1952 7.96412C40.2361 7.95822 40.2764 7.94942 40.316 7.93772C40.3384 7.92812 40.3552 7.90812 40.3768 7.89612C40.4486 7.86102 40.5145 7.81482 40.572 7.75933L40.58 7.75373C40.6003 7.72593 40.6188 7.69683 40.6352 7.66653C40.6771 7.61553 40.7124 7.55933 40.74 7.49933C40.762 7.43553 40.7755 7.36913 40.78 7.30174C40.7892 7.26874 40.7959 7.23504 40.8 7.20094V0.801084C40.8 0.359295 40.4418 0.00110288 40 0.00110288C39.5582 0.00110288 39.2 0.359295 39.2 0.801084V5.43458C28.9501 -2.96343 13.8329 -1.46226 5.43488 8.7877C2.10166 12.856 0.197501 17.9068 0.0153051 23.163C0.000505399 23.6043 0.345998 23.9742 0.787288 23.9894Z" fill="#E6A500"/>
<path d="M7.26395 38.8874C6.97035 38.556 6.46377 38.5254 6.13237 38.819C5.80098 39.1126 5.77038 39.6192 6.06397 39.9506C6.61466 40.5686 7.19645 41.1581 7.80713 41.7169C8.13923 42.0084 8.64461 41.9754 8.93611 41.6434C9.2193 41.3207 9.1973 40.8322 8.88631 40.5362C8.31772 40.0147 7.77623 39.4644 7.26395 38.8874Z" fill="#E6A500"/>
<path d="M16.8109 45.2217C16.0795 44.9741 15.3616 44.6886 14.6598 44.3666C14.2639 44.1705 13.7839 44.3325 13.5878 44.7283C13.3917 45.1242 13.5537 45.6042 13.9496 45.8003C13.9632 45.807 13.977 45.8134 13.991 45.8193C14.7434 46.1657 15.5135 46.4722 16.2981 46.7377C16.7167 46.8793 17.1709 46.6547 17.3125 46.2361C17.4542 45.8175 17.2296 45.3633 16.8109 45.2217Z" fill="#E6A500"/>
<path d="M12.6086 43.2914V43.2906C11.9437 42.8967 11.2993 42.4695 10.6775 42.0106C10.3306 41.7369 9.82759 41.7963 9.5539 42.1432C9.2802 42.4901 9.3396 42.9931 9.68649 43.2668C9.69949 43.277 9.71269 43.2869 9.72629 43.2963C10.3913 43.7886 11.081 44.2464 11.7927 44.6682C12.1728 44.8935 12.6637 44.768 12.889 44.3878C13.1144 44.0076 12.9888 43.5167 12.6086 43.2914Z" fill="#E6A500"/>
<path d="M5.81517 37.0818C5.36418 36.4548 4.94559 35.8051 4.56079 35.1355C4.3399 34.7522 3.85011 34.6206 3.46682 34.8415C3.08353 35.0624 2.95193 35.5521 3.17282 35.9354C3.58502 36.6515 4.03361 37.346 4.51679 38.0162C4.78209 38.3695 5.28358 38.4408 5.63687 38.1755C5.98006 37.9178 6.05876 37.4352 5.81517 37.0818Z" fill="#E6A500"/>
<path d="M3.58383 33.4009C3.58383 33.2894 3.56043 33.1791 3.51533 33.0772L3.51373 33.0716C3.20063 32.3665 2.92424 31.6455 2.68575 30.9117C2.56975 30.4854 2.13006 30.2338 1.70377 30.3499C1.27748 30.4659 1.02588 30.9056 1.14198 31.3319C1.14878 31.3567 1.15668 31.3812 1.16578 31.4053C1.42108 32.1934 1.71697 32.9677 2.05216 33.7252C2.18046 34.0148 2.46745 34.2014 2.78414 34.2012C3.22593 34.201 3.58393 33.8427 3.58383 33.4009Z" fill="#E6A500"/>
<path d="M1.47167 29.6213C1.47177 29.6213 1.47197 29.6212 1.47207 29.6212C1.90376 29.5292 2.17935 29.105 2.08805 28.6732C1.92866 27.9176 1.80796 27.1542 1.72646 26.3861C1.67986 25.9465 1.28567 25.6279 0.846083 25.6745C0.406493 25.7211 0.0879005 26.1153 0.134499 26.5549C0.222097 27.3776 0.351794 28.1952 0.523291 29.0044C0.614888 29.4367 1.03948 29.7128 1.47167 29.6213Z" fill="#E6A500"/>
<path d="M46.7208 28.8047C46.7205 28.8046 46.7202 28.8046 46.7199 28.8045C46.2912 28.6983 45.8575 28.9597 45.7512 29.3885C45.5658 30.1384 45.3418 30.8783 45.08 31.6052C44.9302 32.021 45.1458 32.4794 45.5616 32.6292C45.9774 32.779 46.4357 32.5634 46.5855 32.1476C46.8662 31.3691 47.1065 30.5765 47.3055 29.7732C47.4115 29.3444 47.1497 28.9108 46.7208 28.8047Z" fill="#E6A500"/>
<path d="M21.3212 46.24C20.5544 46.1487 19.793 46.0179 19.0397 45.848C18.6087 45.7506 18.1803 46.021 18.0829 46.452C17.9855 46.883 18.2559 47.3114 18.6869 47.4088C19.4943 47.5908 20.3105 47.731 21.1324 47.8288C21.1643 47.8327 21.1963 47.8345 21.2284 47.8344C21.6702 47.8335 22.0276 47.4745 22.0267 47.0327C22.0259 46.6281 21.7231 46.2878 21.3212 46.24Z" fill="#E6A500"/>
<path d="M45.2456 33.3675C44.8479 33.1755 44.3699 33.342 44.1775 33.7395C43.8412 34.4349 43.469 35.1124 43.0623 35.7691C42.8361 36.1487 42.9605 36.6397 43.3401 36.8658C43.7104 37.0865 44.1891 36.974 44.4223 36.6115C44.8577 35.9076 45.2564 35.1815 45.6167 34.4363C45.8094 34.0387 45.6432 33.5602 45.2456 33.3675Z" fill="#E6A500"/>
<path d="M42.8821 37.5281C42.5363 37.2531 42.033 37.3105 41.758 37.6564C41.7532 37.6624 41.7486 37.6685 41.744 37.6746V37.673C41.272 38.2853 40.7687 38.8727 40.236 39.433C39.9314 39.7533 39.9441 40.2599 40.2644 40.5645C40.5847 40.8691 41.0914 40.8564 41.396 40.5361C41.9655 39.9359 42.5044 39.3071 43.0103 38.6522C43.2853 38.3064 43.2279 37.8031 42.8821 37.5281Z" fill="#E6A500"/>
<path d="M47.2134 24.0382C46.7788 24.016 46.4085 24.3503 46.3864 24.7849C46.386 24.793 46.3857 24.8012 46.3855 24.8093C46.3584 25.5813 46.2913 26.3514 46.1847 27.1165C46.1244 27.5536 46.4294 27.9569 46.8662 28.0181C46.9033 28.0235 46.9407 28.0262 46.9782 28.0261C47.3769 28.0255 47.7144 27.7314 47.7694 27.3365C47.8833 26.517 47.9551 25.6922 47.9846 24.8653C47.9999 24.424 47.6548 24.0538 47.2134 24.0382Z" fill="#E6A500"/>
<path d="M38.56 41.0242V41.0265C37.9712 41.5291 37.3572 42.0012 36.7201 42.4409C36.3558 42.6927 36.2647 43.1922 36.5165 43.5565C36.7683 43.9208 37.2678 44.0119 37.6321 43.7601C38.3133 43.287 38.9701 42.7797 39.6 42.2401C39.9358 41.9529 39.9752 41.4479 39.688 41.1121C39.4009 40.7764 38.8958 40.737 38.56 41.0242Z" fill="#E6A500"/>
<path d="M30.489 45.4465C29.7497 45.6693 28.9995 45.8535 28.2411 45.9985C27.8072 46.082 27.5231 46.5012 27.6066 46.9351C27.6789 47.3112 28.0077 47.5833 28.3907 47.584C28.4414 47.5842 28.492 47.5796 28.5419 47.5704C29.3549 47.415 30.1591 47.2172 30.9514 46.9776C31.371 46.8393 31.5991 46.387 31.4608 45.9675C31.3274 45.5627 30.9 45.3336 30.489 45.4465Z" fill="#E6A500"/>
<path d="M25.9883 46.3132C25.9736 46.314 25.959 46.3153 25.9444 46.3169L25.9484 46.3201C25.3084 46.3745 24.6532 46.4001 24.0005 46.4001H23.6349C23.1986 46.4063 22.842 46.7499 22.8197 47.1857C22.8117 47.6274 23.1633 47.992 23.605 48C23.6051 48 23.6052 48 23.6053 48H24.0005C24.6996 48 25.4004 47.9688 26.0804 47.9104C26.5215 47.885 26.8585 47.5069 26.833 47.0658C26.8075 46.6247 26.4293 46.2877 25.9883 46.3132Z" fill="#E6A500"/>
<path d="M34.7513 43.6554H34.7521C34.0748 44.0263 33.3791 44.3622 32.6674 44.6618C32.258 44.8278 32.0607 45.2943 32.2267 45.7037C32.3927 46.1131 32.8593 46.3104 33.2687 46.1444C33.2747 46.142 33.2806 46.1395 33.2865 46.1369C34.049 45.816 34.7945 45.4561 35.52 45.0585C35.9075 44.8462 36.0495 44.3601 35.8372 43.9726C35.6251 43.5851 35.1388 43.4431 34.7513 43.6554Z" fill="#E6A500"/>
<path d="M24.0004 7.20093C14.7222 7.20093 7.20074 14.7224 7.20074 24.0005C7.20074 33.2787 14.7222 40.8002 24.0004 40.8002C33.2785 40.8002 40.8 33.2787 40.8 24.0005C40.7895 14.7268 33.2741 7.21153 24.0004 7.20093ZM36.8001 24.8005H39.1592C38.7436 32.552 32.5519 38.7438 24.8003 39.1594V36.8002C24.8003 36.3585 24.4422 36.0003 24.0004 36.0003C23.5586 36.0003 23.2004 36.3585 23.2004 36.8002V39.1594C15.4489 38.7438 9.2571 32.552 8.84151 24.8005H11.2007C11.6424 24.8005 12.0006 24.4423 12.0006 24.0005C12.0006 23.5588 11.6424 23.2006 11.2007 23.2006H8.84151C9.2571 15.449 15.4489 9.25728 23.2004 8.84169V11.2008C23.2004 11.6426 23.5586 12.0008 24.0004 12.0008C24.4422 12.0008 24.8003 11.6426 24.8003 11.2008V8.84169C32.5519 9.25728 38.7436 15.449 39.1592 23.2006H36.8001C36.3583 23.2006 36.0001 23.5588 36.0001 24.0005C36.0001 24.4423 36.3583 24.8005 36.8001 24.8005Z" fill="#E6A500"/>
<path d="M24.8003 21.7478V14.4007C24.8003 13.959 24.4421 13.6008 24.0003 13.6008C23.5586 13.6008 23.2004 13.959 23.2004 14.4007V21.7478C22.5229 21.9898 21.9896 22.5231 21.7476 23.2005H17.6005C17.1587 23.2005 16.8005 23.5587 16.8005 24.0005C16.8005 24.4423 17.1587 24.8005 17.6005 24.8005H21.7476C22.186 26.0481 23.5528 26.7041 24.8003 26.2657C26.0479 25.8273 26.7039 24.4605 26.2655 23.2129C26.0247 22.5276 25.4857 21.9887 24.8003 21.7478ZM24.0003 24.8005C23.5586 24.8005 23.2004 24.4423 23.2004 24.0005C23.2004 23.5587 23.5586 23.2005 24.0003 23.2005C24.4421 23.2005 24.8003 23.5587 24.8003 24.0005C24.8003 24.4423 24.4422 24.8005 24.0003 24.8005Z" fill="#E6A500"/>
</g>
<defs>
<clipPath id="clip0">
<rect width="48" height="48" fill="white"/>
</clipPath>
</defs>
</svg>
