<svg width="48" height="48" viewBox="0 0 48 48" fill="none" xmlns="http://www.w3.org/2000/svg">
<g clip-path="url(#clip0)">
<path d="M10.1443 36.5822C12.6081 36.5822 14.6049 34.5849 14.6049 32.1216C14.6049 29.6577 12.6077 27.6609 10.1443 27.6609C7.68047 27.6609 5.68367 29.6582 5.68367 32.1216C5.68367 34.5849 7.68095 36.5822 10.1443 36.5822ZM10.1443 28.9795C11.8766 28.9795 13.2859 30.3888 13.2859 32.1211C13.2859 33.8534 11.8766 35.2627 10.1443 35.2627C8.41199 35.2627 7.00271 33.8534 7.00271 32.1211C7.00271 30.3888 8.41199 28.9795 10.1443 28.9795Z" fill="#80A928"/>
<path d="M3.71903 44.0289C3.71903 41.5459 5.73935 39.5251 8.22287 39.5251H12.0662C14.5493 39.5251 16.5701 41.5454 16.5701 44.0289H17.2296H17.8891C17.8891 40.8182 15.277 38.2065 12.0667 38.2065H8.22335C5.01215 38.2061 2.39999 40.8182 2.39999 44.0289H3.05951H3.71903Z" fill="#80A928"/>
<path d="M39.2582 15.7325H38.0424C38.0501 15.5981 38.063 15.4651 38.063 15.3288V11.2397C38.063 7.23214 34.8029 3.9715 30.7949 3.9715H21.2251C17.2176 3.9715 13.9569 7.23166 13.9569 11.2397V26.3289C13.9569 26.8281 14.255 27.2741 14.7163 27.4651C14.8694 27.5285 15.0297 27.5592 15.1886 27.5592C15.5083 27.5592 15.8213 27.4344 16.0569 27.1982L20.6582 22.5965H24.6883V25.5902C24.6883 29.087 27.5333 31.9315 31.0296 31.9315H39.7065L43.6358 35.8608C43.8561 36.0816 44.1489 36.1987 44.448 36.1987C44.5963 36.1987 44.7461 36.1699 44.8891 36.1109C45.3211 35.9323 45.6 35.5152 45.6 35.0481V22.0742C45.6 18.5774 42.755 15.7325 39.2582 15.7325ZM20.6217 21.2779C20.2939 21.2779 19.9848 21.4056 19.752 21.6379L15.276 26.1139V11.2392C15.276 7.95886 17.9448 5.29006 21.2251 5.29006H30.7949C34.0752 5.29006 36.744 7.95886 36.744 11.2392V15.3283C36.744 15.4646 36.7325 15.5981 36.7233 15.732H31.0301C27.8035 15.732 25.1381 18.156 24.744 21.2774H20.6217V21.2779ZM36.4872 17.0515C35.7465 19.4942 33.4757 21.2779 30.7944 21.2779H26.0765C26.46 18.8865 28.5317 17.0515 31.0296 17.0515H36.4872ZM44.2809 34.6406L40.5902 30.9499C40.3733 30.7325 40.0843 30.6129 39.7771 30.6129H31.0301C28.2605 30.6129 26.0073 28.3598 26.0073 25.5902V22.5965H30.7944C34.2077 22.5965 37.0709 20.2286 37.8475 17.051H39.2577C42.0273 17.051 44.2805 19.3041 44.2805 22.0737V34.6406H44.2809Z" fill="#80A928"/>
</g>
<defs>
<clipPath id="clip0">
<rect width="48" height="48" fill="white"/>
</clipPath>
</defs>
</svg>
