<svg width="48" height="48" viewBox="0 0 48 48" fill="none" xmlns="http://www.w3.org/2000/svg">
<path d="M24 31.4117C27.1059 31.4117 29.7176 28.8705 29.7176 25.7647C29.7176 22.6588 27.1765 20.1176 24 20.1176C20.8941 20.1176 18.2823 22.6588 18.2823 25.7647C18.2823 28.9411 20.8941 31.4117 24 31.4117ZM24 21.6C26.3294 21.6 28.3059 23.5058 28.3059 25.8353C28.3059 28.1647 26.4 30.0705 24 30.0705C21.6706 30.0705 19.6941 28.1647 19.6941 25.8353C19.6941 23.5058 21.6706 21.6 24 21.6Z" fill="#6A94FF"/>
<path d="M20.047 9.45879L19.3412 13.4823C19.2706 13.7647 19.4117 14.047 19.6235 14.1882C19.8353 14.3294 20.1176 14.4 20.4 14.2588L24.0706 12.3529L27.7412 14.2588C27.9529 14.4 28.2353 14.3294 28.5176 14.1882C28.7294 14.047 28.8706 13.7647 28.8 13.4823L28.0941 9.45879L31.0588 6.56467C31.2706 6.35291 31.3411 6.07055 31.2706 5.85879C31.2 5.57644 30.9882 5.43526 30.7059 5.36467L26.6117 4.79997L24.7764 1.12938C24.5647 0.63526 23.7176 0.63526 23.5059 1.12938L21.6706 4.79997L17.5765 5.36467C17.2941 5.43526 17.0823 5.57644 17.0117 5.85879C16.9412 6.14114 17.0117 6.4235 17.2235 6.56467L20.047 9.45879ZM22.0941 6.14114C22.3059 6.14114 22.5176 5.92938 22.6588 5.7882L24 2.96467L25.3412 5.71761C25.4117 5.92938 25.6235 6.07055 25.9059 6.07055L28.9412 6.56467L26.7529 8.68232C26.6117 8.8235 26.5412 9.10585 26.5412 9.31761L27.0353 12.3529L24.3529 10.9411C24.2823 10.8706 24.1412 10.8706 24 10.8706C23.8588 10.8706 23.7882 10.8706 23.647 10.9411L20.9647 12.3529L21.4588 9.31761C21.5294 9.10585 21.3882 8.8235 21.247 8.68232L19.0588 6.56467L22.0941 6.14114Z" fill="#6A94FF"/>
<path d="M12.2118 18.1411C12.4235 18 12.5647 17.7176 12.4941 17.4353L11.7882 13.4117L14.7529 10.5176C14.9647 10.3058 15.0353 10.0235 14.9647 9.81173C14.8941 9.52937 14.6823 9.3882 14.4 9.31761L10.3059 8.7529L8.47057 5.01173C8.3294 4.79996 8.11763 4.5882 7.83528 4.5882C7.55293 4.5882 7.34116 4.72937 7.19999 5.01173L5.36469 8.68231L1.27057 9.24702C0.988221 9.31761 0.776456 9.45878 0.705868 9.74114C0.63528 10.0235 0.705868 10.3058 0.917633 10.447L3.88234 13.4117L3.17646 17.4353C3.10587 17.7176 3.24704 18 3.45881 18.1411C3.67057 18.2823 3.95293 18.3529 4.23528 18.2117L7.90587 16.3058L11.5765 18.2117C11.7176 18.3529 12 18.2823 12.2118 18.1411ZM8.18822 14.8235C7.97646 14.6823 7.76469 14.6823 7.55293 14.8235L4.87057 16.2353L5.36469 13.2C5.43528 12.9882 5.2941 12.7058 5.15293 12.5647L2.96469 10.447L5.99999 10.0235C6.21175 10.0235 6.42352 9.81173 6.56469 9.67055L7.90587 6.91761L9.24704 9.67055C9.31763 9.88231 9.5294 10.0235 9.81175 10.0235L12.847 10.447L10.6588 12.5647C10.5176 12.7058 10.447 12.9882 10.447 13.2L10.9412 16.2353L8.18822 14.8235Z" fill="#6A94FF"/>
<path d="M47.2941 9.81173C47.2235 9.52937 47.0118 9.3882 46.7294 9.31761L42.6353 8.7529L40.8 5.08232C40.5882 4.5882 39.7412 4.5882 39.5294 5.08232L37.6941 8.7529L33.6 9.31761C33.3176 9.3882 33.1059 9.52937 33.0353 9.81173C32.9647 10.0941 33.0353 10.3764 33.247 10.5176L36.2118 13.4117L35.5059 17.4353C35.4353 17.7176 35.5765 18 35.7882 18.1411C36 18.2823 36.2823 18.3529 36.5647 18.2117L40.2353 16.3058L43.9059 18.2117C44.1176 18.3529 44.4 18.2823 44.6823 18.1411C44.8941 18 45.0353 17.7176 44.9647 17.4353L44.2588 13.4117L47.2235 10.5176C47.2941 10.3058 47.3647 10.0235 47.2941 9.81173ZM42.847 12.6353C42.7059 12.7764 42.6353 13.0588 42.6353 13.2705L43.1294 16.3058L40.447 14.8941C40.3765 14.8235 40.2353 14.8235 40.0941 14.8235C39.9529 14.8235 39.8823 14.8235 39.7412 14.8941L37.0588 16.3058L37.5529 13.2705C37.6235 13.0588 37.4823 12.7764 37.3412 12.6353L35.1529 10.5176L38.1882 10.0941C38.4 10.0941 38.6118 9.88232 38.7529 9.74114L40.0941 6.9882L41.4353 9.74114C41.5059 9.9529 41.7176 10.0941 42 10.0941L45.0353 10.5176L42.847 12.6353Z" fill="#6A94FF"/>
<path d="M37.2706 30.7058C37.0588 30.7058 36.847 30.7058 36.6353 30.7058C36.7765 29.9294 36.847 29.0823 36.847 28.2352C36.847 21.1764 31.0588 15.3882 24 15.3882C16.9412 15.3882 11.1529 21.1058 11.1529 28.2352C11.1529 35.2941 16.8706 41.0823 24 41.0823C25.7647 41.0823 27.4588 40.7294 29.0823 40.0235C29.5765 44.1176 33.0353 47.2941 37.2706 47.2941C41.8588 47.2941 45.5294 43.5529 45.5294 39.0352C45.5294 34.447 41.8588 30.7058 37.2706 30.7058ZM24 16.8705C30.2823 16.8705 35.4353 21.9529 35.4353 28.3058C35.4353 29.2235 35.2941 30.1411 35.0823 30.9882C33.5294 31.4117 32.1176 32.3294 31.0588 33.5294C29.7176 32.4 28.0941 31.8352 26.3294 31.8352H21.6706C18.9882 31.8352 16.5176 33.3176 15.247 35.647C13.5529 33.6 12.5647 31.0588 12.5647 28.3764C12.5647 22.0235 17.7176 16.8705 24 16.8705ZM16.3059 36.7058C17.2941 34.5882 19.3412 33.247 21.6706 33.247H26.3294C27.8117 33.247 29.1529 33.7411 30.2117 34.6588C29.5059 35.7882 29.0823 37.1294 29.0117 38.5411C24.847 40.5882 19.8353 39.9529 16.3059 36.7058ZM37.2706 45.8823C33.4588 45.8823 30.4235 42.7764 30.4235 39.0352C30.4235 35.2941 33.5294 32.1882 37.2706 32.1882C41.0117 32.1882 44.1176 35.2941 44.1176 39.0352C44.1176 42.7764 41.0823 45.8823 37.2706 45.8823Z" fill="#6A94FF"/>
<path d="M41.2235 35.9294L36.0706 40.447L34.0941 38.1176C33.8118 37.8353 33.3882 37.7647 33.1059 38.047C32.8235 38.3294 32.7529 38.7529 33.0353 39.0353L35.4353 41.9294C35.5765 42.0706 35.7176 42.1412 35.9294 42.2118C36.1412 42.2118 36.2823 42.1412 36.4235 42.0706L42.1412 37.0588C42.4235 36.7764 42.4941 36.3529 42.2118 36.0705C41.9294 35.7176 41.5059 35.7176 41.2235 35.9294Z" fill="#6A94FF"/>
</svg>
