<svg width="24" height="24" viewBox="0 0 24 24" fill="none" xmlns="http://www.w3.org/2000/svg">
<path d="M18.986 9.83453C18.9377 9.31197 18.9746 7.89143 20.3355 5.91608C20.4384 5.76702 20.4197 5.56598 20.2919 5.43818C19.7371 4.88337 19.3936 4.53327 19.1526 4.28828C18.8358 3.96526 18.6912 3.81807 18.4795 3.62614C18.3382 3.49909 18.1243 3.49688 17.9815 3.62142C15.6095 5.68538 12.975 9.95026 13.3562 15.1754C13.5796 18.2435 15.8175 20.4704 18.6773 20.4704C21.6121 20.4704 23.9998 18.0831 23.9998 15.1482C23.9998 12.3171 21.7776 9.99529 18.986 9.83453ZM18.6773 19.7204C16.2215 19.7204 14.2985 17.7861 14.1041 15.1212C14.1041 15.1212 14.1041 15.1212 14.1041 15.1208C13.6752 9.24421 17.1685 5.42719 18.2239 4.41646C18.3268 4.51789 18.4444 4.63726 18.6176 4.81377C18.8263 5.02617 19.112 5.31694 19.5441 5.75056C17.8921 8.29572 18.2038 10.1092 18.3404 10.3692C18.4052 10.4926 18.5381 10.5758 18.6773 10.5758C21.1986 10.5758 23.2498 12.6269 23.2498 15.1482C23.2498 17.6693 21.1986 19.7204 18.6773 19.7204Z" fill="#38B0B0"/>
<path d="M5.66763 9.83468C5.61892 9.31358 5.65481 7.89413 7.01711 5.91623C7.11967 5.76717 7.10133 5.56613 6.97353 5.43833C6.41981 4.88461 6.07668 4.53488 5.83608 4.2899C5.51823 3.96616 5.37318 3.81856 5.16153 3.6263C5.02016 3.49925 4.80629 3.49741 4.66349 3.6212C2.29154 5.68516 -0.343356 9.94932 0.0371186 15.1755V15.1759C0.261256 18.2436 2.49952 20.4705 5.35927 20.4705C8.29409 20.4705 10.6818 18.0832 10.6818 15.1484C10.6818 12.3169 8.45962 9.99473 5.66763 9.83468ZM5.35927 19.7205C2.90384 19.7205 0.979756 17.7862 0.784944 15.1209V15.1213C0.357219 9.24327 3.85049 5.42697 4.90589 4.41661C5.00917 4.51805 5.12711 4.63816 5.30069 4.81505C5.50904 5.02745 5.79434 5.31785 6.22574 5.75071C4.57376 8.29625 4.88542 10.1093 5.02199 10.369C5.08683 10.4924 5.22011 10.5759 5.35927 10.5759C7.88066 10.5759 9.93179 12.627 9.93179 15.1484C9.93179 17.6694 7.88066 19.7205 5.35927 19.7205Z" fill="#38B0B0"/>
</svg>
