<svg width="17" height="18" fill="none" xmlns="http://www.w3.org/2000/svg"><path d="M.544 9.403h10.853l-2.802 2.82a.547.547 0 000 .78.54.54 0 00.381.161.54.54 0 00.38-.161l3.482-3.439a.527.527 0 00.164-.376.527.527 0 00-.164-.376l-.163-.161a.326.326 0 00-.136-.135L9.357 5.373a.53.53 0 00-.762 0c-.217.215-.217.51 0 .699l2.312 2.23H.544c-.3 0-.544.241-.544.537 0 .295.245.564.544.564z" fill="#002757"/><path d="M17 15.931V2.552C17 1.262 15.94 0 14.634 0H7.562c-1.279 0-2.53 1.236-2.53 2.552v3.17c0 .296.245.538.544.538.3 0 .544-.242.544-.538v-3.17c0-.725.735-1.477 1.442-1.477h7.072c.707 0 1.278.779 1.278 1.477v13.353c0 .725-.598.993-1.278.993H7.562c-.653 0-1.442-.241-1.442-.993v-3.17a.542.542 0 00-.544-.538.542.542 0 00-.544.537v3.197c0 1.263 1.143 2.069 2.53 2.069h7.072C16.02 18 17 17.14 17 15.931z" fill="#002757"/></svg>