<svg width="48" height="48" viewBox="0 0 48 48" fill="none" xmlns="http://www.w3.org/2000/svg">
<path d="M40.5917 6.1045C40.0501 6.1175 39.5378 6.44085 39.3317 6.9745L29.0117 33.4796C28.9977 33.5134 28.9876 33.5486 28.9817 33.5846C28.9814 33.5946 28.9814 33.6045 28.9817 33.6144C28.9816 33.6193 28.9816 33.6243 28.9817 33.6293C28.9814 33.6392 28.9814 33.6491 28.9817 33.659C28.9828 33.7265 28.9981 33.7929 29.0267 33.854L30.0917 39.5089C30.1069 39.5878 30.1417 39.6617 30.1929 39.7237C30.2442 39.7857 30.3101 39.8339 30.3848 39.8637C30.4594 39.8936 30.5404 39.9042 30.6202 39.8946C30.7001 39.885 30.7762 39.8556 30.8417 39.8089L35.4017 36.3889C35.4505 36.3713 35.496 36.346 35.5367 36.3139C35.5471 36.3044 35.5571 36.2945 35.5667 36.2841C35.5832 36.2653 35.5983 36.2453 35.6117 36.2241C35.6168 36.2193 35.6218 36.2143 35.6267 36.2092C35.6318 36.2044 35.6368 36.1994 35.6417 36.1943C35.7066 36.1132 35.7435 36.0132 35.7467 35.9093L45.9918 9.6145C46.2692 8.90227 45.9059 8.08071 45.1968 7.79952L41.1318 6.1945C40.9546 6.12414 40.7723 6.10015 40.5918 6.1045H40.5917ZM40.6067 7.04952C40.6588 7.04918 40.7142 7.05672 40.7717 7.07952L42.4367 7.73952L32.8069 32.3246L30.2569 32.9546L40.2318 7.31976C40.2764 7.20432 40.3589 7.1226 40.4568 7.07976C40.5058 7.0583 40.5547 7.0501 40.6068 7.04976L40.6067 7.04952ZM43.3216 8.0845L44.8517 8.69947C45.0816 8.79068 45.1809 9.02536 45.0916 9.25444L35.1168 34.8745L33.6917 32.6694L43.3215 8.08429L43.3216 8.0845ZM20.4017 29.1896C20.3065 29.2057 20.2184 29.25 20.1488 29.3169C20.0792 29.3838 20.0314 29.4702 20.0117 29.5646L17.5066 40.9349H15.6917L14.6266 35.2046C14.6085 35.116 14.5656 35.0342 14.503 34.9688C14.4404 34.9034 14.3606 34.8571 14.2728 34.8351C14.1849 34.8132 14.0927 34.8165 14.0067 34.8447C13.9207 34.8729 13.8444 34.9249 13.7866 34.9946L8.94151 40.9346H2.40151C2.3379 40.9337 2.27475 40.9455 2.21573 40.9692C2.1567 40.9929 2.10298 41.0281 2.05768 41.0728C2.01239 41.1175 1.97642 41.1707 1.95187 41.2294C1.92732 41.2881 1.91467 41.351 1.91467 41.4146C1.91467 41.4783 1.92732 41.5412 1.95187 41.5999C1.97642 41.6586 2.01239 41.7118 2.05768 41.7565C2.10298 41.8011 2.1567 41.8364 2.21573 41.8601C2.27475 41.8838 2.3379 41.8955 2.40151 41.8946H9.16663C9.23863 41.8947 9.30972 41.8785 9.37464 41.8474C9.43955 41.8162 9.49662 41.7708 9.54163 41.7146L13.8766 36.3895L14.8216 41.5044C14.8424 41.613 14.9 41.7111 14.9847 41.7822C15.0694 41.8533 15.1761 41.8929 15.2866 41.8944H17.8816C17.9901 41.8936 18.0951 41.8561 18.1795 41.788C18.264 41.7199 18.3229 41.6252 18.3466 41.5193L20.4766 31.8594L22.6066 41.5193C22.6303 41.6252 22.6892 41.7199 22.7737 41.788C22.8581 41.8561 22.9631 41.8936 23.0716 41.8944H31.2767C31.3403 41.8953 31.4035 41.8836 31.4625 41.8598C31.5215 41.8361 31.5753 41.8009 31.6205 41.7562C31.6658 41.7116 31.7018 41.6584 31.7264 41.5997C31.7509 41.541 31.7636 41.478 31.7636 41.4144C31.7636 41.3508 31.7509 41.2878 31.7264 41.2291C31.7018 41.1704 31.6658 41.1172 31.6205 41.0726C31.5753 41.0279 31.5215 40.9927 31.4625 40.969C31.4035 40.9453 31.3403 40.9335 31.2767 40.9344H23.447L20.9419 29.5641C20.9165 29.4447 20.8465 29.3394 20.7462 29.2697C20.6459 29.2 20.5228 29.1712 20.4019 29.1891L20.4017 29.1896ZM32.9417 33.2846L34.5766 35.8196L32.6566 37.2596L30.4666 36.3746L30.0316 34.0046L32.9416 33.2846H32.9417ZM30.6917 37.5146L31.7567 37.9346L30.8867 38.5796L30.6917 37.5146H30.6917Z" fill="#E6A500"/>
</svg>
