<svg width="48" height="48" viewBox="0 0 48 48" fill="none" xmlns="http://www.w3.org/2000/svg">
<path d="M20.6663 27.1425C19.9151 27.1425 19.2088 26.85 18.6776 26.3187C18.4945 26.1357 18.4945 25.8389 18.6776 25.6559C18.8608 25.4728 19.1575 25.4729 19.3405 25.6559C19.6946 26.01 20.1655 26.205 20.6663 26.205C21.1672 26.205 21.6381 26.01 21.9922 25.6559C22.1752 25.4728 22.472 25.4728 22.6551 25.6559C22.8382 25.8389 22.8382 26.1357 22.6551 26.3187C22.1239 26.8499 21.4177 27.1425 20.6663 27.1425Z" fill="#272BA4"/>
<path d="M20.4487 32.3153C20.3789 32.3153 20.3092 32.2997 20.2447 32.2686C12.5005 28.5247 12.6803 22.4887 12.7992 18.4945C12.8061 18.2652 12.8127 18.0415 12.8178 17.824C12.8216 17.664 12.9066 17.517 13.0435 17.434C13.1803 17.351 13.35 17.3437 13.4937 17.4144C14.5352 17.9278 15.7369 18.1991 16.9688 18.1991C19.041 18.1991 21.0161 17.4133 22.2521 16.0971C22.3406 16.0027 22.4643 15.9492 22.5938 15.9492C22.7232 15.9492 22.8469 16.0027 22.9355 16.0971C24.1542 17.3948 26.026 18.1597 28.071 18.1955C28.3259 18.1999 28.5304 18.4071 28.5316 18.662C28.5405 20.5522 28.5516 22.9046 27.5409 25.3274C26.3859 28.0962 24.1395 30.3633 20.6736 32.2579C20.6036 32.296 20.5262 32.3153 20.4487 32.3153ZM13.7357 18.5435C13.6185 22.4779 13.471 27.841 20.4358 31.3179C27.3436 27.4498 27.6013 22.7098 27.5958 19.1137C25.6565 18.9849 23.8768 18.2599 22.594 17.0774C21.1705 18.3914 19.149 19.1366 16.9689 19.1366C15.8447 19.1367 14.7404 18.933 13.7357 18.5435Z" fill="#272BA4"/>
<path d="M23.0625 22.418C23.5803 22.418 24 21.9982 24 21.4805C24 20.9627 23.5803 20.543 23.0625 20.543C22.5447 20.543 22.125 20.9627 22.125 21.4805C22.125 21.9982 22.5447 22.418 23.0625 22.418Z" fill="#272BA4"/>
<path d="M18.375 22.418C18.8928 22.418 19.3125 21.9982 19.3125 21.4805C19.3125 20.9627 18.8928 20.543 18.375 20.543C17.8572 20.543 17.4375 20.9627 17.4375 21.4805C17.4375 21.9982 17.8572 22.418 18.375 22.418Z" fill="#272BA4"/>
<path d="M10.875 5.25C11.3928 5.25 11.8125 4.83027 11.8125 4.3125C11.8125 3.79473 11.3928 3.375 10.875 3.375C10.3572 3.375 9.9375 3.79473 9.9375 4.3125C9.9375 4.83027 10.3572 5.25 10.875 5.25Z" fill="#272BA4"/>
<path d="M4.3125 17.4375C4.83027 17.4375 5.25 17.0178 5.25 16.5C5.25 15.9822 4.83027 15.5625 4.3125 15.5625C3.79473 15.5625 3.375 15.9822 3.375 16.5C3.375 17.0178 3.79473 17.4375 4.3125 17.4375Z" fill="#272BA4"/>
<path d="M39.9375 21.1875C40.4553 21.1875 40.875 20.7678 40.875 20.25C40.875 19.7322 40.4553 19.3125 39.9375 19.3125C39.4197 19.3125 39 19.7322 39 20.25C39 20.7678 39.4197 21.1875 39.9375 21.1875Z" fill="#272BA4"/>
<path d="M32.4375 7.125C32.9553 7.125 33.375 6.70527 33.375 6.1875C33.375 5.66973 32.9553 5.25 32.4375 5.25C31.9197 5.25 31.5 5.66973 31.5 6.1875C31.5 6.70527 31.9197 7.125 32.4375 7.125Z" fill="#272BA4"/>
<path d="M5.25 32.4375C5.76777 32.4375 6.1875 32.0178 6.1875 31.5C6.1875 30.9822 5.76777 30.5625 5.25 30.5625C4.73223 30.5625 4.3125 30.9822 4.3125 31.5C4.3125 32.0178 4.73223 32.4375 5.25 32.4375Z" fill="#272BA4"/>
<path d="M27.3143 45.0938C27.2339 45.0938 27.1523 45.073 27.0779 45.0294C26.8545 44.8985 26.7795 44.6113 26.9104 44.3879L28.0387 42.4616L25.4501 41.0522C25.2967 40.9687 25.2024 40.8069 25.2056 40.6323C25.2086 40.4577 25.3085 40.2992 25.4646 40.2212L28.4096 38.7487L27.7176 35.9807C27.6547 35.7296 27.8075 35.475 28.0586 35.4123C28.3099 35.3495 28.5642 35.5022 28.627 35.7534L29.4102 38.8862C29.4635 39.0993 29.3616 39.3209 29.1652 39.4192L26.687 40.6583L28.9117 41.8695C29.023 41.9302 29.1052 42.0334 29.1392 42.1556C29.1732 42.2779 29.1562 42.4087 29.092 42.5182L27.7192 44.8619C27.632 45.0107 27.4752 45.0938 27.3143 45.0938Z" fill="#272BA4"/>
<path d="M21.4554 45.0938C21.4063 45.0938 21.3563 45.086 21.3071 45.0696C21.0615 44.9878 20.9287 44.7224 21.0106 44.4768L24.7426 33.2808C24.8244 33.0353 25.0901 32.9025 25.3355 32.9844C25.5811 33.0663 25.7137 33.3317 25.6319 33.5773L21.9 44.7732C21.8346 44.9696 21.6517 45.0938 21.4554 45.0938Z" fill="#272BA4"/>
<path d="M19.5803 45.094C19.384 45.094 19.2012 44.9698 19.1356 44.7733L15.5142 33.909C15.4323 33.6635 15.5651 33.398 15.8107 33.3161C16.0564 33.2344 16.3217 33.3669 16.4036 33.6126L20.025 44.4769C20.1069 44.7224 19.9741 44.9879 19.7285 45.0698C19.6794 45.0862 19.6294 45.094 19.5803 45.094Z" fill="#272BA4"/>
<path d="M13.7211 45.0939C13.5372 45.0939 13.3626 44.9849 13.2879 44.8045L12.3169 42.4607C12.2294 42.2495 12.3071 42.0059 12.5006 41.8843L14.4064 40.6872L11.8708 39.4193C11.6743 39.321 11.5724 39.0995 11.6256 38.8863L12.4088 35.7533C12.4716 35.5021 12.7263 35.3497 12.9772 35.4122C13.2284 35.475 13.3811 35.7295 13.3183 35.9806L12.6262 38.7488L15.5712 40.2213C15.7227 40.2971 15.8215 40.4486 15.8298 40.6178C15.838 40.787 15.7543 40.9474 15.6109 41.0376L13.3345 42.4676L14.154 44.4456C14.2531 44.6848 14.1395 44.9591 13.9003 45.0581C13.8418 45.0824 13.7809 45.0939 13.7211 45.0939Z" fill="#272BA4"/>
<path d="M31.5 37.5937C31.2411 37.5937 31.0312 37.3839 31.0312 37.1249V17.4707C31.0312 11.7844 26.4051 7.1582 20.7188 7.1582C15.0324 7.1582 10.4062 11.7844 10.4062 17.4707V37.1249C10.4062 37.3839 10.1963 37.5937 9.9375 37.5937C9.67866 37.5937 9.46875 37.3839 9.46875 37.1249V17.4707C9.46875 11.2675 14.5155 6.2207 20.7188 6.2207C26.922 6.2207 31.9688 11.2675 31.9688 17.4707V37.1249C31.9688 37.3839 31.7589 37.5937 31.5 37.5937Z" fill="#272BA4"/>
<path d="M14.2866 14.1563C14.1899 14.1563 14.0923 14.1265 14.0085 14.0645C13.8003 13.9106 13.7561 13.6172 13.91 13.4089C15.5001 11.256 18.0455 9.9707 20.7187 9.9707C20.9776 9.9707 21.1875 10.1806 21.1875 10.4395C21.1875 10.6983 20.9776 10.9082 20.7187 10.9082C18.3417 10.9082 16.0782 12.0513 14.6641 13.966C14.5721 14.0904 14.4303 14.1563 14.2866 14.1563Z" fill="#272BA4"/>
<path d="M23.5982 38.5312H17.4023C17.1435 38.5312 16.9336 38.3214 16.9336 38.0625C16.9336 37.8036 17.1435 37.5938 17.4023 37.5938H23.5982C23.857 37.5938 24.0669 37.8036 24.0669 38.0625C24.0669 38.3214 23.8571 38.5312 23.5982 38.5312Z" fill="#272BA4"/>
<path d="M31.5 45.0937H3.375C3.11616 45.0937 2.90625 44.8839 2.90625 44.625C2.90625 41.5897 4.70897 38.8558 7.49878 37.6601L12.5356 35.5015C14.8152 34.5246 17.7742 30.3355 17.8038 30.2932C17.9525 30.0814 18.2449 30.0302 18.4567 30.1788C18.6686 30.3275 18.7199 30.6198 18.5712 30.8317C18.4441 31.0129 15.4292 35.2813 12.905 36.3632L7.86816 38.5218C5.568 39.5076 4.03359 41.6868 3.86016 44.1562H31.5C31.7589 44.1562 31.9688 44.366 31.9688 44.625C31.9688 44.8839 31.7589 45.0937 31.5 45.0937Z" fill="#272BA4"/>
<path d="M31.4998 37.7661C31.4382 37.7661 31.3756 37.7539 31.3153 37.7281L28.1307 36.3632C25.6055 35.281 22.5038 30.8542 22.373 30.6662C22.2251 30.4537 22.2774 30.1617 22.49 30.0137C22.7024 29.866 22.9945 29.9181 23.1425 30.1305C23.173 30.1744 26.2211 34.5248 28.5 35.5015L31.6846 36.8664C31.9225 36.9684 32.0328 37.2439 31.9308 37.4818C31.8546 37.6596 31.6817 37.7661 31.4998 37.7661Z" fill="#272BA4"/>
<path d="M45.5625 45.0938H31.5C31.2411 45.0938 31.0312 44.8839 31.0312 44.625V25.875C31.0312 25.6161 31.2411 25.4062 31.5 25.4062H45.5625C45.8214 25.4062 46.0312 25.6161 46.0312 25.875V44.625C46.0312 44.8839 45.8214 45.0938 45.5625 45.0938ZM31.9688 44.1562H45.0938V26.3438H31.9688V44.1562Z" fill="#272BA4"/>
<path d="M36.4219 34.3125C35.0003 34.3125 33.8438 33.1559 33.8438 31.7344C33.8438 30.3128 35.0003 29.1562 36.4219 29.1562C37.8434 29.1562 39 30.3128 39 31.7344C39 33.1559 37.8434 34.3125 36.4219 34.3125ZM36.4219 30.0938C35.5173 30.0938 34.7812 30.8298 34.7812 31.7344C34.7812 32.639 35.5173 33.375 36.4219 33.375C37.3265 33.375 38.0625 32.639 38.0625 31.7344C38.0625 30.8298 37.3265 30.0938 36.4219 30.0938Z" fill="#272BA4"/>
<path d="M40.6406 34.3125C39.2191 34.3125 38.0625 33.1559 38.0625 31.7344C38.0625 30.3128 39.2191 29.1562 40.6406 29.1562C42.0622 29.1562 43.2188 30.3128 43.2188 31.7344C43.2188 33.1559 42.0622 34.3125 40.6406 34.3125ZM40.6406 30.0938C39.736 30.0938 39 30.8298 39 31.7344C39 32.639 39.736 33.375 40.6406 33.375C41.5452 33.375 42.2812 32.639 42.2812 31.7344C42.2812 30.8298 41.5452 30.0938 40.6406 30.0938Z" fill="#272BA4"/>
<path d="M38.5312 37.125C38.2723 37.125 38.0625 36.9152 38.0625 36.6562V31.7344C38.0625 31.4754 38.2723 31.2656 38.5312 31.2656C38.7902 31.2656 39 31.4754 39 31.7344V36.6562C39 36.9152 38.7902 37.125 38.5312 37.125Z" fill="#272BA4"/>
<path d="M4.78125 27.2812C3.23044 27.2812 1.96875 26.0196 1.96875 24.4688C1.96875 22.9179 3.23044 21.6562 4.78125 21.6562C6.33206 21.6562 7.59375 22.9179 7.59375 24.4688C7.59375 26.0196 6.33206 27.2812 4.78125 27.2812ZM4.78125 22.5938C3.74738 22.5938 2.90625 23.4349 2.90625 24.4688C2.90625 25.5026 3.74738 26.3438 4.78125 26.3438C5.81512 26.3438 6.65625 25.5026 6.65625 24.4688C6.65625 23.4349 5.81512 22.5938 4.78125 22.5938Z" fill="#272BA4"/>
<path d="M40.4062 14.1562C38.3385 14.1562 36.6562 12.474 36.6562 10.4062C36.6562 8.3385 38.3385 6.65625 40.4062 6.65625C42.474 6.65625 44.1562 8.3385 44.1562 10.4062C44.1562 12.474 42.474 14.1562 40.4062 14.1562ZM40.4062 7.59375C38.8554 7.59375 37.5938 8.85544 37.5938 10.4062C37.5938 11.9571 38.8554 13.2188 40.4062 13.2188C41.9571 13.2188 43.2188 11.9571 43.2188 10.4062C43.2188 8.85544 41.9571 7.59375 40.4062 7.59375Z" fill="#272BA4"/>
<path d="M45.5625 42.2812H35.25C34.9911 42.2812 34.7812 42.0714 34.7812 41.8125C34.7812 41.5536 34.9911 41.3438 35.25 41.3438H45.5625C45.8214 41.3438 46.0312 41.5536 46.0312 41.8125C46.0312 42.0714 45.8214 42.2812 45.5625 42.2812Z" fill="#272BA4"/>
</svg>
