<svg width="48" height="48" viewBox="0 0 48 48" fill="none" xmlns="http://www.w3.org/2000/svg">
<g clip-path="url(#clip0)">
<path d="M0.453577 0.00245781C0.324328 0.0271182 0.207946 0.0966314 0.124973 0.198748C0.041999 0.300864 -0.00223203 0.429012 8.67495e-05 0.560566V39.6285C9.39723e-05 39.7765 0.0588997 39.9185 0.163569 40.0231C0.268239 40.1278 0.4102 40.1866 0.558229 40.1866H15.349C17.137 44.7585 21.59 48.0002 26.7909 48.0002C33.5659 48.0002 39.07 42.4963 39.07 35.7217C39.07 29.7097 34.7344 24.7219 29.0235 23.67V9.4904C29.0252 9.41647 29.0122 9.34294 28.9852 9.27408C28.9583 9.20521 28.9179 9.14236 28.8665 9.08923L19.9362 0.159435C19.8831 0.108002 19.8203 0.0676274 19.7514 0.0406802C19.6825 0.013733 19.609 0.000745392 19.5351 0.00245781H0.558229C0.523422 -0.000819271 0.488384 -0.000819271 0.453577 0.00245781ZM1.11637 1.11867H18.9769V9.4904C18.9769 9.63841 19.0357 9.78036 19.1404 9.88502C19.2451 9.98968 19.387 10.0485 19.5351 10.0485H27.9072V23.4956C27.5395 23.4621 27.1671 23.4431 26.7909 23.4431C20.0159 23.4431 14.5118 28.947 14.5118 35.7216C14.5118 36.8803 14.6819 38.0071 14.9827 39.0703H1.11637V1.11857V1.11867ZM20.0932 1.90353L27.1223 8.93229H20.0932V1.90353ZM26.7909 24.5594C32.9626 24.5594 37.9537 29.5503 37.9537 35.7217C37.9537 41.8931 32.9626 46.884 26.7909 46.884C20.6192 46.884 15.6281 41.8931 15.6281 35.7217C15.6281 29.5503 20.6192 24.5594 26.7909 24.5594ZM31.7619 31.2394C31.6171 31.2586 31.4856 31.3337 31.3956 31.4486L25.0467 38.8437L22.1165 36.4019C22.0626 36.3421 21.9964 36.2946 21.9225 36.2627C21.8486 36.2308 21.7686 36.2154 21.6881 36.2173C21.6076 36.2192 21.5285 36.2385 21.4562 36.2739C21.3838 36.3093 21.32 36.3599 21.2691 36.4223C21.2182 36.4847 21.1814 36.5574 21.1612 36.6353C21.141 36.7132 21.1379 36.7946 21.1521 36.8738C21.1663 36.9531 21.1975 37.0283 21.2435 37.0944C21.2896 37.1604 21.3494 37.2158 21.4188 37.2565L24.7676 40.0471C24.88 40.1363 25.0224 40.1789 25.1653 40.1659C25.3082 40.1529 25.4407 40.0854 25.5351 39.9773L32.2328 32.1637C32.3066 32.0798 32.3535 31.9756 32.3674 31.8648C32.3814 31.7539 32.3617 31.6414 32.311 31.5418C32.2602 31.4422 32.1808 31.3602 32.0829 31.3062C31.985 31.2523 31.8731 31.229 31.7619 31.2394Z" fill="#EB597C"/>
</g>
<defs>
<clipPath id="clip0">
<rect width="48" height="48" fill="white"/>
</clipPath>
</defs>
</svg>
