<svg width="48" height="48" viewBox="0 0 48 48" fill="none" xmlns="http://www.w3.org/2000/svg">
<path d="M35.328 10.752C35.04 10.752 34.752 10.512 34.752 10.176V3.264C34.752 2.064 33.792 1.104 32.592 1.104H12.288C12 1.104 11.712 0.864 11.712 0.528C11.712 0.24 12 0 12.288 0H32.64C34.464 0 35.904 1.488 35.904 3.264V10.224C35.904 10.512 35.616 10.752 35.328 10.752Z" fill="#38B0B0"/>
<path d="M32.64 48H3.696C1.872 48 0.431999 46.512 0.431999 44.736V3.264C0.431999 1.488 1.92 0 3.696 0H12.288C12.576 0 12.864 0.24 12.864 0.576C12.864 0.864 12.624 1.152 12.288 1.152H3.696C2.496 1.152 1.536 2.112 1.536 3.312V44.784C1.536 45.984 2.496 46.944 3.696 46.944H32.64C33.84 46.944 34.8 45.984 34.8 44.784V25.68C34.8 25.392 35.04 25.104 35.376 25.104C35.664 25.104 35.952 25.344 35.952 25.68V44.736C35.904 46.512 34.416 48 32.64 48Z" fill="#38B0B0"/>
<path d="M24.096 44.0161H4.992C4.704 44.0161 4.416 43.7761 4.416 43.4401V4.56013C4.416 4.27213 4.656 3.98413 4.992 3.98413C5.28 3.98413 5.568 4.22413 5.568 4.56013V42.8641H23.856L30.768 36.0001V30.5281C30.768 30.2401 31.008 29.9521 31.344 29.9521C31.632 29.9521 31.92 30.1921 31.92 30.5281V36.1921C31.92 36.3361 31.872 36.4801 31.776 36.5761L24.576 43.7761C24.384 43.9201 24.24 44.0161 24.096 44.0161Z" fill="#38B0B0"/>
<path d="M11.904 25.056C11.76 25.056 11.616 25.008 11.52 24.912L9.984 23.376C9.744 23.136 9.744 22.8 9.984 22.56C10.224 22.32 10.56 22.32 10.8 22.56L11.952 23.712L14.736 20.784C14.928 20.544 15.312 20.544 15.552 20.784C15.792 20.976 15.792 21.36 15.552 21.6L12.384 24.96C12.24 24.96 12.096 25.056 11.904 25.056Z" fill="#38B0B0"/>
<path d="M11.904 35.088C11.76 35.088 11.616 35.04 11.52 34.944L9.984 33.408C9.744 33.168 9.744 32.832 9.984 32.592C10.224 32.352 10.56 32.352 10.8 32.592L11.952 33.744L14.736 30.816C14.928 30.576 15.312 30.576 15.552 30.816C15.792 31.008 15.792 31.392 15.552 31.632L12.384 34.992C12.24 34.992 12.096 35.088 11.904 35.088Z" fill="#38B0B0"/>
<path d="M11.904 16.5599C11.76 16.5599 11.616 16.5119 11.52 16.4159L9.984 14.8799C9.744 14.6399 9.744 14.3039 9.984 14.0639C10.224 13.8239 10.56 13.8239 10.8 14.0639L11.952 15.2159L14.736 12.2879C14.928 12.0479 15.312 12.0479 15.552 12.2879C15.792 12.4799 15.792 12.8639 15.552 13.1039L12.384 16.4639C12.24 16.4639 12.096 16.5599 11.904 16.5599Z" fill="#38B0B0"/>
<path d="M25.44 32.1122C25.296 32.1122 25.152 32.0642 25.056 31.9682L21.312 28.2242C21.072 27.9842 21.072 27.6482 21.312 27.4082L42.576 6.14416C43.152 5.56816 44.16 5.56816 44.736 6.14416L47.136 8.54416C47.712 9.12016 47.712 10.1282 47.136 10.7042L25.872 31.9202C25.728 32.0162 25.584 32.1122 25.44 32.1122ZM22.512 27.7922L25.44 30.7202L46.32 9.84016C46.464 9.69616 46.464 9.40816 46.32 9.26416L43.92 6.86416C43.776 6.72016 43.488 6.72016 43.344 6.86416L22.512 27.7922Z" fill="#38B0B0"/>
<path d="M20.64 34.896C20.496 34.896 20.352 34.848 20.256 34.752L18.528 33.024C18.384 32.88 18.336 32.64 18.384 32.4L19.824 28.944C19.872 28.896 19.872 28.8 19.968 28.752L21.312 27.408C21.552 27.168 21.888 27.168 22.128 27.408C22.368 27.648 22.368 27.984 22.128 28.224L20.832 29.52L19.584 32.544L20.784 33.744L23.808 32.496L25.104 31.2C25.344 30.96 25.68 30.96 25.92 31.2C26.16 31.44 26.16 31.776 25.92 32.016L24.48 33.264C24.432 33.312 24.384 33.36 24.288 33.408L20.832 34.848C20.784 34.848 20.688 34.896 20.64 34.896Z" fill="#38B0B0"/>
<path d="M18 35.8081C17.856 35.8081 17.712 35.7601 17.616 35.6641C17.376 35.4241 17.376 35.0881 17.616 34.8481L19.392 33.0721C19.632 32.8321 19.968 32.8321 20.208 33.0721C20.448 33.3121 20.448 33.6481 20.208 33.8881L18.432 35.6641C18.24 35.7601 18.144 35.8081 18 35.8081Z" fill="#38B0B0"/>
<path d="M38.544 23.9043C38.4 23.9043 38.256 23.8563 38.16 23.7603C37.92 23.5203 37.92 23.1843 38.16 22.9443L44.784 16.3203C45.072 16.0323 45.264 15.6003 45.264 15.1683C45.264 14.7363 45.072 14.3043 44.784 14.0163L43.92 13.1523C43.68 12.9123 43.68 12.5763 43.92 12.3363C44.16 12.0962 44.496 12.0962 44.736 12.3363L45.6 13.2003C46.128 13.7283 46.416 14.4003 46.416 15.1683C46.416 15.8883 46.128 16.6083 45.6 17.1363L38.976 23.7123C38.832 23.8083 38.688 23.9043 38.544 23.9043Z" fill="#38B0B0"/>
<path d="M41.04 16.5122C40.896 16.5122 40.752 16.4642 40.656 16.3682L36.912 12.6242C36.672 12.3842 36.672 12.0482 36.912 11.8082C37.152 11.5682 37.488 11.5682 37.728 11.8082L41.472 15.5522C41.712 15.7922 41.712 16.1282 41.472 16.3682C41.328 16.4642 41.184 16.5122 41.04 16.5122Z" fill="#38B0B0"/>
</svg>
