<svg width="14" height="14" viewBox="0 0 14 14" fill="none" xmlns="http://www.w3.org/2000/svg">
<path d="M5.25002 6.13408C3.64175 6.13408 2.33331 4.82574 2.33331 3.21748C2.33331 1.60922 3.64175 0.300781 5.25002 0.300781C6.85828 0.300781 8.16672 1.60922 8.16672 3.21748C8.16672 4.82574 6.85828 6.13408 5.25002 6.13408ZM5.25002 1.17578C4.12422 1.17578 3.20831 2.09158 3.20831 3.21748C3.20831 4.34328 4.12422 5.25908 5.25002 5.25908C6.37581 5.25908 7.29172 4.34328 7.29172 3.21748C7.29172 2.09158 6.37581 1.17578 5.25002 1.17578Z" fill="#272BA4"/>
<path d="M12.9792 13.7175H9.7708C9.2079 13.7175 8.75 13.2596 8.75 12.6966V10.655C8.75 10.092 9.2079 9.63409 9.7708 9.63409H12.9792C13.5421 9.63409 14 10.092 14 10.655V12.6966C14 13.2596 13.5421 13.7175 12.9792 13.7175ZM9.7708 10.5091C9.69037 10.5091 9.625 10.5745 9.625 10.655V12.6966C9.625 12.7771 9.69037 12.8425 9.7708 12.8425H12.9792C13.0596 12.8425 13.125 12.7771 13.125 12.6966V10.655C13.125 10.5745 13.0596 10.5091 12.9792 10.5091H9.7708Z" fill="#272BA4"/>
<path d="M12.3958 10.5091H10.3542C10.1127 10.5091 9.91669 10.3131 9.91669 10.0716V8.75908C9.91669 7.95532 10.5711 7.30078 11.375 7.30078C12.1788 7.30078 12.8333 7.95532 12.8333 8.75908V10.0716C12.8333 10.3131 12.6373 10.5091 12.3958 10.5091ZM10.7917 9.63408H11.9583V8.75908C11.9583 8.43768 11.6964 8.17578 11.375 8.17578C11.0536 8.17578 10.7917 8.43768 10.7917 8.75908V9.63408Z" fill="#272BA4"/>
<path d="M7.2917 12.5508H0.4375C0.195999 12.5508 0 12.3548 0 12.1133V10.0716C0 8.54385 1.24307 7.30078 2.7708 7.30078H7.875C8.3627 7.30078 8.84271 7.4297 9.2628 7.67409C9.47162 7.79543 9.54211 8.0632 9.42088 8.27202C9.29955 8.48148 9.03177 8.55144 8.82231 8.4301C8.53595 8.2639 8.20804 8.17578 7.875 8.17578H2.7708C1.72554 8.17578 0.875 9.02632 0.875 10.0716V11.6758H7.2917C7.5332 11.6758 7.7292 11.8718 7.7292 12.1133C7.7292 12.3548 7.5332 12.5508 7.2917 12.5508Z" fill="#272BA4"/>
</svg>
