<svg width="635" height="320" viewBox="0 0 635 320" fill="none" xmlns="http://www.w3.org/2000/svg">
<path d="M94.4863 274H93.4863V275H94.4863V274ZM94.4863 225.36H95.4863V224.36H94.4863V225.36ZM6.48625 225.36H5.48625V226.36H6.48625V225.36ZM6.48625 193.04L5.63153 192.521L5.48625 192.76V193.04H6.48625ZM80.7263 70.8V69.8H80.1636L79.8715 70.2809L80.7263 70.8ZM138.326 70.8H139.326V69.8H138.326V70.8ZM138.326 189.52H137.326V190.52H138.326V189.52ZM161.686 189.52H162.686V188.52H161.686V189.52ZM161.686 225.36V226.36H162.686V225.36H161.686ZM138.326 225.36V224.36H137.326V225.36H138.326ZM138.326 274V275H139.326V274H138.326ZM51.6063 189.52L50.7521 189L49.8269 190.52H51.6063V189.52ZM94.4863 189.52V190.52H95.4863V189.52H94.4863ZM95.1263 133.84L96.125 133.89L96.1251 133.889L95.1263 133.84ZM96.4062 111.12L97.404 111.187L97.4751 110.12H96.4062V111.12ZM95.1263 111.12V110.12H94.4864L94.2183 110.701L95.1263 111.12ZM87.1263 128.08L88.0273 128.514L87.1263 128.08ZM78.4863 145.36L79.3405 145.88L79.3583 145.851L79.374 145.82L78.4863 145.36ZM95.4863 274V225.36H93.4863V274H95.4863ZM94.4863 224.36H6.48625V226.36H94.4863V224.36ZM7.48625 225.36V193.04H5.48625V225.36H7.48625ZM7.34097 193.559L81.581 71.3191L79.8715 70.2809L5.63153 192.521L7.34097 193.559ZM80.7263 71.8H138.326V69.8H80.7263V71.8ZM137.326 70.8V189.52H139.326V70.8H137.326ZM138.326 190.52H161.686V188.52H138.326V190.52ZM160.686 189.52V225.36H162.686V189.52H160.686ZM161.686 224.36H138.326V226.36H161.686V224.36ZM137.326 225.36V274H139.326V225.36H137.326ZM138.326 273H94.4863V275H138.326V273ZM51.6063 190.52H94.4863V188.52H51.6063V190.52ZM95.4863 189.52V156.56H93.4863V189.52H95.4863ZM95.4863 156.56C95.4863 149.967 95.6989 142.411 96.125 133.89L94.1275 133.79C93.7002 142.336 93.4863 149.926 93.4863 156.56H95.4863ZM96.1251 133.889C96.5515 125.146 96.9779 117.579 97.404 111.187L95.4085 111.053C94.9813 117.461 94.5543 125.041 94.1274 133.791L96.1251 133.889ZM96.4062 110.12H95.1263V112.12H96.4062V110.12ZM94.2183 110.701C91.6607 116.242 88.9963 121.891 86.2253 127.646L88.0273 128.514C90.8028 122.749 93.4718 117.091 96.0342 111.539L94.2183 110.701ZM86.2253 127.646C83.4563 133.397 80.5807 139.148 77.5985 144.9L79.374 145.82C82.3652 140.052 85.2496 134.283 88.0273 128.514L86.2253 127.646ZM77.6321 144.84L50.7521 189L52.4605 190.04L79.3405 145.88L77.6321 144.84ZM240.189 271.12L239.725 272.006L239.733 272.01L239.742 272.014L240.189 271.12ZM217.149 250.64L216.326 251.208L216.33 251.215L216.335 251.221L217.149 250.64ZM202.429 217.36L201.46 217.61L201.462 217.617L201.464 217.624L202.429 217.36ZM202.429 126.16L201.465 125.892L201.463 125.899L201.461 125.906L202.429 126.16ZM217.149 93.52L216.335 92.9388L216.332 92.9425L217.149 93.52ZM240.189 73.68L240.619 74.5828L240.627 74.5787L240.636 74.5744L240.189 73.68ZM299.709 73.68L299.262 74.5744L299.27 74.5787L299.279 74.5828L299.709 73.68ZM322.429 93.52L321.606 94.0882L321.614 94.0995L321.622 94.1105L322.429 93.52ZM337.149 126.16L336.181 126.414L336.183 126.421L336.185 126.428L337.149 126.16ZM337.149 217.36L336.184 217.096L336.182 217.103L336.18 217.11L337.149 217.36ZM322.429 250.64L321.615 250.059L321.61 250.065L321.606 250.072L322.429 250.64ZM299.709 271.12L300.156 272.014L300.164 272.01L300.173 272.006L299.709 271.12ZM281.149 238.48L281.639 239.352L281.659 239.34L281.679 239.328L281.149 238.48ZM290.109 227.28L289.207 226.847L290.109 227.28ZM295.869 205.84L294.882 205.676L294.88 205.687L294.879 205.699L295.869 205.84ZM295.869 137.68L294.879 137.821L294.881 137.835L294.883 137.848L295.869 137.68ZM290.109 116.88L289.214 117.327L289.218 117.335L289.222 117.343L290.109 116.88ZM259.069 106.32L258.578 105.448L259.069 106.32ZM250.109 116.88L250.995 117.343L250.999 117.335L251.003 117.327L250.109 116.88ZM244.029 137.68L245.014 137.848L245.015 137.844L244.029 137.68ZM250.109 227.28L249.207 227.713L250.109 227.28ZM259.069 238.48L258.539 239.328L258.558 239.34L258.578 239.352L259.069 238.48ZM269.949 276.84C259.21 276.84 249.445 274.63 240.636 270.226L239.742 272.014C248.852 276.57 258.927 278.84 269.949 278.84V276.84ZM240.653 270.234C231.844 265.62 224.28 258.903 217.962 250.059L216.335 251.221C222.818 260.297 230.614 267.233 239.725 272.006L240.653 270.234ZM217.972 250.072C211.863 241.225 206.997 230.241 203.393 217.096L201.464 217.624C205.113 230.933 210.061 242.135 216.326 251.208L217.972 250.072ZM203.397 217.11C200.009 203.983 198.309 188.817 198.309 171.6H196.309C196.309 188.943 198.021 204.283 201.46 217.61L203.397 217.11ZM198.309 171.6C198.309 154.383 200.01 139.325 203.396 126.414L201.461 125.906C198.021 139.022 196.309 154.257 196.309 171.6H198.309ZM203.392 126.428C206.996 113.498 211.86 102.729 217.965 94.0975L216.332 92.9425C210.065 101.804 205.115 112.795 201.465 125.892L203.392 126.428ZM217.962 94.1012C224.275 85.2638 231.828 78.7689 240.619 74.5828L239.759 72.7771C230.629 77.1245 222.823 83.8562 216.335 92.9388L217.962 94.1012ZM240.636 74.5744C249.445 70.1697 259.21 67.96 269.949 67.96V65.96C258.927 65.96 248.852 68.2303 239.742 72.7856L240.636 74.5744ZM269.949 67.96C280.687 67.96 290.452 70.1697 299.262 74.5744L300.156 72.7856C291.045 68.2303 280.97 65.96 269.949 65.96V67.96ZM299.279 74.5828C308.066 78.7671 315.509 85.2578 321.606 94.0882L323.252 92.9518C316.975 83.8622 309.272 77.1262 300.139 72.7771L299.279 74.5828ZM321.622 94.1105C327.932 102.735 332.793 113.493 336.181 126.414L338.116 125.906C334.678 112.8 329.725 101.799 323.236 92.9295L321.622 94.1105ZM336.185 126.428C339.782 139.334 341.589 154.387 341.589 171.6H343.589C343.589 154.253 341.769 139.013 338.112 125.892L336.185 126.428ZM341.589 171.6C341.589 188.813 339.782 203.974 336.184 217.096L338.113 217.624C341.769 204.293 343.589 188.947 343.589 171.6H341.589ZM336.18 217.11C332.791 230.245 327.929 241.22 321.615 250.059L323.242 251.221C329.729 242.14 334.68 230.928 338.117 217.61L336.18 217.11ZM321.606 250.072C315.504 258.909 308.05 265.622 299.245 270.234L300.173 272.006C309.287 267.232 316.98 260.291 323.252 251.208L321.606 250.072ZM299.262 270.226C290.452 274.63 280.687 276.84 269.949 276.84V278.84C280.97 278.84 291.045 276.57 300.156 272.014L299.262 270.226ZM269.949 242.36C274.168 242.36 278.071 241.359 281.639 239.352L280.659 237.608C277.4 239.441 273.837 240.36 269.949 240.36V242.36ZM281.679 239.328C285.311 237.058 288.405 233.141 291.01 227.713L289.207 226.847C286.693 232.085 283.813 235.636 280.619 237.632L281.679 239.328ZM291.01 227.713C293.631 222.252 295.571 214.995 296.859 205.981L294.879 205.699C293.606 214.605 291.706 221.641 289.207 226.847L291.01 227.713ZM296.855 206.004C298.361 196.97 299.109 185.496 299.109 171.6H297.109C297.109 185.437 296.363 196.79 294.882 205.676L296.855 206.004ZM299.109 171.6C299.109 157.705 298.361 146.336 296.854 137.512L294.883 137.848C296.363 146.518 297.109 157.762 297.109 171.6H299.109ZM296.859 137.539C295.572 128.528 293.63 121.468 290.995 116.417L289.222 117.343C291.707 122.105 293.606 128.912 294.879 137.821L296.859 137.539ZM291.003 116.433C288.393 111.212 285.29 107.502 281.639 105.448L280.659 107.192C283.835 108.978 286.704 112.308 289.214 117.327L291.003 116.433ZM281.639 105.448C278.071 103.441 274.168 102.44 269.949 102.44V104.44C273.837 104.44 277.4 105.359 280.659 107.192L281.639 105.448ZM269.949 102.44C265.933 102.44 262.138 103.446 258.578 105.448L259.559 107.192C262.826 105.354 266.284 104.44 269.949 104.44V102.44ZM258.578 105.448C254.928 107.502 251.825 111.212 249.214 116.433L251.003 117.327C253.513 112.308 256.383 108.978 259.559 107.192L258.578 105.448ZM249.222 116.417C246.592 121.458 244.543 128.509 243.042 137.516L245.015 137.844C246.501 128.931 248.505 122.115 250.995 117.343L249.222 116.417ZM243.043 137.512C241.536 146.336 240.789 157.705 240.789 171.6H242.789C242.789 157.762 243.534 146.518 245.014 137.848L243.043 137.512ZM240.789 171.6C240.789 185.496 241.537 196.97 243.042 206.004L245.015 205.676C243.534 196.79 242.789 185.437 242.789 171.6H240.789ZM243.042 206.004C244.544 215.013 246.591 222.262 249.207 227.713L251.01 226.847C248.507 221.632 246.5 214.587 245.015 205.676L243.042 206.004ZM249.207 227.713C251.813 233.141 254.906 237.058 258.539 239.328L259.599 237.632C256.405 235.636 253.525 232.085 251.01 226.847L249.207 227.713ZM258.578 239.352C262.138 241.354 265.933 242.36 269.949 242.36V240.36C266.284 240.36 262.826 239.446 259.559 237.608L258.578 239.352ZM464.611 274H463.611V275H464.611V274ZM464.611 225.36H465.611V224.36H464.611V225.36ZM376.611 225.36H375.611V226.36H376.611V225.36ZM376.611 193.04L375.757 192.521L375.611 192.76V193.04H376.611ZM450.851 70.8V69.8H450.289L449.997 70.2809L450.851 70.8ZM508.451 70.8H509.451V69.8H508.451V70.8ZM508.451 189.52H507.451V190.52H508.451V189.52ZM531.811 189.52H532.811V188.52H531.811V189.52ZM531.811 225.36V226.36H532.811V225.36H531.811ZM508.451 225.36V224.36H507.451V225.36H508.451ZM508.451 274V275H509.451V274H508.451ZM421.731 189.52L420.877 189L419.952 190.52H421.731V189.52ZM464.611 189.52V190.52H465.611V189.52H464.611ZM465.251 133.84L466.25 133.89L466.25 133.889L465.251 133.84ZM466.531 111.12L467.529 111.187L467.6 110.12H466.531V111.12ZM465.251 111.12V110.12H464.611L464.343 110.701L465.251 111.12ZM457.251 128.08L458.152 128.514L457.251 128.08ZM448.611 145.36L449.465 145.88L449.483 145.851L449.499 145.82L448.611 145.36ZM465.611 274V225.36H463.611V274H465.611ZM464.611 224.36H376.611V226.36H464.611V224.36ZM377.611 225.36V193.04H375.611V225.36H377.611ZM377.466 193.559L451.706 71.3191L449.997 70.2809L375.757 192.521L377.466 193.559ZM450.851 71.8H508.451V69.8H450.851V71.8ZM507.451 70.8V189.52H509.451V70.8H507.451ZM508.451 190.52H531.811V188.52H508.451V190.52ZM530.811 189.52V225.36H532.811V189.52H530.811ZM531.811 224.36H508.451V226.36H531.811V224.36ZM507.451 225.36V274H509.451V225.36H507.451ZM508.451 273H464.611V275H508.451V273ZM421.731 190.52H464.611V188.52H421.731V190.52ZM465.611 189.52V156.56H463.611V189.52H465.611ZM465.611 156.56C465.611 149.967 465.824 142.411 466.25 133.89L464.253 133.79C463.825 142.336 463.611 149.926 463.611 156.56H465.611ZM466.25 133.889C466.677 125.146 467.103 117.579 467.529 111.187L465.533 111.053C465.106 117.461 464.679 125.041 464.252 133.791L466.25 133.889ZM466.531 110.12H465.251V112.12H466.531V110.12ZM464.343 110.701C461.786 116.242 459.121 121.891 456.35 127.646L458.152 128.514C460.928 122.749 463.597 117.091 466.159 111.539L464.343 110.701ZM456.35 127.646C453.581 133.397 450.706 139.148 447.724 144.9L449.499 145.82C452.49 140.052 455.375 134.283 458.152 128.514L456.35 127.646ZM447.757 144.84L420.877 189L422.585 190.04L449.465 145.88L447.757 144.84Z" fill="#EB597C"/>
<path d="M589.304 249.206L589.565 250.001L589.979 250.389L590.424 250.808C591.062 251.788 591.791 252.666 592.589 253.417L605.647 269.163L606.786 248.737C606.98 247.658 607.043 246.518 606.975 245.352L607.085 244.752L607.185 244.193L606.923 243.4L583.039 170.917L584.061 170.58L592.256 195.453L593.525 195.035L584.909 168.892L582.62 169.648L581.985 169.858L577.933 171.192L575.14 162.72C574.442 160.599 572.024 159.483 569.75 160.234C567.477 160.983 566.197 163.316 566.895 165.437L569.687 173.909L565 175.453L589.304 249.206ZM605.454 248.664L604.506 265.693L593.618 252.564L591.448 249.946C591.439 249.935 591.434 249.923 591.425 249.914L605.641 245.227C605.641 245.238 605.641 245.253 605.643 245.264L605.454 248.664ZM568.164 165.02C567.697 163.599 568.597 162.023 570.171 161.502C571.744 160.984 573.405 161.717 573.875 163.137L576.667 171.611L570.958 173.492L568.164 165.02ZM581.77 171.337L605.654 243.817L605.567 243.844L590.661 248.758L590.576 248.786L566.69 176.306L581.77 171.337Z" fill="#EB597C"/>
<path d="M615.269 270.578C609.479 274.539 589.706 270.522 589.507 270.481L589.249 271.734C589.794 271.847 598.41 273.597 606.046 273.597C610.077 273.597 613.837 273.109 615.991 271.636C621.727 267.714 634.161 272.58 634.282 272.627L634.755 271.436C634.22 271.225 621.559 266.274 615.269 270.578Z" fill="#EB597C"/>
</svg>
