<svg width="28" height="24" fill="none" xmlns="http://www.w3.org/2000/svg"><path d="M17.5 4.907c0 1.036.32 1.972.86 2.769l-1.98 1.653c-.48-1.235-1.18-2.53-2.18-3.286C11.92 4.35 6.52.446 5.04.087 3.54-.27.02.585.02.585L13.42 11.8.02 23.012s3.52.856 5.02.498c1.5-.359 6.9-4.243 9.16-5.955 1-.757 1.7-2.052 2.18-3.287l1.98 1.653a4.837 4.837 0 00-.86 2.769c0 2.729 2.2 4.92 4.9 4.92s4.9-2.191 4.9-4.88c0-2.69-2.2-4.88-4.9-4.88-.92 0-1.78.259-2.52.697l-2.66-2.21-.1-.499c.06-.318.1-.497.1-.497l2.66-2.231c.74.438 1.6.697 2.52.697 2.7 0 4.9-2.191 4.9-4.88S25.1.047 22.4.047a4.868 4.868 0 00-4.9 4.86zm7.26 13.823c0 1.294-1.06 2.33-2.34 2.33-1.3 0-2.34-1.056-2.34-2.33 0-1.295 1.06-2.33 2.34-2.33 1.28-.02 2.34 1.035 2.34 2.33zm0-13.823c0 1.295-1.06 2.33-2.34 2.33-1.3 0-2.34-1.055-2.34-2.33 0-1.294 1.06-2.33 2.34-2.33 1.28 0 2.34 1.036 2.34 2.33z" fill="#9BB1DE"/></svg>