<svg width="18" height="18" viewBox="0 0 18 18" fill="none" xmlns="http://www.w3.org/2000/svg">
<path d="M3.75081 11.115C3.84902 11.2094 3.92257 11.3264 3.96503 11.4558C4.00748 11.5852 4.01754 11.7231 3.99432 11.8573L3.14204 16.6293C3.11635 16.7791 3.13273 16.933 3.18936 17.074C3.24599 17.215 3.34065 17.3375 3.4628 17.4279C3.58494 17.5183 3.72978 17.573 3.88118 17.586C4.03257 17.5989 4.18459 17.5696 4.3203 17.5012L8.59349 15.2114C8.71431 15.1468 8.84922 15.113 8.98624 15.113C9.12327 15.113 9.25817 15.1468 9.379 15.2114L13.6522 17.5012C13.7885 17.575 13.9429 17.6087 14.0976 17.5984C14.2522 17.5882 14.4008 17.5343 14.5261 17.4431C14.6515 17.3519 14.7484 17.227 14.8057 17.083C14.863 16.939 14.8784 16.7817 14.8501 16.6293L14.0057 11.8573C13.9824 11.7231 13.9925 11.5852 14.035 11.4558C14.0774 11.3264 14.151 11.2094 14.2492 11.115L17.7447 7.75694C17.856 7.64923 17.9347 7.51237 17.9718 7.36202C18.0089 7.21167 18.0029 7.05391 17.9546 6.90679C17.9062 6.75968 17.8174 6.62914 17.6983 6.53013C17.5793 6.43113 17.4347 6.36764 17.2812 6.34695L12.4857 5.68712C12.3511 5.66852 12.2231 5.61728 12.1129 5.53787C12.0027 5.45846 11.9136 5.35328 11.8534 5.23152L9.74033 0.864076C9.67237 0.725681 9.56699 0.609105 9.43612 0.527576C9.30526 0.446048 9.15417 0.402832 8.99999 0.402832C8.84581 0.402832 8.69471 0.446048 8.56385 0.527576C8.43299 0.609105 8.3276 0.725681 8.25964 0.864076L6.14662 5.23152C6.08494 5.35531 5.99339 5.46178 5.88025 5.54132C5.7671 5.62087 5.63593 5.67097 5.49857 5.68712L0.714808 6.34695C0.561659 6.36826 0.417583 6.43218 0.299021 6.53144C0.180459 6.6307 0.0921854 6.76128 0.0442728 6.90829C-0.00363974 7.05531 -0.00926159 7.21283 0.0280487 7.36288C0.0653591 7.51294 0.144099 7.64949 0.255284 7.75694L3.75081 11.115Z" fill="#E5E5E5"/>
</svg>
