<svg width="657" height="226" viewBox="0 0 657 226" fill="none" xmlns="http://www.w3.org/2000/svg">
<path d="M180.18 220.36C240.876 220.36 290.08 213.089 290.08 204.12C290.08 195.151 240.876 187.88 180.18 187.88C119.484 187.88 70.2803 195.151 70.2803 204.12C70.2803 213.089 119.484 220.36 180.18 220.36Z" fill="url(#paint0_radial)"/>
<path d="M149.52 216.44C210.216 216.44 259.42 209.169 259.42 200.2C259.42 191.231 210.216 183.96 149.52 183.96C88.824 183.96 39.6201 191.231 39.6201 200.2C39.6201 209.169 88.824 216.44 149.52 216.44Z" fill="url(#paint1_radial)"/>
<path d="M470.54 224.84C531.236 224.84 580.44 217.569 580.44 208.6C580.44 199.631 531.236 192.36 470.54 192.36C409.844 192.36 360.64 199.631 360.64 208.6C360.64 217.569 409.844 224.84 470.54 224.84Z" fill="url(#paint2_radial)"/>
<path d="M515.48 224.56C576.176 224.56 625.38 216.349 625.38 206.22C625.38 196.091 576.176 187.88 515.48 187.88C454.784 187.88 405.58 196.091 405.58 206.22C405.58 216.349 454.784 224.56 515.48 224.56Z" fill="url(#paint3_radial)"/>
<path d="M328.3 225.12C509.615 225.12 656.6 216.909 656.6 206.78C656.6 196.651 509.615 188.44 328.3 188.44C146.985 188.44 0 196.651 0 206.78C0 216.909 146.985 225.12 328.3 225.12Z" fill="url(#paint4_radial)"/>
<path d="M297.92 222.74C382.972 222.74 451.92 215.469 451.92 206.5C451.92 197.531 382.972 190.26 297.92 190.26C212.868 190.26 143.92 197.531 143.92 206.5C143.92 215.469 212.868 222.74 297.92 222.74Z" fill="url(#paint5_radial)"/>
<path d="M249.5 117.88L208.48 116.76L227.94 116.62L270.5 117.74L249.5 117.88Z" fill="url(#paint6_linear)"/>
<path d="M192.94 165.76V205.1L155.84 196.98V160.86L192.94 165.76Z" fill="url(#paint7_linear)"/>
<path d="M192.94 118.02L155.84 116.9V81.0596L192.94 79.0996V118.02Z" fill="url(#paint8_linear)"/>
<path d="M174.46 118.16L138.62 117.04L155.84 116.9L192.94 118.02L174.46 118.16Z" fill="url(#paint9_linear)"/>
<path d="M109.92 167.16L78.7002 161.98V121.24L109.92 122.78V167.16Z" fill="url(#paint10_linear)"/>
<path d="M109.92 122.78L78.7002 121.24L125.6 9.51978L160.32 1.25977L109.92 122.78Z" fill="url(#paint11_linear)"/>
<path d="M270.5 117.74V164.5L249.5 164.92V203.56L242.22 203.7L192.94 205.1V165.76L155.84 166.46L109.92 167.16V122.78L160.32 1.25977L219.68 2.93976L174.46 118.16H192.94V79.0998L234.24 79.3798H249.5V117.88L270.5 117.74Z" fill="url(#paint12_linear)"/>
<path d="M270.5 117.74V164.5L249.5 164.92V203.56L242.22 203.7L192.94 205.1V165.76L109.92 167.16V122.78L160.32 1.25977L219.68 2.93976L174.46 118.16H192.94V79.0998L234.24 79.3798H249.5V117.88L270.5 117.74Z" stroke="url(#paint13_linear)" stroke-width="0.2659" stroke-miterlimit="10" stroke-linecap="round" stroke-linejoin="round"/>
<path d="M270.5 117.74V164.5L249.5 164.92V203.56L242.22 203.7C222.48 150.22 228.36 103.88 234.24 79.2397L249.5 79.3798V117.74H270.5Z" fill="url(#paint14_linear)"/>
<path d="M351.281 155.54C351.001 155.54 350.861 155.54 350.581 155.68H350.441C350.161 155.68 350.021 155.68 349.741 155.68C349.461 155.68 349.181 155.68 348.901 155.68C347.221 155.68 345.821 155.4 344.421 154.98C343.721 154.7 343.161 154.42 342.461 154.14C341.901 153.72 341.341 153.3 340.781 152.88C340.221 152.46 339.801 151.9 339.381 151.34C339.241 151.2 339.241 151.06 339.101 150.92C338.681 150.36 338.261 149.8 337.981 149.1C337.981 149.1 337.981 148.96 337.841 148.96C337.421 148.26 337.141 147.56 336.721 146.72C336.581 146.58 336.581 146.3 336.441 146.16C336.161 145.32 335.741 144.48 335.461 143.64C335.461 143.5 335.461 143.5 335.321 143.36C335.041 142.52 334.761 141.54 334.621 140.56C334.621 140.28 334.481 140.14 334.481 139.86C334.201 138.88 334.061 137.76 333.781 136.5C333.641 136.08 333.641 135.52 333.501 135.1C333.361 134.26 333.221 133.28 333.081 132.44C333.081 131.88 332.941 131.32 332.941 130.76C332.801 129.78 332.801 128.94 332.661 127.96C332.521 127.12 332.521 126.28 332.381 125.44C332.381 125.3 332.381 125.02 332.381 124.88C332.241 123.62 332.241 122.22 332.101 120.82C332.101 120.54 332.101 120.12 332.101 119.84C332.101 118.86 331.961 117.88 331.961 116.9C331.961 116.62 331.961 116.34 331.961 116.06C331.961 114.8 331.821 113.54 331.821 112.14C331.821 111.86 331.821 111.44 331.821 111.16C331.821 110.04 331.821 109.06 331.821 107.94C331.821 107.52 331.821 107.1 331.821 106.68C331.821 105.28 331.821 103.74 331.821 102.34C331.821 100.66 331.821 98.9799 331.821 97.44C331.821 97.02 331.821 96.74 331.821 96.32C331.821 94.78 331.821 93.24 331.961 91.84C331.961 91.7 331.961 91.42 331.961 91.28C331.961 90.02 332.101 88.62 332.101 87.36C332.101 87.08 332.101 86.8 332.101 86.38C332.101 84.98 332.241 83.72 332.241 82.46C332.241 82.18 332.241 81.9 332.241 81.62C332.241 80.78 332.381 79.94 332.381 79.1C332.381 78.82 332.381 78.4 332.521 78.12C332.521 77.7 332.661 77.28 332.661 76.72C332.801 75.46 332.941 74.2 333.081 73.08C333.081 72.8 333.081 72.52 333.221 72.24C333.361 70.84 333.641 69.58 333.781 68.32C333.781 68.18 333.781 68.04 333.781 68.04C334.061 66.78 334.201 65.52 334.481 64.4C334.761 63.28 335.041 62.16 335.321 61.04C335.321 61.04 335.321 61.04 335.321 60.9C335.601 59.92 336.021 58.94 336.301 57.96C336.721 57.12 337.141 56.28 337.561 55.44C337.981 54.74 338.401 54.04 338.961 53.34C339.381 52.78 339.941 52.22 340.361 51.8C340.501 51.66 340.501 51.66 340.641 51.52C341.201 51.1 341.621 50.68 342.181 50.4C342.601 50.12 343.161 49.98 343.581 49.7C344.141 49.56 344.561 49.28 345.121 49.14C345.401 49.14 345.681 49 345.821 49C346.661 48.86 347.501 48.72 348.341 48.72C348.621 48.72 348.901 48.72 349.181 48.72C349.461 48.72 349.741 48.72 350.021 48.72C350.301 48.72 350.581 48.72 350.861 48.86C351.141 48.86 351.421 49 351.561 49L330.141 44.24C329.861 44.24 329.581 44.1 329.301 44.1C329.021 44.1 328.741 43.96 328.461 43.96C328.181 43.96 327.901 43.96 327.621 43.96C327.341 43.96 327.061 43.96 326.641 43.96C325.801 43.96 325.101 44.1 324.401 44.1C324.261 44.1 324.121 44.1 323.981 44.1C323.841 44.1 323.701 44.1 323.701 44.1C323.141 44.24 322.581 44.38 322.021 44.52C321.881 44.52 321.741 44.66 321.601 44.66C321.321 44.8 321.181 44.8 320.901 44.94C320.481 45.08 320.061 45.36 319.781 45.5C319.361 45.78 318.941 46.06 318.661 46.34C318.521 46.48 318.381 46.62 318.101 46.76L317.961 46.9L317.821 47.04C317.401 47.46 316.981 47.88 316.561 48.3C316.421 48.44 316.421 48.58 316.281 48.58C316.141 48.72 316.001 48.86 316.001 49C315.861 49.14 315.721 49.28 315.721 49.42C315.581 49.56 315.441 49.7 315.441 49.98C315.301 50.12 315.301 50.26 315.161 50.54L315.021 50.68C315.021 50.82 314.881 50.82 314.881 50.96C314.741 51.1 314.741 51.38 314.601 51.52C314.461 51.66 314.461 51.94 314.321 52.08C314.181 52.36 314.181 52.5 314.041 52.78C313.901 52.92 313.901 53.2 313.761 53.34C313.621 53.62 313.621 53.76 313.481 54.04C313.341 54.32 313.341 54.46 313.201 54.74C313.061 55.02 312.921 55.3 312.921 55.72C312.781 56 312.781 56.14 312.641 56.42V56.56C312.501 56.84 312.501 57.26 312.361 57.54C312.361 57.68 312.221 57.82 312.221 57.96C312.221 58.1 312.221 58.1 312.081 58.24C312.081 58.38 312.081 58.38 311.941 58.52C311.801 58.94 311.801 59.36 311.661 59.78C311.661 59.92 311.661 59.92 311.661 60.06C311.521 60.62 311.381 61.18 311.381 61.6C311.381 61.6 311.381 61.74 311.381 61.88C311.381 62.02 311.241 62.3 311.241 62.44C311.241 62.72 311.101 63 311.101 63.28C311.101 63.42 311.101 63.56 310.961 63.84C310.961 64.12 310.821 64.26 310.821 64.54C310.821 64.68 310.821 64.96 310.681 65.1C310.681 65.24 310.681 65.38 310.681 65.66C310.541 66.36 310.401 67.06 310.401 67.9C310.401 68.04 310.401 68.18 310.261 68.46C310.261 68.6 310.261 68.6 310.261 68.74C310.121 69.72 309.981 70.84 309.981 71.82V71.96C309.981 72.1 309.981 72.24 309.981 72.38C309.981 73.08 308.441 73.64 308.441 74.34C308.441 74.62 308.441 74.9 308.441 75.18C308.441 75.32 308.441 75.46 308.441 75.6C308.441 75.74 308.441 76.02 308.441 76.16C308.441 77 308.301 77.98 308.301 78.96C308.301 79.24 308.301 79.38 308.301 79.52C308.301 79.66 308.301 79.66 308.301 79.8C308.161 81.2 308.161 82.6 308.161 84.14C308.161 84.28 308.161 84.42 308.161 84.56C308.161 84.7 308.161 84.98 308.161 85.12C308.161 86.52 308.021 87.92 308.021 89.46C308.021 89.6 308.021 89.74 308.021 89.88V90.02C308.021 91.56 308.021 93.24 307.881 95.06C307.881 95.2 307.881 95.48 307.881 95.62C307.881 95.9 307.881 96.04 307.881 96.32C307.881 98 307.881 99.82 307.881 101.64C307.881 103.32 307.881 104.86 307.881 106.4C307.881 106.54 307.881 106.82 307.881 106.96C307.881 107.24 307.881 107.38 307.881 107.66C307.881 108.92 307.881 110.04 307.881 111.3C307.881 111.58 307.881 111.86 307.881 112C307.881 112.14 307.881 112.14 307.881 112.28C307.881 113.68 307.881 115.22 308.021 116.48C308.021 116.62 308.021 116.62 308.021 116.76C308.021 117.04 308.021 117.18 308.021 117.32C308.021 118.44 308.161 119.56 308.161 120.54C308.161 120.68 308.161 120.96 308.161 121.1C308.161 121.24 308.161 121.38 308.161 121.52C308.301 123.06 308.301 124.6 308.441 126C308.441 126.14 308.441 126.14 308.441 126.28C308.441 126.42 308.441 126.56 308.441 126.7C308.441 127.26 308.581 127.82 308.581 128.38C308.581 129.22 308.721 130.06 308.861 130.9V131.04C309.001 132.44 309.141 133.7 309.281 134.96C309.281 135.1 309.281 135.24 309.281 135.38C309.281 135.52 309.281 135.52 309.281 135.66C309.421 136.78 309.561 138.04 309.841 139.02C309.841 139.16 309.841 139.16 309.841 139.3C309.841 139.44 309.841 139.58 309.981 139.86C310.121 140.42 310.261 142.38 310.261 142.94C310.261 143.08 310.261 143.22 310.401 143.36C310.401 143.5 310.401 143.5 310.541 143.64C310.681 144.2 310.821 144.76 310.961 145.32C310.961 145.46 310.961 145.6 311.101 145.74C311.101 145.74 311.101 145.74 311.101 145.88C311.241 146.58 311.521 147.14 311.661 147.84C311.661 147.84 311.661 147.84 311.661 147.98V148.12C311.941 148.82 312.081 149.52 312.361 150.22C312.501 150.5 312.501 150.64 312.641 150.78C312.781 150.92 312.781 151.2 312.921 151.34C313.061 151.62 313.061 151.76 313.201 152.04C313.481 152.6 313.761 153.16 314.041 153.72C314.041 153.72 314.041 153.86 314.181 153.86C314.461 154.28 314.741 154.84 315.021 155.26C315.161 155.4 315.301 155.68 315.441 155.82C315.581 155.96 315.581 156.1 315.721 156.24C315.861 156.38 315.861 156.52 316.001 156.52C316.141 156.66 317.681 158.2 317.821 158.34C317.961 158.48 318.101 158.62 318.241 158.76C318.381 158.9 318.521 159.04 318.661 159.18C318.801 159.32 318.941 159.46 319.081 159.6C319.221 159.74 319.221 159.74 319.361 159.88C319.501 160.02 319.641 160.02 319.641 160.16C319.781 160.3 319.921 160.3 319.921 160.44C320.061 160.58 320.201 160.58 320.201 160.72H320.341C320.341 160.72 320.481 160.72 320.481 160.86C320.621 160.86 320.621 161 320.761 161C320.901 161 320.901 161.14 321.041 161.14C321.181 161.14 321.181 161.28 321.321 161.28C321.461 161.28 321.461 161.42 321.601 161.42C321.741 161.42 321.741 161.56 321.881 161.56C322.021 161.56 322.021 161.7 322.161 161.7C322.301 161.7 322.301 161.7 322.441 161.84C322.581 161.84 322.581 161.84 322.721 161.98C322.861 161.98 322.861 161.98 323.001 162.12C323.141 162.12 323.141 162.12 323.281 162.26C323.421 162.26 323.421 162.26 323.561 162.4C323.701 162.4 323.841 162.4 323.841 162.54C323.981 162.54 324.121 162.54 324.121 162.54C324.261 162.54 324.401 162.54 324.401 162.54C324.541 162.54 324.681 162.54 324.821 162.54C324.961 162.54 325.101 162.54 325.241 162.54C325.381 162.54 325.521 162.54 325.661 162.54C325.801 162.54 325.941 162.54 326.081 162.54C326.221 162.54 326.361 162.54 326.501 162.54H326.641H326.781H326.921H327.061C327.201 162.54 327.341 162.54 327.481 162.54C327.621 162.54 327.761 162.54 327.901 162.54C327.901 162.54 327.901 162.54 328.041 162.54C328.181 162.54 328.181 162.54 328.321 162.54C328.461 162.54 328.601 162.54 328.741 162.54H328.881C328.881 162.54 328.881 162.54 329.021 162.54H329.161C329.301 162.54 329.441 162.54 329.581 162.54C329.581 162.54 329.581 162.54 329.721 162.54C329.861 162.54 329.861 162.54 330.001 162.54C330.141 162.54 330.281 162.54 330.421 162.4L351.841 154.84C351.841 155.4 351.561 155.4 351.281 155.54Z" fill="url(#paint15_linear)"/>
<path d="M408.261 92.8198L423.381 93.6598C423.381 94.4998 423.521 95.3398 423.521 96.0398C423.521 96.8798 423.521 97.7198 423.661 98.5598C423.661 99.3998 423.661 100.24 423.661 101.08C423.661 101.92 423.661 102.76 423.661 103.6C423.661 104.58 423.661 105.56 423.661 106.54C423.661 107.52 423.661 108.5 423.661 109.34C423.661 110.32 423.661 111.16 423.521 112.14C423.521 113.12 423.381 113.96 423.381 114.94L408.261 115.92C408.261 114.94 408.401 113.96 408.401 112.84C408.401 111.86 408.541 110.74 408.541 109.76C408.541 108.78 408.541 107.66 408.541 106.68C408.541 105.7 408.541 104.58 408.541 103.46C408.541 102.48 408.541 101.64 408.541 100.66C408.541 99.6798 408.541 98.8398 408.541 97.9998C408.541 97.1598 408.541 96.1798 408.401 95.3398C408.261 94.4998 408.261 93.6598 408.261 92.8198Z" fill="url(#paint16_linear)"/>
<path d="M408.121 115.92L423.241 114.94C423.101 116.34 423.101 117.74 422.961 119.14C422.821 120.54 422.681 121.8 422.541 123.2C422.401 124.46 422.261 125.86 422.121 127.12C421.981 128.38 421.701 129.64 421.561 130.9L406.161 133.42C406.441 132.02 406.581 130.62 406.721 129.22C406.861 127.82 407.141 126.42 407.281 124.88C407.421 123.48 407.561 121.94 407.701 120.54C407.981 119 407.981 117.46 408.121 115.92Z" fill="url(#paint17_linear)"/>
<path d="M422.661 103.6C422.661 100.24 422.521 96.8797 422.381 93.6597C422.241 91.8397 422.241 90.1597 422.101 88.3397C422.101 88.0597 422.101 87.6397 421.961 87.3597C421.961 86.7997 421.821 86.3797 421.821 85.8197C421.681 84.9797 421.681 83.9997 421.541 83.1597C421.401 82.0397 421.261 80.7797 421.121 79.6597C421.121 79.3797 420.981 78.9597 420.981 78.6797C420.981 78.5397 420.981 78.3997 420.981 78.2597C420.701 76.5797 420.421 75.0397 420.141 73.4997C420.141 73.0797 420.001 72.7997 419.861 72.3797C419.861 72.0997 419.721 71.8197 419.721 71.5397C419.581 71.1197 419.581 70.6997 419.441 70.2797C419.301 69.4397 419.161 68.7397 419.021 67.8997C418.881 67.1997 418.601 66.4997 418.461 65.6597C418.321 64.9597 418.181 64.3997 417.901 63.6997C417.761 63.2797 417.761 62.9997 417.621 62.5797C417.201 61.1797 416.781 59.7797 416.361 58.5197C416.221 58.2397 416.221 57.9597 416.081 57.6797V57.5397C415.521 55.8597 414.961 54.3197 414.401 52.7797C414.261 52.6397 414.261 52.4997 414.121 52.2197C413.561 50.9597 413.001 49.6997 412.441 48.2997C412.161 47.5997 411.881 47.0397 411.601 46.3397C411.601 46.1997 411.461 46.1997 411.461 46.0597C411.461 45.9197 411.321 45.7797 411.321 45.7797C410.621 44.3797 409.921 43.1197 409.221 41.8597C408.941 41.4397 408.801 41.0197 408.521 40.5997C408.521 40.5997 408.521 40.5997 408.521 40.4597C407.401 38.6397 406.281 36.9597 405.161 35.2797C405.161 35.2797 405.161 35.2797 405.161 35.1397C404.881 34.7197 404.601 34.4397 404.321 34.0197C403.481 32.7597 402.501 31.6397 401.521 30.5197C401.521 30.3797 401.381 30.3797 401.381 30.2397C400.681 29.5397 399.981 28.6997 399.281 27.9997C398.861 27.5797 398.581 27.2997 398.161 26.8797C398.021 26.7397 398.021 26.5997 397.881 26.5997C397.881 26.5997 397.741 26.4597 397.601 26.4597C397.461 26.3197 397.321 26.1797 397.181 26.0397C396.481 25.3397 395.781 24.6397 394.941 24.0797C394.661 23.7997 394.241 23.5197 393.961 23.2397C393.821 23.0997 393.541 22.9597 393.401 22.8197C393.121 22.6797 392.981 22.3997 392.701 22.2597C392.141 21.8397 391.721 21.4197 391.161 21.1397C390.601 20.7197 390.041 20.4397 389.621 20.0197C389.481 20.0197 389.481 19.8797 389.341 19.8797L389.201 19.7397C388.781 19.4597 388.361 19.1797 387.941 18.8997C387.381 18.6197 386.821 18.1997 386.261 17.9197C385.841 17.6397 385.281 17.3597 384.721 17.0797C384.581 17.0797 384.581 16.9397 384.441 16.9397C384.441 16.9397 384.301 16.9397 384.301 16.7997C383.881 16.6597 383.601 16.3797 383.181 16.2397C382.621 15.9597 382.201 15.6797 381.641 15.5397C381.081 15.2597 380.661 15.1197 380.101 14.8397C380.101 14.8397 379.961 14.8397 379.961 14.6997C379.961 14.6997 379.821 14.6997 379.821 14.5597C379.821 14.5597 379.681 14.5597 379.681 14.4197C379.681 14.4197 379.541 14.4197 379.541 14.2797C373.241 11.6197 366.941 8.81967 360.501 6.15967C362.321 6.99967 364.141 7.83968 365.961 8.81968C365.961 8.81968 366.101 8.81967 366.101 8.95967C367.781 9.93967 369.461 10.9197 371.141 12.0397L371.281 12.1797C372.821 13.1597 374.361 14.2797 375.761 15.5397C376.041 15.6797 376.181 15.9597 376.461 16.0997C377.861 17.2197 379.121 18.4797 380.381 19.5997C380.521 19.7397 380.801 20.0197 380.941 20.1597C382.201 21.4197 383.461 22.6797 384.581 24.0797C385.701 25.3397 386.681 26.5997 387.661 27.8597C387.941 28.2797 388.361 28.6997 388.641 29.2597C389.901 31.0797 391.161 32.8997 392.281 34.9997C392.561 35.4197 392.841 35.9797 393.121 36.3997C393.961 37.9397 394.801 39.4797 395.641 41.1597C396.061 41.9997 396.341 42.8397 396.761 43.5397C397.321 44.9397 398.021 46.3397 398.581 47.7397C399.281 49.6997 400.121 51.6597 400.821 53.7597C400.961 54.0397 400.961 54.3197 401.101 54.5997C401.661 56.4197 402.221 58.3797 402.781 60.3397C402.921 61.0397 403.201 61.7397 403.341 62.4397C403.761 64.1197 404.181 65.6597 404.461 67.4797C404.601 68.1797 404.741 68.8797 404.881 69.7197C405.301 71.9597 405.721 74.3397 406.001 76.7197C406.001 77.1397 406.141 77.4197 406.141 77.8397C406.421 80.0797 406.701 82.3197 406.841 84.5597C406.841 85.1197 406.981 85.6797 406.981 86.0997C407.401 91.6997 407.681 97.5797 407.681 103.74C407.681 116.34 406.701 127.82 404.601 138.18C404.601 138.46 404.461 138.6 404.461 138.88C404.041 141.26 403.481 143.64 402.921 146.02C402.921 146.16 402.921 146.3 402.781 146.44C402.221 148.82 401.521 151.06 400.821 153.3C400.821 153.44 400.681 153.58 400.681 153.86C399.981 156.1 399.141 158.2 398.301 160.3C398.301 160.44 398.161 160.44 398.161 160.58C397.321 162.68 396.341 164.78 395.361 166.74C394.381 168.7 393.401 170.66 392.281 172.48C392.281 172.62 392.141 172.62 392.141 172.76C391.021 174.58 389.901 176.26 388.781 177.94C388.641 178.08 388.641 178.22 388.501 178.36C387.381 179.9 386.121 181.44 385.001 182.98C384.861 183.12 384.861 183.12 384.721 183.26C383.461 184.66 382.201 186.06 380.941 187.32C380.661 187.6 380.381 187.88 380.101 188.16C378.841 189.42 377.441 190.68 376.041 191.8C375.901 191.94 375.761 192.08 375.621 192.22C374.361 193.34 372.961 194.32 371.561 195.16C371.281 195.3 371.001 195.58 370.721 195.72C369.321 196.7 367.781 197.54 366.241 198.52C365.961 198.66 365.541 198.8 365.261 199.08C363.581 199.92 362.041 200.76 360.221 201.46L379.261 193.34C380.801 192.64 382.341 191.94 383.881 191.1C384.161 190.96 384.441 190.82 384.721 190.68C385.001 190.54 385.281 190.4 385.421 190.26C386.541 189.56 387.661 188.86 388.781 188.16C389.061 188.02 389.201 187.88 389.481 187.6C390.041 187.18 390.601 186.9 391.161 186.48C391.861 185.92 392.561 185.36 393.261 184.8C393.401 184.66 393.541 184.52 393.681 184.52C394.661 183.68 395.501 182.98 396.481 182.14C396.761 181.86 397.041 181.58 397.321 181.3C397.461 181.16 397.601 181.02 397.741 180.88C397.881 180.74 398.021 180.6 398.161 180.46C399.281 179.34 400.261 178.22 401.381 177.1C401.521 176.96 401.521 176.96 401.661 176.82C401.801 176.68 401.801 176.68 401.941 176.54C402.361 176.12 402.641 175.7 402.921 175.28C403.481 174.72 403.901 174.02 404.461 173.32C404.741 173.04 405.021 172.62 405.161 172.2C405.301 172.06 405.301 171.92 405.441 171.78C405.581 171.64 405.721 171.36 405.861 171.22C406.281 170.52 406.841 169.82 407.261 169.12C407.681 168.56 407.961 167.86 408.381 167.3C408.381 167.16 408.521 167.16 408.521 167.02C408.521 166.88 408.661 166.88 408.661 166.74C408.941 166.32 409.221 165.9 409.501 165.34C409.921 164.64 410.201 164.08 410.621 163.38C410.901 162.68 411.321 162.12 411.601 161.42C411.881 160.72 412.301 160.02 412.581 159.32C412.861 158.62 413.141 157.92 413.561 157.22C413.841 156.66 413.981 156.24 414.261 155.68C414.261 155.54 414.261 155.54 414.401 155.4C414.401 155.26 414.541 155.12 414.541 155.12C414.821 154.42 415.101 153.72 415.381 152.88C415.661 152.04 415.941 151.34 416.221 150.5C416.361 150.22 416.501 149.8 416.501 149.52C416.501 149.38 416.641 149.24 416.641 149.1C416.781 148.82 416.921 148.4 416.921 148.12C417.201 147.28 417.481 146.44 417.621 145.6C417.901 144.76 418.041 143.92 418.321 143.08C418.321 142.94 418.321 142.94 418.461 142.8C418.461 142.66 418.461 142.52 418.601 142.52C418.741 141.82 419.021 140.98 419.161 140.28C419.441 139.3 419.581 138.32 419.861 137.34C420.001 136.92 420.001 136.5 420.141 136.08C420.141 135.94 420.141 135.94 420.281 135.8C420.421 135.66 420.281 135.52 420.281 135.52C420.421 135.1 420.421 134.68 420.561 134.26C420.701 133.28 420.981 132.16 421.121 131.18C421.961 122.5 422.661 113.4 422.661 103.6Z" fill="url(#paint18_linear)"/>
<path d="M405.18 67.8999C404.62 64.8199 403.78 61.7399 403.08 58.7999C399.58 45.9199 394.12 34.9999 387.26 26.1799C380.4 17.4999 371.72 10.7799 361.64 6.43986C351.56 2.09986 340.08 -0.000136718 327.06 0.139863C314.04 0.419863 302.56 2.79988 292.62 7.41988C282.68 12.0399 274.42 18.7599 267.7 27.5799C260.98 36.3999 255.94 47.1799 252.58 59.7799C249.22 72.5199 247.4 87.0799 247.4 103.6C247.4 120.12 249.08 134.68 252.58 147.42C255.94 160.16 261.12 170.94 267.7 179.62C274.42 188.44 282.68 195.16 292.62 199.78C302.56 204.4 314.04 206.92 327.06 207.06C332.8 207.2 338.4 206.78 343.58 205.94C350.02 204.96 356.04 203.14 361.64 200.76C371.72 196.42 380.26 189.84 387.26 181.02C394.26 172.2 399.58 161.28 403.08 148.4C406.72 135.38 408.54 120.54 408.54 103.6C408.54 90.5799 407.42 78.6799 405.18 67.8999ZM341.48 148.82C340.08 153.44 338.26 156.66 335.88 158.9C333.5 161 330.7 161.98 327.2 161.98C323.7 161.98 320.76 161 318.38 158.76C316 156.66 314.18 153.3 312.78 148.68C311.38 144.06 310.4 138.18 309.84 130.62C309.28 123.06 309 114.24 309 103.6C309 92.9599 309.28 83.9999 309.84 76.4399C310.4 69.0199 311.38 62.9999 312.78 58.5199C314.18 53.8999 316 50.6799 318.38 48.5799C320.76 46.4799 323.7 45.4999 327.2 45.4999C330.7 45.4999 333.5 46.3399 335.88 48.4399C338.26 50.5399 340.08 53.7599 341.48 58.3799C342.88 62.9999 343.86 68.8799 344.42 76.4399C344.98 83.8599 345.26 92.9599 345.26 103.74C345.26 114.38 344.98 123.34 344.42 130.9C343.86 138.18 342.88 144.2 341.48 148.82Z" fill="url(#paint19_linear)"/>
<path d="M458.38 122.78L483.44 121.66H501.08L477.56 122.92L458.38 122.78Z" fill="url(#paint20_linear)"/>
<path d="M505.7 6.2998L526.98 14.6998L483.44 121.66L458.38 122.78L505.7 6.2998Z" fill="url(#paint21_linear)"/>
<path d="M556.66 166.04V202.58L537.9 211.12V171.36L556.66 166.04Z" fill="url(#paint22_linear)"/>
<path d="M537.9 83.5796L556.66 85.5396V121.8L537.9 123.06V83.5796Z" fill="url(#paint23_radial)"/>
<path d="M561 123.06L577.94 121.8V166.32L561 171.5V123.06Z" fill="url(#paint24_radial)"/>
<path d="M537.9 123.06L556.66 121.8H577.94L561 123.06H537.9Z" fill="url(#paint25_radial)"/>
<path d="M561 123.06V171.5H556.66L537.9 171.36V211.12L477.56 210V170.66L394.12 169.82V126.98L444.1 7.27967L505.7 6.15967L458.38 122.78L477.56 122.92V83.7197L537.9 83.5797V123.06H561Z" fill="url(#paint26_linear)"/>
<path d="M505.7 6.30029L458.38 122.78L477.56 122.92V83.7203L537.9 83.5803V123.06H561V171.5L537.9 171.36V211.12L477.56 210V170.66L394.12 169.82V126.98L444.1 7.28029L505.7 6.30029Z" stroke="url(#paint27_linear)" stroke-width="0.2659" stroke-miterlimit="10" stroke-linecap="round" stroke-linejoin="round"/>
<defs>
<radialGradient id="paint0_radial" cx="0" cy="0" r="1" gradientUnits="userSpaceOnUse" gradientTransform="translate(180.157 204.088) scale(109.968 16.2478)">
<stop stop-color="#808285"/>
<stop offset="0.0667799" stop-color="#9A9B9E"/>
<stop offset="0.1664" stop-color="#B9BABB"/>
<stop offset="0.2756" stop-color="#D2D3D4"/>
<stop offset="0.3958" stop-color="#E6E7E7"/>
<stop offset="0.5329" stop-color="#F4F5F5"/>
<stop offset="0.7017" stop-color="#FDFDFD"/>
<stop offset="0.9947" stop-color="white"/>
</radialGradient>
<radialGradient id="paint1_radial" cx="0" cy="0" r="1" gradientUnits="userSpaceOnUse" gradientTransform="translate(149.543 200.224) scale(109.968 16.2478)">
<stop stop-color="#808285"/>
<stop offset="0.0667799" stop-color="#9A9B9E"/>
<stop offset="0.1664" stop-color="#B9BABB"/>
<stop offset="0.2756" stop-color="#D2D3D4"/>
<stop offset="0.3958" stop-color="#E6E7E7"/>
<stop offset="0.5329" stop-color="#F4F5F5"/>
<stop offset="0.7017" stop-color="#FDFDFD"/>
<stop offset="0.9947" stop-color="white"/>
</radialGradient>
<radialGradient id="paint2_radial" cx="0" cy="0" r="1" gradientUnits="userSpaceOnUse" gradientTransform="translate(470.533 208.546) scale(109.968 16.2477)">
<stop stop-color="#808285"/>
<stop offset="0.0667799" stop-color="#9A9B9E"/>
<stop offset="0.1664" stop-color="#B9BABB"/>
<stop offset="0.2756" stop-color="#D2D3D4"/>
<stop offset="0.3958" stop-color="#E6E7E7"/>
<stop offset="0.5329" stop-color="#F4F5F5"/>
<stop offset="0.7017" stop-color="#FDFDFD"/>
<stop offset="0.9947" stop-color="white"/>
</radialGradient>
<radialGradient id="paint3_radial" cx="0" cy="0" r="1" gradientUnits="userSpaceOnUse" gradientTransform="translate(515.413 206.168) scale(109.983 18.3258)">
<stop stop-color="#808285"/>
<stop offset="0.0667799" stop-color="#9A9B9E"/>
<stop offset="0.1664" stop-color="#B9BABB"/>
<stop offset="0.2756" stop-color="#D2D3D4"/>
<stop offset="0.3958" stop-color="#E6E7E7"/>
<stop offset="0.5329" stop-color="#F4F5F5"/>
<stop offset="0.7017" stop-color="#FDFDFD"/>
<stop offset="0.9947" stop-color="white"/>
</radialGradient>
<radialGradient id="paint4_radial" cx="0" cy="0" r="1" gradientUnits="userSpaceOnUse" gradientTransform="translate(328.279 206.763) scale(328.363 18.3259)">
<stop stop-color="#808285"/>
<stop offset="0.0667799" stop-color="#9A9B9E"/>
<stop offset="0.1664" stop-color="#B9BABB"/>
<stop offset="0.2756" stop-color="#D2D3D4"/>
<stop offset="0.3958" stop-color="#E6E7E7"/>
<stop offset="0.5329" stop-color="#F4F5F5"/>
<stop offset="0.7017" stop-color="#FDFDFD"/>
<stop offset="0.9947" stop-color="white"/>
</radialGradient>
<radialGradient id="paint5_radial" cx="0" cy="0" r="1" gradientUnits="userSpaceOnUse" gradientTransform="translate(297.952 206.564) scale(154.054 16.2478)">
<stop stop-color="#808285"/>
<stop offset="0.0667799" stop-color="#9A9B9E"/>
<stop offset="0.1664" stop-color="#B9BABB"/>
<stop offset="0.2756" stop-color="#D2D3D4"/>
<stop offset="0.3958" stop-color="#E6E7E7"/>
<stop offset="0.5329" stop-color="#F4F5F5"/>
<stop offset="0.7017" stop-color="#FDFDFD" stop-opacity="0.79"/>
<stop offset="0.9947" stop-color="white" stop-opacity="0"/>
</radialGradient>
<linearGradient id="paint6_linear" x1="208.415" y1="117.273" x2="270.466" y2="117.273" gradientUnits="userSpaceOnUse">
<stop stop-color="#E6E7E8"/>
<stop offset="1" stop-color="#939598"/>
</linearGradient>
<linearGradient id="paint7_linear" x1="155.889" y1="183.008" x2="192.891" y2="183.008" gradientUnits="userSpaceOnUse">
<stop stop-color="#49ADF0"/>
<stop offset="1" stop-color="#107EC7"/>
</linearGradient>
<linearGradient id="paint8_linear" x1="155.837" y1="98.5714" x2="192.981" y2="98.5714" gradientUnits="userSpaceOnUse">
<stop stop-color="#1689D5"/>
<stop offset="1" stop-color="#106095"/>
</linearGradient>
<linearGradient id="paint9_linear" x1="138.582" y1="117.546" x2="192.982" y2="117.546" gradientUnits="userSpaceOnUse">
<stop stop-color="#E6E7E8"/>
<stop offset="1" stop-color="#939598"/>
</linearGradient>
<linearGradient id="paint10_linear" x1="78.7412" y1="144.229" x2="109.879" y2="144.229" gradientUnits="userSpaceOnUse">
<stop stop-color="#49ADF0"/>
<stop offset="1" stop-color="#107EC7"/>
</linearGradient>
<linearGradient id="paint11_linear" x1="78.7412" y1="62.0492" x2="160.35" y2="62.0492" gradientUnits="userSpaceOnUse">
<stop stop-color="#55BBFF"/>
<stop offset="1" stop-color="#00558E"/>
</linearGradient>
<linearGradient id="paint12_linear" x1="109.872" y1="103.186" x2="270.462" y2="103.186" gradientUnits="userSpaceOnUse">
<stop stop-color="#1A92E2"/>
<stop offset="1" stop-color="#0071BC"/>
</linearGradient>
<linearGradient id="paint13_linear" x1="109.686" y1="103.186" x2="270.648" y2="103.186" gradientUnits="userSpaceOnUse">
<stop offset="0.00526316" stop-color="#F1F2F2"/>
<stop offset="1" stop-color="#E6E7E8"/>
</linearGradient>
<linearGradient id="paint14_linear" x1="240.563" y1="141.593" x2="274.981" y2="136.78" gradientUnits="userSpaceOnUse">
<stop stop-color="white" stop-opacity="0"/>
<stop offset="0.0001" stop-color="#0264A5" stop-opacity="0"/>
<stop offset="0.5033" stop-color="#0071BC" stop-opacity="0.74"/>
<stop offset="0.8242" stop-color="#0071BC"/>
<stop offset="1" stop-color="#0071BC"/>
</linearGradient>
<linearGradient id="paint15_linear" x1="308.732" y1="103.629" x2="352.084" y2="103.629" gradientUnits="userSpaceOnUse">
<stop stop-color="#0071BC"/>
<stop offset="1" stop-color="#014877"/>
</linearGradient>
<linearGradient id="paint16_linear" x1="408.137" y1="104.366" x2="423.638" y2="104.366" gradientUnits="userSpaceOnUse">
<stop stop-color="#E6E7E8"/>
<stop offset="1" stop-color="#939598"/>
</linearGradient>
<linearGradient id="paint17_linear" x1="406.294" y1="124.149" x2="423.321" y2="124.149" gradientUnits="userSpaceOnUse">
<stop stop-color="#E6E7E8"/>
<stop offset="1" stop-color="#939598"/>
</linearGradient>
<linearGradient id="paint18_linear" x1="377.181" y1="112" x2="422.181" y2="49.5" gradientUnits="userSpaceOnUse">
<stop stop-color="#0A507E"/>
<stop offset="1" stop-color="#0C78C0"/>
</linearGradient>
<linearGradient id="paint19_linear" x1="247.47" y1="103.627" x2="408.488" y2="103.627" gradientUnits="userSpaceOnUse">
<stop stop-color="#68C3FF"/>
<stop offset="0.0001" stop-color="#68B0E0"/>
<stop offset="0.0002" stop-color="#54B0ED"/>
<stop offset="1" stop-color="#0071BC"/>
</linearGradient>
<linearGradient id="paint20_linear" x1="502.891" y1="118.286" x2="465.591" y2="124.676" gradientUnits="userSpaceOnUse">
<stop stop-color="#E6E7E8"/>
<stop offset="1" stop-color="#939598"/>
</linearGradient>
<linearGradient id="paint21_linear" x1="532.549" y1="2.09911" x2="446.159" y2="142.781" gradientUnits="userSpaceOnUse">
<stop stop-color="#0071BC"/>
<stop offset="0.0347275" stop-color="#0071BC"/>
<stop offset="0.1758" stop-color="#2B96DD"/>
<stop offset="0.3292" stop-color="#0071BC"/>
<stop offset="0.4992" stop-color="#0071BC"/>
<stop offset="0.6987" stop-color="#0071BC"/>
<stop offset="1" stop-color="#014877"/>
</linearGradient>
<linearGradient id="paint22_linear" x1="553.415" y1="215.116" x2="541.123" y2="162.381" gradientUnits="userSpaceOnUse">
<stop stop-color="#269BE9"/>
<stop offset="1" stop-color="#0071BC"/>
</linearGradient>
<radialGradient id="paint23_radial" cx="0" cy="0" r="1" gradientUnits="userSpaceOnUse" gradientTransform="translate(554.772 81.8336) scale(49.6131)">
<stop stop-color="#2B9AE4"/>
<stop offset="1" stop-color="#0071BC"/>
</radialGradient>
<radialGradient id="paint24_radial" cx="0" cy="0" r="1" gradientUnits="userSpaceOnUse" gradientTransform="translate(576.235 119.602) scale(44.7999 62.4561)">
<stop stop-color="#4EB2F4"/>
<stop offset="1" stop-color="#0071BC"/>
</radialGradient>
<radialGradient id="paint25_radial" cx="0" cy="0" r="1" gradientUnits="userSpaceOnUse" gradientTransform="translate(577.014 120.175) scale(18.8196 18.8198)">
<stop stop-color="#E6E7E8"/>
<stop offset="0.1131" stop-color="#DDDEDF"/>
<stop offset="1" stop-color="#939598"/>
</radialGradient>
<linearGradient id="paint26_linear" x1="394.126" y1="108.654" x2="561.018" y2="108.654" gradientUnits="userSpaceOnUse">
<stop stop-color="#52B0EE"/>
<stop offset="1" stop-color="#0071BC"/>
</linearGradient>
<linearGradient id="paint27_linear" x1="393.947" y1="108.654" x2="561.193" y2="108.654" gradientUnits="userSpaceOnUse">
<stop offset="0.00526316" stop-color="#F1F2F2"/>
<stop offset="1" stop-color="#E6E7E8"/>
</linearGradient>
</defs>
</svg>
