<svg width="96" height="96" fill="none" xmlns="http://www.w3.org/2000/svg"><g clip-path="url(#clip0)"><path d="M63.818 30.775c17.53-.267 31.836 13.529 32.176 31.057a31.83 31.83 0 01-.737 7.48c-.898 4.069-1.431 8.209-1.431 12.374v8.053c0 1.234-1 2.234-2.234 2.234h-8.053c-4.166 0-8.306.534-12.374 1.431-2.402.53-4.907.787-7.48.737a31.58 31.58 0 01-31.057-32.174c.26-17.11 14.081-30.93 31.19-31.192z" fill="url(#paint0_linear)"/><path d="M63.818 30.775c17.53-.267 31.836 13.529 32.176 31.057a31.83 31.83 0 01-.737 7.48c-.898 4.069-1.431 8.209-1.431 12.374v8.053c0 1.234-1 2.234-2.234 2.234h-8.053c-4.166 0-8.306.534-12.374 1.431-2.402.53-4.907.787-7.48.737a31.58 31.58 0 01-31.057-32.174c.26-17.11 14.081-30.93 31.19-31.192z" fill="url(#paint1_linear)"/><path d="M39.206 1.858C17.85 1.532.42 18.34.007 39.693a38.78 38.78 0 00.899 9.114c1.093 4.956 1.743 10 1.743 15.075v9.81a2.722 2.722 0 002.721 2.722h9.81c5.076 0 10.12.65 15.076 1.743a38.79 38.79 0 009.113.898c21.353-.414 38.161-17.843 37.835-39.197-.317-20.844-17.154-37.682-37.998-38z" fill="url(#paint2_linear)"/><path d="M24.786 38.388a5.957 5.957 0 00-4.35-1.886 5.98 5.98 0 00-5.98 5.98c0 1.716.727 3.26 1.886 4.35l12.899 12.9a5.957 5.957 0 004.351 1.886 5.98 5.98 0 005.98-5.98c0-1.717-.728-3.26-1.887-4.35l-12.899-12.9z" fill="url(#paint3_linear)"/><path d="M20.435 48.46a5.98 5.98 0 100-11.959 5.98 5.98 0 000 11.96z" fill="#fff"/><path d="M41.697 38.388a5.957 5.957 0 00-4.352-1.886 5.98 5.98 0 00-5.979 5.98c0 1.716.727 3.26 1.886 4.35l12.9 12.9a5.958 5.958 0 004.35 1.886 5.98 5.98 0 005.98-5.98c0-1.717-.728-3.26-1.886-4.35l-12.9-12.9z" fill="url(#paint4_linear)"/><path d="M37.346 48.46a5.98 5.98 0 100-11.959 5.98 5.98 0 000 11.96z" fill="#fff"/><path d="M58.607 38.388a5.957 5.957 0 00-4.351-1.886 5.98 5.98 0 00-5.98 5.98c0 1.716.728 3.26 1.887 4.35l12.899 12.9a5.958 5.958 0 004.35 1.886 5.98 5.98 0 005.98-5.98c0-1.717-.727-3.26-1.886-4.35l-12.899-12.9z" fill="url(#paint5_linear)"/><path d="M54.257 48.46a5.98 5.98 0 100-11.959 5.98 5.98 0 000 11.96z" fill="#fff"/></g><defs><linearGradient id="paint0_linear" x1="57.915" y1="56.065" x2="104.438" y2="102.588" gradientUnits="userSpaceOnUse"><stop stop-color="#A7F3CE"/><stop offset="1" stop-color="#61DB99"/></linearGradient><linearGradient id="paint1_linear" x1="73.145" y1="71.293" x2="53.384" y2="51.535" gradientUnits="userSpaceOnUse"><stop stop-color="#61DB99" stop-opacity="0"/><stop offset="1" stop-color="#009E74"/></linearGradient><linearGradient id="paint2_linear" x1="38.6" y1="23.385" x2="82.5" y2="83" gradientUnits="userSpaceOnUse"><stop stop-color="#7DA5FF"/><stop offset="1" stop-color="#1F5DE8"/></linearGradient><linearGradient id="paint3_linear" x1="33.737" y1="55.784" x2="7.875" y2="29.923" gradientUnits="userSpaceOnUse"><stop stop-color="#00A2F3" stop-opacity="0"/><stop offset="1" stop-color="#0075CD"/></linearGradient><linearGradient id="paint4_linear" x1="50.646" y1="55.784" x2="24.785" y2="29.923" gradientUnits="userSpaceOnUse"><stop stop-color="#00A2F3" stop-opacity="0"/><stop offset="1" stop-color="#0075CD"/></linearGradient><linearGradient id="paint5_linear" x1="67.556" y1="55.784" x2="41.695" y2="29.923" gradientUnits="userSpaceOnUse"><stop stop-color="#00A2F3" stop-opacity="0"/><stop offset="1" stop-color="#0075CD"/></linearGradient><clipPath id="clip0"><path fill="#fff" d="M0 0h96v96H0z"/></clipPath></defs></svg>