<svg width="96" height="96" fill="none" xmlns="http://www.w3.org/2000/svg"><g clip-path="url(#clip0)"><path d="M81.652 48.464a37.113 37.113 0 01-8.949 24.21 37.653 37.653 0 01-4.937 4.792 37.078 37.078 0 01-23.333 8.218c-20.556 0-37.22-16.664-37.22-37.22 0-20.555 16.664-37.219 37.22-37.219 20.555 0 37.219 16.664 37.219 37.22z" fill="url(#paint0_linear)"/><path d="M44.432 23.249c-1.46 0-2.644 21.111-2.644 22.572 0 .93.482 1.747 1.209 2.218L70.24 75.282a37.203 37.203 0 009.903-16.303c-6.083-6.039-35.71-35.73-35.71-35.73z" fill="url(#paint1_linear)"/><path d="M44.433 50.568a2.103 2.103 0 100-4.207 2.103 2.103 0 000 4.207z" fill="url(#paint2_linear)"/><path d="M44.432 18.903a.922.922 0 00-.924.925v6.782a.92.92 0 00.564.852.923.923 0 001.285-.853v-6.78a.925.925 0 00-.925-.926z" fill="url(#paint3_linear)"/><path d="M44.432 69.394a.925.925 0 00-.924.924V77.1a.91.91 0 00.039.252.922.922 0 001.81-.253v-6.78a.925.925 0 00-.925-.925z" fill="url(#paint4_linear)"/><path d="M73.068 47.54h-6.781a.925.925 0 000 1.85h6.781a.925.925 0 100-1.85z" fill="url(#paint5_linear)"/><path d="M23.503 48.465a.92.92 0 00-.408-.767.92.92 0 00-.517-.158h-6.781a.922.922 0 00-.925.925c0 .51.414.925.924.925h6.782a.922.922 0 00.925-.925z" fill="url(#paint6_linear)"/><path d="M60.54 33.665l4.795-4.795a.925.925 0 00-1.308-1.308l-4.795 4.795a.924.924 0 101.308 1.308z" fill="url(#paint7_linear)"/><path d="M29.633 63.264a.925.925 0 00-1.308 0l-4.795 4.795a.924.924 0 00-.027 1.276c.01.01.017.022.027.032a.92.92 0 00.637.27l.017.001c.236 0 .473-.09.654-.27l4.795-4.796a.92.92 0 00.27-.654.92.92 0 00-.27-.654z" fill="url(#paint8_linear)"/><path d="M65.335 68.059l-4.795-4.795a.916.916 0 00-.392-.229.919.919 0 00-.916.228.924.924 0 000 1.308l4.795 4.795a.916.916 0 00.177.136.916.916 0 001.389-.66.92.92 0 00-.258-.783z" fill="url(#paint9_linear)"/><path d="M24.837 27.562a.922.922 0 00-1.307 0 .922.922 0 000 1.308l4.795 4.795c.008.008.018.013.026.021.085.079.179.14.28.182a.925.925 0 001.002-1.511l-4.796-4.795z" fill="url(#paint10_linear)"/><path d="M78.082 64.387a35.429 35.429 0 01-1.55 2.925 36.959 36.959 0 01-3.83 5.36 37.66 37.66 0 01-4.936 4.793l-26.184-26.15a4.027 4.027 0 01.214-5.9 4.02 4.02 0 015.687.418h.002l.144.007.291.018a84.701 84.701 0 012.99.25c.203.02.41.039.622.062l.547.056.41.044c.22.023.438.05.66.075a100.584 100.584 0 013.606.477.487.487 0 01.065.01l.482.074.469.08c.102.018.204.034.307.053.156.028.312.056.466.086l.228.042.459.093.135.028c.06.014.121.029.18.04l.083.018.254.059.167.04c.217.055.42.108.61.162l.131.04c.035.009.068.02.1.03.05.016.096.033.142.047a.322.322 0 01.05.016c.092.033.179.063.26.096l.023.009.13.053c.1.044.19.086.269.13l.095.059a.89.89 0 01.259.24c.002.004.004.007.004.01a.21.21 0 01.026.064c.007.021.01.042.01.063l15.923 15.923z" fill="url(#paint11_linear)"/><path d="M47.077 51.108a2.645 2.645 0 010-5.289c1.46 0 15.08 1.184 15.08 2.645 0 1.46-13.62 2.644-15.08 2.644z" fill="url(#paint12_linear)"/><path d="M47.077 45.82a2.645 2.645 0 01-5.29 0c0-1.46 1.185-22.572 2.645-22.572s2.645 21.111 2.645 22.571z" fill="url(#paint13_linear)"/><path d="M44.433 52.497a4.032 4.032 0 100-8.064 4.032 4.032 0 000 8.064z" fill="url(#paint14_linear)"/><path d="M42.583 80.372c-1.148 1.51-1.722 3.057-1.722 4.638v.502a37.62 37.62 0 003.571.172c8.835 0 16.95-3.079 23.334-8.218a37.66 37.66 0 006.666-6.97L60.256 56.33c-2.199-1.961-4.864-2.941-7.995-2.941-2.956 0-5.498.87-7.627 2.612-2.129 1.741-3.193 3.985-3.193 6.729 0 1.359.365 2.27 1.088 2.74l8.032 8.07-3.736 2.72c-1.68 1.23-3.094 2.601-4.242 4.112z" fill="url(#paint15_linear)"/><path d="M40.86 90.123V85.01c0-1.581.575-3.127 1.723-4.638 1.148-1.51 2.562-2.881 4.242-4.112l5.066-3.688c1.69-1.228 3.122-2.58 4.302-4.056 1.178-1.474 1.768-2.95 1.768-4.425 0-1.474-.484-2.765-1.452-3.871-.968-1.106-2.384-1.66-4.248-1.66-1.584 0-2.868.438-3.853 1.31-.985.874-1.478 2.166-1.478 3.877 0 .56-.273 1.05-.818 1.468-.545.42-1.258.629-2.137.629-1.689 0-2.533-1.038-2.533-3.114 0-2.744 1.064-4.987 3.193-6.73 2.128-1.74 4.67-2.611 7.626-2.611 3.13 0 5.796.98 7.995 2.94 2.199 1.962 3.299 4.496 3.299 7.605 0 2.107-.59 4.082-1.768 5.926-1.18 1.844-2.604 3.407-4.275 4.688a112.487 112.487 0 01-5.014 3.635c-1.671 1.141-3.096 2.291-4.274 3.45-1.18 1.16-1.768 2.284-1.768 3.372v2.002h15.516c.492 0 .923.237 1.293.712.37.475.554 1.047.554 1.715 0 .67-.184 1.259-.55 1.768-.368.51-.796.766-1.285.766h-18.66c-.559 0-1.11-.176-1.65-.527-.543-.352-.813-.79-.813-1.318z" fill="url(#paint16_linear)"/><path d="M64.03 81.222a2.4 2.4 0 01.317-1.16l12.771-25.145c.528-1.019 1.337-1.528 2.428-1.528.598 0 1.214.21 1.847.633.633.422.95.932.95 1.53 0 .211-.088.493-.264.845l-10.871 21.69h7.758v-7.324c0-1.24.931-1.858 2.797-1.858.773 0 1.433.16 1.979.478.545.318.818.778.818 1.38v7.325h2.586c.597 0 1.063.261 1.398.784.334.523.502 1.132.502 1.828 0 .627-.194 1.21-.581 1.75-.388.54-.827.81-1.32.81H84.56v6.849c0 .567-.282 1.018-.845 1.355-.563.336-1.214.504-1.953.504-.774 0-1.434-.168-1.979-.504-.546-.337-.818-.788-.818-1.355v-6.85H65.982c-.563 0-1.029-.182-1.398-.548-.37-.366-.554-.862-.554-1.49z" fill="url(#paint17_linear)"/><path d="M92.87 42.093h-4.464c-3.1-21.493-21.637-38.06-43.974-38.06C19.932 4.032 0 23.963 0 48.463c0 10.11 3.487 20.004 9.818 27.861 6.237 7.739 14.976 13.222 24.608 15.44a3.49 3.49 0 004.188-2.62 3.493 3.493 0 00-2.62-4.188c-8.114-1.868-15.478-6.49-20.736-13.015-5.412-6.715-8.272-14.834-8.272-23.477 0-20.648 16.798-37.447 37.446-37.447 18.477 0 33.868 13.451 36.902 31.075h-3.685c-2.782 0-4.176 3.364-2.208 5.331l7.61 7.611a3.124 3.124 0 004.418 0l7.61-7.61c1.968-1.968.574-5.332-2.209-5.332z" fill="url(#paint18_linear)"/></g><defs><linearGradient id="paint0_linear" x1="46.079" y1="50.113" x2="94.707" y2="98.741" gradientUnits="userSpaceOnUse"><stop stop-color="#fff"/><stop offset="1" stop-color="#C3C3C3"/></linearGradient><linearGradient id="paint1_linear" x1="59.502" y1="49.51" x2="19.563" y2="45.026" gradientUnits="userSpaceOnUse"><stop stop-color="#C3C3C3" stop-opacity="0"/><stop offset=".267" stop-color="#A4A4A4" stop-opacity=".267"/><stop offset=".542" stop-color="#8B8B8B" stop-opacity=".542"/><stop offset=".794" stop-color="#7C7C7C" stop-opacity=".794"/><stop offset="1" stop-color="#777"/></linearGradient><linearGradient id="paint2_linear" x1="44.432" y1="47.436" x2="44.432" y2="53.714" gradientUnits="userSpaceOnUse"><stop stop-color="#F18D00"/><stop offset="1" stop-color="#ED7103"/></linearGradient><linearGradient id="paint3_linear" x1="51.087" y1="44.182" x2="52.937" y2="50.009" gradientUnits="userSpaceOnUse"><stop stop-color="#A7F3CE"/><stop offset="1" stop-color="#61DB99"/></linearGradient><linearGradient id="paint4_linear" x1="36.526" y1="48.805" x2="38.376" y2="54.632" gradientUnits="userSpaceOnUse"><stop stop-color="#A7F3CE"/><stop offset="1" stop-color="#61DB99"/></linearGradient><linearGradient id="paint5_linear" x1="65.842" y1="45.877" x2="74.473" y2="51.705" gradientUnits="userSpaceOnUse"><stop stop-color="#A7F3CE"/><stop offset="1" stop-color="#61DB99"/></linearGradient><linearGradient id="paint6_linear" x1="15.353" y1="45.877" x2="23.984" y2="51.705" gradientUnits="userSpaceOnUse"><stop stop-color="#A7F3CE"/><stop offset="1" stop-color="#61DB99"/></linearGradient><linearGradient id="paint7_linear" x1="68.323" y1="35.913" x2="74.968" y2="41.741" gradientUnits="userSpaceOnUse"><stop stop-color="#A7F3CE"/><stop offset="1" stop-color="#61DB99"/></linearGradient><linearGradient id="paint8_linear" x1="14.925" y1="56.09" x2="21.567" y2="61.918" gradientUnits="userSpaceOnUse"><stop stop-color="#A7F3CE"/><stop offset="1" stop-color="#61DB99"/></linearGradient><linearGradient id="paint9_linear" x1="50.625" y1="56.086" x2="57.266" y2="61.914" gradientUnits="userSpaceOnUse"><stop stop-color="#A7F3CE"/><stop offset="1" stop-color="#61DB99"/></linearGradient><linearGradient id="paint10_linear" x1="32.622" y1="35.912" x2="39.267" y2="41.74" gradientUnits="userSpaceOnUse"><stop stop-color="#A7F3CE"/><stop offset="1" stop-color="#61DB99"/></linearGradient><linearGradient id="paint11_linear" x1="59.124" y1="57.079" x2="42.864" y2="39.219" gradientUnits="userSpaceOnUse"><stop stop-color="#C3C3C3" stop-opacity="0"/><stop offset=".267" stop-color="#A4A4A4" stop-opacity=".267"/><stop offset=".542" stop-color="#8B8B8B" stop-opacity=".542"/><stop offset=".794" stop-color="#7C7C7C" stop-opacity=".794"/><stop offset="1" stop-color="#777"/></linearGradient><linearGradient id="paint12_linear" x1="53.294" y1="47.294" x2="53.294" y2="50.362" gradientUnits="userSpaceOnUse"><stop stop-color="#7DA5FF"/><stop offset="1" stop-color="#1F5DE8"/></linearGradient><linearGradient id="paint13_linear" x1="44.432" y1="30.28" x2="44.432" y2="44.907" gradientUnits="userSpaceOnUse"><stop stop-color="#7DA5FF"/><stop offset="1" stop-color="#1F5DE8"/></linearGradient><linearGradient id="paint14_linear" x1="44.432" y1="46.589" x2="44.432" y2="52.417" gradientUnits="userSpaceOnUse"><stop stop-color="#A7F3CE"/><stop offset="1" stop-color="#61DB99"/></linearGradient><linearGradient id="paint15_linear" x1="57.979" y1="78.338" x2="35.8" y2="56.159" gradientUnits="userSpaceOnUse"><stop stop-color="#C3C3C3" stop-opacity="0"/><stop offset=".267" stop-color="#A4A4A4" stop-opacity=".267"/><stop offset=".542" stop-color="#8B8B8B" stop-opacity=".542"/><stop offset=".794" stop-color="#7C7C7C" stop-opacity=".794"/><stop offset="1" stop-color="#777"/></linearGradient><linearGradient id="paint16_linear" x1="52.339" y1="64.147" x2="52.339" y2="86.526" gradientUnits="userSpaceOnUse"><stop stop-color="#7DA5FF"/><stop offset="1" stop-color="#1F5DE8"/></linearGradient><linearGradient id="paint17_linear" x1="76.536" y1="64.147" x2="76.536" y2="86.526" gradientUnits="userSpaceOnUse"><stop stop-color="#7DA5FF"/><stop offset="1" stop-color="#1F5DE8"/></linearGradient><linearGradient id="paint18_linear" x1="57.088" y1="61.136" x2="78.4" y2="82.448" gradientUnits="userSpaceOnUse"><stop stop-color="#FF994B"/><stop offset="1" stop-color="#FF7D19"/></linearGradient><clipPath id="clip0"><path fill="#fff" d="M0 0h96v96H0z"/></clipPath></defs></svg>