<svg width="96" height="96" fill="none" xmlns="http://www.w3.org/2000/svg"><g clip-path="url(#clip0)"><path d="M28.703 95.162L21.56 82.564l-14.343 2c-1.316.185-2.301-1.18-1.714-2.371l16.372-33.196L48 61.882 31.628 95.077c-.587 1.192-2.27 1.24-2.925.085z" fill="url(#paint0_linear)"/><path d="M48 61.882l-8.438-4.162-4.624-2.28-13.063-6.443-2.554 5.18 2.233 2.234.02.025.376 3.218a2.523 2.523 0 001.008 1.737l16.933 16.933L48 61.882z" fill="url(#paint1_linear)"/><path d="M21.56 82.564l3.075 5.423L39.562 57.72l-9.25-4.562-14.927 30.267 6.175-.861z" fill="url(#paint2_linear)"/><path d="M30.313 53.158l-5.148 10.439 7.701 7.701 6.697-13.578-4.625-2.28-4.625-2.282z" fill="url(#paint3_linear)"/><path d="M67.297 95.161l7.143-12.597 14.343 2c1.316.184 2.301-1.18 1.713-2.371l-16.37-33.196L48 61.881l16.372 33.196c.587 1.192 2.27 1.24 2.925.084z" fill="url(#paint4_linear)"/><path d="M90.496 82.193L74.125 48.997 48 61.881l3.805 7.715 19.137 19.137 3.498-6.17 14.343 2.002c1.316.183 2.301-1.18 1.713-2.372z" fill="url(#paint5_linear)"/><path d="M74.44 82.564l-3.075 5.423L56.438 57.72l9.25-4.562 14.927 30.267-6.175-.861z" fill="url(#paint6_linear)"/><path d="M83.275 37.385l-2.922 3.7a2.526 2.526 0 00-.447 2.256l1.288 4.53a2.526 2.526 0 01-1.201 2.898l-4.115 2.29a2.526 2.526 0 00-1.28 1.914l-.548 4.68a2.526 2.526 0 01-2.215 2.216l-4.68.548a2.527 2.527 0 00-1.914 1.28l-2.291 4.115a2.527 2.527 0 01-2.898 1.2l-4.53-1.287a2.527 2.527 0 00-2.257.448l-3.7 2.921a2.527 2.527 0 01-3.13 0l-3.7-2.921a2.526 2.526 0 00-2.257-.448l-4.53 1.288a2.526 2.526 0 01-2.898-1.201l-2.29-4.114a2.526 2.526 0 00-1.914-1.28l-4.681-.549a2.526 2.526 0 01-2.215-2.215l-.549-4.68a2.526 2.526 0 00-1.28-1.914l-4.114-2.29a2.527 2.527 0 01-1.201-2.899l1.287-4.53c.222-.78.056-1.62-.447-2.257l-2.922-3.699a2.527 2.527 0 010-3.131l2.922-3.7c.503-.637.67-1.476.447-2.257l-1.287-4.53a2.526 2.526 0 011.2-2.897l4.115-2.292a2.526 2.526 0 001.28-1.913l.549-4.68a2.526 2.526 0 012.215-2.216l4.68-.548a2.526 2.526 0 001.914-1.28l2.29-4.115a2.527 2.527 0 012.899-1.2l4.53 1.287c.78.222 1.62.055 2.256-.448l3.7-2.921a2.527 2.527 0 013.131 0l3.7 2.921c.636.503 1.476.67 2.256.448l4.53-1.288a2.526 2.526 0 012.898 1.201L65.24 7.94a2.526 2.526 0 001.914 1.28l4.68.549a2.527 2.527 0 012.216 2.215l.548 4.68c.094.807.57 1.52 1.28 1.914l4.114 2.291a2.527 2.527 0 011.201 2.898l-1.287 4.53a2.53 2.53 0 00.447 2.257l2.922 3.699a2.526 2.526 0 010 3.132z" fill="url(#paint7_linear)"/><path d="M48 59.29c12.963 0 23.471-10.508 23.471-23.47 0-12.963-10.508-23.471-23.47-23.471-12.964 0-23.472 10.508-23.472 23.47 0 12.963 10.508 23.472 23.471 23.472z" fill="url(#paint8_linear)"/><path d="M48 59.29c12.963 0 23.471-10.508 23.471-23.47 0-12.963-10.508-23.471-23.47-23.471-12.964 0-23.472 10.508-23.472 23.47 0 12.963 10.508 23.472 23.471 23.472z" fill="url(#paint9_linear)"/><path d="M48 54.944c10.562 0 19.124-8.563 19.124-19.125S58.563 16.694 48 16.694 28.875 25.257 28.875 35.82 37.438 54.944 48 54.944z" fill="url(#paint10_linear)"/><path d="M71.835 61.87a2.526 2.526 0 002.215-2.216l.548-4.68a2.527 2.527 0 011.28-1.914l4.115-2.291c.324-.18.594-.425.804-.709L49.766 18.97c-.458-.3-.97-.45-1.536-.45-.505 0-.93.174-1.277.52l-4.915 4.727c-.662.472-.993 1.119-.993 1.938 0 .504.166.968.496 1.394l3.9 3.914v20.45c0 .505.243.907.732 1.206l.102.057 15.9 15.935c.312-.215.58-.5.775-.85l2.29-4.113a2.526 2.526 0 011.914-1.28l4.68-.549z" fill="url(#paint11_linear)"/><path d="M41.045 25.705c0-.82.331-1.466.993-1.938l4.915-4.727c.347-.346.772-.52 1.277-.52.567 0 1.078.15 1.536.45.456.3.685.701.685 1.205v31.289c0 .504-.253.906-.756 1.205-.504.3-1.087.449-1.749.449-.693 0-1.284-.15-1.772-.45-.49-.298-.733-.7-.733-1.204v-26.28l-1.654 2.08c-.315.316-.662.473-1.04.473-.473 0-.874-.213-1.205-.638a2.223 2.223 0 01-.497-1.394z" fill="#FFB92D"/></g><defs><linearGradient id="paint0_linear" x1="14.5" y1="88.001" x2="31" y2="61.001" gradientUnits="userSpaceOnUse"><stop offset=".182" stop-color="#7DA5FF"/><stop offset="1" stop-color="#1F5DE8"/></linearGradient><linearGradient id="paint1_linear" x1="43.284" y1="85.299" x2="30.982" y2="50.443" gradientUnits="userSpaceOnUse"><stop stop-color="#00A2F3" stop-opacity="0"/><stop offset="1" stop-color="#0075CD"/></linearGradient><linearGradient id="paint2_linear" x1="24.602" y1="76.398" x2="36.486" y2="52.293" gradientUnits="userSpaceOnUse"><stop stop-color="#F2F2F2"/><stop offset="1" stop-color="#C3C3C3"/></linearGradient><linearGradient id="paint3_linear" x1="41.268" y1="77.1" x2="24.979" y2="47.026" gradientUnits="userSpaceOnUse"><stop stop-color="#C3C3C3" stop-opacity="0"/><stop offset="1" stop-color="#777"/></linearGradient><linearGradient id="paint4_linear" x1="73.201" y1="80.056" x2="60.717" y2="54.74" gradientUnits="userSpaceOnUse"><stop stop-color="#FF7D19"/><stop offset="1" stop-color="#CF5D05"/></linearGradient><linearGradient id="paint5_linear" x1="91.32" y1="87.654" x2="50.389" y2="46.723" gradientUnits="userSpaceOnUse"><stop stop-color="#BE3F45" stop-opacity="0"/><stop offset="1" stop-color="#BE3F45"/></linearGradient><linearGradient id="paint6_linear" x1="82.388" y1="91.477" x2="58.241" y2="55.067" gradientUnits="userSpaceOnUse"><stop stop-color="#F2F2F2"/><stop offset="1" stop-color="#C3C3C3"/></linearGradient><linearGradient id="paint7_linear" x1="27.607" y1="15.43" x2="83.251" y2="71.071" gradientUnits="userSpaceOnUse"><stop stop-color="#FFF465"/><stop offset="1" stop-color="#FFE600"/></linearGradient><linearGradient id="paint8_linear" x1="61.361" y1="49.184" x2="24.899" y2="12.72" gradientUnits="userSpaceOnUse"><stop stop-color="#FFF465"/><stop offset="1" stop-color="#FFE600"/></linearGradient><linearGradient id="paint9_linear" x1="61.361" y1="49.184" x2="24.899" y2="12.72" gradientUnits="userSpaceOnUse"><stop stop-color="#FFF465"/><stop offset="1" stop-color="#FFE600"/></linearGradient><linearGradient id="paint10_linear" x1="37.111" y1="24.932" x2="66.821" y2="54.644" gradientUnits="userSpaceOnUse"><stop stop-color="#FFF465"/><stop offset="1" stop-color="#FFE600"/></linearGradient><linearGradient id="paint11_linear" x1="76.384" y1="51.405" x2="12.111" y2="27.398" gradientUnits="userSpaceOnUse"><stop stop-color="#FFE600" stop-opacity="0"/><stop offset="1" stop-color="#F59500"/></linearGradient><clipPath id="clip0"><path fill="#fff" d="M0 0h96v96H0z"/></clipPath></defs></svg>