<svg width="96" height="96" fill="none" xmlns="http://www.w3.org/2000/svg"><g clip-path="url(#clip0)"><path d="M91.957 23.18a4.315 4.315 0 00-3.772-4.212C68.527 16.428 54.879 5.351 49.99.785a2.917 2.917 0 00-3.98 0C41.12 5.35 27.473 16.427 7.815 18.968a4.315 4.315 0 00-3.772 4.212C3.849 37.242 6.275 85.57 48 96c41.725-10.431 44.152-58.758 43.957-72.82z" fill="url(#paint0_linear)"/><path d="M53.939 94.17a55.876 55.876 0 002.69-1.08c.373-.161.742-.326 1.107-.494a51.379 51.379 0 004.14-2.143c.496-.287.984-.58 1.464-.88l.033-.02a49.11 49.11 0 002.651-1.785c.064-.046.13-.091.194-.138a48.988 48.988 0 001.827-1.399l.179-.141c.337-.273.667-.55.995-.83.305-.26.608-.523.905-.79l.298-.271c.104-.095.21-.19.312-.285.307-.284.608-.572.905-.861.094-.092.19-.183.282-.275.323-.319.64-.642.952-.968l.19-.197a52.232 52.232 0 002.41-2.723 53.816 53.816 0 002.202-2.848c.108-.15.214-.3.32-.451.047-.066.095-.131.14-.197.076-.107.149-.214.223-.321l.23-.332c.247-.363.488-.729.726-1.096a60.195 60.195 0 002.117-3.513l.047-.084c.081-.146.16-.293.24-.439l.136-.246c.228-.421.45-.845.668-1.27.018-.037.038-.073.057-.11.088-.172.174-.345.26-.518l.09-.176a68.917 68.917 0 00.997-2.097 73.896 73.896 0 001.772-4.24c.34-.891.663-1.783.969-2.675l.058-.167c.058-.17.114-.341.17-.512l.068-.199a85 85 0 00.62-1.959l.052-.17a86.852 86.852 0 00.63-2.19 92.008 92.008 0 00.705-2.735l.106-.447.06-.248c.094-.407.186-.812.275-1.216l.037-.166a94.59 94.59 0 00.33-1.573c.077-.378.15-.754.222-1.127l.005-.027a108.3 108.3 0 00.543-3.111l.034-.21.028-.184.072-.465c.057-.377.111-.751.164-1.123l.023-.162.056-.414.03-.22.025-.185a111.453 111.453 0 00.562-5.188l.005-.05c.024-.283.046-.561.068-.837l.031-.415a114.885 114.885 0 00.298-6.313v-.035c.014-.709.02-1.375.02-1.995v-.038c0-.504-.003-.976-.009-1.416a4.316 4.316 0 00-3.773-4.212 63.87 63.87 0 01-1.987-.291 64.572 64.572 0 01-1.562-.271c-.078-.014-.154-.03-.23-.045-.47-.09-.935-.183-1.396-.282l-.298-.063c-.502-.11-1-.225-1.494-.345l-.31-.077c-.456-.113-.908-.23-1.356-.352l-.174-.046a65.928 65.928 0 01-1.767-.512 78.54 78.54 0 01-1.418-.447l-.076-.025a67.1 67.1 0 01-1.333-.457l-.3-.106a70.3 70.3 0 01-1.329-.491l-.222-.086a68.798 68.798 0 01-1.177-.467l-.23-.093a69.616 69.616 0 01-1.261-.533l-.27-.119c-.392-.172-.78-.346-1.163-.522l-.105-.048a71.46 71.46 0 01-1.473-.704c-.392-.192-.78-.386-1.161-.582l-.113-.058a73.511 73.511 0 01-1.053-.554l-.234-.126a73.62 73.62 0 01-1.077-.594l-.199-.113a73.645 73.645 0 01-.943-.545l-.167-.097c-.34-.201-.675-.403-1.005-.604l-.22-.136a75.277 75.277 0 01-1.93-1.232c-.07-.046-.14-.091-.208-.137-.302-.2-.598-.4-.888-.598l-.114-.08a77.296 77.296 0 01-.779-.543l-.169-.12a75.685 75.685 0 01-.803-.579l-.16-.117a77.032 77.032 0 01-.699-.52l-.103-.078a71.442 71.442 0 01-1.58-1.231l-.013-.011a67.137 67.137 0 01-.644-.524l-.14-.115c-.204-.17-.404-.336-.596-.498-.03-.026-.06-.05-.09-.077a62.638 62.638 0 01-.504-.432c-.034-.03-.068-.06-.102-.088a57.188 57.188 0 01-1.046-.932l-.05-.046c-.15-.137-.292-.267-.428-.394l-.044-.04A2.903 2.903 0 0048 0v96a58.41 58.41 0 002.718-.75 55.605 55.605 0 003.22-1.08z" fill="url(#paint1_linear)"/><path d="M86.744 26.123a3.804 3.804 0 00-3.324-3.712c-17.327-2.24-29.357-12.003-33.665-16.027a2.571 2.571 0 00-3.509 0c-4.309 4.024-16.339 13.788-33.665 16.027a3.803 3.803 0 00-3.325 3.712C9.084 38.519 11.223 81.114 48 90.309c36.777-9.194 38.916-51.79 38.744-64.184z" fill="url(#paint2_linear)"/><path d="M48 87.049l-.434-.109c-7.8-1.95-14.473-5.712-19.832-11.18-4.448-4.54-8.023-10.287-10.624-17.081-4.52-11.807-5.054-23.827-4.969-29.942.035-2.531 1.962-4.686 4.482-5.012 14.69-1.899 24.904-10.163 28.614-13.628a4.06 4.06 0 015.526 0c3.71 3.465 13.924 11.73 28.614 13.628 2.52.326 4.447 2.48 4.482 5.012.16 11.537-1.923 49.828-35.425 58.204l-.434.108zm0-74.466a.471.471 0 00-.323.127c-3.962 3.7-14.876 12.528-30.596 14.56-.767.1-1.354.752-1.365 1.517-.15 10.82 1.747 46.608 32.284 54.574 30.537-7.966 32.434-43.753 32.284-54.574a1.566 1.566 0 00-1.365-1.517c-15.72-2.032-26.634-10.86-30.596-14.56a.472.472 0 00-.323-.127z" fill="#fff"/><path d="M86.745 26.123a3.804 3.804 0 00-3.325-3.712C66.093 20.171 54.064 10.41 49.755 6.384A2.563 2.563 0 0048 5.692v84.616c36.777-9.194 38.916-51.79 38.745-64.184z" fill="url(#paint3_linear)"/><path d="M88.85 50.834c-3.093 12.503-9.157 26.105-20.9 35.472l-36.39-36.39a3.411 3.411 0 010-4.822 3.408 3.408 0 014.822 0l7.32 7.32c.902.9 2.37.9 3.269 0l19.318-19.317a3.408 3.408 0 014.823 0h.002l17.735 17.737z" fill="url(#paint4_linear)"/><path d="M71.113 33.098a3.41 3.41 0 010 4.823L51.795 57.237c-3.561 3.561-9.356 3.561-12.914 0l-7.321-7.32a3.41 3.41 0 114.823-4.824l7.32 7.32c.9.901 2.368.901 3.267 0l19.32-19.317a3.41 3.41 0 014.823 0l.001.002z" fill="url(#paint5_linear)"/></g><defs><linearGradient id="paint0_linear" x1="23.5" y1="16" x2="69.5" y2="77.5" gradientUnits="userSpaceOnUse"><stop stop-color="#7DA5FF"/><stop offset="1" stop-color="#1F5DE8"/></linearGradient><linearGradient id="paint1_linear" x1="84.219" y1="48.001" x2="33.701" y2="48.001" gradientUnits="userSpaceOnUse"><stop stop-color="#00A2F3" stop-opacity="0"/><stop offset="1" stop-color="#0075CD"/></linearGradient><linearGradient id="paint2_linear" x1="33.014" y1="27.819" x2="74.06" y2="68.865" gradientUnits="userSpaceOnUse"><stop stop-color="#A7F3CE"/><stop offset="1" stop-color="#61DB99"/></linearGradient><linearGradient id="paint3_linear" x1="80.576" y1="48.001" x2="30.093" y2="48.001" gradientUnits="userSpaceOnUse"><stop stop-color="#61DB99" stop-opacity="0"/><stop offset="1" stop-color="#009E74"/></linearGradient><linearGradient id="paint4_linear" x1="75.995" y1="66.167" x2="56.765" y2="46.937" gradientUnits="userSpaceOnUse"><stop stop-color="#61DB99" stop-opacity="0"/><stop offset="1" stop-color="#009E74"/></linearGradient><linearGradient id="paint5_linear" x1="51.336" y1="40.935" x2="51.336" y2="63.223" gradientUnits="userSpaceOnUse"><stop stop-color="#FFF465"/><stop offset="1" stop-color="#FFE600"/></linearGradient><clipPath id="clip0"><path fill="#fff" d="M0 0h96v96H0z"/></clipPath></defs></svg>