<svg width="185" height="185" fill="none" xmlns="http://www.w3.org/2000/svg"><g clip-path="url(#clip0)"><path d="M87.715 2.331L.127 73.105v13.19h184.746v-13.19L97.285 2.331a7.614 7.614 0 00-9.57 0z" fill="#FF9102"/><path d="M169.647 159.443H15.353a7.613 7.613 0 01-7.613-7.613V7.613A7.613 7.613 0 0115.353 0h154.294a7.614 7.614 0 017.613 7.613V151.83a7.612 7.612 0 01-7.613 7.613z" fill="url(#paint0_linear)"/><path d="M177.26 147.589v2.963c0 4.908-3.983 8.891-8.891 8.891H16.631c-4.908 0-8.89-3.983-8.89-8.891v-2.963H177.26z" fill="url(#paint1_linear)"/><path d="M141.479 24.107H43.521v5.584h97.958v-5.584zm0 22.331H43.521v5.584h97.958v-5.584zm0 22.84H43.521v5.584h97.958v-5.584zm0 22.84H43.521v5.583h97.958v-5.583z" fill="#C2CECE"/><path d="M153.659 75.37a31.086 31.086 0 01-19.965-7.222l-2.113.371 45.679 45.679V64.572c-5.724 6.61-14.171 10.799-23.601 10.799z" fill="url(#paint2_linear)"/><path d="M184.873 73.274v104.113A7.616 7.616 0 01177.26 185H7.74a7.615 7.615 0 01-7.613-7.613V73.274l93.388 73.661 91.358-73.66z" fill="url(#paint3_linear)"/><path d="M183.846 181.193l-85.552-68.979a7.612 7.612 0 00-9.557 0L1.879 182.245A7.597 7.597 0 007.74 185h169.52a7.602 7.602 0 006.586-3.807z" fill="url(#paint4_linear)"/><path d="M153.658 77.908c17.239 0 31.214-13.975 31.214-31.215 0-17.238-13.975-31.213-31.214-31.213-17.239 0-31.214 13.974-31.214 31.213 0 17.24 13.975 31.215 31.214 31.215z" fill="url(#paint5_linear)"/><path d="M153.658 77.908c17.239 0 31.214-13.975 31.214-31.215 0-17.238-13.975-31.213-31.214-31.213-17.239 0-31.214 13.974-31.214 31.213 0 17.24 13.975 31.215 31.214 31.215z" fill="url(#paint6_linear)"/><path d="M141.602 30.352c-5.142 0-8.272 3.482-8.272 9.287 0 5.85 3.13 9.377 8.272 9.377s8.272-3.527 8.272-9.377c0-5.805-3.13-9.287-8.272-9.287zm-2.37 31.346h4.963l22.983-31.257h-4.919l-23.027 31.257zm2.37-28.31c3.085 0 4.874 2.277 4.874 6.251 0 4.02-1.789 6.341-4.874 6.341s-4.829-2.322-4.829-6.34c0-3.975 1.744-6.252 4.829-6.252zm23.564 9.779c-5.142 0-8.272 3.483-8.272 9.288 0 5.85 3.13 9.332 8.272 9.332s8.272-3.483 8.272-9.332c0-5.805-3.13-9.288-8.272-9.288zm0 2.992c3.085 0 4.873 2.322 4.873 6.296 0 4.018-1.788 6.296-4.873 6.296-3.086 0-4.829-2.278-4.829-6.296 0-3.974 1.743-6.296 4.829-6.296z" fill="#fff"/><path d="M10.114 154.204V9.986a7.613 7.613 0 017.613-7.613H172.02c1.494 0 2.884.437 4.06 1.18A7.602 7.602 0 00169.647 0H15.353A7.614 7.614 0 007.74 7.613V151.83a7.603 7.603 0 003.554 6.434 7.574 7.574 0 01-1.18-4.06z" fill="url(#paint7_linear)"/></g><defs><linearGradient id="paint0_linear" x1="24.864" y1="12.078" x2="202.396" y2="189.613" gradientUnits="userSpaceOnUse"><stop stop-color="#fff"/><stop offset="1" stop-color="#E8EFEE"/></linearGradient><linearGradient id="paint1_linear" x1="178.741" y1="146.229" x2="-.364" y2="160.647" gradientUnits="userSpaceOnUse"><stop stop-color="#C2CECE" stop-opacity="0"/><stop offset=".179" stop-color="#AFBCBC" stop-opacity=".179"/><stop offset="1" stop-color="#5B6A6A"/></linearGradient><linearGradient id="paint2_linear" x1="179.105" y1="91.221" x2="137.475" y2="49.591" gradientUnits="userSpaceOnUse"><stop stop-color="#C2CECE" stop-opacity="0"/><stop offset=".179" stop-color="#AFBCBC" stop-opacity=".179"/><stop offset="1" stop-color="#5B6A6A"/></linearGradient><linearGradient id="paint3_linear" x1="92.503" y1="108.804" x2="92.503" y2="177.376" gradientUnits="userSpaceOnUse"><stop stop-color="#FFC200"/><stop offset=".268" stop-color="#FB0"/><stop offset=".659" stop-color="#FFA801"/><stop offset="1" stop-color="#FF9102"/></linearGradient><linearGradient id="paint4_linear" x1="92.866" y1="161.145" x2="92.866" y2="184.934" gradientUnits="userSpaceOnUse"><stop stop-color="#FFC200"/><stop offset=".268" stop-color="#FB0"/><stop offset=".659" stop-color="#FFA801"/><stop offset="1" stop-color="#FF9102"/></linearGradient><linearGradient id="paint5_linear" x1="140.653" y1="15.693" x2="166.535" y2="77.358" gradientUnits="userSpaceOnUse"><stop stop-color="#1F5DE8"/><stop offset=".366" stop-color="#1D60F6"/><stop offset=".899" stop-color="#1756E1"/><stop offset="1" stop-color="#0845CD"/></linearGradient><linearGradient id="paint6_linear" x1="153.658" y1="15.479" x2="153.658" y2="77.908" gradientUnits="userSpaceOnUse"><stop stop-color="#FF7D19"/><stop offset="1" stop-color="#E16607"/></linearGradient><linearGradient id="paint7_linear" x1="49.468" y1="36.684" x2="-80.46" y2="-93.24" gradientUnits="userSpaceOnUse"><stop stop-color="#C2CECE" stop-opacity="0"/><stop offset=".179" stop-color="#AFBCBC" stop-opacity=".179"/><stop offset="1" stop-color="#5B6A6A"/></linearGradient><clipPath id="clip0"><path fill="#fff" d="M0 0h185v185H0z"/></clipPath></defs></svg>