<svg width="29" height="38" fill="none" xmlns="http://www.w3.org/2000/svg"><path d="M27.716 7.163c.353.352.655.83.906 1.432.252.603.378 1.156.378 1.659v25.937c0 .502-.176.93-.529 1.281-.352.352-.78.528-1.284.528H1.813a1.75 1.75 0 01-1.283-.528A1.743 1.743 0 010 36.19V1.81C0 1.307.176.88.529.528A1.75 1.75 0 011.813 0h16.916c.504 0 1.058.126 1.662.377.604.251 1.082.553 1.435.905l5.89 5.88zm-8.383-4.6v7.088h7.1c-.127-.365-.265-.622-.416-.773l-5.91-5.9c-.15-.15-.409-.289-.774-.415zm7.25 33.024V12.063H18.73a1.75 1.75 0 01-1.284-.527 1.744 1.744 0 01-.528-1.282V2.413h-14.5v33.174h24.166z" fill="#325FC7"/><path fill="#325FC7" d="M6 18h17v2H6zM6 7h9v2H6zm0 16h17v2H6zm0 5h17v2H6z"/></svg>