<svg width="13" height="13" viewBox="0 0 13 13" fill="none" xmlns="http://www.w3.org/2000/svg">
<path fill-rule="evenodd" clip-rule="evenodd" d="M5.75979 4.12019C6.09655 3.66636 6.21731 3.18807 5.83644 2.76588C4.98174 1.56992 4.40693 0.830338 4.04638 0.474174C3.36093 -0.202938 2.23335 -0.111348 1.6397 0.473596C1.32085 0.787775 1.2129 0.895665 0.885509 1.22821C-0.938127 3.05282 0.174021 6.90999 3.13051 9.86939C6.08634 12.8281 9.94314 13.9409 11.7706 12.1124C12.0727 11.8211 12.3285 11.5652 12.5302 11.352C13.112 10.7371 13.2003 9.65925 12.5264 8.95903C12.1809 8.60003 11.4756 8.05297 10.2294 7.1615C9.84767 6.82018 9.39509 6.89416 8.98017 7.16637C8.78057 7.29732 8.63533 7.42978 8.36106 7.70432L7.86301 8.20264C7.79741 8.26827 6.90667 7.82219 6.04201 6.95668C5.17688 6.0907 4.73111 5.19992 4.7964 5.13463L5.29479 4.63596C5.38181 4.54886 5.42341 4.50669 5.47676 4.45062C5.58792 4.3338 5.67995 4.22778 5.75979 4.12019ZM8.78172 9.12174L9.27987 8.62331C9.43082 8.47222 9.52864 8.37932 9.60822 8.31527C10.7 9.09928 11.3323 9.59227 11.5905 9.86061C11.7456 10.0217 11.7215 10.3157 11.5867 10.4582C11.4002 10.6553 11.1578 10.8978 10.8604 11.1847C9.67868 12.3669 6.56538 11.4687 4.04943 8.95025C1.53269 6.43104 0.634887 3.31726 1.80767 2.14383C2.13374 1.81266 2.23705 1.7094 2.55135 1.39971C2.6692 1.28359 2.9902 1.25752 3.13356 1.39913C3.41115 1.67334 3.92607 2.33266 4.68354 3.38781C4.64433 3.43649 4.59535 3.49151 4.53575 3.55415C4.492 3.60012 4.45556 3.63707 4.37588 3.71682L3.87798 4.215C3.03095 5.06196 3.75231 6.50344 5.1231 7.87558C6.49296 9.24678 7.93498 9.96895 8.78172 9.12174Z" fill="black"/>
</svg>
