<svg width="18" height="19" fill="none" xmlns="http://www.w3.org/2000/svg"><g clip-path="url(#clip0)"><path d="M12.666 3.781A24.47 24.47 0 009.346.508a.563.563 0 00-.908.442v2.467c0 1.275-1.69 1.723-2.324.615a.564.564 0 00-.924-.077C3.487 6.028 1.97 8.64 1.97 11.33c0 3.867 3.154 7.014 7.031 7.014s7.031-3.147 7.031-7.014c0-2.76-1.599-5.443-3.365-7.55zM9 17.222c-3.257 0-5.906-2.643-5.906-5.891 0-2.264 1.297-4.503 2.541-6.129 1.474 1.298 3.927.3 3.927-1.785V2.174c2.495 2.274 5.344 5.792 5.344 9.157 0 3.248-2.65 5.892-5.906 5.892z" fill="#F64F63"/><path d="M12.666 3.781A24.47 24.47 0 009.346.508a.563.563 0 00-.908.442v2.467c0 1.275-1.69 1.723-2.324.615a.564.564 0 00-.924-.077C3.487 6.028 1.97 8.64 1.97 11.33c0 3.867 3.154 7.014 7.031 7.014s7.031-3.147 7.031-7.014c0-2.76-1.599-5.443-3.365-7.55zM9 17.222c-3.257 0-5.906-2.643-5.906-5.891 0-2.264 1.297-4.503 2.541-6.129 1.474 1.298 3.927.3 3.927-1.785V2.174c2.495 2.274 5.344 5.792 5.344 9.157 0 3.248-2.65 5.892-5.906 5.892z" fill="url(#paint0_linear)"/><path d="M11.314 8.363a.563.563 0 00-.79.098l-3.937 5.05a.562.562 0 00.888.69l3.938-5.05a.56.56 0 00-.099-.788z" fill="#F64F63"/><path d="M11.314 8.363a.563.563 0 00-.79.098l-3.937 5.05a.562.562 0 00.888.69l3.938-5.05a.56.56 0 00-.099-.788z" fill="url(#paint1_linear)"/><path d="M10.969 14.417c.621 0 1.125-.503 1.125-1.122 0-.62-.504-1.123-1.125-1.123a1.124 1.124 0 100 2.245z" fill="#F64F63"/><path d="M10.969 14.417c.621 0 1.125-.503 1.125-1.122 0-.62-.504-1.123-1.125-1.123a1.124 1.124 0 100 2.245z" fill="url(#paint2_linear)"/><path d="M7.031 10.489a1.123 1.123 0 100-2.245 1.124 1.124 0 100 2.245z" fill="#F64F63"/><path d="M7.031 10.489a1.123 1.123 0 100-2.245 1.124 1.124 0 100 2.245z" fill="url(#paint3_linear)"/></g><defs><linearGradient id="paint0_linear" x1="9" y1=".388" x2="9" y2="18.345" gradientUnits="userSpaceOnUse"><stop stop-color="#2768CC"/><stop offset="1" stop-color="#fff" stop-opacity="0"/></linearGradient><linearGradient id="paint1_linear" x1="9" y1="8.244" x2="9" y2="14.417" gradientUnits="userSpaceOnUse"><stop stop-color="#2768CC"/><stop offset="1" stop-color="#fff" stop-opacity="0"/></linearGradient><linearGradient id="paint2_linear" x1="10.969" y1="12.172" x2="10.969" y2="14.417" gradientUnits="userSpaceOnUse"><stop stop-color="#2768CC"/><stop offset="1" stop-color="#fff" stop-opacity="0"/></linearGradient><linearGradient id="paint3_linear" x1="7.031" y1="8.244" x2="7.031" y2="10.489" gradientUnits="userSpaceOnUse"><stop stop-color="#2768CC"/><stop offset="1" stop-color="#fff" stop-opacity="0"/></linearGradient><clipPath id="clip0"><path fill="#fff" transform="translate(0 .388)" d="M0 0h18v17.957H0z"/></clipPath></defs></svg>