<svg width="39" height="44" fill="none" xmlns="http://www.w3.org/2000/svg"><path d="M19.939 10.14l.05-.003c1.487-.128 2.516-.601 3.342-1.54l.015-.017a.683.683 0 01.542-.264.678.678 0 01.537.273l.013.016c.822.932 1.851 1.404 3.337 1.532l.051.003c.713.035.817.564.829.79.188 3.61-1.2 6.251-4.372 8.313a.702.702 0 01-.4.13.71.71 0 01-.404-.132c-3.168-2.056-4.557-4.697-4.37-8.319.013-.224.123-.747.83-.782zm3.943 7.814c2.442-1.69 3.53-3.74 3.484-6.563-1.442-.17-2.568-.654-3.485-1.502-.916.848-2.042 1.332-3.484 1.502-.045 2.825 1.043 4.873 3.485 6.563zM9.98 8.375h5.648c.36 0 .652.288.652.644a.648.648 0 01-.652.645H9.98a.648.648 0 01-.652-.645c0-.356.292-.644.652-.644zm0 3.127h5.648c.36 0 .652.289.652.645a.648.648 0 01-.652.644H9.98a.648.648 0 01-.652-.644c0-.356.292-.645.652-.645zm0 3.128h5.648c.36 0 .652.289.652.645a.648.648 0 01-.652.644H9.98a.648.648 0 01-.652-.644c0-.356.292-.645.652-.645z" fill="#fff"/><path d="M3.924 18.86l1.14.003V5.279a1.45 1.45 0 011.458-1.437h.313v-2.27C6.835.704 7.549 0 8.428 0h26.778c.879 0 1.593.705 1.593 1.571v22.584c1.237.143 2.2 1.184 2.2 2.444v12.479c0 1.357-1.117 2.46-2.49 2.46h-5.346a.648.648 0 01-.652-.644c0-.356.292-.644.652-.644h5.345a1.18 1.18 0 001.186-1.172v-12.48a1.18 1.18 0 00-1.186-1.171H20.725c-1.342 0-3.01 0-3.337-1.904l-.834-2.49c-.288-.863-.62-.864-1.077-.866L3.923 20.15c-.893 0-1.62.718-1.62 1.6v17.328a1.18 1.18 0 001.186 1.172h1.184v-6.494c0-1.336 1.1-2.424 2.453-2.424h.135v-1.695c0-1.647 1.355-2.986 3.02-2.986h3.77c1.666 0 3.022 1.34 3.022 2.986v1.695h.136c1.352 0 2.453 1.088 2.453 2.424v6.494H31.76v1.289H19.661v.037c0 1.337-1.1 2.424-2.452 2.424H7.126c-1.353 0-2.453-1.087-2.453-2.424v-.037H3.49c-1.373 0-2.49-1.104-2.49-2.461V21.75c0-1.594 1.312-2.89 2.925-2.89zm11.556.018c.856.003 1.8.214 2.313 1.75l.85 2.539a.64.64 0 01.025.104c.115.737.422.866 2.057.866h10.707V5.28c0-.08-.07-.148-.153-.148h-6.564a.648.648 0 01-.652-.645c0-.356.292-.644.652-.644h6.564a1.45 1.45 0 011.457 1.437v18.858h2.759V1.572a.29.29 0 00-.288-.282H8.426a.29.29 0 00-.288.282v2.27H25.65v1.29H6.522a.153.153 0 00-.153.148v13.586l9.111.013zm.289 10.76a1.71 1.71 0 00-1.718-1.698h-3.77c-.946 0-1.715.761-1.715 1.697v1.695h7.203v-1.695zM5.977 41.575c0 .626.516 1.135 1.149 1.135h10.082c.634 0 1.15-.51 1.15-1.135v-7.82c0-.625-.516-1.135-1.15-1.135H7.127c-.633 0-1.149.51-1.149 1.135v7.82z" fill="#fff"/><path d="M12.167 34.936c1.232 0 2.235.992 2.235 2.21 0 .995-.667 1.837-1.582 2.113v1.358a.648.648 0 01-.653.644.648.648 0 01-.652-.644v-1.358a2.216 2.216 0 01-1.583-2.112c0-1.22 1.003-2.211 2.235-2.211zm0 3.13c.513 0 .93-.412.93-.92a.927.927 0 00-.93-.921.927.927 0 00-.93.922c0 .507.417.92.93.92z" fill="#fff"/></svg>