<svg width="44" height="40" fill="none" xmlns="http://www.w3.org/2000/svg"><path d="M39.438 3.403h-2.762V1.169C36.676.526 36.16 0 35.53 0c-.63 0-1.146.526-1.146 1.17v2.233H23.152V1.169C23.152.526 22.636 0 22.006 0c-.63 0-1.147.526-1.147 1.17v2.233H9.513V1.169C9.513.526 8.997 0 8.367 0 7.737 0 7.22.526 7.22 1.17v2.233H4.573C2.05 3.403 0 5.566 0 8.138v27.185C0 37.907 2.04 40 4.573 40h34.854C41.96 40 44 37.907 44 35.335V8.138c.011-2.572-2.04-4.735-4.562-4.735zm2.28 31.92c0 1.286-1.008 2.327-2.268 2.338H4.573c-1.26 0-2.281-1.04-2.281-2.326V8.138c0-1.298 1.02-2.397 2.28-2.397H7.22v1.695c0 .644.516 1.17 1.147 1.17.63 0 1.146-.526 1.146-1.17V5.741h11.346v1.695c0 .644.516 1.17 1.146 1.17.63 0 1.147-.526 1.147-1.17V5.741h11.232v1.695c0 .644.515 1.17 1.146 1.17.63 0 1.146-.526 1.146-1.17V5.741h2.762c1.272 0 2.28 1.11 2.28 2.397v27.185z" fill="#fff"/><path d="M18.991 13.341h-2.006c-.63 0-1.146.526-1.146 1.17 0 .643.516 1.169 1.146 1.169h2.006c.63 0 1.146-.527 1.146-1.17a1.16 1.16 0 00-1.146-1.169zm7.977 0h-2.006c-.63 0-1.146.526-1.146 1.17 0 .643.516 1.169 1.146 1.169h2.006c.63 0 1.146-.527 1.146-1.17 0-.643-.504-1.169-1.146-1.169zm8.046 0h-2.006c-.63 0-1.146.526-1.146 1.17 0 .643.516 1.169 1.146 1.169h2.006c.63 0 1.146-.527 1.146-1.17 0-.643-.516-1.169-1.146-1.169zm-16.023 8.068h-2.006c-.63 0-1.146.526-1.146 1.17 0 .642.516 1.168 1.146 1.168h2.006c.63 0 1.146-.526 1.146-1.169s-.515-1.17-1.146-1.17zm-8.034 0H8.94c-.63 0-1.147.526-1.147 1.17 0 .642.516 1.168 1.147 1.168h2.005c.63 0 1.146-.526 1.146-1.169s-.504-1.17-1.134-1.17zm16.011 0h-2.006c-.63 0-1.146.526-1.146 1.17 0 .642.516 1.168 1.146 1.168h2.006c.63 0 1.146-.526 1.146-1.169s-.504-1.17-1.146-1.17zm8.046 0h-2.006c-.63 0-1.146.526-1.146 1.17 0 .642.516 1.168 1.146 1.168h2.006c.63 0 1.146-.526 1.146-1.169s-.516-1.17-1.146-1.17zM18.991 29.36h-2.006c-.63 0-1.146.526-1.146 1.17 0 .642.516 1.168 1.146 1.168h2.006c.63 0 1.146-.526 1.146-1.169s-.515-1.17-1.146-1.17zm-8.034 0H8.94c-.63 0-1.147.526-1.147 1.17 0 .642.516 1.168 1.147 1.168h2.005c.63 0 1.146-.526 1.146-1.169s-.504-1.17-1.134-1.17zm16.011 0h-2.006c-.63 0-1.146.526-1.146 1.17 0 .642.516 1.168 1.146 1.168h2.006c.63 0 1.146-.526 1.146-1.169s-.504-1.17-1.146-1.17z" fill="#fff"/></svg>