<svg width="42" height="48" fill="none" xmlns="http://www.w3.org/2000/svg"><path d="M9.513 10.4h17.433c.21 0 .412-.084.56-.234a.804.804 0 000-1.132.788.788 0 00-.56-.234H9.513a.789.789 0 00-.56.234.804.804 0 000 1.132c.149.15.35.234.56.234zm0 4.8h17.433c.21 0 .412-.084.56-.234a.804.804 0 000-1.132.789.789 0 00-.56-.234H9.513a.789.789 0 00-.56.234.804.804 0 000 1.132c.149.15.35.234.56.234zm0 4.8h17.433c.21 0 .412-.084.56-.234a.804.804 0 000-1.132.789.789 0 00-.56-.234H9.513a.789.789 0 00-.56.234.804.804 0 000 1.132c.149.15.35.234.56.234zm0 4.8h17.433c.21 0 .412-.084.56-.234a.804.804 0 000-1.132.789.789 0 00-.56-.234H9.513a.789.789 0 00-.56.234.804.804 0 000 1.132c.149.15.35.234.56.234zm0 4.8h6.34c.21 0 .411-.084.56-.234a.804.804 0 000-1.132.788.788 0 00-.56-.234h-6.34a.788.788 0 00-.56.234.804.804 0 000 1.132c.149.15.35.234.56.234z" fill="#fff"/><path d="M40.826 18.901a2.36 2.36 0 00-1.802-.25c-.61.16-1.132.559-1.45 1.108l-1.912 3.291V3.2a.804.804 0 00-.232-.566.789.789 0 00-.56-.234h-6.01S26.477-.048 26.382.034a.783.783 0 00-.23-.034H3.175a.789.789 0 00-.56.234.804.804 0 00-.232.566v2.501A3.168 3.168 0 00.668 4.44a3.22 3.22 0 000 3.92c.43.561 1.033.962 1.714 1.139V11.3a3.168 3.168 0 00-1.714 1.14 3.22 3.22 0 000 3.92c.43.561 1.033.962 1.714 1.139V19.3a3.168 3.168 0 00-1.714 1.14 3.22 3.22 0 000 3.92c.43.561 1.033.962 1.714 1.139V26.5a3.168 3.168 0 00-1.714 1.14 3.22 3.22 0 000 3.92c.43.561 1.033.962 1.714 1.139V37.6c0 .212.083.416.232.566.148.15.35.234.56.234h.793v2.4c0 .212.083.416.232.566.148.15.35.234.56.234h20.136l-.543.935a.798.798 0 00-.097.273l-.003.013-.002.013v.003l-.634 4.244a.807.807 0 00.383.81.786.786 0 00.887-.06l3.37-2.641c.216-.17.322-.273.305-.412l1.844-3.178h4.465c.21 0 .412-.084.56-.234a.804.804 0 00.232-.566v-8.256l6.013-10.358c.318-.55.407-1.204.248-1.82a2.4 2.4 0 00-1.097-1.465zm-1.402 1.297a.785.785 0 01.832.291.805.805 0 01.052.888l-.401.69-1.367-.81.4-.69a.791.791 0 01.484-.369zM27.487 43.463l-1.367-.809L36.537 24.71l1.367.809-10.417 17.945zm-.541-40.732L29.787 5.6h-2.841V2.731zm10.392 20.597l.4-.69 1.368.81-.4.69-1.368-.81zM34.078 4v21.6a.81.81 0 00.015.155l-1.6 2.756V6.4a.805.805 0 00-.232-.565L30.444 4h3.634zM3.967 1.6H25.36v4.8c0 .212.084.416.232.566.149.15.35.234.56.234h4.755v24.041L27.681 36.8H3.967v-4.101a3.16 3.16 0 001.45-.836c.4-.404.686-.91.827-1.464a.807.807 0 00-.085-.606.793.793 0 00-.794-.385.8.8 0 00-.656.593 1.602 1.602 0 01-.742.984v-5.486a3.16 3.16 0 001.45-.836c.4-.404.686-.91.827-1.464a.807.807 0 00-.085-.606.786.786 0 00-1.086-.282.8.8 0 00-.364.49 1.602 1.602 0 01-.742.984v-6.286a3.16 3.16 0 001.45-.836c.4-.404.686-.91.827-1.464a.807.807 0 00-.085-.606.786.786 0 00-1.086-.282.8.8 0 00-.364.49 1.602 1.602 0 01-.742.984V9.499a3.16 3.16 0 001.45-.836c.4-.404.686-.91.827-1.464a.807.807 0 00-.085-.606.786.786 0 00-1.086-.282.8.8 0 00-.364.49 1.601 1.601 0 01-.742.984V1.6zM1.589 6.4a1.612 1.612 0 01.793-1.384v2.768A1.612 1.612 0 011.59 6.4zm0 8a1.612 1.612 0 01.793-1.383v2.767A1.612 1.612 0 011.59 14.4zm0 8a1.612 1.612 0 01.793-1.383v2.767A1.612 1.612 0 011.59 22.4zm0 7.2a1.612 1.612 0 01.793-1.384v2.767a1.6 1.6 0 01-.58-.584 1.612 1.612 0 01-.213-.799zM5.551 40v-1.6h21.201l-.928 1.6H5.55zm20.094 4.228l.715.423-.882.69.167-1.113zM34.078 40h-2.744l2.744-4.726V40z" fill="#fff"/></svg>