<svg width="48" height="39" fill="none" xmlns="http://www.w3.org/2000/svg"><path d="M47.396 16.823A2.26 2.26 0 0048 15.294C48 14.03 46.958 13 45.677 13h-.774V.765H27.871v9.437a5.441 5.441 0 00-1.757.912L23.728 13h-6.376l-.185-.184a2.297 2.297 0 001.413-2.11 2.28 2.28 0 00-.998-1.88l2.547-1.51v-.434c0-2.148-1.557-3.963-3.702-4.316l-.203-.033.108-.483-.301-.297C15.85 1.573 14.204 0 12.387 0 10.57 0 8.924 1.574 8.743 1.753l-.301.297.108.483-.204.033c-2.144.353-3.701 2.168-3.701 4.316v.433l2.547 1.51a2.284 2.284 0 00-.999 1.88c0 .948.584 1.761 1.414 2.111l-3.98 3.931A12.077 12.077 0 000 25.398V26c0 6.746 5.557 12.235 12.387 12.235S24.774 32.746 24.774 26v-.602c0-.088-.01-.176-.013-.264l.642.507c.713.564 1.57.923 2.468 1.058V39h17.032V26.765h.774c1.28 0 2.323-1.03 2.323-2.294 0-.59-.233-1.123-.604-1.53a2.26 2.26 0 00.604-1.53c0-.589-.233-1.122-.604-1.529a2.26 2.26 0 00.604-1.53c0-.589-.233-1.122-.604-1.529zm-.945 4.589a.77.77 0 01-.774.765H44.13a.77.77 0 01-.774-.765.77.77 0 01.774-.765h1.548a.77.77 0 01.774.765zm-7.68 16.059h-4.769c-.341-2.34-2.215-4.19-4.583-4.527v-8.24a8.539 8.539 0 006.968 3.59 8.48 8.48 0 005.938-2.396c.267.33.62.582 1.03.726v6.32c-2.369.337-4.242 2.187-4.584 4.527zM29.42 15.783c.444-.334.84-.737 1.158-1.21l.03-.044h3.457a3.094 3.094 0 002.656-1.51 6.919 6.919 0 015.118 2.59c.066.465.269.883.572 1.215a2.26 2.26 0 00-.604 1.53c0 .59.233 1.122.604 1.53a2.26 2.26 0 00-.604 1.529c0 .59.233 1.122.604 1.529-.303.333-.506.75-.572 1.214a6.936 6.936 0 01-5.451 2.609c-3.843 0-6.968-3.088-6.968-6.883v-4.1zm14.71 3.335a.77.77 0 01-.774-.765.77.77 0 01.774-.765h1.548a.77.77 0 01.774.765.77.77 0 01-.774.765H44.13zm2.322-3.824a.77.77 0 01-.774.765H44.13a.77.77 0 01-.774-.765.77.77 0 01.774-.765h1.548a.77.77 0 01.774.765zM43.355 5.276a3.86 3.86 0 01-3.019-2.982h3.019v2.982zM32.438 2.294a3.86 3.86 0 01-3.019 2.982V2.294h3.019zm-3.019 4.527c2.368-.337 4.242-2.188 4.583-4.527h4.77c.34 2.34 2.214 4.19 4.583 4.527v6.32c-.41.144-.763.397-1.03.725a8.45 8.45 0 00-5.169-2.352c.001-.014.005-.028.005-.043a1.54 1.54 0 00-1.548-1.53H29.5c-.027 0-.054.006-.08.007V6.821zm-13.161 3.12a.77.77 0 01.774.765.77.77 0 01-.774.765H8.516a.77.77 0 01-.774-.765.77.77 0 01.774-.765h7.742zm-.085-5.866a2.852 2.852 0 012.377 2.392l-3.28 1.945h-.37l.987-4.384.286.047zM12.387 1.53c.801 0 1.72.607 2.243 1.035l-1.316 5.848H11.46l-1.316-5.848c.523-.428 1.442-1.035 2.243-1.035zM8.6 4.075l.287-.047.986 4.384h-.368L6.223 6.467A2.853 2.853 0 018.6 4.075zM23.226 26c0 5.904-4.862 10.706-10.84 10.706C6.41 36.706 1.549 31.903 1.549 26v-.602c0-2.86 1.127-5.549 3.175-7.57L9.611 13h5.552l4.888 4.828a10.568 10.568 0 013.175 7.57V26zm3.145-1.552l-1.835-1.45a12.103 12.103 0 00-3.39-6.252L18.9 14.53h5.37l2.812-2.22a3.91 3.91 0 012.417-.838h6.113A1.54 1.54 0 0134.064 13H29.78l-.49.726a3.57 3.57 0 01-2.967 1.568v1.53c.535 0 1.054-.091 1.549-.247v8.565a3.659 3.659 0 01-1.5-.694zm3.048 10.041a3.86 3.86 0 013.019 2.982h-3.019v-2.982zm10.917 2.982a3.86 3.86 0 013.019-2.982v2.982h-3.019zm5.341-12.236H44.13a.77.77 0 01-.774-.764.77.77 0 01.774-.765h1.548a.77.77 0 01.774.765.77.77 0 01-.774.764z" fill="#fff"/></svg>