<svg width="38" height="39" fill="none" xmlns="http://www.w3.org/2000/svg"><path d="M19 38.691a.79.79 0 01-.56-.231l-3.524-3.516L10.1 36.23a.79.79 0 01-.97-.558l-1.29-4.803-4.814-1.287a.79.79 0 01-.56-.967l1.29-4.803-3.525-3.517a.788.788 0 010-1.116l3.525-3.516-1.29-4.804a.79.79 0 01.56-.967L7.84 8.605 9.13 3.8a.793.793 0 01.97-.558l4.815 1.287 3.524-3.516a.793.793 0 011.12 0l3.524 3.516L27.9 3.243a.792.792 0 01.97.558l1.29 4.804 4.815 1.287a.79.79 0 01.56.967l-1.29 4.803 3.524 3.517c.31.308.31.808 0 1.116l-3.524 3.517 1.29 4.803a.788.788 0 01-.56.967L30.16 30.87l-1.29 4.803a.788.788 0 01-.97.558l-4.815-1.286-3.524 3.516a.79.79 0 01-.56.231zm-3.848-5.418a.79.79 0 01.56.232L19 36.785l3.288-3.28c.2-.2.49-.28.765-.205l4.491 1.2 1.204-4.48a.792.792 0 01.56-.559l4.492-1.2-1.204-4.481a.787.787 0 01.205-.763l3.288-3.28-3.288-3.28a.787.787 0 01-.205-.763l1.204-4.48-4.492-1.202a.792.792 0 01-.56-.558l-1.204-4.481-4.491 1.2a.787.787 0 01-.765-.204L19 2.69l-3.288 3.28c-.2.2-.49.28-.765.205l-4.491-1.201-1.204 4.48a.792.792 0 01-.56.56l-4.49 1.2 1.202 4.481a.787.787 0 01-.205.763l-3.288 3.28 3.288 3.28c.2.2.279.49.205.763l-1.203 4.481 4.491 1.2a.793.793 0 01.56.558l1.204 4.481 4.491-1.2a.78.78 0 01.205-.027z" fill="#F64F63"/><path d="M19 38.691a.79.79 0 01-.56-.231l-3.524-3.516L10.1 36.23a.79.79 0 01-.97-.558l-1.29-4.803-4.814-1.287a.79.79 0 01-.56-.967l1.29-4.803-3.525-3.517a.788.788 0 010-1.116l3.525-3.516-1.29-4.804a.79.79 0 01.56-.967L7.84 8.605 9.13 3.8a.793.793 0 01.97-.558l4.815 1.287 3.524-3.516a.793.793 0 011.12 0l3.524 3.516L27.9 3.243a.792.792 0 01.97.558l1.29 4.804 4.815 1.287a.79.79 0 01.56.967l-1.29 4.803 3.524 3.517c.31.308.31.808 0 1.116l-3.524 3.517 1.29 4.803a.788.788 0 01-.56.967L30.16 30.87l-1.29 4.803a.788.788 0 01-.97.558l-4.815-1.286-3.524 3.516a.79.79 0 01-.56.231zm-3.848-5.418a.79.79 0 01.56.232L19 36.785l3.288-3.28c.2-.2.49-.28.765-.205l4.491 1.2 1.204-4.48a.792.792 0 01.56-.559l4.492-1.2-1.204-4.481a.787.787 0 01.205-.763l3.288-3.28-3.288-3.28a.787.787 0 01-.205-.763l1.204-4.48-4.492-1.202a.792.792 0 01-.56-.558l-1.204-4.481-4.491 1.2a.787.787 0 01-.765-.204L19 2.69l-3.288 3.28c-.2.2-.49.28-.765.205l-4.491-1.201-1.204 4.48a.792.792 0 01-.56.56l-4.49 1.2 1.202 4.481a.787.787 0 01-.205.763l-3.288 3.28 3.288 3.28c.2.2.279.49.205.763l-1.203 4.481 4.491 1.2a.793.793 0 01.56.558l1.204 4.481 4.491-1.2a.78.78 0 01.205-.027z" fill="url(#paint0_linear)"/><path d="M13.458 18.948A3.958 3.958 0 019.5 14.999a3.958 3.958 0 013.958-3.949A3.958 3.958 0 0117.417 15a3.958 3.958 0 01-3.959 3.949zm0-6.318a2.375 2.375 0 00-2.375 2.369 2.375 2.375 0 004.75 0 2.375 2.375 0 00-2.375-2.37z" fill="#F64F63"/><path d="M13.458 18.948A3.958 3.958 0 019.5 14.999a3.958 3.958 0 013.958-3.949A3.958 3.958 0 0117.417 15a3.958 3.958 0 01-3.959 3.949zm0-6.318a2.375 2.375 0 00-2.375 2.369 2.375 2.375 0 004.75 0 2.375 2.375 0 00-2.375-2.37z" fill="url(#paint1_linear)"/><path d="M23.75 29.215a3.958 3.958 0 01-3.958-3.95 3.958 3.958 0 017.916 0 3.958 3.958 0 01-3.958 3.95zm0-6.319a2.375 2.375 0 00-2.375 2.37 2.375 2.375 0 004.75 0 2.375 2.375 0 00-2.375-2.37z" fill="#F64F63"/><path d="M23.75 29.215a3.958 3.958 0 01-3.958-3.95 3.958 3.958 0 017.916 0 3.958 3.958 0 01-3.958 3.95zm0-6.319a2.375 2.375 0 00-2.375 2.37 2.375 2.375 0 004.75 0 2.375 2.375 0 00-2.375-2.37z" fill="url(#paint2_linear)"/><path d="M12.666 29.214a.788.788 0 01-.643-1.249l11.875-16.584a.793.793 0 011.104-.184.788.788 0 01.184 1.102L13.31 28.884a.79.79 0 01-.645.33z" fill="#F64F63"/><path d="M12.666 29.214a.788.788 0 01-.643-1.249l11.875-16.584a.793.793 0 011.104-.184.788.788 0 01.184 1.102L13.31 28.884a.79.79 0 01-.645.33z" fill="url(#paint3_linear)"/><defs><linearGradient id="paint0_linear" x1="19" y1=".783" x2="19" y2="38.691" gradientUnits="userSpaceOnUse"><stop stop-color="#2768CC"/><stop offset="1" stop-color="#fff" stop-opacity="0"/></linearGradient><linearGradient id="paint1_linear" x1="13.458" y1="11.05" x2="13.458" y2="18.948" gradientUnits="userSpaceOnUse"><stop stop-color="#2768CC"/><stop offset="1" stop-color="#fff" stop-opacity="0"/></linearGradient><linearGradient id="paint2_linear" x1="23.75" y1="21.317" x2="23.75" y2="29.215" gradientUnits="userSpaceOnUse"><stop stop-color="#2768CC"/><stop offset="1" stop-color="#fff" stop-opacity="0"/></linearGradient><linearGradient id="paint3_linear" x1="18.604" y1="11.05" x2="18.604" y2="29.214" gradientUnits="userSpaceOnUse"><stop stop-color="#2768CC"/><stop offset="1" stop-color="#fff" stop-opacity="0"/></linearGradient></defs></svg>