<svg width="44" height="44" fill="none" xmlns="http://www.w3.org/2000/svg"><path d="M40.172 9.143H28.085v-5.12A3.27 3.27 0 0024.815.76H3.828a3.27 3.27 0 00-3.27 3.263v15.694a1.062 1.062 0 001.064 1.062c.197 0 .395-.055.568-.164l3.66-2.313h13.434v5.12a3.27 3.27 0 003.27 3.263l15.561-.011 3.696 2.324a1.066 1.066 0 001.632-.899V12.405a3.27 3.27 0 00-3.271-3.262zm-20.888 3.262v4.456H5.849c-.26 0-.514.073-.734.212L2.001 19.03V4.023c0-1.005.82-1.823 1.827-1.823h20.987c1.007 0 1.826.818 1.826 1.823v5.12h-4.087a3.27 3.27 0 00-3.27 3.262zm7.358-1.822v4.456c0 1.004-.82 1.822-1.827 1.822h-4.088v-4.456c0-1.004.82-1.822 1.827-1.822h4.088zm15.357 16.83l-3.115-1.957a1.377 1.377 0 00-.733-.211H22.553a1.827 1.827 0 01-1.826-1.823v-5.12h4.087a3.27 3.27 0 003.27-3.263v-4.455h12.087c1.007 0 1.827.817 1.827 1.822v15.008z" fill="#F64F63"/><path d="M40.172 9.143H28.085v-5.12A3.27 3.27 0 0024.815.76H3.828a3.27 3.27 0 00-3.27 3.263v15.694a1.062 1.062 0 001.064 1.062c.197 0 .395-.055.568-.164l3.66-2.313h13.434v5.12a3.27 3.27 0 003.27 3.263l15.561-.011 3.696 2.324a1.066 1.066 0 001.632-.899V12.405a3.27 3.27 0 00-3.271-3.262zm-20.888 3.262v4.456H5.849c-.26 0-.514.073-.734.212L2.001 19.03V4.023c0-1.005.82-1.823 1.827-1.823h20.987c1.007 0 1.826.818 1.826 1.823v5.12h-4.087a3.27 3.27 0 00-3.27 3.262zm7.358-1.822v4.456c0 1.004-.82 1.822-1.827 1.822h-4.088v-4.456c0-1.004.82-1.822 1.827-1.822h4.088zm15.357 16.83l-3.115-1.957a1.377 1.377 0 00-.733-.211H22.553a1.827 1.827 0 01-1.826-1.823v-5.12h4.087a3.27 3.27 0 003.27-3.263v-4.455h12.087c1.007 0 1.827.817 1.827 1.822v15.008z" fill="url(#paint0_linear)"/><path d="M12.374 36.348a4.411 4.411 0 004.412-4.402 4.412 4.412 0 00-4.412-4.401 4.411 4.411 0 00-4.412 4.401 4.411 4.411 0 004.412 4.402zm0-7.362a2.968 2.968 0 012.968 2.96 2.968 2.968 0 01-5.936 0 2.968 2.968 0 012.968-2.96z" fill="#F64F63"/><path d="M12.374 36.348a4.411 4.411 0 004.412-4.402 4.412 4.412 0 00-4.412-4.401 4.411 4.411 0 00-4.412 4.401 4.411 4.411 0 004.412 4.402zm0-7.362a2.968 2.968 0 012.968 2.96 2.968 2.968 0 01-5.936 0 2.968 2.968 0 012.968-2.96z" fill="url(#paint1_linear)"/><path d="M7.107 39.442a1.04 1.04 0 01.98-.693h8.725c.444 0 .839.282.983.7l1.514 4.407h1.368a.713.713 0 000-.459l-1.517-4.414a2.482 2.482 0 00-2.348-1.674H8.087a2.485 2.485 0 00-2.342 1.656l-1.673 4.747a.741.741 0 00-.034.144h1.514l1.555-4.414z" fill="#F64F63"/><path d="M7.107 39.442a1.04 1.04 0 01.98-.693h8.725c.444 0 .839.282.983.7l1.514 4.407h1.368a.713.713 0 000-.459l-1.517-4.414a2.482 2.482 0 00-2.348-1.674H8.087a2.485 2.485 0 00-2.342 1.656l-1.673 4.747a.741.741 0 00-.034.144h1.514l1.555-4.414z" fill="url(#paint2_linear)"/><path d="M9.057 41.182a.723.723 0 00-.903.476l-.641 2.081a.733.733 0 00-.024.118h1.498l.547-1.774a.72.72 0 00-.477-.901z" fill="#F64F63"/><path d="M9.057 41.182a.723.723 0 00-.903.476l-.641 2.081a.733.733 0 00-.024.118h1.498l.547-1.774a.72.72 0 00-.477-.901z" fill="url(#paint3_linear)"/><path d="M16.594 41.658a.723.723 0 00-1.38.424l.547 1.774h1.498a.725.725 0 00-.024-.117l-.641-2.08z" fill="#F64F63"/><path d="M16.594 41.658a.723.723 0 00-1.38.424l.547 1.774h1.498a.725.725 0 00-.024-.117l-.641-2.08z" fill="url(#paint4_linear)"/><path d="M31.626 36.348a4.411 4.411 0 004.412-4.402 4.412 4.412 0 00-4.412-4.401 4.411 4.411 0 00-4.412 4.401 4.411 4.411 0 004.412 4.402zm0-7.362a2.968 2.968 0 012.968 2.96 2.968 2.968 0 01-5.936 0 2.968 2.968 0 012.968-2.96z" fill="#F64F63"/><path d="M31.626 36.348a4.411 4.411 0 004.412-4.402 4.412 4.412 0 00-4.412-4.401 4.411 4.411 0 00-4.412 4.401 4.411 4.411 0 004.412 4.402zm0-7.362a2.968 2.968 0 012.968 2.96 2.968 2.968 0 01-5.936 0 2.968 2.968 0 012.968-2.96z" fill="url(#paint5_linear)"/><path d="M26.359 39.442a1.04 1.04 0 01.98-.693h8.725c.444 0 .839.282.983.7l1.514 4.407h1.368a.713.713 0 000-.459l-1.517-4.414a2.482 2.482 0 00-2.348-1.674h-8.726a2.485 2.485 0 00-2.341 1.656l-1.673 4.747a.74.74 0 00-.034.144h1.514l1.555-4.414z" fill="#F64F63"/><path d="M26.359 39.442a1.04 1.04 0 01.98-.693h8.725c.444 0 .839.282.983.7l1.514 4.407h1.368a.713.713 0 000-.459l-1.517-4.414a2.482 2.482 0 00-2.348-1.674h-8.726a2.485 2.485 0 00-2.341 1.656l-1.673 4.747a.74.74 0 00-.034.144h1.514l1.555-4.414z" fill="url(#paint6_linear)"/><path d="M28.309 41.182a.723.723 0 00-.903.476l-.641 2.081a.725.725 0 00-.024.118h1.498l.547-1.774a.72.72 0 00-.477-.901z" fill="#F64F63"/><path d="M28.309 41.182a.723.723 0 00-.903.476l-.641 2.081a.725.725 0 00-.024.118h1.498l.547-1.774a.72.72 0 00-.477-.901z" fill="url(#paint7_linear)"/><path d="M35.846 41.658a.723.723 0 00-1.38.424l.547 1.774h1.498a.725.725 0 00-.024-.117l-.642-2.08z" fill="#F64F63"/><path d="M35.846 41.658a.723.723 0 00-1.38.424l.547 1.774h1.498a.725.725 0 00-.024-.117l-.642-2.08z" fill="url(#paint8_linear)"/><defs><linearGradient id="paint0_linear" x1="22" y1=".76" x2="22" y2="29.162" gradientUnits="userSpaceOnUse"><stop stop-color="#2768CC"/><stop offset="1" stop-color="#fff" stop-opacity="0"/></linearGradient><linearGradient id="paint1_linear" x1="12.374" y1="27.545" x2="12.374" y2="36.348" gradientUnits="userSpaceOnUse"><stop stop-color="#2768CC"/><stop offset="1" stop-color="#fff" stop-opacity="0"/></linearGradient><linearGradient id="paint2_linear" x1="12.377" y1="37.309" x2="12.377" y2="43.856" gradientUnits="userSpaceOnUse"><stop stop-color="#2768CC"/><stop offset="1" stop-color="#fff" stop-opacity="0"/></linearGradient><linearGradient id="paint3_linear" x1="8.528" y1="41.15" x2="8.528" y2="43.857" gradientUnits="userSpaceOnUse"><stop stop-color="#2768CC"/><stop offset="1" stop-color="#fff" stop-opacity="0"/></linearGradient><linearGradient id="paint4_linear" x1="16.22" y1="41.15" x2="16.22" y2="43.856" gradientUnits="userSpaceOnUse"><stop stop-color="#2768CC"/><stop offset="1" stop-color="#fff" stop-opacity="0"/></linearGradient><linearGradient id="paint5_linear" x1="31.626" y1="27.545" x2="31.626" y2="36.348" gradientUnits="userSpaceOnUse"><stop stop-color="#2768CC"/><stop offset="1" stop-color="#fff" stop-opacity="0"/></linearGradient><linearGradient id="paint6_linear" x1="31.628" y1="37.309" x2="31.628" y2="43.856" gradientUnits="userSpaceOnUse"><stop stop-color="#2768CC"/><stop offset="1" stop-color="#fff" stop-opacity="0"/></linearGradient><linearGradient id="paint7_linear" x1="27.78" y1="41.15" x2="27.78" y2="43.857" gradientUnits="userSpaceOnUse"><stop stop-color="#2768CC"/><stop offset="1" stop-color="#fff" stop-opacity="0"/></linearGradient><linearGradient id="paint8_linear" x1="35.472" y1="41.15" x2="35.472" y2="43.856" gradientUnits="userSpaceOnUse"><stop stop-color="#2768CC"/><stop offset="1" stop-color="#fff" stop-opacity="0"/></linearGradient></defs></svg>