<svg width="48" height="49" fill="none" xmlns="http://www.w3.org/2000/svg"><path d="M41.063 7.493l-.207-.21a24.14 24.14 0 00-5.122-3.853A23.972 23.972 0 009.46 5.27a24.153 24.153 0 00-5.527 5.919 23.842 23.842 0 003 29.928c.03.038.165.169.206.206a24.058 24.058 0 007.144 4.863 24.014 24.014 0 0031.841-12.63 23.815 23.815 0 00-.968-20.52 24.161 24.161 0 00-4.124-5.543h.03zM12.31 5.136c3.184 1.773 5.67 3.367 6.353 4.036 1.173 1.182 2.43 3.105 2.426 4.085-.004.98-.045 2.62-.071 3.562l-2.269-.367c-.75-1.182-1.875-2.858-3.457-5.32l-.874-1.346a.75.75 0 00-1.26.815l.877 1.343c5.029 7.737 5.029 7.737 5.67 8.754.893 1.415.394 2.395-.183 2.963a1.194 1.194 0 01-1.103.31 3.194 3.194 0 01-1.609-.942 4.375 4.375 0 01-.446-.59 31.508 31.508 0 00-1.631-2.174 72.563 72.563 0 00-.927-1.123.719.719 0 00-.255-.307A79.057 79.057 0 0011 15.951c-.195-.213-.353-.374-.465-.513-.529-.594-1.317-.748-2.153-.927-1.125-.232-2.426-.498-3.619-1.837a22.664 22.664 0 017.55-7.538zM6.86 15.704c.438.127.851.213 1.222.288l.109.023c-.18 1.122-.469 3.61.15 4.392.154.19.375.538.611.913.285.445.593.931.908 1.35a.984.984 0 01-.544.561.894.894 0 01-1.181-.322c-.503-.748-2.157-4.115-2.194-4.736 0-.359.435-1.496.919-2.469zm4.125 5.96a23.023 23.023 0 01-.75-1.145c-.222-.367-.48-.748-.675-1.01-.154-.397-.06-1.912.052-2.855l.3.326c.525.569 1.302 1.41 2.299 2.589l-1.226 2.095zM4 14.044c.436.428.93.793 1.466 1.084-.375.82-1.023 2.27-1.027 3.026 0 1.157 2.115 5.07 2.445 5.567a2.353 2.353 0 001.984 1.093c.096.005.192.005.288 0l-1.5 2.58a.486.486 0 00-.052.12.488.488 0 00-.023.102v.04a.72.72 0 000 .09v.057a.58.58 0 000 .078.456.456 0 000 .064.32.32 0 00.023.064.405.405 0 00.026.07l.034.057.041.067.06.064.041.044c.039.035.08.065.124.09l5.093 2.94a.751.751 0 001.105-.45.747.747 0 00-.355-.844l-4.44-2.566 3.885-6.7.345.426c.881 1.089 1.29 1.688 1.563 2.08.181.285.39.55.623.793a4.585 4.585 0 002.415 1.35c.176.03.354.046.533.046a2.632 2.632 0 001.875-.748 3.512 3.512 0 00.99-3.468l.9.505a.754.754 0 00.75-1.306l-2.925-1.642-.44-.677 5.528.931a.692.692 0 00.124 0 .754.754 0 00.812-.686.747.747 0 00-.406-.73.754.754 0 00-.282-.08l-3.124-.51c.023-.904.071-2.768.075-3.8 0-1.788-1.875-4.149-2.861-5.148-.986-.999-3.945-2.746-5.861-3.834a22.487 22.487 0 0125.5 3.644L7.578 39.647A22.336 22.336 0 014 14.058v-.015zm20 32.709A22.45 22.45 0 018.625 40.69L40.421 8.97a22.426 22.426 0 015.742 11.505 22.398 22.398 0 01-1.526 12.761 22.46 22.46 0 01-8.294 9.835A22.539 22.539 0 0124 46.755z" fill="#F64F63"/><path d="M41.063 7.493l-.207-.21a24.14 24.14 0 00-5.122-3.853A23.972 23.972 0 009.46 5.27a24.153 24.153 0 00-5.527 5.919 23.842 23.842 0 003 29.928c.03.038.165.169.206.206a24.058 24.058 0 007.144 4.863 24.014 24.014 0 0031.841-12.63 23.815 23.815 0 00-.968-20.52 24.161 24.161 0 00-4.124-5.543h.03zM12.31 5.136c3.184 1.773 5.67 3.367 6.353 4.036 1.173 1.182 2.43 3.105 2.426 4.085-.004.98-.045 2.62-.071 3.562l-2.269-.367c-.75-1.182-1.875-2.858-3.457-5.32l-.874-1.346a.75.75 0 00-1.26.815l.877 1.343c5.029 7.737 5.029 7.737 5.67 8.754.893 1.415.394 2.395-.183 2.963a1.194 1.194 0 01-1.103.31 3.194 3.194 0 01-1.609-.942 4.375 4.375 0 01-.446-.59 31.508 31.508 0 00-1.631-2.174 72.563 72.563 0 00-.927-1.123.719.719 0 00-.255-.307A79.057 79.057 0 0011 15.951c-.195-.213-.353-.374-.465-.513-.529-.594-1.317-.748-2.153-.927-1.125-.232-2.426-.498-3.619-1.837a22.664 22.664 0 017.55-7.538zM6.86 15.704c.438.127.851.213 1.222.288l.109.023c-.18 1.122-.469 3.61.15 4.392.154.19.375.538.611.913.285.445.593.931.908 1.35a.984.984 0 01-.544.561.894.894 0 01-1.181-.322c-.503-.748-2.157-4.115-2.194-4.736 0-.359.435-1.496.919-2.469zm4.125 5.96a23.023 23.023 0 01-.75-1.145c-.222-.367-.48-.748-.675-1.01-.154-.397-.06-1.912.052-2.855l.3.326c.525.569 1.302 1.41 2.299 2.589l-1.226 2.095zM4 14.044c.436.428.93.793 1.466 1.084-.375.82-1.023 2.27-1.027 3.026 0 1.157 2.115 5.07 2.445 5.567a2.353 2.353 0 001.984 1.093c.096.005.192.005.288 0l-1.5 2.58a.486.486 0 00-.052.12.488.488 0 00-.023.102v.04a.72.72 0 000 .09v.057a.58.58 0 000 .078.456.456 0 000 .064.32.32 0 00.023.064.405.405 0 00.026.07l.034.057.041.067.06.064.041.044c.039.035.08.065.124.09l5.093 2.94a.751.751 0 001.105-.45.747.747 0 00-.355-.844l-4.44-2.566 3.885-6.7.345.426c.881 1.089 1.29 1.688 1.563 2.08.181.285.39.55.623.793a4.585 4.585 0 002.415 1.35c.176.03.354.046.533.046a2.632 2.632 0 001.875-.748 3.512 3.512 0 00.99-3.468l.9.505a.754.754 0 00.75-1.306l-2.925-1.642-.44-.677 5.528.931a.692.692 0 00.124 0 .754.754 0 00.812-.686.747.747 0 00-.406-.73.754.754 0 00-.282-.08l-3.124-.51c.023-.904.071-2.768.075-3.8 0-1.788-1.875-4.149-2.861-5.148-.986-.999-3.945-2.746-5.861-3.834a22.487 22.487 0 0125.5 3.644L7.578 39.647A22.336 22.336 0 014 14.058v-.015zm20 32.709A22.45 22.45 0 018.625 40.69L40.421 8.97a22.426 22.426 0 015.742 11.505 22.398 22.398 0 01-1.526 12.761 22.46 22.46 0 01-8.294 9.835A22.539 22.539 0 0124 46.755z" fill="url(#paint0_linear)"/><path d="M42.619 20.892a.747.747 0 00-.488-.314l-9.093-1.608a.752.752 0 00-.87.606.747.747 0 00.607.867l8.34 1.474-2.333 11.635-3.082-.512 1.999-3.588a.747.747 0 00-.285-1.029l-8.509-4.766a.755.755 0 00-1.121.555.749.749 0 00.371.747l7.875 4.415-5.715 10.243-11.284-6.529a.751.751 0 00-1.076.841.75.75 0 00.326.454l11.94 6.91a.752.752 0 00.574.074.75.75 0 00.454-.374l3.671-6.58 4.331.744a.692.692 0 00.124 0 .751.751 0 00.75-.602L42.75 21.46a.746.746 0 00-.131-.569z" fill="#F64F63"/><path d="M42.619 20.892a.747.747 0 00-.488-.314l-9.093-1.608a.752.752 0 00-.87.606.747.747 0 00.607.867l8.34 1.474-2.333 11.635-3.082-.512 1.999-3.588a.747.747 0 00-.285-1.029l-8.509-4.766a.755.755 0 00-1.121.555.749.749 0 00.371.747l7.875 4.415-5.715 10.243-11.284-6.529a.751.751 0 00-1.076.841.75.75 0 00.326.454l11.94 6.91a.752.752 0 00.574.074.75.75 0 00.454-.374l3.671-6.58 4.331.744a.692.692 0 00.124 0 .751.751 0 00.75-.602L42.75 21.46a.746.746 0 00-.131-.569z" fill="url(#paint1_linear)"/><defs><linearGradient id="paint0_linear" x1="23.997" y1=".36" x2="23.997" y2="48.238" gradientUnits="userSpaceOnUse"><stop stop-color="#2768CC"/><stop offset="1" stop-color="#fff" stop-opacity="0"/></linearGradient><linearGradient id="paint1_linear" x1="30.348" y1="18.958" x2="30.348" y2="41.394" gradientUnits="userSpaceOnUse"><stop stop-color="#2768CC"/><stop offset="1" stop-color="#fff" stop-opacity="0"/></linearGradient></defs></svg>