<svg width="112" height="81" fill="none" xmlns="http://www.w3.org/2000/svg"><path d="M68.309 70.25l2.8-4.55c1.866-2.8 4.083-6.417 6.65-10.85 2.566-4.2 4.783-8.4 6.65-12.6-1.4-.233-3.617-1.633-6.65-4.2-3.267-2.333-6.184-5.133-8.75-8.4-2.8-3.033-4.2-5.6-4.2-7.7 0-6.533 2.216-11.783 6.65-15.75 4.2-3.967 9.566-5.95 16.1-5.95 6.3 0 11.9 2.333 16.8 7 4.666 4.667 7 10.267 7 16.8 0 6.767-1.517 13.417-4.55 19.95-3.034 6.767-6.534 12.95-10.5 18.55-4.2 5.6-7.817 10.033-10.85 13.3l-4.9 4.9-12.25-10.5zm-64.75 0l2.8-4.55c1.866-2.8 4.083-6.417 6.65-10.85 2.566-4.2 4.783-8.4 6.65-12.6-1.4-.233-3.617-1.633-6.65-4.2-3.267-2.333-6.184-5.133-8.75-8.4-2.8-3.033-4.2-5.6-4.2-7.7 0-6.533 2.216-11.783 6.65-15.75 4.2-3.967 9.566-5.95 16.1-5.95 6.3 0 11.9 2.333 16.8 7 4.666 4.667 7 10.267 7 16.8 0 6.767-1.517 13.417-4.55 19.95-3.034 6.767-6.534 12.95-10.5 18.55-4.2 5.6-7.817 10.033-10.85 13.3l-4.9 4.9-12.25-10.5z" fill="#EEE"/></svg>