<svg width="64" height="46" fill="none" xmlns="http://www.w3.org/2000/svg"><path d="M24.96 6l-1.6 2.6c-1.067 1.6-2.334 3.667-3.8 6.2a62.502 62.502 0 00-3.8 7.2c.8.133 2.066.933 3.8 2.4a24.316 24.316 0 015 4.8c1.6 1.733 2.4 3.2 2.4 4.4 0 3.733-1.267 6.733-3.8 9-2.4 2.267-5.467 3.4-9.2 3.4-3.6 0-6.8-1.333-9.6-4-2.667-2.667-4-5.867-4-9.6 0-3.867.866-7.667 2.6-11.4 1.733-3.867 3.733-7.4 6-10.6 2.4-3.2 4.466-5.733 6.2-7.6l2.8-2.8 7 6zm37 0l-1.6 2.6c-1.067 1.6-2.334 3.667-3.8 6.2a62.517 62.517 0 00-3.8 7.2c.8.133 2.066.933 3.8 2.4a24.316 24.316 0 015 4.8c1.6 1.733 2.4 3.2 2.4 4.4 0 3.733-1.267 6.733-3.8 9-2.4 2.267-5.467 3.4-9.2 3.4-3.6 0-6.8-1.333-9.6-4-2.667-2.667-4-5.867-4-9.6 0-3.867.866-7.667 2.6-11.4 1.733-3.867 3.733-7.4 6-10.6 2.4-3.2 4.466-5.733 6.2-7.6l2.8-2.8 7 6z" fill="#EEE"/></svg>