<svg width="36" height="36" fill="none" xmlns="http://www.w3.org/2000/svg"><path d="M18.72 3.96v4.32l-3.6-2.16 3.6-2.16z" fill="#F64F63"/><path d="M18.72 3.96v4.32l-3.6-2.16 3.6-2.16z" fill="url(#paint0_linear)"/><path d="M20.88 17.28H10.8v-1.44h10.8l-.72 1.44z" fill="#F64F63"/><path d="M20.88 17.28H10.8v-1.44h10.8l-.72 1.44z" fill="url(#paint1_linear)"/><path d="M19.44 20.16H10.8v-1.44h9.36l-.72 1.44z" fill="#F64F63"/><path d="M19.44 20.16H10.8v-1.44h9.36l-.72 1.44z" fill="url(#paint2_linear)"/><path d="M20.16 25.92c-4.356 0-7.92-3.564-7.92-7.92s3.564-7.92 7.92-7.92c1.692 0 3.312.54 4.68 1.548l-.864 1.152a6.384 6.384 0 00-3.816-1.26c-3.564 0-6.48 2.916-6.48 6.48 0 3.564 2.916 6.48 6.48 6.48 1.368 0 2.7-.432 3.816-1.26l.864 1.152a7.849 7.849 0 01-4.68 1.548z" fill="#F64F63"/><path d="M20.16 25.92c-4.356 0-7.92-3.564-7.92-7.92s3.564-7.92 7.92-7.92c1.692 0 3.312.54 4.68 1.548l-.864 1.152a6.384 6.384 0 00-3.816-1.26c-3.564 0-6.48 2.916-6.48 6.48 0 3.564 2.916 6.48 6.48 6.48 1.368 0 2.7-.432 3.816-1.26l.864 1.152a7.849 7.849 0 01-4.68 1.548z" fill="url(#paint3_linear)"/><path d="M11.88 15.84H7.92v1.44h3.96v-1.44z" fill="#F64F63"/><path d="M11.88 15.84H7.92v1.44h3.96v-1.44z" fill="url(#paint4_linear)"/><path d="M6.48 15.84H5.04v1.44h1.44v-1.44z" fill="#F64F63"/><path d="M6.48 15.84H5.04v1.44h1.44v-1.44z" fill="url(#paint5_linear)"/><path d="M9.36 18.72H7.92v1.44h1.44v-1.44z" fill="#F64F63"/><path d="M9.36 18.72H7.92v1.44h1.44v-1.44z" fill="url(#paint6_linear)"/><path d="M20.16 30.6H3.6v-1.44h16.56c6.156 0 11.16-5.004 11.16-11.16 0-6.156-5.004-11.16-11.16-11.16H18V5.4h2.16c6.948 0 12.6 5.652 12.6 12.6 0 6.948-5.652 12.6-12.6 12.6z" fill="#F64F63"/><path d="M20.16 30.6H3.6v-1.44h16.56c6.156 0 11.16-5.004 11.16-11.16 0-6.156-5.004-11.16-11.16-11.16H18V5.4h2.16c6.948 0 12.6 5.652 12.6 12.6 0 6.948-5.652 12.6-12.6 12.6z" fill="url(#paint7_linear)"/><defs><linearGradient id="paint0_linear" x1="16.92" y1="3.96" x2="16.92" y2="8.28" gradientUnits="userSpaceOnUse"><stop stop-color="#2768CC"/><stop offset="1" stop-color="#fff" stop-opacity="0"/></linearGradient><linearGradient id="paint1_linear" x1="16.2" y1="15.84" x2="16.2" y2="17.28" gradientUnits="userSpaceOnUse"><stop stop-color="#2768CC"/><stop offset="1" stop-color="#fff" stop-opacity="0"/></linearGradient><linearGradient id="paint2_linear" x1="15.48" y1="18.72" x2="15.48" y2="20.16" gradientUnits="userSpaceOnUse"><stop stop-color="#2768CC"/><stop offset="1" stop-color="#fff" stop-opacity="0"/></linearGradient><linearGradient id="paint3_linear" x1="18.54" y1="10.08" x2="18.54" y2="25.92" gradientUnits="userSpaceOnUse"><stop stop-color="#2768CC"/><stop offset="1" stop-color="#fff" stop-opacity="0"/></linearGradient><linearGradient id="paint4_linear" x1="9.9" y1="15.84" x2="9.9" y2="17.28" gradientUnits="userSpaceOnUse"><stop stop-color="#2768CC"/><stop offset="1" stop-color="#fff" stop-opacity="0"/></linearGradient><linearGradient id="paint5_linear" x1="5.76" y1="15.84" x2="5.76" y2="17.28" gradientUnits="userSpaceOnUse"><stop stop-color="#2768CC"/><stop offset="1" stop-color="#fff" stop-opacity="0"/></linearGradient><linearGradient id="paint6_linear" x1="8.64" y1="18.72" x2="8.64" y2="20.16" gradientUnits="userSpaceOnUse"><stop stop-color="#2768CC"/><stop offset="1" stop-color="#fff" stop-opacity="0"/></linearGradient><linearGradient id="paint7_linear" x1="18.18" y1="5.4" x2="18.18" y2="30.6" gradientUnits="userSpaceOnUse"><stop stop-color="#2768CC"/><stop offset="1" stop-color="#fff" stop-opacity="0"/></linearGradient></defs></svg>