<svg width="36" height="36" fill="none" xmlns="http://www.w3.org/2000/svg"><path d="M34.934 18.11c0-9.427-7.67-17.096-17.095-17.096C8.412 1.014.743 8.684.743 18.11c0 6.425 3.565 12.033 8.82 14.953l.018.012c.004.002.009.003.013.006a16.985 16.985 0 008.245 2.124c3.33 0 6.44-.958 9.07-2.612l.026-.013.029-.021c4.786-3.033 7.97-8.376 7.97-14.45zm-8.148 13.029l-.102-.163a.643.643 0 00-1.087.684l.103.164a15.696 15.696 0 01-7.22 2.082v-.193a.642.642 0 00-1.284 0v.193a15.689 15.689 0 01-6.426-1.657l.094-.17a.643.643 0 00-1.123-.62l-.094.17a15.939 15.939 0 01-4.819-4.546l.167-.106a.642.642 0 00-.684-1.087l-.171.108a15.695 15.695 0 01-2.098-7.224h.216a.642.642 0 000-1.284H2.04a15.7 15.7 0 011.653-6.441l.197.11a.643.643 0 10.62-1.124l-.197-.11a15.938 15.938 0 014.557-4.83l.123.195a.64.64 0 00.885.201c.3-.189.39-.585.201-.885l-.125-.198a15.702 15.702 0 017.241-2.095v.24a.642.642 0 001.284 0v-.24a15.68 15.68 0 016.446 1.666l-.113.206a.64.64 0 101.123.62l.113-.203a15.927 15.927 0 014.822 4.566l-.189.12a.643.643 0 00.684 1.086l.192-.12a15.713 15.713 0 012.079 7.237h-.218a.642.642 0 100 1.284h.216a15.696 15.696 0 01-1.67 6.431l-.18-.099a.643.643 0 00-.62 1.124l.176.097a15.925 15.925 0 01-4.555 4.81z" fill="#F64F63"/><path d="M34.934 18.11c0-9.427-7.67-17.096-17.095-17.096C8.412 1.014.743 8.684.743 18.11c0 6.425 3.565 12.033 8.82 14.953l.018.012c.004.002.009.003.013.006a16.985 16.985 0 008.245 2.124c3.33 0 6.44-.958 9.07-2.612l.026-.013.029-.021c4.786-3.033 7.97-8.376 7.97-14.45zm-8.148 13.029l-.102-.163a.643.643 0 00-1.087.684l.103.164a15.696 15.696 0 01-7.22 2.082v-.193a.642.642 0 00-1.284 0v.193a15.689 15.689 0 01-6.426-1.657l.094-.17a.643.643 0 00-1.123-.62l-.094.17a15.939 15.939 0 01-4.819-4.546l.167-.106a.642.642 0 00-.684-1.087l-.171.108a15.695 15.695 0 01-2.098-7.224h.216a.642.642 0 000-1.284H2.04a15.7 15.7 0 011.653-6.441l.197.11a.643.643 0 10.62-1.124l-.197-.11a15.938 15.938 0 014.557-4.83l.123.195a.64.64 0 00.885.201c.3-.189.39-.585.201-.885l-.125-.198a15.702 15.702 0 017.241-2.095v.24a.642.642 0 001.284 0v-.24a15.68 15.68 0 016.446 1.666l-.113.206a.64.64 0 101.123.62l.113-.203a15.927 15.927 0 014.822 4.566l-.189.12a.643.643 0 00.684 1.086l.192-.12a15.713 15.713 0 012.079 7.237h-.218a.642.642 0 100 1.284h.216a15.696 15.696 0 01-1.67 6.431l-.18-.099a.643.643 0 00-.62 1.124l.176.097a15.925 15.925 0 01-4.555 4.81z" fill="url(#paint0_linear)"/><path d="M23.56 17.468h-5.08V6.05a.642.642 0 10-1.283 0v12.06c0 .098.023.191.062.274l-7.584 7.544a.214.214 0 00.302.303l7.584-7.543c.084.04.178.064.278.064h5.72a.642.642 0 100-1.284z" fill="#F64F63"/><path d="M23.56 17.468h-5.08V6.05a.642.642 0 10-1.283 0v12.06c0 .098.023.191.062.274l-7.584 7.544a.214.214 0 00.302.303l7.584-7.543c.084.04.178.064.278.064h5.72a.642.642 0 100-1.284z" fill="url(#paint1_linear)"/><defs><linearGradient id="paint0_linear" x1="17.839" y1="1.014" x2="17.839" y2="35.205" gradientUnits="userSpaceOnUse"><stop stop-color="#2768CC"/><stop offset="1" stop-color="#fff" stop-opacity="0"/></linearGradient><linearGradient id="paint1_linear" x1="16.907" y1="5.409" x2="16.907" y2="26.294" gradientUnits="userSpaceOnUse"><stop stop-color="#2768CC"/><stop offset="1" stop-color="#fff" stop-opacity="0"/></linearGradient></defs></svg>