<svg width="12" height="12" fill="none" xmlns="http://www.w3.org/2000/svg"><path d="M2.433 5.007H.482a.322.322 0 00-.326.326v5.204c0 .182.143.325.326.325h1.951a.322.322 0 00.325-.325V5.333a.322.322 0 00-.325-.326zm9.411.617c0-.53-.364-1.067-1.06-1.067h-3.15c.45-.805.582-1.938.27-2.767-.23-.61-.67-.965-1.239-1.001h-.009a.682.682 0 00-.72.623c-.082.822-.442 2.276-.958 2.792-.435.435-.807.617-1.423.918l-.29.143a.804.804 0 01.003.068v5.15l.22.076c1.018.351 1.897.654 3.242.654h2.547c.696 0 1.06-.536 1.06-1.066a1.15 1.15 0 00-.096-.46c.232-.041.434-.153.585-.323.17-.194.264-.451.264-.725a1.15 1.15 0 00-.095-.459c.558-.096.849-.575.849-1.049 0-.274-.098-.55-.289-.753.19-.203.289-.48.289-.754z" fill="#333"/></svg>