<svg width="107" height="23" fill="none" xmlns="http://www.w3.org/2000/svg"><path d="M.7 5.53c1.16-.46 2.32-1.05 3.48-1.77C5.36 3.04 6.4 2.19 7.3 1.21h2.55V22H6.22V6.07C5.68 6.49 5 6.9 4.18 7.3c-.82.4-1.61.73-2.37.99L.7 5.53zm30.28 1.08c0 .72-.15 1.43-.45 2.13-.3.68-.69 1.35-1.17 2.01-.46.64-.99 1.27-1.59 1.89-.6.6-1.2 1.19-1.8 1.77a32.447 32.447 0 00-2.22 2.34c-.36.42-.67.83-.93 1.23-.26.38-.4.7-.42.96h9.24V22H18.41c-.02-.16-.03-.35-.03-.57v-.54c0-.96.15-1.84.45-2.64.32-.82.73-1.58 1.23-2.28.5-.7 1.06-1.36 1.68-1.98.62-.62 1.24-1.23 1.86-1.83.48-.46.94-.91 1.38-1.35.44-.44.82-.87 1.14-1.29.34-.44.61-.88.81-1.32.2-.46.3-.93.3-1.41 0-1.04-.3-1.78-.9-2.22-.6-.44-1.33-.66-2.19-.66-.56 0-1.08.08-1.56.24-.48.16-.91.35-1.29.57-.36.22-.68.45-.96.69-.28.22-.49.4-.63.54L17.9 3.4a9.84 9.84 0 012.94-1.92C21.98.98 23.2.73 24.5.73c2.22 0 3.85.53 4.89 1.59 1.06 1.04 1.59 2.47 1.59 4.29zm19.872 4.98c0 3.5-.64 6.19-1.92 8.07-1.28 1.86-3.05 2.79-5.31 2.79s-4.03-.93-5.31-2.79c-1.28-1.88-1.92-4.57-1.92-8.07 0-1.74.16-3.28.48-4.62.34-1.36.82-2.5 1.44-3.42.64-.92 1.4-1.62 2.28-2.1.9-.48 1.91-.72 3.03-.72 2.26 0 4.03.94 5.31 2.82 1.28 1.86 1.92 4.54 1.92 8.04zm-3.75 0c0-1.08-.06-2.09-.18-3.03s-.32-1.75-.6-2.43c-.26-.7-.61-1.25-1.05-1.65-.44-.4-.99-.6-1.65-.6-.66 0-1.22.2-1.68.6-.44.4-.8.95-1.08 1.65-.26.68-.45 1.49-.57 2.43-.1.94-.15 1.95-.15 3.03 0 1.08.05 2.09.15 3.03.12.94.31 1.76.57 2.46.28.68.64 1.22 1.08 1.62.46.4 1.02.6 1.68.6.66 0 1.21-.2 1.65-.6.44-.4.79-.94 1.05-1.62.28-.7.48-1.52.6-2.46s.18-1.95.18-3.03zm22.3 0c0 3.5-.64 6.19-1.92 8.07-1.28 1.86-3.05 2.79-5.31 2.79s-4.03-.93-5.31-2.79c-1.28-1.88-1.92-4.57-1.92-8.07 0-1.74.16-3.28.48-4.62.34-1.36.82-2.5 1.44-3.42.64-.92 1.4-1.62 2.28-2.1.9-.48 1.91-.72 3.03-.72 2.26 0 4.03.94 5.31 2.82 1.28 1.86 1.92 4.54 1.92 8.04zm-3.75 0c0-1.08-.06-2.09-.18-3.03s-.32-1.75-.6-2.43c-.26-.7-.61-1.25-1.05-1.65-.44-.4-.99-.6-1.65-.6-.66 0-1.22.2-1.68.6-.44.4-.8.95-1.08 1.65-.26.68-.45 1.49-.57 2.43-.1.94-.15 1.95-.15 3.03 0 1.08.05 2.09.15 3.03.12.94.31 1.76.57 2.46.28.68.64 1.22 1.08 1.62.46.4 1.02.6 1.68.6.66 0 1.21-.2 1.65-.6.44-.4.79-.94 1.05-1.62.28-.7.48-1.52.6-2.46s.18-1.95.18-3.03zm22.301 0c0 3.5-.64 6.19-1.92 8.07-1.28 1.86-3.05 2.79-5.31 2.79s-4.03-.93-5.31-2.79c-1.28-1.88-1.92-4.57-1.92-8.07 0-1.74.16-3.28.48-4.62.34-1.36.82-2.5 1.44-3.42.64-.92 1.4-1.62 2.28-2.1.9-.48 1.91-.72 3.03-.72 2.26 0 4.03.94 5.31 2.82 1.28 1.86 1.92 4.54 1.92 8.04zm-3.75 0c0-1.08-.06-2.09-.18-3.03s-.32-1.75-.6-2.43c-.26-.7-.61-1.25-1.05-1.65-.44-.4-.99-.6-1.65-.6-.66 0-1.22.2-1.68.6-.44.4-.8.95-1.08 1.65-.26.68-.45 1.49-.57 2.43-.1.94-.15 1.95-.15 3.03 0 1.08.05 2.09.15 3.03.12.94.31 1.76.57 2.46.28.68.64 1.22 1.08 1.62.46.4 1.02.6 1.68.6.66 0 1.21-.2 1.65-.6.44-.4.79-.94 1.05-1.62.28-.7.48-1.52.6-2.46s.18-1.95.18-3.03zm8.11.3h5.34V6.01h3.241v5.88h5.34v3.06h-5.34v5.88h-3.24v-5.88h-5.34v-3.06z" fill="#F64F63"/><path d="M.7 5.53c1.16-.46 2.32-1.05 3.48-1.77C5.36 3.04 6.4 2.19 7.3 1.21h2.55V22H6.22V6.07C5.68 6.49 5 6.9 4.18 7.3c-.82.4-1.61.73-2.37.99L.7 5.53zm30.28 1.08c0 .72-.15 1.43-.45 2.13-.3.68-.69 1.35-1.17 2.01-.46.64-.99 1.27-1.59 1.89-.6.6-1.2 1.19-1.8 1.77a32.447 32.447 0 00-2.22 2.34c-.36.42-.67.83-.93 1.23-.26.38-.4.7-.42.96h9.24V22H18.41c-.02-.16-.03-.35-.03-.57v-.54c0-.96.15-1.84.45-2.64.32-.82.73-1.58 1.23-2.28.5-.7 1.06-1.36 1.68-1.98.62-.62 1.24-1.23 1.86-1.83.48-.46.94-.91 1.38-1.35.44-.44.82-.87 1.14-1.29.34-.44.61-.88.81-1.32.2-.46.3-.93.3-1.41 0-1.04-.3-1.78-.9-2.22-.6-.44-1.33-.66-2.19-.66-.56 0-1.08.08-1.56.24-.48.16-.91.35-1.29.57-.36.22-.68.45-.96.69-.28.22-.49.4-.63.54L17.9 3.4a9.84 9.84 0 012.94-1.92C21.98.98 23.2.73 24.5.73c2.22 0 3.85.53 4.89 1.59 1.06 1.04 1.59 2.47 1.59 4.29zm19.872 4.98c0 3.5-.64 6.19-1.92 8.07-1.28 1.86-3.05 2.79-5.31 2.79s-4.03-.93-5.31-2.79c-1.28-1.88-1.92-4.57-1.92-8.07 0-1.74.16-3.28.48-4.62.34-1.36.82-2.5 1.44-3.42.64-.92 1.4-1.62 2.28-2.1.9-.48 1.91-.72 3.03-.72 2.26 0 4.03.94 5.31 2.82 1.28 1.86 1.92 4.54 1.92 8.04zm-3.75 0c0-1.08-.06-2.09-.18-3.03s-.32-1.75-.6-2.43c-.26-.7-.61-1.25-1.05-1.65-.44-.4-.99-.6-1.65-.6-.66 0-1.22.2-1.68.6-.44.4-.8.95-1.08 1.65-.26.68-.45 1.49-.57 2.43-.1.94-.15 1.95-.15 3.03 0 1.08.05 2.09.15 3.03.12.94.31 1.76.57 2.46.28.68.64 1.22 1.08 1.62.46.4 1.02.6 1.68.6.66 0 1.21-.2 1.65-.6.44-.4.79-.94 1.05-1.62.28-.7.48-1.52.6-2.46s.18-1.95.18-3.03zm22.3 0c0 3.5-.64 6.19-1.92 8.07-1.28 1.86-3.05 2.79-5.31 2.79s-4.03-.93-5.31-2.79c-1.28-1.88-1.92-4.57-1.92-8.07 0-1.74.16-3.28.48-4.62.34-1.36.82-2.5 1.44-3.42.64-.92 1.4-1.62 2.28-2.1.9-.48 1.91-.72 3.03-.72 2.26 0 4.03.94 5.31 2.82 1.28 1.86 1.92 4.54 1.92 8.04zm-3.75 0c0-1.08-.06-2.09-.18-3.03s-.32-1.75-.6-2.43c-.26-.7-.61-1.25-1.05-1.65-.44-.4-.99-.6-1.65-.6-.66 0-1.22.2-1.68.6-.44.4-.8.95-1.08 1.65-.26.68-.45 1.49-.57 2.43-.1.94-.15 1.95-.15 3.03 0 1.08.05 2.09.15 3.03.12.94.31 1.76.57 2.46.28.68.64 1.22 1.08 1.62.46.4 1.02.6 1.68.6.66 0 1.21-.2 1.65-.6.44-.4.79-.94 1.05-1.62.28-.7.48-1.52.6-2.46s.18-1.95.18-3.03zm22.301 0c0 3.5-.64 6.19-1.92 8.07-1.28 1.86-3.05 2.79-5.31 2.79s-4.03-.93-5.31-2.79c-1.28-1.88-1.92-4.57-1.92-8.07 0-1.74.16-3.28.48-4.62.34-1.36.82-2.5 1.44-3.42.64-.92 1.4-1.62 2.28-2.1.9-.48 1.91-.72 3.03-.72 2.26 0 4.03.94 5.31 2.82 1.28 1.86 1.92 4.54 1.92 8.04zm-3.75 0c0-1.08-.06-2.09-.18-3.03s-.32-1.75-.6-2.43c-.26-.7-.61-1.25-1.05-1.65-.44-.4-.99-.6-1.65-.6-.66 0-1.22.2-1.68.6-.44.4-.8.95-1.08 1.65-.26.68-.45 1.49-.57 2.43-.1.94-.15 1.95-.15 3.03 0 1.08.05 2.09.15 3.03.12.94.31 1.76.57 2.46.28.68.64 1.22 1.08 1.62.46.4 1.02.6 1.68.6.66 0 1.21-.2 1.65-.6.44-.4.79-.94 1.05-1.62.28-.7.48-1.52.6-2.46s.18-1.95.18-3.03zm8.11.3h5.34V6.01h3.241v5.88h5.34v3.06h-5.34v5.88h-3.24v-5.88h-5.34v-3.06z" fill="url(#paint0_linear)"/><defs><linearGradient id="paint0_linear" x1="54" y1="-4" x2="54" y2="26" gradientUnits="userSpaceOnUse"><stop stop-color="#2768CC"/><stop offset="1" stop-color="#fff" stop-opacity="0"/></linearGradient></defs></svg>