<svg width="33" height="12" fill="none" xmlns="http://www.w3.org/2000/svg"><path d="M23.538 2.689a1.344 1.344 0 10.001-2.69 1.344 1.344 0 00-.002 2.69zm-10.302.724c-.06.157-.497 1.387-1.554 2.666V.61l-2.815.556v9.912h2.816V8.016c.815 1.222 1.218 3.063 1.218 3.063h3.372c-.333-1.387-1.792-3.943-1.792-3.943a12.346 12.346 0 001.975-3.722h-3.22zm7.4-.103c-2.52.081-3.8 1.212-3.8 3.461v4.308h2.75V7.566c0-1.346.177-1.92 1.774-1.978V3.35c-.268-.057-.723-.04-.723-.04zM4.147 4.507c-.344-.023-1.143-.075-1.143-.793 0-.867 1.15-.867 1.58-.867.759 0 1.74.223 2.441.433.24.1.48.193.724.28l.032.008V1.192l-.043-.012C6.91.89 5.948.612 4.165.612 1.089.612 0 2.402 0 3.938c0 .884.38 2.967 3.9 3.207.3.018 1.092.064 1.092.807 0 .613-.65.974-1.74.974a8.563 8.563 0 01-3.06-.593v2.445c1.055.277 2.244.415 3.637.415 3.007 0 4.354-1.695 4.354-3.375 0-1.905-1.507-3.142-4.036-3.311zm18.029 6.573h2.728V3.423h-2.729l.001 7.657zm7.866-9.98v9.98h2.729V.612l-2.73.488zm-3.982 0l2.726-.488V11.08H26.06V1.1z" fill="#333"/></svg>