<svg width="12" height="12" fill="none" xmlns="http://www.w3.org/2000/svg"><path d="M9.948 10.596H1.452a.185.185 0 00-.18.18v.744c0 .096.084.18.18.18H9.96c.096 0 .18-.084.18-.18v-.732a.19.19 0 00-.192-.192zm.696-8.28A5.117 5.117 0 008.724.384a.708.708 0 00-.852.12L2.064 6.312a.342.342 0 00-.096.168l-.696 2.832c-.036.12.012.252.096.348.096.096.228.132.348.096l2.832-.696a.342.342 0 00.168-.096l.216-.216 5.592-5.592a.688.688 0 00.12-.84zM2.952 8.7a1.64 1.64 0 00-.624-.624l.312-1.248c.624.348 1.224.96 1.56 1.572l-1.248.3z" fill="#333"/></svg>