<svg width="51" height="19" fill="none" xmlns="http://www.w3.org/2000/svg"><path d="M36.402 4.887c1.15 0 2.08-.928 2.08-2.073a2.078 2.078 0 00-2.08-2.075 2.076 2.076 0 00-1.92 2.868 2.072 2.072 0 001.92 1.28zM20.471 6.005c-.094.242-.77 2.14-2.404 4.112V1.682l-4.353.858v15.293h4.354v-4.727c1.261 1.886 1.884 4.726 1.884 4.726h5.215c-.515-2.14-2.772-6.083-2.772-6.083a19.032 19.032 0 003.056-5.743h-4.98zm11.445-.16c-3.899.126-5.879 1.87-5.879 5.34v6.647h4.255v-5.42c0-2.076.272-2.961 2.743-3.052V5.909c-.415-.089-1.119-.06-1.119-.06v-.003zM6.413 7.693c-.533-.035-1.768-.115-1.768-1.224 0-1.337 1.777-1.337 2.444-1.337 1.172 0 2.69.344 3.775.669.37.153.742.297 1.12.43l.048.013V2.578l-.066-.02c-1.28-.446-2.767-.876-5.525-.876C1.684 1.682 0 4.446 0 6.814c0 1.365.587 4.578 6.033 4.948.462.028 1.687.099 1.687 1.245 0 .946-1.004 1.504-2.69 1.504-1.848 0-3.644-.47-4.733-.916v3.773c1.632.426 3.47.64 5.625.64 4.65 0 6.733-2.615 6.733-5.207 0-2.939-2.33-4.848-6.241-5.11h-.001zm27.882 10.142h4.22V6.02h-4.221v11.814zM46.46 2.436v15.398h4.22V1.684l-4.22.752zm-6.158 0l4.216-.752v16.15h-4.216v-15.4.002z" fill="#862565"/></svg>