<svg width="14" height="15" fill="none" xmlns="http://www.w3.org/2000/svg"><g clip-path="url(#clip0)"><path d="M2.917 9.447a.646.646 0 01.19.576l-.663 3.703a.635.635 0 00.575.742.64.64 0 00.341-.066l3.324-1.776a.65.65 0 01.61 0l3.324 1.776a.64.64 0 00.932-.676l-.657-3.703a.644.644 0 01.19-.576L13.8 6.842a.64.64 0 00-.36-1.094l-3.73-.512a.648.648 0 01-.492-.354L7.576 1.493a.64.64 0 00-1.152 0l-1.643 3.39a.646.646 0 01-.504.353l-3.721.512a.642.642 0 00-.534.788.64.64 0 00.177.306l2.718 2.605z" fill="#F64F63"/></g><defs><clipPath id="clip0"><path fill="#fff" transform="translate(0 .822)" d="M0 0h14v13.966H0z"/></clipPath></defs></svg>