<svg width="54" height="17" fill="none" xmlns="http://www.w3.org/2000/svg"><g clip-path="url(#clip0)"><path d="M23.4 16.754h-4.374L21.762.298h4.374L23.4 16.754zM39.258.7c-.863-.332-2.232-.7-3.924-.7-4.32 0-7.362 2.24-7.38 5.444-.036 2.364 2.177 3.677 3.833 4.465 1.693.805 2.268 1.33 2.268 2.049-.017 1.102-1.368 1.61-2.627 1.61-1.747 0-2.682-.262-4.104-.875l-.576-.263-.613 3.694c1.026.455 2.917.858 4.88.876 4.59 0 7.577-2.206 7.613-5.62.017-1.873-1.152-3.309-3.672-4.482-1.53-.753-2.467-1.26-2.467-2.03.018-.701.792-1.419 2.52-1.419a7.61 7.61 0 013.258.63l.396.175.595-3.553zm5.813 10.224c.36-.945 1.747-4.604 1.747-4.604-.018.035.36-.963.575-1.576l.306 1.418s.828 3.94 1.008 4.762h-3.636zm5.4-10.626h-3.384c-1.043 0-1.836.297-2.286 1.365l-6.498 15.091h4.59l.919-2.469h5.616c.125.578.522 2.47.522 2.47H54L50.471.297zm-35.099 0L11.088 11.52l-.468-2.276c-.792-2.626-3.276-5.48-6.048-6.898l3.924 14.39h4.626L19.997.299h-4.625z" fill="#fff"/><path d="M7.11.298H.072L0 .63c5.49 1.366 9.126 4.658 10.62 8.614L9.09 1.681C8.838.631 8.064.333 7.11.298z" fill="#FAA61A"/></g><defs><clipPath id="clip0"><path fill="#fff" d="M0 0h54v17H0z"/></clipPath></defs></svg>